<svg width="14" height="10" viewBox="0 0 14 10" fill="none" xmlns="http://www.w3.org/2000/svg">
<path d="M12.7132 4.367C12.811 4.51463 12.8918 4.64441 12.9552 4.75004C12.8918 4.85568 12.811 4.98545 12.7132 5.13308C12.4337 5.55473 12.0198 6.1156 11.4824 6.67418C10.397 7.80243 8.88002 8.8496 7.00085 8.8496C5.12169 8.8496 3.60469 7.80243 2.51928 6.67418C1.98191 6.1156 1.56797 5.55473 1.28853 5.13308C1.19069 4.98545 1.10986 4.85568 1.04648 4.75004C1.10986 4.64441 1.19069 4.51463 1.28853 4.367C1.56797 3.94536 1.98191 3.38449 2.51928 2.82591C3.60469 1.69766 5.12169 0.650488 7.00085 0.650488C8.88002 0.650488 10.397 1.69766 11.4824 2.82591C12.0198 3.38449 12.4337 3.94536 12.7132 4.367Z" stroke="white" stroke-width="1.3" stroke-linecap="round" stroke-linejoin="round"/>
<path d="M7.00081 6.53092C7.98448 6.53092 8.78189 5.7335 8.78189 4.74983C8.78189 3.76617 7.98448 2.96875 7.00081 2.96875C6.01714 2.96875 5.21973 3.76617 5.21973 4.74983C5.21973 5.7335 6.01714 6.53092 7.00081 6.53092Z" stroke="white" stroke-width="1.3" stroke-linecap="round" stroke-linejoin="round"/>
</svg>
