<svg width="18" height="18" viewBox="0 0 18 18" fill="none" xmlns="http://www.w3.org/2000/svg">
<path d="M11.05 4.0001L11.05 7.2001L15.578 7.2001C15.8099 7.19747 16.0396 7.2453 16.2512 7.34027C16.4628 7.43524 16.6512 7.57508 16.8034 7.75011C16.9556 7.92513 17.068 8.13115 17.1326 8.3539C17.1973 8.57664 17.2128 8.81078 17.178 9.0401L16.074 16.2401C16.0161 16.6216 15.8223 16.9694 15.5283 17.2193C15.2343 17.4692 14.8598 17.6045 14.474 17.6001L5.7312 17.6001V8.16729L8.64995 1.6001C9.28647 1.6001 9.89692 1.85295 10.347 2.30304C10.7971 2.75313 11.05 3.36358 11.05 4.0001Z" fill="white"/>
<path d="M3.48276 8.8001H3.04995C2.62561 8.8001 2.21864 8.96867 1.91858 9.26873C1.61852 9.56879 1.44995 9.97575 1.44995 10.4001V16.0001C1.44995 16.4244 1.61852 16.8314 1.91858 17.1315C2.21864 17.4315 2.62561 17.6001 3.04995 17.6001H3.48276V8.8001Z" fill="white"/>
<path d="M11.05 4.0001L11.05 7.2001L15.578 7.2001C15.8099 7.19747 16.0396 7.2453 16.2512 7.34027C16.4628 7.43524 16.6512 7.57508 16.8034 7.75011C16.9556 7.92513 17.068 8.13115 17.1326 8.3539C17.1973 8.57664 17.2128 8.81078 17.178 9.0401L16.074 16.2401C16.0161 16.6216 15.8223 16.9694 15.5283 17.2193C15.2343 17.4692 14.8598 17.6045 14.474 17.6001L5.7312 17.6001V8.16729L8.64995 1.6001C9.28647 1.6001 9.89692 1.85295 10.347 2.30304C10.7971 2.75313 11.05 3.36358 11.05 4.0001Z" stroke="white" stroke-width="0.8" stroke-linecap="round" stroke-linejoin="round"/>
<path d="M3.48276 8.8001H3.04995C2.62561 8.8001 2.21864 8.96867 1.91858 9.26873C1.61852 9.56879 1.44995 9.97575 1.44995 10.4001V16.0001C1.44995 16.4244 1.61852 16.8314 1.91858 17.1315C2.21864 17.4315 2.62561 17.6001 3.04995 17.6001H3.48276V8.8001Z" stroke="white" stroke-width="0.8" stroke-linecap="round" stroke-linejoin="round"/>
</svg>
