<svg width="106" height="94" viewBox="0 0 106 94" fill="none" xmlns="http://www.w3.org/2000/svg">
<path d="M74.8594 1.47031C74.9008 1.33229 74.9691 1.20387 75.0606 1.09251C75.152 0.981143 75.2646 0.889059 75.392 0.821604C75.5193 0.754149 75.6587 0.712668 75.8022 0.69957C75.9457 0.686473 76.0904 0.702021 76.2278 0.745311C79.0916 1.63344 73.9259 4.47906 74.8594 1.47031Z" stroke="white" stroke-width="0.539535" stroke-miterlimit="10"/>
<path d="M103.497 20.2472C103.539 20.11 103.608 19.9825 103.7 19.8722C103.792 19.7618 103.905 19.6707 104.032 19.6041C104.159 19.5376 104.299 19.4969 104.442 19.4844C104.585 19.4719 104.729 19.4878 104.866 19.5313C107.729 20.4103 102.564 23.2559 103.497 20.2472Z" stroke="white" stroke-width="0.539535" stroke-miterlimit="10"/>
<path d="M48.5141 14.8816C48.6017 14.6059 48.7946 14.376 49.0509 14.2419C49.3073 14.1078 49.6062 14.0804 49.8826 14.1657C52.7463 15.0448 47.5626 17.8904 48.5141 14.8816Z" stroke="white" stroke-width="0.539535" stroke-miterlimit="10"/>
<path d="M19.723 67.7351C19.723 65.7353 19.723 63.7265 19.723 61.7086C19.723 60.9745 19.6233 60.2404 19.6233 59.5064C19.6233 56.9145 19.6233 54.3166 19.6233 51.7126C19.6233 50.5617 19.578 49.4017 19.5236 48.2598L19.3967 46.0939C19.4088 45.3529 19.4754 44.6138 19.5961 43.8826C19.6686 43.4204 20.0583 43.4839 20.5024 43.8826C21.0496 44.39 21.4103 45.0667 21.5264 45.8039C21.6805 48.7673 21.762 51.7398 21.6533 54.7576C21.5717 56.5701 21.7802 58.3826 21.8436 60.2676L22.0067 66.3667C22.0067 67.6173 22.0067 68.8679 22.0067 70.1186C22.0067 72.0126 22.0067 73.9248 22.0067 75.8098L22.1427 80.1598C22.1591 80.4617 22.1591 80.7642 22.1427 81.066C22.043 82.2623 21.8889 82.6339 21.463 82.8785C21.3722 82.9377 21.2784 82.9921 21.182 83.0417C20.8649 83.1414 20.6111 82.6429 20.4661 81.7729C20.0844 79.1338 19.8695 76.4732 19.8227 73.807C19.7592 71.7951 19.6867 69.7742 19.6233 67.7532L19.723 67.7351Z" fill="white"/>
<path d="M35.8812 85.117C37.748 85.7513 39.633 86.3555 41.5362 86.9295C42.2249 87.1379 42.9409 87.2648 43.6296 87.4732C46.0765 88.2254 48.5234 89.032 50.9793 89.8204L54.269 90.8082C54.9759 91.0438 55.6827 91.207 56.3805 91.5151C56.734 91.6601 57.0784 91.8051 57.4137 91.9773C57.7296 92.1847 58.0323 92.4117 58.3199 92.657C58.7096 92.9651 58.4015 93.2551 57.8487 93.4454C57.5399 93.5453 57.2206 93.6091 56.8971 93.6357C56.5287 93.6826 56.1545 93.6485 55.8005 93.536C53.1724 92.6298 50.2905 92.0045 47.4812 91.062C45.7955 90.491 43.9559 90.2282 42.1887 89.757C40.2402 89.2585 38.3009 88.7148 36.3705 88.1529L32.7999 87.0654C30.9874 86.4945 29.2202 85.8601 27.444 85.2529C26.7552 85.0082 26.0665 84.7998 25.3596 84.6004C24.6527 84.401 23.973 84.1382 23.2752 83.9026C22.965 83.8104 22.6621 83.6953 22.369 83.5582C21.2815 82.9873 21.073 82.5523 21.209 81.8273C21.2347 81.659 21.271 81.4925 21.3177 81.3288C21.499 80.8123 22.1515 80.631 22.9943 80.7942C24.1815 81.1204 25.3959 81.492 26.6193 81.9088C27.8427 82.3257 29.048 82.7335 30.2987 83.1595C32.1112 83.812 33.9962 84.4645 35.8902 85.0535L35.8812 85.117Z" fill="white"/>
<path d="M77.4694 87.9077C82.4085 86.4668 87.3022 84.7902 92.1869 83.0774C93.9994 82.4521 95.7213 81.7543 97.4975 81.1108L102.192 79.398L102.554 79.2621C102.609 79.2621 102.69 79.2621 102.727 79.1805C102.731 79.1172 102.731 79.0536 102.727 78.9902V78.5371L102.853 76.0449L103.352 66.0761C103.497 63.1218 103.588 60.1493 103.669 57.213C103.769 53.443 103.841 49.6549 104.113 45.8849C104.195 44.7158 104.476 44.8789 104.748 45.8849C105.131 47.5274 105.317 49.2099 105.3 50.8964C105.3 58.6086 105.21 66.3027 104.811 74.0693C104.757 75.2383 104.702 76.4074 104.666 77.5855L104.657 79.6246C104.638 79.8505 104.589 80.0729 104.512 80.2861V80.4493C104.512 80.4493 104.276 80.2952 104.385 80.3677V80.4221L104.168 80.6577L104.059 80.7846L103.887 80.8571L103.551 81.0021L103.044 81.2196C100.833 82.1258 98.6031 83.0321 96.3828 83.8658C91.4891 85.7387 86.547 87.4878 81.5566 89.113C78.4753 90.0918 75.3941 91.0524 72.1769 91.7411L71.035 91.9496C70.5881 92.0208 70.1371 92.0632 69.6847 92.0764C69.1661 92.1196 68.6457 92.0193 68.1803 91.7864C68.0696 91.7308 67.9714 91.653 67.8919 91.558C67.8124 91.4629 67.7533 91.3525 67.7181 91.2336C67.6541 90.9905 67.6146 90.7415 67.6003 90.4905V85.1436C67.6003 83.458 67.6003 81.7724 67.6003 80.0958C67.6003 76.3349 67.5278 72.6374 67.6003 68.9218C67.6003 68.0971 67.6003 67.2996 67.6547 66.4658C67.8722 63.4118 68.135 62.4511 68.561 61.8077C68.6483 61.6603 68.7484 61.5208 68.86 61.3908C69.1681 61.1099 69.4219 62.3786 69.5578 64.6171C69.6847 66.2846 69.721 67.9611 69.7572 69.6558C69.7935 71.3505 69.866 73.0724 69.866 74.7943C69.866 78.238 69.9294 81.7361 69.9657 85.2433C69.9657 86.6933 69.9657 88.1433 69.9657 89.6024C70.7894 89.5116 71.6066 89.3694 72.4125 89.1764C74.0981 88.8049 75.8019 88.3246 77.4966 87.8171L77.4694 87.9077Z" fill="white"/>
<path d="M37.1141 46.746C39.4522 47.5254 41.8024 48.2655 44.1647 48.9663C45.071 49.2201 45.9047 49.4013 46.7657 49.6732C49.8016 50.5794 52.8375 51.4857 55.9097 52.3919C57.26 52.7816 58.6285 53.1079 60.006 53.4251L62.6341 54.0232C63.5404 54.2497 64.365 54.5307 65.226 54.8297C65.7788 55.0472 65.6247 55.2376 65.1082 55.4007C64.2987 55.6468 63.4503 55.739 62.6069 55.6726C58.9434 55.2147 55.3221 54.4662 51.7772 53.4341C49.6475 52.7907 47.3729 52.3919 45.1707 51.8391C42.751 51.2047 40.3494 50.516 37.9207 49.8001L33.5072 48.4588C31.2779 47.7701 29.0666 46.9816 26.8644 46.2385C25.1425 45.6585 23.4207 45.1963 21.735 44.426C21.3635 44.2447 20.9829 44.1269 20.6113 43.9004C19.2157 43.1754 19.125 42.2601 19.2066 41.7616C19.2175 41.6415 19.2418 41.5229 19.2791 41.4082C19.3516 41.2541 19.5419 41.236 19.841 41.2632C20.2476 41.2792 20.6515 41.3369 21.0463 41.4354C22.4057 41.9157 23.901 42.4051 25.4325 42.8491L30.0635 44.3897C32.4016 45.1329 34.7307 45.9666 37.105 46.6826L37.1141 46.746Z" fill="white"/>
<path d="M100.66 41.2629C95.7302 39.3145 90.6915 37.5292 85.6165 35.762L80.0612 33.8951L70.2918 30.5601L65.398 28.9288L64.6368 28.6842C64.3196 28.5754 63.9843 28.4848 63.7305 28.367L63.8212 26.5545C63.8212 25.7026 63.8937 24.8507 63.9118 23.9988C63.9339 20.9701 63.7614 17.943 63.3952 14.9363C62.8385 11.067 62.4906 7.17057 62.353 3.26384C62.353 2.04041 62.7065 2.18541 63.1415 3.19134C63.7963 4.80746 64.2086 6.51151 64.3649 8.24822C64.7818 12.1813 65.3527 16.1326 65.543 20.1835C65.6427 22.2045 65.6336 24.2345 65.543 26.2554L65.4977 27.0076V27.1163C65.4977 27.1707 65.543 27.1617 65.5702 27.1798H65.6518L66.0052 27.2976L68.8599 28.2582C73.3912 29.826 78.1852 31.267 82.8433 32.7895C87.9637 34.4932 93.0749 36.2423 98.168 38.082C99.3915 38.526 100.606 38.9882 101.793 39.4595C102.655 39.7371 103.473 40.1369 104.222 40.6467C104.457 40.8642 104.738 41.1179 104.548 41.417L103.905 42.2054C103.062 42.8307 102.02 43.4288 101.503 43.737C97.0402 46.1082 92.4473 48.2262 87.7461 50.0807C84.1211 51.567 80.6321 53.0623 77.0071 54.3945C76.2096 54.6935 75.4302 54.9926 74.6055 55.2554C71.5424 56.207 70.4277 56.2523 69.6211 55.6904C69.4448 55.5894 69.2858 55.4609 69.1499 55.3098C68.9052 54.8295 69.9383 54.4035 72.0862 53.6785C75.258 52.591 78.5387 51.3404 81.8374 50.0535C85.1362 48.7667 88.4802 47.4254 91.8062 46.0026C92.7124 45.6129 93.6187 45.2232 94.5249 44.8063C95.4312 44.3895 96.3374 43.9907 97.1893 43.5557C98.0412 43.1207 98.9293 42.6495 99.7902 42.2326C100.234 42.0151 100.633 41.7613 101.05 41.5257H101.131C101.131 41.5257 101.204 41.5257 101.131 41.5257L100.696 41.3535L100.66 41.2629Z" fill="white"/>
<path d="M26.2388 40.6567C25.1785 41.0102 24.1181 41.3636 23.0216 41.6808L22.6047 41.7986L22.0519 41.9436C21.5824 42.0752 21.0984 42.1482 20.611 42.1611C20.1958 42.1732 19.7902 42.0348 19.4691 41.7714C19.306 41.6445 19.306 41.418 19.2335 41.2367L19.0703 40.6567C19.0703 38.8442 19.1156 38.0649 19.1428 37.0317L19.2063 33.4067C19.3422 29.247 19.4328 25.1055 19.2063 20.9639C19.1066 19.1514 18.9072 17.2845 18.6716 15.472C18.3453 13.143 17.9103 10.832 17.5931 8.50298C17.5116 7.77798 17.8288 7.80517 18.2728 8.34892C18.9244 9.22306 19.3705 10.2329 19.5778 11.3033C20.0946 13.6982 20.4878 16.118 20.756 18.5533C21.0022 20.9862 21.1172 23.4305 21.1003 25.8758C21.1003 28.803 21.2 31.8389 21.1728 34.8205L21.0913 39.6599V39.8864C21.0854 39.9046 21.084 39.9239 21.0872 39.9427C21.0904 39.9615 21.0981 39.9792 21.1097 39.9944C21.1213 40.0095 21.1364 40.0216 21.1537 40.0297C21.171 40.0377 21.19 40.0414 21.2091 40.0405C21.3593 40.0624 21.512 40.0624 21.6622 40.0405C21.7347 40.0405 22.1697 39.9045 22.5141 39.8049L23.5744 39.4695C25.4685 38.8442 27.3716 38.1736 29.2747 37.5211C32.1566 36.5242 35.0928 35.5908 37.9928 34.6936C40.2494 33.9867 42.4606 33.2617 44.7444 32.718C45.2519 32.5911 45.7413 32.4642 46.2578 32.3555C46.936 32.2074 47.6329 32.1646 48.3241 32.2286C48.6738 32.2473 49.0106 32.3669 49.2938 32.573C49.4014 32.6449 49.5043 32.7236 49.6019 32.8086C49.8194 33.0714 49.0853 33.443 47.7894 33.9414C45.8228 34.5849 43.8019 35.1286 41.7719 35.7539C39.7419 36.3792 37.5941 36.9411 35.5188 37.6117C32.4375 38.5905 29.3563 39.6417 26.2569 40.7292L26.2388 40.6567Z" fill="white"/>
<path d="M29.138 3.90756C30.6514 3.62662 32.1739 3.34568 33.6692 3.00131C34.222 2.8835 34.7567 2.71131 35.3096 2.60256L41.2183 1.49693C42.1245 1.32475 42.9492 1.09818 43.8011 0.880683C44.8888 0.535128 46.0151 0.325104 47.1542 0.255371C47.5167 0.255371 47.5258 0.563496 47.2992 0.962246C47.0076 1.45545 46.5522 1.83069 46.0124 2.02256C43.8239 2.70885 41.5928 3.25075 39.3333 3.64475C37.9558 3.88037 36.6146 4.35162 35.2008 4.66881C33.6783 5.02225 32.1467 5.3485 30.6152 5.67475L27.7696 6.2185C26.3377 6.5085 24.8877 6.75318 23.4739 7.07037C22.3592 7.28787 21.2989 7.61412 20.1842 7.84068C19.9521 7.92661 19.7124 7.99033 19.4683 8.031C18.5621 8.031 18.2177 7.91318 17.9821 7.51443C17.9239 7.42783 17.8724 7.33694 17.828 7.24256C17.7192 6.9435 18.0636 6.62631 18.6889 6.33631C19.6186 5.94352 20.5836 5.64007 21.5708 5.43006C22.5496 5.17631 23.5555 4.95881 24.5796 4.7685L29.1108 3.86225L29.138 3.90756Z" fill="white"/>
<path d="M20.7922 73.7878C20.2303 73.9238 6.48249 72.8816 0.854675 78.8085C-5.31689 85.3788 36.0625 91.3238 56.1359 92.2119L21.2815 81.4366L20.7922 73.7878Z" fill="white"/>
<path d="M86.1417 27.4434C85.3442 29.0837 84.5739 30.7512 83.8761 32.4459C83.6042 33.0621 83.423 33.7056 83.1783 34.3309C82.2721 36.5149 81.4383 38.7352 80.6771 40.9827C80.3508 41.9796 80.088 43.0037 79.8614 44.0096C79.5896 45.3056 79.3811 46.674 79.1002 47.8431C79.0096 48.1965 78.5836 48.2146 78.1939 47.8431C77.9522 47.6061 77.7665 47.3181 77.6502 47.0002C77.5226 46.634 77.4823 46.243 77.5324 45.8584C77.9673 43.0656 78.712 40.33 79.7527 37.7021C80.3871 36.1434 80.8402 34.4668 81.4383 32.8537C82.0968 31.0956 82.8128 29.3525 83.5861 27.6246C84.0483 26.5643 84.5649 25.5221 85.0452 24.4709L86.2505 22.1146C86.6764 21.3443 87.1024 20.574 87.5102 19.7946C88.1989 18.6165 88.7336 17.3749 89.513 16.1696C89.662 15.9001 89.8316 15.6425 90.0205 15.3993C90.7999 14.4931 91.1896 14.3662 91.7786 14.6471C91.9168 14.7025 92.0501 14.7692 92.1774 14.8465C92.5761 15.1274 92.558 15.7527 92.1774 16.3871C91.0989 18.3537 89.803 20.3112 88.6792 22.4952C87.773 24.0812 86.9664 25.7124 86.1961 27.3799L86.1417 27.4434Z" fill="white"/>
<path d="M94.5787 11.3118C94.5704 11.2668 94.5482 11.2256 94.5152 11.194H94.4427C94.4427 11.194 94.3793 11.194 94.2434 11.194C93.6664 11.3409 93.1072 11.5506 92.5759 11.8193C92.168 12.0187 91.8055 12.3087 91.4068 12.5443C89.9694 13.4665 88.6087 14.503 87.3377 15.6437C86.7487 16.1421 86.1687 16.6949 85.6159 17.2296C84.8999 17.9093 84.2927 18.6162 83.5859 19.2324C83.3684 19.4227 83.0421 19.178 82.8609 18.7159C82.7597 18.4486 82.7266 18.1605 82.7645 17.8773C82.8025 17.5941 82.9104 17.3248 83.0784 17.0937C83.7501 16.3092 84.4641 15.562 85.2171 14.8552C85.9546 14.1379 86.7453 13.4775 87.5824 12.8796C88.5974 12.1455 89.5218 11.203 90.6455 10.478C91.2705 10.0784 91.9284 9.73281 92.6121 9.44492C92.9645 9.29075 93.328 9.16351 93.6996 9.06429C94.2024 8.91574 94.7374 8.91574 95.2402 9.06429C95.8417 9.29094 96.3342 9.73812 96.6177 10.3149C96.842 10.7881 96.9801 11.2976 97.0255 11.8193C97.0658 12.4923 97.0658 13.1672 97.0255 13.8402C97.0255 14.1574 97.0255 14.4746 97.0255 14.7465C97.0255 15.0184 97.0255 15.3809 97.089 15.6527C97.188 16.5799 97.3948 17.4923 97.7052 18.3715C97.7687 18.5618 97.8593 18.734 97.9137 18.9152C98.1493 19.5859 98.0224 19.8215 97.4605 20.2384C97.3246 20.329 97.2068 20.4377 97.0709 20.5193C96.9498 20.5831 96.8169 20.6214 96.6804 20.6316C96.544 20.6418 96.4068 20.6239 96.2776 20.5788C96.1484 20.5338 96.0298 20.4626 95.9293 20.3697C95.8288 20.2768 95.7485 20.1642 95.6934 20.039C95.2197 19.1539 94.9125 18.1894 94.7871 17.1934C94.7237 16.713 94.6784 16.2418 94.6512 15.7705V15.0818C94.6512 14.8824 94.6512 14.5471 94.6512 14.3115C94.6512 13.5774 94.7146 12.9521 94.6512 12.3721C94.6642 12.007 94.6152 11.6423 94.5062 11.2937L94.5787 11.3118Z" fill="white"/>
<path d="M60.9752 37.031C61.3105 38.2 61.6005 39.3782 61.8815 40.5563C61.9812 40.9822 62.1262 41.3991 62.2168 41.8341C62.5249 43.3566 62.7333 44.9063 62.9055 46.4469C62.978 47.1357 63.0868 47.8153 63.1865 48.495C63.3708 49.3647 63.4106 50.2587 63.3043 51.1413C63.259 51.4222 62.8784 51.3769 62.4977 51.1413C62.2875 51.0333 62.1033 50.8809 61.9577 50.6947C61.8122 50.5085 61.7089 50.2929 61.6549 50.0628C61.4555 48.3863 61.1565 46.7007 60.9933 44.9516C60.832 43.9026 60.5834 42.8689 60.2502 41.8613C59.9693 40.7194 59.6521 39.5775 59.344 38.4447C59.1355 37.7469 58.909 37.0582 58.6734 36.3694C58.3151 35.325 57.9038 34.2996 57.4409 33.2972C57.0443 32.5471 56.5993 31.8236 56.1087 31.1313C56.009 30.9772 55.9002 30.8232 55.8096 30.66C55.4833 30.0528 55.5196 29.7538 55.9455 29.4003C56.0376 29.3078 56.1344 29.2201 56.2355 29.1375C56.4203 29.0193 56.6439 28.9778 56.8588 29.0218C57.0737 29.0658 57.263 29.1918 57.3865 29.3732C57.9361 29.9604 58.3998 30.6225 58.764 31.3397C59.1549 32.0586 59.5029 32.8 59.8062 33.56C60.2684 34.6928 60.649 35.8619 61.0205 37.0219L60.9752 37.031Z" fill="white"/>
<path d="M52.7287 24.2164C52.8677 23.5323 53.2013 22.903 53.6893 22.4039C53.8868 22.2357 54.1143 22.1065 54.36 22.0233C54.6085 21.9503 54.8727 21.9503 55.1212 22.0233C55.6616 22.1978 56.1379 22.529 56.4897 22.9748C56.7162 23.2376 56.9881 23.5548 57.1603 23.7723C57.3325 23.9898 57.4322 24.1167 57.55 24.2889C58.3565 25.5395 59.0815 26.7811 59.9153 27.9139C60.2836 28.4512 60.6991 28.9547 61.1568 29.4183C61.7278 29.9711 62.344 30.4242 62.8968 30.9498C63.06 31.113 62.8968 31.4301 62.5072 31.6295C62.2932 31.7563 62.049 31.8232 61.8003 31.8232C61.5515 31.8232 61.3074 31.7563 61.0934 31.6295C59.6159 30.5951 58.397 29.2337 57.5318 27.6511C56.9819 26.7794 56.3764 25.9439 55.7193 25.1498L55.6197 25.0048V24.9504L55.5472 24.8417L55.375 24.6061C55.3083 24.5255 55.2248 24.4606 55.1303 24.4158C55.0215 24.4158 54.94 24.4611 54.8765 24.5336C54.8301 24.5839 54.7932 24.6422 54.7678 24.7058C54.7033 24.8512 54.6547 25.0031 54.6228 25.1589C54.5748 25.4589 54.5446 25.7615 54.5322 26.0651C54.5322 26.5726 54.5322 27.1254 54.4143 27.7054C54.2965 28.2854 54.2965 28.7567 54.2512 29.2914C54.1787 30.1161 54.2512 30.9679 54.0972 31.847C54.0803 32.0422 54.05 32.236 54.0065 32.427C53.8343 33.1611 53.5172 33.3333 52.9281 33.1883C52.7922 33.1883 52.6472 33.1883 52.5203 33.1067C52.3176 33.0344 52.1428 32.9 52.0207 32.7227C51.8987 32.5453 51.8357 32.3341 51.8406 32.1189C51.9131 30.823 52.0581 29.4636 52.2393 27.9411L52.3481 27.1617L52.4115 26.3642L52.484 25.4579L52.5384 24.9776C52.5384 24.7058 52.6381 24.4339 52.6743 24.1711L52.7287 24.2164Z" fill="white"/>
<path d="M37.5033 38.4354C36.1621 38.7707 34.8299 39.1332 33.4977 39.5048L32.0477 39.9307C30.3349 40.402 28.613 40.837 26.9092 41.3716L24.6436 42.0785C23.6815 42.4434 22.6813 42.6988 21.6621 42.8398C21.2996 42.8398 21.3721 42.6404 21.5986 42.4048C21.9142 42.0649 22.3054 41.8041 22.7405 41.6435L25.6224 40.6557C26.6011 40.3295 27.598 40.0485 28.6039 39.7495C29.8002 39.4323 31.0146 38.9701 32.2289 38.5985C33.4433 38.227 34.9477 37.8101 36.2527 37.4295L38.7449 36.7498C39.9955 36.4054 41.2642 36.0973 42.5058 35.7348C43.4755 35.4538 44.3999 35.1095 45.3605 34.8285C45.5689 34.7651 45.7774 34.6926 45.9949 34.6382C46.7924 34.466 47.0824 34.5748 47.318 34.7741L47.463 34.9191C47.5808 35.0823 47.2999 35.336 46.7652 35.6441C45.9339 36.0118 45.0839 36.3355 44.2186 36.6138C43.3124 36.8766 42.4061 37.1213 41.4999 37.3751L37.4761 38.4535L37.5033 38.4354Z" fill="white"/>
<path d="M85.6259 50.5249C87.2027 50.0446 88.7796 49.5552 90.3474 49.0205L92.0421 48.3861C94.0449 47.6883 96.0387 46.9543 97.978 46.1024C98.8369 45.7281 99.6749 45.3076 100.488 44.8427C101.512 44.2355 102.5 43.5649 103.452 42.9305C103.76 42.7402 103.923 42.9305 103.869 43.3836C103.818 43.65 103.727 43.9069 103.597 44.1449C103.424 44.4376 103.189 44.6883 102.908 44.8789C100.81 46.2764 98.5444 47.4059 96.1655 48.2411C94.7518 48.7486 93.338 49.4102 91.9152 49.963C90.3474 50.5521 88.7615 51.1139 87.1755 51.6486L84.2212 52.6183L79.7624 54.0502C78.6296 54.4399 77.533 54.9021 76.4184 55.3371C76.1646 55.4277 75.929 55.5364 75.6752 55.618C74.769 55.9261 74.4065 55.8899 74.0802 55.4821C73.9945 55.3971 73.9185 55.3029 73.8537 55.2011C73.6634 54.8749 73.9624 54.4671 74.6149 54.1589C76.6373 53.299 78.7105 52.5635 80.8227 51.9568L85.6259 50.4886V50.5249Z" fill="white"/>
<path d="M28.9848 5.20409C30.1811 4.98659 31.3773 4.75097 32.6098 4.49722L33.9148 4.18909L38.5276 3.28284C39.2073 3.13784 39.887 2.95659 40.5576 2.77534C41.4077 2.51075 42.2774 2.31378 43.1586 2.18628C43.4395 2.18628 43.4486 2.36753 43.2764 2.63034C43.0267 2.98469 42.6715 3.25112 42.2614 3.39159C40.5275 3.95311 38.7598 4.40412 36.9689 4.7419C35.8995 4.94128 34.812 5.28565 33.7154 5.5394C32.6189 5.79315 31.3048 6.07409 30.0904 6.32784L27.8611 6.79003L24.4807 7.46065C23.5745 7.63284 22.7679 7.87753 21.8979 8.05878C21.7113 8.1103 21.5201 8.14369 21.327 8.15847C20.602 8.21284 20.3573 8.15847 20.167 7.89565C20.1247 7.84041 20.0853 7.78293 20.0492 7.72347C19.9586 7.54222 20.2214 7.32472 20.7198 7.12534C21.4636 6.83468 22.2306 6.60731 23.0126 6.44565C23.798 6.24628 24.5955 6.07409 25.4051 5.92909L29.0301 5.21315L28.9848 5.20409Z" fill="white"/>
</svg>
