<svg width="18" height="18" viewBox="0 0 18 18" fill="none" xmlns="http://www.w3.org/2000/svg">
<path d="M5.74367 5.95537L10.1437 2.75537L9.96861 16.2482L5.74367 12.5098L1.34363 12.2618L1.34367 6.35537L5.74367 5.95537Z" fill="white"/>
<g clip-path="url(#clip0_1356_9049)">
<path d="M9.49215 2.12379C9.95516 1.70844 10.6914 2.0367 10.6914 2.65829V16.0351C10.6914 16.6571 9.95516 16.9853 9.49215 16.57L6.12084 13.5438C5.76278 13.2222 5.29852 13.0443 4.81726 13.0442H2.88552C2.31348 13.0442 1.76487 12.8169 1.36037 12.4124C0.95588 12.008 0.728638 11.4593 0.728638 10.8873V7.80605C0.728638 6.61463 1.6941 5.64916 2.88552 5.64916H4.81726C5.29852 5.64908 5.76278 5.47116 6.12084 5.14959L9.49215 2.12379ZM9.66429 3.34931L6.80693 5.91456C6.2603 6.40508 5.55171 6.67634 4.81726 6.67625H2.88552C2.58588 6.67625 2.29851 6.79528 2.08663 7.00716C1.87476 7.21904 1.75572 7.50641 1.75572 7.80605V10.8873C1.75572 11.1869 1.87476 11.4743 2.08663 11.6862C2.29851 11.8981 2.58588 12.0171 2.88552 12.0171H4.81726C5.55177 12.0171 6.26036 12.2885 6.80693 12.7792L9.66429 15.3449V3.34931ZM12.4851 7.03244C12.5328 6.98474 12.5894 6.9469 12.6517 6.92109C12.714 6.89527 12.7808 6.88198 12.8483 6.88198C12.9157 6.88198 12.9825 6.89527 13.0448 6.92109C13.1071 6.9469 13.1637 6.98474 13.2114 7.03244L14.7997 8.62073L16.388 7.03244C16.4354 6.98338 16.492 6.94424 16.5547 6.91731C16.6173 6.89038 16.6847 6.87619 16.7529 6.87558C16.8211 6.87497 16.8887 6.88795 16.9518 6.91375C17.0149 6.93955 17.0723 6.97767 17.1205 7.02587C17.1688 7.07408 17.2069 7.1314 17.2327 7.19451C17.2586 7.25761 17.2716 7.32523 17.271 7.39342C17.2704 7.46161 17.2563 7.529 17.2294 7.59166C17.2025 7.65432 17.1634 7.711 17.1144 7.75839L15.5261 9.34668L17.1144 10.9354C17.2079 11.0323 17.2596 11.162 17.2584 11.2966C17.2572 11.4313 17.2031 11.5601 17.1079 11.6553C17.0127 11.7505 16.8838 11.8044 16.7492 11.8056C16.6145 11.8067 16.4848 11.7549 16.388 11.6613L14.7997 10.073L13.2114 11.6613C13.1146 11.7549 12.9849 11.8067 12.8502 11.8056C12.7156 11.8044 12.5868 11.7505 12.4915 11.6553C12.3963 11.5601 12.3422 11.4313 12.341 11.2966C12.3398 11.162 12.3916 11.0323 12.4851 10.9354L14.0734 9.34668L12.4851 7.75839C12.3889 7.66209 12.3348 7.53154 12.3348 7.39542C12.3348 7.25929 12.3889 7.12874 12.4851 7.03244Z" fill="white" stroke="white" stroke-width="0.24"/>
</g>
<defs>
<clipPath id="clip0_1356_9049">
<rect width="18" height="18" fill="white"/>
</clipPath>
</defs>
</svg>
