<svg xmlns="http://www.w3.org/2000/svg" width="25" height="25" fill="none" xmlns:v="https://vecta.io/nano"><path d="M17.317 3.594a.96.96 0 0 1 1.599.713v17.836a.96.96 0 0 1-1.599.713l-4.495-4.035a2.6 2.6 0 0 0-1.738-.666H8.508c-.763 0-1.494-.303-2.034-.842s-.842-1.271-.842-2.033V11.17c0-1.589 1.287-2.876 2.876-2.876h2.576a2.6 2.6 0 0 0 1.738-.666l4.495-4.034zm.229 1.634l-3.81 3.42a3.97 3.97 0 0 1-2.653 1.016H8.508c-.4 0-.783.159-1.065.441s-.441.666-.441 1.065v4.108c0 .399.159.783.441 1.065s.666.441 1.065.441h2.576a3.97 3.97 0 0 1 2.653 1.016l3.81 3.421V5.228z" fill="#f2f2f2" stroke="#f2f2f2" stroke-width=".3"/></svg>