<svg xmlns="http://www.w3.org/2000/svg" width="25" height="25" fill="none" xmlns:v="https://vecta.io/nano"><path d="M12.93 3.594a.96.96 0 0 1 1.599.713v17.836a.96.96 0 0 1-1.599.713l-4.495-4.035a2.6 2.6 0 0 0-1.738-.666H4.121c-.763 0-1.494-.303-2.034-.842s-.842-1.271-.842-2.033V11.17c0-1.589 1.287-2.876 2.876-2.876h2.576a2.6 2.6 0 0 0 1.738-.666l4.495-4.034zm.229 1.634l-3.81 3.42a3.97 3.97 0 0 1-2.653 1.016H4.121c-.4 0-.783.159-1.065.441s-.441.666-.441 1.065v4.108c0 .399.159.783.441 1.065s.666.441 1.065.441h2.576a3.97 3.97 0 0 1 2.653 1.016l3.81 3.421V5.228zm3.761 4.911c.064-.064.139-.114.222-.149s.172-.052.262-.052.179.018.262.052.159.085.222.149l2.118 2.118 2.118-2.118c.063-.066.139-.118.222-.154s.173-.055.264-.056.181.016.265.051.161.085.225.15.115.141.15.225.052.174.051.265-.02.181-.056.264-.088.159-.153.222l-2.118 2.118 2.118 2.118c.125.129.194.302.192.482s-.074.351-.201.478-.299.199-.478.2-.352-.067-.482-.192l-2.118-2.118-2.118 2.118c-.129.125-.302.194-.482.192s-.351-.073-.478-.2-.199-.299-.201-.478.067-.353.192-.482l2.118-2.118-2.118-2.118c-.128-.128-.2-.303-.2-.484s.072-.355.2-.484z" fill="#f2f2f2" stroke="#f2f2f2" stroke-width=".3"/></svg>