<svg width="18" height="14" viewBox="0 0 18 14" fill="none" xmlns="http://www.w3.org/2000/svg">
<path d="M10.9171 0.187485C10.8155 0.0950201 10.6882 0.0334131 10.5509 0.01025C10.4136 -0.012913 10.2724 0.00337933 10.1446 0.0571208C10.0167 0.110862 9.90787 0.199707 9.83141 0.312714C9.75495 0.425722 9.71422 0.557958 9.71424 0.693141V3.72708C9.50967 3.73151 9.27138 3.74371 9.00567 3.767C8.12853 3.84573 6.9394 4.05864 5.70512 4.60144C3.1897 5.70756 0.604571 8.13549 0.00457407 13.2286C-0.0117656 13.3681 0.0158994 13.509 0.0839101 13.6329C0.151921 13.7567 0.257073 13.8576 0.385459 13.9222C0.513846 13.9868 0.659418 14.0121 0.802922 13.9946C0.946427 13.9772 1.0811 13.918 1.18914 13.8247C3.66627 11.6878 5.9874 10.768 7.66682 10.3766C8.31974 10.2207 8.98703 10.1284 9.65881 10.101L9.71424 10.0993V13.1682C9.71422 13.3034 9.75495 13.4356 9.83141 13.5486C9.90787 13.6616 10.0167 13.7505 10.1446 13.8042C10.2724 13.858 10.4136 13.8743 10.5509 13.8511C10.6882 13.8279 10.8155 13.7663 10.9171 13.6739L17.7742 7.43633C17.8455 7.37151 17.9023 7.29319 17.9411 7.20621C17.98 7.11924 18 7.02546 18 6.93067C18 6.83588 17.98 6.74211 17.9411 6.65513C17.9023 6.56816 17.8455 6.48984 17.7742 6.42502L10.9171 0.187485Z" fill="white"/>
</svg>
