<svg width="18" height="18" viewBox="0 0 18 18" fill="none" xmlns="http://www.w3.org/2000/svg">
<path d="M9.78194 2.12379C10.245 1.70844 10.9812 2.0367 10.9812 2.65829V16.0351C10.9812 16.6571 10.245 16.9853 9.78194 16.57L6.41063 13.5438C6.05258 13.2222 5.58832 13.0443 5.10706 13.0442H3.17531C2.60327 13.0442 2.05466 12.8169 1.65017 12.4125C1.24567 12.008 1.01843 11.4593 1.01843 10.8873V7.80605C1.01843 6.61463 1.98389 5.64916 3.17531 5.64916H5.10706C5.58832 5.64908 6.05258 5.47116 6.41063 5.14959L9.78194 2.12379ZM9.95408 3.34931L7.09673 5.91456C6.5501 6.40508 5.84151 6.67634 5.10706 6.67625H3.17531C2.87567 6.67625 2.58831 6.79528 2.37643 7.00716C2.16455 7.21904 2.04552 7.50641 2.04552 7.80605V10.8873C2.04552 11.1869 2.16455 11.4743 2.37643 11.6862C2.58831 11.8981 2.87567 12.0171 3.17531 12.0171H5.10706C5.84156 12.0171 6.55016 12.2885 7.09673 12.7792L9.95408 15.3449V3.34931Z" fill="white" stroke="white" stroke-width="0.225"/>
<path d="M5.25 6.375L10.125 3V15.75L5.625 12.375L1.875 12V6.375H5.25Z" fill="white"/>
<path d="M13.1495 12.1841C13.3701 12.4048 13.7315 12.4068 13.9199 12.1581C14.1321 11.878 14.3081 11.5714 14.4432 11.2454C14.6505 10.7449 14.7572 10.2085 14.7572 9.66682C14.7572 9.12511 14.6505 8.58871 14.4432 8.08825C14.3081 7.76221 14.1321 7.45559 13.9199 7.17555C13.7315 6.92687 13.3701 6.92885 13.1495 7.14948C12.9289 7.37011 12.9342 7.72557 13.1096 7.98365C13.2239 8.15192 13.321 8.3318 13.3993 8.52064C13.5498 8.88402 13.6272 9.27349 13.6272 9.66682C13.6272 10.0601 13.5498 10.4496 13.3993 10.813C13.321 11.0018 13.2239 11.1817 13.1096 11.35C12.9342 11.6081 12.9289 11.9635 13.1495 12.1841Z" fill="white"/>
<path d="M14.8037 13.8359C14.9718 14.337 15.6172 14.4411 15.8749 13.9796C16.1361 13.5118 16.3563 13.0078 16.5307 12.4766C16.8406 11.5329 17 10.5214 17 9.5C17 8.47856 16.8406 7.46711 16.5307 6.52342C16.3563 5.99216 16.1361 5.48823 15.8749 5.02037C15.6172 4.5589 14.9718 4.66302 14.8037 5.16412C14.732 5.37771 14.7757 5.61141 14.9034 5.79698C15.2191 6.25555 15.4745 6.77604 15.6592 7.33876C15.8842 8.02396 16 8.75835 16 9.5C16 10.2417 15.8842 10.976 15.6592 11.6612C15.4745 12.224 15.2191 12.7444 14.9034 13.203C14.7757 13.3886 14.732 13.6223 14.8037 13.8359Z" fill="white"/>
</svg>
