<svg width="18" height="19" viewBox="0 0 18 19" fill="none" xmlns="http://www.w3.org/2000/svg">
<path d="M16.3455 8.68601C16.4713 8.87582 16.5752 9.04267 16.6567 9.17849C16.5752 9.3143 16.4713 9.48116 16.3455 9.67097C15.9862 10.2131 15.454 10.9342 14.7631 11.6524C13.3676 13.103 11.4172 14.4493 9.00109 14.4493C6.58503 14.4493 4.63459 13.103 3.23907 11.6524C2.54816 10.9342 2.01596 10.2131 1.65668 9.67097C1.53088 9.48116 1.42696 9.3143 1.34547 9.17849C1.42696 9.04267 1.53088 8.87582 1.65668 8.68601C2.01596 8.14389 2.54816 7.42277 3.23907 6.7046C4.63459 5.25399 6.58503 3.90763 9.00109 3.90763C11.4172 3.90763 13.3676 5.25399 14.7631 6.7046C15.454 7.42277 15.9862 8.14389 16.3455 8.68601Z" stroke="white" stroke-width="1.67143" stroke-linecap="round" stroke-linejoin="round"/>
<path d="M9.00115 11.4684C10.2659 11.4684 11.2911 10.4432 11.2911 9.17847C11.2911 7.91376 10.2659 6.8885 9.00115 6.8885C7.73643 6.8885 6.71118 7.91376 6.71118 9.17847C6.71118 10.4432 7.73643 11.4684 9.00115 11.4684Z" fill="white" stroke="white" stroke-width="1.67143" stroke-linecap="round" stroke-linejoin="round"/>
</svg>
