<svg width="38" height="35" viewBox="0 0 38 35" fill="none" xmlns="http://www.w3.org/2000/svg">
<g opacity="0.6">
<g opacity="0.6" filter="url(#filter0_f_325_53329)">
<path d="M24.8031 5.53958C25.5748 4.84732 26.8018 5.39441 26.8018 6.4304V28.725C26.8018 29.7617 25.5748 30.3088 24.8031 29.6165L19.1843 24.5729C18.5875 24.0369 17.8137 23.7404 17.0116 23.7402H13.7921C12.8387 23.7402 11.9243 23.3615 11.2502 22.6873C10.576 22.0132 10.1973 21.0988 10.1973 20.1454V15.01C10.1973 13.0243 11.8064 11.4152 13.7921 11.4152H17.0116C17.8137 11.415 18.5875 11.1185 19.1843 10.5826L24.8031 5.53958ZM25.09 7.58211L20.3278 11.8575C19.4167 12.6751 18.2357 13.1272 17.0116 13.127H13.7921C13.2927 13.127 12.8137 13.3254 12.4606 13.6785C12.1075 14.0316 11.9091 14.5106 11.9091 15.01V20.1454C11.9091 20.6448 12.1075 21.1238 12.4606 21.4769C12.8137 21.83 13.2927 22.0284 13.7921 22.0284H17.0116C18.2358 22.0285 19.4168 22.4808 20.3278 23.2986L25.09 27.5747V7.58211Z" fill="#474D6A"/>
</g>
<g filter="url(#filter1_f_325_53329)">
<path d="M19.1058 5.30886C19.8775 4.61661 21.1046 5.1637 21.1046 6.19969V28.4943C21.1046 29.531 19.8775 30.0781 19.1058 29.3858L13.487 24.3421C12.8902 23.8062 12.1165 23.5097 11.3144 23.5095H8.0948C7.1414 23.5095 6.22705 23.1308 5.55289 22.4566C4.87874 21.7825 4.5 20.8681 4.5 19.9147V14.7793C4.5 12.7936 6.1091 11.1845 8.0948 11.1845H11.3144C12.1165 11.1843 12.8902 10.8878 13.487 10.3519L19.1058 5.30886ZM19.3927 7.35139L14.6305 11.6268C13.7194 12.4443 12.5385 12.8964 11.3144 12.8963H8.0948C7.5954 12.8963 7.11645 13.0947 6.76333 13.4478C6.4102 13.8009 6.21181 14.2799 6.21181 14.7793V19.9147C6.21181 20.4141 6.4102 20.8931 6.76333 21.2462C7.11645 21.5993 7.5954 21.7977 8.0948 21.7977H11.3144C12.5385 21.7977 13.7195 22.2501 14.6305 23.0679L19.3927 27.344V7.35139Z" fill="#717B9E"/>
<path d="M19.1058 5.30886C19.8775 4.61661 21.1046 5.1637 21.1046 6.19969V28.4943C21.1046 29.531 19.8775 30.0781 19.1058 29.3858L13.487 24.3421C12.8902 23.8062 12.1165 23.5097 11.3144 23.5095H8.0948C7.1414 23.5095 6.22705 23.1308 5.55289 22.4566C4.87874 21.7825 4.5 20.8681 4.5 19.9147V14.7793C4.5 12.7936 6.1091 11.1845 8.0948 11.1845H11.3144C12.1165 11.1843 12.8902 10.8878 13.487 10.3519L19.1058 5.30886ZM19.3927 7.35139L14.6305 11.6268C13.7194 12.4443 12.5385 12.8964 11.3144 12.8963H8.0948C7.5954 12.8963 7.11645 13.0947 6.76333 13.4478C6.4102 13.8009 6.21181 14.2799 6.21181 14.7793V19.9147C6.21181 20.4141 6.4102 20.8931 6.76333 21.2462C7.11645 21.5993 7.5954 21.7977 8.0948 21.7977H11.3144C12.5385 21.7977 13.7195 22.2501 14.6305 23.0679L19.3927 27.344V7.35139Z" stroke="#717B9E" stroke-width="0.3"/>
</g>
<g filter="url(#filter2_f_325_53329)">
<path d="M28.9677 8.01539C29.8137 7.84586 30.584 9.11922 31.0034 9.75129C33.8885 14.1058 34.0541 19.7115 31.4479 24.2558C30.9386 25.1441 29.7309 27.3038 28.5844 26.1097C27.6053 25.0888 29.0235 23.8891 29.5455 22.9511C31.4893 19.4609 31.4947 15.1212 29.5131 11.6457C29.1783 11.0597 28.0912 9.82316 28.0228 9.30534C27.9544 8.78752 28.4602 8.11859 28.9695 8.01723L28.9677 8.01539Z" fill="#717B9E"/>
<path d="M28.9946 8.14325L29.0464 8.13295L31.0034 9.75129L30.8962 9.82226C30.8963 9.82228 30.8963 9.8223 30.8963 9.82233C33.7543 14.136 33.9186 19.6895 31.3365 24.1919L31.4479 24.2558L31.3365 24.1919C31.3291 24.2047 31.3217 24.2177 31.3141 24.231C31.0553 24.6826 30.6447 25.3991 30.1649 25.8721C29.9177 26.1158 29.6664 26.2802 29.4221 26.3221C29.1888 26.3621 28.9395 26.294 28.6771 26.0207C28.4543 25.7884 28.3736 25.554 28.3766 25.319C28.3796 25.0784 28.4706 24.825 28.6148 24.5609C28.7588 24.2972 28.9493 24.034 29.141 23.7728C29.1515 23.7586 29.162 23.7443 29.1724 23.73C29.3513 23.4865 29.5299 23.2433 29.6578 23.0136C31.6231 19.4847 31.6289 15.0971 29.6247 11.582L29.6247 11.5819C29.5008 11.3652 29.277 11.0617 29.0433 10.745C28.9527 10.6222 28.8606 10.4974 28.7723 10.3748C28.6118 10.152 28.4618 9.93445 28.3481 9.74178C28.2317 9.5444 28.1636 9.38976 28.1502 9.28852C28.1219 9.07418 28.2129 8.81053 28.3827 8.58168C28.5524 8.35307 28.7812 8.18571 28.9946 8.14325Z" stroke="#717B9E" stroke-width="0.256966"/>
</g>
<g filter="url(#filter3_f_325_53329)">
<path d="M25.4917 11.5185C26.4257 11.4342 27.4033 13.8299 27.6426 14.6746C28.2503 16.8137 28.1214 19.2 27.2242 21.2154C26.8208 22.122 25.9537 23.6991 24.9678 22.5284C24.1878 21.605 25.2641 20.5149 25.5771 19.5559C26.1278 17.8682 26.0558 16.0795 25.3093 14.4836C24.9561 13.7287 24.1392 13.0395 24.6799 12.1048C24.8205 11.8594 25.2323 11.541 25.4934 11.5167L25.4917 11.5185Z" fill="#717B9E"/>
<path d="M25.1179 11.8311C25.2508 11.7328 25.3814 11.6675 25.4754 11.649L25.5033 11.6465C25.679 11.6306 25.8792 11.7308 26.0975 11.9483C26.3123 12.1624 26.5228 12.4688 26.7157 12.8113C27.1013 13.4955 27.4018 14.296 27.519 14.7097L27.5191 14.7098C28.1189 16.8216 27.991 19.1768 27.1068 21.1632L27.1068 21.1632C26.9051 21.6165 26.5963 22.215 26.2272 22.5566C26.0438 22.7262 25.8608 22.8182 25.681 22.8162C25.5048 22.8141 25.298 22.7211 25.0661 22.4457L25.066 22.4455C24.8904 22.2377 24.8218 22.0251 24.8184 21.8072C24.8149 21.5853 24.879 21.3512 24.9812 21.1047C25.0707 20.8892 25.1855 20.6726 25.3025 20.4518C25.3196 20.4197 25.3367 20.3874 25.3538 20.355C25.4862 20.1041 25.6171 19.8472 25.6992 19.5957L25.6992 19.5957C26.2594 17.8791 26.1869 16.0565 25.4257 14.4292L25.4257 14.4291C25.3337 14.2327 25.2126 14.042 25.0963 13.859L25.0943 13.856C24.9757 13.6692 24.862 13.49 24.7756 13.3068C24.6898 13.1247 24.6343 12.9452 24.6289 12.7609C24.6236 12.5783 24.6672 12.3834 24.7911 12.1691L24.7911 12.1691L24.7914 12.1687C24.8497 12.067 24.9728 11.9385 25.1179 11.8311Z" stroke="#717B9E" stroke-width="0.256966"/>
</g>
</g>
<g opacity="0.6" filter="url(#filter4_f_325_53329)">
<path d="M24.8031 5.53958C25.5748 4.84732 26.8018 5.39441 26.8018 6.4304V28.725C26.8018 29.7617 25.5748 30.3088 24.8031 29.6165L19.1843 24.5729C18.5875 24.0369 17.8137 23.7404 17.0116 23.7402H13.7921C12.8387 23.7402 11.9243 23.3615 11.2502 22.6873C10.576 22.0132 10.1973 21.0988 10.1973 20.1454V15.01C10.1973 13.0243 11.8064 11.4152 13.7921 11.4152H17.0116C17.8137 11.415 18.5875 11.1185 19.1843 10.5826L24.8031 5.53958ZM25.09 7.58211L20.3278 11.8575C19.4167 12.6751 18.2357 13.1272 17.0116 13.127H13.7921C13.2927 13.127 12.8137 13.3254 12.4606 13.6785C12.1075 14.0316 11.9091 14.5106 11.9091 15.01V20.1454C11.9091 20.6448 12.1075 21.1238 12.4606 21.4769C12.8137 21.83 13.2927 22.0284 13.7921 22.0284H17.0116C18.2358 22.0285 19.4168 22.4808 20.3278 23.2986L25.09 27.5747V7.58211Z" fill="#474D6A"/>
</g>
<g clip-path="url(#clip0_325_53329)">
<path d="M19.1058 6.30886C19.8775 5.61661 21.1046 6.1637 21.1046 7.19969V29.4943C21.1046 30.531 19.8775 31.0781 19.1058 30.3858L13.487 25.3421C12.8902 24.8062 12.1165 24.5097 11.3144 24.5095H8.0948C7.1414 24.5095 6.22705 24.1308 5.55289 23.4566C4.87874 22.7825 4.5 21.8681 4.5 20.9147V15.7793C4.5 13.7936 6.1091 12.1845 8.0948 12.1845H11.3144C12.1165 12.1843 12.8902 11.8878 13.487 11.3519L19.1058 6.30886ZM19.3927 8.35139L14.6305 12.6268C13.7194 13.4443 12.5385 13.8964 11.3144 13.8963H8.0948C7.5954 13.8963 7.11645 14.0947 6.76333 14.4478C6.4102 14.8009 6.21181 15.2799 6.21181 15.7793V20.9147C6.21181 21.4141 6.4102 21.8931 6.76333 22.2462C7.11645 22.5993 7.5954 22.7977 8.0948 22.7977H11.3144C12.5385 22.7977 13.7195 23.2501 14.6305 24.0679L19.3927 28.344V8.35139Z" fill="white" stroke="white" stroke-width="0.3"/>
<path d="M28.9677 9.01539C29.8137 8.84586 30.584 10.1192 31.0034 10.7513C33.8885 15.1058 34.0541 20.7115 31.4479 25.2558C30.9386 26.1441 29.7309 28.3038 28.5844 27.1097C27.6053 26.0888 29.0235 24.8891 29.5455 23.9511C31.4893 20.4609 31.4947 16.1212 29.5131 12.6457C29.1783 12.0597 28.0912 10.8232 28.0228 10.3053C27.9544 9.78752 28.4602 9.11859 28.9695 9.01723L28.9677 9.01539Z" fill="white"/>
<path d="M25.4917 12.5185C26.4257 12.4342 27.4033 14.8299 27.6426 15.6746C28.2503 17.8137 28.1214 20.2 27.2242 22.2154C26.8208 23.122 25.9537 24.6991 24.9678 23.5284C24.1878 22.605 25.2641 21.5149 25.5771 20.5559C26.1278 18.8682 26.0558 17.0795 25.3093 15.4836C24.9561 14.7287 24.1392 14.0395 24.6799 13.1048C24.8205 12.8594 25.2323 12.541 25.4934 12.5167L25.4917 12.5185Z" fill="white"/>
</g>
<defs>
<filter id="filter0_f_325_53329" x="5.19727" y="0.230713" width="26.6045" height="34.6946" filterUnits="userSpaceOnUse" color-interpolation-filters="sRGB">
<feFlood flood-opacity="0" result="BackgroundImageFix"/>
<feBlend mode="normal" in="SourceGraphic" in2="BackgroundImageFix" result="shape"/>
<feGaussianBlur stdDeviation="2.5" result="effect1_foregroundBlur_325_53329"/>
</filter>
<filter id="filter1_f_325_53329" x="0.349609" y="0.849609" width="24.9053" height="32.9954" filterUnits="userSpaceOnUse" color-interpolation-filters="sRGB">
<feFlood flood-opacity="0" result="BackgroundImageFix"/>
<feBlend mode="normal" in="SourceGraphic" in2="BackgroundImageFix" result="shape"/>
<feGaussianBlur stdDeviation="2" result="effect1_foregroundBlur_325_53329"/>
</filter>
<filter id="filter2_f_325_53329" x="24.0166" y="4" width="13.2744" height="26.4612" filterUnits="userSpaceOnUse" color-interpolation-filters="sRGB">
<feFlood flood-opacity="0" result="BackgroundImageFix"/>
<feBlend mode="normal" in="SourceGraphic" in2="BackgroundImageFix" result="shape"/>
<feGaussianBlur stdDeviation="2" result="effect1_foregroundBlur_325_53329"/>
</filter>
<filter id="filter3_f_325_53329" x="20.5" y="7.51636" width="11.5166" height="19.4282" filterUnits="userSpaceOnUse" color-interpolation-filters="sRGB">
<feFlood flood-opacity="0" result="BackgroundImageFix"/>
<feBlend mode="normal" in="SourceGraphic" in2="BackgroundImageFix" result="shape"/>
<feGaussianBlur stdDeviation="2" result="effect1_foregroundBlur_325_53329"/>
</filter>
<filter id="filter4_f_325_53329" x="5.19727" y="0.230713" width="26.6045" height="34.6946" filterUnits="userSpaceOnUse" color-interpolation-filters="sRGB">
<feFlood flood-opacity="0" result="BackgroundImageFix"/>
<feBlend mode="normal" in="SourceGraphic" in2="BackgroundImageFix" result="shape"/>
<feGaussianBlur stdDeviation="2.5" result="effect1_foregroundBlur_325_53329"/>
</filter>
<clipPath id="clip0_325_53329">
<rect width="30" height="30" fill="white" transform="translate(3.5 2)"/>
</clipPath>
</defs>
</svg>
