<svg width="35" height="33" viewBox="0 0 35 33" fill="none" xmlns="http://www.w3.org/2000/svg">
<g opacity="0.6" filter="url(#filter0_f_787_4548)">
<path d="M18.3197 4.53958C19.0914 3.84732 20.3184 4.39441 20.3184 5.4304V27.725C20.3184 28.7617 19.0914 29.3088 18.3197 28.6165L12.7009 23.5729C12.1041 23.0369 11.3303 22.7404 10.5282 22.7402H7.30867C6.35527 22.7402 5.44092 22.3615 4.76676 21.6873C4.0926 21.0132 3.71387 20.0988 3.71387 19.1454V14.01C3.71387 12.0243 5.32297 10.4152 7.30867 10.4152H10.5282C11.3303 10.415 12.1041 10.1185 12.7009 9.58257L18.3197 4.53958ZM18.6066 6.58211L13.8444 10.8575C12.9333 11.6751 11.7523 12.1272 10.5282 12.127H7.30867C6.80927 12.127 6.33032 12.3254 5.97719 12.6785C5.62406 13.0316 5.42568 13.5106 5.42568 14.01V19.1454C5.42568 19.6448 5.62406 20.1238 5.97719 20.4769C6.33032 20.83 6.80927 21.0284 7.30867 21.0284H10.5282C11.7524 21.0285 12.9334 21.4808 13.8444 22.2986L18.6066 26.5747V6.58211ZM23.3079 12.7207C23.3874 12.6412 23.4818 12.5781 23.5856 12.5351C23.6895 12.492 23.8008 12.4699 23.9132 12.4699C24.0256 12.4699 24.137 12.492 24.2408 12.5351C24.3447 12.5781 24.439 12.6412 24.5185 12.7207L27.1657 15.3678L29.8128 12.7207C29.8917 12.6389 29.9862 12.5737 30.0906 12.5288C30.195 12.4839 30.3073 12.4602 30.4209 12.4592C30.5346 12.4582 30.6473 12.4798 30.7525 12.5228C30.8577 12.5658 30.9533 12.6294 31.0337 12.7097C31.1141 12.79 31.1776 12.8856 31.2207 12.9908C31.2638 13.0959 31.2855 13.2086 31.2845 13.3223C31.2835 13.4359 31.26 13.5483 31.2151 13.6527C31.1703 13.7571 31.1051 13.8516 31.0234 13.9306L28.3763 16.5777L31.0234 19.2255C31.1793 19.387 31.2655 19.6032 31.2635 19.8277C31.2615 20.0521 31.1714 20.2667 31.0126 20.4254C30.8539 20.584 30.6392 20.674 30.4148 20.6758C30.1904 20.6777 29.9742 20.5914 29.8128 20.4354L27.1657 17.7883L24.5185 20.4354C24.3571 20.5914 24.141 20.6777 23.9165 20.6758C23.6921 20.674 23.4774 20.584 23.3187 20.4254C23.16 20.2667 23.0699 20.0521 23.0679 19.8277C23.0659 19.6032 23.1521 19.387 23.3079 19.2255L25.9551 16.5777L23.3079 13.9306C23.1476 13.7701 23.0575 13.5525 23.0575 13.3256C23.0575 13.0987 23.1476 12.8812 23.3079 12.7207Z" fill="#474D6A" stroke="#474D6A" stroke-width="0.5"/>
</g>
<path d="M18.3197 4.53958C19.0914 3.84732 20.3184 4.39441 20.3184 5.4304V27.725C20.3184 28.7617 19.0914 29.3088 18.3197 28.6165L12.7009 23.5729C12.1041 23.0369 11.3303 22.7404 10.5282 22.7402H7.30867C6.35527 22.7402 5.44092 22.3615 4.76676 21.6873C4.0926 21.0132 3.71387 20.0988 3.71387 19.1454V14.01C3.71387 12.0243 5.32297 10.4152 7.30867 10.4152H10.5282C11.3303 10.415 12.1041 10.1185 12.7009 9.58257L18.3197 4.53958ZM18.6066 6.58211L13.8444 10.8575C12.9333 11.6751 11.7523 12.1272 10.5282 12.127H7.30867C6.80927 12.127 6.33032 12.3254 5.97719 12.6785C5.62406 13.0316 5.42568 13.5106 5.42568 14.01V19.1454C5.42568 19.6448 5.62406 20.1238 5.97719 20.4769C6.33032 20.83 6.80927 21.0284 7.30867 21.0284H10.5282C11.7524 21.0285 12.9334 21.4808 13.8444 22.2986L18.6066 26.5747V6.58211ZM23.3079 12.7207C23.3874 12.6412 23.4818 12.5781 23.5856 12.5351C23.6895 12.492 23.8008 12.4699 23.9132 12.4699C24.0256 12.4699 24.137 12.492 24.2408 12.5351C24.3447 12.5781 24.439 12.6412 24.5185 12.7207L27.1657 15.3678L29.8128 12.7207C29.8917 12.6389 29.9862 12.5737 30.0906 12.5288C30.195 12.4839 30.3073 12.4602 30.4209 12.4592C30.5346 12.4582 30.6473 12.4798 30.7525 12.5228C30.8577 12.5658 30.9533 12.6294 31.0337 12.7097C31.1141 12.79 31.1776 12.8856 31.2207 12.9908C31.2638 13.0959 31.2855 13.2086 31.2845 13.3223C31.2835 13.4359 31.26 13.5483 31.2151 13.6527C31.1703 13.7571 31.1051 13.8516 31.0234 13.9306L28.3763 16.5777L31.0234 19.2255C31.1793 19.387 31.2655 19.6032 31.2635 19.8277C31.2615 20.0521 31.1714 20.2667 31.0126 20.4254C30.8539 20.584 30.6392 20.674 30.4148 20.6758C30.1904 20.6777 29.9742 20.5914 29.8128 20.4354L27.1657 17.7883L24.5185 20.4354C24.3571 20.5914 24.141 20.6777 23.9165 20.6758C23.6921 20.674 23.4774 20.584 23.3187 20.4254C23.16 20.2667 23.0699 20.0521 23.0679 19.8277C23.0659 19.6032 23.1521 19.387 23.3079 19.2255L25.9551 16.5777L23.3079 13.9306C23.1476 13.7701 23.0575 13.5525 23.0575 13.3256C23.0575 13.0987 23.1476 12.8812 23.3079 12.7207Z" fill="white" stroke="white" stroke-width="0.5"/>
<defs>
<filter id="filter0_f_787_4548" x="-0.5" y="-2" width="36" height="36" filterUnits="userSpaceOnUse" color-interpolation-filters="sRGB">
<feFlood flood-opacity="0" result="BackgroundImageFix"/>
<feBlend mode="normal" in="SourceGraphic" in2="BackgroundImageFix" result="shape"/>
<feGaussianBlur stdDeviation="1.5" result="effect1_foregroundBlur_787_4548"/>
</filter>
</defs>
</svg>
