<svg width="18" height="18" viewBox="0 0 18 18" fill="none" xmlns="http://www.w3.org/2000/svg">
<path d="M7.64062 14.2539L7.64062 11.2539L3.39563 11.2539C3.17819 11.2564 2.96283 11.2115 2.76445 11.1225C2.56606 11.0335 2.38941 10.9024 2.24673 10.7383C2.10405 10.5742 1.99874 10.381 1.93812 10.1722C1.87749 9.9634 1.86299 9.74389 1.89563 9.52891L2.93062 2.77891C2.98487 2.42123 3.16655 2.0952 3.44219 1.8609C3.71784 1.6266 4.06888 1.49982 4.43062 1.50391L12.627 1.50391V10.3472L9.89062 16.5039C9.29389 16.5039 8.72159 16.2669 8.29963 15.8449C7.87768 15.4229 7.64062 14.8506 7.64062 14.2539Z" fill="#717B9E"/>
<path d="M14.7349 9.75391H15.1406C15.5384 9.75391 15.92 9.59587 16.2013 9.31457C16.4826 9.03326 16.6406 8.65173 16.6406 8.25391V3.00391C16.6406 2.60608 16.4826 2.22455 16.2013 1.94325C15.92 1.66194 15.5384 1.50391 15.1406 1.50391H14.7349V9.75391Z" fill="#717B9E"/>
<path d="M7.64062 14.2539L7.64062 11.2539L3.39563 11.2539C3.17819 11.2564 2.96283 11.2115 2.76445 11.1225C2.56606 11.0335 2.38941 10.9024 2.24673 10.7383C2.10405 10.5742 1.99874 10.381 1.93812 10.1722C1.87749 9.9634 1.86299 9.74389 1.89563 9.52891L2.93062 2.77891C2.98487 2.42123 3.16655 2.0952 3.44219 1.8609C3.71784 1.6266 4.06888 1.49982 4.43062 1.50391L12.627 1.50391V10.3472L9.89062 16.5039C9.29389 16.5039 8.72159 16.2669 8.29963 15.8449C7.87768 15.4229 7.64062 14.8506 7.64062 14.2539Z" stroke="#717B9E" stroke-width="0.75" stroke-linecap="round" stroke-linejoin="round"/>
<path d="M14.7349 9.75391H15.1406C15.5384 9.75391 15.92 9.59587 16.2013 9.31457C16.4826 9.03326 16.6406 8.65173 16.6406 8.25391V3.00391C16.6406 2.60608 16.4826 2.22455 16.2013 1.94325C15.92 1.66194 15.5384 1.50391 15.1406 1.50391H14.7349V9.75391Z" stroke="#717B9E" stroke-width="0.75" stroke-linecap="round" stroke-linejoin="round"/>
</svg>
