<svg width="18" height="18" viewBox="0 0 18 18" fill="none" xmlns="http://www.w3.org/2000/svg">
<path d="M10.3594 3.75354L10.3594 6.75354L14.6044 6.75354C14.8218 6.75108 15.0372 6.79592 15.2356 6.88495C15.4339 6.97399 15.6106 7.10509 15.7533 7.26917C15.896 7.43326 16.0013 7.6264 16.0619 7.83523C16.1225 8.04405 16.137 8.26356 16.1044 8.47854L15.0694 15.2285C15.0151 15.5862 14.8335 15.9122 14.5578 16.1465C14.2822 16.3808 13.9311 16.5076 13.5694 16.5035L5.37305 16.5035V7.66028L8.10938 1.50354C8.70611 1.50354 9.27841 1.74059 9.70037 2.16255C10.1223 2.58451 10.3594 3.1568 10.3594 3.75354Z" fill="#717B9E"/>
<path d="M3.26514 8.25354H2.85938C2.46155 8.25354 2.08002 8.41158 1.79872 8.69288C1.51741 8.97418 1.35938 9.35572 1.35938 9.75354V15.0035C1.35938 15.4014 1.51741 15.7829 1.79872 16.0642C2.08002 16.3455 2.46155 16.5035 2.85938 16.5035H3.26514V8.25354Z" fill="#717B9E"/>
<path d="M10.3594 3.75354L10.3594 6.75354L14.6044 6.75354C14.8218 6.75108 15.0372 6.79592 15.2356 6.88495C15.4339 6.97399 15.6106 7.10509 15.7533 7.26917C15.896 7.43326 16.0013 7.6264 16.0619 7.83523C16.1225 8.04405 16.137 8.26356 16.1044 8.47854L15.0694 15.2285C15.0151 15.5862 14.8335 15.9122 14.5578 16.1465C14.2822 16.3808 13.9311 16.5076 13.5694 16.5035L5.37305 16.5035V7.66028L8.10938 1.50354C8.70611 1.50354 9.27841 1.74059 9.70037 2.16255C10.1223 2.58451 10.3594 3.1568 10.3594 3.75354Z" stroke="#717B9E" stroke-width="0.75" stroke-linecap="round" stroke-linejoin="round"/>
<path d="M3.26514 8.25354H2.85938C2.46155 8.25354 2.08002 8.41158 1.79872 8.69288C1.51741 8.97418 1.35938 9.35572 1.35938 9.75354V15.0035C1.35938 15.4014 1.51741 15.7829 1.79872 16.0642C2.08002 16.3455 2.46155 16.5035 2.85938 16.5035H3.26514V8.25354Z" stroke="#717B9E" stroke-width="0.75" stroke-linecap="round" stroke-linejoin="round"/>
</svg>
