<svg width="14" height="15" viewBox="0 0 14 15" fill="none" xmlns="http://www.w3.org/2000/svg">
<g clip-path="url(#clip0_1936_27484)">
<path d="M1.98241 6.61999C3.44792 5.91564 4.61226 4.70532 5.2612 3.22061C5.91423 4.67538 7.05352 5.86603 8.4833 6.58155C7.01334 7.30884 5.84991 8.55689 5.23279 10.0939C4.58283 8.59357 3.43097 7.36562 1.98241 6.61999Z" stroke="#979EC2" stroke-width="1.2"/>
<path d="M9.7814 7.79878L9.87295 8.41875C10.0708 9.75875 11.0942 10.8272 12.4244 11.0827C11.0973 11.3292 10.0758 12.3955 9.88641 13.732L9.7814 14.4731L9.67648 13.7159C9.49745 12.4238 8.53953 11.3762 7.26855 11.0827C8.53335 10.8271 9.49947 9.80163 9.67933 8.52386L9.7814 7.79878Z" fill="#979EC2"/>
</g>
<defs>
<clipPath id="clip0_1936_27484">
<rect width="14" height="14" fill="white" transform="translate(0 0.5)"/>
</clipPath>
</defs>
</svg>
