<svg width="10" height="11" viewBox="0 0 10 11" fill="none" xmlns="http://www.w3.org/2000/svg">
<path d="M6.28866 9.81047C6.53071 9.81047 6.72906 9.62017 6.76268 9.35087C7.09551 6.95231 7.40144 6.61838 9.55976 6.35626C9.80854 6.32395 10.0002 6.10133 10.0002 5.8428C10.0002 5.58068 9.8119 5.36524 9.56313 5.32574C7.41825 5.00618 7.15266 4.7261 6.76268 2.33114C6.71898 2.06543 6.52735 1.87512 6.28866 1.87512C6.04324 1.87512 5.84825 2.06543 5.80791 2.33473C5.48181 4.72969 5.17588 5.06363 3.02092 5.32574C2.76541 5.36165 2.57715 5.57709 2.57715 5.8428C2.57715 6.10133 2.75869 6.31677 3.01419 6.35626C5.16243 6.68301 5.42466 6.95949 5.80791 9.35446C5.85834 9.62376 6.05333 9.81047 6.28866 9.81047Z" fill="#717B9E"/>
<path d="M1.62517 3.97468C1.73116 3.97468 1.81802 3.89135 1.83274 3.77344C1.97847 2.72317 2.11243 2.57695 3.0575 2.46217C3.16644 2.44802 3.25035 2.35054 3.25035 2.23734C3.25035 2.12257 3.16791 2.02823 3.05898 2.01094C2.11979 1.87101 2.0035 1.74837 1.83274 0.699676C1.8136 0.58333 1.72969 0.5 1.62517 0.5C1.51771 0.5 1.43233 0.58333 1.41467 0.701249C1.27188 1.74994 1.13792 1.89616 0.194314 2.01094C0.0824363 2.02666 0 2.121 0 2.23734C0 2.35054 0.0794922 2.44488 0.19137 2.46217C1.13203 2.60525 1.24685 2.72631 1.41467 3.77501C1.43675 3.89293 1.52213 3.97468 1.62517 3.97468Z" fill="#717B9E"/>
<path d="M1.76581 10.4998C1.86052 10.4998 1.93814 10.4253 1.95129 10.3199C2.08153 9.38138 2.20124 9.25071 3.0458 9.14814C3.14315 9.1355 3.21814 9.04838 3.21814 8.94722C3.21814 8.84465 3.14447 8.76035 3.04712 8.7449C2.20782 8.61985 2.10389 8.51025 1.95129 7.57309C1.93419 7.46912 1.85921 7.39465 1.76581 7.39465C1.66977 7.39465 1.59347 7.46912 1.57769 7.5745C1.45008 8.51166 1.33037 8.64233 0.487125 8.7449C0.387145 8.75895 0.313477 8.84325 0.313477 8.94722C0.313477 9.04838 0.384514 9.13269 0.484494 9.14814C1.32511 9.276 1.42772 9.38419 1.57769 10.3214C1.59742 10.4267 1.67372 10.4998 1.76581 10.4998Z" fill="#717B9E"/>
</svg>
