<svg width="51" height="51" viewBox="0 0 51 51" fill="none" xmlns="http://www.w3.org/2000/svg">
<circle cx="17.0383" cy="18.188" r="4.87507" fill="#F05537"/>
<circle cx="35.7" cy="10.6636" r="7.88182" fill="#F05537"/>
<path d="M45.3536 6.58223C45.37 6.52808 45.3969 6.47773 45.4329 6.4341C45.4689 6.39047 45.5133 6.35444 45.5633 6.32812C45.6134 6.30179 45.6682 6.28568 45.7245 6.28074C45.7809 6.2758 45.8376 6.28212 45.8915 6.29934C47.0151 6.64598 44.9871 7.76161 45.3536 6.58223Z" stroke="#121224" stroke-miterlimit="10"/>
<path d="M30.8387 22.7468C30.8727 22.638 30.9484 22.5472 31.0492 22.4942C31.15 22.4411 31.2678 22.4303 31.3766 22.4639C32.5002 22.8105 30.4722 23.9262 30.8387 22.7468Z" stroke="#121224" stroke-miterlimit="10"/>
<path d="M8.3671 16.8261C8.40112 16.7172 8.47661 16.6261 8.57725 16.5724C8.6779 16.5187 8.79562 16.5068 8.90499 16.5392C10.0087 16.8898 7.96866 18.0015 8.3671 16.8261Z" stroke="#121224" stroke-miterlimit="10"/>
<path d="M20.9455 26.5997C22.4036 26.1974 23.9263 26.0837 25.428 26.265L27.5755 26.4603C28.2648 26.5068 28.9568 26.4922 29.6434 26.4164C30.6794 26.3328 31.7153 26.1973 32.7512 26.0817L35.4965 25.755C35.9587 25.6992 36.393 25.6315 36.887 25.5837C37.3709 25.5418 37.8574 25.5418 38.3413 25.5837C39.3585 25.6188 40.3369 25.9823 41.1304 26.6196C41.3306 26.7958 41.5062 26.9982 41.6523 27.2213C41.7441 27.3585 41.8046 27.5142 41.8294 27.6774C41.8542 27.8406 41.8427 28.0073 41.7958 28.1656C41.6894 28.4474 41.497 28.6885 41.2459 28.8549C41.0369 28.999 40.814 29.1218 40.5805 29.2214C39.7917 29.5264 38.9731 29.7481 38.1381 29.8828C37.3412 30.0422 36.4965 30.1458 35.6917 30.2414C33.6238 30.4885 31.5719 30.8192 29.8028 31.8352C29.2689 32.1699 29.253 32.0464 29.6155 31.5921C30.2567 30.8477 31.1059 30.3121 32.054 30.0542C34.2095 29.4406 36.377 29.4485 38.3931 29.0023C38.8927 28.902 39.3852 28.7689 39.8673 28.6038C40.0927 28.5265 40.3102 28.4278 40.5168 28.309C40.6754 28.2252 40.812 28.1051 40.9152 27.9584C40.967 27.8628 40.9551 27.8667 40.9152 27.7273C40.8715 27.6454 40.818 27.5692 40.7558 27.5002C40.6899 27.4142 40.6151 27.3354 40.5327 27.2651C40.1859 26.9656 39.778 26.7453 39.3374 26.6196C38.7559 26.4558 38.1521 26.3845 37.5484 26.4085C37.2377 26.417 36.9277 26.4436 36.6201 26.4881L35.6359 26.6276C34.3251 26.8149 33.0102 26.9942 31.6954 27.1376C30.9742 27.2173 30.253 27.293 29.5239 27.3488C29.1573 27.3767 28.7947 27.4046 28.4202 27.4125C28.233 27.4125 28.0218 27.4125 27.8345 27.4125L27.2887 27.3687C25.8737 27.1897 24.4467 27.1244 23.0214 27.1735C22.1684 27.2372 21.3307 27.4349 20.5391 27.7592C19.7354 28.1016 18.98 28.5477 18.2919 29.086C17.244 29.8828 16.2201 30.7992 15.1722 31.6479C14.1243 32.4966 13.0684 33.3492 11.9847 34.1501C10.3333 35.4105 8.60322 36.5643 6.80498 37.6046C6.40655 37.8197 6.00811 38.0508 5.60967 38.258C5.06877 38.5274 4.50636 38.7513 3.92827 38.9274C3.65961 39.0068 3.37921 39.0392 3.09952 39.023C3.01002 39.0225 2.92072 39.0145 2.83256 38.9991C2.73295 38.9712 2.83256 38.8636 3.08756 38.6803C3.47112 38.4185 3.8703 38.1803 4.28288 37.9671C7.6098 36.1774 10.7527 34.0648 13.6661 31.6599C14.7817 30.7554 15.8734 29.8191 16.997 28.8708C18.1405 27.8446 19.4795 27.06 20.9336 26.5638L20.9455 26.5997Z" fill="#121224"/>
<path d="M27.6156 37.4014C28.9982 37.3376 30.3648 37.2978 31.7116 37.1623C32.3849 37.0946 33.0543 37.0069 33.7037 36.8914C34.0317 36.8387 34.3563 36.7668 34.6759 36.6762L35.1341 36.5447C35.2895 36.5049 35.4369 36.4212 35.5884 36.3654C36.4776 35.9713 37.3274 35.4937 38.1264 34.939C39.571 33.9569 40.9438 32.8731 42.2343 31.6957C43.5389 30.522 44.7735 29.2727 45.9318 27.9544C46.4419 27.3865 46.9044 26.7775 47.3144 26.1335C47.515 25.8325 47.667 25.5017 47.7646 25.1534C47.8129 24.9945 47.8371 24.8293 47.8363 24.6633C47.8403 24.5403 47.8129 24.4182 47.7566 24.3087C47.7218 24.2622 47.6705 24.2308 47.6132 24.221C47.5435 24.2068 47.4717 24.2068 47.402 24.221C47.1853 24.272 46.9754 24.3482 46.7765 24.4482C46.3457 24.6674 45.9291 24.9136 45.5294 25.1853L44.3141 26.03L43.7085 26.4603C43.5053 26.6037 43.2862 26.7272 43.083 26.8587C42.565 27.2053 42.553 27.0699 42.8399 26.5878C43.3008 25.7898 43.9271 25.0996 44.6767 24.5637C45.1669 24.2198 45.6823 23.9135 46.2187 23.6473C46.5148 23.4957 46.8277 23.3793 47.151 23.3007C47.2491 23.2771 47.3491 23.2624 47.4498 23.2568C47.5833 23.2478 47.7174 23.2571 47.8483 23.2847C47.9909 23.3113 48.1265 23.3669 48.2467 23.4481C48.3572 23.532 48.4551 23.6313 48.5376 23.7429C48.6978 24.0103 48.7831 24.3158 48.7846 24.6275C48.7852 24.8671 48.753 25.1057 48.689 25.3367C48.5772 25.7457 48.4039 26.1353 48.175 26.4921C47.7651 27.1482 47.307 27.7728 46.8044 28.3608C45.8304 29.5087 44.7802 30.5896 43.6607 31.5961C41.8119 33.2616 39.8716 34.9948 37.6602 36.3256C37.0446 36.6928 36.4012 37.0112 35.7358 37.2778C35.3932 37.4084 35.0433 37.5188 34.6879 37.6085C34.3373 37.6842 33.9946 37.756 33.648 37.8118C32.2628 38.0293 30.8657 38.1623 29.4644 38.2102C27.7551 38.2939 26.0537 38.3377 24.3723 38.5289C23.7552 38.6288 23.1493 38.7889 22.5634 39.0071C21.9618 39.2063 21.3681 39.4533 20.7705 39.6964C19.5751 40.1944 18.4276 40.7522 17.2841 41.326C15.5111 42.2304 13.8257 43.2146 12.1642 44.2505C11.7937 44.4776 11.447 44.7127 11.0805 44.9478C9.72975 45.8164 9.30741 46.0674 8.90101 46.1112C8.80538 46.1112 8.6978 46.155 8.63405 46.155C8.42288 46.1829 8.78944 45.5295 9.76561 44.8083C11.2378 43.7362 12.7761 42.758 14.3716 41.8798C15.9653 40.9753 17.6507 40.1187 19.364 39.3298C20.6527 38.7247 21.9845 38.216 23.3483 37.8078C23.5315 37.755 23.7178 37.7138 23.9062 37.6843C24.089 37.6449 24.2739 37.6157 24.46 37.5966L25.4999 37.5089C26.2051 37.4532 26.9024 37.4133 27.5997 37.3775L27.6156 37.4014Z" fill="#121224"/>
<path d="M12.5787 40.8279C12.3046 40.6963 12.0385 40.5486 11.7818 40.3856C11.528 40.2218 11.2857 40.0407 11.0566 39.8438C10.882 39.7062 10.7144 39.56 10.5546 39.4055C10.0412 38.8295 9.63621 38.1654 9.3593 37.4452C9.30352 37.2858 9.23977 37.1344 9.17602 36.979C9.11227 36.8236 9.07242 36.6642 9.01664 36.5088C8.86276 36.1118 8.77787 35.6914 8.76562 35.2657C8.76562 35.1302 8.91703 35.1263 9.08836 35.202C9.18921 35.242 9.28081 35.3023 9.35754 35.379C9.43428 35.4558 9.49453 35.5474 9.53461 35.6482C9.78793 36.3841 10.0887 37.1028 10.4351 37.7998C10.5495 38.0056 10.6829 38.2004 10.8335 38.3815C11.0088 38.5409 11.1682 38.7242 11.3555 38.8716C11.5417 39.049 11.7415 39.2115 11.9531 39.3577C12.1702 39.5047 12.3965 39.6378 12.6305 39.7561C12.9268 39.9091 13.2329 40.0422 13.5469 40.1545C14.0267 40.3357 14.5231 40.4691 15.0291 40.553C15.4258 40.5978 15.8251 40.6165 16.2244 40.6088C16.312 40.6088 16.3957 40.6088 16.4834 40.6088C16.8101 40.6327 16.9057 40.7124 16.9575 40.9594C16.9575 41.0192 16.9854 41.0749 16.9934 41.1307C16.9934 41.318 16.8619 41.4654 16.5949 41.5092C15.8218 41.6297 15.0326 41.5972 14.272 41.4136C13.6821 41.2742 13.107 41.0781 12.5548 40.8279H12.5787Z" fill="#121224"/>
<path d="M6.21554 37.979C6.82972 38.1353 7.38413 38.4693 7.80929 38.9393C8.18788 39.3359 8.5219 39.7728 8.80538 40.2421C9.34327 41.0988 9.79749 41.9753 10.3991 42.4853C10.5892 42.6481 10.8163 42.7617 11.0605 42.8161L10.3473 43.6129C10.263 43.3008 10.151 42.9968 10.0126 42.7045C9.53782 41.7713 8.98747 40.8785 8.3671 40.035C8.10014 39.6365 7.7296 39.2381 7.40686 38.7321C7.2311 38.47 7.09671 38.1824 7.00843 37.8794C6.90151 37.5296 6.91271 37.1544 7.0403 36.8116L7.17179 36.4809L7.49452 36.5327C7.9449 36.6149 8.36868 36.805 8.72968 37.0865C9.19608 37.4515 9.62698 37.8597 10.0166 38.3057C10.4151 38.7361 10.7657 39.1664 11.1283 39.5887C11.5803 40.1276 12.0618 40.6411 12.5706 41.1267C13.0144 41.5918 13.5599 41.9478 14.1644 42.1666C14.4991 42.2343 14.5349 42.4973 14.0847 42.7085C13.7771 42.8186 13.4427 42.8298 13.1284 42.7403C12.7121 42.6322 12.3272 42.4274 12.0048 42.1427C11.1435 41.3256 10.3444 40.4452 9.61421 39.509C9.26557 39.0895 8.89308 38.6904 8.49858 38.3137C8.1924 37.9896 7.80624 37.7518 7.37897 37.6244L8.08421 37.1941C8.0273 37.3402 8.0273 37.5023 8.08421 37.6483C8.17096 37.8867 8.29029 38.112 8.43882 38.3177C8.66194 38.6524 8.96475 38.9911 9.23569 39.4014C9.50663 39.8118 9.75764 40.1226 10.0326 40.4971C10.6285 41.2569 11.0993 42.107 11.4271 43.0153L11.5108 43.3021L11.7498 44.1389L10.8852 43.9835C10.3093 43.8574 9.78617 43.5569 9.3871 43.1229C9.0394 42.7476 8.731 42.3377 8.46671 41.8996C7.94874 41.1028 7.50647 40.2541 6.89686 39.6843C6.62516 39.4213 6.28817 39.2356 5.92069 39.1464L6.42671 38.8078C6.40946 39.0865 6.47607 39.3641 6.61796 39.6046C6.77521 39.9246 6.96054 40.2299 7.17179 40.5171C7.66186 41.1864 8.22764 41.8279 8.79741 42.4654C9.08429 42.7842 9.37514 43.1029 9.66202 43.4376C9.80147 43.605 9.94491 43.7763 10.0844 43.9715C10.1656 44.0843 10.2338 44.2059 10.2876 44.3341C10.3422 44.4723 10.3422 44.6262 10.2876 44.7644C10.2381 44.8711 10.1557 44.959 10.0525 45.0154C9.98519 45.0401 9.91586 45.0587 9.8453 45.0712L10.1083 44.9278C10.0383 45.0108 9.95798 45.0844 9.86921 45.1469C9.77265 45.214 9.66243 45.2589 9.54647 45.2784C9.287 45.3168 9.02201 45.2722 8.78944 45.1509C8.60535 45.0606 8.43053 44.9525 8.26749 44.8282C7.96871 44.6014 7.6852 44.3551 7.41882 44.0911C6.89686 43.5811 6.41874 43.0511 5.94858 42.5212L5.31905 41.8359C5.05764 41.5514 4.81286 41.2521 4.58593 40.9394C4.4882 40.7988 4.44436 40.6276 4.46241 40.4573C4.46092 40.4376 4.45516 40.4185 4.44553 40.4013C4.43589 40.3841 4.42262 40.3692 4.40663 40.3577C4.36697 40.3419 4.32547 40.3312 4.28311 40.3258C4.20741 40.3258 4.14764 40.2939 4.16757 40.1824C4.17634 40.1426 4.19373 40.1052 4.21851 40.0728C4.24329 40.0405 4.27487 40.014 4.311 39.9951C4.41461 39.935 4.53436 39.9085 4.65366 39.9194C5.06555 39.9907 5.44388 40.1917 5.73343 40.4932C6.5303 41.2223 7.19171 42.0112 7.89694 42.7523C8.22631 43.1098 8.57761 43.4465 8.94882 43.7604C9.08151 43.8709 9.22739 43.9646 9.38311 44.0393H9.40304C9.40621 44.0724 9.40621 44.1057 9.40304 44.1389C9.39668 44.1865 9.39668 44.2347 9.40304 44.2823V44.35C9.40094 44.3537 9.39983 44.3578 9.39983 44.362C9.39983 44.3662 9.40094 44.3703 9.40304 44.3739C9.43889 44.5054 9.40303 44.3102 9.21975 44.2186L9.7935 44.3182C9.78351 44.3601 9.78351 44.4038 9.7935 44.4457C9.80035 44.4679 9.80971 44.4893 9.82139 44.5094V44.5413C9.82139 44.5413 9.82139 44.5612 9.84132 44.5692C9.82207 44.5618 9.80079 44.5618 9.78155 44.5692H9.66202C9.60914 44.5736 9.55766 44.5885 9.51061 44.613C9.47777 44.6294 9.44295 44.6414 9.40702 44.6489L9.2835 44.6887L9.16397 44.7405L9.10819 44.7684C9.07144 44.7066 9.03154 44.6468 8.98866 44.5891C8.86116 44.4218 8.6978 44.2305 8.53444 44.0432C7.90491 43.33 7.2196 42.6009 6.58608 41.8C6.25023 41.3865 5.944 40.9498 5.66968 40.4932C5.51151 40.241 5.37808 39.9741 5.27124 39.6963C5.1306 39.3237 5.09882 38.9188 5.1796 38.5289L5.35093 37.732L6.096 37.9272L6.21554 37.9591V37.979Z" fill="#121224"/>
<path d="M35.6779 12.5641C35.6324 12.7551 35.4407 12.8731 35.2496 12.8276L34.7377 12.7057C34.5467 12.6602 34.4287 12.4685 34.4742 12.2775C34.7542 11.1014 35.6667 10.6461 36.5522 10.2429C37.3553 9.87852 38.0998 9.51482 38.3172 8.60164C38.5709 7.53627 38.053 6.57961 36.9184 6.3095C36.0507 6.1029 35.2286 6.47848 34.7915 7.20974C34.596 7.53674 34.2343 7.77578 33.8637 7.68754C33.4931 7.59931 33.2573 7.22258 33.4158 6.87617C34.0676 5.45201 35.6019 4.70946 37.236 5.09851C39.2007 5.56627 40.1218 7.1014 39.7035 8.85858C39.3576 10.3114 38.2487 10.793 37.3079 11.1831C36.4494 11.5342 35.8459 11.8584 35.6779 12.5641Z" fill="black"/>
<path d="M17.4711 19.4172C17.502 19.5467 17.422 19.6767 17.2925 19.7076L16.9454 19.7903C16.8159 19.8212 16.6859 19.7412 16.6551 19.6117C16.465 18.8144 16.8781 18.26 17.2907 17.7453C17.6653 17.2794 18.0047 16.8317 17.8572 16.2127C17.685 15.4904 17.0792 15.0698 16.3101 15.2531C15.7218 15.3933 15.3391 15.8719 15.2981 16.448C15.2798 16.7056 15.1339 16.9608 14.8827 17.0207C14.6315 17.0806 14.3736 16.9247 14.3637 16.6666C14.3228 15.6056 15.0243 14.6873 16.1321 14.4232C17.464 14.1058 18.4906 14.7532 18.7746 15.9444C19.0093 16.9293 18.4855 17.5597 18.0354 18.0833C17.6232 18.5582 17.3571 18.9388 17.4711 19.4172Z" fill="black"/>
<path d="M33.3593 14.4493C33.2301 14.9922 33.5663 15.5429 34.1192 15.6746C34.6445 15.7996 35.21 15.4489 35.3359 14.9199C35.4618 14.391 35.1151 13.823 34.5898 13.698C34.0369 13.5664 33.4886 13.9065 33.3593 14.4493Z" fill="black"/>
<path d="M16.8792 21.5664C16.9826 22.0002 17.421 22.272 17.8628 22.1667C18.2826 22.0666 18.5597 21.6126 18.4589 21.1898C18.3582 20.7671 17.9061 20.4869 17.4863 20.5869C17.0444 20.6922 16.7758 21.1325 16.8792 21.5664Z" fill="black"/>
</svg>