<svg width="48" height="48" viewBox="0 0 48 48" fill="none" xmlns="http://www.w3.org/2000/svg">
<path d="M23.1384 24.1698C24.5528 25.8458 26.5781 26.8939 28.7688 27.0835C30.9596 27.2731 33.1362 26.5888 34.82 25.181C36.5038 23.7732 37.5568 21.7573 37.7473 19.5768C37.9378 17.3962 37.2503 15.2297 35.8359 13.5537L29.4872 18.8618L23.1384 24.1698Z" fill="#F05537"/>
<path d="M20.7601 22.5C20.2688 22.2938 19.8938 21 19.4476 21.6675C18.6976 22.7925 16.8226 25.3013 14.9851 27.5138C10.5488 32.8913 9.53633 35.8875 9.86633 36.4688C10.1963 37.05 8.74133 34.68 8.74133 34.68L20.1038 19.8263L20.7601 22.5Z" fill="#121224"/>
<path d="M9.9448 36.9488C9.78958 36.7341 9.64805 36.51 9.52105 36.2775C9.47605 36.1913 9.41605 36.1163 9.3748 36.0263C9.24045 35.7071 9.1545 35.3696 9.1198 35.025C9.1198 34.9463 9.1198 34.8675 9.10105 34.7925V34.5525C9.09329 34.4455 9.1076 34.338 9.14307 34.2367C9.17855 34.1355 9.23445 34.0426 9.3073 33.9638C9.35605 33.915 9.47605 34.0163 9.5848 34.1325C9.69355 34.2488 9.8023 34.3688 9.78355 34.425C9.72736 34.6963 9.71595 34.975 9.7498 35.25C9.7895 35.4475 9.86857 35.635 9.9823 35.8013C10.0911 36.0038 10.2165 36.197 10.3573 36.3788C10.4413 36.4934 10.5327 36.6024 10.631 36.705C10.7764 36.8638 10.94 37.0048 11.1185 37.125C11.2685 37.2 11.4223 37.2563 11.5648 37.3125L11.6623 37.35C11.7748 37.395 11.7935 37.4663 11.7823 37.6125C11.7823 37.6463 11.7823 37.68 11.7823 37.71C11.7718 37.764 11.7429 37.8126 11.7005 37.8475C11.658 37.8824 11.6047 37.9014 11.5498 37.9013C11.3591 37.9113 11.168 37.891 10.9835 37.8413C10.8066 37.7674 10.6432 37.6648 10.4998 37.5375C10.2932 37.3622 10.1024 37.1689 9.9298 36.96L9.9448 36.9488Z" fill="#121224"/>
<path d="M23.8988 17.5388C22.4513 16.5451 22.7063 14.2576 22.5376 14.1076C22.3688 13.9576 22.0201 14.4226 21.6001 15.0601C21.2202 15.6707 20.9167 16.3256 20.6963 17.0101C20.6963 17.0101 20.4151 13.7776 22.7101 12.7238C23.9701 12.1426 24.2101 12.0563 24.2101 12.0563L23.8988 17.5388Z" fill="#121224"/>
<path d="M17.6552 25.4026C17.7412 25.5994 17.8454 25.7877 17.9665 25.9651C18.0119 26.0313 18.0607 26.0951 18.1127 26.1563C18.2813 26.3887 18.4642 26.6104 18.6602 26.8201C18.7494 26.9112 18.8433 26.9975 18.9415 27.0788C19.0764 27.1812 19.2019 27.2954 19.3165 27.4201C19.354 27.4613 19.3165 27.4951 19.2527 27.5101C19.166 27.5306 19.0748 27.5213 18.994 27.4838C18.6822 27.3224 18.4066 27.0991 18.184 26.8276C18.0527 26.6626 17.8915 26.5126 17.7527 26.3438C17.6111 26.1534 17.4856 25.9514 17.3777 25.7401C17.307 25.6101 17.2468 25.4746 17.1977 25.3351C17.1565 25.2263 17.1302 25.1176 17.1002 25.0088C17.0702 24.9001 17.0515 24.7876 17.0365 24.6788C17.0215 24.5701 17.0102 24.5063 16.999 24.4201C16.9877 24.3338 16.999 24.2476 16.999 24.1576C16.9933 24.1203 16.9933 24.0824 16.999 24.0451C17.029 23.9026 17.0665 23.8651 17.149 23.8538H17.209C17.269 23.8538 17.3102 23.9213 17.329 24.0188C17.3588 24.2916 17.4064 24.5622 17.4715 24.8288C17.5241 25.0287 17.5983 25.2224 17.6927 25.4063L17.6552 25.4026Z" fill="#121224"/>
<path d="M23.6964 25.9275C23.4939 25.77 23.2952 25.605 23.0927 25.4438C22.8902 25.2825 22.7177 25.11 22.5114 24.9338C22.3052 24.7575 22.2227 24.69 22.0877 24.5588C21.632 24.0705 21.218 23.5449 20.8502 22.9875C20.6889 22.74 20.5202 22.4963 20.3777 22.2375C20.2877 22.0688 20.1939 21.9038 20.1114 21.7313C20.0505 21.5459 20.0176 21.3526 20.0139 21.1575C20.0139 21.0375 20.1002 21.0263 20.2539 21.0788C20.3445 21.107 20.4324 21.1434 20.5164 21.1875C20.5659 21.2101 20.6135 21.2364 20.6589 21.2663L20.7264 21.3113C20.7264 21.33 20.7527 21.3488 20.7639 21.3713L21.8889 23.1413C22.1535 23.4962 22.458 23.8196 22.7964 24.105C22.9689 24.2738 23.1452 24.4463 23.3364 24.6038C23.5277 24.7613 23.7114 24.9263 23.9027 25.08C24.0939 25.2338 24.3864 25.455 24.6339 25.6313C25.0141 25.8959 25.4098 26.1376 25.8189 26.355C26.1406 26.4979 26.4698 26.6231 26.8052 26.73C26.8764 26.7563 26.9514 26.775 27.0227 26.805C27.2814 26.925 27.3452 27.0075 27.3414 27.18C27.3452 27.2224 27.3452 27.2651 27.3414 27.3075C27.3227 27.4388 27.1727 27.5025 26.9402 27.4763C26.2572 27.3607 25.6029 27.115 25.0127 26.7525C24.5606 26.496 24.1225 26.2156 23.7002 25.9125L23.6964 25.9275Z" fill="#121224"/>
<path d="M21.0973 14.3775C21.6457 13.4865 22.3346 12.69 23.1373 12.0188C23.4175 11.7673 23.7117 11.5319 24.0185 11.3138C24.5757 10.9546 25.1721 10.6602 25.796 10.4363C26.4142 10.208 27.0555 10.0483 27.7085 9.96005C28.2855 9.87321 28.869 9.83682 29.4523 9.8513C29.8326 9.85684 30.2107 9.91103 30.5773 10.0125C30.7581 10.0656 30.9337 10.1346 31.1023 10.2188C31.2748 10.2938 31.4285 10.41 31.5935 10.4925C31.7585 10.575 31.676 10.77 31.4285 10.89C31.2838 10.9521 31.1346 11.0035 30.9823 11.0438C30.8103 11.1103 30.6265 11.1409 30.4423 11.1338C30.116 11.1338 29.8085 11.1113 29.4935 11.1C29.336 11.1 29.1785 11.1 29.0248 11.1H28.5485C27.8979 11.14 27.2525 11.2417 26.621 11.4038C25.8382 11.6521 25.1083 12.0437 24.4685 12.5588C23.7254 13.0906 23.0743 13.7405 22.541 14.4825C22.2086 14.94 21.9304 15.4346 21.7123 15.9563C21.3699 16.7472 21.1816 17.5961 21.1573 18.4575C21.1837 19.1136 21.2869 19.7643 21.4648 20.3963C21.506 20.5313 21.5548 20.6663 21.5848 20.805C21.7235 21.3225 21.641 21.5325 21.4535 21.7275C21.4085 21.7725 21.371 21.825 21.3298 21.8588C21.2023 21.9675 20.9548 21.8138 20.6698 21.4388C19.9886 20.1974 19.7556 18.7593 20.0098 17.3663C20.1732 16.3066 20.5385 15.2882 21.086 14.3663L21.0973 14.3775Z" fill="#121224"/>
<path d="M36.7497 16.8975C36.4111 15.6492 35.7851 14.4973 34.9217 13.5343C34.0582 12.5712 32.9813 11.8236 31.7772 11.3513C30.8944 11.0081 29.9568 10.8277 29.0097 10.8188C27.3176 10.7785 25.6473 11.2068 24.1834 12.0563C22.7046 12.8903 21.5886 14.2442 21.0522 15.855C20.6313 17.3076 20.6786 18.8558 21.1872 20.28C21.4997 21.2028 21.9416 22.0765 22.4997 22.875C23.0554 23.668 23.7024 24.3929 24.4272 25.035C24.8772 25.4363 24.7422 25.5075 24.2172 25.3125C23.3547 24.9593 22.6061 24.3755 22.0534 23.625C21.4138 22.7735 20.901 21.8337 20.5309 20.835C20.154 19.823 19.9671 18.75 19.9797 17.67C19.9932 17.1255 20.0636 16.5838 20.1897 16.0538C20.5997 14.4518 21.5476 13.0392 22.8747 12.0525C24.9659 10.458 27.6014 9.75195 30.2097 10.0875C32.5215 10.4419 34.608 11.6735 36.0354 13.5262C37.4629 15.379 38.1216 17.7105 37.8747 20.0363C37.7252 21.3485 37.3295 22.6208 36.7084 23.7863C36.1038 24.9798 35.1992 25.9956 34.0834 26.7338C33.6404 27.0125 33.1608 27.2284 32.6584 27.375C32.1663 27.5075 31.6648 27.6028 31.1584 27.66C30.1459 27.7706 29.1223 27.7225 28.1247 27.5175C27.6855 27.4313 27.2531 27.3135 26.8309 27.165C25.2672 26.5313 24.9147 26.04 24.7422 25.6988C24.6992 25.6207 24.6628 25.5392 24.6334 25.455C24.5922 25.2563 25.1997 25.5375 26.2459 25.9575C27.81 26.607 29.5114 26.8558 31.1959 26.6813C31.6174 26.6314 32.0347 26.5512 32.4447 26.4413C32.8276 26.3322 33.1935 26.1707 33.5322 25.9613C34.236 25.5167 34.842 24.9337 35.3134 24.2475C36.0473 23.1865 36.5577 21.9871 36.8134 20.7225C37.0751 19.4591 37.0392 18.1522 36.7084 16.905L36.7497 16.8975Z" fill="#121224"/>
<path d="M13.1513 37.9238C12.8829 38.0603 12.6031 38.1733 12.3151 38.2613C12.1618 38.3094 12.0051 38.3458 11.8463 38.37C11.7362 38.39 11.6245 38.4 11.5126 38.4L11.3288 38.355L11.2013 38.325C10.6163 38.1261 10.0787 37.8082 9.62256 37.3913C9.15929 36.9976 8.77717 36.5174 8.49756 35.9775C8.41294 35.8127 8.34631 35.6392 8.29881 35.46C8.27256 35.3438 8.23506 35.2275 8.21631 35.115C8.27256 35.01 8.32881 34.9088 8.39256 34.8075L8.85381 34.0575L9.51006 33.06L10.1851 32.085C11.8238 29.835 13.5601 27.6713 15.2326 25.4813C15.9826 24.51 16.7326 23.5238 17.4451 22.5488L18.8176 20.6475C19.2676 20.0138 19.7288 19.38 20.1263 18.7388C20.3663 18.3413 20.5013 18.435 20.4226 18.8813C20.2822 19.584 19.9988 20.2503 19.5901 20.8388C18.7051 22.185 17.7751 23.4863 16.8263 24.78C15.8776 26.0738 14.8763 27.3188 13.8751 28.5788C12.6788 30.0788 11.5238 31.7213 10.4176 33.3338C10.1101 33.7763 9.81756 34.2263 9.52881 34.6763L9.19131 35.2275C9.19131 35.25 9.19131 35.2763 9.19131 35.2988C9.19855 35.3326 9.20988 35.3653 9.22506 35.3963C9.26735 35.5048 9.31748 35.6101 9.37506 35.7113C9.62585 36.1436 9.95527 36.5251 10.3463 36.8363C10.5368 36.9954 10.7428 37.1348 10.9613 37.2525C11.0667 37.3118 11.1756 37.3644 11.2876 37.41L11.4526 37.4663L11.5763 37.5H11.6326H11.7338L11.9476 37.4513C12.0938 37.41 12.2363 37.3613 12.3826 37.305C12.6734 37.1795 12.9553 37.0342 13.2263 36.87C13.7813 36.54 14.3138 36.1463 14.8726 35.745C16.5788 34.65 18.3001 33.585 19.9801 32.4825C21.2888 31.6313 22.5488 30.765 23.8351 29.9138C24.1163 29.7225 24.3938 29.5388 24.6788 29.3513C25.7513 28.6463 26.1301 28.5 26.4563 28.5C26.5299 28.4938 26.6039 28.4938 26.6776 28.5C26.8538 28.5563 26.4863 28.9463 25.7438 29.505C23.5201 31.14 21.1463 32.8088 18.6901 34.38L15.9563 36.1313C15.0488 36.6825 14.2238 37.395 13.1663 37.9388L13.1513 37.9238Z" fill="#121224"/>
<path d="M13.1813 40.4738C15.1238 39.8288 17.1226 39.1726 19.2563 39.0113C19.6313 38.9813 20.0288 38.9626 20.4263 38.9663C20.8428 38.9635 21.2577 39.0165 21.6601 39.1238C21.8695 39.184 22.0673 39.2791 22.2451 39.4051C22.4745 39.5645 22.6384 39.8016 22.7063 40.0726C22.7325 40.2088 22.7325 40.3488 22.7063 40.4851C22.6936 40.6023 22.6646 40.7172 22.6201 40.8263C22.5468 41.0127 22.4524 41.1901 22.3388 41.3551C22.1184 41.6652 21.844 41.9332 21.5288 42.1463C21.2382 42.337 20.9378 42.5122 20.6288 42.6713L18.8813 43.5863L18.0188 44.0401C17.9498 44.0716 17.8884 44.1177 17.8388 44.1751C17.8117 44.2027 17.793 44.2375 17.785 44.2754C17.7771 44.3133 17.7801 44.3526 17.7938 44.3888C17.8269 44.4483 17.8782 44.4956 17.9401 44.5238C18.0244 44.5662 18.1123 44.6013 18.2026 44.6288C18.4679 44.7065 18.7386 44.7641 19.0126 44.8013C19.5646 44.8849 20.1238 44.9113 20.6813 44.8801C21.4008 44.7973 22.112 44.6543 22.8076 44.4526L23.8688 44.1526C24.2213 44.0438 24.5888 43.9801 24.9451 43.8863C25.3951 43.7776 25.3876 43.9201 25.0763 44.2238C24.8658 44.4238 24.6387 44.6057 24.3976 44.7676C24.0604 44.9791 23.6958 45.1431 23.3138 45.2551C22.5586 45.4926 21.7846 45.6657 21.0001 45.7726C20.5871 45.8236 20.17 45.8337 19.7551 45.8026C19.3529 45.7779 18.9523 45.7316 18.5551 45.6638C18.3462 45.6267 18.1397 45.5779 17.9363 45.5176L17.7751 45.4651L17.5501 45.3751C17.3884 45.3019 17.2382 45.206 17.1038 45.0901C16.9783 44.9838 16.8825 44.8466 16.826 44.6921C16.7695 44.5376 16.7541 44.3711 16.7813 44.2088C16.8113 44.046 16.878 43.8921 16.9763 43.7588C17.0743 43.6095 17.202 43.4818 17.3513 43.3838C17.4249 43.3344 17.5013 43.2894 17.5801 43.2488L17.7226 43.1776L17.9776 43.0501L18.4913 42.7951L19.5001 42.2926C20.3213 41.8801 21.2138 41.5426 21.6076 40.8713C21.7078 40.7295 21.778 40.5687 21.8138 40.3988C21.8232 40.3581 21.8199 40.3155 21.8045 40.2767C21.7891 40.2378 21.7623 40.2046 21.7276 40.1813C21.5859 40.0906 21.428 40.0282 21.2626 39.9976C21.0565 39.9513 20.8471 39.9213 20.6363 39.9076C18.6751 39.7951 16.6688 40.2826 14.7263 40.9051C13.5226 41.2801 12.3263 41.7076 11.1113 42.0976C10.1836 42.3928 9.23791 42.6283 8.28007 42.8026C7.79763 42.8918 7.31065 42.9544 6.82132 42.9901C6.31992 43.0325 5.81506 43.0047 5.32132 42.9076C5.11403 42.8615 4.91448 42.7857 4.72882 42.6826C4.52223 42.5686 4.35098 42.3999 4.23382 42.1951C4.11713 41.988 4.05639 41.754 4.05757 41.5163C4.06648 41.2976 4.1082 41.0814 4.18132 40.8751C4.48549 40.1505 4.94656 39.5025 5.53132 38.9776C5.76781 38.7415 6.01826 38.5199 6.28132 38.3138C7.27507 37.5638 7.73257 37.4551 8.06632 37.5638C8.1418 37.5827 8.21139 37.6201 8.26882 37.6726C8.29507 37.7101 8.26882 37.7476 8.26882 37.7888C8.22553 37.844 8.17509 37.8932 8.11882 37.9351L7.36882 38.5126C6.87471 38.9033 6.41662 39.3375 6.00007 39.8101C5.79205 40.0459 5.60154 40.2965 5.43007 40.5601C5.2692 40.7905 5.14286 41.0431 5.05507 41.3101C5.0196 41.3858 5.00121 41.4684 5.00121 41.552C5.00121 41.6356 5.0196 41.7181 5.05507 41.7938C5.172 41.9368 5.33758 42.0316 5.52007 42.0601C6.1243 42.1712 6.74291 42.1801 7.35007 42.0863C8.33955 41.9611 9.31674 41.7528 10.2713 41.4638C11.2276 41.1751 12.2063 40.8188 13.1813 40.4851V40.4738Z" fill="#121224"/>
<path d="M24.2927 15.6C24.3605 16.2078 24.499 16.8055 24.7052 17.3813C24.7764 17.5988 24.9039 17.79 24.9827 18C25.2868 18.7487 25.6932 19.4516 26.1902 20.0888C26.3031 20.2253 26.4286 20.3508 26.5652 20.4638C26.6915 20.5911 26.8282 20.7078 26.9739 20.8125L27.2477 21.0188L27.5327 21.2063C27.7127 21.345 27.9077 21.4463 28.0989 21.5813C28.2152 21.6675 28.1552 21.7875 27.9789 21.8663C27.7387 21.9654 27.4691 21.9654 27.2289 21.8663C26.9859 21.7643 26.7536 21.6387 26.5352 21.4913L26.2164 21.2588L25.9239 20.9963C25.5386 20.6447 25.203 20.2423 24.9264 19.8C24.7652 19.5338 24.5927 19.275 24.4164 19.0088C24.2462 18.742 24.0945 18.4639 23.9627 18.1763C23.6725 17.5465 23.4585 16.8843 23.3252 16.2038C23.2783 15.9948 23.2445 15.7832 23.2239 15.57L23.1827 15.2513V14.9288C23.1499 14.2718 23.2207 13.6137 23.3927 12.9788C23.5137 12.4642 23.7176 11.9728 23.9964 11.5238C24.0551 11.4291 24.119 11.3377 24.1877 11.25C24.5064 10.9238 24.6977 10.9163 24.9377 11.1263C24.9948 11.1711 25.0487 11.22 25.0989 11.2725C25.1673 11.3626 25.2044 11.4725 25.2044 11.5856C25.2044 11.6987 25.1673 11.8087 25.0989 11.8988C24.7008 12.4931 24.4383 13.1678 24.3302 13.875C24.2418 14.4504 24.2418 15.0359 24.3302 15.6113L24.2927 15.6Z" fill="#121224"/>
<path d="M30.8399 13.7438C30.7483 13.6378 30.6198 13.5707 30.4805 13.5561C30.3412 13.5415 30.2016 13.5804 30.0899 13.6651C29.0962 14.6251 32.0212 14.9663 30.8399 13.7438Z" fill="#121224"/>
<path d="M33.8774 14.715C33.7863 14.6083 33.6577 14.5406 33.5181 14.5259C33.3786 14.5113 33.2387 14.5508 33.1274 14.6363C32.1337 15.5813 35.0587 15.9375 33.8774 14.715Z" fill="#121224"/>
<path d="M32.854 18.9825C32.7629 18.8758 32.6343 18.8081 32.4947 18.7935C32.3552 18.7788 32.2153 18.8183 32.104 18.9038C31.1253 19.845 34.0353 20.2013 32.854 18.9825Z" fill="#121224"/>
<path d="M18.2478 24.7051C18.3008 25.0069 18.4021 25.2981 18.5478 25.5676C18.606 25.676 18.6738 25.7789 18.7503 25.8751C18.98 26.2407 19.2519 26.578 19.5603 26.8801C19.7014 27.0199 19.8559 27.1455 20.0216 27.2551C20.2278 27.3901 20.4416 27.5176 20.6366 27.6714C20.6966 27.7201 20.6628 27.8101 20.5578 27.8814C20.4952 27.928 20.4234 27.9609 20.3471 27.9777C20.2708 27.9945 20.1918 27.9949 20.1153 27.9789C19.5623 27.8265 19.0698 27.5069 18.7053 27.0639C18.5971 26.9328 18.4819 26.8076 18.3603 26.6889C18.2441 26.5576 18.1278 26.4264 18.0191 26.2839C17.7946 25.9625 17.6213 25.6083 17.5053 25.2339C17.4661 25.1189 17.4361 25.001 17.4153 24.8814L17.3741 24.5064C17.3591 24.3242 17.3591 24.141 17.3741 23.9589C17.3741 23.7751 17.4453 23.6026 17.4678 23.4264C17.4903 23.2501 17.5353 23.1601 17.5616 23.0251C17.5903 22.8953 17.6344 22.7695 17.6928 22.6501C17.7191 22.5976 17.7416 22.5414 17.7716 22.4889C17.8916 22.2976 17.9816 22.2714 18.1466 22.3201C18.1835 22.3291 18.2198 22.3404 18.2553 22.3539C18.3112 22.3893 18.3549 22.441 18.3804 22.502C18.4059 22.5631 18.412 22.6305 18.3978 22.6951C18.3843 22.8037 18.3643 22.9114 18.3378 23.0176C18.3116 23.1226 18.3378 23.2351 18.3003 23.3326C18.2536 23.5224 18.221 23.7155 18.2028 23.9101C18.2028 24.0526 18.2028 24.1914 18.2028 24.3339C18.2028 24.4764 18.2441 24.6151 18.2778 24.7576L18.2478 24.7051Z" fill="#121224"/>
<path d="M32.0361 7.73256C32.1223 7.78131 32.0698 7.88631 31.9498 8.03631C31.8897 8.09701 31.8147 8.14096 31.7323 8.16381C31.6669 8.14646 31.6029 8.12389 31.5411 8.09631C31.3739 7.90927 31.221 7.70996 31.0836 7.50006C30.9849 7.36066 30.9066 7.20787 30.8511 7.04631C30.7311 6.72381 30.6186 6.40506 30.5248 6.08631C30.5057 6.0141 30.4956 5.93978 30.4948 5.86506C30.4935 5.61123 30.4569 5.35882 30.3861 5.11506C30.3813 5.07285 30.3629 5.03334 30.3336 5.00256C30.2338 4.74668 30.1719 4.47759 30.1498 4.20381C30.1498 3.98256 30.1911 3.76506 30.1986 3.54756C30.1986 3.51756 30.1986 3.48756 30.1986 3.45381C30.2217 3.42538 30.2373 3.39156 30.2438 3.3555C30.2504 3.31945 30.2477 3.28232 30.2361 3.24756C30.2305 3.15515 30.2305 3.06248 30.2361 2.97006C30.2523 2.91806 30.2736 2.8678 30.2998 2.82006C30.3223 2.77131 30.4311 2.76756 30.4461 2.77881C30.4611 2.79006 30.5323 2.77881 30.5736 2.75256H30.6186C30.762 2.91502 30.8877 3.09227 30.9936 3.28131L31.1323 3.67506C31.2111 3.87006 31.2636 4.08006 31.2823 4.11756C31.2914 4.16463 31.2914 4.213 31.2823 4.26006C31.2823 4.28256 31.4661 4.86756 31.4698 4.89006C31.509 5.01113 31.5168 5.14018 31.4923 5.26506C31.4846 5.28946 31.4846 5.31567 31.4923 5.34006C31.5422 5.54731 31.5773 5.75784 31.5973 5.97006C31.6144 6.07558 31.6394 6.17963 31.6723 6.28131C31.6761 6.30239 31.6761 6.32398 31.6723 6.34506C31.6687 6.36993 31.6687 6.3952 31.6723 6.42006C31.7377 6.66325 31.8269 6.8994 31.9386 7.12506C31.9623 7.25218 31.9949 7.37749 32.0361 7.50006C32.0548 7.55256 32.0023 7.71756 32.0361 7.73256Z" fill="#121224"/>
<path d="M37.3237 7.92763C37.3237 8.01388 37.2075 7.98388 37.02 7.88263C36.9345 7.82781 36.8585 7.75942 36.795 7.68013C36.7758 7.62126 36.7607 7.56111 36.75 7.50013C36.75 7.46638 36.8888 7.14763 36.9263 7.03513C36.966 6.93016 37.0231 6.83257 37.095 6.74638C37.23 6.57013 37.3537 6.37138 37.47 6.19888C37.4994 6.15635 37.5362 6.1195 37.5787 6.09013C37.723 5.98977 37.8391 5.85423 37.9163 5.69638C37.9163 5.67013 37.9538 5.65138 37.9425 5.61013C38.0056 5.42477 38.1108 5.2566 38.25 5.11888C38.3876 5.03121 38.5203 4.93607 38.6475 4.83388C38.6662 4.83388 38.67 4.79638 38.7113 4.79638C38.7525 4.79638 38.82 4.75888 38.8538 4.72138C38.9031 4.6731 38.9586 4.6315 39.0188 4.59763C39.0607 4.5811 39.105 4.57099 39.15 4.56763C39.1913 4.56763 39.2663 4.62388 39.27 4.63888C39.2738 4.65388 39.3337 4.68763 39.3712 4.71013L39.4087 4.73263C39.4313 4.89937 39.4313 5.06839 39.4087 5.23513L39.2925 5.51263C39.2362 5.65138 39.18 5.79763 39.1687 5.83138C39.1575 5.86513 39.1275 5.88388 39.0975 5.90263C39.0675 5.92138 38.8988 6.32638 38.8838 6.34138C38.8238 6.41263 38.7975 6.51013 38.6813 6.54013C38.6724 6.54394 38.6645 6.54959 38.658 6.5567C38.6516 6.56381 38.6467 6.57223 38.6438 6.58138C38.5541 6.71638 38.4511 6.84201 38.3363 6.95638C38.2842 7.02013 38.2354 7.08647 38.19 7.15513C38.19 7.15513 38.1638 7.17388 38.1488 7.18138C38.1313 7.19063 38.116 7.2034 38.1038 7.21888C37.9767 7.36737 37.8578 7.52259 37.7475 7.68388C37.7288 7.72513 37.5187 7.83013 37.4962 7.87888C37.4737 7.92763 37.3237 7.89388 37.3237 7.92763Z" fill="#121224"/>
<path d="M40.3768 13.5675C40.3393 13.635 40.2568 13.5675 40.1593 13.3913C40.1169 13.3092 40.089 13.2204 40.0768 13.1288C40.0892 13.0752 40.1055 13.0225 40.1256 12.9713C40.1256 12.945 40.3993 12.75 40.5006 12.6713C40.5821 12.6055 40.6732 12.5524 40.7706 12.5138L41.3593 12.2475C41.4042 12.2275 41.4527 12.2173 41.5018 12.2175C41.6713 12.2047 41.8362 12.1562 41.9856 12.075C42.0118 12.075 42.0381 12.0563 42.0531 12.015C42.0681 11.9738 42.5218 11.805 42.5931 11.82C42.7581 11.8425 42.9156 11.8425 43.0731 11.8575C43.0956 11.8575 43.1181 11.8575 43.1443 11.8763C43.1706 11.895 43.2493 11.925 43.2981 11.9288C43.3666 11.9298 43.4347 11.9399 43.5006 11.9588C43.5399 11.9787 43.5755 12.0053 43.6056 12.0375C43.6393 12.0638 43.6431 12.1725 43.6356 12.1875C43.6281 12.2025 43.6356 12.2738 43.6356 12.315C43.6374 12.3312 43.6374 12.3476 43.6356 12.3638C43.5904 12.4242 43.5416 12.4818 43.4893 12.5363C43.4433 12.6017 43.3877 12.6599 43.3243 12.7088L43.0881 12.8175C42.9718 12.8775 42.8518 12.9413 42.8293 12.96C42.8068 12.9788 42.7731 12.96 42.7431 12.96C42.7131 12.96 42.3681 13.1625 42.3681 13.1625C42.2893 13.1625 42.2218 13.2375 42.1168 13.1925C42.1168 13.1925 42.0831 13.1925 42.0681 13.1925C41.9326 13.2453 41.7918 13.283 41.6481 13.305C41.5767 13.3274 41.5066 13.3537 41.4381 13.3838C41.4232 13.3857 41.408 13.3857 41.3931 13.3838H41.3406C41.1687 13.4374 40.9997 13.5 40.8343 13.5713C40.8006 13.5938 40.5793 13.5713 40.5381 13.6013C40.4968 13.6313 40.3918 13.5413 40.3768 13.5675Z" fill="#121224"/>
</svg>