<svg width="94" height="84" viewBox="0 0 94 84" fill="none" xmlns="http://www.w3.org/2000/svg">
<path d="M11.3481 21.7384C14.1438 17.5779 18.0396 14.2786 22.5998 12.2094C24.2587 11.4685 26.0044 10.9404 27.7954 10.6378C34.0929 9.53753 40.5751 10.7526 46.0496 14.0595C48.4586 15.4972 50.6034 17.3387 52.3902 19.5037C54.7392 22.2441 56.3016 25.5719 56.9108 29.1322C57.1093 30.233 56.6328 30.1402 55.9974 29.3444C55.6058 28.8365 55.2706 28.2873 54.998 27.7065C54.5487 26.9649 54.1635 26.1862 53.8463 25.379C52.4568 22.2894 50.3701 19.5653 47.7506 17.4215C45.0873 15.2532 42.0111 13.6513 38.7095 12.7134C38.2123 12.5607 37.7061 12.4389 37.1938 12.3487C36.6842 12.2625 36.1746 12.1099 35.6517 12.0702C34.6006 11.9342 33.5411 11.8743 32.4814 11.8911C30.3524 11.9064 28.2336 12.187 26.1738 12.7266C25.0522 13.02 23.9583 13.4105 22.9042 13.8937C22.3761 14.138 21.8613 14.4102 21.3621 14.7094L20.5943 15.1404L19.8596 15.6245C17.8836 16.912 16.1007 18.475 14.5647 20.2663C13.6308 21.3716 12.7854 22.549 12.0364 23.7875C11.3382 25.0444 10.7406 26.3549 10.2494 27.7065C8.68833 31.8379 8.27878 36.3171 9.06465 40.6639C9.72669 43.9577 11.1152 47.0616 13.1285 49.7486C13.3337 50.047 13.5653 50.3255 13.7904 50.604C14.0154 50.8825 14.247 51.1677 14.4985 51.4396C16.3187 53.4753 16.9739 54.039 17.146 54.8016C17.1944 54.9662 17.2277 55.1349 17.2453 55.3055C17.2453 55.5376 16.9673 55.5177 16.4908 55.3055C16.1887 55.1498 15.8968 54.9748 15.6171 54.7817C15.2928 54.5363 14.9552 54.2313 14.5316 53.8732C12.1207 51.644 10.2099 48.9272 8.92565 45.9025C8.27049 44.3509 7.76947 42.7383 7.42984 41.0883C7.10757 39.4188 6.94358 37.7225 6.94006 36.022C6.96527 33.4907 7.35311 30.9762 8.09171 28.5553C8.84807 26.1465 9.93036 23.8528 11.3084 21.7384H11.3481Z" fill="#121224"/>
<path d="M28.9533 61.9432C27.5371 63.1888 25.9097 64.1702 24.1482 64.841C23.5303 65.1094 22.8984 65.344 22.2553 65.5439C21.7589 65.7031 21.2492 65.8158 20.7462 65.9352L19.9851 66.0943L19.6012 66.1606L19.1246 66.2468C18.3172 66.3795 17.5295 66.4856 16.8214 66.532C16.1132 66.5784 15.1866 66.7309 15.1799 66.4789C15.544 66.0612 15.9609 65.5837 16.2852 65.1527L16.7552 64.5691L17.0596 64.0387C17.1634 63.8747 17.252 63.7015 17.3244 63.5214L17.4634 63.1899C17.6244 62.74 17.7527 62.279 17.8472 61.8106C18.1054 60.6037 18.1186 59.3504 18.3304 58.1104C18.39 57.7324 18.8334 57.7655 19.2702 58.1104C19.5311 58.3324 19.7352 58.6139 19.8653 58.9311C19.9954 59.2484 20.0478 59.5922 20.0182 59.9339C19.9141 61.0116 19.6921 62.0746 19.3563 63.1037C19.2636 63.3623 19.171 63.6275 19.0585 63.8795L18.9062 64.2177C18.8438 64.2627 18.7841 64.3114 18.7275 64.3636L18.6282 64.4498C18.6282 64.4498 18.6282 64.4498 18.6282 64.4896C18.6282 64.5294 18.6746 64.536 18.7275 64.5625C18.8257 64.5839 18.9272 64.5839 19.0254 64.5625H19.1246H19.2702L19.5615 64.5028L20.1373 64.3702C20.8984 64.1779 21.653 63.9326 22.3942 63.7071C24.0222 63.1818 25.5585 62.4054 26.9479 61.4061C27.1601 61.2572 27.3614 61.0932 27.5502 60.9154C27.7421 60.7363 27.9539 60.5772 28.126 60.3915L28.7878 59.6289L28.993 59.3968C28.993 59.3968 28.993 59.357 29.046 59.3504H29.1122H29.2578L29.827 59.4631L30.5219 59.5891C30.7271 59.5891 30.9257 59.6621 31.1308 59.6886C31.5346 59.7549 31.9383 59.8013 32.3421 59.8477C33.1369 59.9465 33.937 59.9974 34.738 60.0003C35.9776 59.9438 37.2084 59.7617 38.4113 59.4565L39.199 59.2509C40.1785 59.0122 40.5227 59.0255 40.847 59.4167C40.9296 59.4984 41.0049 59.5871 41.072 59.682C41.2706 59.9936 40.9397 60.4114 40.1918 60.6965C37.8587 61.5236 35.3789 61.8534 32.9113 61.6647C31.9813 61.6147 31.0552 61.5084 30.138 61.3464L29.8204 61.2933H29.7542C29.7145 61.2933 29.6417 61.2602 29.6549 61.2933L29.5358 61.4326C29.3784 61.6254 29.2034 61.803 29.0129 61.9631L28.9533 61.9432Z" fill="#121224"/>
<path d="M59.0732 33.7751C57.4651 34.2524 55.9121 34.8993 54.4402 35.7047C52.9763 36.5347 51.607 37.5219 50.3565 38.649C49.1147 39.8012 48.0189 41.1018 47.0935 42.5216C44.8244 46.0239 43.647 50.1236 43.7114 54.2986C43.7516 58.7058 45.2427 62.9764 47.9534 66.4476C50.6641 69.9188 54.4426 72.3964 58.7026 73.4959C60.6009 73.9784 62.5557 74.2015 64.5137 74.159C65.0035 74.159 65.4933 74.159 65.9764 74.0927C66.4596 74.0264 66.956 74.033 67.4392 73.9402L68.1672 73.8275L68.7232 73.7413L69.0078 73.7015H69.1468C69.1865 73.7015 69.213 73.7678 69.2461 73.8009L69.9079 74.5503C70.065 74.7165 70.2355 74.8695 70.4176 75.0078C71.732 76.027 73.2745 76.7098 74.9116 76.9972C75.742 77.1577 76.5823 77.2618 77.4267 77.3088H77.8304H78.5452L78.5121 77.2558C78.4185 77.1283 78.3323 76.9954 78.254 76.8579L78.1415 76.6391L78.0224 76.4004C77.9694 76.3009 77.9297 76.2014 77.8834 76.1086C77.5236 75.3197 77.2827 74.4817 77.1686 73.6219C77.0825 72.8593 77.1686 72.4813 77.3406 72.4217C77.5127 72.362 77.665 72.614 77.8966 73.0848C78.1283 73.5556 78.4393 74.1723 78.8894 74.8818C79.0019 75.0609 79.1211 75.2399 79.2534 75.4322L79.452 75.7174L79.5579 75.8632L79.7498 76.1484C80.2793 76.9441 81.1331 77.9521 81.9075 78.9799C81.709 79.0197 81.4177 79.0462 81.1464 79.0794L80.319 79.1722C80.0278 79.1722 79.7366 79.2319 79.4321 79.2452H78.4658H77.9827H77.5326H77.0163C76.6722 79.212 76.3545 79.1921 75.9772 79.1391C75.2813 79.0559 74.5915 78.9274 73.9122 78.7544C72.4968 78.4204 71.1521 77.8366 69.941 77.0303C69.629 76.8322 69.3325 76.6105 69.0541 76.3672C68.908 76.2517 68.7709 76.1254 68.6438 75.9892L68.4518 75.777L67.4987 75.9097C66.8369 75.9959 66.1353 76.029 65.4536 76.0821C64.7719 76.1351 64.0901 76.0821 63.4018 76.0821C60.6452 75.9817 57.9286 75.3888 55.38 74.3314C52.8317 73.2631 50.516 71.7066 48.5628 69.7493C47.3907 68.5256 46.3543 67.1782 45.4719 65.7308C44.5801 64.3097 43.8455 62.7955 43.2812 61.2149C42.1463 58.0305 41.7634 54.6258 42.1626 51.2682C42.3924 49.4535 42.8368 47.6727 43.4863 45.9632C44.1169 44.2353 44.969 42.5969 46.0213 41.0893C46.5406 40.3337 47.1042 39.6096 47.709 38.9209C48.3361 38.2468 48.9989 37.6071 49.6946 37.0045C51.0673 35.7894 52.5832 34.7472 54.2085 33.9011C58.2002 31.7924 62.7107 30.8721 67.2075 31.2486C68.0521 31.3159 68.8919 31.4333 69.7226 31.6C70.1406 31.6782 70.5538 31.78 70.9603 31.9051C71.3706 32.0244 71.7876 32.104 72.1847 32.2565C72.9894 32.5353 73.7762 32.863 74.541 33.2379C74.9248 33.4236 75.3087 33.6027 75.686 33.8016L76.7714 34.4647L77.3142 34.7963L77.8304 35.1742L78.8497 35.9302L79.8028 36.7657C80.1247 37.0386 80.4297 37.331 80.7162 37.6411L81.5898 38.5429C81.8678 38.8612 82.1193 39.206 82.384 39.5309C84.5257 42.2425 85.9955 45.424 86.6729 48.8146C87.1715 51.3797 87.1872 54.0155 86.7193 56.5864C86.515 57.7162 86.2116 58.8257 85.8125 59.902C85.3032 61.3438 84.5803 62.7007 83.6681 63.9271C83.2767 64.505 82.7463 64.9748 82.1259 65.2931C81.9291 65.398 81.723 65.4846 81.5104 65.5517C81.2456 65.5517 81.3383 65.2334 81.6825 64.577C82.0266 63.9205 82.6091 62.9258 83.2577 61.6194C85.2333 57.6525 85.8118 53.1327 84.8991 48.7947C83.9654 44.3724 81.5621 40.3982 78.0819 37.5217C76.7986 36.4437 75.3815 35.5365 73.8659 34.8228C73.1111 34.468 72.3353 34.1602 71.5427 33.9011C71.1456 33.7751 70.7352 33.6822 70.3315 33.5695L69.7226 33.3838C69.5174 33.3374 69.3056 33.3109 69.1004 33.2711C65.7662 32.6613 62.3354 32.8476 59.0865 33.8149L59.0732 33.7751Z" fill="#121224"/>
<path d="M54.3953 73.2164C56.3642 74.2196 58.4799 74.9023 60.6631 75.2389C61.4615 75.3526 62.2661 75.4168 63.0723 75.4312H64.1445C64.5019 75.4312 64.8527 75.4312 65.2101 75.3848L66.2823 75.3251C66.6398 75.3251 66.9905 75.2256 67.3413 75.1792L68.5592 75.0001C68.7246 74.9206 68.7908 75.1129 68.9033 75.1991L69.1482 75.4577L69.5056 75.8357C69.7571 76.0744 70.0417 76.28 70.3065 76.4988C70.5712 76.7176 70.8955 76.8768 71.1934 77.0691C72.3029 77.6585 73.505 78.0533 74.7476 78.2362C76.3489 78.4505 77.9679 78.4994 79.5792 78.3821C80.069 78.3821 80.0491 78.581 79.6454 78.8595C78.9752 79.2425 78.2126 79.4329 77.4414 79.4099C75.6913 79.4229 73.9527 79.1266 72.3053 78.5346C71.468 78.23 70.6737 77.8176 69.9424 77.3078C69.5842 77.0405 69.2416 76.7527 68.9166 76.4457L68.4599 75.9484V75.9086C68.4599 75.9086 68.4069 75.9086 68.4003 75.9086C66.3345 76.2547 64.2376 76.377 62.1457 76.2733C59.8315 76.0848 57.5618 75.5297 55.4212 74.6288C55.0902 74.4829 54.7593 74.3503 54.4416 74.2044L53.5018 73.6938C52.8729 73.3613 52.267 72.9869 51.6882 72.5731C49.9341 71.3339 48.3728 69.8411 47.0552 68.1435C46.0425 66.8438 45.1685 65.4414 44.4475 63.9592C44.2886 63.6343 44.1364 63.2961 43.9775 62.9778C43.5076 61.7046 43.4414 61.2669 43.5738 60.9288C43.5942 60.8497 43.6254 60.7738 43.6665 60.7033C43.7988 60.5375 44.1165 61.0017 44.4739 61.8969C45.5594 64.6273 47.1542 67.1254 49.1732 69.2575C50.6962 70.8689 52.488 72.2018 54.4681 73.1965L54.3953 73.2164Z" fill="#121224"/>
<path d="M30.2975 61.844L29.8805 61.7644C29.8805 61.7644 29.8408 61.7644 29.8342 61.7644L29.2451 62.3745C28.7617 62.8037 28.2486 63.1981 27.7096 63.5548C27.3259 63.8212 26.9282 64.067 26.5183 64.2909C25.0702 65.0259 23.5452 65.5974 21.9712 65.9951C21.2763 66.1741 20.588 66.3598 19.893 66.5189C19.0121 66.7671 18.1064 66.9161 17.1926 66.9632C16.6234 66.9632 17.2588 66.0548 18.2383 65.8824C20.026 65.5786 21.794 65.169 23.5332 64.6556C24.5883 64.3177 25.5993 63.8546 26.5447 63.2763C26.8116 63.133 27.0681 62.9712 27.3125 62.7922C27.5709 62.6351 27.8166 62.4577 28.0472 62.2617C28.2722 62.0628 28.5237 61.8904 28.709 61.6782L29.4437 60.909L29.5231 60.8294H29.629L29.854 60.8692L30.1916 60.9289L30.7542 61.0217C31.1314 61.0814 31.5087 61.141 31.886 61.1875C33.0224 61.3601 34.172 61.4311 35.321 61.3997C36.1855 61.3446 37.0396 61.1797 37.8626 60.909L38.3921 60.7167C39.0539 60.4846 39.2922 60.4448 39.5239 60.6106C39.5805 60.6427 39.6337 60.6804 39.6827 60.7233C39.8151 60.8625 39.5901 61.1212 39.0937 61.3864C37.5189 62.0897 35.7973 62.3992 34.0767 62.2882C32.8076 62.2212 31.5434 62.0794 30.2909 61.8639L30.2975 61.844Z" fill="#121224"/>
<path d="M63.7947 23.2837C63.8081 23.1458 63.8755 23.0187 63.9822 22.9305C64.0889 22.8422 64.2262 22.8 64.3639 22.8129C65.7869 22.9455 63.6491 24.789 63.7947 23.2837Z" stroke="#121224" stroke-width="0.6" stroke-miterlimit="10"/>
<path d="M35.017 70.3715C35.0304 70.2336 35.0978 70.1066 35.2045 70.0183C35.3112 69.9301 35.4485 69.8878 35.5862 69.9007C37.0092 70.0333 34.878 71.8702 35.017 70.3715Z" stroke="#121224" stroke-width="0.6" stroke-miterlimit="10"/>
<path d="M77.794 20.8233C77.8484 20.8445 77.8981 20.8763 77.9402 20.9168C77.9823 20.9573 78.016 21.0058 78.0394 21.0594C78.0627 21.113 78.0753 21.1707 78.0764 21.2292C78.0774 21.2876 78.0669 21.3458 78.0455 21.4002C77.6087 22.5341 76.6093 20.3657 77.794 20.8233Z" fill="#121224"/>
<path d="M22.3143 33.1571C22.7394 33.2508 23.1344 33.4495 23.4633 33.7351C23.7923 34.0208 24.0447 34.3842 24.1978 34.7925C25.6543 38.7049 19.0623 38.9313 19.1 35.4466C19.1188 35.0668 19.2233 34.6961 19.4057 34.3626C19.5881 34.0291 19.8436 33.7413 20.153 33.5209C20.4624 33.3005 20.8176 33.1533 21.192 33.0903C21.5663 33.0273 21.9501 33.0501 22.3143 33.1571Z" fill="#121224"/>
<path d="M32.3748 33.1634C32.799 33.2549 33.1936 33.4513 33.5226 33.7348C33.8516 34.0182 34.1045 34.3797 34.2583 34.7862C35.7148 38.6986 29.1228 38.925 29.1604 35.4404C29.1811 35.0616 29.287 34.6924 29.4701 34.3604C29.6533 34.0285 29.909 33.7423 30.2182 33.5233C30.5273 33.3043 30.8819 33.1582 31.2554 33.0958C31.6288 33.0335 32.0115 33.0566 32.3748 33.1634Z" fill="#121224"/>
<path d="M42.4365 33.1571C42.8598 33.255 43.2528 33.4552 43.5811 33.7403C43.9094 34.0253 44.1631 34.3866 44.32 34.7925C45.7765 38.7049 39.1845 38.9313 39.2221 35.4466C39.241 35.0668 39.3455 34.6961 39.5279 34.3626C39.7103 34.0291 39.9658 33.7413 40.2752 33.5209C40.5846 33.3005 40.9398 33.1533 41.3142 33.0903C41.6885 33.0273 42.0723 33.0501 42.4365 33.1571Z" fill="#121224"/>
<path d="M68.689 48.24L67.7892 48.4805L68.689 48.24ZM68.689 48.24C68.5589 47.7525 68.147 47.4313 67.6724 47.4729C67.1845 47.5157 66.8279 47.9043 66.7915 48.4131L67.7106 48.4654C67.7055 48.4556 67.7015 48.4518 67.7015 48.4518C67.7015 48.4518 67.7022 48.4525 67.7038 48.4537C67.7077 48.4567 67.716 48.4617 67.7283 48.4654C67.7299 48.4659 67.7315 48.4663 67.733 48.4667L67.7594 48.4681L67.7631 48.4684L68.689 48.24ZM68.847 61.034C68.579 60.0239 68.3263 59.1759 68.0323 58.4832C67.7143 57.7342 67.3221 57.1023 66.7468 56.6175C66.1684 56.13 65.4864 55.8597 64.708 55.6927C63.9949 55.5398 63.1487 55.4635 62.1573 55.4062C64.1102 55.0001 65.6005 54.5647 66.5263 53.4529C67.0153 52.8658 67.2917 52.1616 67.4664 51.3565C67.6271 50.6159 67.7128 49.7342 67.7763 48.6984C68.0477 49.7097 68.3035 50.5587 68.6003 51.252C68.9208 52.001 69.3151 52.6324 69.8914 53.1165C70.9811 54.0317 72.4964 54.2113 74.4784 54.3191C72.5253 54.7251 71.0361 55.1609 70.109 56.2717C69.619 56.8589 69.341 57.5633 69.1642 58.3692C69.0015 59.1114 68.9134 59.9952 68.847 61.034ZM58.8131 49.2157C58.6862 49.3678 58.586 49.5299 58.5061 49.6978C58.4014 49.5543 58.2794 49.4192 58.1347 49.2973C58.013 49.1947 57.8853 49.1099 57.7538 49.0394C57.8819 48.9415 58.0007 48.8298 58.1078 48.7012C58.2339 48.5497 58.3334 48.3883 58.4129 48.2212C58.5185 48.366 58.6417 48.502 58.7877 48.6247C58.9066 48.7246 59.0331 48.8085 59.1656 48.8792C59.0381 48.9766 58.9198 49.0878 58.8131 49.2157ZM59.3853 61.494C59.4605 61.4273 59.5316 61.3545 59.5981 61.2747C59.6789 61.1776 59.748 61.0764 59.8073 60.9726C59.8812 61.0595 59.9635 61.1423 60.0556 61.2197C60.1265 61.2793 60.2002 61.3327 60.2763 61.3808C60.2017 61.447 60.1311 61.5192 60.0651 61.5983C59.9836 61.696 59.9139 61.7978 59.8542 61.9024C59.7811 61.8165 59.6999 61.7346 59.609 61.658C59.5364 61.5968 59.4616 61.5424 59.3853 61.494Z" stroke="#121224" stroke-width="2"/>
</svg>