<svg width="11" height="14" viewBox="0 0 11 14" fill="none" xmlns="http://www.w3.org/2000/svg">
<path d="M1 1.16071H9.69566" stroke="#121224" stroke-width="1.3" stroke-linecap="round"/>
<path d="M1 13.1607H9.69566" stroke="#121224" stroke-width="1.3" stroke-linecap="round"/>
<path d="M1.57855 1.33466C1.57855 1.33466 1.36813 4.12833 2.0996 5.50858C2.64955 6.54631 3.66362 7.21048 4.17989 7.49734C4.29107 7.55912 4.28428 7.74612 4.1698 7.80154C3.59909 8.07786 2.44003 8.79116 1.9259 10.2042C1.3137 11.8868 1.57841 13.1608 1.57841 13.1608" stroke="#121224" stroke-width="1.3" stroke-linecap="round"/>
<path d="M8.99958 1.33466C8.99958 1.33466 9.21 4.12833 8.47853 5.50858C7.92954 6.54449 6.87715 7.20814 6.33744 7.49583C6.22345 7.55659 6.22986 7.74851 6.3469 7.80317C6.94111 8.08065 8.13909 8.79392 8.65222 10.2042C9.26442 11.8868 8.99971 13.1608 8.99971 13.1608" stroke="#121224" stroke-width="1.3" stroke-linecap="round"/>
</svg>
