<svg width="6" height="16" viewBox="0 0 6 16" fill="none" xmlns="http://www.w3.org/2000/svg">
<path fill-rule="evenodd" clip-rule="evenodd" d="M4.47003 1.30905C4.31948 1.60192 4.19525 1.82838 4.04118 2.0524L3.78561 2.42385C3.75002 2.09782 3.82198 1.81597 4.01308 1.5119C4.14319 1.30489 4.35283 1.15058 4.5797 0.993171C4.55478 1.10327 4.52151 1.20895 4.47003 1.30905ZM4.30401 2.57561C4.20273 2.58296 4.10476 2.5691 4.02217 2.5546C3.98748 2.54851 3.9529 2.54181 3.91823 2.53509L3.91791 2.53504L4.36495 2.33388L4.36543 2.33366C4.55032 2.25012 4.72493 2.17121 4.90911 2.12919C5.06747 2.09307 5.277 2.09606 5.51504 2.13784L5.516 2.138C5.48215 2.15713 5.44821 2.17688 5.41561 2.19734C5.26046 2.29467 5.07336 2.37379 4.89254 2.45027L4.89236 2.45035L4.88185 2.45478C4.73231 2.51804 4.5379 2.55866 4.30401 2.57561ZM2.90968 3.97825C2.85363 3.98251 2.79559 3.98689 2.756 3.97994C2.75227 3.97928 2.74907 3.97857 2.74643 3.97789C2.56182 3.6889 2.52516 3.36122 2.62702 2.9229C2.68123 2.68954 2.80741 2.48543 2.941 2.26938L2.94644 2.26057C2.96812 2.22547 2.98994 2.19011 3.01161 2.15437C3.04416 2.3277 3.06068 2.50197 3.06038 2.6719C3.05992 2.92773 3.01756 3.17963 2.94422 3.36315L2.77998 3.91982C2.77998 3.91982 3.47308 3.47505 3.85198 3.31266C4.04582 3.22951 4.27371 3.23531 4.45965 3.25908L4.45497 3.26372C4.45056 3.26809 4.44609 3.27252 4.44155 3.27706L4.43115 3.28749C4.4175 3.30117 4.40588 3.31281 4.39752 3.31995L4.30841 3.39519L4.30741 3.39604C4.24772 3.44654 4.18804 3.49701 4.12732 3.5466C3.96053 3.68273 3.77211 3.7941 3.5673 3.87755C3.38222 3.95293 3.15463 3.96799 2.99953 3.9728C2.97112 3.97367 2.9409 3.97592 2.90968 3.97825ZM1.84103 5.80165C1.98323 5.80903 2.23785 5.74612 2.68045 5.44982C2.96715 5.25799 3.18213 5.00049 3.40269 4.72513C3.17045 4.75963 2.9414 4.82852 2.72682 4.92956C2.56721 5.00467 1.84632 5.73841 1.84632 5.73841C1.84632 5.73841 1.89022 4.62532 1.81347 4.24004C1.77182 4.03061 1.72113 3.8439 1.66192 3.68158C1.61935 3.78699 1.5827 3.89275 1.55136 3.98337C1.4732 4.20925 1.43458 4.41632 1.43329 4.61627C1.43213 4.80432 1.44154 5.08008 1.53657 5.30243C1.60915 5.47212 1.70591 5.60964 1.81799 5.76885L1.82578 5.77993C1.83086 5.78714 1.83595 5.79438 1.84103 5.80165ZM2.30177 7.15635C2.05877 7.43786 1.77635 7.65339 1.41601 7.83166C1.38128 7.8066 1.34666 7.78331 1.31252 7.76035L1.30912 7.75806C1.22353 7.70055 1.14266 7.6462 1.08053 7.57698C0.936142 7.41612 0.824439 7.22536 0.729047 6.97694C0.596462 6.63179 0.62122 6.27119 0.659486 5.89122C0.690069 5.93089 0.71873 5.96944 0.744371 6.00724C0.810932 6.10568 0.860045 6.23636 0.907563 6.36282L0.916503 6.3865C0.93799 6.44376 0.960651 6.50152 0.983485 6.55972L0.987567 6.57012C1.079 6.80302 1.41645 7.70681 1.41645 7.70681L1.62147 7.32001C1.70128 7.1046 1.89734 6.87781 2.05624 6.74854C2.2561 6.58591 2.52964 6.46498 2.78607 6.37846C2.64271 6.66067 2.50017 6.92644 2.30177 7.15635ZM1.42034 10.0254L1.49331 10.0065C1.77785 9.77865 1.97984 9.39643 2.111 9.11747C2.20967 8.90784 2.27 8.69566 2.33536 8.42109C2.36344 8.30316 2.39715 8.18727 2.42988 8.075C2.34118 8.13153 2.26583 8.18781 2.22693 8.21688C2.07601 8.32951 1.95148 8.46234 1.82297 8.64783C1.74839 8.75549 1.67434 8.92637 1.61454 9.12898C1.60484 9.16169 1.59221 9.19863 1.57866 9.23779C1.56113 9.28848 1.43621 9.95106 1.43621 9.95106C1.43621 9.95106 0.835507 8.67508 0.560821 8.31207C0.451096 8.167 0.331698 8.04424 0.204691 7.94563C0.214281 8.02001 0.22031 8.09346 0.22618 8.16499L0.226995 8.17491C0.233735 8.2591 0.24016 8.3386 0.251521 8.41659C0.285733 8.65354 0.333424 8.9041 0.448971 9.13147C0.650007 9.52684 1.02738 9.95643 1.41723 10.0248L1.42034 10.0254ZM2.10393 12.2465C2.05863 12.2417 2.01335 12.2353 1.9688 12.2275C1.51312 12.1476 1.08862 11.9079 0.773594 11.5528C0.603004 11.3604 0.472331 11.1319 0.385312 10.8735C0.352158 10.7751 0.324674 10.6717 0.295595 10.5621L0.294014 10.5562C0.26824 10.4593 0.242098 10.361 0.211086 10.2635C0.385397 10.3597 0.564303 10.4846 0.731795 10.6287C0.870233 10.7478 0.986683 10.8936 1.10994 11.0479L1.14748 11.0948C1.19872 11.1588 1.25209 11.2222 1.30565 11.2858L1.30747 11.2881L1.30908 11.2899C1.40042 11.3985 1.49474 11.5107 1.57532 11.6229L2.02458 12.1008L1.95984 11.4655C1.83666 10.8708 2.16022 10.3061 2.58045 9.941C2.57014 10.075 2.56207 10.2114 2.56078 10.3494C2.55999 10.4298 2.56381 10.5108 2.56748 10.5891L2.56757 10.5909C2.57454 10.7369 2.58103 10.8749 2.55948 10.9986L2.554 11.0302L2.55398 11.0303C2.47922 11.4603 2.39506 11.9444 2.10393 12.2465ZM2.53084 14.1821C2.88321 14.244 3.23476 14.2136 3.55039 14.0944C3.55293 14.0814 3.55621 14.0671 3.56073 14.0521C3.59414 13.9416 3.63213 13.7979 3.62898 13.667C3.62127 13.3477 3.60635 13.0098 3.51808 12.6992C3.50278 12.6454 3.48843 12.5906 3.47403 12.5355L3.47363 12.5341L3.47341 12.5331C3.44238 12.4145 3.41309 12.3024 3.37378 12.1985C3.35396 12.1462 3.32974 12.0927 3.3041 12.0362L3.30362 12.035C3.25707 11.9325 3.20892 11.8264 3.17883 11.7089C3.17807 11.706 3.17731 11.7031 3.17656 11.7001C3.17588 11.6972 3.17518 11.6945 3.17449 11.6917C3.08604 11.8926 3.04166 12.128 3.03063 12.3231C3.01747 12.5588 3.03273 12.773 3.0773 12.9785C3.09285 13.05 3.11919 13.1249 3.14717 13.2043C3.1902 13.3266 3.3992 14.0069 3.3992 14.0069L2.93452 13.794C2.87998 13.7645 2.82552 13.7358 2.77133 13.7074C2.57569 13.6046 2.3734 13.4984 2.18131 13.3539C1.96038 13.1877 1.76012 13.0403 1.54568 12.92C1.31007 12.7882 1.08179 12.6939 0.865031 12.639C0.968284 12.7856 1.05539 12.9395 1.14084 13.0906C1.32613 13.4181 1.50118 13.7275 1.81777 13.9171C2.03706 14.0483 2.27704 14.1376 2.53084 14.1821ZM5.30345 15.4262C4.91732 15.6966 4.29482 15.7393 3.83397 15.6584C3.81109 15.6544 3.78864 15.6502 3.76647 15.6455C3.51539 15.5929 3.28505 15.4534 3.04127 15.3056L3.03385 15.3011C2.98232 15.2699 2.93102 15.2388 2.87981 15.2089C2.86479 15.2002 2.79848 15.1563 2.73338 15.1133L2.72986 15.111C2.59958 15.0249 2.47301 14.9417 2.35986 14.8697C2.60973 14.8166 2.88525 14.8014 3.14195 14.8273L3.1714 14.8304C3.30789 14.844 3.44911 14.8582 3.587 14.8824C3.71703 14.9052 3.82166 14.9332 3.9069 14.9679C4.05416 15.0279 4.20318 15.0627 4.34734 15.0963C4.4676 15.1244 4.58111 15.151 4.68643 15.1902L5.28995 15.4148L4.94085 14.8848C4.91732 14.8492 4.89473 14.8083 4.87078 14.7651L4.86984 14.7634C4.8375 14.7049 4.80401 14.6444 4.76426 14.5894L4.70257 14.5047L4.7024 14.5045C4.56562 14.3172 4.43646 14.1402 4.34608 13.9406C4.22746 13.6788 4.22309 13.3925 4.33239 13.0861C4.40809 13.199 4.49802 13.2986 4.57865 13.3878L4.57925 13.3885C4.61115 13.4239 4.64257 13.4586 4.6722 13.4932L4.71086 13.5383L4.71141 13.5389C4.91528 13.7766 5.12608 14.0226 5.27651 14.2846C5.385 14.4734 5.44555 14.6526 5.46699 14.8484C5.48365 15.0007 5.43782 15.1065 5.3744 15.2529L5.37427 15.2532L5.37394 15.254C5.35055 15.308 5.32648 15.3636 5.30345 15.4262Z" fill="#CD9F49"/>
</svg>
