<svg width="6" height="16" viewBox="0 0 6 16" fill="none" xmlns="http://www.w3.org/2000/svg">
<path fill-rule="evenodd" clip-rule="evenodd" d="M1.35083 1.30905C1.50139 1.60192 1.62562 1.82838 1.77968 2.0524L2.03525 2.42385C2.07084 2.09782 1.99888 1.81597 1.80778 1.5119C1.67768 1.30489 1.46803 1.15058 1.24117 0.993171C1.26608 1.10327 1.29935 1.20895 1.35083 1.30905ZM1.51686 2.57561C1.61813 2.58296 1.7161 2.5691 1.79869 2.5546C1.83339 2.54851 1.86796 2.54181 1.90264 2.53509L1.90295 2.53504L1.45591 2.33388L1.45543 2.33366C1.27054 2.25012 1.09593 2.17121 0.911752 2.12919C0.753388 2.09307 0.543859 2.09606 0.305819 2.13784L0.304864 2.138C0.338708 2.15713 0.372649 2.17688 0.405254 2.19734C0.560405 2.29467 0.747503 2.37379 0.928323 2.45027L0.928498 2.45035L0.939009 2.45478C1.08855 2.51804 1.28296 2.55866 1.51686 2.57561ZM2.91118 3.97825C2.96723 3.98251 3.02527 3.98689 3.06486 3.97994C3.0686 3.97928 3.07179 3.97857 3.07444 3.97789C3.25904 3.6889 3.2957 3.36122 3.19384 2.9229C3.13963 2.68954 3.01345 2.48543 2.87986 2.26938L2.87442 2.26057C2.85275 2.22547 2.83092 2.19011 2.80925 2.15437C2.7767 2.3277 2.76018 2.50197 2.76049 2.6719C2.76094 2.92773 2.80331 3.17963 2.87664 3.36315L3.04088 3.91982C3.04088 3.91982 2.34778 3.47505 1.96888 3.31266C1.77504 3.22951 1.54715 3.23531 1.36121 3.25908L1.36589 3.26372C1.3703 3.26809 1.37478 3.27252 1.37931 3.27706L1.38971 3.28749C1.40336 3.30117 1.41499 3.31281 1.42334 3.31995L1.51245 3.39519L1.51345 3.39604C1.57314 3.44654 1.63282 3.49701 1.69355 3.5466C1.86033 3.68273 2.04875 3.7941 2.25356 3.87755C2.43865 3.95293 2.66623 3.96799 2.82133 3.9728C2.84974 3.97367 2.87996 3.97592 2.91118 3.97825ZM3.97983 5.80165C3.83763 5.80903 3.58301 5.74612 3.14041 5.44982C2.85371 5.25799 2.63873 5.00049 2.41817 4.72513C2.65041 4.75963 2.87947 4.82852 3.09404 4.92956C3.25365 5.00467 3.97455 5.73841 3.97455 5.73841C3.97455 5.73841 3.93064 4.62532 4.00739 4.24004C4.04904 4.03061 4.09973 3.8439 4.15894 3.68158C4.20151 3.78699 4.23816 3.89275 4.2695 3.98337C4.34766 4.20925 4.38628 4.41632 4.38757 4.61627C4.38874 4.80432 4.37932 5.08008 4.2843 5.30243C4.21171 5.47212 4.11495 5.60964 4.00287 5.76885L3.99509 5.77993C3.99001 5.78714 3.98491 5.79438 3.97983 5.80165ZM3.51909 7.15635C3.76209 7.43786 4.04452 7.65339 4.40485 7.83166C4.43958 7.8066 4.47421 7.78331 4.50834 7.76035L4.51174 7.75806C4.59733 7.70055 4.6782 7.6462 4.74033 7.57698C4.88472 7.41612 4.99642 7.22536 5.09181 6.97694C5.2244 6.63179 5.19964 6.27119 5.16138 5.89122C5.13079 5.93089 5.10213 5.96944 5.07649 6.00724C5.00993 6.10568 4.96082 6.23636 4.9133 6.36282L4.90436 6.3865C4.88287 6.44376 4.86021 6.50152 4.83738 6.55972L4.83329 6.57012C4.74186 6.80302 4.40441 7.70681 4.40441 7.70681L4.19939 7.32001C4.11958 7.1046 3.92352 6.87781 3.76462 6.74854C3.56476 6.58591 3.29122 6.46498 3.03479 6.37846C3.17815 6.66067 3.32069 6.92644 3.51909 7.15635ZM4.40052 10.0254L4.32755 10.0065C4.04302 9.77865 3.84102 9.39643 3.70986 9.11747C3.61119 8.90784 3.55086 8.69566 3.4855 8.42109C3.45742 8.30316 3.42372 8.18727 3.39098 8.075C3.47968 8.13153 3.55503 8.18781 3.59393 8.21688C3.74486 8.32951 3.86938 8.46234 3.99789 8.64783C4.07247 8.75549 4.14653 8.92637 4.20632 9.12898C4.21603 9.16169 4.22865 9.19863 4.2422 9.23779C4.25973 9.28848 4.38465 9.95106 4.38465 9.95106C4.38465 9.95106 4.98536 8.67508 5.26004 8.31207C5.36977 8.167 5.48916 8.04424 5.61617 7.94563C5.60658 8.02001 5.60055 8.09346 5.59468 8.16499L5.59387 8.17491C5.58713 8.2591 5.5807 8.3386 5.56934 8.41659C5.53513 8.65354 5.48744 8.9041 5.37189 9.13147C5.17085 9.52684 4.79348 9.95643 4.40363 10.0248L4.40052 10.0254ZM3.71694 12.2465C3.76223 12.2417 3.80751 12.2353 3.85206 12.2275C4.30774 12.1476 4.73224 11.9079 5.04727 11.5528C5.21786 11.3604 5.34853 11.1319 5.43555 10.8735C5.4687 10.7751 5.49619 10.6717 5.52527 10.5621L5.52685 10.5562C5.55262 10.4593 5.57876 10.361 5.60978 10.2635C5.43546 10.3597 5.25656 10.4846 5.08907 10.6287C4.95063 10.7478 4.83418 10.8936 4.71093 11.0479L4.67339 11.0948C4.62214 11.1588 4.56877 11.2222 4.51521 11.2858L4.51339 11.2881L4.51178 11.2899C4.42044 11.3985 4.32612 11.5107 4.24554 11.6229L3.79628 12.1008L3.86102 11.4655C3.9842 10.8708 3.66064 10.3061 3.24041 9.941C3.25072 10.075 3.25879 10.2114 3.26009 10.3494C3.26087 10.4298 3.25705 10.5108 3.25338 10.5891L3.25329 10.5909C3.24632 10.7369 3.23983 10.8749 3.26138 10.9986L3.26686 11.0302L3.26688 11.0303C3.34164 11.4603 3.4258 11.9444 3.71694 12.2465ZM3.29002 14.1821C2.93765 14.244 2.5861 14.2136 2.27048 14.0944C2.26793 14.0814 2.26466 14.0671 2.26013 14.0521C2.22673 13.9416 2.18873 13.7979 2.19188 13.667C2.19959 13.3477 2.21451 13.0098 2.30278 12.6992C2.31808 12.6454 2.33243 12.5906 2.34683 12.5355L2.34723 12.5341L2.34746 12.5331C2.37848 12.4145 2.40777 12.3024 2.44709 12.1985C2.4669 12.1462 2.49112 12.0927 2.51677 12.0362L2.51724 12.035C2.56379 11.9325 2.61195 11.8264 2.64203 11.7089C2.64279 11.706 2.64356 11.7031 2.6443 11.7001C2.64499 11.6972 2.64568 11.6945 2.64638 11.6917C2.73483 11.8926 2.7792 12.128 2.79023 12.3231C2.80339 12.5588 2.78813 12.773 2.74356 12.9785C2.72802 13.05 2.70167 13.1249 2.67369 13.2043C2.63066 13.3266 2.42166 14.0069 2.42166 14.0069L2.88634 13.794C2.94088 13.7645 2.99534 13.7358 3.04953 13.7074C3.24518 13.6046 3.44746 13.4984 3.63955 13.3539C3.86048 13.1877 4.06075 13.0403 4.27518 12.92C4.51079 12.7882 4.73907 12.6939 4.95583 12.639C4.85258 12.7856 4.76548 12.9395 4.68002 13.0906C4.49473 13.4181 4.31968 13.7275 4.00309 13.9171C3.7838 14.0483 3.54382 14.1376 3.29002 14.1821ZM0.517415 15.4262C0.903546 15.6966 1.52604 15.7393 1.98689 15.6584C2.00977 15.6544 2.03222 15.6502 2.05439 15.6455C2.30547 15.5929 2.53581 15.4534 2.77959 15.3056L2.78701 15.3011C2.83855 15.2699 2.88984 15.2388 2.94105 15.2089C2.95607 15.2002 3.02238 15.1563 3.08748 15.1133L3.091 15.111C3.22128 15.0249 3.34785 14.9417 3.461 14.8697C3.21113 14.8166 2.93561 14.8014 2.67892 14.8273L2.64946 14.8304C2.51297 14.844 2.37175 14.8582 2.23386 14.8824C2.10383 14.9052 1.9992 14.9332 1.91396 14.9679C1.7667 15.0279 1.61768 15.0627 1.47352 15.0963C1.35326 15.1244 1.23976 15.151 1.13443 15.1902L0.530915 15.4148L0.880016 14.8848C0.903537 14.8492 0.926131 14.8083 0.950087 14.7651L0.951025 14.7634C0.983358 14.7049 1.01685 14.6444 1.0566 14.5894L1.11829 14.5047L1.11846 14.5045C1.25525 14.3172 1.3844 14.1402 1.47478 13.9406C1.5934 13.6788 1.59778 13.3925 1.48847 13.0861C1.41277 13.199 1.32284 13.2986 1.24221 13.3878L1.24161 13.3885C1.20971 13.4239 1.17829 13.4586 1.14866 13.4932L1.11 13.5383L1.10945 13.5389C0.905579 13.7766 0.694783 14.0226 0.544355 14.2846C0.435859 14.4734 0.375314 14.6526 0.353874 14.8484C0.337213 15.0007 0.383037 15.1065 0.446457 15.2529L0.446594 15.2532L0.446917 15.254C0.47031 15.308 0.494379 15.3636 0.517415 15.4262Z" fill="#CD9F49"/>
</svg>
