<svg width="20" height="20" viewBox="0 0 20 20" fill="none" xmlns="http://www.w3.org/2000/svg">
<path d="M1.8584 3.25079H6.74358C7.60733 3.25079 8.43571 3.60027 9.04647 4.22235C9.65724 4.84442 10.0004 5.68814 10.0004 6.56789V18.1777C10.0004 17.5179 9.74302 16.8851 9.28495 16.4186C8.82687 15.952 8.20559 15.6899 7.55777 15.6899H1.8584V3.25079Z" fill="#275DF5" stroke="#275DF5" stroke-width="1.44444" stroke-linecap="round" stroke-linejoin="round"/>
<path d="M18.142 3.25079H13.2568C12.393 3.25079 11.5647 3.60027 10.9539 4.22235C10.3431 4.84442 10 5.68814 10 6.56789V18.1777C10 17.5179 10.2573 16.8851 10.7154 16.4186C11.1735 15.952 11.7948 15.6899 12.4426 15.6899H18.142V3.25079Z" fill="#275DF5" stroke="#275DF5" stroke-width="1.44444" stroke-linecap="round" stroke-linejoin="round"/>
<path d="M10 3L10 14" stroke="white" stroke-linecap="round"/>
</svg>
