<svg width="18" height="18" viewBox="0 0 18 18" fill="none" xmlns="http://www.w3.org/2000/svg">
<rect width="18" height="18" fill="white"/>
<path d="M14.5 5.77783H3.38889C2.62183 5.77783 2 6.39966 2 7.16672V14.1111C2 14.8782 2.62183 15.5 3.38889 15.5H14.5C15.267 15.5 15.8889 14.8782 15.8889 14.1111V7.16672C15.8889 6.39966 15.267 5.77783 14.5 5.77783Z" stroke="#717B9E" stroke-width="1.3" stroke-linecap="round" stroke-linejoin="round"/>
<path d="M11.7223 15.5V4.38889C11.7223 4.02053 11.576 3.66726 11.3155 3.4068C11.055 3.14633 10.7018 3 10.3334 3H7.55563C7.18728 3 6.83401 3.14633 6.57354 3.4068C6.31308 3.66726 6.16675 4.02053 6.16675 4.38889V15.5" stroke="#717B9E" stroke-width="1.3" stroke-linecap="round" stroke-linejoin="round"/>
</svg>
