
<svg width="14" height="14" viewBox="0 0 14 14" fill="none" xmlns="http://www.w3.org/2000/svg">
<rect x="1.4118" y="4.27539" width="11.1765" height="7.51443" rx="0.960931" stroke="#717B9E" stroke-width="1.3" stroke-linecap="round" stroke-linejoin="round"/>
<path fill-rule="evenodd" clip-rule="evenodd" d="M1.4118 5.23632C1.4118 4.70561 1.84203 4.27539 2.37273 4.27539H11.6274C12.1581 4.27539 12.5883 4.70561 12.5883 5.23632V5.99034C12.5883 6.4244 12.2978 6.80292 11.8734 6.89387C10.9141 7.09944 9.10467 7.42047 7.15973 7.42047C5.1821 7.42047 3.192 7.08856 2.15166 6.8836C1.71591 6.79776 1.4118 6.41282 1.4118 5.9687V5.23632Z" stroke="#717B9E" stroke-width="1.3" stroke-linecap="round" stroke-linejoin="round"/>
<path d="M9.23495 4.48935V3.17187C9.23495 2.64116 8.80473 2.21094 8.27402 2.21094L5.72527 2.21094C5.19457 2.21094 4.76434 2.64116 4.76434 3.17187V4.48935" stroke="#717B9E" stroke-width="1.3" stroke-linejoin="round"/>
</svg>
