<svg width="14" height="14" viewBox="0 0 14 14" fill="none" xmlns="http://www.w3.org/2000/svg">
<rect x="1.41162" y="4.27539" width="11.1765" height="7.51443" rx="0.960931" stroke="#121224" stroke-width="1.3" stroke-linecap="round" stroke-linejoin="round"/>
<path fill-rule="evenodd" clip-rule="evenodd" d="M1.41162 5.23632C1.41162 4.70561 1.84184 4.27539 2.37255 4.27539H11.6272C12.1579 4.27539 12.5881 4.70561 12.5881 5.23632V5.99034C12.5881 6.4244 12.2976 6.80292 11.8732 6.89387C10.9139 7.09944 9.10449 7.42047 7.15955 7.42047C5.18192 7.42047 3.19182 7.08856 2.15147 6.8836C1.71573 6.79776 1.41162 6.41282 1.41162 5.9687V5.23632Z" stroke="#121224" stroke-width="1.3" stroke-linecap="round" stroke-linejoin="round"/>
<path d="M9.23477 4.48935V3.17187C9.23477 2.64116 8.80455 2.21094 8.27384 2.21094L5.72509 2.21094C5.19438 2.21094 4.76416 2.64116 4.76416 3.17187V4.48935" stroke="#121224" stroke-width="1.3" stroke-linejoin="round"/>
</svg>
