<svg width="16" height="16" viewBox="0 0 16 16" fill="none" xmlns="http://www.w3.org/2000/svg">
<g opacity="0.6">
<path d="M13.4904 5.05879H2.50993C1.75188 5.05879 1.13737 5.62314 1.13737 6.31931V12.6219C1.13737 13.318 1.75188 13.8824 2.50993 13.8824H13.4904C14.2484 13.8824 14.863 13.318 14.863 12.6219V6.31931C14.863 5.62314 14.2484 5.05879 13.4904 5.05879Z" stroke="#979EC2" stroke-linecap="round" stroke-linejoin="round"/>
<path d="M10.9414 13.8824V3.4248C10.9414 3.07811 10.7864 2.74562 10.5106 2.50047C10.2348 2.25532 9.86078 2.1176 9.47076 2.1176H6.52956C6.13953 2.1176 5.76548 2.25532 5.48969 2.50047C5.2139 2.74562 5.05896 3.07811 5.05896 3.4248V13.8824" stroke="#979EC2" stroke-linecap="round" stroke-linejoin="round"/>
</g>
</svg>
