<svg width="24" height="24" viewBox="0 0 24 24" fill="none" xmlns="http://www.w3.org/2000/svg">
<rect width="24" height="24" rx="12" fill="white"/>
<path d="M14.7727 6.76983C14.2717 6.36371 13.6851 6.07296 13.0557 5.91877C12.4262 5.76458 11.7698 5.75085 11.1342 5.87859C10.288 6.04708 9.51159 6.45954 8.90356 7.06366C8.29553 7.66777 7.88325 8.43631 7.71905 9.27175C7.59913 9.89815 7.62092 10.5429 7.78286 11.1601C7.9448 11.7772 8.2429 12.3515 8.6559 12.8421C9.03919 13.2684 9.25889 13.8136 9.27684 14.383V15.9936C9.27684 16.4208 9.449 16.8305 9.75544 17.1326C10.0619 17.4346 10.4775 17.6043 10.9109 17.6043H13.0896C13.523 17.6043 13.9386 17.4346 14.2451 17.1326C14.5515 16.8305 14.7237 16.4208 14.7237 15.9936V14.485C14.742 13.8564 14.9763 13.2525 15.3882 12.7723C16.11 11.8922 16.4502 10.7669 16.3349 9.64093C16.2197 8.51496 15.6583 7.47932 14.7727 6.75909V6.76983ZM13.8418 15.9936C13.8418 16.136 13.7844 16.2726 13.6822 16.3733C13.5801 16.474 13.4415 16.5305 13.2971 16.5305H10.7738C10.6294 16.5305 10.4908 16.474 10.3887 16.3733C10.2865 16.2726 10.2291 16.136 10.2291 15.9936V15.4567H13.8418V15.9936ZM14.6953 12.08C14.1476 12.7203 13.9304 13.5465 13.888 14.383H12.5449V12.7723C12.5449 12.6299 12.4876 12.4933 12.3854 12.3926C12.2833 12.292 12.1447 12.2354 12.0003 12.2354C11.8558 12.2354 11.7173 12.292 11.6151 12.3926C11.513 12.4933 11.4556 12.6299 11.4556 12.7723V14.383H10.0856C10.0712 13.5605 9.85939 12.7695 9.31092 12.1495C8.94906 11.7221 8.70572 11.2096 8.60464 10.6619C8.50355 10.1143 8.54817 9.55013 8.73415 9.02452C8.92012 8.49891 9.24111 8.02978 9.6658 7.66286C10.0905 7.29593 10.5812 6.96045 11.1342 6.8476C11.6095 6.75114 12.4358 6.73366 12.907 6.8476C13.3783 6.96154 13.8411 7.26079 14.2171 7.56308C14.5932 7.86536 14.8962 8.24639 15.1042 8.67851C15.3122 9.11062 15.42 9.58297 15.4198 10.0613C15.4238 10.7967 15.1676 11.5106 14.6953 12.08Z" fill="#FDAA29"/>
</svg>
