<svg width="13" height="13" viewBox="0 0 13 13" fill="none" xmlns="http://www.w3.org/2000/svg">
<rect x="0.709961" y="0.709747" width="10.7585" height="10.7585" rx="1.7077" stroke="#979EC2" stroke-width="1.3"/>
<path d="M6.09644 2.33217C6.14252 2.25281 6.25713 2.25281 6.3032 2.33217L6.75189 3.10505C6.7688 3.13418 6.79721 3.15482 6.83014 3.1619L7.70384 3.3498C7.79356 3.36909 7.82898 3.4781 7.76774 3.54644L7.17134 4.212C7.14886 4.23708 7.13801 4.27048 7.14145 4.30398L7.23274 5.19299C7.24211 5.28428 7.14939 5.35164 7.06547 5.31452L6.24818 4.95298C6.21738 4.93936 6.18226 4.93936 6.15146 4.95298L5.33418 5.31452C5.25026 5.35164 5.15753 5.28428 5.16691 5.19299L5.2582 4.30399C5.26164 4.27048 5.25079 4.23708 5.22831 4.212L4.63191 3.54644C4.57067 3.4781 4.60609 3.36909 4.6958 3.3498L5.56951 3.1619C5.60243 3.15482 5.63085 3.13418 5.64776 3.10505L6.09644 2.33217Z" fill="#979EC2"/>
<rect x="2.37158" y="6.56602" width="7.40004" height="1.13847" rx="0.569233" fill="#979EC2"/>
<rect x="3.6377" y="8.69167" width="5.1231" height="1.13847" rx="0.569233" fill="#979EC2"/>
</svg>
