<svg width="24" height="24" viewBox="0 0 24 24" fill="none" xmlns="http://www.w3.org/2000/svg">
<path fill-rule="evenodd" clip-rule="evenodd" d="M13.5072 1.00238C13.0293 1.00357 12.5511 1.00476 12.073 1.00476C11.676 1.00476 11.2788 1.00444 10.8816 1.00412C9.75572 1.00321 8.62909 1.0023 7.50203 1.00869C7.0914 1.00579 6.68126 1.03735 6.27604 1.10303C4.79262 1.36228 3.44971 2.13038 2.48436 3.27173C1.51902 4.41308 0.993319 5.85429 1.00006 7.34095C1.00006 9.10266 1.00006 10.8652 1.00564 12.6269C0.999608 12.9935 1.02895 13.36 1.09327 13.7212C1.58159 16.166 3.02107 17.8161 5.391 18.662C6.22028 18.9599 7.08301 19.0071 7.95929 18.9764C8.03313 18.9691 8.10756 18.9825 8.17396 19.0152C8.24037 19.0479 8.29603 19.0985 8.33449 19.1612C9.17306 20.29 10.0143 21.4181 10.8582 22.5454C11.4485 23.3339 12.676 23.3567 13.2432 22.5942C13.4899 22.2625 13.738 21.9318 13.986 21.6011C14.5469 20.8532 15.1078 20.1054 15.653 19.3467C15.8569 19.0629 16.0648 18.9552 16.4146 18.9725C17.5115 19.0259 18.5718 18.8404 19.55 18.3341C21.7654 17.1848 23.0169 15.3767 23.1125 12.8973C23.1735 11.3304 23.1548 9.76087 23.136 8.19172V8.19149V8.19126C23.1315 7.8145 23.127 7.43777 23.1236 7.06109C23.1193 5.97245 22.7974 4.90807 22.1964 3.99519C20.9178 2.04402 19.0904 1.03149 16.7276 1.00791C15.6562 0.997025 14.5821 0.999701 13.5072 1.00238ZM12.0846 21.4952C12.1018 21.4738 12.1179 21.454 12.1333 21.4353C12.1636 21.3982 12.1907 21.365 12.2164 21.3309C13.1569 20.0731 14.0969 18.8134 15.0364 17.552C15.0682 17.5001 15.1139 17.458 15.1684 17.4302C15.223 17.4025 15.2843 17.3902 15.3455 17.3947C15.8028 17.4042 16.26 17.3994 16.7173 17.3947C17.6963 17.3947 18.6068 17.1471 19.4162 16.596C20.8501 15.6204 21.5463 14.2447 21.5671 12.5412C21.587 10.7394 21.5822 8.93757 21.5671 7.13655C21.5586 6.2535 21.2755 5.39432 20.7561 4.67519C19.7627 3.27981 18.3933 2.59038 16.675 2.58802C13.6256 2.58278 10.578 2.58278 7.5323 2.58802C7.28706 2.58603 7.04195 2.60021 6.79862 2.63047C5.64209 2.77931 4.58044 3.33978 3.81312 4.20658C3.0458 5.07338 2.62562 6.18685 2.63153 7.3378V12.6434C2.63203 12.866 2.64613 13.0883 2.67375 13.3092C2.93902 15.4443 4.77283 17.1958 6.9452 17.3656C7.44462 17.4043 7.94766 17.4006 8.45016 17.3968H8.45028H8.45043H8.45058C8.57152 17.3959 8.69243 17.395 8.81326 17.3947C8.88047 17.3906 8.94756 17.4046 9.00734 17.4352C9.06712 17.4658 9.11734 17.5118 9.15261 17.5685C9.80478 18.4521 10.4612 19.3325 11.1218 20.2098L11.3969 20.5769C11.624 20.8798 11.8523 21.1843 12.0846 21.4952ZM13.36 10.8241C13.5287 10.5758 13.6191 10.2837 13.6197 9.98471C13.62 9.78535 13.5804 9.58788 13.5032 9.40366C13.426 9.21943 13.3127 9.05207 13.1698 8.91117C13.0268 8.77027 12.8571 8.65862 12.6704 8.58261C12.4836 8.50661 12.2835 8.46775 12.0814 8.46827C11.7785 8.4692 11.4826 8.55867 11.2311 8.72538C10.9796 8.89209 10.7838 9.12857 10.6684 9.40498C10.553 9.6814 10.5231 9.98536 10.5826 10.2785C10.642 10.5717 10.7881 10.8409 11.0024 11.0522C11.2168 11.2635 11.4897 11.4074 11.7868 11.4657C12.084 11.5241 12.392 11.4943 12.6719 11.3801C12.9519 11.2659 13.1914 11.0724 13.36 10.8241ZM6.9373 8.46831C7.24098 8.46584 7.5386 8.55227 7.79252 8.71667C8.04643 8.88108 8.24527 9.11608 8.36387 9.39197C8.48248 9.66787 8.51555 9.97227 8.45888 10.2667C8.40222 10.5611 8.25838 10.8324 8.04553 11.0462C7.83269 11.2599 7.5604 11.4066 7.26309 11.4677C6.96577 11.5288 6.65677 11.5016 6.37515 11.3894C6.09353 11.2773 5.85192 11.0852 5.68088 10.8376C5.50983 10.5899 5.41702 10.2978 5.41417 9.99812C5.41175 9.79881 5.4493 9.60099 5.52465 9.41605C5.60001 9.23111 5.71168 9.06271 5.85324 8.92053C5.9948 8.77834 6.16346 8.66519 6.34951 8.58758C6.53555 8.50997 6.73532 8.46944 6.9373 8.46831ZM18.0812 8.72027C17.8275 8.55443 17.5295 8.46673 17.2252 8.46828C16.8203 8.47056 16.4326 8.63047 16.1465 8.91325C15.8604 9.19603 15.6989 9.57883 15.6973 9.97843C15.6962 10.2788 15.7855 10.5726 15.954 10.8228C16.1224 11.0729 16.3624 11.268 16.6434 11.3834C16.9244 11.4987 17.2338 11.529 17.5323 11.4705C17.8308 11.412 18.105 11.2673 18.32 11.0548C18.5351 10.8423 18.6813 10.5715 18.7401 10.2768C18.7989 9.98213 18.7677 9.67686 18.6504 9.39973C18.533 9.1226 18.335 8.88611 18.0812 8.72027Z" fill="#457EFF"/>
</svg>
