<svg width="32" height="32" viewBox="0 0 32 32" fill="none" xmlns="http://www.w3.org/2000/svg">
<circle cx="16" cy="16" r="16" fill="#F7F7F9"/>
<path d="M23.4169 15.1385C23.5574 15.3505 23.6708 15.5342 23.7565 15.6783C23.6708 15.8225 23.5574 16.0062 23.4169 16.2182C23.0555 16.7634 22.5202 17.4889 21.8248 18.2117C20.4218 19.6701 18.4505 21.0349 16.001 21.0349C13.5516 21.0349 11.5803 19.6701 10.1772 18.2117C9.48187 17.4889 8.94651 16.7634 8.58517 16.2182C8.44467 16.0062 8.33121 15.8225 8.24558 15.6783C8.33121 15.5342 8.44467 15.3505 8.58517 15.1385C8.94651 14.5933 9.48187 13.8678 10.1772 13.145C11.5803 11.6866 13.5516 10.3218 16.001 10.3218C18.4505 10.3218 20.4218 11.6866 21.8248 13.145C22.5202 13.8678 23.0555 14.5933 23.4169 15.1385Z" stroke="#474D6A" stroke-width="1.5" stroke-linecap="round" stroke-linejoin="round"/>
<path d="M16.0011 17.9681C17.2659 17.9681 18.2911 16.9429 18.2911 15.6781C18.2911 14.4134 17.2659 13.3882 16.0011 13.3882C14.7364 13.3882 13.7112 14.4134 13.7112 15.6781C13.7112 16.9429 14.7364 17.9681 16.0011 17.9681Z" stroke="#474D6A" stroke-width="1.5" stroke-linecap="round" stroke-linejoin="round"/>
</svg>
