<svg width="117" height="105" viewBox="0 0 117 105" fill="none" xmlns="http://www.w3.org/2000/svg">
<path d="M51.7845 13.3053C56.0448 10.9171 61.1918 11.8374 65.5759 13.5857C79.3478 19.0787 89.288 31.5923 97.1546 44.6329C99.9968 49.3509 102.701 54.3182 103.731 59.8655C105.831 71.1584 99.9012 83.8864 90.0035 89.3524C86.6362 91.2138 82.9462 92.277 79.2568 93.0749C72.6928 94.5003 65.9056 95.143 59.4231 93.8275C54.8012 92.8864 50.4394 90.9733 46.2606 88.7792C34.5848 82.644 23.9582 74.0959 16.3608 62.9636C13.0285 58.0809 10.2263 52.4525 10.2097 46.3262C10.1931 40.1998 13.6773 33.5913 19.3074 31.8257C21.6358 31.0954 24.0872 31.2285 26.4807 31.3819C30.0022 31.6083 33.5733 31.8642 37.0658 31.1152C40.6735 30.3414 45.3837 28.0958 46.0775 23.9781C46.8241 19.5597 47.5274 15.6946 51.7845 13.3053Z" fill="url(#paint0_linear)"/>
<path d="M59.7109 64.7134C59.7109 63.0926 61.0248 61.7787 62.6456 61.7787C64.2664 61.7787 65.5803 63.0926 65.5803 64.7134V91.9364C65.5803 93.5572 64.2664 94.8711 62.6456 94.8711C61.0248 94.8711 59.7109 93.5572 59.7109 91.9364V64.7134Z" fill="url(#paint1_linear)"/>
<path fill-rule="evenodd" clip-rule="evenodd" d="M39.1533 46.8516C39.1533 40.4075 44.3772 35.1836 50.8213 35.1836C50.8512 35.1836 50.881 35.1837 50.9108 35.1839H74.3976C80.8414 35.1844 86.0648 40.4082 86.0648 46.8519V66.6913H50.2361L50.2362 66.6909H39.1533V46.8516Z" fill="url(#paint2_linear)"/>
<path fill-rule="evenodd" clip-rule="evenodd" d="M57.0253 46.4218L56.6295 46.0944L56.9311 45.9102L57.0253 46.4218ZM79.3499 37.3366L78.2473 37.0706L79.2368 36.0475L79.3499 37.3366ZM77.5877 36.2828L78.6243 36.1293L78.1719 37.1013L77.5877 36.2828ZM80.4713 37.5207L79.7928 38.6871L79.1991 37.5207H80.4713ZM77.0222 36.9376L77.3992 36.9887L77.1542 37.4696L77.0222 36.9376ZM78.8504 37.5924L79.1897 38.5438L78.3981 38.4927L78.8504 37.5924ZM72.3952 37.797L72.7345 38.7485L71.9524 38.6973L72.3952 37.797ZM60.9078 36.7841L61.2848 37.8072L60.4178 37.7663L60.9078 36.7841ZM64.7527 35.4745L66.8447 35.4541L65.6668 36.5795L64.7527 35.4745ZM68.1452 35.4745L70.2373 35.4541L69.0687 36.5795L68.1452 35.4745ZM71.2738 35.4336L72.7534 35.4848L72.0277 36.559L71.2738 35.4336ZM73.6203 35.4745L75.7124 35.4541L74.5439 36.5795L73.6203 35.4745ZM70.388 36.9785L71.3492 36.6306L71.2644 37.5617L70.388 36.9785ZM62.9339 36.2521L63.9045 35.894L63.8198 36.825L62.9339 36.2521ZM66.5903 36.7841L67.5327 36.6102L67.3442 37.4594L66.5903 36.7841ZM66.1474 37.1217L66.0532 36.6715L66.4301 36.7636L66.1474 37.1217ZM76.6501 35.5808L75.5852 35.8059L76.3863 36.6039L76.6501 35.5808ZM73.8607 44.9115L73.8884 45.1219L74.0166 44.9918L74.0369 45.0417L74.3696 44.666L74.5581 45.4436L74.137 45.2868L74.2744 45.6233L74.5172 45.5087V46.0202L74.4036 45.9398L74.4218 45.9842L73.8608 45.9394L73.9361 46.2211L73.2293 46.0574L73.4055 45.9031L73.1402 45.8819L73.5721 45.4433L73.2953 45.2389L73.8607 44.9115ZM71.731 46.6304L72.8336 46.9066L72.7205 45.6175L71.731 46.6304ZM71.5048 45.331L70.4682 45.4947L71.0525 46.3132L71.5048 45.331ZM68.0181 41.1056L66.9815 41.2591L67.5657 42.0776L68.0181 41.1056ZM65.0308 41.7502L64.6293 41.8136L64.572 41.4839L64.2979 41.8659L63.9942 41.9138L64.1285 42.102L63.9407 42.3638L64.3966 42.4776L64.5784 42.7324L64.6649 42.5445L64.7605 42.5684L64.7313 42.4004L65.0308 41.7502ZM73.3236 48.2673L74.0021 47.101L72.7299 47.0908L73.3236 48.2673ZM70.4182 42.2826L69.961 42.1514L69.752 42.538L69.6083 42.0503L69.4193 41.9961L70.324 40.9219L70.4182 42.2826ZM72.1456 38.7525L72.0231 39.4687L72.532 39.1106L72.1456 38.7525ZM69.0735 39.2947L68.9416 40.0109L69.4599 39.663L69.0735 39.2947ZM65.3983 46.2518L65.0324 46.2022L65.0903 45.5661L64.1291 45.9139L65.0055 46.4971L65.0295 46.2335L65.1533 46.7327L65.3983 46.2518ZM67.1888 45.3003L66.8118 45.2492L66.9344 45.7914L67.1888 45.3003ZM71.0996 44.932L70.9112 44.2158L70.5342 44.8502L71.0996 44.932ZM71.3257 42.9472L71.1561 42.231L70.7603 42.8449L71.3257 42.9472ZM72.0608 47.7558L71.731 46.8145L71.2786 47.7046L72.0608 47.7558ZM72.909 43.3564L72.6262 42.1799L71.9666 43.1825L72.909 43.3564ZM67.3237 55.3777L67.418 55.0912L67.0033 55.1526L67.1447 55.3163L66.8996 55.8402L66.1105 56.1258L66.9869 56.7089L67.0616 55.8885L67.6158 55.7051L67.3237 55.3777ZM68.5111 49.2083V48.6968L68.087 48.9014L68.1206 48.9257L67.1848 49.271L68.0706 49.8439L68.1521 48.9486L68.5111 49.2083ZM69.3215 49.3516L69.3404 48.84L68.9069 49.0446L69.3215 49.3516ZM69.0765 51.3773L69.4252 51.9912L69.7362 51.4489L69.0765 51.3773ZM71.8094 57.25L71.1497 57.1783L71.2975 57.4386L71.0212 57.4011L71.1531 57.9331L71.3542 57.5384L71.4984 57.7922L71.8094 57.25ZM65.7971 50.7021L65.1374 50.6305L65.4861 51.2443L65.7971 50.7021ZM70.066 49.7097L69.4064 49.6483L69.7456 50.2621L70.066 49.7097ZM69.7362 58.2731L69.6676 58.2656L69.633 57.7257L69.2119 58.2161L69.0765 58.2014L69.1355 58.3052L69.1147 58.3293L69.1545 58.3387L69.4252 58.8153L69.6339 58.4514L69.6801 58.4623L69.6749 58.3799L69.7362 58.2731ZM68.398 51.8991L68.3038 50.5384L67.3897 51.6024L68.398 51.8991ZM71.6774 49.4437L70.5466 48.8298L70.6236 49.116L70.3802 48.86L70.4745 48.5531L70.0599 48.6145L70.2106 48.7782L69.8997 49.4228L70.6433 49.1893L70.9235 50.2314L71.6774 49.4437ZM73.336 57.3216L72.2051 56.7077L72.3394 57.2069L71.7647 57.4149L72.5299 57.9151L72.5821 58.1094L73.336 57.3216ZM76.1631 55.9301L75.9856 55.9673L76.0434 55.4296L75.6288 55.5115L75.9345 55.978L75.3377 56.1031L75.3465 55.8655L74.913 56.0701L75.2731 56.3366L75.8992 56.9532L76.1631 55.9301ZM52.359 63.9922L52.0103 64.381L52.5004 64.3401L52.359 63.9922ZM50.2481 63.45L49.8994 63.8387L50.3895 63.7978L50.2481 63.45ZM83.2873 45.474L82.3262 46.3948L83.2873 46.8348V45.474ZM80.253 46.579L80.4037 46.7018L80.3943 46.1902L81.0351 46.4357L80.8699 45.7542L81.9713 45.5496L80.7079 44.5208L80.6884 44.4393L80.6607 44.4824L80.5389 44.3832L80.4422 44.8213L80.0288 45.4624L80.2906 45.5079L80.2091 45.877L80.7453 45.7774L80.3943 46.1902L80.3472 45.9037L79.7818 46.2311L80.253 46.579ZM80.253 46.579L79.7158 47.0496L80.4226 47.2133L80.253 46.579ZM57.1273 43.479L57.0802 42.8856L56.7033 43.2641L57.1273 43.479ZM82.3979 47.4828L82.3251 47.2529L81.2142 47.5305L81.7607 46.3027L82.2508 47.1212L82.2844 47.1243L82.1905 46.828L82.8502 46.9303L82.6633 47.1586L82.9292 47.1826L82.59 47.7964L82.4597 47.4073L82.3979 47.4828ZM77.6143 47.2645L78.7169 47.5305L78.6223 46.4601L78.8995 46.7331L79.1633 45.71L78.0891 45.9351L78.405 46.2461L78.1252 46.3014L78.2979 46.5648L77.6143 47.2645ZM66.8903 48.6968L67.4556 48.8298L67.4085 48.0932L66.8903 48.6968ZM81.1199 47.6737L80.3189 47.776L80.7618 48.4206L81.1199 47.6737ZM78.0101 46.3437L76.9736 46.5074L77.5578 47.3258L78.0101 46.3437ZM79.1786 48.9219L79.8572 47.7453H78.585L79.1786 48.9219ZM76.1267 43.0754L76.2668 43.5506L76.5212 43.08L76.2287 43.0504L77.1563 42.8233L76.4872 41.9843L75.903 43.1302L76.1267 43.0754ZM58.2394 41.8318L58.3807 42.3229L58.6257 41.8727L58.2394 41.8318ZM65.7971 44.3384L65.9667 44.8499L66.2023 44.3691L65.7971 44.3384ZM78.6604 39.7651L78.5284 40.4813L79.0373 40.1232L78.6604 39.7651ZM80.2152 38.5067L80.0928 39.2229L80.6016 38.875L80.2152 38.5067ZM81.5157 38.609L81.3932 39.3251L81.9021 38.9773L81.5157 38.609ZM76.7851 47.2235L76.4081 47.1724L76.5401 47.7044L76.7851 47.2235ZM77.4595 45.4381L77.407 45.2387L77.0301 45.873L77.5955 45.9549L77.4979 45.5842L78.3621 45.611L78.0605 44.4548L77.4595 45.4381ZM77.8311 43.97L77.6615 43.2539L77.2657 43.8677L77.8311 43.97ZM78.5661 48.7787L78.2269 47.8374L77.7745 48.7275L77.9188 48.7368L77.5987 48.8879L78.0134 49.1948L78.03 48.744L78.5661 48.7787ZM68.9823 45.873L68.6525 44.9318L68.2001 45.8219L68.9823 45.873ZM72.1109 48.9833L71.7717 48.042L71.3288 48.9321L72.1109 48.9833ZM60.6612 48.0625L60.2843 47.0394L59.7942 48.0215L60.6612 48.0625ZM69.0011 43.1106L68.0305 43.4585L68.9163 44.0417L69.0011 43.1106ZM70.7445 46.8654L69.7833 47.2133L70.6597 47.7862L70.7445 46.8654ZM63.2999 46.1493L62.3292 46.4971L63.215 47.0803L63.2999 46.1493ZM66.1741 38.7113L65.2034 39.0694L66.0892 39.6423L66.1741 38.7113ZM66.9279 46.845L65.9856 47.0189L66.7394 47.7044L66.9279 46.845ZM76.9017 48.86L76.9959 48.5531L76.5718 48.6145L76.7226 48.7782L76.4116 49.4228L77.1938 49.1772L76.9017 48.86ZM82.4616 50.2924L82.5559 50.0059L82.4053 50.0241L82.5638 49.9615L82.735 50.2629L83.0459 49.7105L82.8367 49.691L82.4786 49.2706L82.4014 49.6505L82.3863 49.6491L82.3976 49.669L82.3234 50.034L82.1318 50.0571L82.2825 50.2208L81.9716 50.8653L82.7537 50.6198L82.4616 50.2924ZM77.2786 54.7941L77.3729 54.4871L76.9582 54.5485L77.0995 54.7122L76.798 55.3568L77.5707 55.1112L77.2786 54.7941ZM81.6417 63.4905L81.552 63.5292L81.3834 63.8953L81.999 63.8103L81.8291 64.3485L81.914 64.3709L81.7027 64.7488L81.6598 64.8846L81.6381 64.8642L81.5936 64.9438L81.497 64.7312L81.1603 64.414L81.1416 64.4152L81.045 64.7646L81.4361 65.162L81.7537 65.0779L82.289 64.6419L82.7601 65.8696L81.5526 65.8373L81.537 65.8964L81.4817 65.8354L81.2369 65.8289L81.4056 65.9964L80.1429 66.4875L80.4935 65.5871L80.3949 65.624L80.7906 64.6828L80.5645 64.4577L80.6068 64.4504L80.5384 64.4549L80.6164 64.1839L80.228 64.5021L80.1809 64.2771L79.2102 63.6734L80.0583 63.0186L80.1997 63.7348L80.6564 64.0447L80.7269 63.8001L80.887 63.9638L81.1438 63.9284L81.0013 63.7669L80.8596 63.8281L80.9172 63.6716L80.8578 63.6043L80.9564 63.5654L81.1235 63.1119L80.9538 62.9584L81.3281 62.8681L81.3449 62.8263L81.1229 62.6713L81.4796 62.491L81.5174 62.397L81.5596 62.4505L81.8108 62.3235L81.7332 62.6704L82.0088 63.0193L82.2551 62.8292L81.8197 61.8643L83.1673 62.2224L82.8391 62.7844L82.9109 63.1481L83.2903 63.4055L83.4877 62.868L83.9588 63.441L84.2887 63.308L84.1944 63.7172L84.3452 63.973L82.9316 64.3822L83.1736 63.7234L82.9392 63.9155L82.8921 63.6904L82.1949 63.2568L81.617 63.4659L81.6417 63.4905ZM81.8838 61.061L81.9039 60.968L81.0763 60.462L81.5859 60.0686L81.0001 60.2806L80.8198 60.6722L81.1676 60.5392L81.0262 61.1531L80.4985 60.795L80.6002 60.7561L80.2839 60.3829L80.5007 60.3113L80.9118 59.2668L80.7447 59.5118L80.5345 58.9794L79.7559 58.9291L80.2083 58.039L80.4835 58.8026L81.0934 59.0003L80.956 59.2018L81.067 59.344L81.3485 58.8779L81.4413 59.0644L82.2901 57.6921L82.6765 59.1551L81.472 59.126L81.7254 59.635L81.2251 59.5467L81.6149 60.0463L81.9244 59.8073L82.0591 60.4469L82.3857 60.1341L82.6307 60.8502L82.5317 60.8388L82.5935 60.8815L82.4169 61.0263L82.5529 61.061L82.1288 61.4907L81.6859 61.9306L81.243 60.8871L81.8838 61.061ZM79.8513 59.3469L80.3413 59.7152L80.5298 59.0297L79.8513 59.3469ZM67.7785 54.54L67.9481 55.0515L68.1837 54.5707L67.7785 54.54ZM78.446 63.5433L78.4574 63.573L78.3522 63.6145L78.5114 63.7947L77.4008 63.948L77.2312 63.7843L77.0616 64.4391L77.6741 64.3982L78.1736 64.8688L78.5124 63.7959L78.5665 63.8572L78.6345 64.0344L78.664 63.9676L78.7857 64.1056L79.0684 63.4917L79.6904 63.2666L79.5072 63.0347L79.7902 62.6729L80.2459 62.7146L79.8878 61.6301L79.445 62.4566L79.3582 62.4115L79.3653 62.6054L79.3507 62.6327L79.3663 62.6341L79.3748 62.8669L79.0359 62.4377L79.3987 62.0774L79.8228 61.6477L79.6626 61.6067L79.1914 61.4738L79.1537 61.6477L78.9649 61.5964L79.0296 61.333L78.5961 61.4353L78.6925 61.5225L78.5129 61.4738L78.6713 61.847L78.5113 62.2844L78.8034 62.1583L78.9558 62.5173L78.9755 62.4977L78.5596 63.5326L78.5326 63.5433H78.446ZM81.0553 65.6486L81.2032 65.5279L81.0635 65.3737L80.8566 65.4512L81.0553 65.6486ZM80.5098 50.6726L81.0187 50.3145L80.6417 49.9565L80.5098 50.6726ZM82.1106 49.2111L82.0741 49.4244L82.2429 49.309L82.3015 49.3524L82.3046 49.2668L82.583 49.0766L82.1966 48.7083L82.1611 48.916L81.8868 49.0454L82.1106 49.2111ZM83.4971 48.8106L83.3746 49.5267L83.8834 49.1789L83.8319 49.1297L83.903 48.7867L83.5623 48.8727L83.4971 48.8106ZM79.4882 55.8197L79.5472 56.0438L80.2346 55.9352L79.7823 56.9174L79.2002 56.1019L79.0114 56.0746L79.2371 55.6949L79.1157 55.5096L79.3779 55.4579L79.3884 55.4403L79.3922 55.455L79.5303 55.4278L79.4882 55.8197ZM79.2753 61.1492L79.0397 60.433L79.0137 60.482L78.8988 60.1461L78.5829 60.4487L78.5152 60.1054L78.6326 60.0686L78.4855 59.9551L78.4562 59.8069L78.3748 59.8697L78.2746 59.7923L78.246 59.9692L77.6081 60.4617L78.5787 61.0551L78.6258 61.2904L78.8352 61.1189L79.2753 61.1492ZM79.2008 53.3412L79.5721 53.5652L79.6428 53.4555L79.6849 53.6333L80.0905 53.8779L80.2089 53.709L80.3085 54.0094L80.3881 54.0574L80.3319 54.08L80.3634 54.1751L80.6888 53.6703L80.9716 54.8571L80.8635 54.8384L81.9902 55.7558L80.8359 55.9702L80.9414 57.163L79.8388 56.897L80.7238 55.991L80.2279 56.0832L80.5162 54.778L80.0292 54.6934L80.3363 54.2171L80.0496 54.1936L79.116 54.569L79.2008 53.3412ZM70.9637 56.0848L70.6338 55.1436L70.1815 56.0337L70.9637 56.0848ZM74.0923 59.1951L73.753 58.2538L73.3102 59.1439L74.0923 59.1951ZM63.0667 62.0598L62.7557 60.9548L62.1902 61.937L63.0667 62.0598ZM66.9492 54.2023L66.7607 53.1178L66.1293 53.9977L66.9492 54.2023ZM62.6426 58.2641L62.2656 57.241L61.7756 58.2129L62.6426 58.2641ZM70.3057 53.565L70.0119 53.6703L70.8977 54.2535L70.9825 53.3225L70.824 53.3793L71.0211 52.9513L69.9845 53.115L70.3057 53.565ZM64.2258 55.3277L63.2551 55.6858L64.1409 56.2588L64.2258 55.3277ZM68.4417 57.1533L67.9669 57.241L68.7208 57.9264L68.9093 57.067L68.5791 57.128L68.4293 57.0954L68.4417 57.1533ZM81.8197 52.3198L80.7171 52.6267L81.1577 52.9616L80.7743 53.6885L82.037 53.3816L81.7151 52.9877L81.8197 52.3198ZM85.2876 54.0386L83.5348 55.164L83.8719 55.2867L84.0166 55.7365L84.2708 55.4318L84.7837 55.6185L84.883 55.795L84.0748 56.0849L83.9853 55.9352L83.889 56.1515L83.8276 56.1735L83.8657 56.2039L83.5698 56.8685L83.3847 56.8283L83.4629 57.1086L83.4387 57.163L83.4755 57.1538L83.5731 57.5036L84.1386 56.992L84.1301 56.9902L84.6261 56.8663L84.8145 57.429L85.0656 56.9746L85.2876 57.0762V56.4105L85.3165 56.4498L85.7406 55.396L85.2802 55.4165L85.2876 54.0386ZM84.9396 55.9382L84.9874 56.0031L84.9246 56.0632L84.9396 55.9382ZM84.5667 56.762L84.52 56.7248L84.4345 56.6857L84.4753 56.7537L84.5667 56.762ZM84.0562 64.6101L83.5348 64.9449L84.2083 65.19L84.3935 65.8959L84.6942 65.5854L84.8522 65.8082L85.2192 65.5578L85.2781 65.5792L85.2785 65.5173L85.5119 65.358L85.2798 65.2621L85.2813 64.9789L85.3642 64.8933L85.282 64.8572L85.2876 63.8195L84.3265 64.4366L83.9695 64.2794L84.0562 64.6101ZM68.1366 64.9449L67.8256 65.7327L68.6171 65.4258L68.1366 64.9449ZM66.3649 64.6073L65.988 65.3644L66.8078 65.1598L66.3649 64.6073ZM78.9172 64.3004L78.6062 65.0984L79.4072 64.7915L78.9172 64.3004ZM67.7577 61.061L67.9274 61.6544L67.4562 61.5316L67.7577 61.061ZM69.3786 62.8003L69.5482 63.3937L69.0676 63.2607L69.3786 62.8003ZM65.5149 63.4448L65.6845 64.0587L65.2039 63.9155L65.5149 63.4448ZM55.9405 63.4039L56.1102 63.9973L55.6295 63.8745L55.9405 63.4039ZM72.8842 59.1171L72.3376 58.9841L72.8465 58.3702L72.8842 59.1171ZM67.5975 63.6188L67.5693 62.8412L68.031 63.0765L67.5975 63.6188ZM64.0448 63.9257L64.0166 63.1481L64.4689 63.3834L64.0448 63.9257ZM63.0365 64.826L63.0083 64.0485L63.4606 64.2838L63.0365 64.826ZM85.3234 60.1811L84.8522 61.4089L84.1266 60.3858L85.3234 60.1811ZM82.5434 57.388L83.3444 57.2858L82.9864 58.0326L82.5434 57.388ZM74.4485 59.5468L75.2966 58.8716L75.2995 58.9814L75.7234 58.7813L75.7046 59.2929L75.2998 58.9932L75.3249 59.956L74.4485 59.5468ZM70.8958 59.956L71.7439 59.2808L71.7722 60.3653L70.8958 59.956ZM64.5537 65.2148L65.4018 64.5396L65.4301 65.624L64.5537 65.2148ZM84.7297 60.1197L83.6177 60.3653L83.6898 59.7557L83.2406 59.8221L83.176 59.8802L83.1447 60.4103H83.5542L83.1207 61.4334L83.0006 61.1726L82.9592 61.2627L82.9874 61.8049L82.3466 61.3957L82.6765 61.1297L82.8084 60.9251L82.8838 61.0274L82.9272 61.0131L82.6496 60.4103H82.6644L82.5257 60.3303L83.11 59.9518L83.084 59.8452L83.045 59.8509L83.073 59.8003L82.8273 58.7957L83.4584 59.103L83.6105 58.8278L84.0669 59.4606L84.2585 59.5877L84.1643 58.7181L85.0595 59.0557L84.3339 59.7105L84.7297 60.1197ZM82.0775 57.3543L81.4031 58.5237L80.8094 57.3471H82.0467L81.7161 57.2706L82.2532 56.7999L82.4229 57.4342L82.0775 57.3543ZM82.3946 56.4111L82.404 56.9227L82.2532 56.7999L81.7821 56.4521L82.3475 56.1247L82.3946 56.4111ZM82.3946 56.4111L83.0354 56.6567L82.8469 55.8791L82.3946 56.4111ZM68.0216 58.493L68.1158 58.0838L68.4363 58.3907L68.0216 58.493ZM70.6225 59.7207L70.7168 59.3115L71.0278 59.6184L70.6225 59.7207ZM59.7571 63.7824L59.6346 63.2709L60.0398 63.3221L59.7571 63.7824ZM78.6338 52.9093L79.1727 53.3189L79.3329 52.2958L78.2303 52.6027L78.35 52.6936L78.4913 53.1729L78.6338 52.9093ZM60.6052 51.9145L60.4639 51.4336L60.8502 51.4745L60.6052 51.9145ZM67.4958 65.4963V66.2739L67.4812 66.2663L67.5532 66.4563L66.4035 66.4256L67.124 65.8304L67.4958 65.4963ZM62.1715 63.1023L62.294 63.7161L61.8322 63.5422L62.1715 63.1023ZM60.0323 58.8052L60.1737 59.4191L59.7025 59.2554L60.0323 58.8052ZM59.0899 53.127L59.137 53.7204L58.713 53.5055L59.0899 53.127ZM79.3984 53.3406L79.9921 52.1948L80.6517 53.0132L79.3984 53.3406ZM74.14 55.0901L75.0164 54.2L75.4216 55.1925L74.14 55.0901ZM83.6673 50.3123L84.3835 49.8007L84.5626 50.5476L83.6673 50.3123ZM84.3929 61.3823L84.8641 62.4054H83.6579L84.3929 61.3823ZM84.0523 48.8422L84.4343 49.3813L83.9123 49.0845L83.9971 49.77L84.2452 49.6005L84.5356 49.9282L84.7422 50.928L85.0599 50.5199L85.2868 50.7759V50.2284L85.4113 50.0685L85.2868 50.0358V48.7297L85.0984 48.832L85.0229 48.7706L84.0523 48.8422ZM84.5235 49.5072L84.4772 49.4419L84.4123 49.4862L84.5235 49.5072ZM63.5478 66.0783L63.0578 65.976L63.4253 65.5667L63.5478 66.0783ZM68.712 61.2186L68.401 60.0931L69.3717 60.267L68.712 61.2186ZM69.824 65.7611L70.7004 65.0654L70.8606 66.109L69.824 65.7611ZM66.3938 63.3466L67.2419 62.61L67.4492 63.6535L66.3938 63.3466ZM52.0699 66.4057L52.8237 65.9351L53.2949 66.4261L52.0699 66.4057ZM85.0431 50.9056L86.0515 51.1717L85.2868 52.1007V53.1849L85.7688 53.4839L85.4295 53.709L84.996 53.9136L85.0338 53.709L84.6474 54.1284L84.4401 53.3406L85.062 53.6067L85.1152 53.3755L84.1744 52.5954L83.2062 52.8821L83.3287 51.8589L83.7099 52.1158L84.0429 51.6442L84.2453 52.4228L84.5235 52.2389L85.0229 51.8706L85.0984 51.932L85.2143 51.8753L85.1718 51.6342L84.7874 51.4703L85.0905 51.1741L85.0431 50.9056ZM85.4295 53.709L86.0703 53.8726L85.4766 54.3535L85.4295 53.709ZM84.2052 52.4493L84.2263 52.4353L84.1531 52.4143L84.2052 52.4493ZM83.3268 52.9128L82.6483 53.363L82.684 53.3871L82.6025 54.5673L82.9438 54.4301L83.2985 54.6725L83.39 54.2506L83.4365 54.2319L83.404 54.5907L84.026 54.4372L83.6677 54.139L83.8747 54.0557L83.1644 53.6273L83.3268 52.9128ZM65.5915 52.8924L65.3654 53.3528L65.8082 53.1788L65.5915 52.8924ZM79.5573 49.9867L79.4189 49.9747L79.5509 49.7401L79.6629 49.823L79.6817 49.3114L79.2482 49.5161L79.5007 49.7029L78.9087 49.6479L79.2573 50.2617L79.3004 50.1851L79.416 50.3141L79.5573 49.9867ZM65.959 49.199L65.7423 49.6593L66.1758 49.4854L65.959 49.199ZM61.464 53.9564L61.2378 54.4168L61.6807 54.2429L61.464 53.9564ZM57.2516 60.1155L57.0631 60.627L57.506 60.4019L57.2516 60.1155ZM54.6789 61.1079L54.4904 61.6194L54.9334 61.3739L54.6789 61.1079ZM66.5244 61.3841L66.1475 61.3534L66.4019 61.8036L66.5244 61.3841ZM69.0029 62.1617L68.6259 62.1003L68.8615 62.5709L69.0029 62.1617ZM62.8775 58.7854L62.6419 59.164L63.0188 59.1128L62.8775 58.7854ZM61.464 55.1739L61.2284 55.5524L61.6053 55.5115L61.464 55.1739ZM64.5266 49.0353L64.1214 48.9329L64.3099 49.3012L64.5266 49.0353ZM64.178 50.2323L63.8953 50.5801H64.2722L64.178 50.2323ZM79.1857 58.3263L79.9924 58.3328L79.3139 59.4991L78.7202 58.3226L79.0126 58.3249L79.1144 58.1613L79.1857 58.3263ZM80.3112 61.1284L79.8256 60.9928L80.0673 60.4224H79.1626L79.6338 61.4455L79.7523 61.1659L79.9908 61.6911L80.3112 61.1284ZM66.27 50.4881L66.3643 50.2016L65.9402 50.263L66.0909 50.4267L65.7894 51.0712L66.5621 50.8155L66.27 50.4881ZM83.2629 50.6163L83.1686 50.9027L83.4702 51.2301L82.7041 51.4706L82.4051 51.992L82.0565 51.3781L82.7013 51.4481L82.999 50.8311L82.8483 50.6674L83.2629 50.6163ZM73.6026 62.5724L73.1125 62.2041L73.791 61.8767L73.6026 62.5724ZM74.8842 60.9354L75.5627 61.7948L74.9407 62.0301L74.658 62.644L74.2245 62.1324L74.4319 62.0608L74.8842 60.9354ZM86.0144 53.588L85.5055 53.2402L85.9861 52.8412L86.0144 53.588ZM81.5193 48.6976L81.5005 49.2091L81.0858 48.9022L81.5193 48.6976ZM80.511 51.8589L81.1706 51.9306L80.8596 52.4728L80.511 51.8589ZM84.4213 51.9277L84.5815 50.7306L83.7334 50.9864L84.4213 51.9277ZM83.5731 50.1372L83.1585 50.2395L83.4789 50.5465L83.5731 50.1372ZM69.5979 60.9924L69.1739 61.3812L69.7581 61.4323L69.5979 60.9924ZM61.2392 61.6574L60.768 61.995L61.3522 62.1178L61.2392 61.6574ZM78.4281 64.9421L78.315 65.3513L78.7579 65.8015L77.6742 66.2107L78.0511 65.2695L77.8344 65.0444L78.4281 64.9421ZM79.5683 65.2285L80.0395 66.4563L78.1265 66.4051L78.9243 65.754L78.4941 65.279L79.2669 65.0744L79.1317 65.5848L79.5683 65.2285ZM69.2023 65.7094L69.4851 66.4563L68.3259 66.4256L69.2023 65.7094ZM75.7141 65.7094L75.9968 66.4563L74.8377 66.4256L75.7141 65.7094ZM78.8333 58.1077L77.7307 57.8315L78.7202 56.8186L78.8333 58.1077ZM74.5455 60.9213L73.4429 60.6553L74.423 59.6322L74.5455 60.9213ZM78.3056 61.7295L77.7778 61.3714L78.4469 61.1157L78.3056 61.7295ZM76.6753 63.786L76.647 63.0084L77.0993 63.2437L76.6753 63.786ZM76.4585 56.6959L77.4951 56.5322L77.0428 57.5143L76.4585 56.6959ZM72.9718 52.4602L74.0084 52.3067L73.556 53.2787L72.9718 52.4602ZM76.1853 62.6503L75.5067 63.8269L74.913 62.6503H76.1853ZM75.5445 60.3886L75.4786 60.7978L75.9026 60.6648L75.5445 60.3886ZM75.6105 53.2576L75.7613 53.7691L76.0157 53.2985L75.9973 53.2966L77.1654 52.9915L76.4964 52.173L75.927 53.2895L75.6105 53.2576ZM75.9403 63.5398L76.1288 64.0309L76.3361 63.5398H75.9403ZM72.2651 62.0562L72.4536 62.5473L72.6609 62.0562H72.2651ZM78.4847 59.4985L79.2386 59.6315L78.8616 58.8744L78.4847 59.4985ZM78.1455 49.9529L78.023 50.6691L78.5318 50.311L78.1455 49.9529ZM75.0734 50.4952L74.9414 51.2114L75.4597 50.8635L75.0734 50.4952ZM73.1886 56.511L72.8117 56.4599L72.9342 56.9919L73.1886 56.511ZM77.0994 56.1427L76.911 55.4265L76.534 56.0609L77.0994 56.1427ZM76.7979 61.1355L76.5529 60.4193L76.2042 61.0945L76.7979 61.1355ZM67.1198 59.9486L66.8748 59.2325L66.5261 59.9077L67.1198 59.9486ZM74.8472 65.678L74.6022 64.9619L74.2535 65.6371L74.8472 65.678ZM77.3162 54.1477L77.1466 53.4315L76.7988 53.9709L76.7125 53.7108L76.3827 54.1815L76.8821 54.2224L76.8281 54.0593L77.3162 54.1477ZM78.2486 59.5221L78.0092 58.9535L77.269 58.9051L77.7214 58.015L78.005 58.8244L78.5878 59.0105L78.2486 59.5221ZM77.3822 61.606L77.7356 62.6228L78.324 62.3254L78.1637 63.0415L77.9081 62.8631L77.8437 63.1627L78.1735 63.4901L77.3913 63.8277L77.6458 63.1115L77.4856 62.958L77.9006 62.8579L77.6461 62.6803L76.8544 62.6086L77.3822 61.606ZM78.6261 53.3905L78.9088 54.567L77.9665 54.3931L78.6261 53.3905ZM76.1194 65.0846L76.4304 64.2865L76.9204 64.7776L76.1194 65.0846ZM75.1205 65.8416L75.4315 65.0436L75.9215 65.5347L75.1205 65.8416ZM71.238 66.3532L71.5396 65.5552L72.0295 66.0463L71.238 66.3532ZM72.6704 64.6548L71.9542 64.2968L72.4065 63.775L72.6704 64.6548ZM75.1959 64.9106L74.4703 64.5525L74.932 64.041L75.1959 64.9106ZM71.6903 65.0641L70.9647 64.706L71.4265 64.1945L71.6903 65.0641ZM76.1289 66.3941L76.9769 65.3915L77.467 66.4043L76.1289 66.3941ZM73.1887 66.4453L74.0368 65.4426L74.5268 66.4453H73.1887ZM63.9347 66.4453L64.8016 65.4426L65.2822 66.4453H63.9347ZM61.0982 66.4453L61.9463 65.4426L62.4457 66.4453H61.0982ZM58.893 66.4453L59.7411 65.4426L60.2406 66.4453H58.893ZM54.643 66.4453L55.1518 65.6779L55.9906 66.4453H54.643ZM77.0612 49.9867L76.59 49.9458L76.9198 50.3141L77.0612 49.9867ZM76.6182 58.1716L76.3827 58.5501L76.7596 58.499L76.6182 58.1716ZM71.2468 60.9851L71.0112 61.3636L71.3881 61.3125L71.2468 60.9851ZM77.8056 61.1386L77.146 60.9544L77.4853 61.7013L77.8056 61.1386ZM76.4486 61.6501L76.524 61.3432L76.0905 61.4455L76.2602 61.599L75.9963 62.2947L76.7879 61.9571L76.4486 61.6501ZM62.219 64.259L62.2944 63.9521L61.8609 64.0544L62.0305 64.2079L61.776 64.9036L62.5582 64.566L62.219 64.259ZM73.6027 63.8293L73.6687 63.5224L73.2446 63.6247L73.4142 63.7884L73.1504 64.4841L73.9325 64.1465L73.6027 63.8293ZM69.4281 64.3409L69.494 64.034L69.07 64.1362L69.2396 64.2999L68.9757 64.9957L69.7579 64.658L69.4281 64.3409ZM72.1232 65.5277L71.8405 65.4663L71.9536 65.9267L72.0949 65.7425L72.7546 65.9881L72.4059 65.1491L72.1232 65.5277ZM71.4164 63.1746L71.4919 62.8676L71.0583 62.9699L71.228 63.1234L70.9735 63.8396L71.7557 63.4917L71.4164 63.1746ZM58.1291 65.7323L58.2045 65.4254L57.771 65.5277L57.9407 65.6811L57.6862 66.3768L58.4684 66.0392L58.1291 65.7323ZM79.7665 50.6163L79.6722 50.9027L79.9738 51.2301L79.2298 51.4637L78.9275 51.9907L78.5788 51.3769L79.2064 51.445L79.5026 50.8311L79.3519 50.6674L79.7665 50.6163ZM76.383 59.3465L76.8731 59.7148L77.0615 59.0293L76.383 59.3465ZM72.8303 61.0551L73.3203 61.4234L73.5088 60.7379L72.8303 61.0551ZM74.3382 51.507L74.7151 51.5582L74.4701 52.0493L74.3382 51.507ZM74.8188 52.6836L75.0544 52.3051L75.1957 52.6325L74.8188 52.6836ZM75.2994 53.8602L74.8093 53.4919L75.4879 53.1747L75.2994 53.8602ZM77.4574 59.1701L78.1359 60.0397L77.5139 60.2648L77.2312 60.8787L76.7977 60.3671L77.0051 60.2955L77.4574 59.1701ZM73.6314 54.0034L73.7445 55.1288L73.1225 54.9344L72.5759 55.2618L72.4817 54.5866L72.689 54.6582L73.6314 54.0034ZM73.9895 64.7563L73.6502 65.8305L73.1414 65.3599L72.5194 65.4008L72.7079 64.746L72.8775 64.8995L73.9895 64.7563ZM77.3726 55.7836L78.0605 54.6582L78.3621 55.8143L77.3726 55.7836ZM75.6198 51.9163L76.3171 50.7909L76.6187 51.947L75.6198 51.9163ZM76.1946 49.2971L76.1758 49.8087L75.7611 49.5018L76.1946 49.2971ZM78.8332 48.8265L78.8144 49.3381L78.3997 49.0312L78.8332 48.8265ZM74.5266 55.712V56.2236L74.0931 55.9166L74.5266 55.712ZM77.0239 51.8549L77.2901 51.8838L76.9391 50.5788L78.0699 51.1927L77.3975 51.8955L77.6835 51.9265L77.3726 52.4688L77.0239 51.8549ZM73.1602 49.8218L73.1791 49.3102L72.7456 49.5148L73.1602 49.8218ZM71.6525 49.9548L71.53 50.671L72.0388 50.3129L71.6525 49.9548ZM70.5593 49.9855L70.0881 49.9445L70.418 50.3129L70.5593 49.9855ZM63.4162 51.7452L62.945 51.7043L63.2748 52.0726L63.4162 51.7452ZM65.3952 53.198L64.924 53.1571L65.2538 53.5254L65.3952 53.198ZM69.3813 52.8911L68.9102 52.8501L69.24 53.2185L69.3813 52.8911ZM73.2451 51.5201L73.3393 51.2337L72.9246 51.295L73.066 51.4587L72.7645 52.1033L73.5372 51.8475L73.2451 51.5201ZM64.0758 49.3716L64.1701 49.0851L63.746 49.1465L63.8968 49.3102L63.5858 49.9445L64.368 49.699L64.0758 49.3716ZM64.839 60.545L64.7448 60.8315L65.0463 61.1589L64.2641 61.4044L64.5751 60.7599L64.4244 60.5962L64.839 60.545ZM80.7864 43.728L80.898 43.5335L81.6501 44.1051L81.5875 44.6283L82.6048 44.3271L82.6028 44.3561L83.875 43.8446L82.8624 43.2338L82.9633 42.4798L82.1152 42.7356L82.663 43.4851L82.6127 44.2132L81.7357 43.6225L81.8193 43.0888L81.0264 43.3095L81.0974 43.1857L80.4378 43.1141L80.7864 43.728ZM85.0048 44.9889L85.2872 44.8076L85.285 45.2086L85.7409 45.1951L85.3168 46.2386L85.2798 46.1883L85.2778 46.5674L84.8576 46.4145L84.8174 46.7502L84.007 46.105L83.5344 45.933L84.6591 45.2109L84.4876 45.1644L84.9117 44.5505L85.0048 44.9889ZM78.3985 44.1324L78.9922 42.9865L79.1754 43.2195L79.1819 43.1248L80.1738 43.7231L80.3681 43.3548L81.0371 44.1733L79.7744 44.4802L80.0422 43.9725L79.0971 44.3525L79.1228 43.9804L79.1102 43.9581L78.3985 44.1324ZM82.6674 41.104L83.3837 40.5924L83.5627 41.3393L82.6674 41.104ZM83.4266 40.2849L83.0067 40.572L82.9218 39.8865L83.1675 40.0262L83.5735 39.9261L83.5061 40.2188L83.5155 40.2241L83.5028 40.2328L83.4792 40.3353L83.4266 40.2849ZM79.3786 45.0123L78.8791 44.9713L79.209 44.5211L79.3786 45.0123ZM67.5237 48.3271L67.4294 47.8872L67.8064 47.969L67.5237 48.3271ZM84.0433 41.7179L85.0516 41.9839L84.26 42.9456L84.0433 41.7179ZM83.8868 44.9762L84.3957 45.324L84.3674 44.5772L83.8868 44.9762ZM83.7926 41.8046L82.8973 41.5692L83.1235 42.664L83.7926 41.8046ZM79.1992 41.2299L79.48 40.6478L79.4671 40.6382L79.4898 40.6275L79.5026 40.601L79.3519 40.4373L79.7665 40.3861L79.7234 40.5173L79.9006 40.4336L79.8834 40.9018L79.9738 41L79.2163 41.2378L78.9086 41.7743L78.56 41.1605L79.1992 41.2299ZM78.0442 41.559L78.063 41.0474L77.6295 41.2521L78.0442 41.559ZM80.6828 41.0884L80.7016 40.5768L80.2681 40.7814L80.6828 41.0884ZM81.4272 41.4465L80.7676 41.3851L81.1163 41.9989L81.4272 41.4465ZM81.7853 46.3369L82.4073 46.1834L81.8419 45.7128L81.7853 46.3369ZM84.1389 46.7809L83.5735 47.2924L83.385 46.6172L84.1389 46.7809ZM78.2306 42.3936L79.3331 42.0866L79.1729 43.1097L78.2306 42.3936ZM75.9877 45.8312L75.6391 45.2992L76.0537 45.2173L75.9877 45.8312ZM76.8924 44.0101L76.3929 43.9691L76.7228 43.519L76.8924 44.0101ZM76.6003 39.7335L77.0715 39.7744L76.9301 40.1018L76.6003 39.7335ZM76.3929 48.3173L76.6285 47.9388L76.7699 48.2662L76.3929 48.3173ZM74.3382 41.3139L74.7151 41.3549L74.4701 41.8459L74.3382 41.3139ZM74.8188 42.4905L75.0544 42.1119L75.1957 42.4393L74.8188 42.4905ZM75.2994 43.6568L74.8093 43.2885L75.4879 42.9714L75.2994 43.6568ZM73.6314 43.8001L73.7445 44.9255L73.1225 44.7209L72.5759 45.0483L72.4817 44.373L72.689 44.4446L73.6314 43.8001ZM75.6198 41.6925L76.3171 40.5671L76.6187 41.7232L75.6198 41.6925ZM78.0322 38.4799L78.0134 38.9915L77.5987 38.6846L78.0322 38.4799ZM76.1946 39.0938L76.1758 39.6053L75.7611 39.2984L76.1946 39.0938ZM78.8332 38.6232L78.8144 39.1347L78.3997 38.8278L78.8332 38.6232ZM75.3371 45.6519L75.3182 46.1635L74.9036 45.8565L75.3371 45.6519ZM77.0145 41.6209L77.6741 41.6925L77.3632 42.2347L77.0145 41.6209ZM78.8898 39.4314L79.5494 39.4928L79.2384 40.0453L78.8898 39.4314ZM73.0663 39.4997L72.4066 39.4383L72.7459 40.0522L73.0663 39.4997ZM72.7364 48.0631L72.0768 47.9915L72.4255 48.6054L72.7364 48.0631ZM74.6777 39.2133L73.5469 38.5994L73.9238 40.0113L74.6777 39.2133ZM76.3363 47.0912L75.2054 46.4773L75.5824 47.879L76.3363 47.0912ZM51.194 44.3185L51.505 43.8889L51.0338 43.9912L51.194 44.3185Z" fill="#FCAE7A" fill-opacity="0.5"/>
<path d="M40.4785 65.5973V47.0833C40.5294 41.3719 45.2008 36.7833 50.9122 36.8342C56.5517 36.8846 61.1109 41.4438 61.1613 47.0833V65.5971H40.4785V65.5973Z" fill="url(#paint3_linear)"/>
<path d="M53.0127 63.5186L40.1196 58.7129C39.9546 58.6545 31.099 55.6891 31.0214 55.5374C30.9438 55.3857 30.9313 55.2127 30.9866 55.0566L35.5503 42.1684C35.6056 42.0123 35.7242 41.8857 35.8799 41.8166C36.0357 41.7475 36.2159 41.7416 36.3809 41.8L57.9933 49.453C58.1583 49.5114 58.2946 49.6294 58.3722 49.7812C58.4498 49.9329 58.4623 50.1058 58.407 50.262L53.8433 63.1502C53.788 63.3063 53.6694 63.4328 53.5136 63.5019C53.3579 63.571 53.1777 63.577 53.0127 63.5186Z" fill="#F0B873"/>
<path d="M52.2119 62.185L30.5995 54.532C30.4345 54.4736 30.2982 54.3555 30.2206 54.2038C30.1431 54.0521 30.1305 53.8791 30.1858 53.723L34.7495 40.8348C34.8048 40.6787 34.9234 40.5521 35.0792 40.483C35.2349 40.4139 35.4151 40.4079 35.5801 40.4664L57.1925 48.1193C57.3575 48.1778 57.4938 48.2958 57.5714 48.4475C57.649 48.5993 57.6615 48.7722 57.6062 48.9284L53.0425 61.8165C52.9872 61.9727 52.8686 62.0992 52.7129 62.1683C52.5571 62.2374 52.3769 62.2434 52.2119 62.185Z" fill="#EAAF67"/>
<path d="M51.748 61.4099L30.1356 53.7569C29.9706 53.6985 29.8343 53.5805 29.7568 53.4287C29.6792 53.277 29.6667 53.1041 29.722 52.9479L34.2857 40.0597C34.341 39.9036 34.4595 39.7771 34.6153 39.708C34.7711 39.6389 34.9513 39.6329 35.1163 39.6913L56.7287 47.3443C56.8937 47.4027 57.03 47.5208 57.1075 47.6725C57.1851 47.8242 57.1976 47.9972 57.1423 48.1533L52.5786 61.0415C52.5233 61.1976 52.4048 61.3242 52.249 61.3933C52.0932 61.4624 51.913 61.4683 51.748 61.4099Z" fill="white"/>
<path d="M40.4277 51.5984L43.6141 52.7267L42.4858 55.9131L39.2994 54.7848L40.4277 51.5984ZM44.6204 53.083L47.8068 54.2113L46.6785 57.3978L43.4921 56.2694L44.6204 53.083ZM48.7021 54.5284L51.8885 55.6567L50.7602 58.8431L47.5738 57.7148L48.7021 54.5284Z" fill="#E3EFF9"/>
<path fill-rule="evenodd" clip-rule="evenodd" d="M44.5621 45.9768L43.6085 45.6178L43.6081 45.6146C43.4431 45.5594 43.3092 45.5184 43.1885 45.4815C42.9609 45.4119 42.7804 45.3566 42.5268 45.247C42.5268 45.247 41.7408 44.9306 42.785 45.1968C42.8727 45.2416 42.9533 45.2717 43.0919 45.3101L43.0687 45.2897C43.1281 45.3164 43.1844 45.3328 43.2392 45.3487C43.2583 45.3542 43.2772 45.3598 43.296 45.3656C43.314 45.3673 43.3064 45.3612 43.2991 45.3552C43.2897 45.3476 43.2809 45.3404 43.3285 45.3512L43.5584 45.4327C43.5544 45.4337 43.5393 45.4295 43.5236 45.4252C43.4999 45.4187 43.475 45.4119 43.486 45.4222C43.4908 45.4225 43.5059 45.4268 43.5238 45.432C43.557 45.4415 43.6 45.4539 43.6057 45.4482L43.6051 45.4598C43.6216 45.4632 43.635 45.4701 43.6501 45.4778C43.6623 45.4841 43.6756 45.4909 43.6925 45.4969C43.7101 45.4986 43.7283 45.4989 43.6855 45.4822C43.704 45.4874 43.7243 45.4927 43.7452 45.4982C43.8167 45.517 43.8959 45.5378 43.9404 45.5618C43.9933 45.5806 43.9959 45.5882 43.9989 45.5969C44.0002 45.6007 44.0016 45.6046 44.0071 45.6098C44.0311 45.6152 44.0673 45.6205 44.0687 45.6164L44.0777 45.6211L44.113 45.6245C44.1881 45.6602 44.2636 45.6816 44.336 45.7021C44.4082 45.7225 44.4772 45.742 44.5395 45.774C44.5304 45.7712 44.5194 45.7672 44.5081 45.7632C44.4768 45.7521 44.4431 45.74 44.4393 45.7476L44.5502 45.7869C44.5041 45.7751 44.4657 45.7676 44.4804 45.782C44.5481 45.8033 44.6122 45.8214 44.6785 45.8402C44.7662 45.8649 44.8577 45.8908 44.9664 45.9267C44.9687 45.9365 45.0048 45.9495 45.0471 45.9646C45.0828 45.9774 45.123 45.9918 45.151 46.0072C45.1438 46.0017 45.1416 45.9994 45.1434 45.9985C45.1155 45.9871 45.1057 45.9805 45.1688 45.9999C45.1678 46.0003 45.1682 46.0009 45.1687 46.0015C45.169 46.0019 45.1694 46.0025 45.1692 46.003L45.1719 46.0036C45.1812 46.0055 45.1912 46.0075 45.1982 46.0072C45.2445 46.0312 45.2368 46.0315 45.2119 46.0243L45.2265 46.0293C45.2591 46.0407 45.2863 46.0502 45.2555 46.0473C45.3179 46.0742 45.3482 46.0762 45.3763 46.078C45.3923 46.079 45.4076 46.08 45.4277 46.0854C45.5359 46.1252 45.5812 46.1413 45.7201 46.1864C45.7317 46.1917 45.7407 46.1972 45.7503 46.203C45.7702 46.2152 45.7926 46.2288 45.8458 46.2457C45.8933 46.231 45.9583 46.2587 46.0408 46.2938C46.0978 46.3181 46.1632 46.346 46.237 46.3659C46.2285 46.3542 46.2478 46.3593 46.2678 46.3646C46.2862 46.3695 46.3053 46.3746 46.3037 46.3667C46.3867 46.4045 46.4647 46.4279 46.5453 46.452C46.6251 46.4759 46.7074 46.5006 46.7992 46.5407L46.7893 46.5387C46.8368 46.5677 46.9682 46.6051 47.0153 46.6096C47.0006 46.6104 47.0156 46.6199 47.0298 46.6289C47.0427 46.637 47.055 46.6448 47.044 46.6455C47.0934 46.6484 47.2476 46.7101 47.2476 46.7101C47.2614 46.7229 47.3033 46.7374 47.3508 46.7538C47.3942 46.7688 47.4422 46.7853 47.4777 46.8037L47.5854 46.8221L47.5454 46.8232C47.5968 46.8414 47.6048 46.8533 47.5812 46.851C47.5968 46.8586 47.6081 46.8612 47.6249 46.8652C47.6334 46.8671 47.6432 46.8694 47.6557 46.8729L47.6361 46.8766C47.7023 46.9046 47.7375 46.8912 47.6829 46.8734C47.7587 46.8843 47.7753 46.8951 47.7924 46.9061C47.808 46.9162 47.824 46.9266 47.8855 46.9375L47.9154 46.9311C47.9808 46.9487 47.9912 46.9589 48.0012 46.9687C48.0116 46.979 48.0217 46.9888 48.0925 47.0062L48.0932 47.0171C48.1015 47.0194 48.1098 47.0219 48.1175 47.0243C48.1433 47.0323 48.1629 47.0383 48.1561 47.0242C48.2723 47.0681 48.4041 47.1251 48.5005 47.1668L48.5276 47.1786C48.5703 47.1912 48.5599 47.1847 48.5471 47.1766C48.536 47.1696 48.523 47.1614 48.542 47.1639C48.6024 47.1739 48.6315 47.1896 48.6665 47.2086C48.6831 47.2176 48.7011 47.2274 48.7244 47.2376L48.7066 47.2191L48.8575 47.2786L48.833 47.2791L48.9353 47.3168C48.9589 47.3194 48.939 47.3109 48.9142 47.3005L48.9141 47.3005C48.9066 47.2973 48.8986 47.2939 48.8913 47.2906C48.9366 47.3085 48.9804 47.3194 49.0237 47.3302C49.0851 47.3455 49.1456 47.3605 49.2075 47.3949L49.1906 47.3996C49.1916 47.3969 49.174 47.3907 49.164 47.3887C49.0901 47.3741 49.1409 47.3939 49.1888 47.4125C49.2165 47.4233 49.2433 47.4337 49.2444 47.4369C49.2614 47.4366 49.2913 47.4461 49.3231 47.4562C49.3599 47.4678 49.3993 47.4803 49.4242 47.4793C49.5288 47.5307 49.626 47.5602 49.7165 47.5877C49.7887 47.6096 49.8566 47.6302 49.9205 47.6596C49.9001 47.6564 49.9138 47.6627 49.9305 47.6704C49.9458 47.6775 49.9636 47.6857 49.9603 47.6889C49.9951 47.7053 50.0078 47.7056 50.021 47.706C50.0326 47.7063 50.0445 47.7067 50.0718 47.7178L50.1212 47.7504C50.198 47.7663 50.218 47.7801 50.2402 47.7954C50.2598 47.8089 50.281 47.8235 50.3445 47.8417C50.3884 47.8478 50.435 47.8677 50.4865 47.8898C50.5425 47.9137 50.6042 47.9402 50.6746 47.954L50.6753 47.9649C50.7298 47.9785 50.7674 47.9957 50.8033 48.0121C50.8347 48.0264 50.8648 48.0402 50.9038 48.0504C50.9122 48.0596 50.9062 48.0589 50.8981 48.058C50.8903 48.0571 50.8805 48.056 50.8795 48.0631C50.9308 48.0749 50.9107 48.0783 50.8987 48.0802C50.8906 48.0816 50.8863 48.0823 50.91 48.0846C50.9696 48.1122 51.0351 48.1209 51.1 48.1295C51.156 48.1369 51.2115 48.1443 51.2625 48.1637C51.3268 48.1771 51.3807 48.2037 51.422 48.2241C51.4608 48.2434 51.4885 48.257 51.5032 48.249L51.6046 48.2849L51.6053 48.2958C51.6322 48.3029 51.6723 48.3175 51.7162 48.3335C51.7837 48.3582 51.8605 48.3862 51.9125 48.3954C51.9112 48.3961 51.9143 48.3983 51.9175 48.4006L51.9206 48.4028C51.957 48.4125 51.9815 48.4215 52.0036 48.4296C52.0338 48.4407 52.0595 48.4501 52.1051 48.4575L52.0942 48.4582C52.1945 48.4762 52.3701 48.5374 52.5378 48.5959L52.5378 48.5959C52.6023 48.6184 52.6656 48.6405 52.7231 48.6596C52.7249 48.6739 52.8206 48.7043 52.9035 48.7306L52.9216 48.7363C52.9072 48.7323 52.9011 48.7339 52.8973 48.7348L52.895 48.7353L52.8941 48.7354C52.9536 48.7484 53.0122 48.7731 53.0713 48.7981C53.1343 48.8247 53.1978 48.8516 53.2638 48.8648L53.2593 48.8647C53.2757 48.8734 53.3071 48.8831 53.3408 48.8934C53.3967 48.9107 53.4585 48.9297 53.4669 48.9489C53.6116 48.9788 53.7382 49.0252 53.935 49.1055L53.9241 49.1062C55.2226 49.7289 53.4492 49.0933 53.4492 49.0933L53.0841 48.964C53.0845 48.9672 53.0487 48.9606 53.0362 48.9531C52.8282 48.8965 52.6154 48.8091 52.4036 48.7221C52.1985 48.6379 51.9944 48.554 51.7967 48.499L51.7579 48.487C51.4714 48.3979 51.0145 48.256 50.7763 48.1483C50.6745 48.1093 50.5801 48.08 50.4873 48.0512C50.3872 48.0201 50.2889 47.9896 50.1851 47.9481L50.1348 47.9181C50.1246 47.9158 50.1169 47.9143 50.11 47.913L50.11 47.913C50.0922 47.9097 50.0798 47.9074 50.0432 47.8933C50.0697 47.8986 50.0482 47.887 50.0323 47.8784L50.0267 47.8753L49.9697 47.8643C49.964 47.8521 49.9253 47.8466 49.8885 47.8413C49.853 47.8362 49.8192 47.8313 49.8176 47.821L49.8008 47.7999C49.5252 47.6834 49.2147 47.5817 48.9011 47.4789C48.6843 47.4079 48.4661 47.3365 48.257 47.2593C48.2126 47.2378 48.1754 47.217 48.1393 47.197C48.0806 47.1643 48.025 47.1334 47.9468 47.1038L47.9411 47.12C47.8947 47.1059 47.8917 47.1008 47.8878 47.0941C47.8841 47.0877 47.8795 47.0799 47.8355 47.0613L47.8626 47.0922L47.6854 47.034L47.7139 47.0396C47.653 47.018 47.5844 46.9968 47.5806 47.0076C47.5794 47.0051 47.5791 47.0031 47.5788 47.0012C47.5776 46.9932 47.5768 46.988 47.5133 46.9655C47.503 46.9861 47.3908 46.9495 47.2821 46.914L47.2806 46.9135C47.2829 46.9124 47.2772 46.9091 47.2719 46.9059C47.2645 46.9015 47.2579 46.8975 47.2745 46.9007C47.1542 46.8748 47.0659 46.8372 46.9785 46.8C46.8903 46.7625 46.803 46.7253 46.6846 46.701L46.6856 46.6983C46.5998 46.6595 46.5365 46.6398 46.4703 46.6192C46.4048 46.5989 46.3365 46.5777 46.2407 46.5362L46.244 46.5526C46.153 46.5173 46.0489 46.4804 45.9446 46.4526L45.9595 46.4534L45.8919 46.4294C45.8788 46.4268 45.859 46.42 45.8357 46.4121C45.806 46.4019 45.7706 46.3898 45.7367 46.3821L45.7403 46.3803C45.703 46.361 45.6574 46.3479 45.6149 46.339L45.575 46.3142C45.5194 46.3016 45.4536 46.2777 45.3891 46.2543C45.3163 46.2279 45.245 46.202 45.1915 46.1936L44.5621 45.9768ZM52.9308 48.7392C52.9274 48.738 52.9243 48.7371 52.9216 48.7363L52.9308 48.7392ZM47.9154 46.9311L47.9124 46.9303L47.9283 46.9283L47.9154 46.9311ZM45.7201 46.1864L45.7154 46.1843L45.7343 46.191L45.7201 46.1864ZM43.6058 45.4449L43.6057 45.4482C43.6065 45.4475 43.6066 45.4464 43.6058 45.4449ZM43.5189 47.0746L43.5485 47.0897C43.5477 47.0879 43.5405 47.0823 43.5189 47.0746ZM51.3993 49.8621C51.402 49.863 51.4047 49.864 51.4065 49.8631C51.402 49.863 51.3993 49.8621 51.3993 49.8621ZM44.6641 47.6607C44.6659 47.6609 44.6679 47.6611 44.6701 47.6619L44.6636 47.6606L44.6641 47.6607ZM44.6601 47.6599C44.6612 47.6603 44.6624 47.6604 44.6636 47.6606L44.6601 47.6599ZM44.0391 47.4439L43.0856 47.0849L43.0791 47.0903C42.9141 47.035 42.7802 46.994 42.6595 46.9571C42.4319 46.8875 42.2514 46.8322 41.9978 46.7226C41.9978 46.7226 41.2118 46.4062 42.256 46.6725C42.3437 46.7172 42.4243 46.7473 42.5629 46.7857L42.5397 46.7653C42.5991 46.792 42.6554 46.8084 42.7102 46.8243L42.7102 46.8243C42.7293 46.8298 42.7482 46.8354 42.767 46.8412C42.785 46.8429 42.7774 46.8368 42.7701 46.8308C42.7607 46.8232 42.7519 46.816 42.7995 46.8269L43.0299 46.9069C43.0259 46.9079 43.0108 46.9038 42.9951 46.8995L42.9951 46.8995C42.9714 46.893 42.9465 46.8862 42.9575 46.8965C42.9623 46.8967 42.9774 46.9011 42.9953 46.9062L42.9953 46.9062C43.0285 46.9158 43.0714 46.9281 43.0772 46.9225L43.0766 46.9341C43.0931 46.9374 43.1065 46.9443 43.1216 46.9521C43.1338 46.9583 43.1471 46.9651 43.1639 46.9711C43.1816 46.9728 43.1998 46.9731 43.157 46.9565C43.1755 46.9616 43.1958 46.967 43.2167 46.9725C43.2882 46.9913 43.3674 47.0121 43.4119 47.0361C43.4648 47.0548 43.4674 47.0624 43.4704 47.0712C43.4717 47.0749 43.4731 47.0789 43.4786 47.0841C43.5025 47.0895 43.5387 47.0947 43.5402 47.0906L43.5492 47.0954L43.5845 47.0987C43.6596 47.1345 43.7351 47.1558 43.8075 47.1763C43.8796 47.1967 43.9487 47.2163 44.011 47.2482C44.0019 47.2454 43.9909 47.2415 43.9796 47.2374C43.9483 47.2263 43.9146 47.2143 43.9108 47.2219L44.0226 47.2584C43.9766 47.2467 43.9381 47.2392 43.9528 47.2535C44.0206 47.2749 44.0847 47.293 44.1509 47.3117C44.2387 47.3365 44.3302 47.3623 44.4389 47.3982C44.4411 47.4081 44.4772 47.421 44.5195 47.4361C44.5553 47.4489 44.5954 47.4633 44.6234 47.4788C44.6163 47.4732 44.614 47.4709 44.6159 47.47C44.588 47.4586 44.5781 47.4521 44.6413 47.4714C44.6394 47.4723 44.6417 47.4746 44.6417 47.4746L44.6444 47.4751L44.6444 47.4751C44.6536 47.477 44.6636 47.479 44.6706 47.4788C44.7169 47.5028 44.7092 47.5031 44.6844 47.4958L44.6989 47.5009C44.7315 47.5123 44.7588 47.5218 44.728 47.5188C44.7903 47.5458 44.8206 47.5477 44.8488 47.5495C44.8648 47.5505 44.8801 47.5515 44.9001 47.557C45.0119 47.5981 45.0566 47.6139 45.2068 47.6625L45.1869 47.6585C45.2008 47.6645 45.2109 47.6707 45.2217 47.6773C45.2417 47.6894 45.2641 47.7031 45.3173 47.7199C45.3648 47.7053 45.4298 47.7329 45.5122 47.7681C45.5693 47.7924 45.6347 47.8203 45.7085 47.8402C45.7 47.8285 45.7193 47.8336 45.7393 47.8389C45.7577 47.8438 45.7768 47.8489 45.7752 47.841C45.8582 47.8788 45.9362 47.9021 46.0168 47.9263C46.0966 47.9502 46.1788 47.9748 46.2707 48.0149L46.2612 48.0116C46.3088 48.0406 46.4402 48.078 46.4873 48.0825C46.4726 48.0833 46.4875 48.0928 46.5017 48.1018C46.5146 48.1099 46.5269 48.1177 46.5159 48.1184C46.5654 48.1213 46.7196 48.183 46.7196 48.183C46.7333 48.1958 46.7753 48.2103 46.8228 48.2267L46.8228 48.2267C46.8661 48.2417 46.9141 48.2582 46.9497 48.2766L47.0574 48.295L47.0174 48.2961C47.0688 48.3143 47.0767 48.3262 47.0532 48.3239C47.0688 48.3315 47.08 48.3341 47.0969 48.3381C47.1053 48.34 47.1152 48.3423 47.1277 48.3458L47.1081 48.3495C47.1743 48.3775 47.2095 48.3641 47.1549 48.3463C47.2306 48.3572 47.2473 48.368 47.2644 48.379C47.28 48.3891 47.296 48.3995 47.3574 48.4104L47.3873 48.404C47.4528 48.4216 47.4631 48.4318 47.4732 48.4416C47.4836 48.4519 47.4936 48.4617 47.5644 48.4791L47.5652 48.49C47.5735 48.4923 47.5817 48.4948 47.5894 48.4972L47.5895 48.4972C47.6153 48.5052 47.6348 48.5112 47.6281 48.4971C47.7443 48.541 47.8761 48.598 47.9724 48.6397L47.9725 48.6397L47.9996 48.6515C48.0422 48.6641 48.0319 48.6576 48.0191 48.6495C48.0079 48.6425 47.9949 48.6343 48.0139 48.6368C48.0744 48.6468 48.1034 48.6625 48.1385 48.6815L48.1385 48.6815C48.1551 48.6905 48.1731 48.7003 48.1964 48.7105L48.1786 48.692L48.3295 48.7515L48.305 48.752L48.4077 48.7884C48.4314 48.7909 48.4114 48.7825 48.3866 48.772L48.3764 48.7677L48.3638 48.7621C48.409 48.7801 48.4528 48.791 48.4961 48.8017C48.5576 48.817 48.618 48.8321 48.6799 48.8665L48.663 48.8712C48.664 48.8685 48.6464 48.8622 48.6365 48.8602C48.5626 48.8456 48.6133 48.8654 48.6612 48.8841C48.6889 48.8949 48.7157 48.9053 48.7168 48.9085C48.7338 48.9082 48.7638 48.9176 48.7956 48.9277C48.8324 48.9394 48.8718 48.9518 48.8966 48.9508C49.0012 49.0023 49.0985 49.0318 49.189 49.0593C49.2611 49.0812 49.329 49.1018 49.3929 49.1311C49.3726 49.1279 49.3862 49.1342 49.403 49.142C49.4182 49.149 49.436 49.1573 49.4327 49.1605C49.4675 49.1768 49.4803 49.1772 49.4935 49.1776C49.505 49.1779 49.517 49.1782 49.5443 49.1893L49.5936 49.222C49.6704 49.2379 49.6904 49.2517 49.7126 49.2669C49.7322 49.2804 49.7535 49.2951 49.817 49.3133C49.8608 49.3193 49.9074 49.3393 49.9589 49.3613C50.0149 49.3853 50.0767 49.4118 50.1471 49.4256L50.1478 49.4365C50.2022 49.4501 50.2398 49.4672 50.2757 49.4836C50.3071 49.498 50.3373 49.5117 50.3763 49.522C50.3847 49.5312 50.3787 49.5305 50.3705 49.5296C50.3627 49.5287 50.353 49.5276 50.352 49.5347C50.4033 49.5465 50.3831 49.5498 50.3711 49.5518C50.3631 49.5531 50.3587 49.5538 50.3824 49.5561C50.4421 49.5838 50.5076 49.5924 50.5725 49.601C50.6284 49.6085 50.684 49.6158 50.7349 49.6353C50.7992 49.6486 50.8531 49.6753 50.8944 49.6957C50.9333 49.7149 50.961 49.7286 50.9756 49.7205L50.9148 49.699L51.078 49.7537L51.0787 49.7646C51.1056 49.7717 51.1457 49.7864 51.1896 49.8024L51.1896 49.8024C51.2571 49.827 51.3339 49.855 51.3859 49.8643C51.3846 49.8649 51.3877 49.8672 51.3909 49.8695L51.394 49.8717C51.4304 49.8814 51.4549 49.8904 51.477 49.8985C51.5072 49.9095 51.5329 49.919 51.5785 49.9264L51.5676 49.9271C51.6679 49.945 51.8435 50.0063 52.0112 50.0648C52.0757 50.0873 52.139 50.1094 52.1965 50.1285C52.1982 50.1428 52.294 50.1731 52.3769 50.1994L52.395 50.2052C52.3806 50.2012 52.3745 50.2027 52.3707 50.2037C52.3695 50.204 52.3685 50.2043 52.3675 50.2042C52.427 50.2172 52.4856 50.242 52.5447 50.267C52.607 50.2933 52.6699 50.3199 52.7351 50.3332C52.752 50.3416 52.7823 50.351 52.8146 50.3609L52.8147 50.3609C52.8705 50.3782 52.9324 50.3972 52.9408 50.4164C53.0854 50.4463 53.2121 50.4926 53.4089 50.573L53.398 50.5737C54.6965 51.1964 52.9231 50.5608 52.9231 50.5608L52.5589 50.4288C52.5593 50.432 52.5236 50.4254 52.511 50.4179C52.303 50.3613 52.0902 50.2739 51.8785 50.1869C51.6733 50.1026 51.4692 50.0188 51.2715 49.9638L51.2328 49.9517C50.9462 49.8627 50.4894 49.7208 50.2511 49.6131C50.1493 49.5741 50.0549 49.5448 49.9622 49.516C49.862 49.4849 49.7638 49.4544 49.6599 49.4129L49.6097 49.3829C49.5994 49.3806 49.5917 49.3791 49.5848 49.3778L49.5848 49.3778C49.5671 49.3745 49.5547 49.3722 49.518 49.3581C49.5445 49.3634 49.523 49.3517 49.5072 49.3431L49.5016 49.3401L49.4446 49.329C49.4388 49.3169 49.4002 49.3113 49.3633 49.306C49.3279 49.3009 49.294 49.2961 49.2925 49.2858L49.2756 49.2646C49.0001 49.1482 48.6895 49.0464 48.3759 48.9437C48.1592 48.8727 47.941 48.8012 47.7319 48.7241C47.6874 48.7026 47.6502 48.6818 47.6142 48.6618C47.5554 48.6291 47.4999 48.5982 47.4217 48.5686L47.4169 48.5821C47.3704 48.568 47.3675 48.5629 47.3636 48.5562C47.3599 48.5498 47.3553 48.542 47.3113 48.5234L47.3384 48.5543L47.1612 48.4961L47.1897 48.5016C47.1288 48.4801 47.0597 48.4602 47.0564 48.4697C47.0552 48.4672 47.0549 48.4652 47.0546 48.4633C47.0534 48.4553 47.0526 48.4501 46.9891 48.4276C46.9788 48.4482 46.8666 48.4116 46.7579 48.3761L46.7564 48.3756C46.7587 48.3745 46.753 48.3711 46.7477 48.368C46.7403 48.3636 46.7336 48.3596 46.7502 48.3628C46.63 48.3369 46.5417 48.2993 46.4543 48.2621C46.3663 48.2247 46.2793 48.1876 46.1615 48.1633C46.0765 48.125 46.0136 48.1054 45.9478 48.085C45.8823 48.0646 45.814 48.0434 45.7182 48.0019L45.7216 48.0183C45.6305 47.983 45.5264 47.9462 45.4221 47.9184L45.4371 47.9191L45.3662 47.8956L45.3699 47.8938C45.3568 47.8912 45.337 47.8844 45.3137 47.8764C45.2844 47.8664 45.2497 47.8546 45.2162 47.8468C45.1791 47.8278 45.1341 47.8149 45.092 47.8061L45.0521 47.7813C44.9964 47.7687 44.9307 47.7448 44.8661 47.7214C44.7933 47.695 44.7221 47.6691 44.6686 47.6607L44.0391 47.4439ZM45.2162 47.8468L45.2174 47.8474L45.2147 47.8464L45.2162 47.8468ZM46.1615 48.1633L46.1631 48.164L46.1604 48.1631L46.1615 48.1633ZM52.7351 50.3332L52.7332 50.3322L52.7372 50.3336L52.7351 50.3332ZM52.4042 50.2081C52.4008 50.2069 52.3977 50.2059 52.395 50.2052L52.4042 50.2081ZM47.3873 48.404L47.3843 48.4032L47.4003 48.4012L47.3873 48.404ZM43.0773 46.9191L43.0772 46.9225C43.0779 46.9217 43.078 46.9206 43.0773 46.9191ZM42.4921 49.9645L42.5218 49.9796C42.5214 49.9764 42.5137 49.9722 42.4921 49.9645ZM50.3725 52.7519C50.3752 52.7529 50.3779 52.7539 50.3798 52.753C50.3752 52.7529 50.3725 52.7519 50.3725 52.7519ZM42.0618 49.9802L43.0153 50.3391L43.6448 50.5559C43.6983 50.5644 43.7695 50.5902 43.8423 50.6166C43.9069 50.6401 43.9726 50.6639 44.0283 50.6765L44.0682 50.7013C44.1107 50.7102 44.1563 50.7233 44.1936 50.7426L44.1899 50.7444C44.2239 50.7521 44.2592 50.7642 44.289 50.7744C44.3122 50.7823 44.332 50.7891 44.3451 50.7917L44.3415 50.7935L44.4123 50.817L44.3973 50.8163C44.5016 50.8441 44.6058 50.881 44.6968 50.9163L44.6935 50.8999C44.7892 50.9413 44.8576 50.9626 44.923 50.9829C44.9893 51.0035 45.0526 51.0232 45.1383 51.062L45.1374 51.0647C45.2558 51.089 45.3431 51.1261 45.4313 51.1637C45.5187 51.2009 45.6069 51.2385 45.7272 51.2644C45.7106 51.2612 45.7173 51.2652 45.7247 51.2696C45.73 51.2727 45.7356 51.2761 45.7333 51.2772L45.7349 51.2777C45.8436 51.3132 45.9558 51.3498 45.9661 51.3292C46.0295 51.3517 46.0303 51.3569 46.0316 51.3649C46.0319 51.3668 46.0322 51.3688 46.0334 51.3713C46.0372 51.3605 46.1058 51.3817 46.1666 51.4032L46.1381 51.3977L46.3154 51.4559L46.2883 51.425C46.3323 51.4436 46.3368 51.4514 46.3406 51.4578C46.3445 51.4645 46.3474 51.4696 46.3938 51.4837L46.3996 51.4675C46.4778 51.4971 46.5333 51.528 46.5921 51.5607L46.5921 51.5607C46.6281 51.5807 46.6654 51.6015 46.7098 51.623C46.9189 51.7001 47.1371 51.7716 47.3539 51.8426L47.3539 51.8426C47.6675 51.9453 47.978 52.0471 48.2535 52.1635L48.2704 52.1847C48.272 52.195 48.3058 52.1998 48.3412 52.2049C48.3781 52.2102 48.4167 52.2158 48.4225 52.2279L48.4795 52.239L48.4851 52.242C48.501 52.2506 48.5224 52.2623 48.4959 52.257C48.5346 52.2707 48.5462 52.2731 48.5652 52.277C48.5715 52.2783 48.5785 52.2797 48.5876 52.2818L48.6379 52.3118C48.7417 52.3533 48.84 52.3838 48.9401 52.4149C49.0329 52.4437 49.1272 52.473 49.2291 52.512C49.4673 52.6196 49.9241 52.7616 50.2107 52.8506L50.2495 52.8627C50.4472 52.9177 50.6513 53.0015 50.8564 53.0858C51.0681 53.1727 51.281 53.2602 51.489 53.3168C51.5015 53.3243 51.5372 53.3309 51.5369 53.3277L51.9011 53.4597C51.9011 53.4597 53.6745 54.0953 52.3759 53.4726L52.3868 53.4719C52.19 53.3915 52.0634 53.3452 51.9187 53.3153C51.9103 53.2961 51.8485 53.2771 51.7926 53.2598C51.7603 53.2499 51.7299 53.2405 51.7131 53.2321L51.7151 53.2325L51.7111 53.2311L51.7131 53.2321C51.6478 53.2188 51.5849 53.1922 51.5226 53.1659C51.4635 53.1409 51.405 53.1161 51.3454 53.1031C51.3459 53.1031 51.3465 53.1031 51.347 53.103C51.3475 53.1029 51.3481 53.1027 51.3487 53.1026C51.3525 53.1016 51.3585 53.1001 51.3729 53.1041L51.3821 53.107C51.3787 53.1058 51.3757 53.1048 51.3729 53.1041L51.3549 53.0983L51.3549 53.0983C51.2719 53.072 51.1762 53.0417 51.1744 53.0273C51.117 53.0083 51.0536 52.9862 50.9892 52.9637L50.9892 52.9637C50.8214 52.9051 50.6459 52.8439 50.5456 52.826L50.5565 52.8253C50.5108 52.8179 50.4851 52.8084 50.455 52.7974C50.4329 52.7893 50.4084 52.7803 50.3719 52.7706L50.3689 52.7684C50.3657 52.7661 50.3625 52.7638 50.3639 52.7632C50.3118 52.7539 50.2351 52.7259 50.1675 52.7013L50.1675 52.7013C50.1236 52.6852 50.0835 52.6706 50.0567 52.6635L50.056 52.6526L49.8937 52.5951L49.9541 52.618C49.9394 52.6261 49.9117 52.6124 49.8728 52.5932C49.8315 52.5728 49.7776 52.5462 49.7133 52.5328C49.6624 52.5134 49.6069 52.506 49.5509 52.4986C49.486 52.49 49.4205 52.4813 49.3608 52.4536C49.3372 52.4514 49.3415 52.4507 49.3495 52.4493C49.3615 52.4474 49.3817 52.444 49.3304 52.4322C49.3314 52.4251 49.3411 52.4262 49.3489 52.4271C49.3571 52.428 49.3631 52.4287 49.3547 52.4195C49.3157 52.4092 49.2856 52.3955 49.2541 52.3812C49.2182 52.3648 49.1806 52.3476 49.1262 52.334L49.1255 52.3231C49.0551 52.3093 48.9933 52.2828 48.9374 52.2589C48.8858 52.2368 48.8392 52.2168 48.7954 52.2108C48.7319 52.1926 48.7106 52.178 48.691 52.1645C48.6689 52.1492 48.6488 52.1354 48.572 52.1195L48.5227 52.0868C48.4954 52.0758 48.4835 52.0754 48.4719 52.0751C48.4587 52.0747 48.4459 52.0744 48.4112 52.058C48.4145 52.0548 48.3967 52.0466 48.3814 52.0395C48.3647 52.0318 48.351 52.0255 48.3713 52.0287C48.3074 51.9993 48.2395 51.9787 48.1674 51.9568C48.0769 51.9293 47.9796 51.8998 47.875 51.8484C47.8502 51.8494 47.8108 51.8369 47.774 51.8252C47.7422 51.8152 47.7123 51.8057 47.6952 51.806C47.6941 51.8028 47.6673 51.7924 47.6396 51.7816C47.5917 51.7629 47.541 51.7432 47.6149 51.7578C47.6248 51.7598 47.6424 51.766 47.6415 51.7687L47.6583 51.764C47.5964 51.7296 47.536 51.7146 47.4745 51.6993C47.4312 51.6885 47.3874 51.6776 47.3422 51.6597C47.3495 51.663 47.3575 51.6664 47.365 51.6696C47.3898 51.68 47.4098 51.6884 47.3862 51.6859L47.2834 51.6495L47.3079 51.6491L47.157 51.5895L47.1748 51.608C47.1515 51.5978 47.1335 51.5881 47.1169 51.5791L47.1169 51.5791C47.0818 51.5601 47.0528 51.5443 46.9924 51.5343C46.9733 51.5318 46.9863 51.54 46.9975 51.5471C47.0103 51.5551 47.0206 51.5617 46.978 51.549L46.9509 51.5373L46.9509 51.5373C46.8545 51.4956 46.7227 51.4385 46.6065 51.3946C46.6132 51.4087 46.5937 51.4027 46.5679 51.3947L46.5679 51.3947C46.5601 51.3923 46.5519 51.3898 46.5436 51.3876L46.5429 51.3767C46.4721 51.3593 46.462 51.3494 46.4516 51.3392C46.4416 51.3293 46.4312 51.3191 46.3658 51.3015L46.3787 51.2987L46.3628 51.3007L46.3658 51.3015L46.3358 51.3079C46.2744 51.297 46.2584 51.2867 46.2428 51.2766C46.2257 51.2655 46.209 51.2547 46.1333 51.2438C46.1879 51.2616 46.1527 51.275 46.0865 51.247L46.1061 51.2433C46.0936 51.2399 46.0837 51.2376 46.0753 51.2356C46.0584 51.2317 46.0472 51.229 46.0316 51.2215C46.0552 51.2237 46.0472 51.2118 45.9958 51.1936L46.0358 51.1925L45.9281 51.1742C45.8925 51.1558 45.8446 51.1392 45.8012 51.1243L45.8012 51.1243C45.7537 51.1078 45.7117 51.0934 45.698 51.0805C45.698 51.0805 45.5438 51.0188 45.4944 51.0159C45.5054 51.0153 45.4931 51.0075 45.4801 50.9993C45.4659 50.9903 45.451 50.9809 45.4657 50.98C45.4186 50.9755 45.2872 50.9381 45.2396 50.9091L45.2491 50.9124C45.1573 50.8723 45.075 50.8477 44.9952 50.8238C44.9146 50.7997 44.8366 50.7763 44.7536 50.7385C44.7552 50.7464 44.7361 50.7413 44.7177 50.7364C44.6977 50.7311 44.6784 50.726 44.6869 50.7377C44.6131 50.7178 44.5477 50.6899 44.4907 50.6656L44.4907 50.6656C44.4082 50.6305 44.3432 50.6028 44.2957 50.6175C44.2425 50.6006 44.2201 50.587 44.2002 50.5748C44.1893 50.5682 44.1792 50.5621 44.1653 50.5561L44.1852 50.5601C44.035 50.5114 43.9903 50.4956 43.8786 50.4545C43.8585 50.4491 43.8432 50.4481 43.8272 50.4471C43.799 50.4453 43.7687 50.4433 43.7064 50.4164C43.7372 50.4193 43.7099 50.4098 43.6773 50.3984L43.6628 50.3933C43.6876 50.4006 43.6953 50.4003 43.649 50.3763C43.642 50.3766 43.6321 50.3746 43.6228 50.3727L43.6201 50.3721C43.6203 50.3715 43.6199 50.371 43.6195 50.3706C43.6191 50.37 43.6186 50.3694 43.6197 50.3689C43.5565 50.3496 43.5664 50.3562 43.5943 50.3676C43.5925 50.3684 43.5947 50.3708 43.6018 50.3763C43.5739 50.3608 43.5337 50.3465 43.4979 50.3337C43.4556 50.3185 43.4196 50.3056 43.4173 50.2958C43.3086 50.2599 43.2171 50.234 43.1294 50.2092L43.1294 50.2092C43.0631 50.1905 42.999 50.1724 42.9312 50.151C42.9165 50.1367 42.955 50.1442 43.001 50.156L42.8892 50.1194C42.893 50.1118 42.9267 50.1238 42.958 50.135C42.9693 50.139 42.9803 50.1429 42.9894 50.1458C42.9271 50.1138 42.8581 50.0943 42.7859 50.0739C42.7135 50.0534 42.638 50.032 42.5629 49.9963L42.5276 49.9929L42.5186 49.9882C42.5172 49.9922 42.481 49.987 42.457 49.9816C42.4515 49.9764 42.4501 49.9725 42.4488 49.9687C42.4458 49.96 42.4432 49.9524 42.3903 49.9336C42.3458 49.9096 42.2666 49.8888 42.1951 49.87C42.1742 49.8645 42.1539 49.8592 42.1354 49.854C42.1782 49.8707 42.16 49.8703 42.1424 49.8687C42.1255 49.8627 42.1122 49.8559 42.1 49.8496C42.0849 49.8418 42.0715 49.835 42.055 49.8316L42.0556 49.82C42.0564 49.8193 42.0565 49.8182 42.0557 49.8167L42.0556 49.82C42.0499 49.8257 42.0069 49.8133 41.9737 49.8038L41.9737 49.8038C41.9558 49.7986 41.9407 49.7943 41.9359 49.794C41.9249 49.7837 41.9498 49.7905 41.9735 49.797C41.9892 49.8013 42.0043 49.8055 42.0083 49.8045L41.7779 49.7244C41.7303 49.7135 41.7391 49.7207 41.7486 49.7284C41.7558 49.7343 41.7634 49.7405 41.7454 49.7388C41.7266 49.7329 41.7077 49.7274 41.6886 49.7218L41.6886 49.7218C41.6338 49.7059 41.5775 49.6895 41.5181 49.6628L41.5414 49.6832C41.4028 49.6448 41.3221 49.6147 41.2344 49.57C40.1902 49.3037 40.9762 49.6201 40.9762 49.6201C41.2298 49.7298 41.4103 49.785 41.6379 49.8546L41.6379 49.8546C41.7586 49.8915 41.8925 49.9325 42.0576 49.9878L42.0618 49.9802ZM42.2241 48.1807L42.2389 48.1905C42.2398 48.1878 42.2363 48.185 42.2241 48.1807ZM46.4583 49.677C46.4596 49.6775 46.461 49.678 46.4628 49.6771C46.4596 49.6775 46.4583 49.677 46.4583 49.677ZM42.8168 48.5702C42.8152 48.5696 42.8139 48.5697 42.8128 48.5698C42.8121 48.5698 42.8114 48.5698 42.8109 48.5696L42.8163 48.5715L42.8168 48.5702ZM42.1773 48.3369C42.1202 48.3117 42.0585 48.2845 41.9697 48.2506L41.9863 48.2641C41.897 48.2356 41.8241 48.2162 41.7583 48.1987C41.6335 48.1655 41.5339 48.139 41.3959 48.0702C41.3959 48.0702 40.9791 47.8846 41.5554 47.9852C41.6011 48.0151 41.6439 48.0317 41.7203 48.0481L41.7106 48.0325C41.7414 48.049 41.7707 48.056 41.8004 48.0631C41.8114 48.0658 41.8225 48.0684 41.8337 48.0716C41.8447 48.0708 41.841 48.0659 41.8374 48.0613C41.8328 48.0554 41.8285 48.0498 41.8554 48.0534L41.9776 48.0951C41.9752 48.0967 41.9666 48.0949 41.9578 48.093C41.9443 48.0901 41.9302 48.0871 41.9363 48.0957C41.939 48.0952 41.9473 48.0971 41.9572 48.0994C41.9741 48.1034 41.9957 48.1084 42.0018 48.1041L41.9986 48.1132C42.0085 48.1141 42.0156 48.1189 42.0235 48.1241C42.0297 48.1282 42.0364 48.1327 42.0454 48.1358C42.0549 48.1347 42.0663 48.1326 42.0438 48.1231C42.0542 48.1254 42.0655 48.1275 42.0773 48.1298C42.1167 48.1372 42.16 48.1454 42.1824 48.1615C42.2108 48.1716 42.2112 48.178 42.2116 48.1855C42.2118 48.1891 42.212 48.1929 42.2153 48.1975C42.2284 48.1991 42.2498 48.1991 42.2512 48.195L42.2561 48.1983L42.2766 48.1964C42.3157 48.2194 42.3574 48.2288 42.3973 48.2378C42.4371 48.2467 42.475 48.2553 42.507 48.2765C42.5015 48.2749 42.4951 48.2726 42.4887 48.2703C42.471 48.264 42.4528 48.2575 42.45 48.2654L42.5105 48.2838C42.4847 48.2792 42.4625 48.2775 42.4691 48.2889C42.5063 48.2995 42.5421 48.3075 42.5789 48.3158C42.6271 48.3266 42.6772 48.3378 42.7347 48.3556C42.734 48.3644 42.7533 48.3714 42.776 48.3796C42.7952 48.3865 42.817 48.3944 42.8313 48.405C42.8269 48.4004 42.826 48.3986 42.8278 48.3977C42.8148 48.3916 42.809 48.3865 42.8437 48.3957C42.8433 48.3971 42.8446 48.3976 42.8441 48.3989C42.8487 48.399 42.8546 48.3996 42.8596 48.3983C42.8829 48.4141 42.8792 48.4159 42.8652 48.4125C42.8678 48.4134 42.8704 48.4143 42.873 48.4152C42.8905 48.4212 42.905 48.4262 42.8872 48.4278C42.919 48.4439 42.9362 48.4414 42.9523 48.439C42.9617 48.4376 42.9708 48.4363 42.9823 48.4387L43.1455 48.4934L43.1337 48.4923C43.141 48.4959 43.1461 48.5003 43.1516 48.505C43.1618 48.5137 43.1732 48.5235 43.202 48.5317C43.2319 48.5108 43.266 48.5275 43.3094 48.5489C43.3395 48.5636 43.374 48.5806 43.4147 48.5887C43.4111 48.5788 43.4218 48.5808 43.433 48.583C43.4432 48.585 43.454 48.5871 43.4543 48.58C43.4971 48.6035 43.5399 48.6144 43.584 48.6257C43.6279 48.6368 43.6731 48.6483 43.7212 48.6729L43.7153 48.6724C43.7413 48.6937 43.8131 48.7101 43.8399 48.7074C43.8313 48.7104 43.8386 48.7171 43.8456 48.7236C43.852 48.7295 43.8581 48.7351 43.8514 48.7374C43.8507 48.7376 43.8499 48.7378 43.8489 48.7379M42.0034 48.0997C42.0038 48.1017 42.0032 48.1032 42.0018 48.1041L42.0034 48.0997ZM42.1773 48.3369C42.2625 48.3745 42.3375 48.4076 42.477 48.4515L42.1773 48.3369ZM42.477 48.4515L42.817 48.5658L42.477 48.4515ZM42.817 48.5658C42.8475 48.5662 42.8856 48.5803 42.9244 48.5947L42.817 48.5658ZM42.9244 48.5947C42.9588 48.6074 42.9938 48.6204 43.0247 48.6242L42.9244 48.5947ZM43.0247 48.6242L43.0443 48.6418L43.0247 48.6242ZM43.0443 48.6418C43.0665 48.6435 43.0931 48.6499 43.1129 48.663L43.0443 48.6418ZM43.1129 48.663L43.1119 48.6657L43.1129 48.663ZM43.1119 48.6657C43.1307 48.6681 43.1499 48.6745 43.1659 48.6797L43.1119 48.6657ZM43.1659 48.6797C43.1784 48.6839 43.1889 48.6874 43.1955 48.6877L43.1659 48.6797ZM43.1955 48.6877L43.1945 48.6904L43.1955 48.6877ZM43.1945 48.6904L43.2328 48.7024L43.1945 48.6904ZM43.2328 48.7024L43.2246 48.7041L43.2328 48.7024ZM43.2246 48.7041C43.2816 48.7152 43.3384 48.7353 43.3862 48.7552L43.2246 48.7041ZM43.3862 48.7552L43.3869 48.7403L43.3862 48.7552ZM43.3869 48.7403C43.4368 48.7655 43.4738 48.7756 43.5094 48.7854L43.3869 48.7403ZM43.5094 48.7854C43.5456 48.7954 43.5805 48.8049 43.6262 48.8296L43.5094 48.7854ZM43.6262 48.8296L43.6239 48.8318L43.6262 48.8296ZM43.6239 48.8318C43.6906 48.8378 43.7361 48.8602 43.7822 48.8828L43.6239 48.8318ZM43.7822 48.8828C43.8279 48.9052 43.8741 48.9279 43.9419 48.9353L43.7822 48.8828ZM43.9419 48.9353C43.9331 48.9348 43.9363 48.9376 43.9399 48.9407L43.9419 48.9353ZM43.9399 48.9407C43.9424 48.9428 43.9451 48.9452 43.9439 48.9466L43.9399 48.9407ZM43.9439 48.9466L43.946 48.9472L43.9439 48.9466ZM43.946 48.9472C44.0032 48.9645 44.065 48.9831 44.0725 48.9617L43.946 48.9472ZM44.0725 48.9617C44.1052 48.9733 44.1056 48.9784 44.1063 48.9861L44.0725 48.9617ZM44.1063 48.9861C44.1065 48.988 44.1067 48.99 44.1074 48.9923L44.1063 48.9861ZM44.1074 48.9923C44.1107 48.9829 44.1487 48.9917 44.1798 49.0027L44.1074 48.9923ZM44.1798 49.0027L44.1648 49.002L44.1798 49.0027ZM44.1648 49.002L44.2609 49.0315L44.1648 49.002ZM44.2609 49.0315L44.2487 49.0058L44.2609 49.0315ZM44.2487 49.0058C44.2725 49.0173 44.2741 49.0242 44.2753 49.0298L44.2487 49.0058ZM44.2753 49.0298C44.2766 49.0354 44.2775 49.0397 44.3015 49.0458L44.2753 49.0298ZM44.3015 49.0458L44.3072 49.0296L44.3015 49.0458ZM44.3072 49.0296C44.3479 49.0459 44.3756 49.0666 44.4053 49.0888L44.3072 49.0296ZM44.4053 49.0888C44.4244 49.103 44.4442 49.1178 44.4687 49.1325L44.4053 49.0888ZM44.4687 49.1325C44.5804 49.1751 44.6983 49.2111 44.8156 49.2469L44.4687 49.1325ZM44.8156 49.2469C44.9853 49.2986 45.1536 49.35 45.2997 49.4206L44.8156 49.2469ZM45.2997 49.4206L45.3057 49.438L45.2997 49.4206ZM45.3057 49.438C45.3053 49.4475 45.3243 49.4472 45.3444 49.4469L45.3057 49.438ZM45.3444 49.4469C45.3655 49.4466 45.3878 49.4463 45.3902 49.4572L45.3444 49.4469ZM45.3902 49.4572L45.4228 49.4597L45.3902 49.4572ZM45.4228 49.4597C45.4239 49.4605 45.4252 49.4615 45.4266 49.4625L45.4228 49.4597ZM45.4266 49.4625C45.4345 49.4682 45.4448 49.4757 45.4298 49.4743L45.4266 49.4625ZM45.4298 49.4743C45.448 49.4818 45.4544 49.4822 45.464 49.4829L45.4298 49.4743ZM45.464 49.4829C45.4685 49.4833 45.4736 49.4836 45.4809 49.4848L45.464 49.4829ZM45.4809 49.4848L45.5068 49.5061L45.4809 49.4848ZM45.5068 49.5061C45.5615 49.5303 45.6155 49.5451 45.6703 49.5601L45.5068 49.5061ZM45.6703 49.5601C45.721 49.574 45.7725 49.5882 45.8262 49.6101L45.6703 49.5601ZM45.8262 49.6101C45.9504 49.6773 46.1976 49.7452 46.3538 49.788L45.8262 49.6101ZM46.3538 49.788C46.3614 49.7901 46.3688 49.7921 46.3759 49.7941L46.3538 49.788ZM46.3759 49.7941C46.4837 49.8173 46.5916 49.867 46.7003 49.9171L46.3759 49.7941ZM46.7003 49.9171C46.8127 49.9689 46.9259 50.0211 47.0406 50.0447L46.7003 49.9171ZM47.0406 50.0447C47.0464 50.0498 47.0686 50.0516 47.0669 50.0479L47.0406 50.0447ZM47.0669 50.0479L47.262 50.12L47.0669 50.0479ZM47.262 50.12C47.262 50.12 48.2131 50.4644 47.5408 50.0635L47.262 50.12ZM47.5408 50.0635L47.5476 50.0614L47.5408 50.0635ZM47.5476 50.0614C47.4428 50.0136 47.3756 49.9883 47.2945 49.9809L47.5476 50.0614ZM47.2945 49.9809C47.2912 49.9636 47.2582 49.9547 47.2282 49.9466L47.2945 49.9809ZM47.2282 49.9466C47.2101 49.9417 47.1931 49.9372 47.1843 49.9312L47.2282 49.9466ZM47.1843 49.9312L47.1875 49.9308L47.1843 49.9312ZM47.1875 49.9308C47.1493 49.9275 47.1158 49.9112 47.0827 49.8952L47.1875 49.9308ZM47.0827 49.8952C47.0519 49.8802 47.0214 49.8654 46.9882 49.8617L47.0827 49.8952ZM46.9882 49.8617C46.989 49.8617 46.9897 49.8612 46.9907 49.8607L46.9882 49.8617ZM46.9907 49.8607C46.9938 49.859 46.9987 49.8563 47.01 49.8603L46.9907 49.8607ZM47.01 49.8603C47.0053 49.859 47.0005 49.8576 46.9955 49.8562L47.01 49.8603ZM46.9955 49.8562C46.9509 49.8435 46.899 49.8287 46.8997 49.8152L46.9955 49.8562ZM46.8997 49.8152C46.8692 49.8057 46.8353 49.794 46.8006 49.782L46.8997 49.8152ZM46.8006 49.782C46.7106 49.7511 46.6152 49.7182 46.5589 49.7158L46.8006 49.782ZM46.5589 49.7158L46.5657 49.7137L46.5589 49.7158ZM46.5657 49.7137C46.5395 49.7132 46.5252 49.7078 46.509 49.7016L46.5657 49.7137ZM46.509 49.7016C46.4972 49.6972 46.4843 49.6923 46.465 49.6887L46.509 49.7016ZM46.465 49.6887C46.4628 49.6864 46.4606 49.684 46.461 49.6827L46.465 49.6887ZM46.461 49.6827C46.4319 49.6816 46.3905 49.6661 46.3544 49.6526L46.461 49.6827ZM46.3544 49.6526C46.331 49.6438 46.3099 49.6359 46.2959 49.6333L46.3544 49.6526ZM46.2959 49.6333L46.2965 49.6229L46.2959 49.6333ZM46.2965 49.6229L46.2076 49.5945L46.2965 49.6229ZM46.2076 49.5945L46.2396 49.6073L46.2076 49.5945ZM46.2396 49.6073C46.2302 49.6173 46.2153 49.6081 46.1946 49.5953L46.2396 49.6073ZM46.1946 49.5953C46.1729 49.5818 46.1447 49.5643 46.1098 49.5614L46.1946 49.5953ZM46.1098 49.5614C46.0825 49.5503 46.0503 49.5513 46.018 49.5524L46.1098 49.5614ZM46.018 49.5524C45.981 49.5536 45.9439 49.5548 45.9142 49.5378L46.018 49.5524ZM45.9142 49.5378C45.9003 49.539 45.903 49.5377 45.9082 49.5353L45.9142 49.5378ZM45.9082 49.5353C45.9158 49.5318 45.9286 49.5259 45.9 49.5221L45.9082 49.5353ZM45.9 49.5221C45.9016 49.5152 45.9072 49.5148 45.9116 49.5145L45.9 49.5221ZM45.9116 49.5145C45.9163 49.5142 45.9197 49.514 45.9161 49.5065L45.9116 49.5145ZM45.9161 49.5065C45.8947 49.5025 45.879 49.4938 45.8627 49.4848L45.9161 49.5065ZM45.8627 49.4848C45.8442 49.4746 45.825 49.464 45.7958 49.4593L45.8627 49.4848ZM45.7958 49.4593L45.7965 49.4489L45.7958 49.4593ZM45.7965 49.4489C45.7578 49.4463 45.7251 49.4301 45.6955 49.4155L45.7965 49.4489ZM45.6955 49.4155C45.6683 49.402 45.6436 49.3898 45.6192 49.3907L45.6955 49.4155ZM45.6192 49.3907C45.5842 49.3826 45.574 49.3718 45.5646 49.3619L45.6192 49.3907ZM45.5646 49.3619C45.5539 49.3508 45.5443 49.3407 45.5013 49.3368L45.5646 49.3619ZM45.5013 49.3368L45.4791 49.3137L45.5013 49.3368ZM45.4791 49.3137C45.4642 49.307 45.457 49.3084 45.4501 49.3097L45.4791 49.3137ZM45.4501 49.3097C45.4423 49.3113 45.4349 49.3127 45.4176 49.3026L45.4501 49.3097ZM45.4176 49.3026C45.4202 49.2991 45.4107 49.2938 45.4025 49.2892L45.4176 49.3026ZM45.4025 49.2892C45.3935 49.2843 45.3862 49.2802 45.398 49.2804L45.4025 49.2892ZM45.398 49.2804C45.3641 49.2616 45.327 49.2519 45.2876 49.2417L45.398 49.2804ZM45.2876 49.2417C45.2384 49.2288 45.1858 49.2151 45.1317 49.1815L45.2876 49.2417ZM45.1317 49.1815C45.1162 49.1859 45.0948 49.1798 45.0747 49.174L45.1317 49.1815ZM45.0747 49.174C45.0574 49.1691 45.0411 49.1644 45.0303 49.1669L45.0747 49.174ZM45.0303 49.1669C45.0302 49.1641 45.016 49.1581 45.0014 49.152L45.0303 49.1669ZM45.0014 49.152C44.976 49.1413 44.9492 49.13 44.9905 49.1331L45.0014 49.152ZM44.9905 49.1331C44.9964 49.1336 45.0045 49.1365 45.0036 49.1392L44.9905 49.1331ZM45.0036 49.1392L45.0137 49.1321L45.0036 49.1392ZM45.0137 49.1321C44.9827 49.1087 44.9496 49.1033 44.9158 49.0978L45.0137 49.1321ZM44.9158 49.0978C44.8919 49.0939 44.8676 49.0899 44.8436 49.0795L44.9158 49.0978ZM44.8436 49.0795C44.8475 49.0816 44.8517 49.0837 44.8558 49.0856L44.8436 49.0795ZM44.8558 49.0856C44.8689 49.0919 44.8795 49.097 44.8673 49.0986L44.8558 49.0856ZM44.8673 49.0986L44.8137 49.0781L44.8673 49.0986ZM44.8137 49.0781L44.8274 49.0738L44.8137 49.0781ZM44.8274 49.0738L44.7481 49.0396L44.8274 49.0738ZM44.7481 49.0396L44.7551 49.0543L44.7481 49.0396ZM44.7551 49.0543C44.7426 49.0479 44.7334 49.0412 44.7249 49.035L44.7551 49.0543ZM44.7249 49.035C44.7071 49.0222 44.6926 49.0117 44.6579 49.0107L44.7249 49.035ZM44.6579 49.0107C44.6471 49.0112 44.6536 49.0171 44.6592 49.0221L44.6579 49.0107ZM44.6592 49.0221C44.6656 49.0279 44.6707 49.0326 44.6476 49.0269L44.6592 49.0221ZM44.6476 49.0269L44.4519 48.9347L44.6476 49.0269ZM44.4519 48.9347C44.4535 48.9469 44.4425 48.944 44.4289 48.9404L44.4519 48.9347ZM44.4289 48.9404C44.4248 48.9393 44.4204 48.9381 44.416 48.9373L44.4289 48.9404ZM44.416 48.9373L44.4194 48.9278L44.416 48.9373ZM44.4194 48.9278C44.38 48.9215 44.3755 48.9136 44.3709 48.9054L44.4194 48.9278ZM44.3709 48.9054C44.3665 48.8975 44.3619 48.8893 44.3255 48.8822L44.3709 48.9054ZM44.3245 48.882C44.3248 48.8821 44.3252 48.8821 44.3255 48.8822L44.3071 48.8926C44.2727 48.8913 44.2648 48.8838 44.2569 48.8764C44.2482 48.8684 44.2398 48.8604 44.1965 48.861C44.224 48.8692 44.2023 48.8875 44.1686 48.8709L44.1814 48.8648C44.1753 48.8636 44.1701 48.8628 44.1655 48.8622C44.1553 48.8607 44.1481 48.8597 44.1394 48.8545C44.1549 48.8539 44.151 48.8434 44.1212 48.8329L44.1449 48.826L44.0846 48.8245C44.0671 48.8125 44.0415 48.8038 44.0181 48.7959C43.9924 48.7872 43.9694 48.7794 43.9627 48.7691C43.9627 48.7691 43.8798 48.7326 43.8514 48.7374M44.3245 48.882L44.3337 48.8776L44.3245 48.882ZM44.3337 48.8776L44.3255 48.8822L44.3337 48.8776Z" fill="#E6F1FA"/>
<path d="M35.668 42.4935L40.8709 44.3359L39.0285 49.5388L33.8256 47.6964L35.668 42.4935Z" fill="#CEE4D0"/>
<defs>
<linearGradient id="paint0_linear" x1="70.723" y1="15.2247" x2="46.1519" y2="89.7086" gradientUnits="userSpaceOnUse">
<stop stop-color="#FFE9C9"/>
<stop offset="1" stop-color="#FFEDD3" stop-opacity="0"/>
</linearGradient>
<linearGradient id="paint1_linear" x1="62.6456" y1="61.7787" x2="62.6456" y2="94.8711" gradientUnits="userSpaceOnUse">
<stop stop-color="#EDB78E"/>
<stop offset="1" stop-color="#F0AB7A"/>
</linearGradient>
<linearGradient id="paint2_linear" x1="85.4761" y1="52.6836" x2="40.4761" y2="51.1836" gradientUnits="userSpaceOnUse">
<stop stop-color="#FAC26B"/>
<stop offset="1" stop-color="#FDD390"/>
</linearGradient>
<linearGradient id="paint3_linear" x1="62.2849" y1="51.2682" x2="40.4466" y2="51.2682" gradientUnits="userSpaceOnUse">
<stop stop-color="#F9BF78"/>
<stop offset="1" stop-color="#F6C282"/>
</linearGradient>
</defs>
</svg>
