<svg width="16" height="16" viewBox="0 0 16 16" fill="none" xmlns="http://www.w3.org/2000/svg">
<path d="M7.33317 1.33337C6.01463 1.33337 4.7257 1.72437 3.62937 2.45691C2.53304 3.18945 1.67856 4.23064 1.17398 5.44882C0.669392 6.66699 0.53737 8.00744 0.794605 9.30064C1.05184 10.5938 1.68678 11.7817 2.61913 12.7141C3.55148 13.6464 4.73937 14.2814 6.03257 14.5386C7.32578 14.7958 8.66622 14.6638 9.8844 14.1592C11.1026 13.6547 12.1438 12.8002 12.8763 11.7038C13.6088 10.6075 13.9998 9.31858 13.9998 8.00004C13.9998 7.12456 13.8274 6.25766 13.4924 5.44882C13.1573 4.63998 12.6663 3.90505 12.0472 3.286C11.4282 2.66694 10.6932 2.17588 9.8844 1.84084C9.07556 1.50581 8.20865 1.33337 7.33317 1.33337ZM7.33317 13.3334C6.27834 13.3334 5.24719 13.0206 4.37013 12.4345C3.49307 11.8485 2.80948 11.0156 2.40582 10.041C2.00215 9.06648 1.89653 7.99412 2.10232 6.95956C2.30811 5.92499 2.81606 4.97468 3.56194 4.2288C4.30782 3.48292 5.25813 2.97497 6.29269 2.76919C7.32726 2.5634 8.39961 2.66902 9.37415 3.07268C10.3487 3.47635 11.1816 4.15994 11.7677 5.037C12.3537 5.91406 12.6665 6.94521 12.6665 8.00004C12.6665 9.41453 12.1046 10.7711 11.1044 11.7713C10.1042 12.7715 8.74766 13.3334 7.33317 13.3334ZM7.33317 4.00004C7.15636 4.00004 6.98679 4.07028 6.86177 4.1953C6.73675 4.32033 6.66651 4.4899 6.66651 4.66671V7.33337H5.33317C5.15636 7.33337 4.98679 7.40361 4.86177 7.52864C4.73674 7.65366 4.66651 7.82323 4.66651 8.00004C4.66651 8.17685 4.73674 8.34642 4.86177 8.47145C4.98679 8.59647 5.15636 8.66671 5.33317 8.66671H7.33317C7.50998 8.66671 7.67955 8.59647 7.80458 8.47145C7.9296 8.34642 7.99984 8.17685 7.99984 8.00004V4.66671C7.99984 4.4899 7.9296 4.32033 7.80458 4.1953C7.67955 4.07028 7.50998 4.00004 7.33317 4.00004Z" fill="#8292B4"/>
</svg>
