<svg width="25" height="24" viewBox="0 0 25 24" fill="none" xmlns="http://www.w3.org/2000/svg">
<rect x="0.5" width="24" height="24" rx="12" fill="#F05537"/>
<path d="M11.9997 5.34045C12.2703 5.18419 12.5961 5.16473 12.8805 5.28186L12.9997 5.34045L18.0173 8.23694C18.3267 8.41557 18.5173 8.74588 18.5173 9.10315V14.8971C18.5172 15.2097 18.3714 15.5014 18.1276 15.6891L18.0173 15.7633L12.9997 18.6598C12.7289 18.816 12.4032 18.8357 12.1188 18.7184L11.9997 18.6598L6.9821 15.7633C6.67283 15.5847 6.48219 15.2542 6.4821 14.8971V9.10315C6.4821 8.7907 6.62822 8.49891 6.87175 8.31116L6.9821 8.23694L11.9997 5.34045Z" fill="white" stroke="#F05537" stroke-width="0.666667"/>
<path d="M9.89998 14.2401L8.36396 12.358L9.89998 10.2567" stroke="#F05537" stroke-width="0.866667" stroke-linecap="round"/>
<path d="M13 8.66663L11.3333 15.6666" stroke="#F05537" stroke-width="0.866667" stroke-linecap="round"/>
<path d="M14.4331 10.2566L15.9691 12.1387L14.4331 14.24" stroke="#F05537" stroke-width="0.866667" stroke-linecap="round"/>
</svg>
