<svg width="14" height="11" viewBox="0 0 14 11" fill="none" xmlns="http://www.w3.org/2000/svg">
<path d="M13.5224 3.76929L7.14402 0.709336C7.05156 0.665903 6.94888 0.665903 6.85642 0.709336L0.47802 3.76929C0.330195 3.83908 0.233398 4.01021 0.233398 4.20064C0.233398 4.39108 0.330505 4.56221 0.47802 4.632L2.79867 5.74417V8.19495C2.79867 8.71651 3.18316 9.49337 4.17794 10.0938C5.03829 10.5509 6.07183 10.767 6.99991 10.748C9.34002 10.748 11.2015 9.79972 11.2015 8.19495V5.74417L11.8427 5.42963V7.15108C11.8356 7.27953 11.9173 7.48207 12.056 7.575C12.1653 7.64814 12.3593 7.64814 12.4666 7.64814C12.5739 7.64814 12.6766 7.59469 12.7499 7.5004C12.8232 7.40611 12.8609 7.2799 12.8538 7.15108V4.95162L13.5224 4.63163C13.6702 4.56184 13.767 4.39071 13.767 4.20027C13.767 4.00984 13.6699 3.83908 13.5224 3.76929ZM6.99657 2.03613L11.9297 4.40796L6.99991 6.41968L2 4.20064L6.99657 2.03613ZM10.184 8.28244C10.184 8.88307 9.04007 9.70337 6.99991 9.70337C4.95975 9.70337 3.81598 8.88752 3.81598 8.28244V6.31867L6.86538 7.69009C6.95754 7.73464 7.06052 7.73464 7.15299 7.69009L10.184 6.20091V8.28244Z" fill="#979EC2"/>
</svg>
