<svg width="25" height="24" viewBox="0 0 25 24" fill="none" xmlns="http://www.w3.org/2000/svg">
<g clip-path="url(#clip0_11733_2425)">
<rect x="0.772727" y="0.272727" width="23.4545" height="23.4545" rx="11.7273" fill="#47B749"/>
<rect x="0.772727" y="0.272727" width="23.4545" height="23.4545" rx="11.7273" stroke="#47B749" stroke-width="0.545455"/>
<path fill-rule="evenodd" clip-rule="evenodd" d="M11.7584 6.96838H16.6282C16.963 6.96838 17.2369 7.24231 17.2369 7.57711V17.3167C17.2369 17.6515 16.963 17.9254 16.6282 17.9254H14.802V16.708H16.0195V15.4905H14.802V14.2731H16.0195V13.0556H14.802V12.66C14.802 12.1425 14.5829 11.6434 14.1994 11.3025L11.1558 8.56324L11.1497 8.55715V7.57711C11.1497 7.24231 11.4236 6.96838 11.7584 6.96838ZM12.3671 9.40328H13.5846V8.18583H12.3671V9.40328ZM14.802 11.8382H16.0195V10.6207H14.802V11.8382ZM14.802 9.40328H16.0195V8.18583H14.802V9.40328ZM10.3404 9.47018C10.2247 9.36061 10.0783 9.31198 9.93216 9.31198C9.78607 9.31198 9.63961 9.3667 9.52396 9.47018L6.48099 12.2094C6.35323 12.3189 6.27991 12.4832 6.27982 12.6596V17.3169C6.2799 17.6515 6.55362 17.9251 6.88821 17.9253H9.12064V15.3715C9.12072 15.2749 9.16375 15.1821 9.23978 15.1137C9.31575 15.0456 9.41857 15.0074 9.52591 15.0073H10.3384C10.4457 15.0074 10.5486 15.0456 10.6245 15.1137C10.7006 15.1821 10.7436 15.2749 10.7437 15.3715V17.9253H12.9761C13.3107 17.9251 13.5844 17.6515 13.5845 17.3169V12.6596C13.5844 12.4893 13.5111 12.325 13.3833 12.2094L10.3404 9.47018Z" fill="white"/>
</g>
<defs>
<clipPath id="clip0_11733_2425">
<rect x="0.5" width="24" height="24" rx="12" fill="white"/>
</clipPath>
</defs>
</svg>
