<svg width="20" height="20" viewBox="0 0 20 20" fill="none" xmlns="http://www.w3.org/2000/svg">
<path d="M9.99998 10.8332C9.77897 10.8332 9.567 10.921 9.41072 11.0772C9.25444 11.2335 9.16665 11.4455 9.16665 11.6665V14.1665C9.16665 14.3875 9.25444 14.5995 9.41072 14.7558C9.567 14.912 9.77897 14.9998 9.99998 14.9998C10.221 14.9998 10.433 14.912 10.5892 14.7558C10.7455 14.5995 10.8333 14.3875 10.8333 14.1665V11.6665C10.8333 11.4455 10.7455 11.2335 10.5892 11.0772C10.433 10.921 10.221 10.8332 9.99998 10.8332ZM14.1666 7.49984V5.83317C14.1666 4.7281 13.7277 3.66829 12.9463 2.88689C12.1649 2.10549 11.105 1.6665 9.99998 1.6665C8.89491 1.6665 7.8351 2.10549 7.0537 2.88689C6.2723 3.66829 5.83331 4.7281 5.83331 5.83317V7.49984C5.17027 7.49984 4.53439 7.76323 4.06555 8.23207C3.59671 8.70091 3.33331 9.3368 3.33331 9.99984V15.8332C3.33331 16.4962 3.59671 17.1321 4.06555 17.6009C4.53439 18.0698 5.17027 18.3332 5.83331 18.3332H14.1666C14.8297 18.3332 15.4656 18.0698 15.9344 17.6009C16.4033 17.1321 16.6666 16.4962 16.6666 15.8332V9.99984C16.6666 9.3368 16.4033 8.70091 15.9344 8.23207C15.4656 7.76323 14.8297 7.49984 14.1666 7.49984ZM7.49998 5.83317C7.49998 5.17013 7.76337 4.53424 8.23221 4.0654C8.70105 3.59656 9.33694 3.33317 9.99998 3.33317C10.663 3.33317 11.2989 3.59656 11.7677 4.0654C12.2366 4.53424 12.5 5.17013 12.5 5.83317V7.49984H7.49998V5.83317ZM15 15.8332C15 16.0542 14.9122 16.2661 14.7559 16.4224C14.5996 16.5787 14.3877 16.6665 14.1666 16.6665H5.83331C5.6123 16.6665 5.40034 16.5787 5.24406 16.4224C5.08778 16.2661 4.99998 16.0542 4.99998 15.8332V9.99984C4.99998 9.77882 5.08778 9.56686 5.24406 9.41058C5.40034 9.2543 5.6123 9.1665 5.83331 9.1665H14.1666C14.3877 9.1665 14.5996 9.2543 14.7559 9.41058C14.9122 9.56686 15 9.77882 15 9.99984V15.8332Z" fill="#737892"/>
</svg>
