<svg width="20" height="20" viewBox="0 0 20 20" fill="none" xmlns="http://www.w3.org/2000/svg">
<path fill-rule="evenodd" clip-rule="evenodd" d="M14.1399 1.75323C14.0436 1.7026 13.9351 1.67211 13.8199 1.66733C13.7987 1.66643 13.7775 1.66643 13.7562 1.66732C13.6214 1.67287 13.4957 1.71367 13.388 1.78074L9.61031 4.04734C9.38213 4.18426 9.24251 4.43085 9.24251 4.69696V6.50148L7.32176 5.54111C7.22545 5.49048 7.11691 5.45999 7.00173 5.45521C6.98051 5.45431 6.95927 5.45431 6.93807 5.4552C6.80323 5.46075 6.67748 5.50155 6.5698 5.56862L2.79213 7.83522C2.56394 7.97213 2.42432 8.21873 2.42432 8.48484V16.4394C2.00593 16.4394 1.66675 16.7786 1.66675 17.197C1.66675 17.6154 2.00593 17.9545 2.42432 17.9545H6.96575C6.96709 17.9545 6.96843 17.9545 6.96978 17.9545C6.97112 17.9545 6.97247 17.9545 6.97381 17.9545H13.7839C13.7853 17.9545 13.7866 17.9545 13.788 17.9545C13.7893 17.9545 13.7906 17.9545 13.792 17.9545H17.5758C17.9942 17.9545 18.3334 17.6154 18.3334 17.197C18.3334 16.7786 17.9942 16.4394 17.5758 16.4394L17.5758 3.93938C17.5758 3.65244 17.4137 3.39012 17.1571 3.26179L14.1399 1.75323ZM13.0304 3.76226L10.7577 5.12589V7.71201C10.7579 7.72255 10.7579 7.73312 10.7577 7.74369V16.4394H13.0304V3.76226ZM14.5455 16.4394V3.65002L16.0607 4.40759V16.4394H14.5455ZM7.72735 16.4394H9.24251V8.19547L7.72735 7.43789V16.4394ZM6.2122 7.55014L3.93948 8.91377V16.4394H6.2122V7.55014Z" fill="#8D9CBD"/>
</svg>
