<svg width="18" height="18" viewBox="0 0 18 18" fill="none" xmlns="http://www.w3.org/2000/svg">
<path fill-rule="evenodd" clip-rule="evenodd" d="M11.568 1.22998C11.7679 1.11004 12.0152 1.10054 12.2237 1.20479L14.951 2.56843C15.182 2.68393 15.3279 2.92001 15.3279 3.17827V14.7953C15.7044 14.7954 15.9926 15.0206 15.9926 15.3971C15.9926 15.7736 15.7044 15.9957 15.3278 15.9957H1.69143C1.31487 15.9957 1.03052 15.7752 1.03052 15.3986C1.03052 15.0221 1.31487 14.7953 1.69143 14.7953V7.63622C1.69143 7.39673 1.81709 7.17479 2.02246 7.05157L5.38691 4.87697C5.5868 4.75704 5.87875 4.87668 6.08726 4.98093L7.8279 5.90956V3.86009C7.8279 3.62059 7.95356 3.39865 8.15893 3.27543L11.568 1.22998ZM14.3277 3.51658V14.7953H12.3103V2.35146L14.3277 3.51658ZM11.2368 2.59847V14.7953H8.88625L8.74517 4.16563L11.2368 2.59847ZM7.8279 7.10141V14.7953H6.14545V6.18587L7.72034 7.05157C7.75638 7.06959 7.79229 7.08632 7.8279 7.10141ZM5.10048 6.39634V14.7953H2.68588V7.89765L5.10048 6.39634Z" fill="#717B9E"/>
</svg>
