<svg width="14" height="14" viewBox="0 0 14 14" fill="none" xmlns="http://www.w3.org/2000/svg">
<path d="M10.9461 6.43604H3.05417C2.43152 6.43604 1.92676 6.9408 1.92676 7.56345V11.5094C1.92676 12.1321 2.43152 12.6368 3.05417 12.6368H10.9461C11.5687 12.6368 12.0735 12.1321 12.0735 11.5094V7.56345C12.0735 6.9408 11.5687 6.43604 10.9461 6.43604Z" stroke="white" stroke-width="1.3" stroke-linecap="round" stroke-linejoin="round"/>
<path d="M4.18164 6.43616V4.18133C4.18164 3.43381 4.47859 2.7169 5.00717 2.18832C5.53575 1.65974 6.25265 1.36279 7.00018 1.36279C7.7477 1.36279 8.4646 1.65974 8.99318 2.18832C9.52176 2.7169 9.81871 3.43381 9.81871 4.18133V6.43616" stroke="white" stroke-width="1.3" stroke-linecap="round" stroke-linejoin="round"/>
</svg>
