<svg width="16" height="16" viewBox="0 0 16 16" fill="none" xmlns="http://www.w3.org/2000/svg">
<path d="M1.74658 3.83087H3.13628H14.2538" stroke="#F05537" stroke-width="1.01111" stroke-linecap="round" stroke-linejoin="round"/>
<path d="M5.22077 3.8309V2.44121C5.22077 2.07264 5.36719 1.71916 5.6278 1.45855C5.88842 1.19793 6.2419 1.05151 6.61047 1.05151H9.38986C9.75843 1.05151 10.1119 1.19793 10.3725 1.45855C10.6331 1.71916 10.7796 2.07264 10.7796 2.44121V3.8309M12.8641 3.8309V13.5588C12.8641 13.9273 12.7177 14.2808 12.4571 14.5414C12.1964 14.802 11.843 14.9485 11.4744 14.9485H4.52593C4.15736 14.9485 3.80388 14.802 3.54326 14.5414C3.28264 14.2808 3.13623 13.9273 3.13623 13.5588V3.8309H12.8641Z" stroke="#F05537" stroke-width="1.01111" stroke-linecap="round" stroke-linejoin="round"/>
<path d="M6.61035 7.30511V11.4742" stroke="#F05537" stroke-width="1.01111" stroke-linecap="round" stroke-linejoin="round"/>
<path d="M9.39014 7.30511V11.4742" stroke="#F05537" stroke-width="1.01111" stroke-linecap="round" stroke-linejoin="round"/>
</svg>
