<svg width="16" height="18" viewBox="0 0 16 18" fill="none" xmlns="http://www.w3.org/2000/svg">
<path d="M0.964844 4.30981H2.52825H15.0355" stroke="#121224" stroke-width="1.3" stroke-linecap="round" stroke-linejoin="round"/>
<path d="M4.87343 4.3098V2.74639C4.87343 2.33175 5.03815 1.93409 5.33134 1.64089C5.62454 1.3477 6.0222 1.18298 6.43684 1.18298H9.56365C9.97829 1.18298 10.376 1.3477 10.6691 1.64089C10.9623 1.93409 11.1271 2.33175 11.1271 2.74639V4.3098M13.4722 4.3098V15.2536C13.4722 15.6683 13.3075 16.0659 13.0143 16.3591C12.7211 16.6523 12.3234 16.8171 11.9088 16.8171H4.09173C3.67709 16.8171 3.27943 16.6523 2.98623 16.3591C2.69304 16.0659 2.52832 15.6683 2.52832 15.2536V4.3098H13.4722Z" stroke="#121224" stroke-width="1.3" stroke-linecap="round" stroke-linejoin="round"/>
<path d="M6.43652 8.21826V12.9085" stroke="#121224" stroke-width="1.3" stroke-linecap="round" stroke-linejoin="round"/>
<path d="M9.56348 8.21826V12.9085" stroke="#121224" stroke-width="1.3" stroke-linecap="round" stroke-linejoin="round"/>
</svg>
