<svg width="14" height="12" viewBox="0 0 14 12" fill="none" xmlns="http://www.w3.org/2000/svg">
<path d="M11.6663 0.666687H2.33301C1.80257 0.666687 1.29387 0.877401 0.918794 1.25247C0.543722 1.62755 0.333008 2.13625 0.333008 2.66669V9.33335C0.333008 9.86379 0.543722 10.3725 0.918794 10.7476C1.29387 11.1226 1.80257 11.3334 2.33301 11.3334H11.6663C12.1968 11.3334 12.7055 11.1226 13.0806 10.7476C13.4556 10.3725 13.6663 9.86379 13.6663 9.33335V2.66669C13.6663 2.13625 13.4556 1.62755 13.0806 1.25247C12.7055 0.877401 12.1968 0.666687 11.6663 0.666687ZM2.33301 2.00002H11.6663C11.8432 2.00002 12.0127 2.07026 12.1377 2.19528C12.2628 2.32031 12.333 2.48988 12.333 2.66669L6.99967 5.92002L1.66634 2.66669C1.66634 2.48988 1.73658 2.32031 1.8616 2.19528C1.98663 2.07026 2.1562 2.00002 2.33301 2.00002ZM12.333 9.33335C12.333 9.51016 12.2628 9.67973 12.1377 9.80476C12.0127 9.92978 11.8432 10 11.6663 10H2.33301C2.1562 10 1.98663 9.92978 1.8616 9.80476C1.73658 9.67973 1.66634 9.51016 1.66634 9.33335V4.18669L6.65301 7.23335C6.75435 7.29187 6.86932 7.32267 6.98634 7.32267C7.10337 7.32267 7.21833 7.29187 7.31967 7.23335L12.333 4.18669V9.33335Z" fill="#8292B4"/>
</svg>
