<svg width="14" height="15" viewBox="0 0 14 15" fill="none" xmlns="http://www.w3.org/2000/svg">
<path d="M10.2352 1.39813C9.65074 0.924334 8.96636 0.585117 8.23198 0.405232C7.4976 0.225347 6.73174 0.20933 5.99028 0.358351C5.00301 0.554921 4.09723 1.03613 3.38785 1.74094C2.67848 2.44574 2.19749 3.34236 2.00592 4.31704C1.86602 5.04784 1.89144 5.80007 2.08037 6.52008C2.2693 7.24009 2.61709 7.91013 3.09892 8.48243C3.54609 8.97981 3.8024 9.61586 3.82335 10.2801V12.1592C3.82335 12.6576 4.0242 13.1356 4.38172 13.488C4.73924 13.8404 5.22413 14.0384 5.72974 14.0384H8.2716C8.7772 14.0384 9.2621 13.8404 9.61962 13.488C9.97714 13.1356 10.178 12.6576 10.178 12.1592V10.3991C10.1993 9.66575 10.4727 8.96125 10.9533 8.401C11.7953 7.37423 12.1923 6.06138 12.0578 4.74775C11.9233 3.43412 11.2684 2.22588 10.2352 1.38561V1.39813ZM8.90706 12.1592C8.90706 12.3254 8.84011 12.4847 8.72094 12.6022C8.60177 12.7196 8.44013 12.7856 8.2716 12.7856H5.72974C5.5612 12.7856 5.39957 12.7196 5.2804 12.6022C5.16123 12.4847 5.09428 12.3254 5.09428 12.1592V11.5329H8.90706V12.1592ZM9.96829 7.62429C9.32933 8.37131 8.95654 9.30425 8.90706 10.2801H7.63613V8.401C7.63613 8.23487 7.56918 8.07555 7.45001 7.95809C7.33084 7.84062 7.1692 7.77462 7.00067 7.77462C6.83213 7.77462 6.6705 7.84062 6.55133 7.95809C6.43216 8.07555 6.3652 8.23487 6.3652 8.401V10.2801H5.09428C5.07751 9.32058 4.71741 8.39772 4.07753 7.6744C3.65536 7.17581 3.37146 6.57789 3.25353 5.93894C3.1356 5.29999 3.18766 4.64182 3.40463 4.02861C3.6216 3.4154 3.99608 2.86807 4.49155 2.44C4.98702 2.01192 5.58658 1.71771 6.23176 1.58605C6.78623 1.47351 7.35917 1.4841 7.90898 1.61703C8.45879 1.74997 8.97167 2.00191 9.41038 2.35458C9.84909 2.70724 10.2026 3.15178 10.4453 3.65591C10.688 4.16004 10.8138 4.71112 10.8135 5.26913C10.8182 6.12717 10.5193 6.96 9.96829 7.62429Z" fill="#474D6A"/>
</svg>
