<svg width="14" height="14" viewBox="0 0 14 14" fill="none" xmlns="http://www.w3.org/2000/svg">
<path d="M7 0.833455C6.53587 0.833455 6.09075 1.01783 5.76256 1.34602C5.43437 1.67421 5.25 2.11933 5.25 2.58346V7.25012C5.25 7.71425 5.43437 8.15937 5.76256 8.48756C6.09075 8.81575 6.53587 9.00012 7 9.00012C7.46413 9.00012 7.90925 8.81575 8.23744 8.48756C8.56563 8.15937 8.75 7.71425 8.75 7.25012V2.58346C8.75 2.11933 8.56563 1.67421 8.23744 1.34602C7.90925 1.01783 7.46413 0.833455 7 0.833455Z" fill="#474D6A"/>
<path d="M11.0832 5.8335V7.00016C11.0832 8.08313 10.653 9.12174 9.88719 9.88752C9.12142 10.6533 8.0828 11.0835 6.99984 11.0835C5.91687 11.0835 4.87826 10.6533 4.11248 9.88752C3.34671 9.12174 2.9165 8.08313 2.9165 7.00016V5.8335" stroke="#474D6A" stroke-width="0.887861" stroke-linecap="round" stroke-linejoin="round"/>
<path d="M7 11.0835V13.4168" stroke="#474D6A" stroke-width="0.887861" stroke-linecap="round" stroke-linejoin="round"/>
<path d="M4.6665 13.4165H9.33317" stroke="#474D6A" stroke-width="0.887861" stroke-linecap="round" stroke-linejoin="round"/>
</svg>
