<svg width="20" height="20" viewBox="0 0 20 20" fill="none" xmlns="http://www.w3.org/2000/svg">
<path d="M1.85791 3.25082H6.74309C7.60684 3.25082 8.43522 3.60029 9.04598 4.22237C9.65675 4.84445 9.99987 5.68816 9.99987 6.56791V18.1777C9.99987 17.5179 9.74253 16.8852 9.28446 16.4186C8.82638 15.952 8.2051 15.6899 7.55729 15.6899H1.85791V3.25082Z" stroke="#121224" stroke-width="1.44444" stroke-linecap="round" stroke-linejoin="round"/>
<path d="M18.1417 3.25082H13.2565C12.3928 3.25082 11.5644 3.60029 10.9536 4.22237C10.3429 4.84445 9.99976 5.68816 9.99976 6.56791V18.1777C9.99976 17.5179 10.2571 16.8852 10.7152 16.4186C11.1732 15.952 11.7945 15.6899 12.4423 15.6899H18.1417V3.25082Z" stroke="#121224" stroke-width="1.44444" stroke-linecap="round" stroke-linejoin="round"/>
</svg>
