<svg width="18" height="18" viewBox="0 0 18 18" fill="none" xmlns="http://www.w3.org/2000/svg">
<g clip-path="url(#clip0_201_5720)">
<path d="M5.62866 16.5037H3.37866C2.98084 16.5037 2.59931 16.3456 2.318 16.0643C2.0367 15.783 1.87866 15.4015 1.87866 15.0037V9.75366C1.87866 9.35584 2.0367 8.97431 2.318 8.693C2.59931 8.4117 2.98084 8.25366 3.37866 8.25366H5.62866M10.8787 6.75366V3.75366C10.8787 3.15693 10.6416 2.58463 10.2197 2.16267C9.7977 1.74072 9.2254 1.50366 8.62866 1.50366L5.62866 8.25366V16.5037H14.0887C14.4504 16.5078 14.8014 16.381 15.0771 16.1467C15.3527 15.9124 15.5344 15.5863 15.5887 15.2287L16.6237 8.47866C16.6563 8.26368 16.6418 8.04417 16.5812 7.83535C16.5205 7.62653 16.4152 7.43338 16.2726 7.2693C16.1299 7.10521 15.9532 6.97411 15.7548 6.88508C15.5565 6.79604 15.3411 6.7512 15.1237 6.75366H10.8787Z" stroke="#979EC2" stroke-width="1.5" stroke-linecap="round" stroke-linejoin="round"/>
</g>
<defs>
<clipPath id="clip0_201_5720">
<rect width="18" height="18" fill="white" transform="translate(0 0.00366211)"/>
</clipPath>
</defs>
</svg>
