<svg width="18" height="18" viewBox="0 0 18 18" fill="none" xmlns="http://www.w3.org/2000/svg">
<g clip-path="url(#clip0_201_5721)">
<path d="M12.3713 1.50366L14.6213 1.50366C15.0192 1.50366 15.4007 1.6617 15.682 1.943C15.9633 2.22431 16.1213 2.60584 16.1213 3.00366L16.1213 8.25366C16.1213 8.65149 15.9633 9.03302 15.682 9.31432C15.4007 9.59563 15.0192 9.75366 14.6213 9.75366L12.3713 9.75366M7.12134 11.2537L7.12134 14.2537C7.12134 14.8504 7.35839 15.4227 7.78035 15.8447C8.2023 16.2666 8.7746 16.5037 9.37134 16.5037L12.3713 9.75366L12.3713 1.50366L3.91134 1.50366C3.54959 1.49957 3.19856 1.62636 2.92291 1.86066C2.64726 2.09496 2.46558 2.42098 2.41134 2.77866L1.37634 9.52866C1.34371 9.74364 1.35821 9.96315 1.41883 10.172C1.47946 10.3808 1.58476 10.5739 1.72744 10.738C1.87013 10.9021 2.04678 11.0332 2.24516 11.1222C2.44354 11.2113 2.65891 11.2561 2.87634 11.2537L7.12134 11.2537Z" stroke="#979EC2" stroke-width="1.5" stroke-linecap="round" stroke-linejoin="round"/>
</g>
<defs>
<clipPath id="clip0_201_5721">
<rect width="18" height="18" fill="white" transform="translate(18 18.0037) rotate(-180)"/>
</clipPath>
</defs>
</svg>
