<svg width="18" height="18" viewBox="0 0 18 18" fill="none" xmlns="http://www.w3.org/2000/svg">
<path d="M16.1525 8.60263C16.1553 9.65157 15.9102 10.6863 15.4373 11.6226C14.8765 12.7446 14.0145 13.6882 12.9477 14.3479C11.881 15.0077 10.6516 15.3573 9.39734 15.3578C8.3484 15.3606 7.31365 15.1155 6.37737 14.6426L1.84741 16.1526L3.3574 11.6226C2.88448 10.6863 2.63941 9.65157 2.64214 8.60263C2.64263 7.34835 2.99231 6.11898 3.65202 5.05222C4.31173 3.98545 5.25541 3.12343 6.37737 2.56269C7.31365 2.08977 8.3484 1.8447 9.39734 1.84743H9.7947C11.4512 1.93882 13.0158 2.638 14.1889 3.8111C15.362 4.98419 16.0611 6.54877 16.1525 8.20526V8.60263Z" stroke="#717B9E" stroke-width="1.3" stroke-linecap="round" stroke-linejoin="round"/>
</svg>
