<svg width="18" height="18" viewBox="0 0 18 18" fill="none" xmlns="http://www.w3.org/2000/svg">
<path d="M8.99991 2.24944L9.18073 2.38854C9.18068 2.38861 9.18062 2.38868 9.18057 2.38876L9.18073 2.38854L8.99991 2.24944ZM8.99991 2.24944L8.81909 2.38854C8.81914 2.38861 8.8192 2.38868 8.81925 2.38876L8.81909 2.38854L8.99991 2.24944ZM1.77573 15.6879C1.77573 15.4779 1.94596 15.3077 2.15595 15.3077H15.8439C16.0539 15.3077 16.2241 15.4779 16.2241 15.6879C16.2241 15.8979 16.0539 16.0681 15.8439 16.0681H2.15595C1.94596 16.0681 1.77573 15.8979 1.77573 15.6879ZM1.77573 5.01159L4.86055 7.17097C5.09377 7.33422 5.41416 7.28509 5.58773 7.05944L8.99991 2.62361L12.4121 7.05944L12.7135 6.82762L12.4121 7.05944C12.5857 7.28508 12.906 7.33423 13.1393 7.17097L16.2241 5.01159V13.0264H1.77573V5.01159ZM3.37373 7.0582C3.02093 6.81123 2.53617 7.06363 2.53617 7.49428V11.7336C2.53617 12.0276 2.77449 12.2659 3.06848 12.2659H14.9313C15.2253 12.2659 15.4637 12.0276 15.4637 11.7336V7.49428C15.4637 7.06363 14.9789 6.81124 14.6261 7.0582L12.5625 8.50271L9.42186 4.41919C9.20878 4.14214 8.79104 4.14214 8.57796 4.41919L5.43733 8.50271L3.37373 7.0582Z" fill="#717B9E" stroke="#717B9E" stroke-width="0.76044"/>
</svg>
