<svg width="17" height="18" viewBox="0 0 17 18" fill="none" xmlns="http://www.w3.org/2000/svg">
<path d="M16.0772 10.1651L14.208 8.32672C14.208 8.32668 14.2079 8.32663 14.2079 8.32659C13.7534 7.87482 13.4303 7.27133 13.297 6.55213L13.2969 6.55148C13.0005 5.01919 12.1302 3.7215 10.8056 2.87655L10.8053 2.87638C10.1735 2.47665 9.48585 2.2061 8.7786 2.06477C8.7736 1.98388 8.76083 1.90973 8.74771 1.83353C8.74535 1.81983 8.74298 1.80606 8.74064 1.79218L8.74065 1.79218L8.74043 1.791C8.53682 0.678177 7.43938 -0.0466593 6.32436 0.154909C5.20598 0.35707 4.47582 1.4472 4.67846 2.55653C4.69526 2.65655 4.72603 2.74497 4.75667 2.83303C4.75682 2.83344 4.75696 2.83386 4.75711 2.83428C3.30595 3.74348 2.30241 5.2972 2.12671 7.06215C2.06752 7.61171 2.08705 8.14337 2.20594 8.67577C2.33899 9.33754 2.28111 9.95694 2.01737 10.5187L2.01735 10.5187L2.01666 10.5203L0.965194 12.8816L0.965151 12.8817C0.660473 13.5682 0.761594 14.3759 1.22905 14.9621C1.61556 15.4671 2.20518 15.7496 2.83435 15.7496C2.95903 15.7496 3.08244 15.7291 3.19783 15.7099L3.19875 15.7097L3.19875 15.7097L3.20006 15.7095L4.07891 15.5491C4.46368 16.8034 5.62643 17.6464 6.92356 17.6464C7.10506 17.6464 7.28566 17.6264 7.48457 17.5868C8.26701 17.447 8.94809 16.9885 9.38862 16.3517C9.77441 15.7956 9.93762 15.1652 9.89615 14.5156L15 13.6191L15.001 13.6189C15.7511 13.4778 16.3616 12.9531 16.5855 12.2248C16.7847 11.5769 16.6606 10.8797 16.2416 10.3495L16.2694 10.3541L16.0772 10.1651ZM5.81017 2.30317C5.77299 2.07535 5.82677 1.86271 5.96131 1.66155C6.10623 1.46411 6.30287 1.32312 6.55197 1.27009L6.55198 1.27009C6.79942 1.2174 7.02907 1.26884 7.2453 1.41171C7.43212 1.54717 7.5685 1.72792 7.62845 1.95443C7.22378 1.96219 6.8202 2.01962 6.41813 2.11047L6.41812 2.11046L6.41636 2.11089C6.20166 2.16424 6.00342 2.23359 5.81017 2.30317ZM8.74905 14.7203C8.74622 15.0711 8.63631 15.4063 8.43134 15.7125L8.43089 15.7132C8.15215 16.1196 7.74376 16.3784 7.25867 16.4713C6.37952 16.6316 5.51863 16.139 5.20738 15.3436L8.74905 14.7203ZM2.01625 13.3379L2.01631 13.3378L3.06778 10.9764L3.06797 10.976C3.40603 10.2051 3.50519 9.33595 3.3268 8.44839C3.25049 8.03053 3.23131 7.59356 3.26952 7.17577C3.4609 5.27564 4.83757 3.68041 6.67076 3.24385L6.67076 3.24388L6.67258 3.2434C7.03444 3.14873 7.39705 3.11062 7.76108 3.11062C8.62096 3.11062 9.46161 3.35754 10.1876 3.83228L10.1876 3.83229L10.1887 3.83297C11.2397 4.49775 11.9464 5.54166 12.1757 6.7767L12.1758 6.77726C12.3538 7.70144 12.77 8.53088 13.4073 9.14469C13.4074 9.14479 13.4075 9.14489 13.4076 9.14499L15.2761 10.9827C15.2761 10.9828 15.2762 10.9828 15.2762 10.9829C15.5065 11.2119 15.5958 11.5461 15.4888 11.8833C15.3813 12.203 15.1329 12.4322 14.7941 12.5036L2.99565 14.5936C2.65592 14.6466 2.33613 14.5228 2.12169 14.2564C1.90937 13.9926 1.87263 13.6591 2.01625 13.3379Z" fill="#717B9E" stroke="#717B9E" stroke-width="0.170058"/>
</svg>
