<?xml version="1.0" encoding="UTF-8"?>
<svg id="a" xmlns="http://www.w3.org/2000/svg" viewBox="0 0 18 18">
  <path d="m7.26129,17.03713c-.09894,0-.19884-.02113-.29202-.06532-.24207-.11335-.39673-.35638-.39673-.62343v-4.35822l-4.50807,3.76649c-.20653.17195-.49182.21037-.73389.0951-.24207-.11335-.39673-.35638-.39673-.62343V3.13636c0-.26368.15081-.50383.38712-.6191.23823-.11479.51968-.08549.72621.07733l4.52536,3.5494V1.59365c0-.26368.15081-.50383.38712-.6191.23727-.11383.51968-.08597.72621.07733l9.11604,7.14923c.16426.12824.26032.32372.26416.53121.00288.20797-.08837.40633-.24783.53937l-9.11604,7.60503c-.12584.10567-.28241.16042-.44091.16042Zm0-7.2083c.09894,0,.19884.02113.29202.06532.24207.11335.39673.35638.39673.62343v4.35918l7.33222-6.11755L7.95004,3.00861v4.55082c0,.26368-.15081.50383-.38712.6191-.23631.11575-.51968.08597-.72621-.07733l-4.52536-3.5494v9.20394l4.50807-3.76649c.1268-.10567.28338-.16042.44187-.16042Z" fill="#717b9e"/>
</svg>