<?xml version="1.0" encoding="UTF-8"?>
<svg id="a" xmlns="http://www.w3.org/2000/svg" viewBox="0 0 18 18">
  <path d="m9,16.36719c-.35889,0-.6499-.29102-.6499-.65039,0-.4209-.16699-.83105-.45752-1.12793-.29248-.29688-.67969-.46094-1.09082-.46094H1.67236c-.35889,0-.6499-.29102-.6499-.65039V2.28271c0-.35889.29102-.6499.6499-.6499h4.39697c.9585,0,1.85938.37939,2.53613,1.06885.67334.68555,1.04443,1.59717,1.04443,2.56641v10.44873c0,.35938-.29102.65039-.6499.65039Zm-6.67773-3.54004h4.47949c.54883,0,1.08984.16602,1.54834.46582V5.26807c0-.61719-.24512-1.2207-.67236-1.65527-.43018-.43848-1.00146-.68018-1.6084-.68018h-3.74707v9.89453Z" fill="#717b9e"/>
  <path d="m9,16.36719c-.35889,0-.6499-.29102-.6499-.65039V5.26807c0-.96875.37109-1.87988,1.04443-2.56641.66699-.6792,1.5918-1.06885,2.53662-1.06885h4.39648c.35889,0,.6499.29102.6499.6499v11.19482c0,.35938-.29102.65039-.6499.65039h-5.12939c-.41113,0-.79834.16309-1.09033.46094-.29102.29688-.45801.70801-.45801,1.12793,0,.35938-.29102.65039-.6499.65039Zm2.93115-13.43457c-.60693,0-1.17871.2417-1.60889.68018-.42725.43506-.67236,1.03857-.67236,1.65527v8.0249c.4585-.2998.99902-.46582,1.54834-.46582h4.47949V2.93262h-3.74658Z" fill="#717b9e"/>
</svg>