<svg width="18" height="18" viewBox="0 0 18 18" fill="none" xmlns="http://www.w3.org/2000/svg">
<path d="M14.0733 8.27539H3.92658C3.12603 8.27539 2.47705 8.92437 2.47705 9.72492V14.7983C2.47705 15.5988 3.12603 16.2478 3.92658 16.2478H14.0733C14.8739 16.2478 15.5228 15.5988 15.5228 14.7983V9.72492C15.5228 8.92437 14.8739 8.27539 14.0733 8.27539Z" stroke="#717B9E" stroke-width="1.3" stroke-linecap="round" stroke-linejoin="round"/>
<path d="M5.37622 8.27534V5.37627C5.37622 4.41517 5.75802 3.49344 6.43762 2.81384C7.11722 2.13424 8.03895 1.75244 9.00005 1.75244C9.96115 1.75244 10.8829 2.13424 11.5625 2.81384C12.2421 3.49344 12.6239 4.41517 12.6239 5.37627V8.27534" stroke="#717B9E" stroke-width="1.3" stroke-linecap="round" stroke-linejoin="round"/>
</svg>
