<svg width="18" height="18" viewBox="0 0 18 18" fill="none" xmlns="http://www.w3.org/2000/svg">
<g clip-path="url(#clip0_2258_51132)">
<path d="M9.00031 11.2689C10.2534 11.2689 11.2692 10.2531 11.2692 9.00007C11.2692 7.74701 10.2534 6.7312 9.00031 6.7312C7.74725 6.7312 6.73145 7.74701 6.73145 9.00007C6.73145 10.2531 7.74725 11.2689 9.00031 11.2689Z" stroke="#717B9E" stroke-width="1.3" stroke-linecap="round" stroke-linejoin="round"/>
<path d="M14.5964 11.2689C14.4957 11.497 14.4657 11.7501 14.5101 11.9954C14.5546 12.2408 14.6716 12.4671 14.8459 12.6454L14.8913 12.6908C15.032 12.8312 15.1435 12.9981 15.2196 13.1817C15.2958 13.3653 15.3349 13.5621 15.3349 13.7609C15.3349 13.9597 15.2958 14.1565 15.2196 14.3401C15.1435 14.5238 15.032 14.6906 14.8913 14.8311C14.7508 14.9717 14.584 15.0833 14.4004 15.1594C14.2168 15.2355 14.0199 15.2747 13.8212 15.2747C13.6224 15.2747 13.4256 15.2355 13.2419 15.1594C13.0583 15.0833 12.8915 14.9717 12.751 14.8311L12.7056 14.7857C12.5274 14.6113 12.301 14.4944 12.0557 14.4499C11.8103 14.4054 11.5573 14.4354 11.3292 14.5361C11.1055 14.632 10.9147 14.7912 10.7804 14.9941C10.646 15.197 10.5739 15.4347 10.5729 15.6781V15.8067C10.5729 16.2078 10.4136 16.5926 10.1299 16.8762C9.84622 17.1599 9.4615 17.3192 9.06033 17.3192C8.65917 17.3192 8.27445 17.1599 7.99078 16.8762C7.70712 16.5926 7.54776 16.2078 7.54776 15.8067V15.7386C7.5419 15.4883 7.46088 15.2455 7.31521 15.0418C7.16954 14.8382 6.96597 14.683 6.73097 14.5966C6.50286 14.4959 6.24982 14.4659 6.00449 14.5104C5.75915 14.5549 5.53277 14.6718 5.35452 14.8462L5.30915 14.8916C5.16867 15.0322 5.00185 15.1438 4.81823 15.2199C4.6346 15.296 4.43777 15.3352 4.239 15.3352C4.04022 15.3352 3.8434 15.296 3.65977 15.2199C3.47615 15.1438 3.30933 15.0322 3.16885 14.8916C3.02822 14.7511 2.91665 14.5843 2.84053 14.4006C2.76441 14.217 2.72523 14.0202 2.72523 13.8214C2.72523 13.6226 2.76441 13.4258 2.84053 13.2422C2.91665 13.0586 3.02822 12.8917 3.16885 12.7513L3.21423 12.7059C3.38858 12.5276 3.50554 12.3013 3.55002 12.0559C3.59451 11.8106 3.56448 11.5576 3.4638 11.3294C3.36793 11.1058 3.20875 10.915 3.00585 10.7806C2.80294 10.6462 2.56517 10.5741 2.32181 10.5732H2.19324C1.79208 10.5732 1.40735 10.4138 1.12369 10.1301C0.840024 9.84647 0.680664 9.46174 0.680664 9.06058C0.680664 8.65942 0.840024 8.27469 1.12369 7.99103C1.40735 7.70736 1.79208 7.548 2.19324 7.548H2.26131C2.51163 7.54215 2.75441 7.46112 2.95807 7.31545C3.16174 7.16979 3.31687 6.96622 3.4033 6.73121C3.50397 6.5031 3.53401 6.25007 3.48952 6.00473C3.44504 5.75939 3.32808 5.53301 3.15373 5.35477L3.10835 5.30939C2.96771 5.16891 2.85615 5.00209 2.78003 4.81847C2.70391 4.63485 2.66473 4.43802 2.66473 4.23924C2.66473 4.04047 2.70391 3.84364 2.78003 3.66002C2.85615 3.47639 2.96771 3.30957 3.10835 3.1691C3.24883 3.02846 3.41565 2.9169 3.59927 2.84078C3.78289 2.76466 3.97972 2.72548 4.1785 2.72548C4.37727 2.72548 4.5741 2.76466 4.75772 2.84078C4.94135 2.9169 5.10817 3.02846 5.24864 3.1691L5.29402 3.21447C5.47226 3.38883 5.69865 3.50578 5.94398 3.55027C6.18932 3.59475 6.44236 3.56472 6.67047 3.46405H6.73097C6.95465 3.36818 7.14543 3.20899 7.2798 3.00609C7.41417 2.80318 7.48629 2.56542 7.48726 2.32205V2.19348C7.48726 1.79232 7.64662 1.40759 7.93028 1.12393C8.21394 0.840268 8.59867 0.680908 8.99983 0.680908C9.40099 0.680908 9.78572 0.840268 10.0694 1.12393C10.353 1.40759 10.5124 1.79232 10.5124 2.19348V2.26155C10.5134 2.50491 10.5855 2.74268 10.7199 2.94559C10.8542 3.14849 11.045 3.30768 11.2687 3.40354C11.4968 3.50422 11.7498 3.53425 11.9952 3.48977C12.2405 3.44528 12.4669 3.32832 12.6451 3.15397L12.6905 3.10859C12.831 2.96796 12.9978 2.85639 13.1814 2.78027C13.3651 2.70415 13.5619 2.66497 13.7607 2.66497C13.9594 2.66497 14.1563 2.70415 14.3399 2.78027C14.5235 2.85639 14.6903 2.96796 14.8308 3.10859C14.9714 3.24907 15.083 3.41589 15.1591 3.59951C15.2353 3.78314 15.2744 3.97996 15.2744 4.17874C15.2744 4.37752 15.2353 4.57434 15.1591 4.75797C15.083 4.94159 14.9714 5.10841 14.8308 5.24889L14.7854 5.29426C14.6111 5.47251 14.4941 5.69889 14.4496 5.94423C14.4052 6.18956 14.4352 6.4426 14.5359 6.67071V6.73121C14.6317 6.9549 14.7909 7.14567 14.9938 7.28004C15.1967 7.41442 15.4345 7.48653 15.6779 7.4875H15.8064C16.2076 7.4875 16.5923 7.64686 16.876 7.93052C17.1596 8.21419 17.319 8.59892 17.319 9.00008C17.319 9.40124 17.1596 9.78597 16.876 10.0696C16.5923 10.3533 16.2076 10.5127 15.8064 10.5127H15.7384C15.495 10.5136 15.2572 10.5857 15.0543 10.7201C14.8514 10.8545 14.6922 11.0453 14.5964 11.2689V11.2689Z" stroke="#717B9E" stroke-width="1.3" stroke-linecap="round" stroke-linejoin="round"/>
</g>
<defs>
<clipPath id="clip0_2258_51132">
<rect width="18" height="18" fill="white"/>
</clipPath>
</defs>
</svg>
