<svg width="260" height="131" viewBox="0 0 260 131" fill="none" xmlns="http://www.w3.org/2000/svg">
<path d="M171.345 59.9552C172.82 57.5027 176.014 56.6975 178.374 58.3169C189.283 65.8033 198.346 75.7106 204.838 87.2913C211.331 98.8721 215.055 111.773 215.75 124.985C215.901 127.843 213.547 130.148 210.685 130.127V130.127C207.824 130.105 205.539 127.766 205.365 124.909C204.671 113.499 201.41 102.369 195.798 92.3595C190.186 82.3499 182.392 73.761 173.021 67.216C170.675 65.5773 169.87 62.4078 171.345 59.9552V59.9552Z" fill="#47B749" fill-opacity="0.15"/>
<path d="M48.3197 129.526C45.4577 129.526 43.1215 127.204 43.2931 124.347C44.0864 111.141 47.9055 98.2679 54.4835 86.7355C61.0614 75.2031 70.1974 65.3631 81.1611 57.9575C83.5327 56.3556 86.7208 57.1844 88.1776 59.6478V59.6478C89.6345 62.1111 88.8067 65.2747 86.4484 66.8959C77.0286 73.3715 69.1714 81.9025 63.4859 91.8704C57.8003 101.838 54.4569 112.944 53.6782 124.348C53.4832 127.203 51.1816 129.526 48.3197 129.526V129.526Z" fill="#47B749"/>
<path d="M89.4409 58.9159C88.0286 56.4267 88.8955 53.2488 91.4649 51.9883C103.343 46.1611 116.424 43.1303 129.7 43.1605C142.977 43.1907 156.043 46.281 167.895 52.1622C170.458 53.4344 171.311 56.6162 169.887 59.099V59.099C168.464 61.5817 165.304 62.4229 162.73 61.1717C152.449 56.1744 141.152 53.5505 129.677 53.5244C118.201 53.4983 106.892 56.0708 96.5889 61.0213C94.0093 62.2607 90.8532 61.4051 89.4409 58.9159V58.9159Z" fill="#47B749"/>
<path d="M171.345 59.9552C172.82 57.5027 176.014 56.6976 178.374 58.3169C191.45 67.2903 201.804 79.6942 208.298 94.1625C209.469 96.7735 208.107 99.7725 205.43 100.786V100.786C202.754 101.799 199.779 100.441 198.585 97.8398C192.943 85.5387 184.116 74.9647 173.021 67.216C170.675 65.5774 169.87 62.4078 171.345 59.9552V59.9552Z" fill="#47B749"/>
<g clip-path="url(#clip0_8027_3156)">
<circle cx="129.047" cy="131.196" r="115.431" stroke="url(#paint0_linear_8027_3156)" stroke-opacity="0.3" stroke-width="0.797619"/>
<circle cx="129.899" cy="132.043" r="129.058" stroke="url(#paint1_linear_8027_3156)" stroke-opacity="0.2" stroke-width="0.797619"/>
<circle cx="129.048" cy="128.197" r="98.3969" stroke="url(#paint2_linear_8027_3156)" stroke-opacity="0.6" stroke-width="0.797619"/>
</g>
<defs>
<linearGradient id="paint0_linear_8027_3156" x1="129.047" y1="15.3667" x2="129.047" y2="247.026" gradientUnits="userSpaceOnUse">
<stop stop-color="#47B749"/>
<stop offset="1" stop-color="white" stop-opacity="0"/>
</linearGradient>
<linearGradient id="paint1_linear_8027_3156" x1="129.899" y1="2.58643" x2="129.899" y2="261.499" gradientUnits="userSpaceOnUse">
<stop stop-color="#47B749"/>
<stop offset="1" stop-color="white" stop-opacity="0"/>
</linearGradient>
<linearGradient id="paint2_linear_8027_3156" x1="129.048" y1="29.4009" x2="129.048" y2="226.992" gradientUnits="userSpaceOnUse">
<stop stop-color="#47B749"/>
<stop offset="1" stop-color="white" stop-opacity="0"/>
</linearGradient>
<clipPath id="clip0_8027_3156">
<rect width="258.61" height="129" fill="white" transform="translate(0.442871 0.92627)"/>
</clipPath>
</defs>
</svg>
