<svg width="260" height="131" viewBox="0 0 260 131" fill="none" xmlns="http://www.w3.org/2000/svg">
<path d="M171.414 59.9552C172.889 57.5027 176.083 56.6975 178.443 58.3169C189.351 65.8033 198.415 75.7106 204.907 87.2913C211.4 98.8721 215.123 111.773 215.819 124.985C215.969 127.843 213.616 130.148 210.754 130.127V130.127C207.892 130.105 205.608 127.766 205.434 124.909C204.74 113.499 201.479 102.369 195.867 92.3595C190.255 82.3499 182.461 73.761 173.09 67.216C170.743 65.5773 169.939 62.4078 171.414 59.9552V59.9552Z" fill="#47B749"/>
<path d="M48.3885 129.526C45.5266 129.526 43.1903 127.204 43.3619 124.347C44.1553 111.141 47.9743 98.2679 54.5523 86.7355C61.1303 75.2031 70.2663 65.3631 81.2299 57.9575C83.6015 56.3556 86.7896 57.1844 88.2465 59.6478V59.6478C89.7033 62.1111 88.8756 65.2747 86.5172 66.8959C77.0974 73.3715 69.2403 81.9025 63.5547 91.8704C57.8692 101.838 54.5258 112.944 53.747 124.348C53.5521 127.203 51.2504 129.526 48.3885 129.526V129.526Z" fill="#47B749"/>
<path d="M89.5097 58.9159C88.0974 56.4267 88.9643 53.2488 91.5337 51.9883C103.412 46.1611 116.493 43.1303 129.769 43.1605C143.046 43.1907 156.112 46.281 167.964 52.1622C170.527 53.4344 171.38 56.6162 169.956 59.099V59.099C168.533 61.5817 165.373 62.4229 162.799 61.1717C152.518 56.1744 141.221 53.5505 129.745 53.5244C118.27 53.4983 106.961 56.0708 96.6577 61.0213C94.0781 62.2607 90.922 61.4051 89.5097 58.9159V58.9159Z" fill="#47B749"/>
<g clip-path="url(#clip0_8027_3167)">
<circle cx="129.116" cy="131.196" r="115.431" stroke="url(#paint0_linear_8027_3167)" stroke-opacity="0.3" stroke-width="0.797619"/>
<circle cx="129.968" cy="132.043" r="129.058" stroke="url(#paint1_linear_8027_3167)" stroke-opacity="0.2" stroke-width="0.797619"/>
<circle cx="129.116" cy="128.197" r="98.3969" stroke="url(#paint2_linear_8027_3167)" stroke-opacity="0.6" stroke-width="0.797619"/>
</g>
<defs>
<linearGradient id="paint0_linear_8027_3167" x1="129.116" y1="15.3667" x2="129.116" y2="247.026" gradientUnits="userSpaceOnUse">
<stop stop-color="#47B749"/>
<stop offset="1" stop-color="white" stop-opacity="0"/>
</linearGradient>
<linearGradient id="paint1_linear_8027_3167" x1="129.968" y1="2.58643" x2="129.968" y2="261.499" gradientUnits="userSpaceOnUse">
<stop stop-color="#47B749"/>
<stop offset="1" stop-color="white" stop-opacity="0"/>
</linearGradient>
<linearGradient id="paint2_linear_8027_3167" x1="129.116" y1="29.4009" x2="129.116" y2="226.992" gradientUnits="userSpaceOnUse">
<stop stop-color="#47B749"/>
<stop offset="1" stop-color="white" stop-opacity="0"/>
</linearGradient>
<clipPath id="clip0_8027_3167">
<rect width="258.61" height="129" fill="white" transform="translate(0.511475 0.92627)"/>
</clipPath>
</defs>
</svg>
