<svg id="Layer_1" data-name="Layer 1" xmlns="http://www.w3.org/2000/svg" viewBox="0 0 37.64 37.51"><path d="M28.09,29.42H7.64a2.29,2.29,0,0,1-2.28-2.3V10.92a.5.5,0,0,1,.5-.5h4.65V4.92a.5.5,0,0,1,.5-.5H29.87a.5.5,0,0,1,.49.5v22.2A2.29,2.29,0,0,1,28.09,29.42Zm-21.73-18v15.7a1.29,1.29,0,0,0,1.28,1.3H28.09a1.29,1.29,0,0,0,1.28-1.3V5.42H11.51V25.25a.5.5,0,0,1-.5.5.5.5,0,0,1-.5-.5V11.42H6.36Z"/><path d="M27.29,19.33H13.36a.5.5,0,0,1-.5-.5.5.5,0,0,1,.5-.5H27.29a.5.5,0,0,1,.5.5A.5.5,0,0,1,27.29,19.33Z"/><path d="M27.29,24.45H13.36a.5.5,0,0,1-.5-.5.5.5,0,0,1,.5-.5H27.29a.5.5,0,0,1,.5.5A.5.5,0,0,1,27.29,24.45Z"/><path d="M27.29,15.82H13.36a.5.5,0,0,1-.5-.5V9.66a.5.5,0,0,1,.5-.5H27.29a.5.5,0,0,1,.5.5v5.66A.5.5,0,0,1,27.29,15.82Zm-13.44-1H26.79V10.16H13.85Z"/></svg>