<svg width="12" height="12" viewBox="0 0 12 12" fill="none" xmlns="http://www.w3.org/2000/svg">
<path d="M6 6.5C6.13261 6.5 6.25978 6.44732 6.35355 6.35355C6.44732 6.25979 6.5 6.13261 6.5 6L6.5 4C6.5 3.86739 6.44732 3.74021 6.35355 3.64645C6.25978 3.55268 6.13261 3.5 6 3.5C5.86739 3.5 5.74021 3.55268 5.64644 3.64645C5.55268 3.74021 5.5 3.86739 5.5 4L5.5 6C5.5 6.13261 5.55268 6.25979 5.64644 6.35355C5.74021 6.44732 5.86739 6.5 6 6.5ZM5.81 8.46C5.93173 8.51001 6.06827 8.51001 6.19 8.46C6.25137 8.4362 6.30745 8.40052 6.355 8.355C6.39916 8.3064 6.43468 8.25059 6.46 8.19C6.48799 8.13066 6.50169 8.06559 6.5 8C6.50038 7.9342 6.48777 7.86897 6.46288 7.80805C6.438 7.74713 6.40134 7.69172 6.355 7.645C6.3064 7.60083 6.25059 7.56532 6.19 7.54C6.11425 7.50888 6.03201 7.49684 5.95052 7.50494C5.86903 7.51305 5.79078 7.54104 5.72264 7.58647C5.6545 7.63189 5.59856 7.69336 5.55974 7.76546C5.52092 7.83757 5.50041 7.91811 5.5 8C5.50184 8.13238 5.55363 8.25918 5.645 8.355C5.69255 8.40052 5.74862 8.4362 5.81 8.46ZM6 11C6.9889 11 7.9556 10.7068 8.77785 10.1573C9.60009 9.60794 10.241 8.82705 10.6194 7.91342C10.9978 6.99979 11.0969 5.99445 10.9039 5.02455C10.711 4.05464 10.2348 3.16373 9.53553 2.46447C8.83627 1.7652 7.94535 1.289 6.97545 1.09607C6.00554 0.903148 5.00021 1.00216 4.08658 1.3806C3.17295 1.75904 2.39206 2.3999 1.84265 3.22215C1.29324 4.04439 0.999998 5.01109 0.999998 6C0.999998 6.65661 1.12933 7.30679 1.3806 7.91342C1.63187 8.52004 2.00017 9.07124 2.46446 9.53553C2.92876 9.99983 3.47995 10.3681 4.08658 10.6194C4.69321 10.8707 5.34339 11 6 11ZM6 2C6.79112 2 7.56448 2.2346 8.22228 2.67412C8.88008 3.11365 9.39277 3.73836 9.69552 4.46927C9.99827 5.20017 10.0775 6.00444 9.92314 6.78036C9.7688 7.55629 9.38784 8.26902 8.82842 8.82843C8.26901 9.38784 7.55628 9.7688 6.78036 9.92314C6.00443 10.0775 5.20017 9.99827 4.46926 9.69552C3.73836 9.39277 3.11364 8.88008 2.67412 8.22228C2.23459 7.56448 2 6.79112 2 6C2 4.93913 2.42142 3.92172 3.17157 3.17157C3.92172 2.42143 4.93913 2 6 2Z" fill="#717B9E"/>
</svg>
