<svg width="25" height="24" viewBox="0 0 25 24" fill="none" xmlns="http://www.w3.org/2000/svg">
<rect x="0.772727" y="0.272727" width="23.4545" height="23.4545" rx="11.7273" fill="#8951FF"/>
<rect x="0.772727" y="0.272727" width="23.4545" height="23.4545" rx="11.7273" stroke="#8951FF" stroke-width="0.545455"/>
<path d="M10.5931 6.5H14.6507C16.3503 6.49189 17.602 7.23075 18.4828 8.6582V8.65918C19.0254 9.56145 19.2698 10.6096 19.1849 11.6553L19.1644 11.8643C19.0272 12.9772 18.5212 14.0119 17.7279 14.8047C16.9823 15.5366 15.9897 15.9586 14.9505 15.9902L14.7425 15.9912H13.6986V15.9922C13.4743 15.986 13.2563 16.0647 13.0902 16.2139L13.0316 16.2725C12.2644 17.0805 11.4674 17.9072 10.7015 18.7158L10.6927 18.7256L10.683 18.7363C10.6316 18.7966 10.557 18.8306 10.4779 18.832C10.4393 18.8312 10.402 18.8203 10.3705 18.7988L10.3402 18.7734H10.3392C10.3112 18.7447 10.2933 18.708 10.2865 18.6689L10.2835 18.6299V16.5859C10.2835 16.4957 10.2763 16.304 10.141 16.1338C10.0146 15.9749 9.84563 15.9206 9.74057 15.8975H9.74155C8.02218 15.4555 6.97939 14.3565 6.45737 12.6631C6.37487 12.3439 6.30937 12.0209 6.25912 11.6953V10.79C6.28282 10.5834 6.3177 10.3782 6.36557 10.1758L6.42026 9.96777V9.96582C6.84995 8.40485 7.7543 7.30965 9.26401 6.73242C9.636 6.5945 10.0274 6.51738 10.4232 6.50293L10.5931 6.5Z" fill="white" stroke="white"/>
<path d="M12.7341 13.1917H11.8323V13.0049C11.8323 12.2656 12.2873 11.8837 12.7179 11.5507C13.0834 11.2582 13.4165 10.982 13.4165 10.5108C13.4165 9.95835 13.0753 9.59277 12.5066 9.59277C11.9298 9.59277 11.5318 10.0233 11.5318 10.6489H10.5C10.5 9.48715 11.353 8.66663 12.531 8.66663C13.7415 8.66663 14.4727 9.36529 14.4727 10.4458C14.4727 11.3151 13.9121 11.7294 13.4409 12.0625C13.0428 12.3468 12.7341 12.5905 12.7341 13.0049V13.1917ZM12.3198 14.8165C11.9542 14.8165 11.6617 14.5241 11.6617 14.1747C11.6617 13.8173 11.9542 13.5248 12.3198 13.5248C12.6772 13.5248 12.9778 13.8173 12.9778 14.1747C12.9778 14.5159 12.6772 14.8165 12.3198 14.8165Z" fill="#8951FF"/>
</svg>
