<svg width="196" height="98" viewBox="0 0 196 98" fill="none" xmlns="http://www.w3.org/2000/svg">
<path d="M196 98C196 85.1305 193.465 72.3869 188.54 60.497C183.615 48.6071 176.397 37.8037 167.296 28.7035C158.196 19.6034 147.393 12.3848 135.503 7.4598C123.613 2.53484 110.87 -5.62546e-07 98 0C85.1305 5.62546e-07 72.3869 2.53485 60.497 7.45981C48.6071 12.3848 37.8037 19.6034 28.7035 28.7035C19.6034 37.8037 12.3848 48.6071 7.4598 60.497C2.53484 72.3869 -1.12509e-06 85.1305 0 98L98 98H196Z" fill="url(#paint0_linear_1274_2874)"/>
<path d="M41.6989 29.4028C38.5824 41.1927 39.5136 63.6236 68.1699 59.0278" stroke="#FFEAB7" stroke-linecap="square" stroke-dasharray="2 2"/>
<rect x="62.6696" y="48.5662" width="66.7742" height="39.2425" rx="2" transform="rotate(-13.0713 62.6696 48.5662)" fill="#EAB66B"/>
<rect x="59.4187" y="28.1017" width="40.7151" height="57.7891" rx="2" transform="rotate(-21.1975 59.4187 28.1017)" fill="white"/>
<rect x="82.7392" y="15.8698" width="40.7151" height="57.7891" rx="2" fill="white"/>
<g filter="url(#filter0_d_1274_2874)">
<rect x="68.2723" y="18.6505" width="43.9832" height="60.7297" rx="2" transform="rotate(-12.2705 68.2723 18.6505)" fill="white"/>
</g>
<path d="M101.783 57.4305L136.588 71.8777L128.206 34.7558C127.856 33.2083 125.931 32.6642 124.823 33.8001L101.783 57.4305Z" fill="#FCC87D"/>
<path d="M96.6886 58.6467L71.8996 87.0298L62.9511 50.0403C62.5781 48.4983 64.063 47.1566 65.5594 47.6836L96.6886 58.6467Z" fill="#FCC87D"/>
<mask id="mask0_1274_2874" style="mask-type:alpha" maskUnits="userSpaceOnUse" x="101" y="33" width="36" height="39">
<path d="M101.783 57.4305L136.588 71.8777L128.206 34.7558C127.856 33.2083 125.931 32.6642 124.823 33.8001L101.783 57.4305Z" fill="#FCC87D"/>
</mask>
<g mask="url(#mask0_1274_2874)">
<path d="M127.973 54.5863L128.417 53.4896L129.067 53.4626L129.007 53.3225L130.546 53.2495L129.463 52.056L128.908 53.2821L128.53 52.781L128.328 53.2795L127.199 53.3443L127.973 54.5863ZM130.866 50.8838L129.667 50.9782L130.311 52.1098L130.866 50.8838Z" fill="#F7BA63"/>
<path d="M129.175 49.6202L128.649 50.9163L130.188 50.8433L130.029 50.6628L132.074 51.2015L131.416 48.6714L130.915 49.0487L130.179 48.2863L131.346 48.7011L130.858 46.1818L130.718 46.2411L130.241 45.6996L130.61 45.7912L130.122 43.2719L129.3 43.8675L129.624 43.0699L128.425 43.1643L128.98 44.0858L127.837 44.8997L128.282 43.8029L127.083 43.8974L127.727 45.029L127.767 44.9293L129.473 45.4464L129.18 46.3141L130.688 46.1711L129.657 46.8556L129.929 46.3275L128.8 46.3923L129.225 47.2032L128.474 47.7692L129.81 48.1947L129.436 49.2618L130.735 49.2077L129.482 50.151L129.175 49.6202ZM126.185 41.3863L125.102 40.1928L124.676 41.5293L126.185 41.3863ZM125.609 45.0993L126.967 45.1854L126.444 43.7547L125.609 45.0993ZM127.217 42.8492L126.625 41.4482L125.819 42.8629L127.217 42.8492ZM126.469 49.2783L127.016 49.7902L127.03 49.0412L126.469 49.2783L126.863 48.4511L125.734 48.5159L126.378 49.6475L126.469 49.2783ZM128.162 54.8395L126.963 54.934L127.607 56.0655L128.162 54.8395ZM127.081 46.6242L126.261 46.6405L126.617 47.4811L127.081 46.6242ZM127.448 51.5901L128.256 51.7435L128.059 51.0834L127.448 51.5901ZM121.937 48.7185L121.953 49.5376L122.554 49.2007L121.937 48.7185ZM119.585 51.9441L119.602 52.7632L120.413 52.3373L119.585 51.9441ZM124.085 50.8657L124.492 51.4369L124.675 50.6985L124.085 50.8657ZM121.72 56.9878L122.539 56.9715L122.202 56.3707L121.72 56.9878ZM114.909 43.4329L114.926 44.252L115.766 43.8962L114.909 43.4329ZM119.339 42.3841L119.845 42.9957L120.029 42.2574L119.339 42.3841ZM117.044 48.4766L117.793 48.49L117.486 47.9592L117.044 48.4766ZM115.741 36.2251L116.582 35.8693L115.725 35.4059L115.741 36.2251Z" fill="#F7BA63"/>
<path d="M120.183 34.4253L120.66 34.9668L120.843 34.2285L120.183 34.4253ZM117.859 40.4477L118.608 40.4611L118.341 39.8306L117.859 40.4477ZM123.135 42.1796L123.394 42.4005L123.587 41.4924L123.307 41.611L123.348 41.5113L121.928 41.8645L122.971 43.1577L123.135 42.1796ZM125.273 33.1798L123.853 33.5329L124.896 34.8262L125.273 33.1798ZM120.584 45.3243L121.403 45.3081L121.066 44.7072L120.584 45.3243ZM122.183 38.3697L121.895 38.0788L121.957 37.6395L121.606 37.7878L121.129 37.2463L120.604 38.5424L121.663 38.5072L121.793 38.6177L121.833 38.518L122.183 38.3697L121.962 38.6284L122.73 38.8816L122.585 37.952L122.183 38.3697ZM124.344 37.6204L125.063 37.5637L124.557 36.9521L124.344 37.6204ZM122.07 41.2259L122.671 40.889L122.76 41.0991L122.951 40.7704L123.132 40.6114L123.032 40.571L123.385 39.8434L122.186 39.9379L122.364 40.3582L121.965 40.1966L122.07 41.2259ZM125.622 46.4958L126.692 46.2909L126.126 45.5392L125.622 46.4958ZM124.72 47.2908L123.909 47.7166L124.526 48.1988L124.72 47.2908ZM126.325 43.4725L125.819 42.8609L125.576 43.4591L126.325 43.4725ZM129.6 48.2817L128.921 48.2387L129.147 48.9688L129.6 48.2817Z" fill="#F7BA63"/>
<path d="M128.453 45.3805L126.861 46.3022L128.523 47.4983L128.453 45.3805ZM127.416 49.3711L129.405 49.1903L128.669 48.4279L128.739 48.3983L128.103 47.6762L128.063 47.7759L127.904 47.5954L127.416 49.3711ZM124.221 35.7726L123.017 34.8782L123.02 36.4464L124.221 35.7726ZM119.527 31.3165L120.651 32.4103L121.006 31.1035L119.527 31.3165ZM121.365 31.3648L122.488 32.4586L122.844 31.1518L121.365 31.3648ZM124.774 39.4208L125.976 38.747L124.771 37.8526L124.774 39.4208ZM124.599 36.2737L125.967 36.19L125.304 34.8186L124.599 36.2737ZM123.852 53.4402L123.938 54.2297L124.749 53.8039L123.852 53.4402ZM125.875 54.3184L125.364 54.8654L126.032 55.0782L125.875 54.3184ZM121.734 53.5106L122.211 54.0521L122.394 53.3138L121.734 53.5106ZM128.328 37.669L127.627 37.9654L128.075 38.4369L126.792 39.3101L126.504 39.0191L126.876 38.5314L126.536 38.5099L127.326 38.4235L126.242 37.23L125.787 38.4965L126.267 38.4587L126.415 38.809L125.868 40.4446L127.617 40.2827L127.577 40.3824L129.115 40.3094L128.926 40.0589L129.595 40.2716L129.107 37.7524L128.449 35.2224L126.224 36.9902L128.328 37.669ZM127.657 40.183L127.11 39.6711L127.779 39.8839L127.657 40.183ZM128.395 38.2186L128.428 37.7094L128.967 37.8117L128.395 38.2186ZM127.968 42.2819L127.868 42.2415L128.094 42.9717L128.245 42.7426L128.294 43.0525L128.935 42.6159L130.172 43.0011L129.584 40.4414L127.229 42.0988L127.968 42.2819ZM132.078 52.1889L131.124 51.1059L130.599 52.402L131.897 52.3479L129.963 53.8274L130.402 53.8894L129.947 55.1558L130.187 55.1369L129.772 56.3037L130.111 56.3252L129.909 56.8237L131.448 56.7507L131.001 56.2793L131.48 56.2415L131.44 56.3412L132.739 56.2871L130.815 57.5969L133.687 58.5288L133.199 56.0095L132.949 56.1982L131.965 55.0451L131.833 55.5139L131.564 55.4628L131.631 56.0124L131.591 56.1121L130.825 55.2797L131.475 55.2526L130.391 54.0591L131.868 54.4254L132.156 54.7163L132.323 55.3064L132.776 54.6192L132.876 54.6596L132.816 54.5195L132.248 52.1997L132.078 52.1889ZM125.366 32.2319L124.1 31.7767L124.243 33.2856L125.366 32.2319ZM122.782 33.7384L123.502 33.6818L123.025 33.1402L122.782 33.7384ZM123.258 45.5967L123.42 45.1979L123.549 45.3084L123.662 44.5997L122.991 44.9663L123.121 45.0767L122.77 45.2249L123.258 45.5967ZM121.652 47.2675L122.528 47.9706L122.913 46.7338L121.652 47.2675ZM122.358 43.6649L122.46 43.126L122.04 43.3039L121.751 43.0129L121.469 43.7108L122.048 43.7135L122.277 43.8643L122.358 43.6649ZM120.641 39.0226L120.102 38.9202L120.269 39.5103L120.641 39.0226ZM125.531 33.4013L125.544 34.7997L126.676 34.1556L126.183 34.9424L126.212 35.0125L126.132 35.2119L126.272 35.1526L126.256 36.481L127.457 35.8072L126.512 35.1337L128.26 34.9718L127.198 33.4388L126.816 34.0963L125.84 33.3527L126.98 33.1182L125.786 32.054L125.531 33.4013ZM119.271 48.2755L120.017 48.8682L120.251 47.8605L119.271 48.2755ZM125.748 49.3336L125.01 49.1505L125.196 49.9804L125.748 49.3336ZM131.14 69.6842L131.784 70.8158L132.339 69.5897L131.14 69.6842ZM134.526 67.3423L133.327 67.4367L133.972 68.5683L134.526 67.3423Z" fill="#F7BA63"/>
<path d="M129.552 70.0257L131.091 69.9527L130.007 68.7592L129.552 70.0257ZM134.262 68.8583L135.8 68.7854L134.717 67.5919L134.262 68.8583ZM132.67 69.7801L134.208 69.7071L133.125 68.5136L132.67 69.7801ZM132.736 66.0347L132.211 67.3308L133.75 67.2579L133.62 67.1474L135.736 67.6564L135.078 65.1264L134.577 65.5037L133.493 64.3102L133.038 65.5766L134.577 65.5037L133.213 66.5763L132.736 66.0347ZM136.442 70.4963L136.029 68.9363L135.046 69.9306L136.442 70.4963ZM130.009 57.4424L128.925 56.2489L128.47 57.5154L130.009 57.4424ZM130.661 61.1311L130.109 59.6303L129.303 61.045L130.661 61.1311ZM131.041 58.9054L130.488 57.4047L129.683 58.8194L131.041 58.9054ZM130.586 64.4668L129.427 64.4616L130.072 65.5932L130.586 64.4668ZM131.934 71.1651L130.805 71.2299L131.449 72.3615L131.934 71.1651ZM130.642 63.0388L129.823 63.055L130.179 63.8957L130.642 63.0388ZM131.01 68.0046L131.818 68.1581L131.621 67.498L131.01 68.0046ZM125.599 65.1734L125.615 65.9925L126.216 65.6557L125.599 65.1734ZM123.357 68.2697L123.374 69.0888L124.214 68.733L123.357 68.2697ZM127.787 67.2209L128.264 67.7625L128.447 67.0242L127.787 67.2209ZM125.462 73.2434L126.281 73.2271L125.945 72.6263L125.462 73.2434Z" fill="#F7BA63"/>
<path d="M118.839 59.3608L118.785 60.2095L119.626 59.8538L118.839 59.3608ZM123.198 58.3417L123.675 58.8832L123.858 58.1449L123.198 58.3417ZM120.874 64.3641L121.623 64.3775L121.316 63.8467L120.874 64.3641ZM127.005 57.9694L127.334 58.1606L127.558 57.3226L127.137 57.5005L127.178 57.4008L125.758 57.754L126.801 59.0472L127.005 57.9694ZM124.514 61.2543L125.333 61.238L124.996 60.6372L124.514 61.2543ZM126.892 56.5306L125.725 56.1157L125.86 57.2151L126.892 56.5306ZM129.383 62.4149L130.482 62.2801L129.916 61.5284L129.383 62.4149ZM126.552 54.3615L126.665 53.6529L127.315 53.6259L126.231 52.4324L125.776 53.6988L126.552 54.3615ZM128.308 63.7785L127.497 64.2043L128.184 64.6569L128.308 63.7785ZM129.883 59.8902L129.406 59.3486L129.164 59.9468L129.883 59.8902ZM132.579 64.6967L132.805 65.4269L133.258 64.7398L132.579 64.6967ZM132.063 61.5281L130.471 62.4498L132.064 63.6756L132.063 61.5281ZM131.522 64.1526L130.935 65.8879L132.924 65.7071L131.522 64.1526ZM132.144 59.1812L132.699 60.1027L131.557 60.9165L132.071 59.7902L130.872 59.8846L131.446 61.0459L131.487 60.9462L133.222 61.5333L132.929 62.401L132.589 62.3795L133.074 63.3306L132.182 63.9558L135.055 64.8877L134.567 62.3685L133.424 63.1823L133.707 62.4844L134.427 62.4278L133.95 61.8862L134.319 61.9778L133.831 59.4585L133.009 60.0541L133.332 59.2565L132.144 59.1812ZM128.419 70.0916L127.592 69.6983L127.678 70.4878L128.419 70.0916ZM129.615 70.5764L129.103 71.1235L129.772 71.3363L129.615 70.5764ZM125.433 69.8683L125.94 70.4799L126.123 69.7416L125.433 69.8683ZM132.836 58.4752L132.368 58.3432L132.408 58.2435L131.729 58.2005L131.955 58.9307L132.106 58.7016L132.155 59.0115L132.836 58.4752ZM130.027 65.694L130.644 66.1762L130.657 65.4272L130.027 65.694ZM127.16 61.456L127.221 61.0168L127.351 61.1272L127.464 60.4186L126.763 60.7151L126.893 60.8255L126.542 60.9738L127.16 61.456ZM125.484 63.1564L126.36 63.8596L126.715 62.5527L125.484 63.1564ZM126.259 59.5242L126.362 58.9853L125.941 59.1632L125.653 58.8722L125.341 59.5L125.92 59.5027L126.149 59.6535L126.259 59.5242ZM123.132 64.2345L123.878 64.8272L124.182 63.7898L123.132 64.2345ZM129.58 65.2225L128.841 65.0394L129.027 65.8693L129.58 65.2225ZM133.318 75.6173L132.119 75.7118L132.763 76.8434L133.318 75.6173ZM136.449 72.4752L135.25 72.5696L135.894 73.7012L136.449 72.4752ZM136.77 74.4043L136.713 73.6849L136.101 74.1916L136.77 74.4043ZM133.264 70.0236L132.838 71.3601L134.347 71.2171L133.264 70.0236ZM135.648 70.5837L135.193 71.8502L136.702 71.7072L135.648 70.5837ZM134.929 74.9354L136.438 74.7924L135.355 73.5989L134.929 74.9354ZM134.212 72.2653L133.757 73.5317L135.296 73.4588L134.212 72.2653ZM136.845 75.3636L135.646 75.458L136.29 76.5896L136.845 75.3636ZM131.711 68.6981L130.892 68.7144L131.248 69.555L131.711 68.6981ZM132.219 73.6047L133.027 73.7582L132.83 73.098L132.219 73.6047ZM126.668 70.8328L126.684 71.6519L127.285 71.315L126.668 70.8328ZM128.136 72.937L128.153 73.7561L128.964 73.3303L128.136 72.937ZM132.606 71.7886L133.083 72.3301L133.267 71.5918L132.606 71.7886ZM128.633 75.8658L128.719 76.6553L129.53 76.2294L128.633 75.8658ZM130.853 77.404L130.697 76.6442L130.185 77.1913L130.753 77.3636L130.341 77.9511L131.16 77.9348L130.853 77.404ZM126.606 75.567L127.113 76.1785L127.296 75.4402L126.606 75.567Z" fill="#F7BA63"/>
</g>
<mask id="mask1_1274_2874" style="mask-type:alpha" maskUnits="userSpaceOnUse" x="63" y="48" width="34" height="40">
<path d="M96.5856 59.0216L71.7442 87.0732L63.1432 50.8493C62.7797 49.318 64.2455 47.9862 65.735 48.4945L96.5856 59.0216Z" fill="#FCC87D"/>
</mask>
<g mask="url(#mask1_1274_2874)">
<path d="M71.1624 67.0422L70.2671 66.2684L69.6768 66.5401L69.6657 66.3884L68.2629 67.0244L68.6835 65.4684L69.736 66.307L69.8436 65.689L70.2506 66.0408L71.2851 65.5841L71.1624 67.0422ZM66.8999 65.0643L68.0103 64.6022L67.9525 65.9029L66.8999 65.0643Z" fill="#FFD191"/>
<path d="M67.8302 63.1688L68.8883 64.0833L67.4855 64.7192L67.5448 64.4861L65.9696 65.8974L65.4025 63.3455L66.0205 63.453L66.328 62.4391L65.4784 63.3399L64.765 60.875L64.9168 60.8639L65.0947 60.1646L64.8078 60.4143L64.0945 57.9493L65.0973 58.1051L64.4462 57.5423L65.5566 57.0802L65.4822 58.1534L66.8699 58.3574L65.9746 57.5836L67.085 57.1215L67.0272 58.4223L66.9458 58.3519L65.663 59.5893L66.3196 60.2279L64.9113 60.7881L66.1417 60.9273L65.6589 60.5811L66.6934 60.1245L66.6838 61.0404L67.6108 61.2017L66.6149 62.1895L67.4343 62.9688L66.2536 63.5123L67.7985 63.7812L67.8302 63.1688ZM66.74 54.4772L67.1606 52.9212L68.1484 53.9171L66.74 54.4772ZM68.9445 57.52L67.7748 58.2153L67.5885 56.7035L68.9445 57.52ZM66.4877 56.2497L66.3772 54.7324L67.7388 55.6248L66.4877 56.2497ZM70.0827 61.632L69.8289 62.3369L69.4758 61.6762L70.0827 61.632L69.3557 61.0747L70.3903 60.6181L70.3324 61.9189L70.0827 61.632ZM71.1093 67.3537L72.2197 66.8915L72.1619 68.1923L71.1093 67.3537ZM68.3294 59.5478L69.066 59.1891L69.1322 60.0995L68.3294 59.5478ZM70.2649 64.1356L69.6153 64.6405L69.4897 63.9632L70.2649 64.1356ZM73.8622 59.0688L74.2208 59.8054L73.5325 59.7792L73.8622 59.0688ZM77.4253 60.8688L77.784 61.6053L76.868 61.5957L77.4253 60.8688ZM72.9285 61.9587L72.8264 62.6526L72.327 62.0788L72.9285 61.9587ZM77.8229 66.3312L77.0863 66.6899L77.1124 66.0016L77.8229 66.3312ZM77.7103 51.1618L78.069 51.8984L77.1586 51.9647L77.7103 51.1618ZM73.2893 52.2463L73.1169 53.0215L72.6176 52.4477L73.2893 52.2463ZM78.1078 56.6243L77.4471 56.9774L77.4788 56.365L78.1078 56.6243ZM73.6862 45.1244L72.7758 45.1906L73.3275 44.3878L73.6862 45.1244Z" fill="#FFD191"/>
<path d="M68.9116 45.5461L68.7337 46.2455L68.2343 45.6717L68.9116 45.5461ZM73.7246 49.8483L73.0639 50.2014L73.0142 49.5186L73.7246 49.8483ZM69.817 53.7936L69.6873 54.1081L69.101 53.3881L69.4045 53.366L69.3231 53.2956L70.748 52.9631L70.4088 54.5895L69.817 53.7936ZM63.8134 46.7562L65.2383 46.4236L64.8991 48.05L63.8134 46.7562ZM73.5208 55.4307L72.7842 55.7894L72.8104 55.1011L73.5208 55.4307ZM68.9284 49.9685L69.0525 49.5781L68.7973 49.2154L69.1767 49.1878L69.3546 48.4884L70.4126 49.4029L69.454 49.854L69.3891 50.0113L69.3077 49.9409L68.9284 49.9685L69.2429 50.0982L68.6746 50.6734L68.3808 49.7796L68.9284 49.9685ZM66.6634 50.2859L65.9972 50.5632L66.1696 49.788L66.6634 50.2859ZM70.33 52.4597L69.6417 52.4335L69.6583 52.6611L69.3382 52.4556L69.1051 52.3963L69.1755 52.3149L68.5299 51.828L69.6403 51.3658L69.6734 51.821L69.9548 51.4955L70.33 52.4597ZM69.5689 58.7691L68.5234 59.074L68.6847 58.1471L69.5689 58.7691ZM70.7346 59.0656L71.6505 59.0752L71.3209 59.7857L70.7346 59.0656ZM67.5659 56.398L67.7383 55.6228L68.2266 56.0449L67.5659 56.398ZM66.8421 62.1709L67.4269 61.8233L67.558 62.5764L66.8421 62.1709Z" fill="#FFD191"/>
<path d="M66.5411 59.0659L68.3785 59.1609L67.4433 60.9832L66.5411 59.0659ZM69.2821 62.1459L67.4296 62.8909L67.7372 61.877L67.6613 61.8826L67.8985 60.9501L67.9799 61.0204L68.0392 60.7873L69.2821 62.1459ZM65.9308 48.5851L66.5956 47.2402L67.3074 48.6375L65.9308 48.5851ZM68.0796 42.4798L67.5776 43.9654L66.6657 42.964L68.0796 42.4798ZM66.4657 43.3599L65.9637 44.8456L65.0518 43.8442L66.4657 43.3599ZM67.1007 52.0846L65.7241 52.0323L66.3889 50.6873L67.1007 52.0846ZM65.8232 49.2031L64.5666 49.7522L64.5321 48.2293L65.8232 49.2031ZM74.3088 64.1444L74.5916 64.8865L73.6757 64.8769L74.3088 64.1444ZM72.9074 65.8481L73.6123 66.1018L73.1144 66.5957L72.9074 65.8481ZM76.2262 63.2422L76.0482 63.9415L75.5489 63.3677L76.2262 63.2422ZM63.1391 52.1442L63.8977 52.089L63.7143 52.7125L65.2538 52.9055L65.3779 52.5151L64.8247 52.2503L65.1171 52.0765L64.375 52.3593L64.7957 50.8033L65.7779 51.7233L65.3337 51.9082L65.3613 52.2875L66.5932 53.4944L64.9628 54.147L65.0441 54.2173L63.6413 54.8533L63.6951 54.5443L63.1972 55.0382L62.4839 52.5732L61.9168 50.0213L64.7032 50.5812L63.1391 52.1442ZM64.8814 54.0766L65.1352 53.3717L64.6372 53.8656L64.8814 54.0766ZM63.3295 52.6642L63.0687 52.2256L62.6356 52.5622L63.3295 52.6642ZM65.5615 56.0864L65.6319 56.005L65.763 56.7582L65.5243 56.623L65.6223 56.9209L64.8526 56.8244L63.927 57.7307L63.2841 55.1844L66.1353 55.587L65.5615 56.0864ZM66.416 66.7782L66.7718 65.3794L67.8299 66.2939L66.6491 66.8375L69.0452 67.2732L68.6824 67.5284L69.6646 68.4484L69.4425 68.5409L70.3433 69.3905L70.0509 69.5644L70.4578 69.9161L69.055 70.5521L69.2384 69.9286L68.7943 70.1134L68.8757 70.1838L67.6949 70.7273L70.0041 71.0169L67.8716 73.1551L67.1583 70.6901L67.4673 70.7439L67.8176 69.2693L68.1487 69.6265L68.3652 69.4582L68.5556 69.9783L68.637 70.0486L68.9391 68.9589L68.3487 69.2306L68.7693 67.6746L67.6217 68.6734L67.4976 69.0638L67.6176 69.6652L66.9017 69.2597L66.8313 69.3411L66.8203 69.1893L66.2698 66.8651L66.416 66.7782ZM63.2987 45.9548L64.2187 44.9726L64.7789 46.3809L63.2987 45.9548ZM66.2852 46.1187L65.6189 46.396L65.7968 45.6967L66.2852 46.1187ZM71.2641 56.8917L70.9385 56.6103L70.8737 56.7675L70.4502 56.1882L71.2144 56.2089L71.1495 56.3661L71.5289 56.3385L71.2641 56.8917ZM73.4546 57.6474L72.9953 58.6724L72.089 57.7468L73.4546 57.6474ZM71.1853 54.7618L70.8487 54.3287L71.3039 54.2956L71.428 53.9052L71.9978 54.3976L71.4833 54.6639L71.3481 54.9025L71.1853 54.7618ZM70.5988 49.847L71.0319 49.5104L71.152 50.1119L70.5988 49.847ZM63.685 47.0707L64.31 48.3218L63.0092 48.2639L63.8065 48.7398L63.812 48.8156L63.9748 48.9563L63.8231 48.9674L64.4425 50.1426L63.0658 50.0902L63.601 49.0598L61.9706 49.7123L62.2174 47.8639L62.8575 48.2749L63.3871 47.1686L62.2656 47.4791L62.8435 45.9879L63.685 47.0707ZM76.0341 57.4597L75.6396 58.3274L74.972 57.537L76.0341 57.4597ZM70.7498 61.3527L71.3236 60.8533L71.5361 61.6768L70.7498 61.3527ZM75.2216 81.925L75.1637 83.2257L74.1112 82.3871L75.2216 81.925ZM71.1399 81.3831L72.2503 80.9209L72.1924 82.2217L71.1399 81.3831Z" fill="#FFD191"/>
<path d="M76.7905 81.5056L75.3876 82.1416L75.8083 80.5856L76.7905 81.5056ZM72.066 82.6122L70.6632 83.2482L71.0839 81.6922L72.066 82.6122ZM73.9034 82.7072L72.5006 83.3432L72.9212 81.7872L73.9034 82.7072ZM72.1376 79.4037L73.1957 80.3181L71.7928 80.9541L71.8577 80.7969L70.2066 82.2136L69.6395 79.6617L70.2575 79.7693L70.6781 78.2133L71.6603 79.1333L70.2575 79.7693L71.9597 80.103L72.1376 79.4037ZM70.8716 85.0634L70.5281 83.4868L71.8565 83.924L70.8716 85.0634ZM70.6515 70.5121L71.0721 68.9561L72.0543 69.8761L70.6515 70.5121ZM71.7511 74.093L71.5592 72.5053L72.9208 73.3977L71.7511 74.093ZM70.3991 72.2846L70.2073 70.6969L71.5688 71.5893L70.3991 72.2846ZM73.3376 77.0282L74.3666 76.4957L74.3087 77.7965L73.3376 77.0282ZM75.1891 83.6052L76.2236 83.1485L76.1658 84.4493L75.1891 83.6052ZM72.6367 75.7827L73.3733 75.424L73.4396 76.3344L72.6367 75.7827ZM74.5723 80.3705L73.9226 80.8754L73.7971 80.1981L74.5723 80.3705ZM78.0992 75.3851L78.4579 76.1217L77.7695 76.0955L78.0992 75.3851ZM81.505 77.1202L81.8637 77.8568L80.9533 77.9231L81.505 77.1202ZM77.0841 78.2047L76.9062 78.904L76.4068 78.3302L77.0841 78.2047ZM81.8971 82.5068L81.1605 82.8655L81.1867 82.1771L81.8971 82.5068Z" fill="#FFD191"/>
<path d="M81.4687 67.131L81.9033 67.862L80.9929 67.9283L81.4687 67.131ZM77.1236 68.2099L76.9457 68.9093L76.4464 68.3355L77.1236 68.2099ZM81.9366 72.512L81.2759 72.8652L81.3076 72.2528L81.9366 72.512ZM73.5649 69.613L73.3593 69.933L72.7786 69.2889L73.2338 69.2557L73.1524 69.1854L74.5773 68.8529L74.238 70.4792L73.5649 69.613ZM77.2797 71.4019L76.5431 71.7606L76.5693 71.0722L77.2797 71.4019ZM73.0103 68.2805L73.8599 67.3797L74.2407 68.4198L73.0103 68.2805ZM73.4741 74.6534L72.434 75.0341L72.5954 74.1072L73.4741 74.6534ZM72.3246 66.1949L71.9011 65.6156L71.3107 65.8873L71.7313 64.3313L72.7135 65.2513L72.3246 66.1949ZM75.0522 75.3775L75.9681 75.3871L75.5626 76.103L75.0522 75.3775ZM71.878 72.634L72.0559 71.9346L72.5442 72.3567L71.878 72.634ZM71.6686 78.1406L71.7997 78.8938L71.0838 78.4883L71.6686 78.1406ZM70.6836 75.0853L72.5209 75.1804L71.6617 76.9971L70.6836 75.0853ZM72.361 77.175L73.6743 78.4522L71.8218 79.1972L72.361 77.175ZM69.5427 73.0328L69.4683 74.106L70.856 74.31L69.8848 73.5418L70.9952 73.0796L71.0132 74.3749L70.9318 74.3045L69.6546 75.6178L70.3112 76.2564L70.6036 76.0826L70.6051 77.1503L71.6838 77.3006L69.5513 79.4387L68.838 76.9738L70.2257 77.1779L69.656 76.6854L68.9898 76.9628L69.1677 76.2634L68.8808 76.5131L68.1675 74.0481L69.1703 74.2039L68.5192 73.6411L69.5427 73.0328ZM77.8292 81.0481L78.3865 80.3211L78.6693 81.0632L77.8292 81.0481ZM76.9851 82.0247L77.69 82.2785L77.1921 82.7724L76.9851 82.0247ZM80.3852 79.4892L80.2128 80.2644L79.7134 79.6906L80.3852 79.4892ZM68.6047 72.7197L68.9619 72.3886L68.8805 72.3183L69.4654 71.9706L69.5965 72.7238L69.3578 72.5886L69.4558 72.8866L68.6047 72.7197ZM74.3943 77.866L74.0647 78.5764L73.7115 77.9157L74.3943 77.866ZM75.0162 72.7869L74.761 72.4242L74.6961 72.5814L74.2726 72.0021L75.0313 71.9469L74.9665 72.1041L75.3458 72.0765L75.0162 72.7869ZM77.2826 73.5372L76.8233 74.5621L75.9114 73.5607L77.2826 73.5372ZM74.9374 70.6571L74.6008 70.224L75.056 70.1909L75.1801 69.8005L75.7443 70.217L75.2298 70.4833L75.0947 70.7219L74.9374 70.6571ZM79.8676 73.4253L79.4731 74.293L78.7296 73.5082L79.8676 73.4253ZM74.5778 77.2425L75.1516 76.7431L75.364 77.5666L74.5778 77.2425ZM75.9854 88.199L77.0958 87.7369L77.0379 89.0376L75.9854 88.199ZM71.7671 86.8281L72.8775 86.366L72.8196 87.6667L71.7671 86.8281ZM72.3603 88.6917L72.083 88.0254L72.8582 88.1978L72.3603 88.6917ZM73.4856 83.1947L74.4733 84.1906L73.065 84.7507L73.4856 83.1947ZM71.618 84.7797L72.6002 85.6997L71.1918 86.2598L71.618 84.7797ZM74.2404 88.326L72.8321 88.8862L73.2527 87.3302L74.2404 88.326ZM73.6623 85.6224L74.6445 86.5424L73.2417 87.1784L73.6623 85.6224ZM72.73 89.58L73.8404 89.1178L73.7826 90.4186L72.73 89.58ZM74.2635 81.3076L75.0001 80.9489L75.0663 81.8593L74.2635 81.3076ZM76.0473 85.9064L75.3976 86.4113L75.2721 85.7341L76.0473 85.9064ZM79.7259 80.91L80.0846 81.6466L79.3963 81.6204L79.7259 80.91ZM79.3771 83.4523L79.7358 84.1889L78.8198 84.1793L79.3771 83.4523ZM74.8747 84.4664L74.6968 85.1658L74.1975 84.592L74.8747 84.4664ZM80.2697 86.2855L80.5525 87.0276L79.6366 87.0181L80.2697 86.2855ZM78.9939 88.6665L78.7869 87.9188L79.4918 88.1726L79.0642 88.5851L79.6988 88.9203L78.9622 89.2789L78.9939 88.6665ZM81.9374 85.0964L81.765 85.8716L81.2656 85.2978L81.9374 85.0964Z" fill="#FFD191"/>
</g>
<g filter="url(#filter1_d_1274_2874)">
<path d="M100.491 56.941L136.588 71.8777L71.5754 86.9817L97.0833 57.7409C97.9298 56.7705 99.3012 56.4486 100.491 56.941Z" fill="#FCC87D"/>
</g>
<mask id="mask2_1274_2874" style="mask-type:alpha" maskUnits="userSpaceOnUse" x="71" y="56" width="66" height="31">
<path d="M100.491 56.941L136.588 71.8777L71.5754 86.9817L97.0833 57.7409C97.9298 56.7705 99.3012 56.4486 100.491 56.941Z" fill="#FCC87D"/>
</mask>
<g mask="url(#mask2_1274_2874)">
<path d="M114.401 66.9615L113.759 65.9676L114.11 65.4206L113.961 65.3886L114.786 64.0875L113.186 64.2884L113.871 65.447L113.244 65.4678L113.536 65.9196L112.94 66.8808L114.401 66.9615ZM113.033 62.466L112.422 63.5015L113.718 63.6246L113.033 62.466Z" fill="#F7BA63"/>
<path d="M111.027 63.1244L111.786 64.2991L112.61 62.998L112.371 63.0244L113.987 61.6601L111.539 60.7446L111.56 61.3716L110.513 61.5356L111.523 60.819L109.181 59.7708L109.149 59.9196L108.431 59.9988L108.718 59.7492L106.376 58.701L106.391 59.7158L105.924 58.9929L105.313 60.0285L106.386 60.1036L106.395 61.5062L105.753 60.5123L105.142 61.5479L106.438 61.671L106.379 61.5806L107.783 60.4818L108.324 61.2206L109.074 59.9036L109.041 61.1414L108.766 60.6153L108.17 61.5765L109.078 61.694L109.11 62.6344L110.226 61.7851L110.884 62.7046L111.586 61.6107L111.638 63.178L111.027 63.1244ZM102.571 60.8395L100.971 61.0403L101.821 62.1566L102.571 60.8395ZM105.278 63.4446L106.129 62.3827L104.658 61.9885L105.278 63.4446ZM104.361 60.8354L102.874 60.5157L103.569 61.9878L104.361 60.8354ZM109.193 65.1421L109.926 64.9885L109.321 64.5471L109.193 65.1421L108.742 64.3448L108.146 65.3061L109.442 65.4291L109.193 65.1421ZM114.717 66.9522L114.105 67.9877L115.402 68.1108L114.717 66.9522ZM107.372 63.1167L106.915 63.7964L107.807 63.9883L107.372 63.1167ZM111.647 65.6697L112.237 65.0963L111.584 64.8781L111.647 65.6697ZM106.13 68.5296L106.81 68.9869L106.88 68.3016L106.13 68.5296ZM107.419 72.3079L108.099 72.7652L108.216 71.8568L107.419 72.3079ZM109.122 68.0056L109.823 68.0008L109.324 67.4267L109.122 68.0056ZM112.773 73.459L113.231 72.7793L112.545 72.7098L112.773 73.459ZM97.7662 71.2441L98.4459 71.7015L98.6378 70.809L97.7662 71.2441ZM99.4532 67.0162L100.245 66.953L99.7458 66.3789L99.4532 67.0162ZM103.121 72.3953L103.562 71.7899L102.951 71.7364L103.121 72.3953ZM92.345 66.4217L92.5369 65.5293L91.6653 65.9644L92.345 66.4217Z" fill="#F7BA63"/>
<path d="M93.4248 61.7517L94.1421 61.6725L93.6431 61.0984L93.4248 61.7517ZM97.0179 67.1148L97.4593 66.5094L96.79 66.3655L97.0179 67.1148ZM101.467 63.792L101.796 63.7072L101.165 63.0267L101.101 63.3242L101.042 63.2339L100.515 64.5989L102.173 64.4884L101.467 63.792ZM95.3301 56.8706L94.8032 58.2356L96.4609 58.1251L95.3301 56.8706ZM102.575 67.687L103.032 67.0073L102.347 66.9378L102.575 67.687ZM97.8021 62.3816L97.3983 62.4504L97.0744 62.1474L96.9945 62.5192L96.2772 62.5984L97.0361 63.773L97.6158 62.8862L97.7806 62.8438L97.7222 62.7535L97.8021 62.3816L97.8869 62.7111L98.5354 62.228L97.6909 61.8131L97.8021 62.3816ZM98.4305 60.1825L98.7975 59.5612L98.0059 59.6244L98.4305 60.1825ZM100.075 64.1151L100.144 63.4298L100.367 63.4778L100.208 63.1323L100.182 62.8932L100.092 62.9516L99.6989 62.2448L99.0872 63.2803L99.5334 63.3763L99.172 63.6098L100.075 64.1151ZM106.429 64.2363L106.876 63.2431L105.935 63.2743L106.429 64.2363ZM106.561 65.4318L106.443 66.3402L107.193 66.1122L106.561 65.4318ZM104.358 61.9238L103.567 61.987L103.917 62.5292L104.358 61.9238ZM110.176 62.0074L109.751 62.5384L110.478 62.7727L110.176 62.0074Z" fill="#F7BA63"/>
<path d="M107.143 61.2788L106.982 63.1116L108.916 62.4382L107.143 61.2788ZM109.813 64.4205L110.808 62.6892L109.761 62.8532L109.777 62.7788L108.82 62.8844L108.879 62.9748L108.64 63.0012L109.813 64.4205ZM96.8478 59.2211L95.4236 59.693L96.7087 60.5917L96.8478 59.2211ZM90.5034 60.5025L92.0443 60.2114L91.179 59.1695L90.5034 60.5025ZM91.5988 59.0263L93.1397 58.7352L92.2745 57.6933L91.5988 59.0263ZM100.151 60.865L100.29 59.4944L98.8661 59.9663L100.151 60.865ZM97.4747 59.2003L98.1927 58.032L96.6893 57.7866L97.4747 59.2003ZM111.095 69.6757L111.791 70.0587L111.908 69.1503L111.095 69.6757ZM112.977 68.5241L113.13 69.2574L113.688 68.8328L112.977 68.5241ZM109.936 71.4494L110.653 71.3702L110.154 70.7961L109.936 71.4494ZM100.76 56.9499L100.6 57.6936L101.243 57.5984L101.22 59.1497L100.816 59.2185L100.631 58.634L100.418 58.8995L100.801 58.2037L99.2019 58.4045L99.9768 59.5048L100.221 59.0906L100.593 59.1705L101.618 60.5579L102.49 59.0337L102.548 59.124L103.373 57.8229L103.059 57.8334L103.618 57.4087L101.275 56.3605L98.8267 55.445L98.9948 58.2822L100.76 56.9499ZM102.432 58.9433L101.698 59.0969L102.257 58.6722L102.432 58.9433ZM101.248 57.2105L100.85 56.8915L101.243 56.5092L101.248 57.2105ZM104.328 59.8956L104.237 59.954L104.965 60.1882L104.864 59.9331L105.146 60.0715L105.157 59.2958L106.183 58.5049L103.75 57.5151L103.754 60.3946L104.328 59.8956ZM114.798 62.2244L113.363 62.3828L114.122 63.5574L114.824 62.4635L114.923 64.8968L115.226 64.5729L116.001 65.6732L116.124 65.4661L116.84 66.476L117.053 66.2105L117.345 66.6623L118.169 65.3612L117.526 65.4564L117.771 65.0422L117.829 65.1325L118.531 64.0386L118.498 66.3655L120.911 64.5502L118.569 63.502L118.579 63.8154L117.07 63.9579L117.378 64.3353L117.182 64.5264L117.67 64.7871L117.729 64.8774L116.608 65.0254L116.959 64.4785L115.359 64.6793L116.507 63.6812L116.911 63.6124L117.49 63.8147L117.188 63.0495L117.278 62.9911L117.13 62.9591L114.904 62.0916L114.798 62.2244ZM94.6078 56.2497L93.5075 57.0247L94.8246 57.7747L94.6078 56.2497ZM94.356 59.2301L94.7231 58.6087L94.0058 58.6879L94.356 59.2301ZM104.334 65.6547L104.101 65.2933L104.266 65.2509L103.751 64.7511L103.665 65.5108L103.83 65.4684L103.75 65.8402L104.334 65.6547ZM104.779 67.9289L105.858 67.6161L105.067 66.5902L104.779 67.9289ZM102.236 65.2814L101.854 64.888L101.758 65.3342L101.354 65.403L101.763 66.0355L102.098 65.5629L102.353 65.4621L102.236 65.2814ZM97.4502 64.019L97.0568 64.4013L97.6357 64.6035L97.4502 64.019ZM95.6593 56.7871L96.8117 57.5794L96.9348 56.2832L97.2954 57.1388L97.3698 57.1548L97.4866 57.3355L97.5186 57.1868L98.5965 57.9632L98.7356 56.5926L97.6409 56.9797L98.5132 55.4555L96.6484 55.4436L96.9667 56.1345L95.7977 56.5056L96.2606 55.438L94.7037 55.8035L95.6593 56.7871ZM104.236 70.4574L105.15 70.1871L104.459 69.4163L104.236 70.4574ZM108.824 65.764L108.25 66.263L109.036 66.5876L108.824 65.764ZM128.577 73.0452L129.873 73.1683L129.189 72.0097L128.577 73.0452ZM128.607 68.9278L127.995 69.9634L129.291 70.0865L128.607 68.9278Z" fill="#F7BA63"/>
<path d="M127.944 74.5408L128.769 73.2397L127.169 73.4405L127.944 74.5408ZM129.695 70.0154L130.52 68.7144L128.92 68.9152L129.695 70.0154ZM129.535 71.8483L130.359 70.5472L128.76 70.748L129.535 71.8483ZM126.508 69.6414L127.267 70.8161L128.091 69.515L127.926 69.5574L129.558 68.1187L127.11 67.2032L127.131 67.8302L125.531 68.031L126.306 69.1312L127.131 67.8302L127.225 69.5622L126.508 69.6414ZM132.289 69.1725L130.775 68.6136L131.024 69.9898L132.289 69.1725ZM117.908 66.9367L116.309 67.1375L117.084 68.2378L117.908 66.9367ZM121.302 68.5222L119.756 68.1121L120.451 69.5842L121.302 68.5222ZM119.699 66.9326L118.153 66.5225L118.848 67.9946L119.699 66.9326ZM123.989 70.5004L123.319 71.4456L124.615 71.5687L123.989 70.5004ZM130.246 73.246L129.65 74.2072L130.946 74.3303L130.246 73.246ZM122.853 69.6336L122.395 70.3134L123.288 70.5052L122.853 69.6336ZM127.128 72.1867L127.718 71.6133L127.065 71.395L127.128 72.1867ZM121.701 74.9882L122.381 75.4455L122.451 74.7602L121.701 74.9882ZM122.948 78.6017L123.627 79.0591L123.819 78.1667L122.948 78.6017ZM124.635 74.3739L125.352 74.2947L124.853 73.7205L124.635 74.3739ZM128.228 79.7369L128.685 79.0572L128 78.9876L128.228 79.7369Z" fill="#F7BA63"/>
<path d="M113.06 77.1806L113.724 77.7123L113.915 76.8199L113.06 77.1806ZM114.731 73.0271L115.448 72.9479L114.949 72.3738L114.731 73.0271ZM118.324 78.3902L118.765 77.7848L118.155 77.7313L118.324 78.3902ZM116.614 69.6973L116.959 69.5381L116.402 68.8736L116.306 69.3198L116.248 69.2295L115.721 70.5945L117.378 70.4841L116.614 69.6973ZM117.87 73.6243L118.328 72.9445L117.642 72.875L117.87 73.6243ZM115.371 68.9632L114.361 69.6798L115.338 70.2011L115.371 68.9632ZM121.618 70.3063L122.139 69.3291L121.199 69.3603L121.618 70.3063ZM113.401 67.995L112.886 67.4952L113.237 66.9482L111.638 67.149L112.412 68.2493L113.401 67.995ZM122.116 71.9695L121.999 72.8779L122.764 72.5756L122.116 71.9695ZM119.84 68.4456L119.122 68.5248L119.473 69.067L119.84 68.4456ZM125.322 69.0018L126.05 69.2361L125.747 68.4708L125.322 69.0018ZM122.433 67.6026L122.272 69.4354L124.191 68.8364L122.433 67.6026ZM124.27 69.5537L125.353 71.0313L126.347 69.3L124.27 69.5537ZM120.558 66.1881L121.632 66.2632L121.641 67.6658L121.015 66.5975L120.403 67.6331L121.684 67.8306L121.625 67.7402L123.103 66.6574L123.644 67.3962L123.432 67.6617L124.489 67.8112L124.488 68.9003L126.901 67.085L124.559 66.0368L124.569 67.4394L124.16 66.8069L124.527 66.1855L123.81 66.2647L124.097 66.0152L121.755 64.967L121.77 65.9818L121.303 65.2589L120.558 66.1881ZM127.347 75.5061L126.55 75.9571L127.246 76.3401L127.347 75.5061ZM128.431 74.8055L128.585 75.5388L129.143 75.1142L128.431 74.8055ZM125.449 77.8212L126.241 77.758L125.742 77.1838L125.449 77.8212ZM120.378 65.2158L120.001 65.5237L119.943 65.4333L119.517 65.9643L120.245 66.1986L120.144 65.9435L120.426 66.0818L120.378 65.2158ZM124.672 71.6631L125.421 71.4352L124.816 70.9938L124.672 71.6631ZM119.556 71.5747L119.232 71.2716L119.397 71.2292L118.882 70.7295L118.722 71.4732L118.887 71.4308L118.807 71.8026L119.556 71.5747ZM119.985 73.9232L121.063 73.6105L120.198 72.5686L119.985 73.9232ZM117.458 71.2013L117.075 70.8079L116.979 71.2541L116.576 71.3229L116.91 71.9394L117.245 71.4668L117.5 71.3661L117.458 71.2013ZM119.515 76.4677L120.429 76.1974L119.755 75.3522L119.515 76.4677ZM124.029 71.7583L123.455 72.2573L124.241 72.5819L124.029 71.7583ZM134.685 74.6716L134.073 75.7072L135.369 75.8303L134.685 74.6716ZM133.912 70.304L133.3 71.3395L134.597 71.4626L133.912 70.304ZM135.675 71.1499L135.054 70.7829L135.117 71.5745L135.675 71.1499ZM130.075 71.5021L130.925 72.6183L131.675 71.3013L130.075 71.5021ZM131.904 69.8723L132.679 70.9725L133.429 69.6555L131.904 69.8723ZM135.052 72.9611L135.802 71.6441L134.203 71.8449L135.052 72.9611ZM132.455 72.0137L133.23 73.114L134.054 71.8129L132.455 72.0137ZM136.504 71.6392L135.892 72.6748L137.188 72.7979L136.504 71.6392ZM128.099 72.0108L127.641 72.6905L128.534 72.8824L128.099 72.0108ZM132.406 74.4151L132.996 73.8417L132.342 73.6234L132.406 74.4151ZM126.947 77.3653L127.627 77.8227L127.697 77.1374L126.947 77.3653ZM129.514 77.3723L130.193 77.8297L130.311 76.9213L129.514 77.3723ZM131.142 73.0541L131.859 72.9749L131.36 72.4008L131.142 73.0541ZM132.196 78.6492L132.891 79.0322L133.009 78.1238L132.196 78.6492ZM134.731 77.7159L134.019 77.4073L134.172 78.1405L134.64 77.7743L134.884 78.4492L135.341 77.7694L134.731 77.7159ZM130.787 80.1359L131.578 80.0726L131.079 79.4985L130.787 80.1359Z" fill="#F7BA63"/>
</g>
<path d="M90.1832 34.254C90.8976 33.752 91.6218 33.4027 92.3559 33.206C93.0901 33.0093 93.8262 32.9362 94.5645 32.9869C95.3221 33.0323 96.0457 33.2215 96.7353 33.5544C97.4443 33.882 98.0865 34.4243 98.662 35.1811C99.2323 35.9186 99.665 36.838 99.9601 37.9391C100.457 39.7937 100.335 41.5035 99.5952 43.0684C98.855 44.6333 97.7701 45.6072 96.3405 45.9903C94.9303 46.3682 93.5988 46.3833 92.3462 46.0356C91.1077 45.6635 90.3849 45.0911 90.1778 44.3183C90.0795 43.9513 90.0456 43.6705 90.0763 43.4759C90.1212 43.2568 90.244 43.0583 90.4447 42.8803C90.6455 42.7022 90.8328 42.5899 91.0067 42.5433C91.1998 42.4916 91.482 42.5402 91.8533 42.6892C92.2386 42.8137 92.7754 43.0012 93.4637 43.2515C94.1519 43.5019 94.8728 43.5262 95.6262 43.3243C96.3796 43.1224 96.9452 42.5672 97.3229 41.6584C97.6954 40.7304 97.76 39.8124 97.5167 38.9044C96.8179 36.2964 95.2997 35.3056 92.9621 35.9319C92.4599 36.0665 91.8836 36.2727 91.2333 36.5505C90.6024 36.8231 90.1832 36.9975 89.9759 37.0737C89.7879 37.1448 89.4993 37.1497 89.1102 37.0883C88.601 36.8106 88.0694 35.6383 87.5155 33.5712C86.9565 31.4848 86.645 30.1292 86.5812 29.5045C86.5121 28.8604 86.5805 28.459 86.7865 28.3003C87.1456 28.0177 88.3297 27.6073 90.3388 27.0689C92.3673 26.5254 94.0418 26.2838 95.3624 26.344C95.8109 26.4723 96.0946 26.7586 96.2137 27.2029C96.3276 27.628 96.2952 28.0093 96.1165 28.3471C95.9572 28.6797 95.7345 28.8532 95.4485 28.8677C93.7519 28.9496 92.0922 29.208 90.4695 29.6428C89.9672 29.7774 89.4701 29.9313 88.9781 30.1045C89.18 30.8579 89.5817 32.2411 90.1832 34.254Z" fill="#FF953F"/>
<path d="M144.875 69.9069C144.875 64.7255 140.668 60.5251 135.478 60.5251C130.289 60.5251 126.081 64.7255 126.081 69.9069C126.081 75.0882 130.289 79.2887 135.478 79.2887C140.668 79.2887 144.875 75.0882 144.875 69.9069Z" fill="#EE5C5C"/>
<path d="M138 60.8724C140.396 62.5725 141.96 65.3666 141.96 68.5253C141.96 73.7067 137.753 77.9071 132.563 77.9071C131.689 77.9071 130.843 77.7878 130.041 77.5649C131.576 78.6538 133.452 79.2939 135.478 79.2939C140.668 79.2939 144.875 75.0934 144.875 69.9121C144.875 65.6027 141.965 61.9727 138 60.8724Z" fill="#E04646"/>
<path d="M135.996 73.8562C135.888 73.6691 135.861 73.4395 135.917 73.1674C135.968 72.8883 136.073 72.7028 136.233 72.6108C136.392 72.5188 136.684 72.5998 137.107 72.854C137.538 73.1041 137.808 73.3227 137.916 73.5097C137.968 73.5998 137.967 73.7343 137.913 73.9131C137.866 74.088 137.787 74.2074 137.676 74.2714C137.469 74.3914 137.162 74.3972 136.758 74.2889C136.354 74.1805 136.1 74.0363 135.996 73.8562ZM132.908 66.0363C132.792 65.8354 132.841 65.6729 133.056 65.5489C133.271 65.4249 133.643 65.4133 134.172 65.5142C134.709 65.611 135.017 65.7287 135.097 65.8673C135.361 66.3245 135.744 67.3642 136.246 68.9864C136.752 70.5976 136.886 71.4712 136.651 71.6072C136.464 71.7152 136.224 71.7242 135.932 71.6342C135.64 71.5442 135.43 71.3973 135.304 71.1935C135.246 71.1252 135.145 70.8875 135.003 70.4803C134.856 70.0662 134.602 69.4506 134.241 68.6336C133.876 67.8097 133.432 66.9439 132.908 66.0363Z" fill="white"/>
<path d="M61.8579 2.00547C61.5051 2.00947 32.711 12.6545 32.711 12.6545L40.5751 16.2051L61.8618 2.00444L61.8579 2.00547Z" fill="#E3EFF9"/>
<path d="M42.624 25.0035L40.5692 16.2136L61.8548 2.00905L56.2931 10.0459L42.624 25.0035Z" fill="#B5D3E2"/>
<path d="M45.5598 18.1466L42.6227 24.9987L48.5287 18.8611L45.5598 18.1466Z" fill="#CADDEA"/>
<path d="M45.5599 18.1483L54.5144 22.2667L61.8564 2.00112L45.5599 18.1483Z" fill="#E3EFF9"/>
<path d="M75.5 86C72.7 86.8 71.3333 85 71 84H70.5L71 87.5L75.5 86.5V86Z" fill="white"/>
<defs>
<filter id="filter0_d_1274_2874" x="64.6513" y="5.68183" width="63.1272" height="75.9321" filterUnits="userSpaceOnUse" color-interpolation-filters="sRGB">
<feFlood flood-opacity="0" result="BackgroundImageFix"/>
<feColorMatrix in="SourceAlpha" type="matrix" values="0 0 0 0 0 0 0 0 0 0 0 0 0 0 0 0 0 0 127 0" result="hardAlpha"/>
<feOffset/>
<feGaussianBlur stdDeviation="2"/>
<feComposite in2="hardAlpha" operator="out"/>
<feColorMatrix type="matrix" values="0 0 0 0 0.713894 0 0 0 0 0.7125 0 0 0 0 1 0 0 0 0.25 0"/>
<feBlend mode="normal" in2="BackgroundImageFix" result="effect1_dropShadow_1274_2874"/>
<feBlend mode="normal" in="SourceGraphic" in2="effect1_dropShadow_1274_2874" result="shape"/>
</filter>
<filter id="filter1_d_1274_2874" x="71.5754" y="55.7129" width="65.0128" height="31.2688" filterUnits="userSpaceOnUse" color-interpolation-filters="sRGB">
<feFlood flood-opacity="0" result="BackgroundImageFix"/>
<feColorMatrix in="SourceAlpha" type="matrix" values="0 0 0 0 0 0 0 0 0 0 0 0 0 0 0 0 0 0 127 0" result="hardAlpha"/>
<feOffset dy="-1"/>
<feComposite in2="hardAlpha" operator="out"/>
<feColorMatrix type="matrix" values="0 0 0 0 0.966667 0 0 0 0 0.735783 0 0 0 0 0.402778 0 0 0 1 0"/>
<feBlend mode="normal" in2="BackgroundImageFix" result="effect1_dropShadow_1274_2874"/>
<feBlend mode="normal" in="SourceGraphic" in2="effect1_dropShadow_1274_2874" result="shape"/>
</filter>
<linearGradient id="paint0_linear_1274_2874" x1="98" y1="98" x2="98" y2="-0.729324" gradientUnits="userSpaceOnUse">
<stop stop-color="white"/>
<stop offset="0.953937" stop-color="#FEF0CD"/>
</linearGradient>
</defs>
</svg>
