<svg width="18" height="18" viewBox="0 0 18 18" fill="none" xmlns="http://www.w3.org/2000/svg">
<path d="M6.87973 11.0198C6.73613 11.0198 6.59575 11.0624 6.47635 11.1421C6.35696 11.2219 6.26389 11.3353 6.20894 11.468C6.15399 11.6006 6.13961 11.7466 6.16762 11.8875C6.19564 12.0283 6.26479 12.1577 6.36633 12.2592C6.46787 12.3608 6.59724 12.4299 6.73808 12.4579C6.87892 12.4859 7.02491 12.4716 7.15758 12.4166C7.29025 12.3617 7.40364 12.2686 7.48342 12.1492C7.5632 12.0298 7.60578 11.8894 7.60578 11.7458C7.60578 11.5533 7.52929 11.3686 7.39313 11.2324C7.25697 11.0963 7.07229 11.0198 6.87973 11.0198ZM1.79734 10.2937C1.60478 10.2937 1.42011 10.3702 1.28395 10.5064C1.14778 10.6425 1.07129 10.8272 1.07129 11.0198V12.4719C1.07129 12.6644 1.14778 12.8491 1.28395 12.9853C1.42011 13.1214 1.60478 13.1979 1.79734 13.1979C1.98991 13.1979 2.17458 13.1214 2.31074 12.9853C2.4469 12.8491 2.5234 12.6644 2.5234 12.4719V11.0198C2.5234 10.8272 2.4469 10.6425 2.31074 10.5064C2.17458 10.3702 1.98991 10.2937 1.79734 10.2937ZM16.3184 10.2937C16.1259 10.2937 15.9412 10.3702 15.805 10.5064C15.6689 10.6425 15.5924 10.8272 15.5924 11.0198V12.4719C15.5924 12.6644 15.6689 12.8491 15.805 12.9853C15.9412 13.1214 16.1259 13.1979 16.3184 13.1979C16.511 13.1979 16.6957 13.1214 16.8318 12.9853C16.968 12.8491 17.0445 12.6644 17.0445 12.4719V11.0198C17.0445 10.8272 16.968 10.6425 16.8318 10.5064C16.6957 10.3702 16.511 10.2937 16.3184 10.2937ZM12.6882 5.21133H9.78395V4.28198C10.0034 4.15527 10.1859 3.97334 10.3133 3.75426C10.4407 3.53518 10.5085 3.28658 10.51 3.03316C10.51 2.64804 10.357 2.27869 10.0847 2.00637C9.81237 1.73404 9.44302 1.58105 9.05789 1.58105C8.67277 1.58105 8.30342 1.73404 8.0311 2.00637C7.75877 2.27869 7.60578 2.64804 7.60578 3.03316C7.60731 3.28658 7.67514 3.53518 7.80251 3.75426C7.92988 3.97334 8.11237 4.15527 8.33184 4.28198V5.21133H5.42762C4.84993 5.21133 4.29591 5.44081 3.88742 5.8493C3.47894 6.25778 3.24945 6.81181 3.24945 7.38949V13.924C3.24945 14.5017 3.47894 15.0557 3.88742 15.4642C4.29591 15.8727 4.84993 16.1022 5.42762 16.1022H12.6882C13.2659 16.1022 13.8199 15.8727 14.2284 15.4642C14.6368 15.0557 14.8663 14.5017 14.8663 13.924V7.38949C14.8663 6.81181 14.6368 6.25778 14.2284 5.8493C13.8199 5.44081 13.2659 5.21133 12.6882 5.21133ZM10.3067 6.66344L9.94368 8.11555H8.17211L7.80908 6.66344H10.3067ZM13.4142 13.924C13.4142 14.1166 13.3377 14.3012 13.2016 14.4374C13.0654 14.5736 12.8807 14.65 12.6882 14.65H5.42762C5.23506 14.65 5.05038 14.5736 4.91422 14.4374C4.77806 14.3012 4.70156 14.1166 4.70156 13.924V7.38949C4.70156 7.19693 4.77806 7.01226 4.91422 6.8761C5.05038 6.73993 5.23506 6.66344 5.42762 6.66344H6.31341L6.87973 9.01586C6.91948 9.17695 7.01321 9.31957 7.14532 9.41997C7.27742 9.52037 7.43993 9.57249 7.60578 9.56766H10.51C10.6759 9.57249 10.8384 9.52037 10.9705 9.41997C11.1026 9.31957 11.1963 9.17695 11.2361 9.01586L11.8024 6.66344H12.6882C12.8807 6.66344 13.0654 6.73993 13.2016 6.8761C13.3377 7.01226 13.4142 7.19693 13.4142 7.38949V13.924ZM11.2361 11.0198C11.0925 11.0198 10.9521 11.0624 10.8327 11.1421C10.7133 11.2219 10.6202 11.3353 10.5653 11.468C10.5103 11.6006 10.4959 11.7466 10.524 11.8875C10.552 12.0283 10.6211 12.1577 10.7227 12.2592C10.8242 12.3608 10.9536 12.4299 11.0944 12.4579C11.2353 12.4859 11.3812 12.4716 11.5139 12.4166C11.6466 12.3617 11.76 12.2686 11.8398 12.1492C11.9195 12.0298 11.9621 11.8894 11.9621 11.7458C11.9621 11.5533 11.8856 11.3686 11.7495 11.2324C11.6133 11.0963 11.4286 11.0198 11.2361 11.0198Z" fill="#717B9E"/>
</svg>
