<svg width="14" height="12" viewBox="0 0 14 12" fill="none" xmlns="http://www.w3.org/2000/svg">
<rect x="1.41162" y="3.27501" width="11.1765" height="7.51443" rx="0.960931" stroke="#979EC2" stroke-width="1.3" stroke-linecap="round" stroke-linejoin="round"/>
<path fill-rule="evenodd" clip-rule="evenodd" d="M1.41162 4.23594C1.41162 3.70524 1.84184 3.27501 2.37255 3.27501H11.6272C12.1579 3.27501 12.5881 3.70524 12.5881 4.23594V4.98996C12.5881 5.42402 12.2976 5.80254 11.8732 5.89349C10.9139 6.09906 9.10449 6.42009 7.15955 6.42009C5.18192 6.42009 3.19182 6.08818 2.15147 5.88323C1.71573 5.79738 1.41162 5.41244 1.41162 4.96832V4.23594Z" stroke="#979EC2" stroke-width="1.3" stroke-linecap="round" stroke-linejoin="round"/>
<path d="M9.23477 3.48899V2.17151C9.23477 1.64081 8.80455 1.21058 8.27384 1.21058L5.72509 1.21058C5.19438 1.21058 4.76416 1.64081 4.76416 2.17151V3.48899" stroke="#979EC2" stroke-width="1.3" stroke-linejoin="round"/>
</svg>
