<svg width="20" height="20" viewBox="0 0 20 20" fill="none" xmlns="http://www.w3.org/2000/svg">
<g clip-path="url(#clip0)">
<path fill-rule="evenodd" clip-rule="evenodd" d="M8.92812 1.8334C9.41362 1.02423 10.5863 1.02422 11.0719 1.83339L17.9263 13.2574C18.2749 13.8385 18.237 14.5728 17.8305 15.1149L15.3409 18.4344H16.844C17.3042 18.4344 17.6773 18.8075 17.6773 19.2677C17.6773 19.7279 17.3042 20.101 16.844 20.101H3.15551C2.69527 20.101 2.32217 19.7279 2.32217 19.2677C2.32217 18.8075 2.69527 18.4344 3.15551 18.4344H4.65912L2.16952 15.1149C1.76294 14.5728 1.72505 13.8385 2.0737 13.2574L8.92812 1.8334ZM9.99999 3.28637L3.50285 14.1149L6.61665 18.2666C6.64813 18.3086 6.69753 18.3333 6.74999 18.3333H13.25C13.3024 18.3333 13.3518 18.3086 13.3833 18.2666L16.4971 14.1149L9.99999 3.28637ZM9.99988 11.25C9.32612 11.25 8.77995 11.7961 8.77995 12.4699C8.77995 13.1436 9.32612 13.6898 9.99988 13.6898C10.6736 13.6898 11.2198 13.1436 11.2198 12.4699C11.2198 11.7961 10.6736 11.25 9.99988 11.25ZM7.11328 12.4699C7.11328 10.8757 8.40567 9.5833 9.99988 9.5833C11.5941 9.5833 12.8865 10.8757 12.8865 12.4699C12.8865 14.0641 11.5941 15.3565 9.99988 15.3565C8.40567 15.3565 7.11328 14.0641 7.11328 12.4699Z" fill="#8D9CBD"/>
</g>
<defs>
<clipPath id="clip0">
<rect width="20" height="20" fill="white"/>
</clipPath>
</defs>
</svg>
