<svg xmlns="http://www.w3.org/2000/svg" width="75" height="48" viewBox="0 0 75 48" fill="none">
<path d="M-33.0702 5.80701L-22.4035 7.49122C-21.5614 10.2982 -20.4386 13.1053 -19.0351 15.6316L-25.3509 24.3333C-26.7544 26.1579 -26.4737 28.8246 -24.9298 30.3684L-16.3684 38.9298C-14.6842 40.614 -12.1579 40.7544 -10.3333 39.3509L-1.63158 33.0351C0.894733 34.4386 3.70175 35.5614 6.50877 36.4035L8.19298 47.0702C8.61403 49.3158 10.4386 51 12.8246 51H25.0351C27.2807 51 29.2456 49.3158 29.6667 47.0702L31.3509 36.4035C34.1579 35.5614 36.8246 34.4386 39.4912 33.0351L48.3333 39.3509C50.1579 40.7544 52.8246 40.4737 54.3684 38.9298L62.9298 30.3684C64.614 28.6842 64.7544 26.1579 63.3509 24.3333L57.0351 15.4912C58.4386 12.9649 59.5614 10.1579 60.4035 7.35088L71.0702 5.66666C73.3158 5.24561 75 3.42105 75 1.03508V-11.1754C75 -13.4211 73.3158 -15.386 71.0702 -15.807L60.4035 -17.4912C59.5614 -20.2982 58.4386 -22.9649 57.0351 -25.6316L63.3509 -34.4737C64.7544 -36.2982 64.4737 -38.9649 62.7895 -40.5088L54.2281 -49.0702C52.5439 -50.7544 50.0175 -50.8947 48.193 -49.4912L39.3509 -43.1754C36.8246 -44.5789 34.0175 -45.7018 31.2105 -46.5439L29.5263 -57.2105C29.5263 -59.3158 27.5614 -61 25.1754 -61H12.9649C10.7193 -61 8.75438 -59.3158 8.33333 -57.0702L6.64912 -46.4035C3.8421 -45.5614 1.03508 -44.4386 -1.49123 -43.0351L-10.3333 -49.3509C-12.1579 -50.7544 -14.8246 -50.4737 -16.3684 -48.9298L-24.9298 -40.3684C-26.614 -38.6842 -26.7544 -36.1579 -25.3509 -34.3333L-19.0351 -25.4912C-20.4386 -22.9649 -21.5614 -20.1579 -22.4035 -17.3509L-33.0702 -15.6667C-35.3158 -15.2456 -37 -13.2807 -37 -10.8947V1.31579C-37 3.5614 -35.3158 5.52631 -33.0702 5.80701ZM-33.9123 -10.8947C-33.9123 -11.5965 -33.3509 -12.2983 -32.6491 -12.4386L-21 -14.2632C-20.4386 -14.4035 -19.8772 -14.8246 -19.7368 -15.386C-18.8947 -18.614 -17.6316 -21.7018 -15.9474 -24.6491C-15.6667 -25.2105 -15.6667 -25.9123 -16.0877 -26.3333L-22.9649 -35.8772C-23.386 -36.4386 -23.386 -37.2807 -22.8246 -37.8421L-14.2632 -46.4035C-13.7018 -46.9649 -12.8596 -46.9649 -12.2982 -46.5439L-2.75439 -39.6667C-2.19298 -39.2456 -1.63158 -39.2456 -1.07018 -39.5263C1.73684 -41.2105 4.82456 -42.4737 8.19298 -43.3158C8.75438 -43.4561 9.17543 -44.0175 9.31578 -44.5789L11.1403 -56.2281C11.2807 -56.9298 11.8421 -57.4912 12.6842 -57.4912H24.8947C25.5965 -57.4912 26.2982 -56.9298 26.4386 -56.2281L28.2632 -44.5789C28.4035 -44.0175 28.8246 -43.4561 29.386 -43.3158C32.614 -42.4737 35.7018 -41.2105 38.6491 -39.5263C39.2105 -39.2456 39.9123 -39.2456 40.3333 -39.6667L49.8772 -46.5439C50.4386 -46.9649 51.2807 -46.9649 51.8421 -46.4035L60.4035 -37.8421C60.9649 -37.2807 60.9649 -36.4386 60.5439 -35.8772L54.2281 -26.4737C53.807 -25.9123 53.807 -25.3509 54.0877 -24.7895C55.7719 -21.8421 57.0351 -18.7544 57.8772 -15.5263C58.0175 -14.9649 58.5789 -14.5439 59.1403 -14.4035L70.7895 -12.579C71.4912 -12.4386 72.0526 -11.7368 72.0526 -11.0351V1.17543C72.0526 1.87719 71.4912 2.57895 70.7895 2.7193L59.1403 4.54385C58.5789 4.6842 58.0175 5.10526 57.8772 5.66666C57.0351 8.89473 55.7719 12.1228 54.0877 14.9298C53.807 15.4912 53.807 16.193 54.2281 16.614L61.1053 26.1579C61.5263 26.7193 61.5263 27.7017 60.9649 28.1228L52.4035 36.6842C51.8421 37.2456 51 37.2456 50.4386 36.8245L40.7544 30.2281C40.193 29.807 39.6316 29.807 39.0702 30.0877C36.1228 31.7719 33.0351 33.0351 29.807 33.8772C29.2456 34.0175 28.8246 34.5789 28.6842 35.1403L26.8596 46.7895C26.7193 47.4912 26.0175 48.0526 25.3158 48.0526H13.1053C12.2632 48.0526 11.7017 47.4912 11.5614 46.7895L9.73684 35.1403C9.59649 34.5789 9.17543 34.0175 8.61403 33.8772C5.24561 33.0351 2.15789 31.6316 -0.649124 30.0877C-0.929825 29.9474 -1.21053 29.807 -1.49123 29.807C-1.77193 29.807 -2.19299 29.9474 -2.47369 30.0877L-12.0175 36.9649C-12.7193 37.386 -13.4211 37.386 -13.9825 36.8245L-22.5439 28.2631C-23.1053 27.7017 -23.1053 26.8596 -22.6842 26.2982L-15.807 16.7544C-15.386 16.193 -15.386 15.6316 -15.6667 15.0702C-17.3509 12.2631 -18.614 9.17543 -19.4561 5.80701C-19.5965 5.24561 -20.1579 4.82455 -20.7193 4.6842L-32.3684 2.85965C-33.0702 2.71929 -33.6316 2.01754 -33.6316 1.31579L-33.9123 -10.8947Z" fill="url(#paint0_linear_3090_12542)"/>
<defs>
<linearGradient id="paint0_linear_3090_12542" x1="-10.7231" y1="-99.1231" x2="48.5077" y2="53.3692" gradientUnits="userSpaceOnUse">
<stop stop-color="#3D6DF6"/>
<stop offset="1" stop-color="#3D6DF6" stop-opacity="0"/>
</linearGradient>
</defs>
</svg>