<svg width="12" height="12" viewBox="0 0 12 12" fill="none" xmlns="http://www.w3.org/2000/svg">
<path d="M9.30134 7.64942L8.47633 6.82447L9.30134 5.99952C10.2126 5.08829 10.2126 3.61092 9.30134 2.69969C8.39011 1.78847 6.9127 1.78847 6.00148 2.69969L5.17653 3.52465L4.35156 2.69969L5.17653 1.87474C6.54333 0.5079 8.75942 0.5079 10.1263 1.87474C11.4931 3.24157 11.4931 5.45766 10.1263 6.82447L9.30134 7.64942ZM7.65138 9.29937L6.82643 10.1243C5.45962 11.4911 3.24352 11.4911 1.87669 10.1243C0.509855 8.75746 0.509855 6.54137 1.87669 5.17457L2.70165 4.34961L3.5266 5.17457L2.70165 5.99952C1.79042 6.91074 1.79042 8.38815 2.70165 9.29937C3.61287 10.2106 5.09025 10.2106 6.00148 9.29937L6.82643 8.47442L7.65138 9.29937ZM7.65138 3.52465L8.47633 4.34961L4.35156 8.47442L3.5266 7.64942L7.65138 3.52465Z" fill="white"/>
</svg>
