<svg width="36" height="36" viewBox="0 0 36 36" fill="none" xmlns="http://www.w3.org/2000/svg">
<path fill-rule="evenodd" clip-rule="evenodd" d="M18 36C27.9411 36 36 27.9411 36 18C36 8.05887 27.9411 0 18 0C8.05887 0 0 8.05887 0 18C0 27.9411 8.05887 36 18 36ZM24.8778 28H29.6667V20.4455C29.6667 16.237 27.3084 14.283 24.3071 14.283C21.8883 14.283 20.3727 15.6135 20.092 16.546V14.4135H15.348C15.409 15.5455 15.348 28 15.348 28H20.092V20.6475C20.092 20.5986 20.0917 20.5497 20.0914 20.5009C20.0894 20.1428 20.0874 19.7954 20.1954 19.5375C20.5214 18.7205 21.2221 17.8725 22.4817 17.8725C24.1294 17.8725 24.8778 19.129 24.8778 20.969V28ZM10.3435 12.714H10.6333C12.2204 12.714 13.1261 11.6715 13.1261 10.355C13.0961 9.0145 12.1378 8 10.5798 8C9.0203 8 8 9.017 8 10.359C8 11.6755 8.81504 12.714 10.3435 12.714ZM12.7696 14.4135H8.54659V28H12.7696V14.4135Z" fill="#037BB5"/>
</svg>