<svg width="24" height="24" viewBox="0 0 24 24" fill="none" xmlns="http://www.w3.org/2000/svg">
<circle cx="12" cy="12" r="12" fill="#979EC2"/>
<path d="M15.9461 11.436H8.05417C7.43152 11.436 6.92676 11.9408 6.92676 12.5634V16.5094C6.92676 17.1321 7.43152 17.6368 8.05417 17.6368H15.9461C16.5687 17.6368 17.0735 17.1321 17.0735 16.5094V12.5634C17.0735 11.9408 16.5687 11.436 15.9461 11.436Z" stroke="white" stroke-width="1.3" stroke-linecap="round" stroke-linejoin="round"/>
<path d="M9.18164 11.4362V9.18133C9.18164 8.43381 9.47859 7.7169 10.0072 7.18832C10.5357 6.65974 11.2527 6.36279 12.0002 6.36279C12.7477 6.36279 13.4646 6.65974 13.9932 7.18832C14.5218 7.7169 14.8187 8.43381 14.8187 9.18133V11.4362" stroke="white" stroke-width="1.3" stroke-linecap="round" stroke-linejoin="round"/>
</svg>
