<svg width="28" height="28" viewBox="0 0 28 28" fill="none" xmlns="http://www.w3.org/2000/svg">
<rect x="1" y="1" width="26" height="26" rx="13" fill="white" stroke="#F3F1FF" stroke-width="2"/>
<path d="M14 14.6114C13.8379 14.6114 13.6825 14.6758 13.5679 14.7904C13.4532 14.905 13.3889 15.0604 13.3889 15.2225V17.0558C13.3889 17.2179 13.4532 17.3733 13.5679 17.4879C13.6825 17.6026 13.8379 17.6669 14 17.6669C14.162 17.6669 14.3175 17.6026 14.4321 17.4879C14.5467 17.3733 14.6111 17.2179 14.6111 17.0558V15.2225C14.6111 15.0604 14.5467 14.905 14.4321 14.7904C14.3175 14.6758 14.162 14.6114 14 14.6114ZM17.0555 12.1669V10.9447C17.0555 10.1343 16.7336 9.35714 16.1606 8.78411C15.5875 8.21108 14.8104 7.88916 14 7.88916C13.1896 7.88916 12.4124 8.21108 11.8394 8.78411C11.2663 9.35714 10.9444 10.1343 10.9444 10.9447V12.1669C10.4582 12.1669 9.99187 12.3601 9.64805 12.7039C9.30424 13.0477 9.11108 13.514 9.11108 14.0003V18.278C9.11108 18.7643 9.30424 19.2306 9.64805 19.5744C9.99187 19.9182 10.4582 20.1114 10.9444 20.1114H17.0555C17.5418 20.1114 18.0081 19.9182 18.3519 19.5744C18.6957 19.2306 18.8889 18.7643 18.8889 18.278V14.0003C18.8889 13.514 18.6957 13.0477 18.3519 12.7039C18.0081 12.3601 17.5418 12.1669 17.0555 12.1669ZM12.1666 10.9447C12.1666 10.4585 12.3598 9.99217 12.7036 9.64835C13.0474 9.30454 13.5137 9.11138 14 9.11138C14.4862 9.11138 14.9525 9.30454 15.2963 9.64835C15.6402 9.99217 15.8333 10.4585 15.8333 10.9447V12.1669H12.1666V10.9447ZM17.6666 18.278C17.6666 18.4401 17.6023 18.5956 17.4876 18.7102C17.373 18.8248 17.2176 18.8892 17.0555 18.8892H10.9444C10.7823 18.8892 10.6269 18.8248 10.5123 18.7102C10.3977 18.5956 10.3333 18.4401 10.3333 18.278V14.0003C10.3333 13.8382 10.3977 13.6828 10.5123 13.5682C10.6269 13.4535 10.7823 13.3892 10.9444 13.3892H17.0555C17.2176 13.3892 17.373 13.4535 17.4876 13.5682C17.6023 13.6828 17.6666 13.8382 17.6666 14.0003V18.278Z" fill="#8951FF"/>
</svg>
