<svg width="12" height="14" viewBox="0 0 12 14" fill="none" xmlns="http://www.w3.org/2000/svg">
<path d="M9.94607 6.44714H2.05417C1.43152 6.44714 0.926758 6.9519 0.926758 7.57456V11.5205C0.926758 12.1432 1.43152 12.6479 2.05417 12.6479H9.94607C10.5687 12.6479 11.0735 12.1432 11.0735 11.5205V7.57456C11.0735 6.9519 10.5687 6.44714 9.94607 6.44714Z" stroke="#275DF5" stroke-width="1.3" stroke-linecap="round" stroke-linejoin="round"/>
<path d="M3.18164 6.44714V4.19231C3.18164 3.44479 3.47859 2.72789 4.00717 2.19931C4.53575 1.67073 5.25265 1.37378 6.00018 1.37378C6.7477 1.37378 7.4646 1.67073 7.99318 2.19931C8.52176 2.72789 8.81871 3.44479 8.81871 4.19231V6.44714" stroke="#275DF5" stroke-width="1.3" stroke-linecap="round" stroke-linejoin="round"/>
</svg>
