<svg width="10" height="14" viewBox="0 0 10 14" fill="none" xmlns="http://www.w3.org/2000/svg">
<path d="M4.99997 7.61102C4.8379 7.61102 4.68246 7.6754 4.56785 7.79001C4.45325 7.90461 4.38886 8.06005 4.38886 8.22213V10.0555C4.38886 10.2175 4.45325 10.373 4.56785 10.4876C4.68246 10.6022 4.8379 10.6666 4.99997 10.6666C5.16205 10.6666 5.31749 10.6022 5.43209 10.4876C5.5467 10.373 5.61108 10.2175 5.61108 10.0555V8.22213C5.61108 8.06005 5.5467 7.90461 5.43209 7.79001C5.31749 7.6754 5.16205 7.61102 4.99997 7.61102ZM8.05553 5.16657V3.94435C8.05553 3.13397 7.73361 2.35677 7.16058 1.78375C6.58755 1.21072 5.81036 0.888794 4.99997 0.888794C4.18959 0.888794 3.4124 1.21072 2.83937 1.78375C2.26634 2.35677 1.94442 3.13397 1.94442 3.94435V5.16657C1.45819 5.16657 0.991872 5.35973 0.648055 5.70354C0.304238 6.04736 0.111084 6.51368 0.111084 6.99991V11.2777C0.111084 11.7639 0.304238 12.2302 0.648055 12.574C0.991872 12.9179 1.45819 13.111 1.94442 13.111H8.05553C8.54176 13.111 9.00807 12.9179 9.35189 12.574C9.69571 12.2302 9.88886 11.7639 9.88886 11.2777V6.99991C9.88886 6.51368 9.69571 6.04736 9.35189 5.70354C9.00807 5.35973 8.54176 5.16657 8.05553 5.16657ZM3.16664 3.94435C3.16664 3.45812 3.35979 2.9918 3.70361 2.64799C4.04743 2.30417 4.51374 2.11102 4.99997 2.11102C5.4862 2.11102 5.95252 2.30417 6.29634 2.64799C6.64015 2.9918 6.83331 3.45812 6.83331 3.94435V5.16657H3.16664V3.94435ZM8.66664 11.2777C8.66664 11.4398 8.60226 11.5952 8.48765 11.7098C8.37304 11.8244 8.21761 11.8888 8.05553 11.8888H1.94442C1.78234 11.8888 1.6269 11.8244 1.5123 11.7098C1.39769 11.5952 1.33331 11.4398 1.33331 11.2777V6.99991C1.33331 6.83783 1.39769 6.68239 1.5123 6.56778C1.6269 6.45318 1.78234 6.38879 1.94442 6.38879H8.05553C8.21761 6.38879 8.37304 6.45318 8.48765 6.56778C8.60226 6.68239 8.66664 6.83783 8.66664 6.99991V11.2777Z" fill="#8951FF"/>
</svg>
