<svg width="14" height="14" viewBox="0 0 14 14" fill="none" xmlns="http://www.w3.org/2000/svg">
<path d="M5.2168 7.92738V10.7443C5.2168 10.8339 5.31105 10.8922 5.39115 10.8521L6.97006 10.0626C7.00398 10.0457 7.0439 10.0457 7.07782 10.0626L8.65673 10.8521C8.73683 10.8922 8.83108 10.8339 8.83108 10.7443V7.92738" stroke="#979EC2"/>
<circle cx="7.02362" cy="6.12023" r="2.4119" stroke="#979EC2" stroke-width="1.2"/>
<path d="M13.0476 11.3658V2.80714C13.0476 1.80909 12.2385 1 11.2405 1H9.56015H2.80714C1.80909 1 1 1.80909 1 2.80714V11.3658C1 12.3638 1.80909 13.1729 2.80714 13.1729H11.2405C12.2385 13.1729 13.0476 12.3638 13.0476 11.3658Z" stroke="#979EC2" stroke-width="1.3"/>
</svg>
