<svg width="260" height="130" viewBox="0 0 260 130" fill="none" xmlns="http://www.w3.org/2000/svg">
<path d="M48.7552 128.6C45.8933 128.6 43.557 126.278 43.7286 123.421C44.479 110.929 47.9369 98.728 53.8867 87.672C59.8365 76.616 68.115 67.0089 78.1271 59.5016C80.4169 57.7847 83.6419 58.4553 85.2184 60.8438V60.8438C86.7949 63.2324 86.1242 66.4329 83.8486 68.1685C75.2603 74.7186 68.1503 83.0373 63.013 92.5834C57.8757 102.129 54.8496 112.646 54.1137 123.422C53.9188 126.277 51.6171 128.6 48.7552 128.6V128.6Z" fill="#F04141" fill-opacity="0.15"/>
<path d="M48.7552 128.6C45.8933 128.6 43.557 126.278 43.7286 123.421C44.3645 112.835 46.9448 102.457 51.3399 92.8056C52.526 90.2011 55.6777 89.2433 58.2065 90.5834V90.5834C60.7352 91.9236 61.6812 95.0538 60.5164 97.668C56.8884 105.81 54.721 114.528 54.1137 123.422C53.9188 126.277 51.6171 128.6 48.7552 128.6V128.6Z" fill="#F04141"/>
<path d="M89.8764 57.9896C88.4641 55.5005 89.331 52.3225 91.9004 51.062C103.778 45.2348 116.859 42.204 130.136 42.2342C143.412 42.2644 156.479 45.3547 168.33 51.2359C170.894 52.5081 171.746 55.69 170.323 58.1727V58.1727C168.899 60.6554 165.739 61.4966 163.165 60.2455C152.885 55.2482 141.587 52.6242 130.112 52.5981C118.637 52.572 107.328 55.1445 97.0244 60.095C94.4448 61.3344 91.2887 60.4788 89.8764 57.9896V57.9896Z" fill="#F04141" fill-opacity="0.15"/>
<path d="M171.781 59.029C173.256 56.5764 176.45 55.7712 178.81 57.3907C189.718 64.8771 198.781 74.7843 205.274 86.3651C211.766 97.9458 215.49 110.846 216.186 124.059C216.336 126.916 213.983 129.221 211.121 129.2V129.2C208.259 129.179 205.975 126.839 205.801 123.983C205.106 112.573 201.845 101.443 196.234 91.4333C190.622 81.4237 182.828 72.8348 173.456 66.2897C171.11 64.6511 170.306 61.4815 171.781 59.029V59.029Z" fill="#F04141" fill-opacity="0.15"/>
<g clip-path="url(#clip0_8027_3113)">
<circle cx="129.483" cy="130.27" r="115.55" stroke="url(#paint0_linear_8027_3113)" stroke-opacity="0.3" stroke-width="0.558333"/>
<circle cx="130.335" cy="131.117" r="129.177" stroke="url(#paint1_linear_8027_3113)" stroke-opacity="0.3" stroke-width="0.558333"/>
<circle cx="129.483" cy="127.27" r="98.3969" stroke="url(#paint2_linear_8027_3113)" stroke-opacity="0.5" stroke-width="0.797619"/>
</g>
<defs>
<linearGradient id="paint0_linear_8027_3113" x1="129.483" y1="14.4404" x2="129.483" y2="246.099" gradientUnits="userSpaceOnUse">
<stop stop-color="#F04141"/>
<stop offset="1" stop-color="white" stop-opacity="0"/>
</linearGradient>
<linearGradient id="paint1_linear_8027_3113" x1="130.335" y1="1.66016" x2="130.335" y2="260.573" gradientUnits="userSpaceOnUse">
<stop stop-color="#F04141"/>
<stop offset="1" stop-color="white" stop-opacity="0"/>
</linearGradient>
<linearGradient id="paint2_linear_8027_3113" x1="129.483" y1="28.4746" x2="129.483" y2="226.066" gradientUnits="userSpaceOnUse">
<stop stop-color="#E63737"/>
<stop offset="1" stop-color="white" stop-opacity="0"/>
</linearGradient>
<clipPath id="clip0_8027_3113">
<rect width="258.61" height="129" fill="white" transform="translate(0.878418)"/>
</clipPath>
</defs>
</svg>
