<svg width="260" height="130" viewBox="0 0 260 130" fill="none" xmlns="http://www.w3.org/2000/svg">
<path d="M48.5804 128.6C45.7185 128.6 43.3822 126.278 43.5538 123.421C44.3042 110.929 47.7621 98.728 53.7119 87.672C59.6617 76.616 67.9402 67.0089 77.9523 59.5016C80.242 57.7847 83.4671 58.4553 85.0436 60.8438V60.8438C86.6201 63.2324 85.9493 66.4329 83.6737 68.1685C75.0855 74.7186 67.9755 83.0373 62.8382 92.5834C57.7009 102.129 54.6748 112.646 53.9389 123.422C53.744 126.277 51.4423 128.6 48.5804 128.6V128.6Z" fill="#F04141"/>
<path d="M48.5804 128.6C45.7185 128.6 43.3822 126.278 43.5538 123.421C44.1897 112.835 46.77 102.457 51.1651 92.8056C52.3512 90.2011 55.5029 89.2433 58.0317 90.5834V90.5834C60.5604 91.9236 61.5064 95.0538 60.3416 97.668C56.7136 105.81 54.5462 114.528 53.9389 123.422C53.744 126.277 51.4423 128.6 48.5804 128.6V128.6Z" fill="#F04141"/>
<path d="M89.7016 57.9896C88.2893 55.5005 89.1562 52.3225 91.7256 51.062C103.604 45.2348 116.684 42.204 129.961 42.2342C143.237 42.2644 156.304 45.3547 168.156 51.2359C170.719 52.5081 171.572 55.69 170.148 58.1727V58.1727C168.724 60.6554 165.564 61.4966 162.991 60.2455C152.71 55.2482 141.413 52.6242 129.937 52.5981C118.462 52.572 107.153 55.1445 96.8496 60.095C94.27 61.3344 91.1139 60.4788 89.7016 57.9896V57.9896Z" fill="#F04141" fill-opacity="0.15"/>
<path d="M171.606 59.029C173.081 56.5764 176.275 55.7712 178.635 57.3907C189.543 64.8771 198.606 74.7843 205.099 86.3651C211.591 97.9458 215.315 110.846 216.011 124.059C216.161 126.916 213.808 129.221 210.946 129.2V129.2C208.084 129.179 205.8 126.839 205.626 123.983C204.932 112.573 201.67 101.443 196.059 91.4333C190.447 81.4237 182.653 72.8348 173.282 66.2897C170.935 64.6511 170.131 61.4815 171.606 59.029V59.029Z" fill="#F04141" fill-opacity="0.15"/>
<g clip-path="url(#clip0_8027_3124)">
<circle cx="129.308" cy="130.27" r="115.55" stroke="url(#paint0_linear_8027_3124)" stroke-opacity="0.3" stroke-width="0.558333"/>
<circle cx="130.16" cy="131.117" r="129.177" stroke="url(#paint1_linear_8027_3124)" stroke-opacity="0.3" stroke-width="0.558333"/>
<circle cx="129.308" cy="127.27" r="98.3969" stroke="url(#paint2_linear_8027_3124)" stroke-opacity="0.5" stroke-width="0.797619"/>
</g>
<defs>
<linearGradient id="paint0_linear_8027_3124" x1="129.308" y1="14.4404" x2="129.308" y2="246.099" gradientUnits="userSpaceOnUse">
<stop stop-color="#F04141"/>
<stop offset="1" stop-color="white" stop-opacity="0"/>
</linearGradient>
<linearGradient id="paint1_linear_8027_3124" x1="130.16" y1="1.66016" x2="130.16" y2="260.573" gradientUnits="userSpaceOnUse">
<stop stop-color="#F04141"/>
<stop offset="1" stop-color="white" stop-opacity="0"/>
</linearGradient>
<linearGradient id="paint2_linear_8027_3124" x1="129.308" y1="28.4746" x2="129.308" y2="226.066" gradientUnits="userSpaceOnUse">
<stop stop-color="#E63737"/>
<stop offset="1" stop-color="white" stop-opacity="0"/>
</linearGradient>
<clipPath id="clip0_8027_3124">
<rect width="258.61" height="129" fill="white" transform="translate(0.703369)"/>
</clipPath>
</defs>
</svg>
