<svg width="260" height="130" viewBox="0 0 260 130" fill="none" xmlns="http://www.w3.org/2000/svg">
<path d="M48.3197 129.202C45.4577 129.202 43.1215 126.88 43.2931 124.023C44.0864 110.817 47.9055 97.944 54.4835 86.4116C61.0614 74.8792 70.1974 65.0392 81.1611 57.6337C83.5327 56.0318 86.7208 56.8605 88.1776 59.3239V59.3239C89.6345 61.7873 88.8067 64.9508 86.4484 66.5721C77.0286 73.0477 69.1714 81.5787 63.4859 91.5465C57.8003 101.514 54.4569 112.62 53.6782 124.024C53.4832 126.88 51.1816 129.202 48.3197 129.202V129.202Z" fill="#FDAA29"/>
<path d="M89.4409 58.5921C88.0286 56.1029 88.8955 52.9249 91.4649 51.6644C103.343 45.8372 116.424 42.8064 129.7 42.8366C142.977 42.8669 156.043 45.9571 167.895 51.8383C170.458 53.1105 171.311 56.2924 169.887 58.7751V58.7751C168.464 61.2578 165.304 62.0991 162.73 60.8479C152.449 55.8506 141.152 53.2266 129.677 53.2005C118.201 53.1744 106.892 55.7469 96.5889 60.6974C94.0093 61.9368 90.8532 61.0812 89.4409 58.5921V58.5921Z" fill="#FDAA29" fill-opacity="0.2"/>
<path d="M89.4409 58.5921C88.0286 56.1029 88.8955 52.9249 91.4649 51.6644C103.847 45.59 117.505 42.5689 131.294 42.8549C134.155 42.9143 136.282 45.4302 136.051 48.2828V48.2828C135.82 51.1354 133.319 53.2422 130.457 53.2063C118.742 53.0592 107.149 55.6232 96.589 60.6973C94.0094 61.9368 90.8532 61.0812 89.4409 58.5921V58.5921Z" fill="#FDAA29"/>
<path d="M171.345 59.6314C172.82 57.1788 176.014 56.3737 178.374 57.9931C189.283 65.4795 198.346 75.3867 204.838 86.9675C211.331 98.5482 215.055 111.449 215.75 124.661C215.901 127.519 213.547 129.824 210.685 129.803V129.803C207.824 129.781 205.539 127.442 205.365 124.585C204.671 113.175 201.41 102.045 195.798 92.0357C190.186 82.0261 182.392 73.4372 173.021 66.8921C170.675 65.2535 169.87 62.0839 171.345 59.6314V59.6314Z" fill="#FDAA29" fill-opacity="0.2"/>
<g clip-path="url(#clip0_8027_3135)">
<circle cx="129.047" cy="130.872" r="115.55" stroke="url(#paint0_linear_8027_3135)" stroke-opacity="0.4" stroke-width="0.558333"/>
<circle cx="129.899" cy="131.719" r="129.177" stroke="url(#paint1_linear_8027_3135)" stroke-opacity="0.4" stroke-width="0.558333"/>
<circle cx="129.048" cy="127.873" r="98.3969" stroke="url(#paint2_linear_8027_3135)" stroke-opacity="0.6" stroke-width="0.797619"/>
</g>
<defs>
<linearGradient id="paint0_linear_8027_3135" x1="129.047" y1="15.0428" x2="129.047" y2="246.702" gradientUnits="userSpaceOnUse">
<stop stop-color="#FDAA29"/>
<stop offset="1" stop-color="white" stop-opacity="0"/>
</linearGradient>
<linearGradient id="paint1_linear_8027_3135" x1="129.899" y1="2.26257" x2="129.899" y2="261.175" gradientUnits="userSpaceOnUse">
<stop stop-color="#FDAA29"/>
<stop offset="1" stop-color="white" stop-opacity="0"/>
</linearGradient>
<linearGradient id="paint2_linear_8027_3135" x1="129.048" y1="29.077" x2="129.048" y2="226.668" gradientUnits="userSpaceOnUse">
<stop stop-color="#FDAA29"/>
<stop offset="1" stop-color="white" stop-opacity="0"/>
</linearGradient>
<clipPath id="clip0_8027_3135">
<rect width="258.61" height="129" fill="white" transform="translate(0.442871 0.602417)"/>
</clipPath>
</defs>
</svg>
