<svg width="68" height="73" viewBox="0 0 68 73" fill="none" xmlns="http://www.w3.org/2000/svg">
<path d="M13.271 30.0532C13.271 37.6605 18.2126 43.8274 26.0614 43.8274C33.9101 43.8274 40.2728 37.6605 40.2728 30.0532C40.2728 22.4459 35.3313 14.7485 27.4825 14.7485C19.6337 14.7485 13.271 22.4459 13.271 30.0532Z" fill="#121224"/>
<path d="M13.2706 29.069C13.2706 37.2197 18.5923 43.8271 27.0448 43.8271C35.4974 43.8271 42.3495 37.2197 42.3495 29.069C42.3495 20.9183 37.0278 12.6711 28.5753 12.6711C20.1228 12.6711 13.2706 20.9183 13.2706 29.069Z" fill="#121224"/>
<path d="M39.531 34.3432C40.3624 33.9941 40.9971 31.8044 41.7524 32.9342C43.0218 34.8382 46.1952 39.0843 49.3052 42.8289C56.8135 51.9303 58.5271 57.0015 57.9686 57.9852C57.4101 58.969 59.8727 54.9578 59.8727 54.9578L40.6417 29.8179L39.531 34.3432Z" fill="#121224"/>
<path d="M57.835 58.7977C58.0977 58.4344 58.3372 58.055 58.5522 57.6616C58.6283 57.5156 58.7299 57.3887 58.7997 57.2364C59.0271 56.6961 59.1725 56.1249 59.2313 55.5417C59.2313 55.4085 59.2313 55.2752 59.263 55.1482V54.742C59.2761 54.5609 59.2519 54.379 59.1919 54.2076C59.1318 54.0362 59.0372 53.8789 58.9139 53.7456C58.8314 53.6631 58.6283 53.8344 58.4443 54.0312C58.2602 54.2279 58.0761 54.431 58.1079 54.5263C58.203 54.9855 58.2223 55.4571 58.165 55.9226C58.0978 56.2568 57.964 56.5741 57.7715 56.8555C57.5874 57.1984 57.3751 57.5253 57.1368 57.833C56.9947 58.027 56.8399 58.2115 56.6735 58.3851C56.4275 58.6538 56.1505 58.8924 55.8484 59.096C55.5945 59.2229 55.3343 59.3181 55.0931 59.4133L54.9281 59.4768C54.7377 59.553 54.706 59.6736 54.725 59.9211C54.725 59.9782 54.725 60.0353 54.725 60.0861C54.7427 60.1774 54.7917 60.2597 54.8635 60.3187C54.9353 60.3778 55.0255 60.41 55.1185 60.4098C55.4413 60.4267 55.7648 60.3924 56.0769 60.3082C56.3763 60.1833 56.653 60.0095 56.8956 59.7941C57.2453 59.4974 57.5682 59.1703 57.8604 58.8167L57.835 58.7977Z" fill="#121224"/>
<path d="M34.2188 25.9463C36.6687 24.2644 36.2371 20.3928 36.5227 20.139C36.8083 19.8851 37.3986 20.6721 38.1094 21.7511C38.7524 22.7845 39.2661 23.8929 39.639 25.0514C39.639 25.0514 40.115 19.5804 36.2308 17.797C34.0982 16.8132 33.692 16.6672 33.692 16.6672L34.2188 25.9463Z" fill="#FFF3DD"/>
<path d="M44.786 39.2548C44.6404 39.5879 44.4641 39.9066 44.2592 40.2068C44.1823 40.3189 44.0997 40.4269 44.0117 40.5305C43.7263 40.9238 43.4168 41.299 43.085 41.6539C42.9341 41.8081 42.7752 41.9543 42.609 42.0918C42.3807 42.2651 42.1683 42.4584 41.9743 42.6694C41.9109 42.7392 41.9743 42.7963 42.0822 42.8217C42.2291 42.8565 42.3833 42.8408 42.5202 42.7773C43.0479 42.5041 43.5143 42.1261 43.8911 41.6666C44.1132 41.3873 44.3861 41.1335 44.621 40.8479C44.8607 40.5256 45.073 40.1837 45.2557 39.826C45.3753 39.606 45.4772 39.3768 45.5603 39.1406C45.6301 38.9565 45.6746 38.7724 45.7253 38.5884C45.7761 38.4043 45.8078 38.2139 45.8332 38.0299C45.8586 37.8458 45.8776 37.7379 45.8967 37.5919C45.9157 37.4459 45.8967 37.3 45.8967 37.1476C45.9063 37.0845 45.9063 37.0203 45.8967 36.9572C45.8459 36.7161 45.7824 36.6526 45.6428 36.6335H45.5413C45.4397 36.6335 45.3699 36.7478 45.3382 36.9128C45.2877 37.3746 45.2072 37.8325 45.097 38.2837C45.0078 38.6221 44.8823 38.9498 44.7225 39.2611L44.786 39.2548Z" fill="#121224"/>
<path d="M38.0704 20.3971C37.1422 18.889 35.9762 17.5409 34.6177 16.4049C34.1436 15.9792 33.6456 15.5809 33.1262 15.2117C32.1832 14.6037 31.1739 14.1054 30.1178 13.7265C29.0716 13.3402 27.9861 13.0699 26.8809 12.9205C25.9043 12.7735 24.9168 12.7119 23.9296 12.7364C23.2859 12.7458 22.646 12.8375 22.0255 13.0093C21.7196 13.0992 21.4222 13.216 21.137 13.3584C20.845 13.4854 20.5848 13.6821 20.3055 13.8217C20.0263 13.9614 20.1659 14.2914 20.5848 14.4945C20.8299 14.5996 21.0823 14.6866 21.3401 14.7547C21.6312 14.8672 21.9422 14.9191 22.254 14.9071C22.8062 14.9071 23.3267 14.869 23.8598 14.8499C24.1264 14.8499 24.3929 14.8499 24.6531 14.8499H25.4592C26.5605 14.9176 27.6528 15.0897 28.7215 15.364C30.0465 15.7842 31.2819 16.4471 32.3646 17.3189C33.6223 18.219 34.7243 19.3188 35.6269 20.5748C36.1896 21.349 36.6603 22.1861 37.0295 23.0691C37.609 24.4077 37.9278 25.8445 37.9689 27.3025C37.9242 28.4128 37.7495 29.5141 37.4484 30.5838C37.3786 30.8123 37.2961 31.0408 37.2453 31.2756C37.0105 32.1515 37.1501 32.5069 37.4675 32.8369C37.5436 32.9131 37.6071 33.002 37.6769 33.0591C37.8927 33.2431 38.3116 32.9829 38.794 32.3482C39.9468 30.2471 40.3413 27.8132 39.911 25.4555C39.6345 23.662 39.0161 21.9383 38.0895 20.3781L38.0704 20.3971Z" fill="#FFF3DD"/>
<path d="M12.4687 24.8613C13.0417 22.7484 14.1012 20.799 15.5626 19.169C17.024 17.5389 18.8466 16.2736 20.8847 15.4743C22.3787 14.8934 23.9657 14.5881 25.5686 14.573C28.4325 14.5048 31.2594 15.2297 33.7371 16.6675C36.2399 18.0791 38.1288 20.3706 39.0367 23.0968C39.749 25.5553 39.669 28.1757 38.8082 30.5861C38.2793 32.1479 37.5314 33.6267 36.5868 34.9782C35.6461 36.3202 34.5512 37.5472 33.3245 38.634C32.5629 39.3131 32.7914 39.4337 33.6799 39.1036C35.1396 38.5058 36.4066 37.5176 37.3421 36.2475C38.4246 34.8063 39.2926 33.2157 39.9189 31.5255C40.5569 29.8125 40.8732 27.9965 40.8519 26.1687C40.829 25.247 40.7099 24.3302 40.4965 23.4332C39.8025 20.7218 38.1982 18.331 35.9521 16.6611C32.4127 13.9623 27.9522 12.7674 23.5377 13.3354C19.6248 13.9352 16.0935 16.0196 13.6776 19.1553C11.2616 22.2911 10.1468 26.2372 10.5647 30.1736C10.8176 32.3945 11.4873 34.5478 12.5385 36.5205C13.5618 38.5405 15.0928 40.2597 16.9813 41.5091C17.7311 41.9809 18.5428 42.3461 19.3932 42.5944C20.2261 42.8186 21.0748 42.9798 21.9319 43.0768C23.6456 43.2639 25.3779 43.1826 27.0665 42.8356C27.8098 42.6896 28.5416 42.4902 29.2562 42.239C31.9028 41.1664 32.4994 40.3349 32.7914 39.7574C32.8642 39.6252 32.9257 39.4872 32.9754 39.3448C33.0453 39.0084 32.0171 39.4844 30.2463 40.1953C27.5991 41.2945 24.7195 41.7156 21.8684 41.4202C21.1551 41.3357 20.4488 41.2 19.7549 41.014C19.1069 40.8294 18.4875 40.556 17.9143 40.2016C16.7231 39.4492 15.6974 38.4624 14.8996 37.3011C13.6574 35.5052 12.7936 33.4754 12.3608 31.3351C11.9179 29.1968 11.9787 26.9847 12.5385 24.874L12.4687 24.8613Z" fill="#FFF3DD"/>
<path d="M52.4095 60.4469C52.8638 60.678 53.3374 60.8691 53.8248 61.0181C54.0842 61.0995 54.3495 61.1611 54.6182 61.2022C54.8046 61.2359 54.9936 61.2529 55.1831 61.253L55.4941 61.1768L55.7099 61.126C56.7 60.7893 57.6098 60.2512 58.3819 59.5457C59.166 58.8793 59.8127 58.0666 60.2859 57.1529C60.4292 56.8738 60.5419 56.5802 60.6223 56.277C60.6668 56.0803 60.7302 55.8835 60.762 55.6931C60.6668 55.5154 60.5716 55.344 60.4637 55.1727L59.683 53.9033L58.5723 52.215L57.4299 50.5648C54.6563 46.7567 51.7177 43.0946 48.887 39.388C47.6176 37.7442 46.3482 36.075 45.1423 34.4248L42.8194 31.2069C42.0578 30.1343 41.2771 29.0617 40.6043 27.9764C40.1981 27.3036 39.9696 27.4623 40.1029 28.2175C40.3406 29.4068 40.8202 30.5345 41.5119 31.5306C43.0098 33.8091 44.5838 36.0115 46.1896 38.2012C47.7953 40.3908 49.4899 42.498 51.1845 44.6305C53.2092 47.1693 55.164 49.9492 57.0364 52.6784C57.5568 53.4273 58.0519 54.1889 58.5406 54.9505L59.1118 55.8835C59.1118 55.9216 59.1118 55.966 59.1118 56.0041C59.0995 56.0612 59.0803 56.1166 59.0547 56.1691C58.9831 56.3528 58.8982 56.5309 58.8008 56.7023C58.3763 57.4339 57.8188 58.0796 57.1569 58.6063C56.8345 58.8755 56.4858 59.1115 56.1161 59.3108C55.9378 59.4111 55.7533 59.5002 55.5639 59.5774L55.2846 59.6726L55.0752 59.7297H54.98H54.8086L54.4468 59.6472C54.1993 59.5774 53.9581 59.4949 53.7106 59.3997C53.2183 59.1872 52.7412 58.9412 52.2826 58.6634C51.3432 58.1049 50.442 57.4385 49.4963 56.7594C46.6085 54.9061 43.6953 53.1036 40.8519 51.2376C38.6368 49.7969 36.5043 48.3307 34.3273 46.89C33.8513 46.5663 33.3816 46.2553 32.8992 45.938C31.084 44.7448 30.443 44.4972 29.8908 44.4972C29.7662 44.4867 29.641 44.4867 29.5164 44.4972C29.2181 44.5925 29.84 45.2525 31.0967 46.1982C34.8604 48.9654 38.878 51.7898 43.0352 54.4491L47.662 57.4131C49.198 58.3461 50.5943 59.552 52.3841 60.4723L52.4095 60.4469Z" fill="#121224"/>
<path d="M36.9347 39.6592L58.0077 57.7218C58.0077 58.9259 53.9938 60.7322 53.492 60.7322L27.9034 44.1748C28.9069 44.1748 32.419 42.6696 32.419 42.6696C32.419 42.6696 36.9347 40.1609 36.9347 39.6592Z" fill="#121224"/>
<path d="M52.3581 64.7646C49.0704 63.6729 45.6876 62.5622 42.0762 62.2893C41.4415 62.2385 40.7687 62.2068 40.096 62.2132C39.3912 62.2083 38.6889 62.298 38.0079 62.4797C37.6534 62.5815 37.3186 62.7424 37.0177 62.9557C36.6295 63.2255 36.3521 63.6269 36.2371 64.0855C36.1929 64.3161 36.1929 64.553 36.2371 64.7836C36.2586 64.982 36.3077 65.1764 36.3831 65.3612C36.5071 65.6767 36.6668 65.9769 36.8591 66.2561C37.2321 66.781 37.6965 67.2346 38.23 67.5953C38.7218 67.9179 39.2303 68.2145 39.7532 68.4839L42.7109 70.0325L44.1707 70.8005C44.2874 70.8539 44.3913 70.9318 44.4753 71.0289C44.5213 71.0757 44.5529 71.1346 44.5663 71.1987C44.5798 71.2628 44.5747 71.3294 44.5515 71.3907C44.4955 71.4913 44.4087 71.5714 44.3039 71.6192C44.1612 71.6909 44.0125 71.7504 43.8597 71.7969C43.4106 71.9283 42.9524 72.0259 42.4887 72.0889C41.5544 72.2303 40.6079 72.275 39.6644 72.2222C38.4467 72.0821 37.2429 71.84 36.0657 71.4986L34.2696 70.9909C33.673 70.8068 33.051 70.6989 32.448 70.5402C31.6864 70.3562 31.6991 70.5974 32.2259 71.1115C32.5823 71.45 32.9665 71.7578 33.3746 72.0317C33.9453 72.3897 34.5625 72.6674 35.2089 72.8568C36.4872 73.2588 37.7972 73.5518 39.1249 73.7327C39.8239 73.8191 40.5297 73.8361 41.2321 73.7835C41.9128 73.7418 42.5908 73.6634 43.2631 73.5486C43.6165 73.4858 43.9661 73.4032 44.3103 73.3011L44.5832 73.2123L44.964 73.0599C45.2376 72.9361 45.4919 72.7737 45.7193 72.5776C45.9318 72.3976 46.0938 72.1655 46.1895 71.904C46.2852 71.6425 46.3113 71.3607 46.2651 71.0861C46.2143 70.8104 46.1015 70.55 45.9351 70.3244C45.7692 70.0717 45.5532 69.8556 45.3004 69.6898C45.1759 69.6062 45.0466 69.5299 44.9132 69.4613L44.6721 69.3407L44.2405 69.1249L43.371 68.6933L41.6636 67.8428C40.2737 67.1447 38.7631 66.5734 38.0967 65.4374C37.9271 65.1973 37.8083 64.9252 37.7476 64.6377C37.7318 64.5687 37.7373 64.4966 37.7634 64.4309C37.7894 64.3652 37.8349 64.3089 37.8936 64.2695C38.1334 64.116 38.4007 64.0104 38.6806 63.9585C39.0294 63.8803 39.3838 63.8294 39.7405 63.8062C43.06 63.6158 46.4555 64.4409 49.7432 65.4945C51.7805 66.1292 53.8052 66.8527 55.8616 67.5128C57.4318 68.0124 59.0323 68.411 60.6535 68.706C61.47 68.857 62.2942 68.963 63.1224 69.0233C63.971 69.0951 64.8255 69.0481 65.6611 68.8837C66.012 68.8056 66.3497 68.6774 66.6639 68.5029C67.0136 68.3099 67.3034 68.0245 67.5017 67.6778C67.6992 67.3273 67.802 66.9314 67.8 66.529C67.7849 66.1588 67.7143 65.793 67.5906 65.4437C67.0758 64.2174 66.2954 63.1206 65.3057 62.2322C64.9054 61.8327 64.4816 61.4575 64.0363 61.1088C62.3544 59.8394 61.5801 59.6554 61.0152 59.8394C60.8875 59.8714 60.7697 59.9346 60.6725 60.0235C60.6281 60.087 60.6725 60.1504 60.6725 60.2202C60.7458 60.3136 60.8311 60.3969 60.9264 60.4678L62.1957 61.4452C63.032 62.1065 63.8073 62.8414 64.5123 63.6412C64.8644 64.0402 65.1869 64.4645 65.4771 64.9106C65.7493 65.3005 65.9632 65.7282 66.1118 66.1799C66.1718 66.3081 66.2029 66.4478 66.2029 66.5893C66.2029 66.7308 66.1718 66.8706 66.1118 66.9987C65.9139 67.2407 65.6336 67.4011 65.3247 67.4493C64.3021 67.6374 63.2551 67.6525 62.2275 67.4937C60.5528 67.2817 58.8989 66.9293 57.2833 66.4402C55.6648 65.9515 54.0083 65.3485 52.3581 64.7836V64.7646Z" fill="#121224"/>
<path d="M33.5518 22.6649C33.4369 23.6935 33.2026 24.7052 32.8536 25.6796C32.733 26.0477 32.5172 26.3714 32.3839 26.7269C31.8692 27.9939 31.1814 29.1836 30.3402 30.2621C30.1491 30.4931 29.9366 30.7056 29.7056 30.8967C29.4917 31.1123 29.2603 31.3097 29.0137 31.487L28.5504 31.8361L28.0681 32.1534C27.7634 32.3883 27.4334 32.5596 27.1097 32.7881C26.9129 32.9341 27.0145 33.1372 27.3128 33.2705C27.7193 33.4383 28.1757 33.4383 28.5822 33.2705C28.9934 33.0978 29.3866 32.8852 29.7563 32.6358L30.2958 32.2423L30.7909 31.798C31.443 31.203 32.011 30.5218 32.4791 29.7733C32.752 29.3227 33.044 28.8848 33.3423 28.4342C33.6305 27.9827 33.8871 27.512 34.1103 27.0252C34.6014 25.9592 34.9636 24.8385 35.1892 23.6867C35.2685 23.3331 35.3257 22.9748 35.3606 22.6141L35.4304 22.0746V21.5288C35.4859 20.4168 35.366 19.3031 35.075 18.2284C34.8701 17.3576 34.525 16.5259 34.0532 15.7658C33.9538 15.6056 33.8457 15.4509 33.7295 15.3025C33.19 14.7503 32.8663 14.7376 32.4601 15.0931C32.3634 15.169 32.2722 15.2517 32.1872 15.3406C32.0714 15.493 32.0086 15.6791 32.0086 15.8706C32.0086 16.062 32.0714 16.2481 32.1872 16.4005C32.861 17.4065 33.3053 18.5484 33.4883 19.7453C33.6377 20.7191 33.6377 21.7101 33.4883 22.6839L33.5518 22.6649Z" fill="#FFF3DD"/>
<path d="M22.4711 19.5239C22.6261 19.3446 22.8436 19.231 23.0794 19.2063C23.3152 19.1815 23.5515 19.2474 23.7404 19.3907C25.4224 21.0154 20.4718 21.593 22.4711 19.5239Z" fill="#FFF3DD"/>
<path d="M17.3303 21.1679C17.4845 20.9872 17.7022 20.8726 17.9384 20.8478C18.1746 20.823 18.4113 20.8899 18.5997 21.0346C20.2816 22.634 15.3311 23.237 17.3303 21.1679Z" fill="#FFF3DD"/>
<path d="M19.0622 28.3898C19.2164 28.2091 19.434 28.0946 19.6703 28.0698C19.9065 28.045 20.1432 28.1118 20.3316 28.2565C21.9881 29.8496 17.0629 30.4525 19.0622 28.3898Z" fill="#FFF3DD"/>
<path d="M43.7825 38.0764C43.6929 38.5871 43.5214 39.08 43.2748 39.5362C43.1764 39.7195 43.0617 39.8937 42.9321 40.0566C42.5434 40.6754 42.0832 41.2463 41.5611 41.7576C41.3224 41.9942 41.0609 42.2068 40.7805 42.3922C40.4314 42.6207 40.0696 42.8365 39.7396 43.0967C39.638 43.1793 39.6952 43.3316 39.8729 43.4522C39.9789 43.5312 40.1005 43.5867 40.2296 43.6152C40.3587 43.6436 40.4924 43.6443 40.6218 43.6172C41.5579 43.3593 42.3914 42.8184 43.0082 42.0685C43.1915 41.8468 43.3864 41.6349 43.5921 41.4339C43.7889 41.2117 43.9856 40.9896 44.1697 40.7484C44.5496 40.2045 44.8429 39.605 45.0392 38.9713C45.1056 38.7767 45.1565 38.5772 45.1915 38.3747L45.2614 37.74C45.2867 37.4316 45.2867 37.1217 45.2614 36.8133C45.2614 36.5024 45.1408 36.2104 45.1027 35.9121C45.0646 35.6138 44.9884 35.4615 44.944 35.233C44.8954 35.0134 44.8208 34.8003 44.7219 34.5983C44.6775 34.5094 44.6394 34.4142 44.5886 34.3254C44.3855 34.0017 44.2332 33.9573 43.9539 34.0398C43.8914 34.055 43.83 34.0741 43.7699 34.0969C43.6753 34.1568 43.6014 34.2444 43.5583 34.3477C43.5151 34.451 43.5048 34.5651 43.5287 34.6745C43.5516 34.8583 43.5855 35.0405 43.6302 35.2203C43.6746 35.398 43.6302 35.5884 43.6937 35.7534C43.7728 36.0747 43.8279 36.4014 43.8587 36.7308C43.8587 36.972 43.8587 37.2069 43.8587 37.448C43.8587 37.6892 43.7889 37.924 43.7318 38.1652L43.7825 38.0764Z" fill="#121224"/>
<path d="M20.4461 9.34953C20.3001 9.43204 20.389 9.60975 20.5921 9.86362C20.6939 9.96635 20.8208 10.0407 20.9602 10.0794C21.0709 10.05 21.1792 10.0118 21.2839 9.96517C21.5668 9.64861 21.8256 9.31128 22.0582 8.95602C22.2253 8.72009 22.3578 8.46149 22.4517 8.18805C22.6548 7.64222 22.8452 7.10274 23.0039 6.56326C23.0363 6.44104 23.0534 6.31524 23.0546 6.18879C23.0569 5.75919 23.1189 5.33198 23.2387 4.91942C23.2468 4.84797 23.278 4.78111 23.3276 4.72901C23.4965 4.29594 23.6013 3.8405 23.6385 3.37713C23.6385 3.00267 23.5687 2.63455 23.556 2.26643C23.556 2.21566 23.556 2.16488 23.556 2.10776C23.5169 2.05964 23.4906 2.0024 23.4795 1.94137C23.4684 1.88035 23.4729 1.8175 23.4926 1.75868C23.5021 1.60227 23.5021 1.44543 23.4926 1.28902C23.4652 1.20099 23.429 1.11594 23.3847 1.03514C23.3466 0.952633 23.1625 0.946286 23.1371 0.965326C23.1118 0.984367 22.9912 0.965326 22.9214 0.920898H22.8452C22.6025 1.19586 22.3897 1.49585 22.2105 1.81581L21.9757 2.48223C21.8424 2.81226 21.7535 3.16769 21.7218 3.23116C21.7064 3.31081 21.7064 3.39268 21.7218 3.47234C21.7218 3.51042 21.4108 4.50053 21.4045 4.53861C21.3381 4.74351 21.325 4.96193 21.3664 5.17329C21.3795 5.21459 21.3795 5.25894 21.3664 5.30023C21.282 5.651 21.2226 6.00732 21.1887 6.3665C21.1599 6.54508 21.1174 6.7212 21.0617 6.89329C21.0553 6.92897 21.0553 6.96551 21.0617 7.00119C21.0679 7.04328 21.0679 7.08604 21.0617 7.12813C20.9512 7.53973 20.8002 7.9394 20.6111 8.32134C20.5709 8.53649 20.5158 8.74856 20.4461 8.95602C20.4143 9.04488 20.5032 9.32414 20.4461 9.34953Z" fill="#121224"/>
<path d="M11.4969 9.67946C11.4969 9.82544 11.6937 9.77467 12.011 9.6033C12.1558 9.51053 12.2844 9.39476 12.3919 9.26057C12.4244 9.16094 12.4498 9.05914 12.468 8.95592C12.468 8.8988 12.2332 8.35932 12.1697 8.16891C12.1024 7.99125 12.0058 7.82608 11.8841 7.6802C11.6556 7.3819 11.4462 7.04552 11.2494 6.75356C11.1997 6.68158 11.1373 6.61922 11.0654 6.5695C10.8213 6.39964 10.6247 6.17025 10.4941 5.90308C10.4941 5.85865 10.4307 5.82692 10.4497 5.7571C10.343 5.44338 10.1648 5.15875 9.92927 4.92566C9.69637 4.7773 9.47178 4.61627 9.25651 4.4433C9.22477 4.4433 9.21842 4.37983 9.14861 4.37983C9.07879 4.37983 8.96455 4.31637 8.90743 4.2529C8.82388 4.1712 8.72999 4.10078 8.62817 4.04345C8.55708 4.01548 8.4822 3.99837 8.40603 3.99268C8.33621 3.99268 8.20927 4.08788 8.20293 4.11327C8.19658 4.13865 8.09503 4.19578 8.03156 4.23386L7.9681 4.27194C7.92994 4.55415 7.92994 4.84021 7.9681 5.12242L8.16485 5.59208C8.26005 5.82692 8.35525 6.07445 8.37429 6.13157C8.39333 6.18869 8.44411 6.22042 8.49488 6.25216C8.54566 6.28389 8.83126 6.96935 8.85665 6.99474C8.9582 7.11533 9.00263 7.28035 9.19938 7.33112C9.21432 7.33757 9.22772 7.34713 9.23866 7.35917C9.24961 7.37121 9.25785 7.38545 9.26285 7.40094C9.4146 7.62943 9.58896 7.84206 9.78329 8.03562C9.87139 8.14353 9.954 8.2558 10.0308 8.37201C10.0308 8.37201 10.0752 8.40374 10.1006 8.41644C10.1301 8.43209 10.1561 8.4537 10.1768 8.47991C10.3918 8.73123 10.593 8.99394 10.7798 9.26692C10.8115 9.33673 11.1669 9.51444 11.205 9.59695C11.2431 9.67946 11.4969 9.62234 11.4969 9.67946Z" fill="#121224"/>
<path d="M6.33002 19.2244C6.39349 19.3386 6.53312 19.2244 6.69814 18.9261C6.77004 18.7872 6.81728 18.6368 6.83777 18.4818C6.81682 18.391 6.78925 18.3019 6.75526 18.2152C6.75526 18.1708 6.29194 17.8408 6.12058 17.7075C5.98257 17.5961 5.8285 17.5062 5.6636 17.4409L4.66714 16.9903C4.59128 16.9564 4.50906 16.9391 4.42596 16.9395C4.13908 16.9178 3.86004 16.8356 3.60722 16.6983C3.56279 16.6983 3.51836 16.6666 3.49298 16.5968C3.46759 16.527 2.69962 16.2413 2.57903 16.2667C2.29976 16.3048 2.0332 16.3048 1.76663 16.3302C1.72855 16.3302 1.69047 16.3302 1.64604 16.3619C1.60161 16.3937 1.46833 16.4444 1.38582 16.4508C1.26984 16.4526 1.1546 16.4697 1.04309 16.5016C0.976476 16.5352 0.916318 16.5803 0.865376 16.6348C0.808255 16.6793 0.801907 16.8633 0.8146 16.8887C0.827294 16.9141 0.8146 17.0347 0.8146 17.1045C0.811561 17.1319 0.811561 17.1596 0.8146 17.187C0.891024 17.2893 0.97369 17.3868 1.06213 17.479C1.14007 17.5897 1.23421 17.6882 1.34139 17.7709L1.74124 17.955C1.93799 18.0565 2.1411 18.1644 2.17918 18.1962C2.21726 18.2279 2.27438 18.1962 2.32515 18.1962C2.37593 18.1962 2.95984 18.5389 2.95984 18.5389C3.09312 18.5389 3.20737 18.6658 3.38508 18.5897C3.38508 18.5897 3.4422 18.5897 3.46759 18.5897C3.69684 18.679 3.93523 18.7429 4.17844 18.7801C4.2993 18.8179 4.41795 18.8624 4.53386 18.9134C4.55915 18.9166 4.58474 18.9166 4.61002 18.9134H4.69888C4.98984 19.0041 5.27584 19.11 5.55571 19.2307C5.61283 19.2688 5.98729 19.2307 6.05711 19.2815C6.12692 19.3323 6.30464 19.1799 6.33002 19.2244Z" fill="#121224"/>
</svg>
