<svg width="10" height="2" viewBox="0 0 10 2" fill="none" xmlns="http://www.w3.org/2000/svg">
<path d="M5.5 0.5L8.5 0.5C8.63261 0.5 8.75979 0.552679 8.85355 0.646447C8.94732 0.740215 9 0.867392 9 1C9 1.13261 8.94732 1.25979 8.85355 1.35355C8.75979 1.44732 8.63261 1.5 8.5 1.5L5.5 1.5H4.5L1.5 1.5C1.36739 1.5 1.24021 1.44732 1.14645 1.35355C1.05268 1.25979 1 1.13261 1 1C1 0.867392 1.05268 0.740215 1.14645 0.646447C1.24021 0.552679 1.36739 0.5 1.5 0.5L4.5 0.5H5.5Z" fill="#8292B4" stroke="#8292B4" stroke-width="0.7"/>
</svg>
