<svg width="41" height="42" viewBox="0 0 41 42" fill="none" xmlns="http://www.w3.org/2000/svg">
<path d="M16.2312 2.70508C19.0535 1.19848 22.4626 1.2487 25.2458 2.85547L33.9949 7.90723L34.2615 8.06641C36.9771 9.7573 38.6383 12.7346 38.6384 15.9482V26.0518C38.6383 29.2654 36.9771 32.2427 34.2615 33.9336L33.9949 34.0928L25.2458 39.1445C22.4626 40.7513 19.0535 40.8015 16.2312 39.2949L15.9607 39.1445L7.21167 34.0928C4.3388 32.4341 2.56828 29.369 2.56812 26.0518V15.9482C2.56828 12.631 4.3388 9.56588 7.21167 7.90723L15.9607 2.85547L16.2312 2.70508Z" fill="url(#paint0_linear_3412_266971)" stroke="url(#paint1_linear_3412_266971)" stroke-width="1.42857"/>
<g clip-path="url(#clip0_3412_266971)">
<rect x="29.0017" y="3" width="10" height="10" rx="5" fill="#FDAA29"/>
<path d="M31.8377 9.25L31.4188 6.91681C31.3548 6.5608 31.7798 6.32738 32.046 6.57234L32.918 7.375L33.6711 6.06774C33.8164 5.81568 34.1801 5.81568 34.3253 6.06774L35.0785 7.375L35.9505 6.57234C36.2166 6.32738 36.6416 6.5608 36.5777 6.91681L36.1587 9.25H31.8377ZM36.1587 10.1875C36.1587 10.375 36.0353 10.5 35.8501 10.5H32.1464C31.9612 10.5 31.8377 10.375 31.8377 10.1875V9.875H36.1587V10.1875Z" fill="white"/>
</g>
<rect x="29.3767" y="3.375" width="9.25" height="9.25" rx="4.625" stroke="#FFF3DD" stroke-width="0.75"/>
<circle cx="20.4634" cy="16.9637" r="5.10625" fill="#FDAA29"/>
<path d="M10.8884 28.6657C10.8884 25.7281 13.2698 23.3467 16.2074 23.3467H24.7179C27.6555 23.3467 30.0369 25.7281 30.0369 28.6657C30.0369 29.2532 29.5606 29.7295 28.9731 29.7295H11.9522C11.3647 29.7295 10.8884 29.2532 10.8884 28.6657Z" fill="#FDAA29"/>
<defs>
<linearGradient id="paint0_linear_3412_266971" x1="20.6033" y1="1" x2="20.6033" y2="41" gradientUnits="userSpaceOnUse">
<stop stop-color="white"/>
<stop offset="0.96875" stop-color="#FFF3DD"/>
</linearGradient>
<linearGradient id="paint1_linear_3412_266971" x1="20.6033" y1="1" x2="20.6033" y2="41" gradientUnits="userSpaceOnUse">
<stop stop-color="#FDAA29"/>
<stop offset="1" stop-color="#FFEED3"/>
</linearGradient>
<clipPath id="clip0_3412_266971">
<rect x="29.0017" y="3" width="10" height="10" rx="5" fill="white"/>
</clipPath>
</defs>
</svg>
