<svg width="172" height="27" viewBox="0 0 172 27" fill="none" xmlns="http://www.w3.org/2000/svg">
<path fill-rule="evenodd" clip-rule="evenodd" d="M4.40233 0.826354C4.28269 1.01187 4.15974 1.19064 4.04342 1.37278C4.41895 1.37278 4.61502 1.18389 4.94402 1.12992C5.12015 1.43686 4.59175 1.48746 4.58178 1.80452C4.91411 1.83825 5.29295 1.40313 5.48238 1.68309C5.54552 1.92932 5.04371 2.07436 4.94402 2.35769C5.04371 2.39479 5.55217 2.3307 5.84129 2.35769C6.36636 4.04418 4.9706 5.33603 3.6247 5.45746C1.52109 5.64635 -0.230248 3.43367 1.16883 1.62912C1.7504 0.863457 3.07969 0.367628 4.40233 0.826354Z" fill="#EC1B23"/>
<path fill-rule="evenodd" clip-rule="evenodd" d="M21.8184 26.2458C21.7424 26.449 21.2928 26.3024 21.0416 26.2458C19.3127 25.8659 17.326 25.2862 15.6203 24.7431C11.7031 23.4937 8.01724 21.9777 5.1314 19.4588C3.60749 18.1261 2.06043 16.1636 2.272 13.3315C2.36825 12.7432 2.5041 12.1621 2.67859 11.5923C2.78107 11.0959 2.75462 10.6827 2.8571 10.2596C3.49179 7.73069 5.43221 5.75824 7.38586 4.31555C9.63372 2.64962 12.4468 1.08699 16.0269 1.19028C15.1542 1.75003 14.1493 2.18983 13.346 2.81288C14.4302 2.58632 15.8054 2.27979 17.0417 2.57299C13.9641 4.23892 10.8337 5.85819 8.93622 8.94015C8.34781 9.89306 7.71312 11.3757 7.86518 12.6618C7.94452 13.3548 8.41062 14.1478 8.81722 14.8242C11.4915 19.2722 16.1525 21.8611 21.0317 24.0134C18.8929 23.6802 16.7343 22.8706 14.655 22.2709C14.6087 22.2709 14.5955 22.2109 14.5393 22.2109C16.4864 23.6798 18.6101 24.8945 20.8598 25.826C21.1903 25.9526 21.5837 25.9459 21.8184 26.2458ZM12.6419 3.30267C12.3113 3.40262 12.0039 3.76912 11.6865 4.02235C9.86181 5.48503 7.82552 7.61408 7.63709 10.4495C7.56352 10.8138 7.60395 11.1922 7.75279 11.5323C8.11311 9.08342 9.57091 7.5541 11.032 6.20137C12.4931 4.84864 14.3939 3.7458 16.2318 2.70293C15.0107 2.70347 13.7979 2.90608 12.6419 3.30267ZM5.2504 19.2189C8.91308 22.4774 14.8203 24.3599 19.8681 25.706C19.9672 25.706 20.0135 25.636 19.8681 25.646C18.1805 24.8356 16.5483 23.9129 14.9823 22.8839C14.4699 22.5507 13.9906 22.061 13.4914 21.8011C13.2071 21.6578 12.8303 21.6212 12.5394 21.5012C11.6469 21.1414 10.8238 20.7149 9.97751 20.2984C6.61234 18.6558 3.53146 16.6567 2.62901 12.4919C2.07366 15.6572 3.59426 17.7429 5.2504 19.2189Z" fill="#006CB7"/>
<path d="M21.819 6.41167H26.567V8.64965C27.2769 7.73548 27.9951 7.08436 28.7218 6.69627C29.4484 6.29956 30.3336 6.1012 31.3776 6.1012C32.7891 6.1012 33.8915 6.53672 34.6849 7.40777C35.4867 8.27018 35.8876 9.60693 35.8876 11.418V20.15H30.7638V12.5952C30.7638 11.7328 30.6093 11.1248 30.3002 10.7712C29.9912 10.409 29.5569 10.2279 28.9974 10.2279C28.3793 10.2279 27.8782 10.4693 27.494 10.9523C27.1099 11.4353 26.9178 12.302 26.9178 13.5525V20.15H21.819V6.41167Z" fill="#00ADEF"/>
<path d="M43.5796 10.8617L38.7063 10.3314C38.8901 9.45169 39.1531 8.76176 39.4956 8.26156C39.8463 7.75273 40.3474 7.3129 40.9989 6.94206C41.4666 6.67471 42.1097 6.46773 42.9281 6.32112C43.7466 6.17451 44.6319 6.1012 45.584 6.1012C47.1124 6.1012 48.3401 6.19176 49.2671 6.37286C50.1942 6.54535 50.9667 6.91188 51.5848 7.47245C52.0191 7.86053 52.3615 8.41248 52.612 9.12829C52.8626 9.83547 52.9879 10.5125 52.9879 11.1593V17.2264C52.9879 17.8732 53.0255 18.382 53.1006 18.7529C53.1841 19.1151 53.3595 19.5808 53.6268 20.15H48.8412C48.6491 19.7964 48.5238 19.529 48.4654 19.3479C48.4069 19.1582 48.3485 18.865 48.29 18.4683C47.6218 19.1323 46.9579 19.6067 46.2981 19.8913C45.3961 20.2707 44.3479 20.4605 43.1536 20.4605C41.5668 20.4605 40.36 20.081 39.5331 19.3221C38.7147 18.5631 38.3054 17.6274 38.3054 16.5149C38.3054 15.4714 38.6019 14.6133 39.1949 13.9406C39.7879 13.2679 40.882 12.7677 42.4771 12.44C44.3897 12.0433 45.6299 11.7673 46.1979 11.612C46.7658 11.4482 47.3671 11.2369 48.0019 10.9782C48.0019 10.3314 47.8724 9.87859 47.6135 9.61987C47.3546 9.36114 46.8994 9.23178 46.248 9.23178C45.4128 9.23178 44.7864 9.36976 44.3688 9.64574C44.0431 9.86134 43.78 10.2667 43.5796 10.8617ZM48.0019 13.6301C47.3003 13.8888 46.5695 14.1174 45.8095 14.3157C44.7739 14.6003 44.1183 14.8806 43.8427 15.1566C43.5587 15.4412 43.4167 15.7646 43.4167 16.1268C43.4167 16.5408 43.5545 16.8814 43.8301 17.1488C44.1141 17.4075 44.5275 17.5369 45.0704 17.5369C45.6383 17.5369 46.1645 17.3946 46.6489 17.11C47.1416 16.8254 47.4882 16.4804 47.6887 16.0751C47.8975 15.6611 48.0019 15.1264 48.0019 14.471V13.6301Z" fill="#00ADEF"/>
<path d="M70.0631 20.15H65.3026V17.9249C64.5927 18.8391 63.8744 19.4902 63.1478 19.8783C62.4296 20.2664 61.5443 20.4605 60.492 20.4605C59.0889 20.4605 57.9864 20.0292 57.1846 19.1668C56.3912 18.2958 55.9945 16.959 55.9945 15.1566V6.41167H61.1183V13.9664C61.1183 14.8289 61.2728 15.4412 61.5819 15.8034C61.8909 16.1656 62.3252 16.3467 62.8847 16.3467C63.4944 16.3467 63.9914 16.1052 64.3755 15.6223C64.7681 15.1393 64.9643 14.2726 64.9643 13.0221V6.41167H70.0631V20.15Z" fill="#00ADEF"/>
<path d="M73.1574 1.18542H78.369V10.9652L82.1774 6.41167H88.4537L83.6807 11.224L88.7293 20.15H82.9791L80.2857 14.6391L78.369 16.5796V20.15H73.1574V1.18542Z" fill="#00ADEF"/>
<path d="M90.3204 6.41167H95.0934V8.66258C95.5528 7.68805 96.0246 7.01968 96.509 6.65746C97.0018 6.28662 97.6073 6.1012 98.3256 6.1012C99.0772 6.1012 99.8999 6.34268 100.794 6.82563L99.215 10.5771C98.6137 10.3184 98.1376 10.1891 97.7869 10.1891C97.1187 10.1891 96.6009 10.4737 96.2334 11.0429C95.7073 11.8449 95.4442 13.3455 95.4442 15.5447V20.15H90.3204V6.41167Z" fill="#00ADEF"/>
<path d="M101.858 1.18542H106.957V4.76877H101.858V1.18542ZM101.858 6.41167H106.957V20.15H101.858V6.41167Z" fill="#00ADEF"/>
<path d="M124.93 14.9472L129.794 15.4985C129.526 16.5093 129.086 17.3864 128.475 18.1298C127.863 18.8649 127.079 19.4371 126.124 19.8464C125.177 20.2557 123.971 20.4604 122.504 20.4604C121.088 20.4604 119.907 20.3309 118.96 20.072C118.022 19.8047 117.213 19.3786 116.534 18.7939C115.856 18.2008 115.323 17.5075 114.938 16.7139C114.553 15.9204 114.36 14.8678 114.36 13.5564C114.36 12.1864 114.594 11.0462 115.064 10.1357C115.407 9.4674 115.876 8.87013 116.471 8.34387C117.066 7.80926 117.678 7.41248 118.306 7.15352C119.304 6.74421 120.581 6.53955 122.14 6.53955C124.318 6.53955 125.978 6.92798 127.117 7.70484C128.265 8.4817 129.069 9.61776 129.53 11.113L124.716 11.752C124.566 11.184 124.289 10.758 123.887 10.474C123.493 10.1816 122.961 10.0354 122.291 10.0354C121.444 10.0354 120.757 10.3403 120.229 10.9501C119.71 11.5516 119.45 12.4662 119.45 13.6942C119.45 14.7885 119.71 15.6196 120.229 16.1877C120.749 16.7557 121.411 17.0397 122.215 17.0397C122.886 17.0397 123.447 16.8685 123.9 16.526C124.36 16.1835 124.704 15.6572 124.93 14.9472Z" fill="#006CB7"/>
<path d="M131.516 13.5313C131.516 11.5014 132.203 9.83077 133.577 8.51929C134.952 7.19947 136.808 6.53955 139.145 6.53955C141.818 6.53955 143.838 7.31224 145.203 8.8576C146.301 10.1023 146.85 11.6351 146.85 13.4561C146.85 15.5027 146.167 17.1817 144.801 18.4932C143.444 19.7963 141.563 20.4479 139.158 20.4479C137.013 20.4479 135.278 19.9049 133.954 18.819C132.329 17.4741 131.516 15.7115 131.516 13.5313ZM136.644 13.5188C136.644 14.7049 136.883 15.582 137.361 16.1501C137.847 16.7181 138.454 17.0021 139.183 17.0021C139.92 17.0021 140.524 16.7223 140.993 16.1626C141.471 15.6029 141.709 14.7049 141.709 13.4687C141.709 12.3159 141.471 11.4597 140.993 10.9C140.515 10.332 139.925 10.048 139.221 10.048C138.475 10.048 137.859 10.3361 137.373 10.9125C136.887 11.4806 136.644 12.3493 136.644 13.5188Z" fill="#006CB7"/>
<path d="M149.351 6.84027H154.127V8.78242C154.814 7.97215 155.506 7.39577 156.201 7.05328C156.905 6.71079 157.751 6.53955 158.74 6.53955C159.804 6.53955 160.646 6.7275 161.266 7.1034C161.886 7.4793 162.393 8.03898 162.787 8.78242C163.591 7.91368 164.325 7.32477 164.987 7.01569C165.649 6.69826 166.466 6.53955 167.438 6.53955C168.87 6.53955 169.989 6.96557 170.793 7.81761C171.598 8.6613 172 9.98531 172 11.7896V20.1472H166.872V12.5665C166.872 11.965 166.755 11.5181 166.52 11.2258C166.176 10.7663 165.749 10.5366 165.238 10.5366C164.635 10.5366 164.149 10.7538 163.78 11.1882C163.411 11.6226 163.227 12.3201 163.227 13.2807V20.1472H158.099V12.8171C158.099 12.2324 158.065 11.8356 157.998 11.6267C157.889 11.2926 157.701 11.0253 157.433 10.8248C157.165 10.616 156.85 10.5116 156.49 10.5116C155.904 10.5116 155.422 10.7329 155.045 11.1757C154.668 11.6184 154.479 12.3451 154.479 13.3559V20.1472H149.351V6.84027Z" fill="#006CB7"/>
<path d="M113.303 18.0511C113.303 19.3818 112.237 20.4605 110.923 20.4605C109.609 20.4605 108.543 19.3818 108.543 18.0511C108.543 16.7204 109.609 15.6417 110.923 15.6417C112.237 15.6417 113.303 16.7204 113.303 18.0511Z" fill="#EC1B23"/>
</svg>
