<svg width="285" height="44" viewBox="0 0 285 44" fill="none" xmlns="http://www.w3.org/2000/svg">
<path d="M34.6006 16.9355C39.6473 16.9355 42.502 19.7553 42.502 24.7324V34.8955H37.7686L37.4199 32.5986C36.8628 34.1994 34.5662 35.3476 31.9561 35.3477C28.2668 35.3477 25.9698 33.1901 25.9697 29.7793C25.9697 26.5773 28.2317 24.5936 32.4082 24.2803L37.2812 23.8975V23.6182C37.2811 21.913 36.2364 21.0078 34.3223 21.0078C32.0603 21.0079 30.8419 21.8783 30.8418 23.4443H26.3867C26.3868 19.5116 29.6238 16.9357 34.6006 16.9355ZM51.4971 26.4727C51.4971 29.3267 52.4723 30.5801 54.665 30.5801C56.9618 30.5799 57.9014 29.3958 57.9014 26.542V17.4932H63.2617V34.8955H58.2148L57.8662 32.9463C56.7872 34.3732 54.6293 35.3477 52.541 35.3477C48.5735 35.3475 46.1378 32.7027 46.1377 28.4219V17.4932H51.4971V26.4727ZM136.696 13.6299L131.267 18.3975C134.747 19.4416 137.566 22.2268 137.566 26.6123C137.566 32.0416 133.181 35.3477 127.96 35.3477C122.948 35.3475 118.737 32.285 118.737 26.4727H124.306C124.306 29.0134 125.837 30.3711 128.1 30.3711C130.292 30.3711 131.789 28.8742 131.789 26.5771C131.789 24.5236 130.605 22.7832 127.577 22.7832H123.818V19.1631C123.888 19.0936 123.958 19.0588 124.027 18.9893L129.631 14.082H119.92V9.13965H136.696V13.6299ZM149.237 17.04C149.585 16.9705 149.933 16.9356 150.281 16.9355C155.572 16.9355 159.191 20.5905 159.191 25.8809C159.191 31.5193 155.05 35.3476 149.342 35.3477C143.564 35.3477 139.353 31.2405 139.353 25.8457C139.353 22.6786 140.501 20.3463 143.634 16.0654L148.681 9.13965H155.119L149.237 17.04ZM172.727 8.65234C179.444 8.65234 183.969 14.1167 183.969 22.0869C183.969 30.0573 179.792 35.3477 172.727 35.3477C165.661 35.3476 161.484 30.0573 161.484 22.0869C161.484 14.1167 166.009 8.6524 172.727 8.65234ZM240.113 16.7451C245.647 16.7451 249.686 20.4344 249.686 25.9336C249.685 31.4327 245.647 35.0869 240.113 35.0869C234.545 35.0867 230.508 31.4325 230.508 25.9336C230.508 20.4345 234.545 16.7453 240.113 16.7451ZM16.4277 25.5332V9.13965H21.9971V34.8955H16.4277L5.56836 18.5371V34.8955H0V9.13965H5.56836L16.4277 25.5332ZM72.6436 23.7578L78.2822 17.4932H84.999L78.4561 24.3848L84.791 34.8955H78.5957L74.6973 28.3867L72.6436 30.5449V34.8955H67.2832V8.65234H72.6436V23.7578ZM97.1211 17.249C97.7476 17.249 98.4439 17.3191 99.1748 17.4932V22.54H97.4688C94.4061 22.5401 92.5615 23.8972 92.5615 27.3428V34.8955H87.2012V17.5273H92.248L92.5264 20.1035C93.2573 18.3981 94.7891 17.249 97.1211 17.249ZM107.245 34.8955H101.885V17.4932H107.245V34.8955ZM205.604 8.91406C210.859 8.9141 214.374 12.3596 214.374 17.5107C214.374 22.6617 210.859 26.1074 205.604 26.1074H200.801V34.6699H195.162V8.91406H205.604ZM227.193 17.0234C227.82 17.0235 228.515 17.0927 229.246 17.2666V22.3135H227.541C224.478 22.3135 222.634 23.6715 222.634 27.1172V34.6699H217.273V17.3018H222.32L222.599 19.877C223.33 18.1716 224.861 17.0234 227.193 17.0234ZM34.6006 27.6904C32.2692 27.8993 31.4338 28.4217 31.4336 29.5352C31.4336 30.788 32.1994 31.3798 33.835 31.3799C35.8885 31.3799 37.3154 30.3706 37.3154 28.3867V27.4473L34.6006 27.6904ZM172.727 13.5947C169.142 13.5948 167.054 16.3791 167.054 22.0869C167.054 27.6209 169.142 30.4052 172.727 30.4053C176.311 30.4053 178.4 27.6209 178.4 22.0869C178.4 16.379 176.311 13.5947 172.727 13.5947ZM149.342 21.4951C146.801 21.4951 145.13 23.2708 145.13 25.916C145.13 28.5611 146.836 30.3711 149.342 30.3711C151.778 30.371 153.483 28.561 153.483 25.916C153.483 23.2709 151.813 21.4952 149.342 21.4951ZM240.113 21.5479C237.608 21.548 235.902 23.2882 235.902 25.8984C235.902 28.5435 237.608 30.284 240.113 30.2842C242.584 30.2842 244.29 28.5436 244.29 25.8984C244.29 23.2881 242.584 21.5479 240.113 21.5479ZM200.801 21.0957H204.351C207.065 21.0957 208.423 19.9121 208.423 17.5107C208.423 15.1092 207.065 13.9258 204.351 13.9258H200.801V21.0957ZM104.53 8.6875C106.201 8.68756 107.558 10.0096 107.559 11.7148C107.559 13.4203 106.201 14.7783 104.53 14.7783C102.825 14.7783 101.468 13.4203 101.468 11.7148C101.468 10.0096 102.825 8.6875 104.53 8.6875Z" fill="url(#paint0_linear_8157_75472)"/>
<path d="M262.558 27.3344L260.09 13.6927C259.977 13.0677 260.722 12.6561 261.19 13.0845L267.489 18.8388L271.846 11.3323C272.102 10.8915 272.738 10.8915 272.994 11.3323L277.351 18.8388L283.649 13.0845C284.118 12.6561 284.863 13.0677 284.75 13.6927L282.282 27.3344H262.558ZM282.282 31.5822C282.282 32.4318 281.719 32.9982 280.873 32.9982H263.966C263.121 32.9982 262.558 32.4318 262.558 31.5822V30.1663H282.282V31.5822Z" fill="url(#paint1_linear_8157_75472)"/>
<defs>
<linearGradient id="paint0_linear_8157_75472" x1="171.538" y1="-14.2607" x2="208.972" y2="34.8588" gradientUnits="userSpaceOnUse">
<stop stop-color="#121224"/>
<stop offset="1" stop-color="#FDAA29"/>
</linearGradient>
<linearGradient id="paint1_linear_8157_75472" x1="8.50855" y1="16.3878" x2="274.136" y2="106.672" gradientUnits="userSpaceOnUse">
<stop stop-color="#121224"/>
<stop offset="1" stop-color="#FDAA29"/>
</linearGradient>
</defs>
</svg>
