<svg width="107" height="31" viewBox="0 0 107 31" fill="none" xmlns="http://www.w3.org/2000/svg">
<path d="M45.2627 8.97303C44.5081 8.96468 43.761 9.12515 43.0764 9.44266C42.4352 9.73647 41.8739 10.1798 41.4395 10.7355V9.15618H38.2341V21.8407H41.4395V14.8345C41.4395 13.827 41.6952 13.0524 42.2064 12.5107C42.7174 11.969 43.4157 11.6978 44.3011 11.6971C45.1707 11.6971 45.8577 11.9683 46.3616 12.5107C46.8657 13.0531 47.1178 13.8277 47.1178 14.8345V21.8407H50.3232V14.3988C50.3232 12.69 49.8576 11.3585 48.9261 10.4043C47.9947 9.45012 46.7735 8.97303 45.2627 8.97303Z" fill="white"/>
<path d="M62.1002 10.9645C61.6473 10.3624 61.065 9.86967 60.3963 9.52254C59.6863 9.14129 58.8586 8.95031 57.9129 8.9496C56.8763 8.93657 55.857 9.21439 54.9704 9.7515C54.0749 10.3043 53.3528 11.0977 52.8863 12.0411C52.3752 13.0351 52.1196 14.1709 52.1196 15.449C52.1196 16.7474 52.3752 17.8961 52.8863 18.895C53.354 19.8466 54.0752 20.6507 54.9704 21.2187C55.8445 21.7673 56.8577 22.0533 57.8895 22.0431C58.7607 22.0612 59.6227 21.8606 60.3963 21.4594C61.0744 21.1106 61.6587 20.604 62.1002 19.9824V21.8375H65.3291V9.1562H62.1002V10.9645ZM61.6423 17.5021C61.3575 18.0352 60.9292 18.4778 60.4059 18.78C59.8984 19.0744 59.3217 19.2283 58.735 19.2262C58.1573 19.2273 57.5906 19.0688 57.0971 18.7683C56.5734 18.4495 56.1462 17.9946 55.8608 17.452C55.5373 16.8345 55.3759 16.1449 55.3921 15.4478C55.3921 14.6853 55.5483 14.0254 55.8608 13.4681C56.0732 13.0836 56.3602 12.7454 56.7049 12.4733C57.0498 12.2011 57.4453 12.0005 57.8686 11.8832C58.2919 11.7658 58.7344 11.7342 59.17 11.79C59.6057 11.8458 60.0258 11.988 60.4059 12.2083C60.9292 12.5106 61.3575 12.9533 61.6423 13.4862C61.9475 14.0436 62.1002 14.7112 62.1002 15.4894C62.1002 16.2675 61.9475 16.9385 61.6423 17.5021Z" fill="white"/>
<path d="M76.2214 16.1444C76.2214 17.1517 75.9695 17.9263 75.4654 18.468C74.9613 19.0098 74.267 19.2805 73.3823 19.2805C72.512 19.2805 71.8251 19.0098 71.3217 18.468C70.8183 17.9263 70.5663 17.1517 70.5656 16.1444V9.15619H67.3601V16.6023C67.3601 17.7325 67.5777 18.7055 68.0129 19.5212C68.415 20.3041 69.0408 20.9498 69.8105 21.3763C70.62 21.8074 71.5262 22.0241 72.443 22.0057C73.1904 22.0126 73.9298 21.8523 74.6071 21.5361C75.2442 21.2454 75.7989 20.8007 76.2214 20.2421V21.8396H79.4493V9.16044H76.2214V16.1444Z" fill="white"/>
<path d="M93.1113 9.16579H88.9442L84.6855 14.5469V4.9071H81.4801V21.8503H84.6855V16.4467L88.99 21.8503H93.1571L87.5246 15.531L93.1113 9.16579Z" fill="white"/>
<path d="M97.8442 11.1338V9.15616H94.6366V21.8449H97.842V15.5255C97.842 14.3499 98.0976 13.5256 98.6088 13.0528C99.12 12.5799 99.8796 12.3432 100.888 12.3425H101.74V8.97726C100.957 8.95868 100.184 9.14862 99.4997 9.52761C98.8151 9.9066 98.2437 10.461 97.8442 11.1338Z" fill="white"/>
<path d="M106.441 9.15619H103.236V21.8459H106.441V9.15619Z" fill="white"/>
<path d="M104.838 7.64291C105.897 7.64291 106.755 6.7847 106.755 5.72602C106.755 4.66735 105.897 3.80914 104.838 3.80914C103.78 3.80914 102.922 4.66735 102.922 5.72602C102.922 6.7847 103.78 7.64291 104.838 7.64291Z" fill="white"/>
<path d="M14.8939 30.3027C23.0692 30.3027 29.6966 23.6753 29.6966 15.5C29.6966 7.32476 23.0692 0.697388 14.8939 0.697388C6.71866 0.697388 0.0913086 7.32476 0.0913086 15.5C0.0913086 23.6753 6.71866 30.3027 14.8939 30.3027Z" fill="#265DF5"/>
<path d="M19.3455 20.9834L19.3124 22.4838L19.2165 26.816V26.9832C11.8962 20.6479 10.6491 19.1026 10.433 18.633L10.4255 18.6171C10.3995 18.5287 10.3933 18.4355 10.4074 18.3445C10.4126 18.3107 10.4197 18.2772 10.4287 18.2443C10.4362 18.2178 10.4436 18.1921 10.4532 18.1645C10.5321 17.9572 10.6439 17.7642 10.7844 17.5926C10.885 17.4626 10.9946 17.3399 11.1124 17.2253C11.3643 16.9762 11.6341 16.7458 11.9196 16.5362C12.0612 16.4297 12.2093 16.3232 12.3658 16.2167C12.6683 16.0101 12.9952 15.8035 13.3339 15.6022C15.9643 18.0559 19.3028 20.9439 19.3455 20.9834Z" fill="url(#paint0_linear_30_2946)"/>
<path d="M19.4422 6.75262L19.4091 8.25845L19.392 9.0039L19.3581 10.5023L19.341 11.2541L19.3079 12.7536C19.2558 12.7748 15.9172 14.0698 13.3443 15.6002C13.0057 15.8013 12.6798 16.0081 12.3763 16.2146C12.2208 16.3211 12.0717 16.4275 11.9301 16.5341C11.645 16.7442 11.3752 16.9745 11.1228 17.2231C11.0053 17.3381 10.8958 17.4607 10.7948 17.5906C10.5627 17.8866 10.4232 18.1773 10.403 18.451L10.4306 17.1996V17.1911L10.436 16.9973V16.927L10.4583 16.1379L10.5009 14.5736L10.5212 13.8089L10.5638 12.2583C11.093 10.088 18.5678 7.0966 19.4422 6.75262Z" fill="white"/>
<path d="M12.5508 8.41182C13.7641 8.41182 14.7478 7.4282 14.7478 6.21486C14.7478 5.0015 13.7641 4.01788 12.5508 4.01788C11.3375 4.01788 10.3539 5.0015 10.3539 6.21486C10.3539 7.4282 11.3375 8.41182 12.5508 8.41182Z" fill="white"/>
<defs>
<linearGradient id="paint0_linear_30_2946" x1="17.8322" y1="23.2559" x2="9.14971" y2="13.2402" gradientUnits="userSpaceOnUse">
<stop stop-color="white"/>
<stop offset="1" stop-color="#265DF5"/>
</linearGradient>
</defs>
</svg>
