<svg width="16" height="16" viewBox="0 0 16 16" fill="none" xmlns="http://www.w3.org/2000/svg">
<path d="M10.9373 0.00700603C10.906 -0.0262434 9.77516 0.0201308 8.79114 1.03249C7.80712 2.04397 7.95851 3.20421 7.98067 3.23395C8.00282 3.2637 9.38377 3.31008 10.2653 2.13322C11.1469 0.956366 10.9687 0.0411305 10.9373 0.00700603V0.00700603ZM13.9965 10.2732C13.9522 10.1892 11.8503 9.19349 12.046 7.27902C12.2417 5.36367 13.5922 4.83868 13.6134 4.78181C13.6346 4.72493 13.0623 4.09057 12.4558 3.76945C12.0105 3.54305 11.5177 3.41333 11.013 3.3897C10.9133 3.38708 10.5672 3.30658 9.85547 3.4912C9.38654 3.61282 8.32959 4.00657 8.03882 4.02232C7.74712 4.03807 6.87941 3.56557 5.94616 3.44045C5.34892 3.33108 4.71568 3.55508 4.26244 3.72745C3.81012 3.89894 2.9498 4.38719 2.34794 5.68479C1.74608 6.98152 2.06086 9.03599 2.28609 9.67473C2.51133 10.3126 2.86303 11.3582 3.46119 12.1212C3.99289 12.9822 4.69814 13.5798 4.99261 13.7828C5.28707 13.9858 6.11786 14.1205 6.69387 13.8414C7.15726 13.5719 7.99359 13.417 8.32406 13.4284C8.6536 13.4398 9.30346 13.5632 9.96901 13.9C10.4961 14.0724 10.9946 14.0007 11.494 13.8082C11.9934 13.6148 12.7161 12.8816 13.5599 11.3949C13.8802 10.7037 14.026 10.3301 13.9965 10.2732V10.2732Z" fill="#979EC2"/>
<path d="M10.9373 0.00700603C10.906 -0.0262434 9.77516 0.0201308 8.79114 1.03249C7.80712 2.04397 7.95851 3.20421 7.98067 3.23395C8.00282 3.2637 9.38377 3.31008 10.2653 2.13322C11.1469 0.956366 10.9687 0.0411305 10.9373 0.00700603V0.00700603ZM13.9965 10.2732C13.9522 10.1892 11.8503 9.19349 12.046 7.27902C12.2417 5.36367 13.5922 4.83868 13.6134 4.78181C13.6346 4.72493 13.0623 4.09057 12.4558 3.76945C12.0105 3.54305 11.5177 3.41333 11.013 3.3897C10.9133 3.38708 10.5672 3.30658 9.85547 3.4912C9.38654 3.61282 8.32959 4.00657 8.03882 4.02232C7.74712 4.03807 6.87941 3.56557 5.94616 3.44045C5.34892 3.33108 4.71568 3.55508 4.26244 3.72745C3.81012 3.89894 2.9498 4.38719 2.34794 5.68479C1.74608 6.98152 2.06086 9.03599 2.28609 9.67473C2.51133 10.3126 2.86303 11.3582 3.46119 12.1212C3.99289 12.9822 4.69814 13.5798 4.99261 13.7828C5.28707 13.9858 6.11786 14.1205 6.69387 13.8414C7.15726 13.5719 7.99359 13.417 8.32406 13.4284C8.6536 13.4398 9.30346 13.5632 9.96901 13.9C10.4961 14.0724 10.9946 14.0007 11.494 13.8082C11.9934 13.6148 12.7161 12.8816 13.5599 11.3949C13.8802 10.7037 14.026 10.3301 13.9965 10.2732V10.2732Z" fill="#979EC2"/>
</svg>
