<svg width="25" height="24" viewBox="0 0 25 24" fill="none" xmlns="http://www.w3.org/2000/svg">
<g clip-path="url(#clip0_11733_2415)">
<rect x="0.772727" y="0.272727" width="23.4545" height="23.4545" rx="11.7273" fill="#F04141"/>
<rect x="0.772727" y="0.272727" width="23.4545" height="23.4545" rx="11.7273" stroke="#F04141" stroke-width="0.545455"/>
<path d="M11.5081 5.04179C12.2138 4.89988 12.9437 4.91452 13.6429 5.08573C13.8894 5.14624 14.1307 5.22581 14.3636 5.32304C14.79 5.50126 15.1901 5.74019 15.5501 6.03202V6.01933C16.5344 6.81957 17.1581 7.97058 17.2864 9.22148C17.414 10.4726 17.0367 11.7231 16.2347 12.701C15.777 13.2345 15.5166 13.9059 15.4964 14.6043V15.367H9.44366V14.491C9.42348 13.8585 9.1798 13.2527 8.75421 12.7791C8.59146 12.5856 8.4443 12.3798 8.31476 12.1648C8.07911 11.7744 7.89939 11.3521 7.78351 10.91C7.60382 10.2242 7.57973 9.50728 7.71319 8.81132C7.89551 7.88319 8.35387 7.02936 9.0296 6.35819C9.70472 5.68699 10.5674 5.22896 11.5081 5.04179Z" fill="white"/>
<path fill-rule="evenodd" clip-rule="evenodd" d="M9.44336 16.2949V17.5094C9.44336 17.9411 9.63465 18.3551 9.97514 18.6604C10.3156 18.9657 10.7774 19.1372 11.259 19.1372H13.6798C14.1613 19.1372 14.6231 18.9657 14.9636 18.6604C15.3041 18.3551 15.4954 17.9411 15.4954 17.5094V16.2949H9.44336ZM14.1077 17.8931C14.2212 17.7913 14.285 17.6533 14.285 17.5094V17.1581H10.6538V17.5094C10.6538 17.6533 10.7175 17.7913 10.831 17.8931C10.9445 17.9948 11.0985 18.052 11.259 18.052H13.6798C13.8403 18.052 13.9942 17.9948 14.1077 17.8931Z" fill="white"/>
</g>
<defs>
<clipPath id="clip0_11733_2415">
<rect width="24" height="24" fill="white" transform="translate(0.5)"/>
</clipPath>
</defs>
</svg>
