<svg width="14" height="15" viewBox="0 0 14 15" fill="none" xmlns="http://www.w3.org/2000/svg">
<path d="M9.84178 12.3921V11.305C9.84178 10.7284 9.61272 10.1754 9.20498 9.76767C8.79724 9.35993 8.24422 9.13086 7.66759 9.13086H3.31921C2.74258 9.13086 2.18957 9.35993 1.78183 9.76767C1.37409 10.1754 1.14502 10.7284 1.14502 11.305V12.3921" stroke="#979EC2" stroke-width="1.2" stroke-linecap="round" stroke-linejoin="round"/>
<path d="M5.49353 6.9558C6.6943 6.9558 7.66772 5.98238 7.66772 4.78161C7.66772 3.58084 6.6943 2.60742 5.49353 2.60742C4.29275 2.60742 3.31934 3.58084 3.31934 4.78161C3.31934 5.98238 4.29275 6.9558 5.49353 6.9558Z" stroke="#979EC2" stroke-width="1.2" stroke-linecap="round" stroke-linejoin="round"/>
<path d="M12.8553 12.3918V11.3047C12.8549 10.823 12.6946 10.355 12.3994 9.97427C12.1043 9.59354 11.691 9.3216 11.2246 9.20117" stroke="#979EC2" stroke-width="1.2" stroke-linecap="round" stroke-linejoin="round"/>
<path d="M9.05029 2.67773C9.51797 2.79748 9.93249 3.06947 10.2285 3.45083C10.5245 3.83219 10.6852 4.30122 10.6852 4.78398C10.6852 5.26674 10.5245 5.73578 10.2285 6.11714C9.93249 6.49849 9.51797 6.77048 9.05029 6.89023" stroke="#979EC2" stroke-width="1.2" stroke-linecap="round" stroke-linejoin="round"/>
</svg>