<svg width="118" height="118" viewBox="0 0 118 118" fill="none" xmlns="http://www.w3.org/2000/svg">
<rect width="117" height="118" transform="translate(0.5)" fill="white"/>
<path d="M100.399 29.2337C100.418 29.0695 100.469 28.9106 100.549 28.7664C100.63 28.6222 100.738 28.4955 100.867 28.3935C100.996 28.2915 101.144 28.2163 101.302 28.1723C101.46 28.1282 101.625 28.1161 101.788 28.1367C105.188 28.5792 99.9506 32.8291 100.399 29.2337Z" stroke="#121224" stroke-width="1.40707" stroke-miterlimit="10"/>
<path d="M78.038 25.7494C78.0584 25.5848 78.1107 25.4257 78.192 25.2815C78.2733 25.1372 78.382 25.0105 78.5119 24.9086C78.6418 24.8067 78.7903 24.7317 78.9489 24.6877C79.1076 24.6437 79.2733 24.6317 79.4366 24.6524C82.8369 25.0765 77.5993 29.3447 78.038 25.7494Z" fill="#121224"/>
<path d="M69.4472 8.51882C69.4685 8.3511 69.5227 8.18934 69.6067 8.04299C69.6907 7.89665 69.8028 7.76867 69.9364 7.66653C70.07 7.56439 70.2225 7.49013 70.3849 7.44811C70.5473 7.40609 70.7164 7.39714 70.8823 7.42179C74.246 7.84586 69.0541 12.1141 69.4472 8.51882Z" stroke="#121224" stroke-width="1.40707" stroke-miterlimit="10"/>
<path d="M63.0865 110.174C59.2383 110.414 55.381 110.598 51.5145 110.626C50.0977 110.626 48.6809 110.626 47.2733 110.626C42.3556 110.432 37.3922 110.322 32.4472 109.962C30.2534 109.796 28.0505 109.64 25.8751 109.363C24.4765 109.188 23.078 108.976 21.6886 108.681C20.9933 108.521 20.3068 108.324 19.632 108.091C18.9568 107.843 18.3052 107.535 17.6851 107.169C16.9172 106.699 17.1183 106.634 17.877 106.763C18.6357 106.892 19.9794 106.957 21.4876 107.335C24.2395 107.91 27.0282 108.289 29.8329 108.469C32.6574 108.69 35.5093 108.828 38.3703 108.967C41.798 109.133 45.3994 109.05 48.9003 109.114C52.7394 109.114 56.5967 108.976 60.454 108.736C62.8306 108.579 65.198 108.413 67.5655 108.201C71.1577 107.897 74.7683 107.565 78.324 107.15C81.0662 106.828 83.8083 106.395 86.5505 106.007L88.3787 105.749C90.6273 105.463 91.3585 105.519 91.8978 105.952C92.0228 106.039 92.1392 106.138 92.2451 106.247C92.5011 106.607 91.6144 107.003 89.9783 107.289C85.1246 108.128 79.9236 108.745 74.7865 109.271C70.9292 109.667 67.0444 109.99 63.1688 110.276L63.0865 110.174Z" fill="#121224"/>
<path d="M64.4847 79.0698C62.4734 77.6572 60.2888 76.5138 57.9858 75.6681C55.757 74.9437 53.3468 75.0318 51.176 75.917C49.527 76.5862 47.9623 77.4495 46.5143 78.4891C45.1889 79.4109 43.9092 80.3328 42.6204 81.3837C41.3315 82.4347 40.0061 83.375 38.763 84.4075C36.2585 86.4725 33.8636 88.6942 31.5328 90.9805C29.4579 93.0178 27.4286 95.1381 25.4543 97.24C22.9406 100.006 20.5366 102.771 18.0504 105.537C17.2917 106.394 17.1363 106.062 17.4014 105.039C17.9463 103.428 18.79 101.935 19.8876 100.642C22.383 97.747 25.0429 94.9906 27.712 92.3448C30.3811 89.6991 33.1415 86.9611 36.094 84.4812C37.8581 82.9878 39.7502 81.522 41.5783 80.0655C43.4085 78.534 45.3418 77.1325 47.3643 75.8709C48.5285 75.1928 49.7525 74.6249 51.0206 74.1747C52.3191 73.7392 53.6745 73.5 55.0425 73.4648C56.4149 73.4785 57.775 73.7279 59.0643 74.2023C60.2936 74.6719 61.488 75.2295 62.6383 75.8709C65.4272 77.4491 68.0542 79.3019 70.481 81.4022C74.1372 84.5458 77.5558 87.9567 80.9744 91.2662C83.6344 93.8475 86.2851 96.3181 88.9542 98.8164L90.7092 100.448C92.8755 102.522 93.4514 103.214 93.6251 104.062C93.6747 104.239 93.7053 104.422 93.7165 104.606C93.7165 105.076 92.5465 104.486 90.8646 103.048C85.8921 98.7519 81.0567 93.8291 76.0842 89.063C72.3183 85.4492 68.6437 81.8816 64.4847 79.1067V79.0698Z" fill="#121224"/>
<path d="M14.129 88.3165C14.129 86.0487 14.129 83.7993 14.1747 81.5222C14.1747 80.6926 14.1747 79.8629 14.2295 79.0424C14.4032 76.1201 14.7871 73.2438 15.0613 70.3768C15.1802 69.0954 15.2441 67.814 15.2807 66.551C15.2807 64.9193 15.2807 63.2968 15.4452 61.6743C15.5001 61.1673 15.82 61.2226 16.1582 61.6743C16.6339 62.2954 16.9113 63.0477 16.9534 63.8315C17.0108 67.2061 16.7876 70.5797 16.2862 73.9168C16.0211 75.908 15.9754 77.9915 15.884 80.0288C15.7926 82.269 15.7926 84.5276 15.8017 86.7862C15.8017 88.1782 15.8017 89.5518 15.884 90.9622C15.9571 93.0641 16.0577 95.1752 16.2862 97.2494C16.4598 98.8627 16.7615 100.43 17.0631 101.997C17.1271 102.338 17.2002 102.679 17.2734 103.03C17.5019 104.32 17.4562 104.753 17.0631 105.113C16.9871 105.202 16.9012 105.283 16.8072 105.353C16.5147 105.537 16.1125 105.058 15.8474 104.108C15.1029 101.178 14.6286 98.1844 14.4306 95.166C14.2478 92.889 14.1655 90.5566 14.1016 88.3165H14.129Z" fill="#121224"/>
<path d="M93.8454 87.4764C93.7997 85.3745 93.7083 83.2542 93.5895 81.1339C93.5895 80.3687 93.4341 79.5943 93.3884 78.82C93.2238 76.0543 93.169 73.2887 93.2147 70.5231C93.2147 69.297 93.2147 68.0709 93.2147 66.8356C93.2147 66.0612 93.2147 65.2776 93.2147 64.5032C93.2147 63.7289 93.3518 62.9545 93.4798 62.1801C93.562 61.7007 93.8363 61.7745 94.1379 62.1801C94.5562 62.7946 94.8168 63.5041 94.8966 64.2451C95.0154 67.3979 95.0245 70.5139 94.8966 73.6759C94.9108 75.608 95.0329 77.5378 95.2622 79.456C95.4267 81.5948 95.5608 83.7458 95.6644 85.9092C95.7284 87.2275 95.7558 88.555 95.7832 89.8825C95.7832 91.8921 95.7832 93.9203 95.6918 95.9207C95.6278 97.4787 95.6278 99.0182 95.4541 100.585C95.4541 100.927 95.3719 101.268 95.317 101.618C95.264 101.886 95.1938 102.151 95.1068 102.411C95.0311 102.592 94.9328 102.762 94.8143 102.918C94.6581 103.142 94.4225 103.297 94.1562 103.351C94.0464 103.388 93.933 103.413 93.818 103.425C93.4706 103.425 93.3061 102.844 93.3335 101.95C93.5529 99.3409 93.7631 96.5845 93.8088 93.7635C93.8088 91.6617 93.8088 89.5414 93.7357 87.421L93.8454 87.4764Z" fill="#121224"/>
<path d="M79.6842 64.6062C81.5123 63.4723 83.2308 62.3292 84.9583 61.1308C85.5982 60.6883 86.1832 60.2089 86.7865 59.7572C87.8833 58.9736 88.9711 58.1808 89.9948 57.3326C90.5067 56.9086 91.0003 56.4753 91.4482 56.0236C91.6411 55.8265 91.8212 55.6171 91.9875 55.3967C92.0697 55.2769 92.1611 55.1017 92.0697 54.9542L91.9418 54.779L91.7041 54.3919C91.5122 54.1522 91.3476 53.9033 91.1648 53.6636L90.0771 52.2531L87.2252 48.5656C86.6311 47.8097 88.1393 48.1047 89.3915 49.3769C90.5341 50.4831 91.6493 51.617 92.7187 52.8062C92.8467 52.9537 92.9838 53.1012 93.1026 53.2672L93.5597 53.8664C93.7943 54.1465 93.9435 54.4891 93.9893 54.8528C93.9996 55.2376 93.9115 55.6186 93.7333 55.959C93.6602 56.125 93.5505 56.2817 93.4683 56.4384C93.386 56.5951 93.3129 56.6412 93.2397 56.7426C93.1666 56.844 92.9381 57.1022 92.7918 57.2589C92.5041 57.5828 92.199 57.8906 91.8778 58.1808C90.3422 59.4253 88.8248 60.7159 87.2343 61.8683C85.5068 63.0851 83.6786 64.2836 81.9328 65.4543L78.6147 67.6115C76.9511 68.6993 75.2418 69.7503 73.6057 70.8565C72.326 71.7139 71.1377 72.645 69.9494 73.5392C69.6843 73.742 69.4284 73.9448 69.145 74.1384C68.1213 74.8483 67.6917 74.922 67.189 74.6178C67.0721 74.5608 66.9592 74.4961 66.8507 74.4242C66.5582 74.1753 66.7868 73.5761 67.4906 72.9769C69.6839 71.2124 71.9726 69.572 74.3461 68.0633L79.6568 64.5325L79.6842 64.6062Z" fill="#121224"/>
<path d="M28.6156 67.842C26.562 66.6128 24.5298 65.3191 22.5188 63.9609C21.7876 63.4723 21.0289 63.039 20.3068 62.5043C19.0094 61.5938 17.7867 60.5796 16.6506 59.4713C16.5043 59.3146 16.3581 59.1579 16.221 58.9827C16.0275 58.7546 15.8618 58.5039 15.7274 58.236C15.5949 57.9739 15.5319 57.6818 15.5445 57.3879C15.592 57.0975 15.7186 56.8262 15.9102 56.6043C16.2133 56.2476 16.5369 55.909 16.8791 55.5902L17.7292 54.7974L20.7456 52.0318C22.007 50.8334 23.2958 49.6534 24.5024 48.4365C24.868 48.0677 25.0142 48.2429 24.9046 48.7591C24.675 49.5445 24.2754 50.2687 23.7345 50.8795C22.5828 52.2715 21.3946 53.6451 20.188 54.9173C19.5847 55.5718 18.9174 56.1618 18.305 56.761C17.5281 57.5907 17.4641 57.3879 17.5189 57.6829C17.5307 57.732 17.5561 57.7768 17.5921 57.812C17.6602 57.9051 17.7334 57.9944 17.8114 58.0793C17.9789 58.2666 18.1558 58.4451 18.3416 58.614C18.7163 58.9551 19.1368 59.287 19.5573 59.6096C20.4165 60.2549 21.3214 60.8634 22.2172 61.4534C24.1916 62.7901 26.2117 64.0807 28.2592 65.3345C29.5206 66.1088 30.7911 66.8678 32.0708 67.6115C34.0086 68.727 35.9556 69.8609 37.9299 70.8841C39.4656 71.677 41.0286 72.3499 42.5825 73.0506C42.9299 73.2073 43.2681 73.3456 43.6063 73.5115C44.886 74.1107 45.2059 74.4334 45.2424 75.0695C45.2559 75.2013 45.2559 75.3341 45.2424 75.4659C45.2424 75.8623 44.5203 75.9452 43.5423 75.5857C40.5732 74.4194 37.6871 73.0488 34.9044 71.4834C32.7746 70.3402 30.6631 69.1418 28.5882 67.8881L28.6156 67.842Z" fill="#121224"/>
<path d="M32.2006 36.0189C36.4419 35.4381 40.7197 35.0325 44.9152 34.6914C46.46 34.5623 48.0048 34.3872 49.5495 34.2858C55.0339 33.9078 60.4634 33.7327 65.9295 33.6405C68.3518 33.6405 70.7923 33.5391 73.242 33.5391C74.7959 33.5391 76.3498 33.5391 77.9129 33.6681C78.6898 33.7327 79.4668 33.8156 80.2529 33.9539C81.0579 34.0729 81.8444 34.2959 82.5929 34.6177C83.0956 34.8573 83.2602 35.1892 83.1505 35.2353C83.0408 35.2814 82.7574 35.2353 82.3552 35.2353C81.5417 35.2353 80.0884 35.4012 78.3516 35.3736C72.1726 35.1984 65.8838 35.3736 59.5677 35.5488C55.7743 35.6502 51.853 36.0005 47.9865 36.3139C43.7452 36.6458 39.4948 37.0237 35.2719 37.5492C32.6868 37.8338 30.1179 38.2523 27.5755 38.803C27.3378 38.8675 27.1002 38.9228 26.8808 38.9966L26.5517 39.098L26.2866 39.1902C26.1616 39.2284 26.0484 39.2982 25.9576 39.393C25.9157 39.5207 25.8972 39.655 25.9027 39.7894C25.9027 40.7112 25.9027 41.7622 25.9027 42.7486C25.9576 44.7491 26.0307 46.7587 26.113 48.7408C26.2501 51.8383 26.506 54.862 26.6705 57.9595C26.6705 58.6325 26.7437 59.2962 26.7802 59.9784C26.8625 62.5044 26.7254 63.3341 26.1952 63.8687C26.0906 63.9967 25.9709 64.1112 25.8387 64.2098C25.4366 64.4034 25.1898 63.417 25.0618 61.5917C24.6688 56.1619 24.2483 50.4094 24.0289 44.6108L23.9375 41.3566V39.5681C23.951 39.312 23.994 39.0583 24.0655 38.8122C24.1165 38.566 24.2299 38.3373 24.3945 38.1484C24.743 37.7693 25.1844 37.4895 25.6742 37.3372C26.7627 36.9825 27.8745 36.7053 29.0014 36.5075C30.08 36.3047 31.1495 36.1387 32.2189 35.9728L32.2006 36.0189Z" fill="#121224"/>
<path d="M84.4309 45.5966L84.4858 48.8601C84.4858 49.2565 84.5589 49.6437 84.5681 50.0401C84.5681 51.4506 84.5681 52.8057 84.696 54.253C84.7337 54.8709 84.8039 55.4864 84.9062 56.0968C85.092 56.8717 85.1598 57.6706 85.1073 58.466C85.1073 58.7241 84.7509 58.7334 84.3852 58.5766C84.1788 58.4937 83.9913 58.3691 83.8341 58.2106C83.677 58.0521 83.5535 57.863 83.4712 57.6548C83.1645 56.0475 83.0084 54.4148 83.005 52.7781C83.005 51.7916 82.813 50.7868 82.7216 49.7912C82.6302 48.7956 82.5663 47.5879 82.5297 46.4816L82.4657 44.4351C82.4657 43.4026 82.4017 42.3701 82.3652 41.3468C82.3652 40.554 82.1641 39.7704 82.1641 38.9776C82.1641 38.8116 82.1641 38.6365 82.1641 38.4613C82.1641 37.8068 82.3286 37.604 82.7125 37.4749C82.795 37.439 82.8807 37.4112 82.9684 37.392C83.2518 37.3366 83.4895 37.604 83.6266 38.0649C83.8362 38.754 84.0011 39.4561 84.1202 40.1668C84.2207 40.8859 84.2938 41.6049 84.3487 42.3332L84.4858 45.5966H84.4309Z" fill="#121224"/>
<path d="M56.8806 22.5039C55.9723 22.6522 55.1023 22.9813 54.3212 23.4719C53.3752 23.9897 52.4596 24.5622 51.5791 25.1866C50.9209 25.6383 50.3177 26.1638 49.6687 26.6339C47.3835 28.2994 45.1227 30.0356 42.8863 31.8425C41.8991 32.6446 40.9394 33.4835 39.9796 34.3131C39.358 34.8294 38.7365 35.3641 38.0784 35.8619C37.4055 36.3985 36.6568 36.8304 35.8572 37.1433C35.5464 37.2355 35.3545 37.1433 35.3636 37.0327C35.4036 36.8352 35.4746 36.6453 35.5738 36.4703C35.869 35.8017 36.2986 35.2022 36.8352 34.7096C39.2027 32.5155 41.7346 30.3675 44.4037 28.3486C46.0124 27.1594 47.5298 25.7213 49.1842 24.486C51.0056 23.0504 52.9911 21.8402 55.0982 20.8814C55.4745 20.736 55.863 20.6249 56.2591 20.5495C56.4733 20.5117 56.6905 20.4932 56.908 20.4942C57.1331 20.4923 57.3575 20.5202 57.5753 20.5772C58.3113 20.7851 59.0089 21.112 59.6411 21.5452C61.4001 22.7562 63.0461 24.1262 64.5587 25.6383C65.747 26.7538 66.9536 27.8139 68.0962 28.9663C68.3521 29.2152 68.608 29.4456 68.8457 29.7222C69.7049 30.7455 69.8512 31.1788 69.6135 31.7319C69.5685 31.8635 69.5103 31.9902 69.4398 32.1099C69.193 32.4694 68.5989 32.2666 67.8859 31.6305C65.7653 29.7867 63.7635 27.5927 61.588 25.6475C60.8023 24.9328 59.9784 24.2619 59.1201 23.6378C58.7171 23.3517 58.2957 23.093 57.8587 22.8635C57.6723 22.7731 57.4799 22.6961 57.2828 22.633L57.036 22.5592C56.9908 22.5684 56.9442 22.5684 56.8989 22.5592L56.8806 22.5039Z" fill="#121224"/>
<path d="M60.3896 47.7267L55.152 47.9387L53.2416 48.0493C50.993 48.1415 48.7353 48.1323 46.4867 48.1692L43.4611 48.206C42.1626 48.3086 40.8563 48.2373 39.5764 47.994C39.1559 47.8649 39.3113 47.7174 39.6769 47.5976C40.2077 47.4146 40.7618 47.309 41.3222 47.2842C43.8724 47.1827 46.4592 46.9338 49.0643 46.8693C50.6274 46.814 52.2453 46.6481 53.8357 46.5374L59.1099 46.2148L62.3548 46.0304C63.991 45.9198 65.6363 45.8552 67.2633 45.7354C68.5339 45.6432 69.7587 45.4404 71.0201 45.3206C71.2943 45.3206 71.5685 45.2468 71.8428 45.2284C72.8939 45.1823 73.223 45.2929 73.4424 45.7538C73.5168 45.8597 73.5781 45.9742 73.6252 46.0949C73.7257 46.4545 73.3053 46.7587 72.5649 46.8693C70.3711 47.2196 67.9946 47.3948 65.682 47.5423C63.927 47.6529 62.1628 47.699 60.4078 47.7912L60.3896 47.7267Z" fill="#121224"/>
<path d="M58.8278 54.8978H56.8352C56.5884 54.8978 56.3507 54.9439 56.1039 54.8978C55.2447 54.8978 54.3763 54.8056 53.5171 54.7595C53.1332 54.7595 52.7585 54.7595 52.3745 54.7595C51.8898 54.8164 51.3991 54.7946 50.9212 54.695C50.6195 54.612 51.04 53.5703 51.5793 53.5427C52.5485 53.4951 53.5198 53.5167 54.486 53.6072C55.0966 53.6315 55.7082 53.6037 56.3142 53.5242L58.2794 53.4689H59.5134C60.1349 53.4689 60.7656 53.4689 61.3415 53.4044C61.9174 53.3398 62.2556 53.2384 62.7857 53.1647C62.8954 53.1647 62.996 53.1186 63.1056 53.1094C63.4987 53.1094 63.6267 53.1923 63.6998 53.6256C63.6998 53.7178 63.6998 53.8192 63.6998 53.9114C63.7204 54.058 63.6897 54.2073 63.613 54.3335C63.5362 54.4597 63.4182 54.5549 63.2793 54.6028C62.4414 54.8262 61.5775 54.9347 60.7108 54.9255L58.7364 54.9716L58.8278 54.8978Z" fill="#121224"/>
<path d="M64.2751 110.894C61.1216 111.087 57.9681 111.244 54.8054 111.345C53.6446 111.345 52.4928 111.447 51.3411 111.456C47.2553 111.456 43.206 111.262 39.1567 111.096L33.7637 110.894C31.4583 110.905 29.157 110.698 26.8899 110.276C26.1861 110.119 26.2958 109.953 26.8899 109.75C27.2007 109.64 27.6395 109.529 28.1605 109.4C28.4406 109.331 28.7244 109.279 29.0106 109.243C29.3122 109.243 29.6321 109.243 29.9246 109.243L43.9281 109.732C46.7525 109.861 49.6592 109.732 52.5203 109.603C55.6738 109.465 58.8364 109.326 61.9991 109.114C63.9369 108.976 65.8839 108.838 67.8308 108.672C70.765 108.423 73.7265 108.165 76.6332 107.75C78.891 107.464 81.0939 107.049 83.315 106.662C83.7995 106.579 84.2291 106.478 84.7684 106.404C86.5965 106.118 87.1998 106.174 87.6751 106.69C87.7906 106.792 87.8948 106.906 87.9859 107.031C88.2235 107.446 87.5197 107.953 86.1578 108.211C82.0506 109.072 77.8965 109.688 73.7174 110.055C70.5547 110.387 67.3738 110.635 64.1928 110.875L64.2751 110.894Z" fill="#121224"/>
<path d="M32.0523 69.1977L28.0487 66.6902C27.5643 66.3768 27.0524 66.1186 26.568 65.7683C24.877 64.6436 23.2042 63.4913 21.5863 62.256C20.8551 61.7397 20.1512 61.1497 19.4383 60.6058C18.9995 60.2279 18.5242 59.896 18.1129 59.4719L17.4822 58.8635C17.2811 58.6422 17.0983 58.4025 16.9155 58.1629C16.7327 57.9232 16.9155 57.7665 17.2811 57.831C17.7945 57.9315 18.2826 58.1353 18.7162 58.4302C19.6302 59.0479 20.6631 59.601 21.6503 60.1818C22.6375 60.7625 23.5424 61.4816 24.4748 62.1822C25.6275 63.0332 26.8268 63.818 28.067 64.533C29.4016 65.3688 30.7391 66.1955 32.0798 67.0129L34.5752 68.5063C35.8548 69.2346 37.1162 69.9905 38.4142 70.6543C39.4288 71.1613 40.4709 71.5761 41.5037 72.0002L42.1802 72.286C43.0211 72.664 43.2039 72.9497 43.1491 73.4936C43.1585 73.6133 43.1585 73.7335 43.1491 73.8532C43.0668 74.2219 42.5641 74.3786 41.9151 74.1758C39.9166 73.4993 37.9856 72.6351 36.1473 71.5946C34.7488 70.8479 33.4052 70.0366 32.0066 69.2438L32.0523 69.1977Z" fill="#121224"/>
<path d="M77.8395 65.0106C79.1192 64.2086 80.3989 63.3881 81.6603 62.5492C82.1173 62.2358 82.5744 61.8855 83.004 61.6273C84.6127 60.5395 86.2215 59.4425 87.7845 58.2901C88.4518 57.7555 89.1373 57.23 89.7589 56.6584C90.157 56.2984 90.5354 55.9168 90.8923 55.5153C91.2154 55.2011 91.4571 54.8118 91.5962 54.3814C91.5962 54.28 91.7241 53.985 92.0806 54.28C92.1674 54.3977 92.23 54.5318 92.2645 54.6743C92.2991 54.8168 92.3049 54.9648 92.2817 55.1097C92.243 55.4526 92.1307 55.7829 91.9527 56.0776C91.3211 57.1033 90.5793 58.0555 89.7406 58.917C88.8898 59.7033 87.9722 60.4128 86.9984 61.0373C85.8284 61.7748 84.7407 62.6967 83.589 63.4987C82.4373 64.3008 81.0387 65.2319 79.7499 66.0708L77.3551 67.5734C76.1577 68.357 74.9328 69.1037 73.7628 69.915C72.8487 70.5419 72.0261 71.2517 71.1577 71.9247C70.9658 72.0722 70.783 72.2289 70.5819 72.3672C69.8506 72.8926 69.5216 72.9019 69.0919 72.5792C68.9927 72.5152 68.8981 72.4444 68.8086 72.3672C68.5435 72.0998 68.6532 71.5928 69.1376 71.1411C70.6546 69.7863 72.2744 68.5534 73.9822 67.4536L77.8121 64.9369L77.8395 65.0106Z" fill="#121224"/>
<path d="M34.8321 85.9285L32.4007 87.975L30.0242 90.1045L28.3606 91.7271C26.3862 93.5708 24.4027 95.516 22.538 97.5256C21.7153 98.4475 20.911 99.3694 20.1523 100.291C19.2124 101.53 18.2086 102.718 17.145 103.85C16.8068 104.191 16.624 103.97 16.6331 103.463C16.6813 102.712 16.9378 101.99 17.3735 101.379C19.3597 98.8541 21.5191 96.4729 23.836 94.253C25.2253 92.9255 26.5781 91.4321 28.0132 90.0953C28.7902 89.3394 29.5945 88.6111 30.4081 87.9013C31.2216 87.1914 32.0351 86.4631 32.8577 85.7349C33.8632 84.813 34.9235 84.0386 35.9564 83.1997C37.5378 81.9552 39.1739 80.7567 40.8101 79.6044C42.0532 78.6825 43.3146 77.8067 44.576 76.9125L45.4352 76.3686C46.5321 75.7233 46.9343 75.6035 47.3548 75.8247C47.4517 75.8627 47.5437 75.9122 47.629 75.9722C47.8758 76.175 47.5467 76.6544 46.8063 77.1799C44.5669 78.701 42.236 80.3419 39.9143 82.0013L37.3641 83.9188L34.8595 85.9285H34.8321Z" fill="#121224"/>
<path d="M23.8804 58.0781C23.8804 57.3775 23.8804 56.6768 23.8804 55.9854C23.8804 55.7273 23.8804 55.4784 23.8804 55.2203C23.8804 54.2984 23.9627 53.4411 23.9718 52.5468C23.9718 52.1504 23.9718 51.754 23.917 51.3668C23.8377 50.8702 23.8132 50.3663 23.8438 49.8642C23.8438 49.5415 24.7579 49.8642 24.8127 50.445C24.9773 51.4686 25.0416 52.5061 25.0047 53.5425C25.0047 54.1693 25.0778 54.8146 25.0961 55.4415L25.1784 57.5065C25.1784 57.9306 25.1784 58.3639 25.1784 58.7879C25.1784 59.4332 25.2423 60.0878 25.3246 60.7239C25.4069 61.2125 25.544 61.6457 25.6537 62.162C25.6537 62.2726 25.6994 62.374 25.7177 62.4846C25.7177 62.8811 25.672 63.0286 25.3703 63.1576C25.3069 63.1959 25.2395 63.2268 25.1692 63.2498C25.0434 63.2797 24.911 63.2614 24.7978 63.1983C24.6846 63.1353 24.5987 63.0321 24.5568 62.9087C24.118 62.054 23.8892 61.1055 23.8895 60.1431C23.8347 59.4332 23.8347 58.7234 23.8164 58.0228L23.8804 58.0781Z" fill="#121224"/>
</svg>