<svg width="24" height="24" viewBox="0 0 24 24" fill="none" xmlns="http://www.w3.org/2000/svg">
<path d="M18.296 7.98857C20.1374 7.98857 21.6302 6.49583 21.6302 4.65444C21.6302 2.81305 20.1374 1.32031 18.296 1.32031C16.4547 1.32031 14.9619 2.81305 14.9619 4.65444C14.9619 6.49583 16.4547 7.98857 18.296 7.98857Z" stroke="#121224" stroke-width="1.3" stroke-linecap="round" stroke-linejoin="round"/>
<path d="M5.70278 15.3343C7.54417 15.3343 9.03691 13.8415 9.03691 12.0001C9.03691 10.1588 7.54417 8.66602 5.70278 8.66602C3.86139 8.66602 2.36865 10.1588 2.36865 12.0001C2.36865 13.8415 3.86139 15.3343 5.70278 15.3343Z" stroke="#121224" stroke-width="1.3" stroke-linecap="round" stroke-linejoin="round"/>
<path d="M18.296 22.68C20.1374 22.68 21.6302 21.1872 21.6302 19.3458C21.6302 17.5045 20.1374 16.0117 18.296 16.0117C16.4547 16.0117 14.9619 17.5045 14.9619 19.3458C14.9619 21.1872 16.4547 22.68 18.296 22.68Z" stroke="#121224" stroke-width="1.3" stroke-linecap="round" stroke-linejoin="round"/>
<path d="M8.51562 14.0527L14.9015 18.0881" stroke="#121224" stroke-width="1.3" stroke-linecap="round" stroke-linejoin="round"/>
<path d="M14.99 5.93747L8.82617 10.2389" stroke="#121224" stroke-width="1.3" stroke-linecap="round" stroke-linejoin="round"/>
</svg>