<svg width="14" height="14" viewBox="0 0 14 14" fill="none" xmlns="http://www.w3.org/2000/svg">
<g clip-path="url(#clip0_477_65107)">
<path d="M12.7337 10.1912V11.9211C12.7343 12.0817 12.7014 12.2407 12.6371 12.3878C12.5727 12.5349 12.4784 12.667 12.36 12.7756C12.2417 12.8842 12.102 12.9668 11.9499 13.0183C11.7977 13.0697 11.6365 13.0888 11.4766 13.0744C9.70223 12.8816 7.99781 12.2752 6.50031 11.3041C5.10708 10.4188 3.92587 9.23758 3.04055 7.84435C2.06604 6.34005 1.45958 4.62735 1.27031 2.84499C1.2559 2.68554 1.27485 2.52483 1.32595 2.3731C1.37705 2.22136 1.45919 2.08194 1.56713 1.96369C1.67508 1.84544 1.80646 1.75096 1.95291 1.68627C2.09937 1.62158 2.25769 1.5881 2.41779 1.58795H4.14767C4.42752 1.58519 4.69881 1.68429 4.91099 1.86676C5.12317 2.04924 5.26176 2.30265 5.30093 2.57975C5.37394 3.13335 5.50935 3.67691 5.70457 4.20007C5.78215 4.40646 5.79894 4.63076 5.75295 4.8464C5.70696 5.06204 5.60012 5.25997 5.44509 5.41675L4.71277 6.14907C5.53363 7.59268 6.72892 8.78797 8.17253 9.60883L8.90485 8.87651C9.06163 8.72148 9.25956 8.61464 9.4752 8.56865C9.69084 8.52266 9.91514 8.53945 10.1215 8.61703C10.6447 8.81225 11.1883 8.94766 11.7419 9.02067C12.022 9.06019 12.2778 9.20127 12.4606 9.4171C12.6435 9.63292 12.7407 9.90843 12.7337 10.1912Z" stroke="#121224" stroke-width="1.3" stroke-linecap="round" stroke-linejoin="round"/>
</g>
<defs>
<clipPath id="clip0_477_65107">
<rect width="14" height="14" fill="white"/>
</clipPath>
</defs>
</svg>