<svg width="14" height="14" viewBox="0 0 14 14" fill="none" xmlns="http://www.w3.org/2000/svg">
<path d="M11.6485 5.89671C11.6485 9.59437 7.00005 12.7638 7.00005 12.7638C7.00005 12.7638 2.35156 9.59437 2.35156 5.89671C2.35156 4.63584 2.84131 3.4266 3.71307 2.53503C4.58483 1.64346 5.76719 1.14258 7.00005 1.14258C8.2329 1.14258 9.41526 1.64346 10.287 2.53503C11.1588 3.4266 11.6485 4.63584 11.6485 5.89671Z" stroke="#121224" stroke-width="1.3" stroke-linecap="round" stroke-linejoin="round"/>
<path d="M7.00035 7.68624C8.07005 7.68624 8.93722 6.81907 8.93722 5.74937C8.93722 4.67967 8.07005 3.8125 7.00035 3.8125C5.93064 3.8125 5.06348 4.67967 5.06348 5.74937C5.06348 6.81907 5.93064 7.68624 7.00035 7.68624Z" stroke="#121224" stroke-width="1.3" stroke-linecap="round" stroke-linejoin="round"/>
</svg>