<svg width="32" height="32" viewBox="0 0 32 32" fill="none" xmlns="http://www.w3.org/2000/svg">
<circle cx="16" cy="16" r="16" fill="#FFF3DD"/>
<g clip-path="url(#clip0_5270_8581)">
<path fill-rule="evenodd" clip-rule="evenodd" d="M8 16.0002C8 11.589 11.5891 8 16 8C20.4109 8 24 11.589 24 16.0002C24 20.411 20.4109 24 16 24C11.5891 24 8 20.411 8 16.0002ZM19.618 13.3055C19.3047 12.9922 18.7957 12.9922 18.481 13.3052L14.7987 16.9889L13.5177 15.7076C13.2044 15.3943 12.6952 15.3943 12.3819 15.7075C12.0671 16.0223 12.0671 16.5318 12.3822 16.8451L14.2302 18.6946C14.384 18.8471 14.5873 18.9295 14.7987 18.9295C15.0091 18.9295 15.2136 18.8468 15.3669 18.6952L19.618 14.4427C19.9327 14.128 19.9327 13.6202 19.618 13.3055Z" fill="#FDAA29"/>
</g>
<defs>
<clipPath id="clip0_5270_8581">
<rect width="16" height="16" fill="white" transform="translate(8 8)"/>
</clipPath>
</defs>
</svg>
