<svg width="28" height="28" viewBox="0 0 28 28" fill="none" xmlns="http://www.w3.org/2000/svg">
<rect x="1" y="1" width="26" height="26" rx="13" fill="white" stroke="#FFF3DD" stroke-width="2"/>
<path d="M14.0012 14.6114C13.8391 14.6114 13.6837 14.6758 13.5691 14.7904C13.4545 14.905 13.3901 15.0604 13.3901 15.2225V17.0558C13.3901 17.2179 13.4545 17.3733 13.5691 17.4879C13.6837 17.6026 13.8391 17.6669 14.0012 17.6669C14.1633 17.6669 14.3187 17.6026 14.4333 17.4879C14.5479 17.3733 14.6123 17.2179 14.6123 17.0558V15.2225C14.6123 15.0604 14.5479 14.905 14.4333 14.7904C14.3187 14.6758 14.1633 14.6114 14.0012 14.6114ZM17.0567 12.1669V10.9447C17.0567 10.1343 16.7348 9.35714 16.1618 8.78411C15.5888 8.21108 14.8116 7.88916 14.0012 7.88916C13.1908 7.88916 12.4136 8.21108 11.8406 8.78411C11.2676 9.35714 10.9456 10.1343 10.9456 10.9447V12.1669C10.4594 12.1669 9.99309 12.3601 9.64928 12.7039C9.30546 13.0477 9.1123 13.514 9.1123 14.0003V18.278C9.1123 18.7643 9.30546 19.2306 9.64928 19.5744C9.99309 19.9182 10.4594 20.1114 10.9456 20.1114H17.0567C17.543 20.1114 18.0093 19.9182 18.3531 19.5744C18.6969 19.2306 18.8901 18.7643 18.8901 18.278V14.0003C18.8901 13.514 18.6969 13.0477 18.3531 12.7039C18.0093 12.3601 17.543 12.1669 17.0567 12.1669ZM12.1679 10.9447C12.1679 10.4585 12.361 9.99217 12.7048 9.64835C13.0486 9.30454 13.515 9.11138 14.0012 9.11138C14.4874 9.11138 14.9537 9.30454 15.2976 9.64835C15.6414 9.99217 15.8345 10.4585 15.8345 10.9447V12.1669H12.1679V10.9447ZM17.6679 18.278C17.6679 18.4401 17.6035 18.5956 17.4889 18.7102C17.3743 18.8248 17.2188 18.8892 17.0567 18.8892H10.9456C10.7836 18.8892 10.6281 18.8248 10.5135 18.7102C10.3989 18.5956 10.3345 18.4401 10.3345 18.278V14.0003C10.3345 13.8382 10.3989 13.6828 10.5135 13.5682C10.6281 13.4535 10.7836 13.3892 10.9456 13.3892H17.0567C17.2188 13.3892 17.3743 13.4535 17.4889 13.5682C17.6035 13.6828 17.6679 13.8382 17.6679 14.0003V18.278Z" fill="#FDAA29"/>
</svg>
