<svg width="42" height="42" viewBox="0 0 42 42" fill="none" xmlns="http://www.w3.org/2000/svg">
<circle cx="32.7459" cy="9.80714" r="7.81444" transform="rotate(-180 32.7459 9.80714)" fill="#F05537"/>
<path d="M33.0258 9.11719C30.0198 10.8051 28.0086 11.6139 24.2859 12.9976L29.4356 17.5307L31.7384 12.236L33.0258 9.11719Z" fill="white"/>
<path d="M9.83946 37.9496C9.86701 37.8621 9.92788 37.7889 10.0089 37.7459C10.0899 37.7029 10.1847 37.6934 10.2726 37.7196C11.1747 38.0004 9.54673 38.8936 9.83946 37.9496Z" stroke="#121224" stroke-miterlimit="10"/>
<path d="M7.88005 39.9002C7.89334 39.857 7.91502 39.8169 7.94384 39.7821C7.97267 39.7473 8.00807 39.7185 8.04803 39.6974C8.08798 39.6763 8.1317 39.6633 8.17669 39.6592C8.22168 39.655 8.26704 39.6598 8.31019 39.6732C9.2123 39.9629 7.58731 40.859 7.88005 39.9002Z" stroke="#121224" stroke-miterlimit="10"/>
<path d="M4.05388 40.5603C4.06717 40.5172 4.08885 40.477 4.11767 40.4422C4.1465 40.4074 4.1819 40.3787 4.22185 40.3576C4.26181 40.3365 4.30553 40.3235 4.35052 40.3193C4.39551 40.3152 4.44087 40.3199 4.48402 40.3333C5.38613 40.6171 3.76114 41.5132 4.05388 40.5603Z" stroke="#121224" stroke-miterlimit="10"/>
<path d="M1.34728 20.2478C2.67953 19.743 4.01476 19.3039 5.35 18.8648L9.36168 17.5594C10.3355 17.2607 11.3063 16.9172 12.2831 16.6155C15.7302 15.5551 19.1863 14.4827 22.5886 13.3237C24.106 12.8099 25.6175 12.2663 27.0991 11.6987C28.052 11.3343 28.9959 10.946 29.9309 10.5457C30.8643 10.1513 31.7766 9.70861 32.6641 9.21944C33.1809 8.88489 33.1689 8.97749 32.7806 9.37178C32.0903 9.97698 31.3078 10.4681 30.4626 10.8265C28.5508 11.6987 26.6003 12.4425 24.6377 13.1654C22.6752 13.8883 20.6798 14.5723 18.6874 15.2056C16.2977 15.9822 13.8244 16.8395 11.384 17.6461C8.69556 18.5422 6.00716 19.3786 3.33669 20.3076L2.11198 20.7467L1.51456 20.9797L1.23676 21.0932C1.18598 21.1141 1.13818 21.132 1.09039 21.1559L0.944021 21.2216C0.917137 21.2724 0.976879 21.3172 1.00675 21.356C1.04339 21.3951 1.08229 21.432 1.12325 21.4666L1.18896 21.5203L1.30845 21.6159C1.643 21.8728 1.99847 22.1118 2.35991 22.3418C2.90954 22.6913 3.48007 22.999 4.06256 23.3036L5.80105 24.2565L9.26908 26.1414L9.44234 26.231L9.67533 26.3624C9.69325 26.3624 9.72312 26.3804 9.72611 26.4043L9.74403 26.467L9.78286 26.5984C9.79469 26.6416 9.80367 26.6855 9.80975 26.7298L9.83066 26.8314L9.96806 27.5812L10.2339 29.0747C10.4131 30.0605 10.5924 31.0432 10.7686 32.032L11.0106 33.3284C11.2884 34.9533 11.3511 35.4641 11.3093 35.8375C11.3089 35.9225 11.3029 36.0073 11.2914 36.0914C11.2675 36.184 11.1838 36.0914 11.0434 35.7927C10.8595 35.3625 10.7077 34.9192 10.5894 34.4664C10.3444 33.5942 10.1473 32.6981 9.96209 31.796C9.77689 30.8939 9.60364 29.9768 9.44532 29.0538L9.20635 27.6678L9.08388 26.9808L9.06596 26.8912L8.95245 26.8314L6.45224 25.4872L2.71239 23.45C2.07614 23.0913 1.46353 22.6922 0.878304 22.2552L0.764794 22.1685L0.612452 22.0401C0.481593 21.9349 0.35878 21.8201 0.245038 21.6966C0.147337 21.5919 0.0730067 21.4677 0.0269795 21.3322C0.0080315 21.2713 -0.00104474 21.2077 9.55058e-05 21.144C9.55058e-05 21.0842 9.54546e-05 21.0006 0.0538633 20.9647L0.352574 20.7078L0.501929 20.5794C0.57386 20.5372 0.648731 20.5003 0.725962 20.4689L1.08441 20.3225L1.33533 20.2209L1.34728 20.2478Z" fill="#121224"/>
<path d="M18.087 31.1658C18.544 31.4137 18.9831 31.6736 19.4432 31.9335C19.6074 32.0291 19.7807 32.1067 19.936 32.2113L21.6028 33.3195C21.8478 33.4808 22.1017 33.6182 22.3526 33.7795C22.686 33.9457 23.0013 34.1459 23.2935 34.3769C23.3802 34.4636 23.3324 34.5144 23.1979 34.5442C23.0163 34.5944 22.8225 34.5753 22.6543 34.4905C21.9792 34.1499 21.3101 33.7945 20.6798 33.3912C20.2796 33.1504 19.8667 32.931 19.4432 32.734C18.9891 32.4891 18.547 32.2382 18.084 32.0022C17.8032 31.8588 17.5224 31.7035 17.2357 31.581C16.8011 31.3645 16.3554 31.171 15.9004 31.0015C15.5539 30.8671 15.1925 30.8133 14.846 30.7028C14.7682 30.6865 14.6914 30.6655 14.616 30.6401C14.3412 30.5266 14.2725 30.422 14.2486 30.2697C14.2409 30.2353 14.2359 30.2003 14.2336 30.1651C14.2336 30.0606 14.377 30.0008 14.619 29.9829C15.3249 30.0063 16.0184 30.1751 16.6562 30.4788C17.1461 30.6759 17.621 30.9149 18.087 31.1539V31.1658Z" fill="#121224"/>
<path d="M17.3942 20.5883L20.7218 18.345L21.9166 17.5146L26.2061 14.65C26.8394 14.2258 27.4697 13.7867 28.088 13.3506C28.8856 12.792 29.6712 12.2125 30.5135 11.7226C30.5606 11.6935 30.6107 11.6695 30.6629 11.6509C30.6629 11.6688 30.63 11.5822 30.7704 11.8003C30.7667 11.8019 30.7626 11.8028 30.7585 11.8028C30.7544 11.8028 30.7503 11.8019 30.7465 11.8003C30.7435 11.7905 30.7435 11.7801 30.7465 11.7704C30.7465 11.7913 30.7047 11.7465 30.7226 11.7375V11.7644C30.6967 11.813 30.6678 11.8599 30.636 11.9048C30.3794 12.2616 30.0655 12.5735 29.707 12.8278C28.091 13.9749 26.457 15.0921 24.7813 16.1913C23.7776 16.8425 22.771 17.5594 21.7583 18.2644L18.4187 20.5465L16.3666 21.9505C15.3331 22.6644 14.2756 23.3723 13.2779 24.0952C12.4893 24.6568 11.7366 25.2393 10.9659 25.8098L10.4641 26.1832C9.82484 26.6462 9.60081 26.7597 9.37379 26.7358C9.32343 26.7365 9.27321 26.7305 9.22444 26.7179C9.09599 26.6701 9.3021 26.4192 9.75017 26.0398C11.0824 24.9555 12.5551 23.91 14.0426 22.8735L17.3762 20.5794L17.3942 20.5883Z" fill="#121224"/>
<path d="M19.7478 21.9743L22.3585 19.7728L23.2965 18.9543L26.654 16.1166C27.1469 15.6954 27.6278 15.2533 28.1027 14.8202C28.7001 14.2556 29.2976 13.6701 29.9547 13.1653C30.1668 13.013 30.1937 13.0906 30.1071 13.3177C29.9667 13.6712 29.7529 13.9909 29.4798 14.2556C28.267 15.4505 27.0005 16.5646 25.6862 17.6549C24.8976 18.3031 24.1179 19.026 23.3293 19.7071L20.7126 21.9504L19.1056 23.3275C18.2901 24.0264 17.4806 24.7284 16.695 25.4364C16.0976 25.992 15.5151 26.5655 14.9296 27.133L14.5502 27.5094C14.0663 27.9694 13.8901 28.0889 13.669 28.068C13.6188 28.067 13.5687 28.061 13.5197 28.0501C13.3823 28.0053 13.5197 27.7514 13.8363 27.366C14.8706 26.2547 15.9677 25.2035 17.1221 24.2176C17.9824 23.4619 18.8606 22.7241 19.7329 21.9653L19.7478 21.9743Z" fill="#121224"/>
<path d="M26.8322 26.3929C26.5023 27.5544 26.1845 28.7222 25.9156 29.8963C25.772 30.4849 25.6345 31.0704 25.5215 31.6622L25.4298 32.1021L25.3596 32.5451L25.2862 32.985C25.2664 33.0969 25.2541 33.21 25.2496 33.3236L25.216 33.7255L25.1976 33.7604L25.0326 34.0768L25.0113 34.118V34.137C24.9776 34.0673 25.0846 34.2952 24.9379 33.9819H24.8829L24.7485 34.023C24.6538 34.1211 24.4766 33.9692 24.3238 33.8616L23.9144 33.5768L22.842 32.8394C21.5496 32.0008 20.2816 31.1621 18.9617 30.3805C17.6651 29.5892 16.3031 28.9188 14.892 28.3772C14.7362 28.3234 14.5864 28.2696 14.4215 28.2221L14.1709 28.1652L14.0273 28.1272C13.9907 28.1272 13.9387 28.0956 13.9173 28.1272L13.8898 28.2506L13.7921 28.6874C13.6373 29.3562 13.4763 30.026 13.3093 30.6969C13.0893 31.5577 12.8632 32.4217 12.6066 33.2793C12.3617 34.1494 12.0458 34.9964 11.6625 35.8111C11.3753 36.3206 11.3142 36.156 11.4028 35.6908C11.5303 34.9183 11.7017 34.1543 11.9161 33.4028C12.4233 31.6812 12.8755 29.9216 13.2818 28.1715L13.4285 27.5386L13.4651 27.3772C13.4651 27.3392 13.5018 27.3772 13.5232 27.3772L13.6026 27.3962L13.9082 27.4626L14.2137 27.5354L14.4092 27.5892L14.7362 27.6873C15.1731 27.8266 15.5947 28.0038 16.0102 28.1683C16.8428 28.5185 17.6567 28.9147 18.4484 29.3551C20.3183 30.4216 22.2187 31.5925 24.0183 32.8363L24.3544 33.0736L24.4674 33.1559C24.5037 33.1859 24.5425 33.2124 24.5835 33.235V33.0894V32.9692L24.6385 32.6211C24.6782 32.3806 24.7118 32.1432 24.7577 31.9058C24.8554 31.4375 24.941 30.9564 25.0632 30.5007L25.3932 29.1146L25.7476 27.7284C26.1478 26.2664 26.5664 24.8169 27.0033 23.3707C27.6847 21.1775 28.4332 19.0002 29.2307 16.8672C29.8417 15.2152 30.4528 13.5823 31.2014 11.9967C31.3602 11.6455 31.5069 11.3005 31.7086 10.9619L32.1424 10.1612C32.2538 9.98183 32.3741 9.80859 32.5029 9.64221C32.6315 9.44945 32.7894 9.27952 32.9704 9.13902C33.027 9.09362 33.0873 9.05339 33.1507 9.01876C33.3034 8.9618 33.059 9.4998 32.5793 10.4144L32.0844 11.4651C31.9133 11.8164 31.7788 12.1898 31.6169 12.5506C31.29 13.269 31.0058 14.0221 30.7003 14.7659C30.1228 16.2754 29.5545 17.8135 29.0351 19.3736C28.6379 20.5288 28.2682 21.6965 27.9047 22.8548C27.5411 24.0131 27.1836 25.1999 26.8506 26.3803L26.8322 26.3929Z" fill="#121224"/>
<path d="M14.3383 33.4149C14.1233 33.6509 13.9052 33.8869 13.6842 34.1169C13.6035 34.2005 13.5318 34.2931 13.4512 34.3738C13.1524 34.6725 12.8537 34.9443 12.555 35.2221L12.1607 35.6045C11.9967 35.7725 11.812 35.919 11.6111 36.0406C11.4827 36.1153 11.4588 35.7777 11.6111 35.5895C11.9266 35.245 12.2618 34.9188 12.6148 34.6128C12.8195 34.4166 13.012 34.2081 13.1913 33.9885L13.8245 33.2775C13.953 33.1312 14.0844 32.9788 14.2099 32.8354C14.3981 32.6084 14.5922 32.3814 14.7655 32.1424C14.9029 31.9602 15.0074 31.7571 15.1359 31.5719C15.1628 31.5331 15.1867 31.4883 15.2165 31.4494C15.3271 31.3001 15.3868 31.2702 15.5003 31.3031C15.5267 31.3092 15.5527 31.3172 15.578 31.3269C15.6556 31.3598 15.6706 31.4644 15.6168 31.5958C15.4529 31.9909 15.2326 32.3602 14.9626 32.6921C14.7655 32.946 14.5564 33.1879 14.3473 33.4329L14.3383 33.4149Z" fill="#121224"/>
<path d="M3.56063 24.5432C3.94 24.7911 4.33429 25.0211 4.73158 25.2422C4.87795 25.3228 5.03029 25.3796 5.18263 25.4602C5.7004 25.743 6.22413 26.0168 6.75385 26.2817C6.98983 26.4012 7.23178 26.4908 7.48569 26.5804C7.66123 26.6469 7.82623 26.7385 7.97557 26.8522C8.13301 26.9735 8.25563 27.1343 8.33104 27.3182C8.37286 27.4347 8.25337 27.4735 8.09804 27.4765C7.93701 27.4868 7.77539 27.4696 7.62011 27.4257C7.4952 27.3757 7.36755 27.3328 7.23776 27.2973L6.76878 27.1181C6.44652 26.9845 6.1358 26.8247 5.83979 26.6401C5.47835 26.4161 5.06613 26.2727 4.68677 26.0756C4.30741 25.8784 3.85337 25.6245 3.44712 25.3826C3.19621 25.2332 2.94828 25.0838 2.70333 24.9255C2.32696 24.6925 1.96851 24.4267 1.61005 24.1698C1.47563 24.0652 1.32628 23.9786 1.18588 23.8711C1.04624 23.7662 0.912601 23.6535 0.785613 23.5335C0.731845 23.4798 0.672103 23.429 0.618335 23.3722C0.430147 23.1422 0.421186 23.0257 0.516773 22.8883C0.537978 22.8562 0.560913 22.8253 0.585477 22.7957C0.67509 22.7091 0.827432 22.736 0.976787 22.8435C1.20381 23.0048 1.45174 23.1422 1.69967 23.3005C1.9476 23.4589 2.18059 23.6261 2.43151 23.7874C2.80191 24.0324 3.1753 24.2893 3.56959 24.5163L3.56063 24.5432Z" fill="#121224"/>
<path d="M11.8413 24.8181C13.0003 23.9698 14.1772 23.1633 15.3542 22.3567L16.6326 21.4606L21.2029 18.4078C21.875 17.9538 22.5411 17.4818 23.1953 17.0098C24.0347 16.4124 24.8561 15.7702 25.7373 15.2176C26.0181 15.0503 26.0361 15.1429 25.8837 15.3998C25.6385 15.8035 25.3181 16.1564 24.9398 16.4393C23.2551 17.7267 21.5136 18.9305 19.7273 20.0985C18.6579 20.8064 17.5825 21.5861 16.4982 22.3388C15.3183 23.1543 14.1384 23.9668 12.9794 24.8032C12.2685 25.32 11.5516 25.8427 10.8884 26.4073C10.766 26.5148 10.6465 26.6253 10.539 26.7388C10.4314 26.8523 10.3567 26.9181 10.3747 27.0196C10.3747 27.3183 10.4105 27.6678 10.4404 27.9964C10.5091 28.6565 10.5987 29.3167 10.6943 29.9709C10.8466 30.9925 11.0497 31.9842 11.2021 32.9968C11.2379 33.2208 11.2768 33.4389 11.3037 33.6659C11.4052 34.5083 11.3664 34.7951 11.1901 34.9803C11.1549 35.0253 11.1149 35.0664 11.0707 35.1027C10.9273 35.1774 10.8197 34.8548 10.7212 34.2574C10.4225 32.4651 10.07 30.5892 9.82504 28.6595C9.78322 28.2981 9.7414 27.9396 9.71451 27.5692L9.6936 27.2885V26.9658C9.70037 26.7892 9.76197 26.619 9.86984 26.4789C9.93888 26.3895 10.0137 26.3047 10.0939 26.225C10.6365 25.7197 11.2101 25.2488 11.8115 24.8151L11.8413 24.8181Z" fill="#121224"/>
</svg>
