<svg width="12" height="14" viewBox="0 0 12 14" fill="none" xmlns="http://www.w3.org/2000/svg">
<path d="M10.3749 3.81245L9.53553 4.65181M6 5.6874V8.18734M4.12505 1.31252H7.87495M9.53553 4.65181C8.59785 3.71412 7.32608 3.18734 6 3.18734C4.67392 3.18734 3.40215 3.71412 2.46447 4.65181C1.52678 5.58949 1 6.86126 1 8.18734C1 9.51342 1.52678 10.7852 2.46447 11.7229C3.40215 12.6606 4.67392 13.1873 6 13.1873C7.32608 13.1873 8.59785 12.6606 9.53553 11.7229C10.4732 10.7852 11 9.51342 11 8.18734C11 6.86126 10.4732 5.58949 9.53553 4.65181V4.65181Z" stroke="#979EC2" stroke-width="1.3333" stroke-linecap="round" stroke-linejoin="round"/>
</svg>
