<svg xmlns="http://www.w3.org/2000/svg" width="84" height="84" fill="none" xmlns:v="https://vecta.io/nano"><path d="M40.492 42.297a14.53 14.53 0 0 0 9.853 5.099c3.834.332 7.643-.866 10.59-3.329a14.42 14.42 0 0 0 5.123-9.807c.333-3.816-.87-7.607-3.345-10.54l-11.11 9.289-11.11 9.289z" fill="#f05537"/><g fill="#121224"><path d="M36.332 39.375c-.86-.361-1.516-2.625-2.297-1.457-1.312 1.969-4.594 6.359-7.809 10.231-7.763 9.411-9.535 14.654-8.958 15.671s-1.969-3.13-1.969-3.13l19.884-25.994 1.148 4.679z"/><path d="M17.404 64.66a11.02 11.02 0 0 1-.742-1.175c-.079-.151-.184-.282-.256-.44a6.07 6.07 0 0 1-.446-1.752c0-.138 0-.276-.033-.407v-.42a1.37 1.37 0 0 1 .361-1.03c.085-.085.295.092.486.295s.381.413.348.512a4.46 4.46 0 0 0-.059 1.444c.07.346.208.674.407.965a7.26 7.26 0 0 0 .656 1.011c.147.201.307.391.479.571.254.278.541.525.853.735.263.131.532.23.781.328l.171.066c.197.079.23.204.21.459v.171c-.018.094-.069.179-.143.241a.41.41 0 0 1-.264.094 3.17 3.17 0 0 1-.991-.105 3.04 3.04 0 0 1-.847-.531 8.06 8.06 0 0 1-.997-1.011l.026-.02zm24.421-33.967c-2.533-1.739-2.087-5.742-2.382-6.005s-.906.551-1.641 1.667c-.665 1.069-1.196 2.215-1.582 3.413 0 0-.492-5.657 3.524-7.501l2.625-1.168-.545 9.594zM30.897 44.455a5.98 5.98 0 0 0 .545.984 4.11 4.11 0 0 0 .256.335 12.16 12.16 0 0 0 .958 1.162 6.37 6.37 0 0 0 .492.453 4.95 4.95 0 0 1 .656.597c.066.072 0 .131-.112.157-.152.036-.311.02-.453-.046a4.52 4.52 0 0 1-1.418-1.148c-.23-.289-.512-.551-.755-.847-.248-.333-.467-.687-.656-1.056-.124-.227-.229-.465-.315-.709-.072-.19-.118-.381-.171-.571s-.085-.387-.112-.578l-.066-.453c-.02-.151 0-.302 0-.459a.65.65 0 0 1 0-.197c.053-.249.118-.315.263-.335h.105c.105 0 .177.118.21.289a11 11 0 0 0 .249 1.418 5 5 0 0 0 .387 1.011l-.066-.006zm10.573.918l-1.057-.847-1.017-.892-.742-.656a20.91 20.91 0 0 1-2.166-2.75l-.827-1.312-.466-.886a3.43 3.43 0 0 1-.171-1.004c0-.21.151-.23.42-.138a2.75 2.75 0 0 1 .459.19 1.84 1.84 0 0 1 .249.138l.118.079c0 .033.046.066.066.105l1.969 3.098a10.15 10.15 0 0 0 1.588 1.687l.945.873.991.833 1.28.965a20.34 20.34 0 0 0 2.074 1.267 16.85 16.85 0 0 0 1.726.656l.381.131c.453.21.564.354.558.656a1.26 1.26 0 0 1 0 .223c-.033.23-.295.341-.702.295-1.195-.202-2.34-.632-3.373-1.267a25.66 25.66 0 0 1-2.297-1.47l-.007.026z"/><path d="M36.92 25.161a16.99 16.99 0 0 1 3.57-4.128 17.4 17.4 0 0 1 1.542-1.234c.975-.629 2.019-1.144 3.111-1.536 1.082-.399 2.204-.679 3.347-.833 1.01-.152 2.031-.216 3.052-.19a7.8 7.8 0 0 1 1.969.282 5.56 5.56 0 0 1 .919.361c.302.131.571.335.86.479s.144.486-.289.696a5.64 5.64 0 0 1-.781.269 2.37 2.37 0 0 1-.945.158c-.571 0-1.109-.039-1.66-.059h-.82-.834a18.01 18.01 0 0 0-3.373.531c-1.37.434-2.647 1.12-3.767 2.021a14.66 14.66 0 0 0-3.373 3.367c-.582.801-1.069 1.666-1.45 2.579a11.86 11.86 0 0 0-.971 4.377 14.7 14.7 0 0 0 .538 3.393l.21.715c.243.906.098 1.273-.23 1.614-.079.079-.144.171-.217.23-.223.19-.656-.079-1.155-.735a10.79 10.79 0 0 1-1.155-7.127c.286-1.854.925-3.637 1.883-5.25l.02.02z"/><path d="M64.313 29.571c-.592-2.185-1.688-4.2-3.199-5.886s-3.396-2.994-5.503-3.82a13.72 13.72 0 0 0-4.843-.932c-2.961-.071-5.884.679-8.446 2.166-2.588 1.459-4.541 3.829-5.48 6.648a12.6 12.6 0 0 0 .236 7.744 18.01 18.01 0 0 0 2.297 4.541c.973 1.388 2.105 2.656 3.373 3.78.787.702.551.827-.367.486-1.509-.618-2.819-1.64-3.787-2.953-1.119-1.49-2.017-3.135-2.664-4.882-.66-1.771-.987-3.649-.965-5.539.024-.953.147-1.901.367-2.828.718-2.804 2.376-5.276 4.699-7.002a17.49 17.49 0 0 1 12.836-3.439c4.046.62 7.697 2.775 10.195 6.018s3.651 7.322 3.219 11.393c-.261 2.296-.954 4.523-2.041 6.563a13.5 13.5 0 0 1-4.594 5.158c-.775.488-1.615.866-2.494 1.122a17.79 17.79 0 0 1-2.625.499c-1.772.194-3.563.109-5.309-.249a16.3 16.3 0 0 1-2.264-.617c-2.737-1.109-3.353-1.969-3.655-2.566a2.79 2.79 0 0 1-.19-.427c-.072-.348.991.144 2.822.879 2.737 1.137 5.715 1.572 8.662 1.267.738-.087 1.468-.228 2.185-.42a7.55 7.55 0 0 0 1.903-.84c1.232-.778 2.292-1.798 3.117-2.999 1.284-1.857 2.178-3.956 2.625-6.169a14.55 14.55 0 0 0-.184-6.681l.072-.013z"/><path d="M23.015 66.367c-.47.239-.959.436-1.463.591a5.53 5.53 0 0 1-.82.19 3.28 3.28 0 0 1-.584.053l-.322-.079-.223-.053c-1.024-.348-1.964-.905-2.763-1.634a8.19 8.19 0 0 1-1.969-2.474 4.5 4.5 0 0 1-.348-.906l-.144-.604.308-.538.807-1.312 1.149-1.746 1.181-1.706c2.868-3.937 5.906-7.724 8.833-11.557l3.872-5.132 2.402-3.327c.788-1.109 1.595-2.218 2.29-3.34.42-.696.656-.532.518.249a9.15 9.15 0 0 1-1.457 3.426c-1.549 2.356-3.176 4.633-4.837 6.897s-3.413 4.443-5.165 6.648c-2.093 2.625-4.115 5.499-6.051 8.321-.538.774-1.05 1.562-1.555 2.349l-.591.965v.125a.74.74 0 0 0 .059.171c.074.19.162.374.262.551a7.02 7.02 0 0 0 1.7 1.969c.333.278.694.522 1.076.729a5 5 0 0 0 .571.276l.289.098.217.059h.098.177l.374-.085a8.66 8.66 0 0 0 .761-.256 12.12 12.12 0 0 0 1.477-.761c.971-.577 1.903-1.267 2.881-1.969l8.938-5.709 6.746-4.495 1.477-.984c1.877-1.234 2.54-1.49 3.111-1.49.129-.011.258-.011.387 0 .308.098-.335.781-1.634 1.759-3.892 2.861-8.046 5.782-12.344 8.531l-4.784 3.065c-1.588.965-3.032 2.212-4.882 3.163l-.026-.026zm.053 4.462c3.399-1.129 6.897-2.277 10.631-2.559.656-.053 1.352-.085 2.047-.079a8.15 8.15 0 0 1 2.159.276 3.39 3.39 0 0 1 1.024.492 2.02 2.02 0 0 1 .807 1.168 1.92 1.92 0 0 1 0 .722 2.21 2.21 0 0 1-.151.597 4.6 4.6 0 0 1-.492.925 5.56 5.56 0 0 1-1.418 1.385 17.39 17.39 0 0 1-1.575.919l-3.058 1.601-1.509.794c-.121.055-.228.136-.315.236-.048.048-.08.109-.094.176s-.009.135.015.199a.56.56 0 0 0 .256.236 2.91 2.91 0 0 0 .459.184 9.69 9.69 0 0 0 1.417.302 14.21 14.21 0 0 0 2.92.138 22.65 22.65 0 0 0 3.721-.748l1.857-.525c.617-.19 1.26-.302 1.883-.466.788-.19.774.059.23.591-.368.35-.766.668-1.188.952a7.58 7.58 0 0 1-1.897.853 24.53 24.53 0 0 1-4.049.906 11.04 11.04 0 0 1-2.179.052 19.48 19.48 0 0 1-2.1-.243c-.365-.065-.727-.15-1.083-.256l-.282-.092-.394-.157a3.24 3.24 0 0 1-.781-.499 1.66 1.66 0 0 1-.564-1.542 1.91 1.91 0 0 1 .341-.787 2.29 2.29 0 0 1 .656-.656 4 4 0 0 1 .4-.236l.249-.125.446-.223.899-.446 1.765-.879c1.437-.722 2.999-1.312 3.688-2.487a2.23 2.23 0 0 0 .361-.827.36.36 0 0 0-.151-.381 2.28 2.28 0 0 0-.814-.322 6.99 6.99 0 0 0-1.096-.157c-3.432-.197-6.943.656-10.343 1.746-2.107.656-4.2 1.404-6.326 2.087a39.9 39.9 0 0 1-4.955 1.234c-.844.156-1.697.266-2.553.328-.877.074-1.761.025-2.625-.144a3.86 3.86 0 0 1-1.037-.394 2.25 2.25 0 0 1-.866-.853c-.204-.362-.311-.772-.308-1.188.016-.383.089-.761.217-1.122a9.3 9.3 0 0 1 2.363-3.321c.414-.413.852-.801 1.313-1.162 1.739-1.312 2.54-1.503 3.124-1.312a.82.82 0 0 1 .354.19c.046.066 0 .131 0 .203a1.39 1.39 0 0 1-.262.256L12.893 67.4c-.865.684-1.666 1.444-2.395 2.271-.364.413-.697.851-.998 1.313a5 5 0 0 0-.656 1.313c-.062.132-.094.277-.094.423s.032.291.094.423c.205.25.494.416.814.466a9.6 9.6 0 0 0 3.203.046 31.17 31.17 0 0 0 5.112-1.089c1.67-.505 3.386-1.129 5.093-1.713v-.02zM42.513 27.3a13.78 13.78 0 0 0 .722 3.117c.125.381.348.715.486 1.083a15.3 15.3 0 0 0 2.113 3.655 4.94 4.94 0 0 0 .656.656 5.68 5.68 0 0 0 .715.61l.479.361.499.328c.315.243.656.42.991.656.203.151.098.361-.21.499a1.72 1.72 0 0 1-1.312 0c-.425-.178-.832-.398-1.214-.656l-.558-.407-.512-.459a10.04 10.04 0 0 1-1.746-2.093l-.892-1.385a12.02 12.02 0 0 1-.794-1.457c-.508-1.102-.882-2.261-1.116-3.452-.082-.366-.141-.736-.177-1.109l-.072-.558v-.564a11 11 0 0 1 .367-3.412 8.53 8.53 0 0 1 1.056-2.546 5.36 5.36 0 0 1 .335-.479c.558-.571.892-.584 1.313-.216.1.078.194.164.282.256.12.158.185.35.185.548s-.065.39-.185.548a8.53 8.53 0 0 0-1.345 3.458c-.154 1.007-.154 2.032 0 3.038l-.066-.02zm11.458-3.248a.96.96 0 0 0-.629-.328.97.97 0 0 0-.684.191c-1.739 1.68 3.38 2.277 1.313.138zm5.316 1.699a.96.96 0 0 0-1.312-.138c-1.739 1.654 3.38 2.277 1.313.138zm-1.792 7.468a.96.96 0 0 0-1.312-.138c-1.713 1.647 3.38 2.271 1.313.138z"/><path d="M31.936 43.234c.093.528.27 1.038.525 1.509a3.59 3.59 0 0 0 .354.538 9.64 9.64 0 0 0 1.418 1.759 5.3 5.3 0 0 0 .807.656l1.076.729c.105.085.046.243-.138.367a.97.97 0 0 1-.369.169c-.134.03-.272.03-.405.002a4.87 4.87 0 0 1-2.468-1.601c-.19-.229-.391-.448-.604-.656l-.597-.709a6.63 6.63 0 0 1-.899-1.837c-.069-.201-.121-.407-.157-.617l-.072-.656a5.85 5.85 0 0 1 0-.958c0-.322.125-.623.164-.932s.118-.466.164-.702a2.89 2.89 0 0 1 .23-.656l.138-.282c.21-.335.367-.381.656-.295a1.55 1.55 0 0 1 .19.059.57.57 0 0 1 .219.259c.045.106.055.225.031.338a4.87 4.87 0 0 1-.105.564c-.046.185 0 .381-.066.551a6.91 6.91 0 0 0-.171 1.011v.742c0 .249.072.492.131.742l-.052-.092zm24.129-29.702c.151.085.059.269-.151.532a.86.86 0 0 1-.381.223 2.26 2.26 0 0 1-.335-.118 8.8 8.8 0 0 1-.801-1.043 3.14 3.14 0 0 1-.407-.794l-.571-1.68c-.033-.126-.051-.256-.052-.387-.002-.444-.066-.886-.19-1.313a.34.34 0 0 0-.092-.197c-.175-.448-.283-.919-.322-1.398 0-.387.072-.768.085-1.148v-.164a.38.38 0 0 0 .066-.361 3.94 3.94 0 0 1 0-.486 1.42 1.42 0 0 1 .112-.263c.039-.085.23-.092.256-.072s.151 0 .223-.046h.079a5.35 5.35 0 0 1 .656.925l.243.689c.138.341.23.709.263.774a.65.65 0 0 1 0 .249c0 .039.322 1.063.328 1.103a1.31 1.31 0 0 1 .039.656.21.21 0 0 0 0 .131 7.88 7.88 0 0 1 .184 1.102 3.66 3.66 0 0 0 .131.545.3.3 0 0 1 0 .112.46.46 0 0 0 0 .131 6.63 6.63 0 0 0 .466 1.234 4.79 4.79 0 0 0 .171.656c.033.092-.059.381 0 .407zm9.252.341c0 .151-.203.098-.532-.079a1.63 1.63 0 0 1-.394-.354 2.29 2.29 0 0 1-.079-.315c0-.059.243-.617.308-.814a1.77 1.77 0 0 1 .295-.505c.236-.308.453-.656.656-.958.051-.074.116-.139.19-.19.252-.176.456-.413.591-.689 0-.046.066-.079.046-.151a2.21 2.21 0 0 1 .538-.86 7.74 7.74 0 0 0 .696-.499c.033 0 .039-.066.112-.066s.19-.066.249-.131a1.4 1.4 0 0 1 .289-.217.79.79 0 0 1 .23-.053.36.36 0 0 1 .21.125c.007.026.112.085.177.125l.066.039a3.28 3.28 0 0 1 0 .879l-.203.486-.217.558c-.02.059-.072.092-.125.125s-.348.742-.374.768c-.105.125-.151.295-.354.348-.016.007-.029.017-.041.029s-.02.027-.025.043a4.23 4.23 0 0 1-.538.656l-.256.348s-.046.033-.072.046a.25.25 0 0 0-.079.066c-.222.26-.43.532-.624.814-.033.072-.4.256-.44.341s-.302.026-.302.085zm5.343 9.87c-.066.118-.21 0-.381-.308a1.4 1.4 0 0 1-.144-.459 1.95 1.95 0 0 1 .085-.276c0-.046.479-.387.656-.525a1.85 1.85 0 0 1 .472-.276l1.03-.466c.079-.035.163-.053.249-.052a2.1 2.1 0 0 0 .847-.249c.046 0 .092-.033.118-.105s.82-.367.945-.341c.289.039.564.039.84.066.039 0 .079 0 .125.033a.72.72 0 0 0 .269.092c.12.002.239.02.354.053.069.035.131.081.184.138.059.046.066.236.052.262s0 .151 0 .223c.003.028.003.057 0 .085a3.19 3.19 0 0 1-.256.302c-.081.115-.178.216-.289.302l-.413.19-.453.249c-.039.033-.098 0-.151 0s-.656.354-.656.354c-.138 0-.256.131-.44.052h-.085a3.47 3.47 0 0 1-.735.197 3.37 3.37 0 0 0-.367.138c-.026.003-.053.003-.079 0h-.092a8.96 8.96 0 0 0-.886.328c-.059.039-.446 0-.518.052s-.256-.105-.282-.059z"/></g></svg>