<svg width="14" height="14" viewBox="0 0 14 14" fill="none" xmlns="http://www.w3.org/2000/svg">
<path d="M11.9601 7.66662C11.8134 7.66662 11.6601 7.61995 11.5134 7.58662C11.2164 7.52117 10.9245 7.43428 10.6401 7.32662C10.3308 7.21411 9.99083 7.21995 9.68561 7.34302C9.38038 7.4661 9.13146 7.69771 8.98673 7.99329L8.84007 8.29329C8.19074 7.93207 7.59406 7.48344 7.06673 6.95995C6.54325 6.43263 6.09462 5.83595 5.7334 5.18662L6.0134 4.99995C6.30898 4.85523 6.54059 4.60631 6.66366 4.30108C6.78674 3.99585 6.79258 3.65589 6.68007 3.34662C6.57422 3.06157 6.48736 2.76982 6.42007 2.47329C6.38673 2.32662 6.36007 2.17329 6.34007 2.01995C6.25911 1.55037 6.01315 1.12511 5.64648 0.820779C5.27981 0.516444 4.81653 0.353025 4.34007 0.359953H2.34007C2.05275 0.357255 1.76823 0.416495 1.50587 0.53364C1.24351 0.650784 1.00947 0.823083 0.819687 1.03881C0.629901 1.25453 0.488824 1.50862 0.406059 1.78376C0.323295 2.05891 0.300787 2.34866 0.340067 2.63329C0.695226 5.42621 1.97075 8.02121 3.96517 10.0084C5.95958 11.9955 8.55921 13.2616 11.3534 13.6066H11.6067C12.0983 13.6073 12.573 13.427 12.9401 13.1C13.151 12.9113 13.3195 12.6801 13.4344 12.4215C13.5493 12.1629 13.608 11.8829 13.6067 11.6V9.59995C13.5986 9.13688 13.4299 8.69099 13.1296 8.3384C12.8293 7.98581 12.4159 7.74837 11.9601 7.66662ZM12.2934 11.6666C12.2933 11.7613 12.273 11.8548 12.2339 11.941C12.1948 12.0272 12.1378 12.1041 12.0667 12.1666C11.9925 12.2313 11.9054 12.2796 11.8112 12.3083C11.717 12.337 11.6178 12.3455 11.5201 12.3333C9.02333 12.0132 6.70423 10.8709 4.92854 9.08681C3.15286 7.30268 2.02167 4.97818 1.7134 2.47995C1.70279 2.3823 1.71209 2.28351 1.74074 2.18955C1.76938 2.09559 1.81678 2.00841 1.88007 1.93329C1.94254 1.86217 2.01944 1.80518 2.10565 1.7661C2.19186 1.72702 2.28541 1.70674 2.38007 1.70662H4.38007C4.5351 1.70317 4.68648 1.75387 4.80816 1.85C4.92984 1.94613 5.01421 2.08167 5.04673 2.23329C5.0734 2.41551 5.10673 2.59551 5.14673 2.77329C5.22375 3.12472 5.32624 3.47007 5.4534 3.80662L4.52007 4.23995C4.44027 4.27657 4.36848 4.32858 4.30884 4.39302C4.2492 4.45745 4.20287 4.53303 4.17251 4.61542C4.14216 4.6978 4.12838 4.78537 4.13197 4.8731C4.13555 4.96083 4.15643 5.04698 4.1934 5.12662C5.15287 7.18179 6.8049 8.83382 8.86007 9.79329C9.02238 9.85997 9.20443 9.85997 9.36673 9.79329C9.44988 9.76355 9.52628 9.71759 9.59151 9.65808C9.65675 9.59857 9.70951 9.52669 9.74673 9.44662L10.1601 8.51329C10.5047 8.63654 10.8565 8.73895 11.2134 8.81995C11.3912 8.85995 11.5712 8.89329 11.7534 8.91995C11.905 8.95248 12.0406 9.03684 12.1367 9.15852C12.2328 9.2802 12.2835 9.43159 12.2801 9.58662L12.2934 11.6666Z" fill="#8292B4"/>
</svg>
