<svg width="16" height="16" viewBox="0 0 16 16" fill="none" xmlns="http://www.w3.org/2000/svg">
<g clip-path="url(#clip0_4080_15088)">
<path d="M8.06951 7.68604L2.05542 13.8367L2.05636 13.8404C2.24088 14.5082 2.87379 15 3.62525 15C3.92546 15 4.2075 14.9217 4.44938 14.7845L4.4685 14.7734L11.2381 11.0098L8.06951 7.68604Z" fill="#EA4335"/>
<path d="M14.154 6.63885L14.1482 6.63517L11.2257 5.00244L7.93311 7.82585L11.2373 11.0091L14.1444 9.39281C14.654 9.12754 15.0001 8.60991 15.0001 8.01307C15.0001 7.41991 14.6588 6.90504 14.154 6.63885Z" fill="#FBBC04"/>
<path d="M2.05508 2.16309C2.01902 2.29157 2 2.42644 2 2.56589V13.4343C2 13.5739 2.01888 13.7089 2.05547 13.8367L8.27639 7.84359L2.05508 2.16309Z" fill="#4285F4"/>
<path d="M8.11403 8L11.2266 5.0014L4.46483 1.22381C4.21912 1.08197 3.9323 1 3.6254 1C2.87394 1 2.24007 1.49276 2.05555 2.16145L2.05518 2.163L8.11403 8Z" fill="#34A853"/>
</g>
<defs>
<clipPath id="clip0_4080_15088">
<rect width="13" height="14" fill="white" transform="translate(2 1)"/>
</clipPath>
</defs>
</svg>
