<svg width="10" height="10" viewBox="0 0 10 10" fill="none" xmlns="http://www.w3.org/2000/svg">
<path d="M8.5 4.5H5.5V1.5C5.5 1.36739 5.44732 1.24021 5.35355 1.14645C5.25979 1.05268 5.13261 1 5 1C4.86739 1 4.74021 1.05268 4.64645 1.14645C4.55268 1.24021 4.5 1.36739 4.5 1.5V4.5H1.5C1.36739 4.5 1.24021 4.55268 1.14645 4.64645C1.05268 4.74021 1 4.86739 1 5C1 5.13261 1.05268 5.25979 1.14645 5.35355C1.24021 5.44732 1.36739 5.5 1.5 5.5H4.5V8.5C4.5 8.63261 4.55268 8.75979 4.64645 8.85355C4.74021 8.94732 4.86739 9 5 9C5.13261 9 5.25979 8.94732 5.35355 8.85355C5.44732 8.75979 5.5 8.63261 5.5 8.5V5.5H8.5C8.63261 5.5 8.75979 5.44732 8.85355 5.35355C8.94732 5.25979 9 5.13261 9 5C9 4.86739 8.94732 4.74021 8.85355 4.64645C8.75979 4.55268 8.63261 4.5 8.5 4.5Z" fill="#8292B4" stroke="#8292B4" stroke-width="0.7"/>
</svg>
