<svg width="32" height="32" viewBox="0 0 32 32" fill="none" xmlns="http://www.w3.org/2000/svg">
<circle cx="16" cy="16" r="16" fill="#F7F7F9"/>
<path d="M9.62112 8.46191C9.27808 8.46191 9 8.74965 9 9.10458C9 9.45951 9.27808 9.74725 9.62112 9.74725V8.46191ZM22.3584 9.74725C22.7015 9.74725 22.9795 9.45951 22.9795 9.10458C22.9795 8.74965 22.7015 8.46191 22.3584 8.46191V9.74725ZM22.3584 23.5035C22.7015 23.5035 22.9795 23.2158 22.9795 22.8609C22.9795 22.5059 22.7015 22.2182 22.3584 22.2182V23.5035ZM9.62112 22.2182C9.27808 22.2182 9 22.5059 9 22.8609C9 23.2158 9.27808 23.5035 9.62112 23.5035V22.2182ZM15.9879 15.9827L16.258 16.5614L17.4163 15.9827L16.258 15.404L15.9879 15.9827ZM15.9917 15.9827L15.7216 15.404L14.5633 15.9827L15.7216 16.5614L15.9917 15.9827ZM19.9952 11.3027L19.4051 11.1023L19.9952 11.3027ZM11.9843 11.3027L11.3942 11.5031L11.9843 11.3027ZM15.9109 15.9443L15.6408 16.523L15.9109 15.9443ZM9.62112 9.74725H22.3584V8.46191H9.62112V9.74725ZM22.3584 22.2182H9.62112V23.5035H22.3584V22.2182ZM10.7232 9.3874L11.3942 11.5031L12.5745 11.1023L11.9035 8.98665L10.7232 9.3874ZM15.6408 16.523L15.7178 16.5614L16.258 15.404L16.181 15.3656L15.6408 16.523ZM20.076 8.98665L19.4051 11.1023L20.5854 11.5031L21.2564 9.3874L20.076 8.98665ZM15.7985 15.3656L15.7216 15.404L16.2617 16.5614L16.3387 16.523L15.7985 15.3656ZM21.2564 22.578L20.5854 20.4624L19.4051 20.8631L20.076 22.9788L21.2564 22.578ZM16.3387 15.4424L16.2617 15.404L15.7216 16.5614L15.7985 16.5999L16.3387 15.4424ZM11.9035 22.9788L12.5745 20.8631L11.3942 20.4624L10.7232 22.578L11.9035 22.9788ZM16.181 16.5999L16.258 16.5614L15.7178 15.404L15.6408 15.4424L16.181 16.5999ZM20.5854 20.4624C19.8874 18.2617 18.3544 16.4496 16.3387 15.4424L15.7985 16.5999C17.5104 17.4552 18.8123 18.9942 19.4051 20.8631L20.5854 20.4624ZM12.5745 20.8631C13.1672 18.9942 14.4692 17.4552 16.181 16.5999L15.6408 15.4424C13.6251 16.4496 12.0921 18.2617 11.3942 20.4624L12.5745 20.8631ZM19.4051 11.1023C18.8123 12.9712 17.5104 14.5102 15.7985 15.3656L16.3387 16.523C18.3544 15.5158 19.8874 13.7037 20.5854 11.5031L19.4051 11.1023ZM11.3942 11.5031C12.0921 13.7037 13.6251 15.5158 15.6408 16.523L16.181 15.3656C14.4692 14.5102 13.1672 12.9712 12.5745 11.1023L11.3942 11.5031Z" fill="#474D6A" stroke="#474D6A" stroke-width="0.1"/>
<path d="M13.9542 11.639L13.8535 11.3306H15.9686L15.9656 13.9567L15.8841 13.9153C14.9736 13.4526 14.279 12.6333 13.9542 11.639Z" fill="#474D6A" stroke="#474D6A" stroke-width="0.1"/>
<path d="M18.0694 11.6367L18.1739 11.3306H15.9648V13.9567L16.0953 13.8933C17.0188 13.4449 17.7299 12.632 18.0694 11.6367Z" fill="#474D6A" stroke="#474D6A" stroke-width="0.1"/>
</svg>
