<svg width="28" height="28" viewBox="0 0 28 28" fill="none" xmlns="http://www.w3.org/2000/svg">
<rect x="1" y="1" width="26" height="26" rx="13" fill="white" stroke="#F3F1FF" stroke-width="2"/>
<path d="M14.0002 14.6114C13.8381 14.6114 13.6827 14.6758 13.5681 14.7904C13.4535 14.905 13.3891 15.0604 13.3891 15.2225V17.0558C13.3891 17.2179 13.4535 17.3733 13.5681 17.4879C13.6827 17.6026 13.8381 17.6669 14.0002 17.6669C14.1623 17.6669 14.3177 17.6026 14.4323 17.4879C14.5469 17.3733 14.6113 17.2179 14.6113 17.0558V15.2225C14.6113 15.0604 14.5469 14.905 14.4323 14.7904C14.3177 14.6758 14.1623 14.6114 14.0002 14.6114ZM17.0558 12.1669V10.9447C17.0558 10.1343 16.7338 9.35714 16.1608 8.78411C15.5878 8.21108 14.8106 7.88916 14.0002 7.88916C13.1898 7.88916 12.4126 8.21108 11.8396 8.78411C11.2666 9.35714 10.9447 10.1343 10.9447 10.9447V12.1669C10.4584 12.1669 9.99212 12.3601 9.6483 12.7039C9.30448 13.0477 9.11133 13.514 9.11133 14.0003V18.278C9.11133 18.7643 9.30448 19.2306 9.6483 19.5744C9.99212 19.9182 10.4584 20.1114 10.9447 20.1114H17.0558C17.542 20.1114 18.0083 19.9182 18.3521 19.5744C18.696 19.2306 18.8891 18.7643 18.8891 18.278V14.0003C18.8891 13.514 18.696 13.0477 18.3521 12.7039C18.0083 12.3601 17.542 12.1669 17.0558 12.1669ZM12.1669 10.9447C12.1669 10.4585 12.36 9.99217 12.7039 9.64835C13.0477 9.30454 13.514 9.11138 14.0002 9.11138C14.4864 9.11138 14.9528 9.30454 15.2966 9.64835C15.6404 9.99217 15.8336 10.4585 15.8336 10.9447V12.1669H12.1669V10.9447ZM17.6669 18.278C17.6669 18.4401 17.6025 18.5956 17.4879 18.7102C17.3733 18.8248 17.2178 18.8892 17.0558 18.8892H10.9447C10.7826 18.8892 10.6271 18.8248 10.5125 18.7102C10.3979 18.5956 10.3336 18.4401 10.3336 18.278V14.0003C10.3336 13.8382 10.3979 13.6828 10.5125 13.5682C10.6271 13.4535 10.7826 13.3892 10.9447 13.3892H17.0558C17.2178 13.3892 17.3733 13.4535 17.4879 13.5682C17.6025 13.6828 17.6669 13.8382 17.6669 14.0003V18.278Z" fill="#8951FF"/>
</svg>
