<svg width="18" height="19" viewBox="0 0 18 19" fill="none" xmlns="http://www.w3.org/2000/svg">
<path d="M8.98219 17.1514C13.2523 17.1514 16.7139 13.6898 16.7139 9.41969C16.7139 5.14959 13.2523 1.68799 8.98219 1.68799C4.71209 1.68799 1.25049 5.14959 1.25049 9.41969C1.25049 13.6898 4.71209 17.1514 8.98219 17.1514Z" stroke="#474D6A" stroke-width="1.3" stroke-linecap="round" stroke-linejoin="round"/>
<path d="M6.63599 6.99848C6.83202 6.44122 7.21894 5.97133 7.72823 5.67202C8.23751 5.3727 8.8363 5.26329 9.41852 5.36316C10.0007 5.46303 10.5288 5.76573 10.9093 6.21765C11.2897 6.66957 11.4979 7.24155 11.497 7.83228C11.497 9.49988 8.99564 10.3337 8.99564 10.3337" stroke="#474D6A" stroke-width="1.3" stroke-linecap="round" stroke-linejoin="round"/>
<path d="M9.06201 13.6689H9.07105" stroke="#474D6A" stroke-width="1.3" stroke-linecap="round" stroke-linejoin="round"/>
</svg>
