<svg width="18" height="18" viewBox="0 0 18 18" fill="none" xmlns="http://www.w3.org/2000/svg">
<g clip-path="url(#clip0_5092_28511)">
<path d="M8.98219 16.6514C13.2523 16.6514 16.7139 13.1898 16.7139 8.91969C16.7139 4.64959 13.2523 1.18799 8.98219 1.18799C4.71209 1.18799 1.25049 4.64959 1.25049 8.91969C1.25049 13.1898 4.71209 16.6514 8.98219 16.6514Z" stroke="#121224" stroke-width="1.3" stroke-linecap="round" stroke-linejoin="round"/>
<path d="M6.73218 6.31451C6.92009 5.78034 7.29099 5.3299 7.77918 5.04299C8.26737 4.75607 8.84136 4.65119 9.39947 4.74692C9.95758 4.84265 10.4638 5.13282 10.8285 5.56602C11.1932 5.99923 11.3927 6.54752 11.3919 7.11378C11.3919 7.87715 10.8451 8.45825 10.2737 8.85708C9.5678 9.34981 8.9941 10.0922 8.9941 10.9531V11.0724" stroke="#121224" stroke-width="1.3" stroke-linecap="round" stroke-linejoin="round"/>
<path d="M9.06201 13.1689H9.07105" stroke="#121224" stroke-width="1.3" stroke-linecap="round" stroke-linejoin="round"/>
</g>
<defs>
<clipPath id="clip0_5092_28511">
<rect width="18" height="18" fill="white"/>
</clipPath>
</defs>
</svg>
