<svg width="18" height="18" viewBox="0 0 18 18" fill="none" xmlns="http://www.w3.org/2000/svg">
<path d="M15.0708 3.84644C14.72 3.49551 14.3036 3.21713 13.8452 3.02719C13.3868 2.83726 12.8955 2.7395 12.3993 2.7395C11.9031 2.7395 11.4118 2.83726 10.9534 3.02719C10.495 3.21713 10.0786 3.49551 9.72779 3.84644L8.99982 4.57441L8.27186 3.84644C7.56333 3.13792 6.60236 2.73987 5.60035 2.73987C4.59834 2.73987 3.63737 3.13792 2.92884 3.84644C2.22031 4.55497 1.82227 5.51594 1.82227 6.51795C1.82227 7.51996 2.22031 8.48093 2.92884 9.18946L3.65681 9.91743L8.99982 15.2604L14.3428 9.91743L15.0708 9.18946C15.4217 8.83869 15.7001 8.42222 15.8901 7.96383C16.08 7.50544 16.1777 7.01413 16.1777 6.51795C16.1777 6.02177 16.08 5.53046 15.8901 5.07207C15.7001 4.61369 15.4217 4.19721 15.0708 3.84644Z" fill="#F04141" stroke="#F04141" stroke-linecap="round" stroke-linejoin="round"/>
</svg>
