<svg width="36" height="36" viewBox="0 0 36 36" fill="none" xmlns="http://www.w3.org/2000/svg">
<g clip-path="url(#clip0_12453_61372)">
<rect width="36" height="36" rx="18" fill="white"/>
<path d="M19.57 10.1499H13.2899C12.8735 10.1499 12.4742 10.3153 12.1798 10.6098C11.8853 10.9042 11.7199 11.3035 11.7199 11.7199V24.2802C11.7199 24.6966 11.8853 25.0959 12.1798 25.3903C12.4742 25.6848 12.8735 25.8502 13.2899 25.8502H22.7101C23.1265 25.8502 23.5258 25.6848 23.8203 25.3903C24.1147 25.0959 24.2801 24.6966 24.2801 24.2802V14.86L19.57 10.1499Z" stroke="#121224" stroke-width="1.3" stroke-linecap="round" stroke-linejoin="round"/>
<path d="M19.5697 10.1499V14.86H24.2798" stroke="#121224" stroke-width="1.3" stroke-linecap="round" stroke-linejoin="round"/>
<path d="M21.1399 18.7852H14.8598" stroke="#121224" stroke-width="1.3" stroke-linecap="round" stroke-linejoin="round"/>
<path d="M21.1399 21.9252H14.8598" stroke="#121224" stroke-width="1.3" stroke-linecap="round" stroke-linejoin="round"/>
<path d="M16.4298 15.6451H15.6448H14.8598" stroke="#121224" stroke-width="1.3" stroke-linecap="round" stroke-linejoin="round"/>
</g>
<defs>
<clipPath id="clip0_12453_61372">
<rect width="36" height="36" rx="18" fill="white"/>
</clipPath>
</defs>
</svg>
