<svg width="80" height="80" viewBox="0 0 80 80" fill="none" xmlns="http://www.w3.org/2000/svg">
<g id="Free Icons-15">
<path id="Ellipse 1355" d="M24.9777 31.968C26.9424 28.5493 30.1784 26.0546 33.9739 25.0329C37.7694 24.0112 41.8134 24.546 45.2164 26.5199C48.6193 28.4937 51.1024 31.7448 52.1194 35.5579C53.1364 39.3711 52.604 43.4339 50.6393 46.8527L46.0915 44.2148C47.3598 42.0078 47.7035 39.385 47.047 36.9234C46.3905 34.4618 44.7875 32.363 42.5907 31.0888C40.3939 29.8146 37.7833 29.4693 35.3331 30.1289C32.8829 30.7885 30.7938 32.3989 29.5255 34.6059L24.9777 31.968Z" fill="#F05537"/>
<g id="Layer 16">
<path id="Vector" d="M64.1999 21.6753C63.9287 21.4442 63.6112 21.2737 63.2687 21.1753C62.911 21.0507 62.5429 20.9587 62.1687 20.9003C61.406 20.7734 60.6354 20.7003 59.8624 20.6816C58.3051 20.6447 56.747 20.7178 55.1999 20.9003C54.9499 20.9441 54.8249 19.2941 55.0999 19.3066C56.7241 19.2948 58.347 19.3993 59.9562 19.6191C60.7673 19.7273 61.5694 19.8944 62.3562 20.1191C62.7587 20.2313 63.1516 20.3755 63.5312 20.5503C63.934 20.7258 64.2959 20.9834 64.5937 21.3066C64.8624 21.6441 64.4062 21.8753 64.1999 21.6753Z" fill="#121224"/>
<path id="Vector_2" d="M15.2629 46.0939L14.9129 37.3439L14.7566 34.1502C14.6379 30.4002 14.5566 26.6502 14.4879 22.9002C14.4879 21.2377 14.3941 19.5627 14.3379 17.9002C14.1726 15.7779 14.1852 13.6454 14.3754 11.5252C14.4566 10.8627 14.6504 10.9502 14.9316 11.5252C15.1096 11.8993 15.2661 12.2833 15.4004 12.6752C15.5575 13.2099 15.6478 13.762 15.6691 14.3189C15.8441 18.6377 15.9316 22.9564 15.9254 27.3252C15.9254 29.9314 16.1066 32.6439 16.2129 35.3127L16.5816 44.1127L16.8754 49.5189C17.0254 52.2502 17.1629 55.0002 17.3629 57.7064C17.5254 59.8127 17.7691 61.8752 17.9879 63.9564C18.0441 64.4127 18.0941 64.8564 18.1441 65.3189C18.2566 67.0314 18.1941 67.5814 17.8691 67.9752C17.8004 68.0689 17.7441 68.1877 17.6879 68.2439C17.5254 68.4564 17.1066 67.7502 16.9129 66.5064C16.2879 62.8002 16.0316 58.8689 15.7504 54.9252C15.5504 51.9939 15.4004 49.0439 15.2441 46.1064L15.2629 46.0939Z" fill="#121224"/>
<path id="Vector_3" d="M62.394 51.7251C63.019 44.0625 63.644 36.4 64.1565 28.7438C64.244 27.35 64.3127 25.95 64.3565 24.5625C64.3565 23.8688 64.4002 23.1688 64.4002 22.4875C64.4002 22.1438 64.4002 21.8063 64.4002 21.475C64.4002 21.3125 64.4002 21.1375 64.4002 21.0188C64.4108 20.9757 64.4108 20.9307 64.4002 20.8875L64.3377 20.8313L64.2065 20.7563C64.0437 20.672 63.8744 20.601 63.7002 20.5438C63.3109 20.4123 62.9117 20.312 62.5065 20.2438C61.6289 20.1087 60.7439 20.0273 59.8565 20C58.9752 19.9563 58.0877 19.9438 57.194 19.9563L55.8565 19.9938C55.194 19.9938 54.3565 20.0813 53.6252 20.1313L53.7815 18.9563L53.844 18.375L53.894 17.8813L54.0002 16.5063C54.0627 15.5938 54.1065 14.675 54.1377 13.7563C54.169 12.8375 54.194 11.9125 54.194 11V10.3188V9.7313C54.2001 9.63556 54.2001 9.53953 54.194 9.4438C54.194 9.31255 54.0565 9.3563 53.969 9.35005H53.769H53.319L52.3002 9.37505L50.3877 9.48755L46.5502 9.7188C42.1752 9.9563 37.744 10.1563 33.3752 10.1438C30.5508 10.1663 27.7274 10.0264 24.919 9.72505C23.4983 9.56329 22.0907 9.30224 20.7065 8.9438C19.2467 8.61124 17.8826 7.94843 16.719 7.0063C16.5614 6.86369 16.4151 6.70905 16.2815 6.5438C16.2017 6.41758 16.1307 6.28602 16.069 6.15005C15.9752 5.9313 15.9815 5.8188 16.069 5.7938C16.1565 5.7688 16.3002 5.7938 16.5002 5.92505L16.8252 6.1188L17.2752 6.32505C18.1461 6.72251 19.0607 7.01619 20.0002 7.20005C21.1815 7.43755 22.5877 7.65005 24.1315 7.87505C26.5813 8.2038 29.0477 8.39369 31.519 8.4438C34.019 8.51255 36.519 8.50005 39.019 8.4438C41.519 8.38755 44.019 8.2813 46.519 8.1563L50.269 7.95005L52.144 7.8438L53.094 7.80005H53.6127H54.469C54.7417 7.80054 55.006 7.89543 55.2167 8.0686C55.4275 8.24177 55.5718 8.48255 55.6252 8.75005C55.6722 9.0503 55.7035 9.35279 55.719 9.6563V10.1938C55.719 10.9 55.719 11.5938 55.719 12.2875C55.719 13.4563 55.6315 14.6188 55.5627 15.8C55.5252 16.3875 55.4815 16.9813 55.444 17.575L55.3877 18.2L55.3502 18.475L56.2127 18.4375C56.8377 18.4375 57.394 18.4 57.994 18.4C59.1937 18.385 60.3934 18.4351 61.5877 18.55C62.2038 18.6088 62.8154 18.7069 63.419 18.8438C63.7378 18.9123 64.0511 19.0042 64.3565 19.1188C64.7254 19.2432 65.0716 19.4269 65.3815 19.6625C65.4795 19.7365 65.5734 19.8157 65.6627 19.9L65.794 20.025C65.844 20.0625 65.8315 20.1375 65.8502 20.1938C65.9095 20.4234 65.9492 20.6575 65.969 20.8938C65.969 21.2188 66.0065 21.5188 66.0127 21.825C66.0127 22.45 66.0127 23.025 66.0127 23.6188C65.8815 27.5188 65.5877 31.375 65.3127 35.2438L64.3752 46.8313C64.0002 51.5875 63.619 56.3375 63.3002 61.0875C63.1815 62.8813 63.0627 64.6813 62.969 66.4813C62.9252 67.3813 62.8815 68.2813 62.8565 69.175V69.8501V71.0126C62.8565 71.05 62.8002 71.0688 62.7752 71.0938L62.3877 71.3938C62.2652 71.4884 62.1333 71.5701 61.994 71.6376C61.8815 71.6938 61.769 71.7626 61.6565 71.8063C59.8315 72.55 57.9877 72.6188 56.169 72.7125C54.3502 72.8063 52.5377 72.7125 50.744 72.6313C47.944 72.4813 45.194 72.2438 42.4502 72.0063L38.3502 71.5938C37.6752 71.525 36.9752 71.4501 36.3377 71.425C35.7002 71.4 34.994 71.425 34.3315 71.4751C33.1377 71.5376 31.9815 71.6563 30.8002 71.8188C28.6127 72.1376 27.2065 72.5188 26.194 72.7375C25.5002 72.9295 24.7824 73.0201 24.0627 73.0063C23.8265 73.0101 23.5904 72.9955 23.3565 72.9625C23.094 72.8876 23.3565 72.6188 24.1065 72.2125C25.2572 71.6308 26.4687 71.1781 27.719 70.8625C30.1939 70.2293 32.7336 69.8833 35.2877 69.8313C35.6127 69.8313 35.9127 69.8313 36.269 69.8313C36.6252 69.8313 36.9565 69.8688 37.2877 69.8938L39.2002 70.0813L43.0065 70.4751C45.544 70.7313 48.1002 70.9625 50.6565 71.1001C53.1898 71.2744 55.7329 71.2514 58.2627 71.0313C59.1318 70.9514 59.988 70.7668 60.8127 70.4813L61.0815 70.375L61.194 70.3125L61.269 70.2688V70V69.2563C61.319 67.2938 61.4315 65.35 61.5502 63.4063C61.794 59.525 62.0815 55.65 62.3752 51.7813L62.394 51.7251Z" fill="#121224"/>
<path id="Vector_4" d="M65.9313 20.2254C63.6626 15.8504 59.6126 11.3629 55.7251 8.35039C55.3876 8.08789 53.9938 8.74414 54.1813 8.88789C58.325 12.0703 61.7711 16.0695 64.3063 20.6379C64.4938 21.0066 66.0438 20.4129 65.9313 20.2004V20.2254Z" fill="#121224"/>
<path id="Vector_5" d="M23.6123 26.8747C23.9113 26.6352 24.2557 26.4587 24.6248 26.3559C24.9497 26.2642 25.2879 26.2283 25.6248 26.2497C27.8248 26.2872 30.0561 26.2497 32.2811 26.1997H38.0248C41.3248 26.1497 44.6248 26.0497 47.9248 25.9622L50.8498 25.8872C51.7811 25.8497 52.7248 25.8122 53.6561 25.7934C53.8138 25.7746 53.9733 25.7746 54.1311 25.7934C54.214 25.8021 54.2924 25.8357 54.3559 25.8898C54.4194 25.9439 54.4649 26.016 54.4866 26.0966C54.5083 26.1771 54.505 26.2623 54.4772 26.341C54.4495 26.4197 54.3985 26.4881 54.3311 26.5372C54.2623 26.6059 54.1873 26.7059 54.1185 26.7122C53.3936 26.7122 52.8248 27.2372 52.0623 27.2434C50.6498 27.2434 49.2373 27.3872 47.8311 27.4622C47.2623 27.4622 46.6998 27.4622 46.1311 27.4622L43.9623 27.3872C42.9748 27.3872 38.3373 27.4434 33.8686 27.4559C31.6373 27.4559 29.4561 27.4559 27.7998 27.3934C26.9686 27.3934 26.2686 27.3309 25.7686 27.3122C25.2686 27.2934 24.9498 27.2309 24.8936 27.2247C24.4578 27.1426 24.0293 27.0256 23.6123 26.8747Z" fill="#121224"/>
<path id="Vector_6" d="M24.751 35.6247C25.002 35.3774 25.2994 35.182 25.626 35.0497C25.8932 34.9482 26.1776 34.8993 26.4635 34.906C28.3385 34.8622 30.2135 34.7497 32.126 34.6747C33.7572 34.606 35.3947 34.6122 37.026 34.5622C39.8385 34.481 42.651 34.3935 45.4885 34.3997L47.9885 34.4435C48.7947 34.4435 49.5947 34.4435 50.4072 34.5247C50.5437 34.518 50.6805 34.5306 50.8135 34.5622C50.8887 34.5876 50.9554 34.6336 51.0058 34.6949C51.0563 34.7562 51.0885 34.8305 51.0989 34.9092C51.1094 34.988 51.0975 35.068 51.0647 35.1404C51.0319 35.2127 50.9795 35.2744 50.9135 35.3185C50.851 35.381 50.7822 35.481 50.7197 35.4747C50.0947 35.4747 49.5822 35.8935 48.9385 35.8685C47.7449 35.8186 46.5495 35.8311 45.3572 35.906C44.8822 35.906 44.401 35.906 43.9197 35.906L42.0822 35.7935C41.2447 35.7622 37.301 35.7935 33.5072 35.9185C31.6322 35.9685 29.7572 36.006 28.3322 36.006C27.4982 36.0236 26.6637 35.9986 25.8322 35.931C25.4631 35.8628 25.1011 35.7602 24.751 35.6247Z" fill="#121224"/>
<path id="Vector_7" d="M25.5322 44.7566C25.8042 44.5196 26.1179 44.3352 26.4572 44.2128C26.7432 44.1166 27.043 44.068 27.3447 44.0691C29.3385 44.0378 31.351 43.9253 33.3635 43.8566C35.0947 43.8003 36.8322 43.8128 38.5697 43.7691C41.5572 43.7003 44.551 43.6191 47.551 43.6253C48.4385 43.6253 49.326 43.6628 50.2135 43.6691C51.101 43.6753 51.9197 43.6691 52.7822 43.7566C52.927 43.7499 53.072 43.7625 53.2135 43.7941C53.2911 43.8171 53.3605 43.8619 53.4136 43.9231C53.4666 43.9843 53.5011 44.0593 53.5129 44.1395C53.5247 44.2196 53.5134 44.3014 53.4803 44.3753C53.4472 44.4492 53.3936 44.5121 53.326 44.5566C53.2572 44.6128 53.1822 44.7128 53.1197 44.7066C52.4947 44.7066 51.9197 45.1253 51.2447 45.1003C49.9768 45.0347 48.7064 45.0347 47.4385 45.1003C46.926 45.1003 46.4197 45.1003 45.9072 45.1003L43.9447 45.0003C43.051 45.0003 38.8572 45.0003 34.826 45.1003C32.8135 45.1378 30.8385 45.1691 29.3385 45.1628C28.4585 45.1799 27.5782 45.1528 26.701 45.0816C26.3019 45.0107 25.9106 44.9019 25.5322 44.7566Z" fill="#121224"/>
<path id="Vector_8" d="M32.1875 54.3747C32.525 53.7497 32.7375 53.6372 32.9813 53.6247C33.7688 53.6247 34.575 53.5434 35.375 53.5247C36.0687 53.5247 36.7625 53.5622 37.4563 53.5247C38.65 53.5247 39.8437 53.4684 41.0437 53.4309C41.3938 53.4309 41.75 53.4309 42.1 53.3934C42.45 53.3559 42.775 53.3309 43.1125 53.3184C43.1688 53.3184 43.2313 53.2809 43.2813 53.3184C43.4313 53.4184 43.475 53.7872 43.375 54.0684C43.375 54.1309 43.325 54.2372 43.3 54.2372C43.0375 54.2372 42.8375 54.7622 42.5625 54.7684C42.0468 54.7854 41.5329 54.8397 41.025 54.9309C40.8173 54.9532 40.6077 54.9532 40.4 54.9309C40.1375 54.9309 39.875 54.8434 39.6062 54.8247C39.3375 54.8059 37.5563 54.8247 35.9375 54.7684C35.125 54.7684 34.325 54.7309 33.7188 54.6997C33.3587 54.6935 32.9995 54.6622 32.6437 54.6059C32.4827 54.548 32.3295 54.4703 32.1875 54.3747Z" fill="#121224"/>
<path id="Vector_9" d="M27.1314 71.8059C32.4849 70.5661 38.0375 70.4511 43.4377 71.4684C52.5939 73.1434 62.3314 70.7871 62.3314 70.7871C62.3314 70.7871 60.0377 76.2371 44.3189 73.4059C35.2752 71.7809 28.1439 74.3184 26.5377 74.3184C25.6252 74.3184 27.1314 71.8059 27.1314 71.8059Z" fill="#121224"/>
</g>
</g>
</svg>
