<svg width="80" height="80" viewBox="0 0 80 80" fill="none" xmlns="http://www.w3.org/2000/svg">
<g id="Group 282721">
<g id="Group 282720">
<path id="Ellipse 1355" d="M54.641 65.3592C57.9712 63.4365 60.8901 60.8767 63.231 57.826C65.5719 54.7752 67.289 51.2933 68.2843 47.5789C69.2795 43.8646 69.5334 39.9906 69.0315 36.1781C68.5296 32.3656 67.2817 28.6894 65.359 25.3592C63.4363 22.029 60.8765 19.1101 57.8258 16.7692C54.775 14.4283 51.2931 12.7112 47.5787 11.7159C43.8644 10.7207 39.9904 10.4667 36.1779 10.9687C32.3654 11.4706 28.6892 12.7185 25.359 14.6412L40 40.0002L54.641 65.3592Z" fill="#F05537"/>
<path id="Vector" d="M13.7901 23.0202C17.1074 18.0928 21.7301 14.1852 27.1411 11.7346C29.1096 10.8571 31.181 10.2317 33.3062 9.87333C40.7787 8.57022 48.4704 10.0093 54.9664 13.9258C57.8249 15.6284 60.3698 17.8094 62.4901 20.3736C65.2774 23.6191 67.1313 27.5604 67.8541 31.777C68.0897 33.0807 67.5243 32.9707 66.7703 32.0283C66.3056 31.4267 65.908 30.7763 65.5844 30.0884C65.0514 29.2101 64.5942 28.2879 64.2179 27.3318C62.5691 23.6727 60.093 20.4465 56.9848 17.9075C53.8246 15.3395 50.1744 13.4423 46.2568 12.3315C45.6667 12.1507 45.0661 12.0064 44.4583 11.8995C43.8536 11.7975 43.2488 11.6168 42.6284 11.5697C41.3812 11.4086 40.124 11.3378 38.8665 11.3577C36.3403 11.3757 33.8262 11.7081 31.3821 12.3472C30.0512 12.6946 28.7531 13.1571 27.5024 13.7294C26.8757 14.0187 26.2649 14.3412 25.6725 14.6954L24.7615 15.2059L23.8898 15.7792C21.5451 17.3041 19.4295 19.1552 17.6069 21.2767C16.4988 22.5858 15.4956 23.9802 14.6068 25.447C13.7783 26.9356 13.0693 28.4876 12.4864 30.0884C10.634 34.9814 10.1481 40.2863 11.0806 45.4343C11.8661 49.3353 13.5137 53.0114 15.9027 56.1938C16.1461 56.5472 16.421 56.877 16.688 57.2069C16.9551 57.5367 17.2299 57.8744 17.5284 58.1964C19.6881 60.6075 20.4656 61.275 20.6698 62.1782C20.7273 62.3731 20.7667 62.5729 20.7876 62.7751C20.7876 63.0499 20.4577 63.0264 19.8923 62.7751C19.5338 62.5906 19.1875 62.3834 18.8556 62.1546C18.4708 61.864 18.0703 61.5028 17.5676 61.0787C14.7069 58.4386 12.4395 55.2209 10.9156 51.6387C10.1382 49.801 9.54373 47.8912 9.14074 45.937C8.75833 43.9597 8.56375 41.9507 8.55957 39.9368C8.58948 36.9389 9.04969 33.9608 9.92609 31.0937C10.8236 28.2408 12.1078 25.5244 13.7429 23.0202H13.7901Z" fill="#121224"/>
<path id="Vector_2" d="M68.2335 29.5973C66.2632 23.9934 62.773 19.0481 58.1531 15.3143C56.4689 13.9696 54.6216 12.8429 52.655 11.9611C45.7512 8.81901 37.9449 8.27559 30.6722 10.4308C27.4771 11.3591 24.4652 12.8293 21.7677 14.7771C18.2533 17.2166 15.4669 20.5643 13.706 24.4632C13.1498 25.6656 13.7247 25.7015 14.6916 24.9792C15.2928 24.514 15.8414 23.9846 16.3276 23.4003C17.0646 22.6845 17.7392 21.907 18.344 21.0765C20.8608 17.9502 24.0693 15.4512 27.7165 13.7763C31.4214 12.0865 35.4316 11.1691 39.5027 11.0803C40.1193 11.0538 40.7369 11.0654 41.352 11.1149C41.9629 11.1683 42.5937 11.1457 43.206 11.2563C44.4536 11.4144 45.6882 11.6623 46.9001 11.998C49.3404 12.6514 51.6899 13.606 53.8945 14.8397C55.095 15.5109 56.2349 16.2853 57.3013 17.154C57.835 17.5917 58.345 18.0575 58.8291 18.5495L59.5823 19.2728L60.2816 20.0471C62.167 22.1131 63.7485 24.4371 64.9784 26.9491C65.7213 28.4949 66.3412 30.097 66.8321 31.7403C67.2592 33.3895 67.5548 35.07 67.716 36.7661C68.277 41.9678 67.412 47.2241 65.2137 51.9717C63.4714 55.5493 60.9516 58.6923 57.8385 61.1708C57.5139 61.4516 57.1649 61.7016 56.8234 61.9536C56.482 62.2057 56.1309 62.4633 55.7611 62.6998C53.064 64.4896 52.1435 64.9399 51.7185 65.7626C51.6138 65.9368 51.5253 66.1202 51.4542 66.3106C51.385 66.5766 51.7102 66.6369 52.3207 66.536C52.7141 66.4477 53.1014 66.3343 53.4802 66.1965C53.9258 66.0121 54.4043 65.7633 54.9975 65.4794C58.4308 63.6444 61.4351 61.101 63.8115 58.0178C65.0265 56.4349 66.0826 54.7363 66.9645 52.9464C67.8323 51.1291 68.5263 49.2338 69.0373 47.2858C69.763 44.3769 70.0673 41.3788 69.9408 38.3834C69.7903 35.3965 69.2312 32.4442 68.2791 29.6091L68.2335 29.5973Z" fill="#121224"/>
<path id="Vector_3" d="M34.6802 70.6369C32.9997 72.1121 31.0687 73.2744 28.9785 74.0689C28.2454 74.3868 27.4956 74.6647 26.7324 74.9014C26.1434 75.0899 25.5387 75.2234 24.9418 75.3648L24.0386 75.5533L23.5831 75.6318L23.0176 75.7339C22.0595 75.891 21.1249 76.0166 20.2846 76.0716C19.4443 76.1266 18.3448 76.3072 18.3369 76.0088C18.7689 75.514 19.2636 74.9485 19.6485 74.4381L20.2061 73.7469L20.5673 73.1187C20.6904 72.9244 20.7956 72.7194 20.8815 72.5061L21.0464 72.1134C21.2375 71.5806 21.3898 71.0347 21.5019 70.4799C21.8082 69.0505 21.8239 67.5662 22.0752 66.0976C22.1459 65.6499 22.6721 65.6892 23.1904 66.0976C23.5 66.3606 23.7421 66.6939 23.8965 67.0696C24.0509 67.4454 24.1131 67.8526 24.0779 68.2573C23.9544 69.5336 23.691 70.7925 23.2925 72.0113C23.1826 72.3176 23.0726 72.6317 22.9391 72.9302L22.7585 73.3307C22.6844 73.384 22.6136 73.4417 22.5464 73.5035L22.4286 73.6056C22.4286 73.6056 22.4286 73.6056 22.4286 73.6527C22.4286 73.6998 22.4836 73.7077 22.5464 73.7391C22.6629 73.7644 22.7834 73.7644 22.8998 73.7391H23.0176H23.1904L23.536 73.6684L24.2192 73.5113C25.1224 73.2836 26.0177 72.993 26.8973 72.726C28.8291 72.1038 30.652 71.1844 32.3006 70.0008C32.5524 69.8245 32.7913 69.6302 33.0153 69.4196C33.243 69.2076 33.4943 69.0191 33.6985 68.7992L34.4839 67.896L34.7273 67.6211C34.7273 67.6211 34.7273 67.574 34.7902 67.5662H34.8687H35.0415L35.7169 67.6997L36.5415 67.8489C36.785 67.8489 37.0206 67.9353 37.264 67.9667C37.7431 68.0452 38.2222 68.1002 38.7013 68.1552C39.6445 68.2722 40.5938 68.3325 41.5443 68.3358C43.0152 68.269 44.4756 68.0532 45.903 67.6918L46.8376 67.4484C47.9999 67.1656 48.4083 67.1813 48.7931 67.6447C48.8911 67.7414 48.9805 67.8465 49.0601 67.9589C49.2957 68.328 48.9031 68.8227 48.0156 69.1604C45.2472 70.14 42.3047 70.5306 39.3767 70.3071C38.2732 70.2479 37.1743 70.122 36.086 69.9301L35.709 69.8673H35.6305C35.5834 69.8673 35.497 69.828 35.5127 69.8673L35.3713 70.0322C35.1846 70.2606 34.9769 70.4709 34.7509 70.6605L34.6802 70.6369Z" fill="#121224"/>
<path id="Vector_4" d="M36.2747 70.5181L35.7799 70.4238C35.7799 70.4238 35.7328 70.4238 35.725 70.4238L35.026 71.1464C34.4523 71.6547 33.8435 72.1218 33.204 72.5443C32.7486 72.8598 32.2767 73.1508 31.7903 73.416C30.0721 74.2865 28.2626 74.9635 26.3949 75.4344C25.5703 75.6465 24.7535 75.8664 23.9289 76.0548C22.8837 76.3488 21.8089 76.5253 20.7246 76.581C20.0492 76.581 20.8032 75.5051 21.9655 75.3009C24.0866 74.9412 26.1846 74.4561 28.2484 73.848C29.5003 73.4478 30.7 72.8994 31.8217 72.2144C32.1383 72.0447 32.4428 71.8532 32.7327 71.6411C33.0394 71.455 33.3309 71.2449 33.6045 71.0128C33.8715 70.7772 34.17 70.573 34.3899 70.3217L35.2616 69.4107L35.3558 69.3165H35.4815L35.7485 69.3636L36.1491 69.4343L36.8166 69.5442C37.2643 69.6149 37.7119 69.6856 38.1596 69.7406C39.5081 69.945 40.8722 70.0291 42.2356 69.9919C43.2614 69.9267 44.2748 69.7314 45.2514 69.4107L45.8796 69.183C46.665 68.9081 46.9477 68.861 47.2226 69.0573C47.2898 69.0954 47.3529 69.1401 47.4111 69.1908C47.5682 69.3557 47.3011 69.662 46.7121 69.9762C44.8436 70.8091 42.8007 71.1757 40.7591 71.0443C39.2531 70.9648 37.7531 70.797 36.2669 70.5416L36.2747 70.5181Z" fill="#121224"/>
<g id="Group 282719">
<path id="Vector_5" d="M27.019 37.2642C27.5208 37.3746 27.987 37.6087 28.3752 37.9452C28.7635 38.2817 29.0615 38.7099 29.2422 39.1909C30.9614 43.8003 23.1803 44.067 23.2248 39.9616C23.247 39.5141 23.3704 39.0774 23.5857 38.6845C23.801 38.2915 24.1026 37.9525 24.4678 37.6928C24.833 37.4332 25.2523 37.2598 25.6942 37.1855C26.136 37.1113 26.589 37.1382 27.019 37.2642Z" fill="#121224"/>
<path id="Vector_6" d="M38.895 37.2712C39.3957 37.379 39.8614 37.6104 40.2498 37.9444C40.6381 38.2784 40.9366 38.7042 41.1181 39.1832C42.8374 43.7925 35.0563 44.0593 35.1008 39.9538C35.1252 39.5076 35.2501 39.0727 35.4663 38.6815C35.6825 38.2904 35.9844 37.9532 36.3493 37.6952C36.7142 37.4372 37.1327 37.2651 37.5736 37.1916C38.0144 37.1182 38.4661 37.1454 38.895 37.2712Z" fill="#121224"/>
<path id="Vector_7" d="M50.771 37.2642C51.2706 37.3795 51.7344 37.6154 52.122 37.9513C52.5095 38.2871 52.8089 38.7127 52.9941 39.1909C54.7134 43.8003 46.9323 44.067 46.9768 39.9616C46.999 39.5141 47.1224 39.0774 47.3377 38.6845C47.553 38.2915 47.8546 37.9525 48.2198 37.6928C48.585 37.4332 49.0042 37.2598 49.4461 37.1855C49.888 37.1113 50.341 37.1382 50.771 37.2642Z" fill="#121224"/>
</g>
</g>
<path id="Vector_8" d="M5.90099 15.7109C5.93684 15.5913 5.99611 15.48 6.07534 15.3835C6.15457 15.287 6.25219 15.2072 6.36253 15.1487C6.47286 15.0903 6.59372 15.0543 6.71807 15.043C6.84242 15.0316 6.96778 15.0451 7.08688 15.0826C9.56861 15.8523 5.09207 18.3183 5.90099 15.7109Z" stroke="#121224" stroke-miterlimit="10"/>
<path id="Vector_9" d="M65.9635 15.7115C66.0002 15.5926 66.06 15.4822 66.1396 15.3865C66.2192 15.2909 66.3169 15.2119 66.4272 15.1543C66.5374 15.0966 66.658 15.0613 66.782 15.0505C66.9059 15.0396 67.0308 15.0534 67.1494 15.0911C69.6311 15.8529 65.1546 18.3189 65.9635 15.7115Z" stroke="#121224" stroke-miterlimit="10"/>
<path id="Vector_10" d="M6.92682 64.608C7.00269 64.3691 7.1699 64.1698 7.39201 64.0536C7.61413 63.9374 7.87317 63.9136 8.11271 63.9876C10.5944 64.7494 6.10219 67.2154 6.92682 64.608Z" stroke="#121224" stroke-miterlimit="10"/>
</g>
</svg>
