<svg width="81" height="81" viewBox="0 0 81 81" fill="none" xmlns="http://www.w3.org/2000/svg">
<path d="M37.6163 54.9974C38.8077 54.9974 39.784 54.1212 39.9495 52.8813C41.5877 41.8374 43.0935 40.2999 53.7171 39.093C54.9417 38.9442 55.8849 37.9192 55.8849 36.7288C55.8849 35.5219 54.9582 34.53 53.7337 34.3481C43.1763 32.8767 41.869 31.5872 39.9495 20.5599C39.7344 19.3364 38.7912 18.4602 37.6163 18.4602C36.4083 18.4602 35.4485 19.3364 35.25 20.5764C33.6448 31.6037 32.139 33.1412 21.5319 34.3481C20.2743 34.5134 19.3477 35.5054 19.3477 36.7288C19.3477 37.9192 20.2412 38.9111 21.4989 39.093C32.0728 40.5975 33.3635 41.8705 35.25 52.8978C35.4982 54.1377 36.4579 54.9974 37.6163 54.9974Z" fill="#F05537"/>
<path d="M55.9306 64.5202C56.5547 64.5202 57.0661 64.0612 57.1528 63.4117C58.0109 57.6269 58.7997 56.8215 64.3644 56.1893C65.0058 56.1114 65.4999 55.5744 65.4999 54.9509C65.4999 54.3188 65.0145 53.7992 64.3731 53.7039C58.843 52.9332 58.1582 52.2577 57.1528 46.4815C57.0401 45.8406 56.546 45.3817 55.9306 45.3817C55.2979 45.3817 54.7951 45.8406 54.6911 46.4901C53.8503 52.2663 53.0616 53.0717 47.5055 53.7039C46.8467 53.7905 46.3613 54.3101 46.3613 54.9509C46.3613 55.5744 46.8294 56.094 47.4881 56.1893C53.0269 56.9774 53.703 57.6442 54.6911 63.4204C54.8211 64.0699 55.3239 64.5202 55.9306 64.5202Z" fill="#F05537"/>
<path d="M32.2402 20.5764C32.4493 19.3364 33.4595 18.4602 34.7311 18.4602C35.9678 18.4602 36.9607 19.3364 37.1871 20.5599C39.2077 31.5872 40.5837 32.8767 51.6968 34.3481L32.2402 20.5764ZM32.2402 20.5764C30.5506 31.6037 28.9655 33.1412 17.8002 34.3481L32.2402 20.5764ZM51.7867 40.0872L51.7941 40.0864C53.5145 39.8878 54.9612 38.4974 54.9612 36.7288C54.9612 34.9379 53.529 33.5967 51.8365 33.3579L51.8365 33.3579L51.8281 33.3568C49.0518 32.9892 46.9483 32.6404 45.3042 32.1633C43.6727 31.6898 42.5588 31.1076 41.7207 30.3121C40.8828 29.5168 40.2441 28.4358 39.6889 26.8323C39.1293 25.2162 38.6755 23.1341 38.1707 20.3796L38.1704 20.3779C37.862 18.7115 36.4808 17.4602 34.7311 17.4602C32.9621 17.4602 31.5428 18.698 31.2542 20.4102L31.2529 20.4175L31.2518 20.4249C30.8303 23.1758 30.4241 25.2698 29.8909 26.8997C29.3617 28.5172 28.7264 29.6159 27.8829 30.4218C27.0391 31.2279 25.9091 31.8154 24.2609 32.2745C22.6004 32.7371 20.4777 33.0529 17.6928 33.3539L17.6845 33.3548L17.6763 33.3558C15.9379 33.5729 14.501 34.9191 14.501 36.7288C14.501 38.4968 15.8917 39.845 17.6293 40.0837L17.6314 40.084C20.4124 40.4599 22.5184 40.8137 24.1633 41.2939C25.7957 41.7705 26.9077 42.3536 27.7425 43.1485C28.5769 43.9431 29.2109 45.0223 29.7601 46.6245C30.3136 48.2394 30.76 50.3203 31.2561 53.075L31.2587 53.0895L31.2617 53.104C31.6133 54.7723 33.0048 55.9974 34.7311 55.9974C36.4705 55.9974 37.9278 54.7682 38.1762 53.0285C38.606 50.2769 39.0183 48.1818 39.5562 46.5506C40.0904 44.9304 40.7293 43.8296 41.5764 43.0221C42.4236 42.2145 43.5566 41.6264 45.2078 41.1669C46.8713 40.704 48.9974 40.3883 51.7867 40.0872Z" stroke="#121224" stroke-width="2"/>
<path d="M63.349 56.6864L63.3527 56.686C64.2436 56.5832 64.9906 55.8636 64.9906 54.9509C64.9906 54.0267 64.2512 53.3325 63.3743 53.2088L63.3743 53.2088L63.3701 53.2082C61.9158 53.0157 60.8124 52.8328 59.9493 52.5823C59.0925 52.3337 58.5052 52.0272 58.0625 51.6071C57.6199 51.187 57.2837 50.6169 56.9921 49.7748C56.6983 48.9264 56.4603 47.8342 56.1959 46.3914L56.1958 46.3905C56.0362 45.5281 55.322 44.8817 54.4176 44.8817C53.5029 44.8817 52.7692 45.5214 52.6199 46.407L52.6198 46.407L52.6187 46.4144C52.3979 47.8555 52.1849 48.954 51.9049 49.8097C51.627 50.6593 51.2926 51.2388 50.8469 51.6645C50.4012 52.0903 49.8053 52.3995 48.9396 52.6407C48.0679 52.8835 46.9543 53.0491 45.4954 53.2068L45.4954 53.2067L45.4871 53.2077C44.5864 53.3202 43.8447 54.0169 43.8447 54.9509C43.8447 55.8633 44.5625 56.561 45.4628 56.6847L45.4639 56.6848C46.9206 56.8817 48.0253 57.0672 48.8888 57.3193C49.746 57.5696 50.3324 57.8765 50.7734 58.2964C51.2141 58.7161 51.5479 59.2852 51.8363 60.1266C52.1269 60.9744 52.361 62.066 52.6208 63.509L52.6221 63.5163L52.6237 63.5235C52.8056 64.3872 53.5255 65.0202 54.4176 65.0202C55.3172 65.0202 56.0703 64.3847 56.1987 63.4854C56.4239 62.0438 56.6401 60.9447 56.9225 60.0882C57.203 59.2373 57.5394 58.6567 57.9868 58.2302C58.4344 57.8036 59.0319 57.494 59.8991 57.2527C60.7724 57.0097 61.8877 56.8441 63.349 56.6864Z" stroke="#121224"/>
<path d="M15.7552 15.0707C15.6618 15.0835 15.6782 14.9486 15.7125 14.7471C15.7471 14.6545 15.8009 14.5703 15.8703 14.5C15.9325 14.4734 15.9976 14.4539 16.0643 14.4421C16.2766 14.5004 16.4854 14.5704 16.69 14.6516C16.8313 14.7031 16.9647 14.7742 17.0861 14.8629L17.8321 15.3655C17.8872 15.4024 17.9361 15.4478 17.9769 15.5001C18.1246 15.6747 18.3018 15.8221 18.5005 15.9353C18.53 15.9614 18.5673 15.9768 18.6066 15.9791C18.8265 16.0883 19.0289 16.2294 19.2074 16.398C19.3157 16.5695 19.4617 16.6987 19.5984 16.8569C19.6151 16.8833 19.6276 16.9031 19.6484 16.9361C19.6509 16.9714 19.6621 17.0056 19.6809 17.0355C19.6998 17.0654 19.7258 17.0902 19.7566 17.1077C19.816 17.1706 19.8707 17.2378 19.9204 17.3088C19.9432 17.3539 19.9609 17.4016 19.973 17.4508C19.998 17.4904 19.9239 17.5556 19.9065 17.5573C19.8891 17.559 19.8596 17.6146 19.8436 17.6477L19.8139 17.6664C19.6079 17.6553 19.4028 17.6306 19.2 17.5925C19.167 17.6133 18.5573 17.2462 18.4955 17.2068C18.4587 17.1842 18.4279 17.153 18.4058 17.1158C18.3954 17.0993 17.887 16.8343 17.87 16.822C17.7766 16.7471 17.664 16.7075 17.611 16.5795C17.5964 16.5564 17.586 16.5399 17.5756 16.5234C17.4082 16.4108 17.2493 16.286 17.1002 16.15C17.0218 16.0842 16.931 16.0353 16.8481 15.977C16.8366 15.9628 16.8268 15.9473 16.8189 15.9308C16.8083 15.9099 16.7957 15.89 16.7815 15.8714C16.5907 15.7258 16.3901 15.5935 16.1811 15.4753C16.1298 15.4524 15.9589 15.2327 15.8905 15.1974C15.8222 15.1622 15.7953 15.0684 15.7552 15.0707Z" fill="#121224"/>
<path d="M26.1959 10.5503C26.2544 10.5918 26.1856 10.6582 26.0416 10.7444C25.9728 10.7784 25.8981 10.799 25.8215 10.8049C25.7743 10.7899 25.7285 10.771 25.6844 10.7484C25.6699 10.7253 25.5034 10.4614 25.4472 10.3723C25.3898 10.292 25.346 10.2027 25.3175 10.1082C25.2464 9.92244 25.1655 9.74292 25.0862 9.58075C25.0681 9.54208 25.0574 9.50032 25.0547 9.45767C25.0352 9.31551 24.9789 9.1809 24.8914 9.06721C24.8868 9.05506 24.8791 9.04433 24.869 9.0361C24.859 9.02787 24.847 9.02243 24.8341 9.02031C24.7273 8.91567 24.6362 8.79598 24.5639 8.66503C24.5292 8.5369 24.4804 8.413 24.4185 8.29558C24.4185 8.29558 24.3997 8.26589 24.3873 8.24609C24.3748 8.2263 24.3691 8.15148 24.345 8.12057C24.3209 8.08966 24.2888 8.0315 24.2555 7.97871C24.2457 7.94203 24.239 7.90457 24.2356 7.86675C24.2488 7.83612 24.2714 7.81052 24.3002 7.79371C24.3332 7.77289 24.345 7.73315 24.3664 7.70123C24.3741 7.69209 24.3845 7.68555 24.3961 7.6825C24.5388 7.68248 24.6807 7.70505 24.8164 7.74938C24.9966 7.86398 25.168 7.99165 25.3295 8.13135C25.3536 8.15564 25.372 8.18492 25.3836 8.21713C25.4955 8.33092 25.6015 8.45025 25.7014 8.57469C25.7513 8.65387 25.8013 8.73305 25.7955 8.83354C25.7955 8.83354 25.8142 8.86324 25.8246 8.87973C25.893 9.01582 25.9449 9.15953 25.9794 9.30785C26.0022 9.38014 26.0285 9.45124 26.0585 9.52088L26.0574 9.56305L26.0626 9.61513C26.1298 9.78024 26.1492 9.95712 26.2263 10.116C26.2471 10.149 26.2257 10.3562 26.2506 10.3958C26.2756 10.4354 26.1714 10.5334 26.1959 10.5503Z" fill="#121224"/>
<path d="M60.2995 70.226C60.2446 70.1799 60.3186 70.1192 60.469 70.045C60.5404 70.0167 60.6166 70.0023 60.6933 70.0027C60.7392 70.0215 60.7833 70.044 60.8254 70.0701C60.838 70.0943 60.9825 70.3709 61.0313 70.4643C61.0819 70.549 61.1184 70.6415 61.139 70.738C61.1948 70.929 61.2609 71.1145 61.3266 71.2826C61.3416 71.3226 61.3489 71.3651 61.348 71.4078C61.3559 71.5511 61.401 71.6898 61.479 71.8103C61.4826 71.8227 61.4894 71.8341 61.4988 71.8431C61.5081 71.8521 61.5197 71.8585 61.5323 71.8617C61.6303 71.9746 61.7113 72.1013 61.7727 72.2377C61.7969 72.3683 61.8354 72.4957 61.8876 72.6178C61.8876 72.6178 61.9039 72.6489 61.9147 72.6697C61.9256 72.6904 61.9251 72.7654 61.9466 72.7982C61.9682 72.831 61.9954 72.8916 62.0243 72.9469C62.0311 72.9842 62.0347 73.0221 62.035 73.0601C62.0194 73.0895 61.9948 73.1132 61.9647 73.1276C61.9301 73.1457 61.9151 73.1843 61.8912 73.2144C61.8827 73.2229 61.8719 73.2286 61.8601 73.2307C61.7178 73.2191 61.5782 73.185 61.4466 73.1298C61.2763 73.0009 61.1158 72.8597 60.9663 72.7074C60.9442 72.6812 60.9282 72.6505 60.9193 72.6175C60.8171 72.495 60.7211 72.3674 60.6317 72.2352C60.5883 72.1523 60.545 72.0693 60.5589 71.9696C60.5589 71.9696 60.5427 71.9385 60.5336 71.9212C60.4766 71.78 60.4365 71.6325 60.4142 71.4819C60.3974 71.408 60.3769 71.335 60.3528 71.2632L60.3572 71.2212L60.3563 71.1689C60.3027 70.9988 60.2978 70.821 60.2338 70.6564C60.2158 70.6218 60.254 70.417 60.2324 70.3755C60.2107 70.334 60.3225 70.2448 60.2995 70.226Z" fill="#121224"/>
<path d="M32.2425 9.48672C32.2903 9.5626 32.1752 9.62138 31.9983 9.64072C31.9135 9.63916 31.8302 9.6174 31.7554 9.57723C31.7226 9.53186 31.6927 9.48448 31.6659 9.43537C31.6555 9.41888 31.6241 9.03283 31.6025 8.9035C31.5852 8.77719 31.5818 8.64936 31.5926 8.52232C31.611 8.26631 31.6132 8.00664 31.6208 7.74819C31.6254 7.69026 31.6356 7.6329 31.6511 7.57688C31.7159 7.38135 31.7424 7.17515 31.7292 6.96958C31.7232 6.95214 31.7136 6.93613 31.7011 6.92258C31.6886 6.90904 31.6734 6.89825 31.6565 6.89091C31.6194 6.67147 31.6167 6.44761 31.6483 6.22733C31.7101 6.05465 31.747 5.87919 31.7826 5.7091C31.7826 5.7091 31.7795 5.66032 31.8104 5.63621C31.8413 5.6121 31.8737 5.53175 31.8805 5.47673C31.8882 5.40059 31.9043 5.32551 31.9283 5.25285C31.9493 5.21032 31.979 5.17271 32.0155 5.1425C32.0518 5.11961 32.149 5.12747 32.1606 5.13859C32.1723 5.1497 32.2438 5.14609 32.2872 5.14178C32.3022 5.13942 32.3175 5.13908 32.3327 5.14076C32.4265 5.29204 32.4999 5.4551 32.5509 5.62568L32.59 5.96539L32.6366 6.34641C32.6574 6.37941 32.6283 6.42087 32.6164 6.46062C32.6046 6.50036 32.6637 6.98883 32.6621 7.00827C32.6498 7.11293 32.6762 7.22074 32.6043 7.32606C32.599 7.33508 32.5956 7.34507 32.5942 7.35545C32.5928 7.36582 32.5935 7.37637 32.5963 7.38646C32.5931 7.57014 32.5744 7.75321 32.5403 7.93372C32.5283 8.02432 32.5324 8.11857 32.5257 8.21039C32.5233 8.22818 32.5166 8.24511 32.5061 8.25968C32.4986 8.2805 32.4936 8.30219 32.4915 8.32424C32.4837 8.54589 32.4317 8.76318 32.4467 8.98432C32.4486 9.03848 32.3441 9.27501 32.3415 9.33663C32.3389 9.39825 32.227 9.45494 32.2425 9.48672Z" fill="#121224"/>
<path d="M54.19 70.7938C54.1484 70.7143 54.268 70.6651 54.4458 70.6602C54.5303 70.6687 54.6115 70.6971 54.6828 70.7432C54.7118 70.7911 54.7377 70.8408 54.7605 70.8919C54.7695 70.9092 54.7694 71.2965 54.7804 71.4272C54.7874 71.5545 54.7803 71.6822 54.7592 71.8079C54.7201 72.0616 54.6968 72.3202 54.6682 72.5772C54.6588 72.6345 54.6441 72.6909 54.624 72.7454C54.5435 72.9351 54.5003 73.1384 54.4968 73.3444C54.5013 73.3623 54.5096 73.379 54.5209 73.3935C54.5323 73.408 54.5466 73.42 54.5629 73.4287C54.5819 73.6504 54.5665 73.8738 54.517 74.0908C54.4414 74.2578 54.3904 74.4297 54.341 74.5963C54.341 74.5963 54.3401 74.6452 54.3074 74.6667C54.2746 74.6882 54.2358 74.7657 54.2246 74.82C54.2106 74.8952 54.1885 74.9688 54.1587 75.0392C54.1343 75.0799 54.1017 75.115 54.0628 75.1421C54.0248 75.162 53.9285 75.1462 53.9178 75.1342C53.9072 75.1222 53.8356 75.12 53.792 75.1207C53.7768 75.1219 53.7615 75.121 53.7466 75.1181C53.6653 74.9596 53.6054 74.7912 53.5685 74.617L53.5572 74.2752L53.5417 73.8917C53.5236 73.8571 53.5561 73.8181 53.5711 73.7795C53.5861 73.7408 53.5669 73.2492 53.5701 73.2299C53.5909 73.1266 53.5733 73.017 53.6536 72.9179C53.6596 72.9093 53.6638 72.8997 53.6661 72.8894C53.6683 72.8792 53.6684 72.8686 53.6665 72.8583C53.6846 72.6755 53.7181 72.4946 53.7668 72.3175C53.7862 72.2281 53.7897 72.1339 53.8038 72.0429C53.8077 72.0254 53.8158 72.009 53.8274 71.9954C53.8366 71.9752 53.8433 71.954 53.8472 71.9322C53.873 71.7119 53.9425 71.4996 53.9456 71.278C53.9481 71.2238 54.0714 70.9966 54.0791 70.9354C54.0867 70.8742 54.2028 70.8268 54.19 70.7938Z" fill="#121224"/>
</svg>
