<svg width="80" height="80" viewBox="0 0 80 80" fill="none" xmlns="http://www.w3.org/2000/svg">
<g id="Free Icons-30">
<circle id="Ellipse 1397" cx="41.198" cy="21.1335" r="11.321" fill="#F05537"/>
<circle id="Ellipse 1398" cx="41.198" cy="59.2624" r="11.321" fill="#F05537"/>
<g id="Layer 31">
<path id="Vector" d="M13.5003 36.8373C13.505 36.7783 13.5214 36.7209 13.5485 36.6684C13.5757 36.6159 13.6131 36.5694 13.6585 36.5316C13.7039 36.4937 13.7565 36.4653 13.813 36.4481C13.8695 36.4308 13.929 36.425 13.9878 36.431C15.219 36.5435 13.3753 38.1248 13.5003 36.8373Z" stroke="#121224" stroke-width="0.5" stroke-miterlimit="10"/>
<path id="Vector_2" d="M33.1257 36.2501C31.6257 36.2501 30.1257 36.2501 28.6132 36.1064C27.0553 36.0113 25.518 35.7021 24.0444 35.1876C23.8125 35.104 23.5886 34.9994 23.3757 34.8751C23.1189 34.725 22.878 34.5491 22.6569 34.3501C22.4859 34.1277 22.3625 33.8723 22.2944 33.6001C22.2444 33.3689 22.2257 33.2251 22.1944 33.0439C22.1444 32.7001 22.1132 32.3689 22.0819 32.0376C21.7757 28.1689 21.6944 24.3751 21.4757 20.6251C21.3882 18.9439 21.2569 17.2564 21.0944 15.6251C20.8819 13.4876 20.5882 11.3689 20.5069 9.22511C20.4757 8.56261 20.6882 8.60011 21.0444 9.12511C21.281 9.47498 21.49 9.84276 21.6694 10.2251C21.8957 10.7537 22.0573 11.3077 22.1507 11.8751C22.75 16.2249 23.0631 20.6093 23.0882 25.0001C23.0882 26.3251 23.1819 27.6751 23.2757 29.0251C23.3694 30.3751 23.4694 31.7501 23.6444 33.0126L23.6882 33.2439C23.6882 33.2814 23.6882 33.3251 23.7444 33.3439C23.8007 33.3626 23.8694 33.4564 23.9882 33.5376C24.1069 33.6189 24.2382 33.6751 24.3632 33.7564C24.4963 33.8317 24.6341 33.8985 24.7757 33.9564C24.9158 34.0265 25.0623 34.083 25.2132 34.1251C25.5225 34.2241 25.8377 34.3034 26.1569 34.3626C26.4694 34.4376 26.7819 34.4876 27.1257 34.5376C28.4599 34.7186 29.8043 34.8147 31.1507 34.8251C32.9632 34.8564 34.7882 34.8251 36.6069 34.6939C39.3632 34.5314 42.1319 34.2814 44.8632 33.9376C46.9819 33.6689 49.0444 33.3126 51.1132 32.9501L52.4882 32.7189C53.1045 32.5916 53.7354 32.5495 54.3632 32.5939C54.6719 32.6017 54.9717 32.6995 55.2257 32.8751C55.3213 32.9329 55.4094 33.0022 55.4882 33.0814C55.5694 33.2001 55.4382 33.3189 55.1507 33.4439C54.7003 33.6274 54.2364 33.7757 53.7632 33.8876C50.0569 34.6251 46.0944 35.2189 42.0944 35.6376C39.1194 35.9501 36.1132 36.1564 33.0944 36.2251L33.1257 36.2501Z" fill="#121224"/>
<path id="Vector_3" d="M55.2699 23.0618L55.3324 20.4368C55.3324 20.1181 55.3324 19.8118 55.3324 19.4806C55.3324 18.3556 55.3887 17.2243 55.3762 16.0931C55.3762 15.5931 55.3137 15.0931 55.2887 14.5993C55.2095 13.9672 55.1865 13.3293 55.2199 12.6931C55.2199 12.4931 55.4699 12.4931 55.7262 12.6368C55.8799 12.7183 56.0148 12.831 56.1224 12.9677C56.2301 13.1044 56.308 13.262 56.3512 13.4306C56.6082 14.7241 56.6943 16.0458 56.6074 17.3618C56.5637 18.1556 56.6824 18.9681 56.7074 19.7743C56.7324 20.5806 56.7574 21.5493 56.7512 22.4368V24.0743C56.7512 24.8993 56.7512 25.7306 56.7512 26.5743C56.7512 27.1993 56.8762 27.8243 56.9199 28.4868C56.9199 28.6306 56.9199 28.7681 56.9199 28.9118C56.9199 29.4493 56.7449 29.6243 56.3637 29.6868C56.2793 29.7069 56.1937 29.7215 56.1074 29.7306C55.8199 29.7306 55.5949 29.5056 55.4824 29.1493C55.2871 28.0184 55.1971 26.8718 55.2137 25.7243C55.2137 24.8431 55.2137 23.9618 55.2137 23.0868L55.2699 23.0618Z" fill="#121224"/>
<path id="Vector_4" d="M41.9377 6.72461C40.3127 6.81211 38.6835 6.91419 37.0502 7.03086C36.4252 7.07461 35.8627 7.16211 35.2627 7.19961C33.1564 7.34961 31.0439 7.44961 28.9189 7.46836C27.9814 7.46836 27.0439 7.46836 26.0939 7.46836C25.4689 7.46836 24.8877 7.46836 24.2814 7.38711C23.6761 7.32208 23.0791 7.19431 22.5002 7.00586C22.1377 6.88711 22.2314 6.74961 22.5689 6.63711C23.0878 6.47693 23.6261 6.38861 24.1689 6.37461C26.5252 6.49961 28.9314 6.37461 31.3627 6.28086C32.8189 6.24336 34.3314 6.03086 35.8252 5.88086C37.4627 5.72461 39.1127 5.57461 40.7627 5.45586C41.7814 5.38086 42.8002 5.33086 43.8189 5.28086C45.3627 5.20586 46.9439 5.19961 48.4627 5.21211C49.6564 5.21211 50.8377 5.21211 52.0377 5.25586C52.3002 5.25586 52.5564 5.28711 52.8252 5.31836C53.8064 5.44336 54.0752 5.62461 54.2314 6.01211C54.2682 6.09848 54.2954 6.18859 54.3127 6.28086C54.3127 6.57461 53.9127 6.73711 53.2252 6.70586C51.1689 6.63711 49.0252 6.55586 46.8439 6.57461C45.2189 6.57461 43.5877 6.64961 41.9502 6.76211L41.9377 6.72461Z" fill="#121224"/>
<path id="Vector_5" d="M49.3758 16.6935C48.0258 18.3372 46.7445 20.0622 45.532 21.8372C45.0883 22.4622 44.707 23.1685 44.282 23.8247L43.032 25.7935L42.407 26.7935L41.4258 28.3747C41.2283 28.6574 40.9643 28.8871 40.657 29.0435C40.6288 29.0671 40.5953 29.0834 40.5593 29.091C40.5234 29.0986 40.4861 29.0973 40.4508 29.0872C40.3782 29.0651 40.3089 29.0335 40.2445 28.9935C40.1024 28.911 39.9703 28.8125 39.8508 28.6997C39.5489 28.3708 39.2925 28.003 39.0883 27.606C38.9695 27.3997 38.8508 27.1935 38.7383 26.981L38.4945 26.5247C37.9137 25.4454 37.2688 24.4019 36.5633 23.3997C36.1133 22.7747 35.6445 22.1497 35.1508 21.5872C34.7013 21.0277 34.1801 20.5297 33.6008 20.106C33.2758 19.9185 33.332 19.5935 33.8883 19.481C34.3045 19.4376 34.7252 19.4874 35.1198 19.6269C35.5144 19.7663 35.873 19.9919 36.1695 20.2872C37.376 21.4716 38.4262 22.8053 39.2945 24.256C39.5133 24.5997 39.7258 24.956 39.9195 25.306L40.232 25.831C40.232 25.8935 40.232 25.881 40.232 25.8872V25.9497C40.2497 26.0324 40.2727 26.1138 40.3008 26.1935C40.3008 26.1935 40.3445 26.3435 40.3695 26.3122L40.4508 26.2685L40.5008 26.2247C40.5434 26.186 40.583 26.1443 40.6195 26.0997L40.682 26.0185L40.8508 25.731C41.0945 25.3247 41.332 24.9122 41.5758 24.481C42.057 23.6622 42.532 22.831 43.0508 22.031C44.2674 20.1768 45.5424 18.3664 46.8758 16.5997C47.7008 15.5185 48.5508 14.456 49.4383 13.4247C50.7984 11.8499 52.2599 10.3655 53.8133 8.98098C54.9897 7.85488 56.2896 6.86527 57.6883 6.03098C58.0062 5.8387 58.3409 5.67553 58.6883 5.54348C60.0195 5.04973 60.5633 5.19973 60.8883 5.69973C60.9742 5.80903 61.0495 5.92622 61.1133 6.04973C61.1502 6.1611 61.1514 6.28123 61.1166 6.39331C61.0819 6.50538 61.013 6.60378 60.9195 6.67473C60.6578 6.89543 60.3651 7.07652 60.0508 7.21223C57.6759 8.43748 55.5198 10.0466 53.6695 11.9747C52.1634 13.4786 50.7484 15.071 49.432 16.7435L49.3758 16.6935Z" fill="#121224"/>
<path id="Vector_6" d="M31.8759 36.9369C30.4942 36.9199 29.1148 36.8218 27.7446 36.6432C26.3425 36.4678 24.9687 36.1128 23.6571 35.5869C23.4196 35.4682 23.1696 35.3744 22.9446 35.2369L22.6134 34.9994L22.4321 34.8869C22.3501 34.8261 22.2765 34.7547 22.2134 34.6744C22.0119 34.4174 21.871 34.1184 21.8009 33.7994C21.7284 33.5445 21.67 33.2858 21.6259 33.0244C21.3853 31.2749 21.233 29.5143 21.1696 27.7494L20.9134 22.4994C20.8384 20.9557 20.7384 19.3744 20.6009 17.8744C20.4196 15.9057 20.1759 13.9494 20.0446 11.9869C20.0009 11.3619 20.1509 11.4244 20.4196 11.9119C20.5986 12.2427 20.7552 12.5852 20.8884 12.9369C21.0593 13.4385 21.1807 13.9555 21.2509 14.4807C21.7536 18.5102 22.0353 22.5641 22.0946 26.6244C22.0946 27.8369 22.2009 29.0744 22.3134 30.3119C22.3634 30.9369 22.4321 31.5619 22.5196 32.1869C22.5868 32.7658 22.7082 33.337 22.8821 33.8932C22.9033 33.945 22.9283 33.9952 22.9571 34.0432C22.9708 34.0717 22.9926 34.0956 23.0196 34.1119L23.4071 34.3619C23.6759 34.5244 23.9634 34.6744 24.2509 34.8182C24.5504 34.9569 24.8595 35.0739 25.1759 35.1682C25.492 35.2705 25.8133 35.356 26.1384 35.4244C27.4543 35.7133 28.7925 35.889 30.1384 35.9494C31.8039 36.0363 33.4728 36.0363 35.1384 35.9494C37.6759 35.8307 40.2259 35.6057 42.7321 35.2807C44.6821 35.0307 46.5821 34.6869 48.5071 34.3807L49.7571 34.1744C51.3509 33.9307 51.9071 34.0682 52.2571 34.2619C52.3413 34.2927 52.4229 34.3303 52.5009 34.3744C52.6384 34.5432 52.0321 34.6682 50.8884 34.9307C47.4821 35.5557 43.8384 36.1307 40.1571 36.4994C37.4077 36.8105 34.6428 36.9649 31.8759 36.9619V36.9369Z" fill="#121224"/>
<path id="Vector_7" d="M33.7508 74.3312C32.257 74.3312 30.7508 74.3312 29.2445 74.1874C27.6847 74.0917 26.1453 73.7826 24.6695 73.2687C24.3771 73.1554 24.0948 73.0174 23.8258 72.8562L23.3633 72.4937C23.2667 72.4306 23.1923 72.3388 23.1508 72.2312C23.0859 72.1348 23.0354 72.0295 23.0008 71.9187C22.9577 71.8162 22.9263 71.7093 22.907 71.5999C22.907 71.5249 22.8758 71.4374 22.8633 71.3687L22.8008 70.9437C22.7633 70.6624 22.732 70.3937 22.7133 70.1187C22.432 66.2812 22.3508 62.5062 22.132 58.7062C22.0445 57.0249 21.9133 55.3374 21.7508 53.7062C21.532 51.5687 21.2383 49.4499 21.1633 47.3062C21.132 46.6437 21.3383 46.6812 21.6945 47.2062C21.9291 47.5573 22.138 47.9249 22.3195 48.3062C22.5458 48.8348 22.7073 49.3888 22.8008 49.9562C23.3905 54.3213 23.6953 58.7202 23.7133 63.1249C23.7133 64.4499 23.807 65.7999 23.9008 67.1499C23.9945 68.4999 24.0883 69.8749 24.2633 71.1374C24.332 71.5124 24.2633 71.3874 24.532 71.6062C24.7967 71.7852 25.077 71.94 25.3695 72.0687C26.0221 72.3302 26.7042 72.5108 27.4008 72.6062C28.8487 72.8282 30.311 72.9431 31.7758 72.9499C33.5883 72.9812 35.4133 72.9499 37.232 72.8187C39.9883 72.6562 42.7633 72.4062 45.4883 72.0624C47.6133 71.7937 49.6758 71.4374 51.7383 71.0749L53.1133 70.8437C53.7296 70.7164 54.3605 70.6743 54.9883 70.7187C55.2984 70.7298 55.5992 70.8272 55.857 70.9999C55.9493 71.0596 56.0352 71.1288 56.1133 71.2062C56.2008 71.3249 56.0695 71.4437 55.7758 71.5687C55.3258 71.7531 54.8618 71.9015 54.3883 72.0124C50.6883 72.7499 46.7258 73.3437 42.7195 73.7624C39.7445 74.0749 36.7445 74.2874 33.7258 74.3562L33.7508 74.3312Z" fill="#121224"/>
<path id="Vector_8" d="M55.8875 61.1812L55.95 58.5499C55.95 58.2312 55.95 57.9249 55.95 57.5937C55.95 56.4687 56.0125 55.3374 55.9937 54.2062C55.9937 53.7062 55.9312 53.2124 55.9062 52.7124C55.8279 52.0907 55.807 51.463 55.8437 50.8374C55.8437 50.6437 56.0937 50.6374 56.35 50.7812C56.5036 50.8627 56.6386 50.9754 56.7462 51.1121C56.8538 51.2488 56.9318 51.4064 56.975 51.5749C57.235 52.8681 57.3212 54.1902 57.2312 55.5062C57.1875 56.2999 57.3062 57.1124 57.3375 57.9187C57.3687 58.7249 57.3812 59.6937 57.375 60.5812V62.1874C57.375 63.0124 57.375 63.8437 57.375 64.6874C57.375 65.3124 57.4937 65.9374 57.5437 66.5999C57.5437 66.7437 57.5437 66.8812 57.5437 67.0249C57.5062 67.5624 57.3687 67.7374 56.9875 67.7999C56.9011 67.8206 56.8134 67.8352 56.725 67.8437C56.4375 67.8437 56.2125 67.6187 56.1 67.2624C55.8983 66.1323 55.8082 64.9851 55.8312 63.8374C55.8312 62.9562 55.8312 62.0749 55.8312 61.1999L55.8875 61.1812Z" fill="#121224"/>
<path id="Vector_9" d="M42.5631 44.8366C40.9381 44.9241 39.3089 45.0262 37.6756 45.1429C37.0506 45.1929 36.4819 45.2741 35.8881 45.3116C33.7819 45.4616 31.6631 45.5679 29.5444 45.5804C28.6006 45.5804 27.6694 45.5804 26.7131 45.5804C26.0881 45.5804 25.5069 45.5804 24.9006 45.5054C24.2979 45.4335 23.7035 45.3038 23.1256 45.1179C22.7631 44.9991 22.8569 44.8616 23.2006 44.7491C23.7174 44.5894 24.2536 44.5011 24.7944 44.4866C27.1506 44.6116 29.5569 44.4866 31.9881 44.3929C33.4506 44.3554 34.9569 44.1429 36.4506 43.9929C38.0944 43.8366 39.7381 43.6866 41.3944 43.5679C42.4069 43.4929 43.4319 43.4429 44.4506 43.3929C45.9944 43.3241 47.5756 43.3179 49.0881 43.3241C50.2881 43.3241 51.4694 43.3241 52.6631 43.3679C52.9256 43.3679 53.1881 43.3679 53.4506 43.4304C54.4319 43.5554 54.7006 43.7366 54.8569 44.1241C54.8927 44.2114 54.922 44.3012 54.9444 44.3929C54.9444 44.6866 54.5444 44.8491 53.8506 44.8179C51.8006 44.7491 49.6506 44.6679 47.4694 44.6866C45.8506 44.6866 44.2131 44.7616 42.5756 44.8741L42.5631 44.8366Z" fill="#121224"/>
<path id="Vector_10" d="M50.0008 54.8058C48.6508 56.4495 47.3695 58.1745 46.157 59.9495C45.7195 60.5745 45.332 61.2808 44.907 61.937L43.7508 63.6808L43.1945 64.562L42.9195 64.9995L42.5008 65.737C42.3694 65.9771 42.2233 66.2088 42.0633 66.4308L41.8383 66.7308C41.8039 66.7791 41.7663 66.825 41.7258 66.8683L41.6133 66.9433L41.3945 67.0995L41.2008 67.1995C40.9945 67.1995 40.8758 67.0995 40.7195 67.0058C40.3431 66.7105 40.0377 66.3347 39.8258 65.9058C39.5508 65.4558 39.2445 64.8745 39.1195 64.6558C38.5411 63.5752 37.8961 62.5315 37.1883 61.5308C36.7506 60.9032 36.2812 60.2982 35.782 59.7183C35.3287 59.1601 34.8057 58.6622 34.2258 58.237C33.9008 58.0495 33.957 57.7245 34.5133 57.612C34.9296 57.5682 35.3504 57.6178 35.745 57.7573C36.1397 57.8968 36.4982 58.1226 36.7945 58.4183C38.001 59.6027 39.0512 60.9364 39.9195 62.387C40.1383 62.737 40.3508 63.087 40.5445 63.437L40.8508 63.962C40.8883 64.0245 40.8508 64.012 40.8508 64.0183V64.0808C40.8626 64.1641 40.8836 64.2458 40.9133 64.3245C40.9133 64.3245 40.9633 64.4745 40.9883 64.4433L41.0695 64.3995C41.1117 64.367 41.1495 64.3292 41.182 64.287L41.2508 64.212V64.1683L41.2945 64.0933L42.057 62.7995C42.5633 61.9308 43.0695 61.0558 43.6133 60.212C44.807 58.337 46.0695 56.537 47.407 54.7808C48.2404 53.6933 49.0966 52.6329 49.9758 51.5995C51.3241 50.0241 52.7752 48.5396 54.3195 47.1558C55.4982 46.0296 56.8002 45.04 58.2008 44.2058C58.5174 44.0111 58.8524 43.8478 59.2008 43.7183C60.5258 43.2245 61.0758 43.3745 61.4008 43.8745C61.4848 43.9839 61.558 44.1011 61.6195 44.2245C61.6574 44.3358 61.6591 44.4563 61.6243 44.5685C61.5895 44.6808 61.52 44.7792 61.4258 44.8495C61.1664 45.0704 60.8758 45.2515 60.5633 45.387C58.2282 46.5948 56.1048 48.1737 54.2758 50.062C52.7717 51.566 51.3588 53.1584 50.0445 54.8308L50.0008 54.8058Z" fill="#121224"/>
<path id="Vector_11" d="M33.3812 74.9995C30.5687 74.9995 27.7124 74.8745 24.9249 73.9557L24.4312 73.787L23.9499 73.5557C23.6196 73.3971 23.302 73.2132 22.9999 73.0057C22.7919 72.824 22.6347 72.5914 22.5437 72.3307C22.4719 72.1413 22.4135 71.947 22.3687 71.7495C22.0517 69.9547 21.8617 68.1397 21.7999 66.3182L21.5187 60.9432C21.4374 59.3557 21.3249 57.762 21.1874 56.1932C20.9999 54.1745 20.7499 52.1682 20.6062 50.1557C20.5624 49.5307 20.7124 49.5807 20.9812 50.0807C21.1655 50.4192 21.3263 50.7701 21.4624 51.1307C21.6369 51.6388 21.7645 52.1618 21.8437 52.6932C22.3518 56.8272 22.6418 60.985 22.7124 65.1495C22.7562 66.3995 22.8374 67.6495 22.9624 68.8995C23.0249 69.5245 23.0999 70.1495 23.1999 70.7745C23.2562 71.0745 23.3124 71.3995 23.3874 71.6557C23.4212 71.868 23.5047 72.0694 23.6312 72.2432L23.6874 72.2807C24.8245 73.0047 26.1029 73.4777 27.4374 73.6682C28.8054 73.8991 30.188 74.0328 31.5749 74.0682C33.2874 74.1182 35.0062 74.0682 36.7249 73.9807C39.3312 73.8307 41.9437 73.5682 44.5187 73.2307C46.5187 72.962 48.4687 72.6057 50.4374 72.287L51.7374 72.0807C53.3687 71.8245 53.9374 71.9557 54.2999 72.1557C54.3851 72.1955 54.4649 72.2459 54.5374 72.3057C54.6124 72.3932 54.4812 72.4682 54.1999 72.5495C53.9187 72.6307 53.4687 72.7495 52.8812 72.8745C49.3874 73.4995 45.6562 74.1245 41.8812 74.5182C39.0812 74.8245 36.2562 75.037 33.3999 75.0682L33.3812 74.9995Z" fill="#121224"/>
<path id="Vector_12" d="M64.6692 11.0375C64.6739 10.9785 64.6903 10.9211 64.7175 10.8686C64.7447 10.8161 64.7821 10.7696 64.8275 10.7318C64.8729 10.6939 64.9254 10.6655 64.9819 10.6483C65.0385 10.631 65.0979 10.6252 65.1567 10.6312C66.388 10.7437 64.5442 12.3312 64.6692 11.0375Z" stroke="#121224" stroke-width="0.5" stroke-miterlimit="10"/>
<path id="Vector_13" d="M65.5876 54.1869C65.593 54.1277 65.6102 54.0702 65.638 54.0176C65.6659 53.9651 65.7038 53.9186 65.7497 53.8808C65.7957 53.843 65.8486 53.8147 65.9055 53.7976C65.9624 53.7804 66.0222 53.7746 66.0813 53.7806C67.3126 53.8931 65.4688 55.4806 65.5876 54.1869Z" stroke="#121224" stroke-width="0.5" stroke-miterlimit="10"/>
<path id="Vector_14" d="M59.5062 18.3933C59.6002 18.4322 59.6754 18.506 59.7162 18.5992C59.757 18.6924 59.7601 18.7978 59.7249 18.8933C59.3749 19.8683 58.4812 17.9995 59.5062 18.3933Z" fill="#121224"/>
</g>
</g>
</svg>
