<svg width="81" height="80" viewBox="0 0 81 80" fill="none" xmlns="http://www.w3.org/2000/svg">
<g id="Free Icons-39">
<ellipse id="Ellipse 1354" cx="38.0172" cy="22.8977" rx="8.26719" ry="8.22874" fill="#F05537"/>
<ellipse id="Ellipse 1355" cx="64.4205" cy="50.7853" rx="7.64804" ry="7.61246" fill="#F05537"/>
<g id="Layer 43">
<path id="Vector" d="M26.2248 43.5057C27.5076 44.5528 28.4747 45.9354 29.0185 47.4994C29.2269 48.0598 29.3675 48.6431 29.4373 49.2369C29.4977 49.7618 29.5081 50.2913 29.4685 50.8182L29.331 51.5994C29.2873 51.8619 29.1935 52.1057 29.1248 52.3619C28.7716 53.3427 28.2206 54.2405 27.506 54.9994C26.8727 55.6712 26.1338 56.2349 25.3185 56.6682C24.2887 57.2432 23.1351 57.5605 21.956 57.5932C21.5935 57.5932 21.6435 57.4994 21.956 57.3744C22.4185 57.1829 22.8923 57.0201 23.3748 56.8869C24.4683 56.6053 25.4868 56.0871 26.3583 55.369C27.2297 54.6508 27.933 53.7502 28.4185 52.7307C28.6871 52.0981 28.8558 51.4276 28.9185 50.7432C28.9551 50.0453 28.9005 49.3456 28.756 48.6619C28.4319 47.1467 27.6867 45.7537 26.606 44.6432C25.9471 43.9518 25.1677 43.3864 24.306 42.9744C23.6495 42.6743 22.9488 42.4822 22.231 42.4057C22.0498 42.4057 21.8685 42.3619 21.6935 42.3619H21.1498C20.7865 42.3727 20.4247 42.4145 20.0685 42.4869C18.966 42.6752 17.9071 43.0628 16.9435 43.6307L16.3185 44.0182C15.9373 44.2682 15.6935 44.4432 15.4998 44.5494C15.363 44.6201 15.2149 44.6666 15.0623 44.6869C15.0103 44.6924 14.958 44.6924 14.906 44.6869C14.7873 44.6869 15.0123 44.3557 15.531 43.9244C16.3651 43.2615 17.2998 42.7361 18.2998 42.3682C18.8174 42.1878 19.3481 42.0478 19.8873 41.9494C20.156 41.8932 20.4248 41.8557 20.6998 41.8182L21.5435 41.7744C23.2368 41.7878 24.8756 42.3737 26.1935 43.4369L26.2248 43.5057Z" fill="#121224"/>
<path id="Vector_2" d="M63.9127 58.5558C63.1869 58.541 62.4635 58.4657 61.7502 58.3308C61.3939 58.2683 61.0377 58.1933 60.6877 58.1058C60.5127 58.0642 60.3377 58.0142 60.1627 57.9558L59.9564 57.8808C59.9379 57.8851 59.9187 57.8851 59.9002 57.8808C59.8892 58.089 59.8892 58.2976 59.9002 58.5058C59.9002 58.7683 59.9564 59.0246 60.0064 59.2871C60.3064 61.1621 60.7627 63.0371 61.1189 64.9121C61.2752 65.7496 61.4377 66.5933 61.5689 67.4121C61.7625 68.4884 61.8505 69.5811 61.8314 70.6746C61.8314 71.0121 61.8314 70.9683 61.7439 70.6746C61.6564 70.3808 61.6627 70.2808 61.6252 70.0871C61.5877 69.8933 61.4814 69.5683 61.4502 69.2558C61.1689 67.0746 60.7064 64.9121 60.2877 62.7183C60.0439 61.3996 59.6939 60.0496 59.5439 58.6683C59.5439 58.5058 59.5439 58.3371 59.5439 58.1683V57.9121V57.5246C59.6002 57.5246 59.7002 57.4621 59.7189 57.4871H59.7939C59.7939 57.4871 59.7939 57.4871 59.8439 57.4871L59.8939 57.4371C59.8939 57.3746 59.9877 57.4371 60.0377 57.4371L60.1502 57.4808C60.2814 57.5183 60.4064 57.5621 60.5377 57.5933C60.8002 57.6683 61.0627 57.7246 61.3252 57.7808C61.8604 57.8859 62.4007 57.963 62.9439 58.0121C63.851 58.1177 64.7692 58.0755 65.6627 57.8871C67.0284 57.6323 68.3139 57.056 69.4127 56.2058C69.8172 55.8998 70.1825 55.545 70.5002 55.1496C70.7965 54.7245 71.04 54.2648 71.2252 53.7808C71.3094 53.5766 71.3824 53.368 71.4439 53.1558C71.6689 52.3308 71.7127 52.0621 71.8752 51.9058C71.9127 51.8683 71.9502 51.8183 71.9814 51.7933C72.0127 51.7683 72.1377 52.0933 72.0189 52.7496C71.8367 53.7702 71.4147 54.7331 70.7878 55.5588C70.1608 56.3846 69.3468 57.0498 68.4127 57.4996C67.7172 57.8505 66.983 58.119 66.2252 58.2996C65.4704 58.4954 64.6922 58.5858 63.9127 58.5683V58.5558Z" fill="#121224"/>
<path id="Vector_3" d="M28.2566 75.3375C21.9003 76.8562 10.8941 75.9625 9.34406 74.6562C7.58156 73.125 14.4191 71.875 14.4191 71.875C14.7277 72.8372 15.3329 73.677 16.148 74.2742C16.963 74.8715 17.9461 75.1955 18.9566 75.2C22.6503 75.3375 28.2566 75.3375 28.2566 75.3375Z" fill="#121224"/>
<path id="Vector_4" d="M56.938 74.9438C52.863 75.8563 41.463 77.075 39.0443 74.9063C37.5255 73.5438 46.063 72.4062 46.063 72.4062C46.063 72.4062 44.4505 73.8187 44.7318 74.1437C45.013 74.4687 56.938 74.9438 56.938 74.9438Z" fill="#121224"/>
<path id="Vector_5" d="M36.3697 15.8498C35.0261 16.0578 33.782 16.6835 32.8139 17.6381C31.8458 18.5928 31.2028 19.8279 30.976 21.1685C30.8199 22.1719 30.8517 23.1955 31.0697 24.1873C31.2271 24.9262 31.4552 25.6483 31.751 26.3435C31.901 26.6935 32.0697 27.0373 32.2385 27.3748L32.376 27.631C32.4385 27.7498 32.5385 27.9185 32.626 28.056C32.8197 28.3435 33.001 28.631 33.2135 28.9123L33.501 29.4685V29.8498V29.9935C33.501 30.031 33.4635 30.1185 33.4135 30.1435C33.3104 30.2201 33.1967 30.2811 33.076 30.3248C32.9152 30.3861 32.7471 30.426 32.576 30.4435C32.3554 30.4594 32.134 30.4594 31.9135 30.4435C31.451 30.4435 30.9322 30.381 30.5322 30.3373C29.376 30.1998 28.2197 30.0935 27.0635 30.006C25.3197 29.8748 23.5635 29.806 21.8385 29.806C20.7322 29.806 19.6197 29.856 18.526 29.956C17.976 29.9998 17.4322 30.0435 16.901 30.131C16.6359 30.1719 16.3731 30.2262 16.1135 30.2935C15.852 30.3348 15.5961 30.4061 15.351 30.506C15.0635 30.6498 14.9635 30.7498 14.9385 30.7185C14.9135 30.6873 14.9822 30.5248 15.1947 30.2935C15.4955 29.9625 15.856 29.6911 16.2572 29.4935C16.8098 29.2239 17.3964 29.0305 18.001 28.9185C20.3027 28.6189 22.625 28.5081 24.9447 28.5873C26.101 28.5873 27.251 28.656 28.3947 28.7248C28.9697 28.7623 29.5447 28.7935 30.1197 28.8185H30.5447H30.651H30.6822H30.726L30.9447 28.8685C31.0583 28.89 31.1749 28.89 31.2885 28.8685L31.1197 28.6185C31.0857 28.55 31.0481 28.4832 31.0072 28.4185L30.851 28.1498L30.651 27.7935C30.397 27.3114 30.1716 26.8147 29.976 26.306C29.5793 25.2979 29.3349 24.2362 29.251 23.156C29.202 22.3181 29.265 21.4773 29.4385 20.656C29.5319 20.2462 29.6467 19.8415 29.7822 19.4435C29.9342 19.045 30.1159 18.6585 30.326 18.2873C31.1815 16.8272 32.4642 15.6646 34.001 14.956C34.9324 14.5405 35.928 14.2868 36.9447 14.206C37.9422 14.0998 38.9496 14.1313 39.9385 14.2998C41.4553 14.5544 42.8794 15.2007 44.0697 16.1748C45.2567 17.1765 46.1202 18.5075 46.551 19.9998C47.1844 22.2743 47.0348 24.6957 46.126 26.8748C45.9438 27.3507 45.7351 27.816 45.501 28.2685C45.1773 28.8565 44.7687 29.3935 44.2885 29.8623C44.0537 30.0968 43.7527 30.2539 43.426 30.3123C43.3072 30.3123 43.1822 30.381 43.101 30.3873C42.851 30.3873 43.051 29.6185 43.5885 28.4623C43.9697 27.5935 44.3635 26.7373 44.6572 25.856C44.9532 24.9723 45.1359 24.0545 45.201 23.1248C45.4129 21.3425 44.9194 19.5481 43.826 18.1248C42.9679 17.0879 41.8042 16.3486 40.501 16.0123C39.15 15.6515 37.7338 15.6087 36.3635 15.8873L36.3697 15.8498Z" fill="#121224"/>
<path id="Vector_6" d="M61.8625 31.4245C61.866 31.3787 61.8787 31.334 61.9 31.2933V31.2558C61.9 31.2558 61.9 31.2058 61.9 31.1933L61.825 31.1433L61.3188 30.962C60.6253 30.7243 59.9177 30.5301 59.2 30.3808C58.6688 30.2808 58.1313 30.2183 57.5938 30.1433C55.6835 29.848 53.7514 29.7183 51.8188 29.7558C50.9585 29.7864 50.1007 29.8678 49.25 29.9995C48.1625 30.1433 47.1063 30.4245 46.0125 30.512C45.6688 30.512 45.6438 30.3183 45.8688 29.9995C46.0092 29.7994 46.1776 29.6205 46.3688 29.4683C46.6113 29.279 46.8933 29.1466 47.1938 29.0808C49.4653 28.548 51.8076 28.3834 54.1313 28.5933C55.5188 28.712 56.9688 28.7308 58.3813 28.9433C59.1563 29.0683 59.9313 29.212 60.7 29.412C61.0813 29.5183 61.4688 29.6183 61.8438 29.7558L62.1313 29.8558L62.2688 29.9058L62.4625 29.987C62.7175 30.1012 62.9621 30.2371 63.1938 30.3933C63.2479 30.5337 63.2917 30.6778 63.325 30.8245C63.3306 30.9992 63.3116 31.1738 63.2688 31.3433L63.0938 32.1245L62.7875 33.5058C62.4875 34.9058 62.1625 36.3058 62.0125 37.7058C61.8884 38.7803 61.8321 39.8616 61.8438 40.9433V41.6433C61.8438 42.512 61.8438 42.7808 61.5125 42.9995C61.4484 43.0555 61.3794 43.1057 61.3063 43.1495C61.075 43.2683 60.8188 42.912 60.6813 42.2245C60.4737 40.1547 60.5536 38.0661 60.9188 36.0183C61.15 34.4808 61.4688 32.9495 61.7688 31.4495L61.8625 31.4245Z" fill="#121224"/>
<path id="Vector_7" d="M18.8445 42.3939C20.2927 42.0128 21.8149 42.0128 23.2632 42.3939C24.7114 42.822 26.0036 43.6624 26.982 44.8127C27.7065 45.6234 28.265 46.5683 28.6257 47.5939C28.9224 48.4924 29.0599 49.4357 29.032 50.3814C28.9875 51.3232 28.7846 52.2508 28.432 53.1252C27.6981 54.8361 26.4044 56.2466 24.7632 57.1252C23.347 57.8891 21.7598 58.2806 20.1507 58.2627C18.0792 58.2843 16.0836 57.4842 14.6007 56.0377C14.1445 55.6002 14.3882 55.4877 14.957 55.5877C15.2507 55.6252 15.582 55.7627 16.0132 55.8627C16.4633 55.9865 16.9058 56.1368 17.3382 56.3127C18.9893 57.0015 20.8263 57.1051 22.5445 56.6064C23.3925 56.3429 24.1924 55.944 24.9132 55.4252C25.6173 54.8839 26.2239 54.2266 26.707 53.4814C27.2288 52.5146 27.5021 51.4332 27.5021 50.3346C27.5021 49.2359 27.2288 48.1545 26.707 47.1877C26.1518 46.1059 25.3165 45.1929 24.2882 44.5439C23.2366 43.9183 22.0225 43.6202 20.8007 43.6877C19.2402 43.7886 17.7219 44.2371 16.357 45.0002C16.0882 45.1439 15.832 45.2939 15.5695 45.4502L15.0695 45.7689L14.507 46.1627L14.107 46.3689C14.0063 46.4093 13.9015 46.4387 13.7945 46.4564C13.5945 46.4564 13.4757 46.2439 13.3882 45.9939C13.2977 45.6907 13.2411 45.3784 13.2195 45.0627L13.1445 44.1502C13.0757 43.2064 13.0257 42.2752 12.982 41.3314C12.8882 39.4002 12.7695 37.5002 12.8195 35.5627C12.8195 35.1377 12.8195 34.7189 12.8757 34.3127C12.8978 33.7318 13.0117 33.158 13.2132 32.6127C13.3314 32.3491 13.5307 32.1301 13.782 31.9877C13.8692 31.9311 13.9638 31.8869 14.0632 31.8564C14.2007 31.8564 14.2445 31.9814 14.2695 32.2627C14.3074 32.6785 14.3074 33.0969 14.2695 33.5127C14.157 35.1439 14.2007 36.8752 14.2695 38.6252C14.3382 40.3752 14.432 42.1502 14.582 43.9189V44.3064C14.582 44.3064 14.582 44.3064 14.6132 44.3064L14.7507 44.2189L15.0382 44.0439C15.4257 43.8127 15.8132 43.5877 16.2257 43.4189C17.0489 43.0126 17.9118 42.6922 18.8007 42.4627L18.8445 42.3939Z" fill="#121224"/>
<path id="Vector_8" d="M32.1875 73.6815V73.644L32.1 73.4565C31.975 73.194 31.875 72.9253 31.7687 72.6628C31.5624 72.1229 31.3933 71.5695 31.2625 71.0065C30.9939 69.8622 30.9304 68.6793 31.075 67.5128C31.2367 66.3393 31.6381 65.2116 32.2542 64.1998C32.8703 63.1881 33.6879 62.3139 34.6562 61.6315C35.3751 61.1218 36.1795 60.745 37.0312 60.519C37.8607 60.2849 38.7195 60.1713 39.5812 60.1815C41.1114 60.1992 42.6082 60.6312 43.9125 61.4315C45.2228 62.2413 46.2324 63.4572 46.7875 64.894C47.3164 66.2883 47.5299 67.7824 47.4125 69.269C47.3664 70.0064 47.2279 70.735 47 71.4378C46.8832 71.7912 46.7411 72.1359 46.575 72.469C46.4953 72.6388 46.4056 72.8037 46.3062 72.9628L46.1562 73.2003C46.1125 73.2628 46.0375 73.3878 46.025 73.4003L45.8875 73.569C45.8452 73.6241 45.7993 73.6763 45.75 73.7253C45.7125 73.7628 45.5937 73.844 45.7125 73.8628C45.848 73.8979 45.9858 73.923 46.125 73.9378L46.7875 74.0128L47.65 74.094C48.8125 74.194 49.9687 74.2565 51.125 74.294C52.7 74.3503 54.25 74.344 55.85 74.294C57.4164 74.3043 58.98 74.162 60.5187 73.869C60.9812 73.7565 61.1437 73.6878 61.1875 73.7503C61.2312 73.8128 61.0062 73.969 60.6187 74.1565C59.3029 74.726 57.8993 75.0663 56.4687 75.1628C54.4021 75.3241 52.328 75.37 50.2562 75.3003C49.2187 75.269 48.1875 75.219 47.1312 75.144L46.35 75.0753L45.725 75.0128C45.475 75.0128 45.225 74.944 44.9875 74.894C44.8151 74.8809 44.6491 74.8234 44.5056 74.727C44.3621 74.6306 44.246 74.4986 44.1687 74.344C44.125 74.2565 44.1687 74.2065 44.1687 74.1315L44.2062 73.9253L44.2437 73.7253C44.2437 73.6878 44.2437 73.6565 44.2437 73.619L44.3875 73.469L44.9312 72.8065C44.9913 72.741 45.0418 72.6674 45.0812 72.5878L45.1875 72.419C45.3198 72.195 45.4388 71.9634 45.5437 71.7253C45.7437 71.2261 45.8964 70.7092 46 70.1815C46.1936 69.0942 46.1936 67.9813 46 66.894C45.854 66.0112 45.5445 65.1633 45.0875 64.394C44.5991 63.6267 43.9377 62.9845 43.1562 62.519C41.5362 61.5973 39.6295 61.3163 37.8125 61.7315C36.8248 61.9343 35.8957 62.3579 35.0948 62.9705C34.2939 63.5831 33.6418 64.3688 33.1875 65.269C32.7437 66.1597 32.4864 67.1316 32.4312 68.1253C32.3723 69.157 32.4928 70.191 32.7875 71.1815C32.8978 71.5842 33.0357 71.9789 33.2 72.3628C33.275 72.5628 33.3687 72.7503 33.4562 72.944C33.5437 73.1378 33.7687 73.5315 33.9187 73.819C33.9922 73.9403 34.0351 74.0775 34.0437 74.219L34.1062 74.5753V74.619L34.0125 74.5753L33.9687 74.6378L33.8687 74.7628C33.7659 74.8528 33.6407 74.9133 33.5062 74.9378C33.1784 75.0139 32.8466 75.0723 32.5125 75.1128L31.75 75.2003C30.8375 75.3065 29.9312 75.394 29.0187 75.4628C26.9687 75.6315 24.9125 75.7378 22.8562 75.7503C21.825 75.7503 20.7937 75.7503 19.7312 75.669C19.2104 75.6315 18.6917 75.5753 18.175 75.5003C17.6331 75.4276 17.1021 75.289 16.5937 75.0878C15.7829 74.6993 15.1236 74.0531 14.7187 73.2503C14.3309 72.5237 14.0368 71.7509 13.8437 70.9503C13.4775 69.4087 13.2681 67.834 13.2187 66.2503C13.1875 65.5503 13.175 64.869 13.2187 64.169C13.3 61.5628 13.5937 60.744 13.9937 60.2378C14.0732 60.1197 14.1655 60.0107 14.2687 59.9128C14.4125 59.819 14.4812 60.0253 14.5375 60.4878C14.608 61.1917 14.6393 61.8991 14.6312 62.6065C14.6312 63.9815 14.7125 65.369 14.8 66.7565C14.8858 68.1288 15.095 69.4905 15.425 70.8253C15.7562 72.0753 16.3687 73.3753 17.1812 73.7503C17.4398 73.8621 17.7103 73.9439 17.9875 73.994C18.3062 74.0565 18.6125 74.1065 18.9875 74.1503C19.675 74.2253 20.3875 74.2628 21.1062 74.2878C23.2375 74.344 25.4125 74.2565 27.5812 74.1128C28.6625 74.0378 29.75 73.9503 30.8312 73.8378L32.1187 73.694C32.1187 73.694 32.2 73.694 32.1687 73.694L32.1875 73.6815Z" fill="#121224"/>
<path id="Vector_9" d="M71.5373 53.6875C71.2836 54.3296 70.9452 54.935 70.5311 55.4875C70.113 56.0443 69.6137 56.5352 69.0498 56.9437C67.9353 57.7422 66.6231 58.22 65.2561 58.325C64.298 58.4255 63.3306 58.394 62.3811 58.2312C61.7913 58.1243 61.2089 57.9803 60.6373 57.8L60.3873 57.7062H60.3186C60.3186 57.7062 60.2623 57.7062 60.2748 57.7062V57.8375C60.2748 57.9125 60.2748 57.9937 60.2748 58.0875L60.3623 58.775C60.4498 59.2562 60.5373 59.75 60.6436 60.2375C60.8436 61.225 61.0811 62.2062 61.2686 63.2125C61.5373 64.6062 61.8123 66.0124 61.9936 67.4249C62.1238 68.3335 62.1823 69.2509 62.1686 70.1687V70.8624L62.0436 71.55C61.973 72.005 61.877 72.4557 61.7561 72.9C61.6123 73.45 61.5436 73.35 61.4623 72.8625C61.4186 72.6187 61.3873 72.275 61.3123 71.8687C61.2686 71.6562 61.2186 71.4437 61.1686 71.2437C61.1686 71.125 61.1248 71.0062 61.0936 70.8874L61.0561 70.5187C60.9275 68.7353 60.6917 66.9612 60.3498 65.2062C59.9936 63.4375 59.5936 61.65 59.2936 59.7875C59.2373 59.4062 59.1623 59.0375 59.1186 58.6375L59.0811 58.3375C59.06 58.1926 59.0495 58.0464 59.0498 57.9V56.9687L59.1811 56.6562L59.2498 56.5062V56.425L59.2811 56.4687C59.4061 56.3437 59.6436 56.3437 59.9061 56.3937C60.1686 56.4437 60.5311 56.5875 60.8123 56.675L61.3936 56.8437C62.087 57.0378 62.7959 57.1716 63.5123 57.2437C64.6705 57.384 65.8455 57.2337 66.9311 56.8062C67.9994 56.3651 68.9144 55.6196 69.5623 54.6625C70.3517 53.4506 70.7528 52.0269 70.7123 50.5812C70.6862 49.4869 70.3968 48.415 69.8686 47.4562C69.344 46.514 68.5435 45.755 67.5748 45.2812C66.0383 44.6167 64.3218 44.4933 62.7061 44.9312C62.3498 45.0062 62.0061 45.125 61.6498 45.2312C61.191 45.3957 60.7236 45.5355 60.2498 45.65C59.9884 45.709 59.7146 45.6759 59.4748 45.5562C59.3659 45.5143 59.2612 45.4619 59.1623 45.4C59.0248 45.2937 59.0623 45.1187 59.2561 44.8875C59.551 44.5626 59.9137 44.3066 60.3186 44.1375C61.9183 43.3218 63.7076 42.9506 65.4998 43.0625C66.4719 43.1225 67.4213 43.3808 68.2898 43.8214C69.1583 44.2621 69.9274 44.8759 70.5498 45.625C71.3994 46.7674 71.9395 48.1099 72.118 49.5224C72.2965 50.9349 72.1072 52.3696 71.5686 53.6875H71.5373Z" fill="#121224"/>
<path id="Vector_10" d="M59.5694 19.7189C59.5694 19.8439 59.3819 19.7877 59.1382 19.6377C59.0353 19.5671 58.9463 19.4781 58.8757 19.3752C58.8696 19.2878 58.8696 19.2001 58.8757 19.1127C58.8757 19.0627 59.2069 18.5689 59.3069 18.3939C59.3992 18.2301 59.5174 18.0824 59.6569 17.9564C59.9257 17.6877 60.1757 17.4127 60.4194 17.1502C60.4725 17.0869 60.5386 17.0357 60.6132 17.0002C60.8662 16.872 61.0815 16.6804 61.2382 16.4439C61.2382 16.4064 61.3007 16.3752 61.2882 16.3127C61.3959 16.0369 61.5526 15.7828 61.7507 15.5627C61.9507 15.4314 62.1257 15.2814 62.3319 15.1377C62.3319 15.1377 62.3319 15.0752 62.4319 15.0814C62.5319 15.0877 62.6007 15.0127 62.6569 14.9627C62.73 14.8815 62.8094 14.8062 62.8944 14.7377C62.9605 14.7073 63.0296 14.6842 63.1007 14.6689C63.1632 14.6689 63.3132 14.7377 63.3257 14.7627C63.3382 14.7877 63.4507 14.8252 63.5194 14.8502C63.5421 14.8457 63.5655 14.8457 63.5882 14.8502C63.6614 15.1336 63.6889 15.4269 63.6694 15.7189L63.6132 15.8814L63.4757 16.2252L63.1944 16.7627C63.158 16.8129 63.1082 16.8519 63.0507 16.8752C63.0507 16.8752 62.6132 17.5689 62.5819 17.5877C62.5507 17.6064 62.3819 17.8439 62.1819 17.8689C62.1444 17.8689 62.1257 17.9064 62.1069 17.9314C61.9171 18.1218 61.7076 18.2915 61.4819 18.4377C61.3694 18.5189 61.2757 18.6189 61.1757 18.7064C61.0757 18.7939 61.1257 18.7502 61.1257 18.7502C61.1257 18.7502 61.0569 18.7502 61.0382 18.7939C60.787 18.9886 60.5471 19.1973 60.3194 19.4189C60.2694 19.4752 59.9257 19.5939 59.8757 19.6627C59.8257 19.7314 59.5757 19.6689 59.5694 19.7189Z" fill="#121224"/>
<path id="Vector_11" d="M38.5313 4.06855C38.4688 3.9498 38.6376 3.8873 38.9376 3.8623C39.0767 3.86563 39.2141 3.89312 39.3438 3.94355C39.4094 4.00577 39.4681 4.07493 39.5188 4.1498C39.5188 4.1873 39.6001 4.7748 39.6438 4.94355C39.6688 5.12604 39.6688 5.31107 39.6438 5.49355C39.6438 5.86855 39.6063 6.24355 39.5938 6.61855C39.587 6.70211 39.5681 6.78422 39.5376 6.8623C39.4436 7.13737 39.4075 7.42887 39.4313 7.71855C39.4313 7.76855 39.4313 7.81855 39.4688 7.86856C39.5254 8.18689 39.5254 8.51272 39.4688 8.83105C39.3751 9.0748 39.3063 9.33105 39.2063 9.58105C39.2063 9.6123 39.2063 9.65605 39.1501 9.6873C39.0938 9.71855 39.0313 9.83731 39.0126 9.9123C38.9919 10.0286 38.9472 10.1393 38.8813 10.2373C38.8813 10.2936 38.7751 10.3436 38.7188 10.3936C38.6884 10.4111 38.6539 10.4204 38.6188 10.4204C38.5837 10.4204 38.5492 10.4111 38.5188 10.3936C38.4688 10.3436 38.4001 10.3936 38.3438 10.3936C38.321 10.3967 38.2979 10.3967 38.2751 10.3936C38.1841 10.2891 38.1006 10.1784 38.0251 10.0623C37.9466 9.94461 37.8856 9.8162 37.8438 9.68105L37.7688 9.19355C37.7688 8.94355 37.7313 8.6873 37.7188 8.6373C37.7063 8.5873 37.7188 8.52481 37.7626 8.4748C37.8063 8.42481 37.7001 7.70605 37.7063 7.6748C37.7063 7.51855 37.7063 7.3623 37.8126 7.21855C37.8241 7.18837 37.8241 7.15499 37.8126 7.1248C37.8524 6.85333 37.9151 6.5857 38.0001 6.3248C38.0001 6.19355 38.0001 6.05606 38.0376 5.91856C38.0376 5.91856 38.0376 5.8748 38.0688 5.8498C38.0715 5.81861 38.0715 5.78725 38.0688 5.75605C38.0688 5.4373 38.1813 5.13105 38.1688 4.79355C38.1688 4.71855 38.3438 4.38105 38.3438 4.29355C38.3438 4.20605 38.5563 4.11855 38.5313 4.06855Z" fill="#121224"/>
<path id="Vector_12" d="M56.5127 30.2563C55.7564 30.1876 55.0002 30.1126 54.2314 30.1001H53.3939C52.4127 30.1001 51.4252 30.1001 50.4377 30.1876C50.0064 30.2313 49.5689 30.2751 49.1377 30.3438C48.5888 30.455 48.0336 30.5322 47.4752 30.5751C47.3002 30.5751 47.3002 30.4813 47.4252 30.3376C47.6075 30.1364 47.8477 29.9966 48.1127 29.9376C49.2519 29.7 50.4116 29.5744 51.5752 29.5626C52.2689 29.5626 52.9939 29.5001 53.7064 29.4938C54.4189 29.4876 55.2752 29.5251 56.0564 29.5938C56.5377 29.5938 57.0189 29.6938 57.5002 29.7501C58.2252 29.8626 58.9439 29.9938 59.6502 30.1626C60.2022 30.2781 60.747 30.4263 61.2814 30.6063L61.6377 30.7313C62.0627 30.9313 62.1752 31.0438 62.1939 31.2126C62.2 31.2498 62.2 31.2878 62.1939 31.3251C62.1939 31.4438 61.9689 31.4376 61.6689 31.3251C60.7281 30.9981 59.7625 30.7473 58.7814 30.5751C58.0377 30.4313 57.2689 30.3438 56.5064 30.2688L56.5127 30.2563Z" fill="#121224"/>
<path id="Vector_13" d="M12.6197 14.3247C12.4947 14.3247 12.5385 14.1434 12.676 13.8934C12.7499 13.7851 12.8457 13.6936 12.9572 13.6246C13.0445 13.616 13.1324 13.616 13.2197 13.6246C13.2697 13.6246 13.7822 13.9059 13.9697 13.9934C14.142 14.0739 14.3003 14.1815 14.4385 14.3122L15.3197 14.9997C15.3837 15.0554 15.4385 15.1207 15.4822 15.1934C15.6353 15.4382 15.8349 15.6505 16.0697 15.8184C16.1072 15.8184 16.1385 15.8872 16.2072 15.8809C16.4897 16.0391 16.7382 16.2515 16.9385 16.5059C17.0572 16.7497 17.1947 16.9622 17.326 17.1872C17.326 17.2247 17.3885 17.2309 17.3697 17.2997C17.351 17.3684 17.401 17.4934 17.4447 17.5559C17.5174 17.6422 17.5764 17.7392 17.6197 17.8434C17.6323 17.9179 17.6323 17.9939 17.6197 18.0684C17.6197 18.1434 17.4572 18.2747 17.426 18.2809C17.3947 18.2871 17.3135 18.3872 17.2572 18.4559L17.1947 18.5184C16.9214 18.5001 16.6521 18.4433 16.3947 18.3497L16.001 18.0621C15.8072 17.9184 15.601 17.7684 15.551 17.7434C15.501 17.7184 15.4885 17.6497 15.4635 17.5996C15.4385 17.5496 14.8385 17.1559 14.8385 17.1372C14.7447 17.0184 14.5947 16.9559 14.576 16.7621C14.576 16.7246 14.576 16.7121 14.5197 16.6934C14.3313 16.5131 14.1617 16.3142 14.0135 16.0997C13.926 15.9934 13.826 15.9121 13.7322 15.8184C13.6385 15.7246 13.7322 15.7684 13.701 15.7497C13.6697 15.7309 13.701 15.6872 13.651 15.6684C13.4485 15.4321 13.2314 15.2087 13.001 14.9997C12.9447 14.9559 12.7947 14.6184 12.7197 14.5747C12.6447 14.5309 12.676 14.3309 12.6197 14.3247Z" fill="#121224"/>
</g>
</g>
</svg>
