<svg xmlns="http://www.w3.org/2000/svg" width="50" height="39" viewBox="0 0 50 39" fill="none">
<path d="M8.62406 18.0479L12.8206 23.8182C11.9026 25.5231 11.1158 27.3591 10.5912 29.1951L3.57506 30.3098C2.06692 30.5065 0.952214 31.8835 0.952214 33.3261L0.952219 41.3257C0.952216 42.8995 2.06693 44.1453 3.57507 44.342L10.5912 45.4567C11.1158 47.2927 11.9026 49.1287 12.8206 50.8336L8.62406 56.6039C7.77163 57.8497 7.8372 59.489 8.95191 60.6037L14.6566 66.3084C15.7058 67.3576 17.4106 67.4887 18.6565 66.6363L24.4267 62.4397C26.1316 63.3577 27.902 64.079 29.8036 64.6691L30.9839 71.7508C31.1806 73.259 32.5576 74.3737 34.0002 74.3737H41.9998C43.5736 74.3737 44.8194 73.259 45.0161 71.7508L46.1964 64.6691C48.0324 64.1446 49.8684 63.3577 51.5733 62.4397L57.3435 66.6363C58.5894 67.4887 60.2287 67.4231 61.3434 66.3084L67.0481 60.6037C68.0972 59.5546 68.2284 57.8497 67.3759 56.6039L63.1794 50.8336C64.0974 49.1287 64.8187 47.3583 65.4088 45.4567L72.4905 44.2765C73.9986 44.0797 75.1134 42.7027 75.0478 41.1946L75.0478 33.1949C75.0478 31.6212 73.9331 30.3753 72.4249 30.1786L65.3432 28.9983C64.8187 27.1623 64.0318 25.3263 63.1138 23.6215L67.3104 17.8512C68.2939 16.8677 68.1628 15.1628 67.0481 14.0481L61.3434 8.34338C60.2942 7.29424 58.5894 7.1631 57.3435 8.01553L51.5733 12.2121C49.8684 11.2941 48.0324 10.5072 46.1964 9.98266L45.0161 2.90097C44.8194 1.39283 43.4424 0.278114 41.9998 0.278114H34.0002C32.4264 0.278114 31.1806 1.39283 30.9839 2.90097L29.8036 9.98266C27.9676 10.5072 26.1316 11.2941 24.4267 12.2121L18.6565 8.01553C17.4106 7.1631 15.7058 7.29424 14.591 8.40896L8.88634 14.1137C7.8372 15.1628 7.70606 16.8677 8.62406 18.0479ZM16.0336 9.85152C16.3615 9.52367 16.9516 9.4581 17.345 9.72038L23.6399 14.3104C23.9677 14.5071 24.4267 14.5727 24.7546 14.3759C26.6562 13.2612 28.6889 12.4088 30.8527 11.8187C31.2462 11.6875 31.574 11.3597 31.574 10.9662L32.8199 3.29439C32.8854 2.83539 33.2789 2.44197 33.8034 2.44197L41.8031 2.44197C42.3277 2.44197 42.7211 2.83539 42.7867 3.29439L44.0326 10.9662C44.0981 11.4252 44.3604 11.6875 44.7538 11.8187C46.8521 12.3432 48.8848 13.1957 50.852 14.3759C51.1798 14.5727 51.6388 14.5071 51.9667 14.3104L58.2615 9.72038C58.655 9.4581 59.1795 9.4581 59.573 9.85152L65.2777 15.5562C65.6055 15.8841 65.6711 16.4742 65.4088 16.8677L60.8188 23.1625C60.6221 23.4904 60.5565 23.9494 60.7532 24.2772C61.868 26.1788 62.7204 28.2115 63.3105 30.3753C63.4417 30.7688 63.7695 31.0966 64.1629 31.0966L71.8348 32.3425C72.2938 32.4081 72.6872 32.8015 72.6872 33.3261L72.6872 41.3257C72.6872 41.8503 72.2938 42.2437 71.8348 42.3093L64.4908 43.7519C64.0318 43.8175 63.7695 44.0797 63.6384 44.4732C63.0482 46.637 62.1958 48.6697 61.0811 50.5713C60.8844 50.8992 60.95 51.3582 61.1467 51.686L65.7367 57.9809C65.999 58.3743 65.9334 58.9644 65.6055 59.2923L59.9008 64.997C59.573 65.3248 58.9828 65.3904 58.5894 65.1281L52.2945 60.5381C51.9667 60.3414 51.5077 60.2759 51.1798 60.4726C49.2783 61.5873 47.18 62.5053 45.0817 63.0299C44.6883 63.161 44.3604 63.4889 44.3604 63.8823L43.1146 71.5541C43.049 72.0131 42.59 72.4721 42.131 72.4066L34.1313 72.4065C33.6067 72.4065 33.2133 72.0131 33.1477 71.5541L31.7052 63.9478C31.6396 63.4889 31.3773 63.2266 30.9839 63.0954C28.82 62.5053 26.7873 61.6529 24.8857 60.5381C24.5579 60.3414 24.0989 60.407 23.771 60.6037L17.4762 65.1937C17.0828 65.456 16.4926 65.3904 16.1648 65.0626L10.4601 59.3579C10.0666 58.9644 10.0666 58.4399 10.3289 58.0464L14.9189 51.7516C15.1156 51.4237 15.1812 50.9647 14.9845 50.6369C13.8042 48.6697 13.0173 46.5715 12.4272 44.5387C12.3616 44.342 12.2961 44.1453 12.1649 44.0142C12.0338 43.883 11.7715 43.7519 11.5748 43.6863L3.90292 42.4405C3.37835 42.3093 3.0505 41.9815 3.0505 41.4569L3.0505 33.4572C3.0505 32.9326 3.44393 32.5392 3.90292 32.4736L11.5748 31.2278C12.0338 31.1622 12.2961 30.8999 12.4272 30.5065C12.9518 28.4082 13.8042 26.3755 14.9845 24.4084C15.1812 24.0805 15.1156 23.6215 14.9189 23.2936L10.3289 16.9988C10.0666 16.6054 10.1322 16.0152 10.4601 15.6874L16.0336 9.85152Z" fill="url(#paint0_linear_3090_12543)"/>
<defs>
<linearGradient id="paint0_linear_3090_12543" x1="116.076" y1="18.2842" x2="-4.36643" y2="41.9186" gradientUnits="userSpaceOnUse">
<stop stop-color="#3D6DF6"/>
<stop offset="1" stop-color="#3D6DF6" stop-opacity="0"/>
</linearGradient>
</defs>
</svg>