<svg width="60" height="60" viewBox="0 0 60 60" fill="none" xmlns="http://www.w3.org/2000/svg">
<path d="M27.3107 51.1884C32.0913 52.0749 37.0267 51.0171 41.0311 48.2478C45.0354 45.4785 47.7808 41.2245 48.6632 36.4216C49.5456 31.6187 48.4927 26.6604 45.7362 22.6374C42.9797 18.6144 38.7454 15.8563 33.9648 14.9698L30.6377 33.0791L27.3107 51.1884Z" fill="#F05537"/>
<path d="M33.1502 9.02812C32.4049 7.80469 32.6814 7.32656 34.9689 5.84531C37.2564 4.36406 34.9361 3.75 34.9361 3.75C32.2736 3.54844 30.5439 4.75781 29.7799 5.78437C29.0158 6.81094 30.3142 8.86875 30.3142 8.86875L33.1502 9.02812Z" fill="#121224"/>
<path d="M14.4992 23.1563C12.9987 25.5371 12.0742 28.2352 11.7992 31.0359L11.7195 31.8C11.7195 32.0531 11.7195 32.311 11.7195 32.5688C11.7085 33.0787 11.7257 33.5889 11.7711 34.0969C11.8905 35.9085 12.2955 37.6898 12.9711 39.375C13.1539 39.7875 13.2852 40.2235 13.5055 40.6219L14.1383 41.8219C14.5998 42.6014 15.1184 43.3456 15.6898 44.0484C16.1998 44.6722 16.7527 45.2596 17.3445 45.8063C17.6398 46.0781 17.9586 46.3219 18.282 46.5844L18.7508 46.9641C18.9102 47.0859 19.0789 47.1891 19.2195 47.3016C20.9127 48.468 22.7816 49.3558 24.7555 49.9313C25.3602 50.1375 25.2477 50.2688 24.6758 50.2594C24.2869 50.2469 23.8997 50.203 23.518 50.1281C22.9777 50.0103 22.4514 49.8359 21.9477 49.6078C17.9315 47.8228 14.7024 44.637 12.8633 40.6453C11.7482 38.225 11.1495 35.5989 11.1055 32.9344C11.1055 32.5688 11.1055 32.2031 11.1055 31.8375L11.2133 30.75C11.2879 30.024 11.4101 29.3038 11.5789 28.5938C11.6505 28.2347 11.746 27.8807 11.8648 27.5344L12.1883 26.4891L12.6008 25.4813C12.7377 25.1397 12.8942 24.8063 13.0695 24.4828L13.6977 23.2922C13.9273 22.9125 14.1664 22.5422 14.4242 22.1625C14.6608 21.7902 14.9206 21.4332 15.2023 21.0938C15.4677 20.7334 15.7542 20.3891 16.0602 20.0625C17.8829 18.0483 20.0966 16.4263 22.5664 15.2953C24.4612 14.4416 26.4865 13.9138 28.557 13.7344L29.2367 13.6688C29.4664 13.6688 29.7055 13.6688 29.9211 13.6688L31.0039 13.6969C31.2992 13.7344 31.5336 13.7766 31.7305 13.8141C32.0016 13.8587 32.2631 13.949 32.5039 14.0813C32.5814 14.1207 32.6538 14.1695 32.7195 14.2266C32.8555 14.3719 32.1617 14.3906 30.9617 14.2781C27.2239 14.1428 23.5346 15.1571 20.3914 17.1844C18.0137 18.7106 16.0109 20.7535 14.532 23.1609L14.4992 23.1563Z" fill="#121224"/>
<path d="M33.2066 15.3234C33.1598 15.2344 33.2723 15.1828 33.4832 15.15C33.5821 15.1403 33.6818 15.1548 33.7738 15.1922C33.8211 15.2376 33.8636 15.2879 33.9004 15.3422C33.9004 15.3703 33.9566 15.8109 33.9801 15.9703C33.9989 16.115 33.9989 16.2615 33.9801 16.4062C33.9473 16.7016 33.9191 16.9922 33.8863 17.2828C33.8786 17.349 33.8612 17.4138 33.8348 17.475C33.7543 17.6864 33.71 17.9098 33.7035 18.1359C33.692 18.1726 33.692 18.2118 33.7035 18.2484C33.7233 18.4988 33.7011 18.7507 33.6379 18.9937C33.5582 19.1813 33.4973 19.3687 33.427 19.5609C33.427 19.5844 33.427 19.6172 33.3848 19.6359C33.355 19.6525 33.3304 19.6771 33.3138 19.7069C33.2972 19.7368 33.2893 19.7706 33.291 19.8047C33.2743 19.8894 33.2459 19.9715 33.2066 20.0484C33.2066 20.0906 33.1363 20.1234 33.0941 20.1609C33.052 20.1984 32.9348 20.1609 32.9254 20.1609C32.916 20.1609 32.827 20.1609 32.7754 20.1609H32.7238C32.6379 19.9809 32.5764 19.7901 32.541 19.5937C32.541 19.5937 32.541 18.8766 32.541 18.7922C32.5425 18.749 32.5554 18.7069 32.5785 18.6703C32.5785 18.6703 32.5785 18.0844 32.5785 18.0609C32.5785 17.9484 32.5785 17.8266 32.6676 17.7234C32.6676 17.7234 32.6676 17.6766 32.6676 17.6531C32.6996 17.4372 32.7482 17.2241 32.8129 17.0156C32.8129 16.9172 32.8129 16.8141 32.8504 16.7109C32.8504 16.7109 32.8504 16.6781 32.8504 16.6594C32.8617 16.6384 32.8711 16.6164 32.8785 16.5938C32.8785 16.35 32.9629 16.125 32.9535 15.8672C32.9535 15.8109 33.0754 15.5578 33.0707 15.4922C33.066 15.4266 33.2254 15.3562 33.2066 15.3234Z" fill="#121224"/>
<path d="M48.8072 34.5187C48.8915 34.4672 48.9431 34.5797 48.9759 34.7906C48.984 34.8894 48.9696 34.9888 48.9337 35.0812C48.89 35.1299 48.8413 35.1739 48.7884 35.2125C48.7603 35.2125 48.3197 35.2734 48.1743 35.2969C48.0329 35.318 47.8892 35.318 47.7478 35.2969C47.4665 35.2641 47.1806 35.2406 46.8947 35.2125C46.8306 35.2041 46.7677 35.1884 46.7072 35.1656C46.501 35.0845 46.2818 35.0416 46.0603 35.0391C46.0252 35.0279 45.9875 35.0279 45.9525 35.0391C45.7088 35.0597 45.4635 35.0407 45.2259 34.9828C45.0431 34.9031 44.8603 34.8422 44.6728 34.7766C44.6728 34.7766 44.6165 34.7766 44.5978 34.7344C44.579 34.6922 44.49 34.6547 44.4337 34.6406C44.3514 34.6226 44.2713 34.5959 44.1947 34.5609C44.1519 34.5306 44.1153 34.4924 44.0868 34.4484C44.054 34.4109 44.0868 34.2891 44.0868 34.2797C44.0868 34.2703 44.0868 34.1812 44.0868 34.1297C44.0843 34.111 44.0843 34.0921 44.0868 34.0734C44.2609 33.9888 44.4453 33.9274 44.6353 33.8906C44.6353 33.8906 45.3384 33.8906 45.4181 33.8906C45.4591 33.8927 45.4991 33.9039 45.5353 33.9234C45.5353 33.9234 46.1072 33.9234 46.1306 33.9234C46.2431 33.9234 46.3603 33.9234 46.4634 34.0125C46.4847 34.0196 46.5077 34.0196 46.529 34.0125C46.7237 34.0289 46.9165 34.0619 47.1056 34.1109C47.204 34.1109 47.3072 34.1109 47.4056 34.1391L47.4572 34.1625C47.4789 34.1665 47.5011 34.1665 47.5228 34.1625C47.7573 34.1993 47.9936 34.2243 48.2306 34.2375C48.2822 34.2375 48.5306 34.35 48.5962 34.3453C48.6618 34.3406 48.7509 34.5375 48.8072 34.5187Z" fill="#121224"/>
<path d="M12.7413 30.1453C12.6616 30.1922 12.6147 30.0844 12.5819 29.8734C12.575 29.775 12.5877 29.6762 12.6194 29.5828C12.6615 29.5341 12.7086 29.4901 12.7601 29.4515C12.7882 29.4515 13.2007 29.3859 13.3413 29.3625C13.4749 29.3414 13.6109 29.3414 13.7444 29.3625L14.5601 29.4375C14.6214 29.4443 14.6814 29.4601 14.7382 29.4844C14.9318 29.5624 15.1388 29.6022 15.3476 29.6015C15.3826 29.613 15.4203 29.613 15.4554 29.6015C15.6861 29.58 15.9188 29.5959 16.1444 29.6484C16.3179 29.7281 16.4913 29.7844 16.6694 29.85C16.6694 29.85 16.721 29.85 16.7397 29.8922C16.7585 29.9344 16.8429 29.9719 16.8991 29.9859C16.9767 30.0024 17.0522 30.0276 17.1241 30.0609C17.1653 30.0915 17.2003 30.1297 17.2272 30.1734C17.2383 30.2002 17.244 30.2288 17.244 30.2578C17.244 30.2867 17.2383 30.3154 17.2272 30.3422C17.1851 30.3797 17.2272 30.4406 17.2272 30.4922C17.2272 30.5437 17.2272 30.5344 17.2272 30.5437C17.0642 30.6329 16.8888 30.6977 16.7069 30.7359C16.7069 30.7359 16.0413 30.7359 15.9663 30.7359C15.9252 30.7345 15.885 30.7232 15.8491 30.7031C15.8491 30.7031 15.3054 30.7031 15.2866 30.7031C15.1788 30.7031 15.071 30.7031 14.9726 30.6187C14.9512 30.6122 14.9283 30.6122 14.9069 30.6187C14.7217 30.6039 14.5382 30.5725 14.3585 30.525C14.2647 30.525 14.1663 30.525 14.0726 30.4969C14.0726 30.4969 14.0397 30.4969 14.0257 30.4969C14.0055 30.4938 13.9849 30.4938 13.9647 30.4969C13.7429 30.4611 13.519 30.4392 13.2944 30.4312C13.2382 30.4312 13.0038 30.3187 12.9429 30.3234C12.8819 30.3281 12.7741 30.1265 12.7413 30.1453Z" fill="#121224"/>
<path d="M28.1912 50.8406C28.2428 50.9203 28.1303 50.9672 27.9193 50.9953C27.8209 51.0016 27.7223 50.9889 27.6287 50.9578C27.5814 50.9161 27.5375 50.8707 27.4974 50.8219C27.4974 50.7938 27.4318 50.3906 27.4084 50.2547C27.3899 50.1241 27.3899 49.9916 27.4084 49.861C27.4365 49.5985 27.4553 49.336 27.4834 49.0735C27.4924 49.0156 27.5081 48.959 27.5303 48.9047C27.6078 48.7158 27.6476 48.5136 27.6474 48.3094C27.6553 48.2933 27.6594 48.2757 27.6594 48.2578C27.6594 48.24 27.6553 48.2223 27.6474 48.2063C27.6278 47.9815 27.6452 47.7551 27.699 47.536C27.7787 47.3719 27.8349 47.1985 27.9006 47.0297C27.9006 47.0297 27.9006 46.9781 27.9381 46.9594C27.9756 46.9406 28.0178 46.861 28.0318 46.8094C28.0476 46.7331 28.0728 46.6591 28.1068 46.5891C28.1388 46.5505 28.1768 46.5172 28.2193 46.4906C28.2568 46.4625 28.3787 46.4906 28.3928 46.4906C28.4068 46.4906 28.4865 46.4907 28.5381 46.5141H28.5943C28.6795 46.6741 28.7441 46.8442 28.7865 47.0203C28.7865 47.0203 28.7865 47.6672 28.7865 47.7422C28.7849 47.7804 28.7736 47.8175 28.7537 47.85C28.7537 47.85 28.7537 48.3797 28.7537 48.3985C28.7537 48.5016 28.7537 48.6094 28.6693 48.7032C28.6622 48.7244 28.6622 48.7475 28.6693 48.7688C28.656 48.9477 28.6262 49.125 28.5803 49.2985C28.5663 49.3901 28.5569 49.4824 28.5521 49.575C28.5538 49.5906 28.5538 49.6063 28.5521 49.6219C28.5495 49.6421 28.5495 49.6626 28.5521 49.6828C28.5521 49.8985 28.4771 50.1141 28.4865 50.3344C28.4865 50.3813 28.374 50.611 28.3834 50.6719C28.3928 50.7328 28.1724 50.8125 28.1912 50.8406Z" fill="#121224"/>
<path d="M49.1485 33.3235C49.1532 33.2548 49.1532 33.1859 49.1485 33.1172C49.1485 32.761 49.1016 32.3954 49.0828 32.0391C48.87 28.236 47.4956 24.5897 45.145 21.5924C42.7944 18.5951 39.5809 16.3911 35.9381 15.2778C32.2954 14.1646 28.3988 14.1957 24.7743 15.3669C21.1497 16.5381 17.9718 18.7931 15.6693 21.8276C13.3669 24.862 12.0508 28.5297 11.8986 32.3357C11.7465 36.1418 12.7657 39.9028 14.8186 43.1113C16.8716 46.3198 19.8594 48.8213 23.3789 50.2781C26.8984 51.7349 30.78 52.0769 34.5 51.2579C36.789 50.7528 38.9606 49.8157 40.8985 48.4969C44.8148 45.8493 47.5793 41.8131 48.6328 37.2047C48.7078 36.8766 48.8203 36.5438 48.8719 36.2157C48.8719 36.1501 48.9 36.0797 48.9094 36.0047C49.0172 35.2641 48.8438 34.6407 48.5297 34.5985C48.2157 34.5563 47.8782 35.1141 47.7844 35.8079C47.7844 35.8688 47.7844 35.9344 47.7844 36.0001C47.7636 36.3398 47.7054 36.6762 47.611 37.0032L47.3438 38.0719L46.9875 39.0891C46.7449 39.7627 46.46 40.4203 46.1344 41.0579C44.6754 43.8944 42.4767 46.2836 39.771 47.9728C37.0652 49.6619 33.9531 50.588 30.7641 50.6532C28.6445 50.6743 26.5376 50.3237 24.5391 49.6172C21.525 48.5585 18.8583 46.6948 16.828 44.2283C14.7978 41.7617 13.4815 38.7865 13.0219 35.6251C12.7191 33.5281 12.7858 31.3943 13.2188 29.3204C14.108 25.141 16.4977 21.4323 19.936 18.8954C22.4924 16.9819 25.5219 15.8009 28.6989 15.4793C31.8759 15.1577 35.0805 15.7076 37.9686 17.07C40.8567 18.4323 43.3191 20.5557 45.0914 23.212C46.8637 25.8683 47.879 28.9572 48.0282 32.1469C48.0619 32.4585 48.0619 32.7728 48.0282 33.0844V33.286C48 33.9844 48.2391 34.5751 48.5532 34.6079C48.8672 34.6407 49.1203 34.0735 49.1485 33.3235Z" fill="#121224"/>
<path d="M16.1676 15.0422C14.7679 16.1859 13.509 17.4919 12.4176 18.9328C12.1317 19.2844 11.8641 19.6505 11.616 20.0297C11.348 20.3958 11.1022 20.7777 10.8801 21.1734C10.4061 21.9449 9.98636 22.7484 9.62385 23.5781C8.11926 26.8959 7.47444 30.5392 7.74885 34.1719C7.93232 36.8214 8.58297 39.4177 9.67072 41.8406C10.6419 43.9698 11.9195 45.9455 13.4629 47.7047C15.0439 49.4381 16.877 50.9235 18.9004 52.1109C20.9382 53.2914 23.1382 54.1663 25.4301 54.7078C27.7346 55.2323 30.1043 55.4108 32.4613 55.2375C36.6533 54.9119 40.6757 53.443 44.091 50.9906C45.1781 50.222 46.1876 49.3491 47.1051 48.3844C48.0336 47.4308 48.8701 46.3918 49.6035 45.2812C51.0797 43.0622 52.1554 40.6015 52.7817 38.0109C53.1473 36.4031 53.4098 36.6422 53.4145 38.1187C53.3776 39.1369 53.2203 40.147 52.9457 41.1281C52.5571 42.5383 51.9767 43.8884 51.2207 45.1406C48.1726 50.0944 43.4041 53.7496 37.8285 55.4062C35.0792 56.243 32.2043 56.5904 29.3348 56.4328C27.9045 56.3385 26.4842 56.1285 25.0879 55.8047C23.6952 55.4629 22.3341 55.0035 21.0192 54.4312C17.8191 53.0436 14.9449 51.0013 12.5817 48.4359C8.80049 44.2356 6.65414 38.8167 6.53368 33.1665C6.41322 27.5162 8.32668 22.0107 11.9254 17.6531C14.5413 14.4183 17.9594 11.9257 21.8391 10.4239C25.7187 8.92201 29.9242 8.4634 34.0363 9.09375C37.5585 9.62692 40.9143 10.9506 43.852 12.9656C44.9784 13.7399 46.0369 14.6087 47.016 15.5625C47.4848 16.0641 47.9817 16.5281 48.4223 17.0625L49.0738 17.8453L49.6738 18.6703C51.257 20.8862 52.458 23.3515 53.227 25.9641C53.5707 27.1112 53.8323 28.2813 54.0098 29.4656C54.2442 31.039 54.2867 32.6351 54.1363 34.2187C54.102 34.6412 54.0315 35.0599 53.9254 35.4703C53.8601 35.7516 53.761 36.0239 53.6301 36.2812C53.5456 36.4856 53.4453 36.6831 53.3301 36.8719C52.9879 37.2422 53.2504 35.4656 53.1192 32.3203C52.9021 27.5392 51.2905 22.9262 48.4832 19.05C47.0662 17.0844 45.3221 15.3768 43.327 14.0016C41.3269 12.6057 39.1094 11.5508 36.7645 10.8797C33.2568 9.87765 29.5604 9.72818 25.9832 10.4437C22.3975 11.1665 19.0415 12.7512 16.2051 15.0609L16.1676 15.0422Z" fill="#121224"/>
<path d="M30.8158 34.0266C30.6846 34.0266 30.6377 33.9047 30.6377 33.6797C30.6497 33.5811 30.6904 33.4881 30.7549 33.4125C30.8331 33.3882 30.913 33.3694 30.9939 33.3563C31.0408 33.3563 31.6643 33.5109 31.8799 33.5578C32.0862 33.6067 32.2871 33.6758 32.4799 33.7641L33.6658 34.2328C33.755 34.2704 33.8399 34.3176 33.9189 34.3734C34.1927 34.5544 34.4869 34.7023 34.7955 34.8141C34.8439 34.8421 34.8989 34.8566 34.9549 34.8563C35.3041 34.9648 35.6404 35.111 35.958 35.2922C36.1924 35.4703 36.4268 35.625 36.6705 35.7984C36.708 35.7984 36.7502 35.8359 36.7689 35.8828C36.7877 35.9297 36.8955 36.0234 36.9705 36.075C37.08 36.1405 37.1821 36.2175 37.2752 36.3047C37.3202 36.3598 37.3566 36.4214 37.383 36.4875C37.4111 36.5438 37.3127 36.6328 37.2939 36.6328C37.2752 36.6328 37.2283 36.7125 37.2049 36.7547C37.1976 36.7715 37.1882 36.7873 37.1768 36.8016C36.9162 36.7672 36.6579 36.7171 36.4033 36.6516L36.2439 36.5813L35.9111 36.4453L35.3393 36.2297C35.2832 36.2065 35.2311 36.1749 35.1846 36.1359C35.1846 36.1359 34.3924 35.85 34.3643 35.8359C34.2024 35.783 34.0527 35.6986 33.9236 35.5875C33.8987 35.5632 33.8681 35.5455 33.8346 35.5359C33.567 35.4252 33.3057 35.3 33.0518 35.1609C32.9158 35.0953 32.7752 35.0484 32.6393 34.9875C32.6153 34.9751 32.5932 34.9593 32.5736 34.9406C32.5468 34.919 32.5167 34.9016 32.4846 34.8891C32.1611 34.7625 31.8518 34.5844 31.5143 34.4859C31.4346 34.4625 31.1158 34.2281 31.0455 34.2047C30.9752 34.1813 30.8674 34.0266 30.8158 34.0266Z" fill="#121224"/>
<path d="M31.1721 32.1468C31.2096 32.2687 31.0877 32.3484 30.8721 32.4046C30.7732 32.4167 30.673 32.397 30.5861 32.3484C30.5422 32.2784 30.5046 32.2047 30.4736 32.1281C30.4736 32.0812 30.4736 31.4203 30.4736 31.1906C30.4767 30.975 30.4986 30.7601 30.5393 30.5484L30.7549 29.2546C30.7716 29.1584 30.7983 29.0641 30.8346 28.9734C30.949 28.6582 31.0276 28.3311 31.0689 27.9984C31.0854 27.9433 31.0854 27.8847 31.0689 27.8296C31.0972 27.4529 31.1664 27.0804 31.2752 26.7187C31.3971 26.4187 31.5049 26.1656 31.6127 25.889C31.6127 25.8515 31.6127 25.8046 31.6783 25.7765C31.7439 25.7484 31.7861 25.6171 31.8189 25.5281C31.861 25.4039 31.916 25.2845 31.983 25.1718C32.0283 25.1125 32.0839 25.0617 32.1471 25.0218C32.1986 24.9796 32.3018 25.064 32.3064 25.0874C32.3111 25.1109 32.3908 25.1343 32.4424 25.1531H32.4893C32.504 25.4169 32.504 25.6814 32.4893 25.9453L32.4611 26.114C32.4611 26.2124 32.4236 26.3437 32.4002 26.4796C32.358 26.7468 32.3205 27.0374 32.3158 27.0937C32.304 27.1556 32.2835 27.2156 32.2549 27.2718C32.2549 27.2718 32.1518 28.1249 32.1471 28.1578C32.1265 28.3213 32.0773 28.48 32.0018 28.6265C31.9853 28.6585 31.9757 28.6937 31.9736 28.7296C31.9361 29.0203 31.8518 29.3062 31.7861 29.5968C31.7486 29.7421 31.7346 29.8968 31.7064 30.0421C31.6992 30.0694 31.6898 30.096 31.6783 30.1218C31.6632 30.1531 31.6522 30.1862 31.6455 30.2203C31.5939 30.5765 31.4908 30.9234 31.4674 31.2796C31.4674 31.364 31.308 31.7484 31.308 31.8328C31.308 31.9171 31.158 32.0953 31.1721 32.1468Z" fill="#121224"/>
<path d="M31.5336 33.8062C31.4539 33.9515 31.2945 33.6984 31.1539 33.839C30.1367 34.8703 28.7726 32.5031 30.0664 31.9219C30.7742 31.6031 32.1757 32.6812 31.5336 33.8062Z" fill="#121224"/>
<path d="M29.8497 34.9078C29.5561 34.7649 29.2956 34.5623 29.085 34.3129C28.8743 34.0634 28.718 33.7727 28.6262 33.4594C28.5479 33.2319 28.5114 32.9921 28.5184 32.7516C28.5578 32.3313 28.7378 31.9366 29.0294 31.6313C29.2886 31.3572 29.6102 31.1498 29.9669 31.0266C30.2773 30.913 30.6068 30.8604 30.9372 30.8719C31.1773 30.8872 31.4103 30.9595 31.6169 31.0828C31.8231 31.2032 31.9757 31.3976 32.0434 31.6266C32.0856 31.7719 31.795 31.8703 31.4997 31.9594L31.1059 32.0907C30.9887 32.1375 30.9278 32.1657 30.909 32.1563C30.8054 32.1063 30.6912 32.0822 30.5762 32.086C30.3666 32.1014 30.1616 32.1554 29.9715 32.2453C29.9113 32.2724 29.857 32.3112 29.812 32.3595C29.7669 32.4078 29.7319 32.4646 29.709 32.5266C29.6643 32.6414 29.6451 32.7646 29.6528 32.8875C29.664 33.0478 29.7085 33.204 29.7836 33.3461C29.8587 33.4882 29.9626 33.613 30.0887 33.7125C30.2441 33.8458 30.4378 33.9262 30.6419 33.9422C30.8087 33.9312 30.9715 33.8864 31.1206 33.8107C31.2696 33.7349 31.4018 33.6298 31.509 33.5016C31.5954 33.4107 31.6604 33.3016 31.6993 33.1825C31.7382 33.0633 31.7501 32.9369 31.734 32.8125C31.7237 32.7812 31.7096 32.7513 31.6919 32.7235C31.659 32.6438 31.6919 32.5969 31.9356 32.3672L32.0809 32.2032C32.1174 32.1605 32.1627 32.1263 32.2137 32.1029C32.2647 32.0794 32.3201 32.0672 32.3762 32.0672C32.4456 32.0736 32.5123 32.0971 32.5703 32.1355C32.6284 32.174 32.6761 32.2262 32.709 32.2875C32.8464 32.5111 32.9134 32.7708 32.9012 33.0328C32.8977 33.2813 32.8402 33.5261 32.7325 33.75C32.5417 34.1291 32.2558 34.4521 31.9028 34.6875C31.6241 34.8888 31.3037 35.025 30.9653 35.086C30.7712 35.1167 30.5735 35.1167 30.3794 35.086C30.2017 35.0588 30.0283 35.0083 29.8637 34.936L29.8497 34.9078Z" fill="#121224"/>
<path d="M36.8814 4.72967C36.051 4.41347 35.1729 4.24069 34.2845 4.21874C34.1205 4.21874 33.9564 4.21874 33.8158 4.21874C33.6752 4.21874 33.4924 4.25624 33.347 4.26561C32.7866 4.31551 32.235 4.43842 31.7064 4.63124C31.2015 4.82441 30.7567 5.14788 30.4174 5.56874C30.1233 5.94278 29.9751 6.41082 30.0002 6.88592C30.0783 7.51178 30.2165 8.12868 30.4127 8.72811C30.4502 8.92967 30.1736 9.04686 29.8314 8.99061C29.6414 8.95708 29.4617 8.88008 29.3064 8.76561C29.22 8.70501 29.1427 8.63241 29.0767 8.54999C29.0183 8.45313 28.9726 8.34914 28.9408 8.24061C28.6655 7.39767 28.6887 6.48568 29.0064 5.6578C29.3618 4.84079 30.0157 4.19027 30.8345 3.83905C31.7065 3.4344 32.6424 3.18534 33.6002 3.10311C34.6206 3.03849 35.6445 3.14787 36.6283 3.42655C37.2371 3.59243 37.824 3.83003 38.3767 4.13436C39.256 4.58592 39.9625 5.31388 40.3877 6.20624C40.7073 6.92575 40.7941 7.72714 40.6361 8.49842C40.5939 8.66249 40.5564 8.82186 40.5049 8.96717C40.4488 9.18456 40.3317 9.38137 40.1674 9.53436C40.1122 9.58061 40.0472 9.61355 39.9773 9.63062C39.9074 9.64769 39.8345 9.64843 39.7642 9.6328C39.6897 9.62755 39.6159 9.61499 39.5439 9.5953C39.3142 9.51092 39.2439 9.21092 39.3517 8.85467C39.5034 8.35719 39.5607 7.83571 39.5205 7.31717C39.4589 6.84532 39.26 6.40196 38.9486 6.04217C38.3895 5.43406 37.6796 4.98451 36.8908 4.73905L36.8814 4.72967Z" fill="#121224"/>
<path d="M7.1486 37.5469C7.31945 38.4991 7.55436 39.4388 7.85172 40.3594L7.95016 40.7063L8.0861 41.0438L8.35329 41.7188L8.61579 42.3891L8.75172 42.7266L8.91579 43.05C9.32709 43.9244 9.7969 44.7701 10.322 45.5813C10.5939 45.9797 10.8236 46.4063 11.1283 46.7859L12.0283 47.9203L12.3564 48.3328L12.7267 48.7125L13.472 49.4672C13.9671 49.9701 14.4948 50.4399 15.0517 50.8735C18.9482 54.0446 23.7545 55.8903 28.772 56.1422C30.9872 56.2496 33.2061 56.0317 35.358 55.4953C36.7349 55.1507 38.0791 54.6864 39.3752 54.1078L40.3127 53.6391L40.7814 53.4094L41.2502 53.1516L42.1877 52.636L43.083 52.0641C43.8236 51.5953 43.8283 51.7875 43.2892 52.336C42.9204 52.7171 42.5136 53.0595 42.0752 53.3578C41.808 53.5453 41.508 53.7469 41.1892 53.9484C40.8705 54.15 40.5002 54.3141 40.1252 54.5016C34.6984 57.0677 28.5002 57.4798 22.7814 55.6547C19.2983 54.5638 16.0977 52.7203 13.4064 50.2547L12.3564 49.1813C12.1877 48.9984 12.0002 48.8297 11.8455 48.6328L11.3767 48.0469C11.0673 47.6531 10.7486 47.2688 10.4392 46.8703L9.62829 45.6094C9.49235 45.3985 9.35641 45.1922 9.22516 44.9766L8.90641 44.3156L8.22204 42.9797L7.66891 41.5735L7.39704 40.8797L7.1861 40.1625L6.92829 39.2766C6.83461 38.9831 6.75946 38.6841 6.70329 38.3813L6.3611 36.5719C6.20261 35.3551 6.13056 34.1286 6.14547 32.9016C6.15039 31.9717 6.21616 31.0432 6.34235 30.1219C6.38864 29.6648 6.46221 29.2108 6.56266 28.7625L6.8486 27.3985L7.26579 26.0719C7.39316 25.6261 7.54975 25.1893 7.73454 24.7641C8.06983 23.9034 8.4613 23.0656 8.90641 22.2563C9.56549 20.9953 10.3374 19.7967 11.2127 18.675C12.0696 17.5531 13.0232 16.5084 14.0627 15.5531C14.5314 15.1313 15.0002 14.7375 15.4923 14.3485C16.1448 13.8392 16.836 13.3816 17.5595 12.9797C17.882 12.7926 18.2314 12.6567 18.5955 12.5766C18.7174 12.5766 18.8627 12.5203 18.9377 12.5203C19.2002 12.5438 18.3939 13.0313 17.0205 13.9781C14.9511 15.4389 13.116 17.206 11.5783 19.2188C11.1892 19.7344 10.8095 20.2594 10.458 20.8031C10.1064 21.3469 9.8111 21.9234 9.48297 22.4813C9.32829 22.7672 9.16422 23.0484 9.01422 23.3344L8.62985 24.2297C8.352 24.8204 8.11549 25.4297 7.92204 26.0531L7.50016 27.4266C7.37829 27.8953 7.2986 28.3641 7.19547 28.8328C6.99912 29.7839 6.86602 30.747 6.79704 31.7156C6.67619 33.6585 6.80537 35.6088 7.18141 37.5188L7.1486 37.5469Z" fill="#121224"/>
</svg>
