<svg width="17" height="12" viewBox="0 0 17 12" fill="none" xmlns="http://www.w3.org/2000/svg">
<path d="M7.69834 4.99952C7.69834 8.61827 5.17018 11.543 1.70014 11.9892V9.90714C3.63345 9.56013 5.02146 8.27126 5.02146 6.68496C4.67446 6.88325 4.22831 6.9824 3.63345 6.9824C2.14629 6.9824 0.857422 5.89182 0.857422 3.95851C0.857422 2.07478 2.14629 0.686768 4.12917 0.686768C6.11204 0.686768 7.69834 2.32264 7.69834 4.99952ZM16.5717 4.99952C16.5717 8.61827 14.0435 11.543 10.5239 11.9892V9.90714C12.4572 9.56013 13.8453 8.27126 13.8453 6.68496C13.4983 6.88325 13.1017 6.9824 12.5068 6.9824C10.9701 6.9824 9.68122 5.89182 9.68122 3.95851C9.68122 2.07478 11.0197 0.686768 12.953 0.686768C14.9854 0.686768 16.5717 2.32264 16.5717 4.99952Z" fill="#F05537"/>
</svg>
