<svg width="60" height="60" viewBox="0 0 60 60" fill="none" xmlns="http://www.w3.org/2000/svg">
<circle cx="30.899" cy="15.8502" r="8.49078" fill="#F05537"/>
<circle cx="30.899" cy="44.4472" r="8.49078" fill="#F05537"/>
<path d="M10.1247 27.6282C10.1282 27.584 10.1405 27.5409 10.1609 27.5015C10.1813 27.4622 10.2094 27.4273 10.2434 27.3989C10.2775 27.3705 10.3169 27.3492 10.3593 27.3363C10.4017 27.3233 10.4462 27.319 10.4903 27.3235C11.4138 27.4078 10.031 28.5938 10.1247 27.6282Z" stroke="#121224" stroke-width="0.139535" stroke-miterlimit="10"/>
<path d="M24.8433 27.1876C23.7183 27.1876 22.5933 27.1876 21.4589 27.0797C20.2905 27.0084 19.1375 26.7766 18.0324 26.3907C17.8584 26.328 17.6905 26.2495 17.5308 26.1563C17.3382 26.0437 17.1576 25.9118 16.9917 25.7626C16.8634 25.5957 16.7709 25.4042 16.7199 25.2001C16.6824 25.0266 16.6683 24.9188 16.6449 24.7829C16.6074 24.5251 16.5839 24.2766 16.5605 24.0282C16.3308 21.1266 16.2699 18.2813 16.1058 15.4688C16.0402 14.2079 15.9417 12.9422 15.8199 11.7188C15.6605 10.1157 15.4402 8.52662 15.3792 6.9188C15.3558 6.42193 15.5152 6.45005 15.7824 6.8438C15.9598 7.1062 16.1165 7.38204 16.2511 7.6688C16.4208 8.06528 16.542 8.48078 16.612 8.9063C17.0615 12.1686 17.2964 15.457 17.3152 18.7501C17.3152 19.7438 17.3855 20.7563 17.4558 21.7688C17.5261 22.7813 17.6011 23.8126 17.7324 24.7594L17.7652 24.9329C17.7652 24.961 17.7652 24.9938 17.8074 25.0079C17.8495 25.0219 17.9011 25.0922 17.9902 25.1532C18.0792 25.2141 18.1777 25.2563 18.2714 25.3172C18.3713 25.3738 18.4746 25.4239 18.5808 25.4672C18.6859 25.5199 18.7957 25.5622 18.9089 25.5938C19.1409 25.668 19.3773 25.7275 19.6167 25.7719C19.8511 25.8282 20.0855 25.8657 20.3433 25.9032C21.344 26.0389 22.3522 26.111 23.362 26.1188C24.7214 26.1422 26.0902 26.1188 27.4542 26.0204C29.5214 25.8985 31.598 25.711 33.6464 25.4532C35.2355 25.2516 36.7824 24.9844 38.3339 24.7126L39.3652 24.5391C39.8274 24.4436 40.3006 24.4121 40.7714 24.4454C41.003 24.4513 41.2278 24.5246 41.4183 24.6563C41.49 24.6996 41.5561 24.7516 41.6152 24.811C41.6761 24.9001 41.5777 24.9891 41.362 25.0829C41.0243 25.2205 40.6764 25.3318 40.3214 25.4157C37.5417 25.9688 34.5699 26.4141 31.5699 26.7282C29.3386 26.9626 27.0839 27.1172 24.8199 27.1688L24.8433 27.1876Z" fill="#121224"/>
<path d="M41.452 17.2969L41.4988 15.3282C41.4988 15.0891 41.4988 14.8594 41.4988 14.611C41.4988 13.7672 41.541 12.9188 41.5316 12.0704C41.5316 11.6954 41.4848 11.3204 41.466 10.9501C41.4067 10.476 41.3894 9.99752 41.4145 9.52037C41.4145 9.37037 41.602 9.37037 41.7941 9.47818C41.9094 9.53933 42.0106 9.62386 42.0913 9.72637C42.1721 9.82888 42.2305 9.94711 42.2629 10.0735C42.4557 11.0437 42.5203 12.0349 42.4551 13.0219C42.4223 13.6172 42.5113 14.2266 42.5301 14.8313C42.5488 15.436 42.5676 16.1626 42.5629 16.8282V18.0563C42.5629 18.6751 42.5629 19.2985 42.5629 19.9313C42.5629 20.4001 42.6566 20.8688 42.6895 21.3657C42.6895 21.4735 42.6895 21.5766 42.6895 21.6844C42.6895 22.0876 42.5582 22.2188 42.2723 22.2657C42.209 22.2808 42.1448 22.2917 42.0801 22.2985C41.8645 22.2985 41.6957 22.1297 41.6113 21.8626C41.4648 21.0144 41.3974 20.1545 41.4098 19.2938C41.4098 18.6329 41.4098 17.9719 41.4098 17.3157L41.452 17.2969Z" fill="#121224"/>
<path d="M31.453 5.04379C30.2343 5.10942 29.0124 5.18598 27.7874 5.27348C27.3186 5.30629 26.8968 5.37192 26.4468 5.40004C24.8671 5.51254 23.2827 5.58754 21.6889 5.60161C20.9858 5.60161 20.2827 5.60161 19.5702 5.60161C19.1014 5.60161 18.6655 5.60161 18.2108 5.54067C17.7568 5.49189 17.3091 5.39607 16.8749 5.25473C16.603 5.16567 16.6733 5.06254 16.9265 4.97817C17.3156 4.85804 17.7193 4.7918 18.1264 4.78129C19.8936 4.87504 21.6983 4.78129 23.5218 4.71098C24.6139 4.68286 25.7483 4.52348 26.8686 4.41098C28.0968 4.29379 29.3343 4.18129 30.5718 4.09223C31.3358 4.03598 32.0999 3.99848 32.8639 3.96098C34.0218 3.90473 35.2077 3.90004 36.3468 3.90942C37.2421 3.90942 38.128 3.90942 39.028 3.94223C39.2249 3.94223 39.4171 3.96567 39.6186 3.98911C40.3546 4.08286 40.5561 4.21879 40.6733 4.50942C40.7009 4.5742 40.7213 4.64178 40.7343 4.71098C40.7343 4.93129 40.4343 5.05317 39.9186 5.02973C38.3765 4.97817 36.7686 4.91723 35.1327 4.93129C33.9139 4.93129 32.6905 4.98754 31.4624 5.07192L31.453 5.04379Z" fill="#121224"/>
<path d="M37.0316 12.5204C36.0191 13.7532 35.0581 15.0469 34.1488 16.3782C33.816 16.8469 33.53 17.3766 33.2113 17.8688L32.2738 19.3454L31.805 20.0954L31.0691 21.2813C30.921 21.4933 30.723 21.6655 30.4925 21.7829C30.4714 21.8005 30.4462 21.8128 30.4193 21.8185C30.3923 21.8242 30.3643 21.8232 30.3378 21.8157C30.2834 21.799 30.2314 21.7754 30.1831 21.7454C30.0766 21.6835 29.9775 21.6096 29.8878 21.525C29.6614 21.2784 29.4691 21.0025 29.316 20.7047C29.2269 20.55 29.1378 20.3954 29.0535 20.236L28.8706 19.8938C28.4351 19.0843 27.9514 18.3017 27.4222 17.55C27.0847 17.0813 26.7331 16.6125 26.3628 16.1907C26.0257 15.771 25.6349 15.3975 25.2003 15.0797C24.9566 14.9391 24.9988 14.6954 25.416 14.611C25.7281 14.5784 26.0437 14.6158 26.3396 14.7204C26.6355 14.825 26.9045 14.9942 27.1269 15.2157C28.0318 16.104 28.8194 17.1043 29.4706 18.1922C29.6347 18.45 29.7941 18.7172 29.9394 18.9797L30.1738 19.3735C30.1738 19.4204 30.1738 19.411 30.1738 19.4157V19.4625C30.1871 19.5245 30.2043 19.5856 30.2253 19.6454C30.2253 19.6454 30.2581 19.7579 30.2769 19.7344L30.3378 19.7016L30.3753 19.6688C30.4073 19.6398 30.437 19.6084 30.4644 19.575L30.5113 19.5141L30.6378 19.2985C30.8206 18.9938 30.9988 18.6844 31.1816 18.361C31.5425 17.7469 31.8988 17.1235 32.2878 16.5235C33.2003 15.1329 34.1566 13.775 35.1566 12.45C35.7753 11.6391 36.4128 10.8422 37.0785 10.0688C38.0986 8.8877 39.1947 7.7744 40.3597 6.73598C41.2421 5.8914 42.217 5.1492 43.266 4.52348C43.5044 4.37927 43.7555 4.25689 44.016 4.15786C45.0144 3.78754 45.4222 3.90004 45.666 4.27504C45.7304 4.35702 45.7869 4.44491 45.8347 4.53754C45.8624 4.62107 45.8633 4.71117 45.8372 4.79522C45.8112 4.87928 45.7595 4.95308 45.6894 5.00629C45.4931 5.17181 45.2736 5.30763 45.0378 5.40942C43.2567 6.32836 41.6396 7.53523 40.2519 8.98129C39.1223 10.1092 38.061 11.3035 37.0738 12.5579L37.0316 12.5204Z" fill="#121224"/>
<path d="M23.9064 27.7032C22.8702 27.6904 21.8356 27.6169 20.808 27.4829C19.7564 27.3513 18.726 27.0851 17.7424 26.6907C17.5642 26.6016 17.3767 26.5313 17.208 26.4282L16.9595 26.2501L16.8236 26.1657C16.7621 26.1201 16.7069 26.0665 16.6595 26.0063C16.5085 25.8136 16.4027 25.5893 16.3502 25.3501C16.2958 25.1589 16.252 24.9648 16.2189 24.7688C16.0385 23.4566 15.9243 22.1362 15.8767 20.8126L15.6845 16.8751C15.6283 15.7172 15.5533 14.5313 15.4502 13.4063C15.3142 11.9297 15.1314 10.4626 15.033 8.99068C15.0002 8.52193 15.1127 8.56881 15.3142 8.93443C15.4484 9.18255 15.5659 9.43937 15.6658 9.70318C15.794 10.0793 15.885 10.4671 15.9377 10.861C16.3147 13.8831 16.526 16.9236 16.5705 19.9688C16.5705 20.8782 16.6502 21.8063 16.7345 22.7344C16.772 23.2032 16.8236 23.6719 16.8892 24.1407C16.9396 24.5748 17.0306 25.0033 17.1611 25.4204C17.177 25.4592 17.1958 25.4969 17.2174 25.5329C17.2276 25.5543 17.2439 25.5722 17.2642 25.5844L17.5549 25.7719C17.7564 25.8938 17.972 26.0063 18.1877 26.1141C18.4123 26.2182 18.6442 26.3059 18.8814 26.3766C19.1185 26.4533 19.3595 26.5175 19.6033 26.5688C20.5902 26.7855 21.5939 26.9172 22.6033 26.9626C23.8524 27.0277 25.1041 27.0277 26.3533 26.9626C28.2564 26.8735 30.1689 26.7047 32.0486 26.461C33.5111 26.2735 34.9361 26.0157 36.3799 25.786L37.3174 25.6313C38.5127 25.4485 38.9299 25.5516 39.1924 25.6969C39.2555 25.72 39.3167 25.7482 39.3752 25.7813C39.4783 25.9079 39.0236 26.0016 38.1658 26.1985C35.6111 26.6672 32.8783 27.0985 30.1174 27.3751C28.0553 27.6083 25.9816 27.7241 23.9064 27.7219V27.7032Z" fill="#121224"/>
<path d="M25.3121 55.7485C24.1918 55.7485 23.0621 55.7485 21.9324 55.6407C20.7625 55.5689 19.608 55.3371 18.5012 54.9516C18.2818 54.8666 18.0701 54.7631 17.8683 54.6422L17.5215 54.3704C17.449 54.3231 17.3933 54.2542 17.3621 54.1735C17.3135 54.1012 17.2756 54.0223 17.2496 53.9391C17.2173 53.8623 17.1937 53.7821 17.1793 53.7001C17.1793 53.6438 17.1558 53.5782 17.1465 53.5266L17.0996 53.2079C17.0715 52.9969 17.048 52.7954 17.034 52.5891C16.823 49.711 16.7621 46.8797 16.598 44.0297C16.5324 42.7688 16.434 41.5032 16.3121 40.2797C16.148 38.6766 15.9277 37.0876 15.8715 35.4797C15.848 34.9829 16.0027 35.011 16.2699 35.4047C16.4459 35.6681 16.6025 35.9438 16.7387 36.2297C16.9083 36.6262 17.0295 37.0417 17.0996 37.4672C17.5419 40.7411 17.7705 44.0403 17.784 47.3438C17.784 48.3376 17.8543 49.3501 17.9246 50.3626C17.9949 51.3751 18.0652 52.4063 18.1965 53.3532C18.248 53.6344 18.1965 53.5407 18.398 53.7047C18.5965 53.8391 18.8068 53.9551 19.0262 54.0516C19.5156 54.2478 20.0272 54.3832 20.5496 54.4547C21.6355 54.6213 22.7322 54.7075 23.8308 54.7126C25.1902 54.736 26.559 54.7126 27.923 54.6141C29.9902 54.4922 32.0715 54.3047 34.1152 54.0469C35.709 53.8454 37.2558 53.5782 38.8027 53.3063L39.834 53.1329C40.2962 53.0374 40.7694 53.0059 41.2402 53.0391C41.4728 53.0475 41.6984 53.1205 41.8918 53.2501C41.961 53.2949 42.0254 53.3467 42.084 53.4047C42.1496 53.4938 42.0512 53.5829 41.8308 53.6766C41.4933 53.815 41.1454 53.9263 40.7902 54.0094C38.0152 54.5626 35.0433 55.0079 32.0387 55.3219C29.8074 55.5563 27.5574 55.7157 25.2933 55.7672L25.3121 55.7485Z" fill="#121224"/>
<path d="M41.9151 45.886L41.962 43.9126C41.962 43.6735 41.962 43.4438 41.962 43.1954C41.962 42.3516 42.0089 41.5032 41.9948 40.6547C41.9948 40.2797 41.9479 39.9094 41.9292 39.5344C41.8705 39.0681 41.8548 38.5974 41.8823 38.1282C41.8823 37.9829 42.0698 37.9782 42.262 38.086C42.3772 38.1471 42.4785 38.2317 42.5592 38.3342C42.6399 38.4367 42.6983 38.5549 42.7307 38.6813C42.9258 39.6512 42.9904 40.6428 42.9229 41.6297C42.8901 42.2251 42.9792 42.8344 43.0026 43.4391C43.026 44.0438 43.0354 44.7704 43.0307 45.436V46.6407C43.0307 47.2594 43.0307 47.8829 43.0307 48.5157C43.0307 48.9844 43.1198 49.4532 43.1573 49.9501C43.1573 50.0579 43.1573 50.161 43.1573 50.2688C43.1292 50.6719 43.026 50.8032 42.7401 50.8501C42.6753 50.8655 42.6095 50.8765 42.5432 50.8829C42.3276 50.8829 42.1589 50.7141 42.0745 50.4469C41.9232 49.5994 41.8557 48.739 41.8729 47.8782C41.8729 47.2172 41.8729 46.5563 41.8729 45.9001L41.9151 45.886Z" fill="#121224"/>
<path d="M31.9214 33.6282C30.7026 33.6938 29.4807 33.7704 28.2557 33.8579C27.787 33.8954 27.3604 33.9563 26.9151 33.9844C25.3354 34.0969 23.7464 34.1766 22.1573 34.186C21.4495 34.186 20.751 34.186 20.0339 34.186C19.5651 34.186 19.1292 34.186 18.6745 34.1297C18.2224 34.0758 17.7766 33.9785 17.3432 33.8391C17.0714 33.7501 17.1417 33.6469 17.3995 33.5626C17.7871 33.4428 18.1892 33.3765 18.5948 33.3657C20.362 33.4594 22.1667 33.3657 23.9901 33.2954C25.087 33.2672 26.2167 33.1079 27.337 32.9954C28.5698 32.8782 29.8026 32.7657 31.0448 32.6766C31.8042 32.6204 32.5729 32.5829 33.337 32.5454C34.4948 32.4938 35.6807 32.4891 36.8151 32.4938C37.7151 32.4938 38.601 32.4938 39.4964 32.5266C39.6932 32.5266 39.8901 32.5266 40.087 32.5735C40.8229 32.6672 41.0245 32.8032 41.1417 33.0938C41.1686 33.1592 41.1905 33.2266 41.2073 33.2954C41.2073 33.5157 40.9073 33.6376 40.387 33.6141C38.8495 33.5626 37.237 33.5016 35.601 33.5157C34.387 33.5157 33.1589 33.5719 31.9307 33.6563L31.9214 33.6282Z" fill="#121224"/>
<path d="M37.5003 41.1047C36.4878 42.3375 35.5269 43.6313 34.6175 44.9625C34.2894 45.4313 33.9988 45.961 33.68 46.4531L32.8128 47.761L32.3956 48.4219L32.1894 48.75L31.8753 49.3031C31.7768 49.4832 31.6672 49.657 31.5472 49.8235L31.3785 50.0485C31.3527 50.0847 31.3245 50.1191 31.2941 50.1516L31.2097 50.2078L31.0456 50.325L30.9003 50.4C30.7456 50.4 30.6566 50.325 30.5394 50.2547C30.2571 50.0333 30.028 49.7514 29.8691 49.4297C29.6628 49.0922 29.4331 48.6563 29.3394 48.4922C28.9055 47.6817 28.4218 46.899 27.891 46.1485C27.5627 45.6777 27.2107 45.224 26.8363 44.7891C26.4963 44.3704 26.104 43.9971 25.6691 43.6781C25.4253 43.5375 25.4675 43.2938 25.8847 43.2094C26.1969 43.1765 26.5125 43.2137 26.8085 43.3184C27.1045 43.423 27.3734 43.5923 27.5956 43.8141C28.5005 44.7024 29.2881 45.7027 29.9394 46.7906C30.1035 47.0531 30.2628 47.3156 30.4081 47.5781L30.6378 47.9719C30.666 48.0188 30.6378 48.0094 30.6378 48.0141V48.061C30.6467 48.1234 30.6624 48.1847 30.6847 48.2438C30.6847 48.2438 30.7222 48.3563 30.741 48.3328L30.8019 48.3C30.8335 48.2756 30.8619 48.2473 30.8863 48.2156L30.9378 48.1594V48.1266L30.9706 48.0703L31.5425 47.1C31.9222 46.4485 32.3019 45.7922 32.7097 45.1594C33.605 43.7531 34.5519 42.4031 35.555 41.086C36.18 40.2703 36.8222 39.475 37.4816 38.7C38.4928 37.5185 39.5811 36.4051 40.7394 35.3672C41.6234 34.5226 42.5999 33.7804 43.6503 33.1547C43.8878 33.0087 44.139 32.8862 44.4003 32.7891C45.3941 32.4188 45.8066 32.5313 46.0503 32.9063C46.1133 32.9883 46.1683 33.0762 46.2144 33.1688C46.2428 33.2522 46.2441 33.3426 46.218 33.4268C46.1918 33.511 46.1397 33.5848 46.0691 33.6375C45.8746 33.8031 45.6566 33.939 45.4222 34.0406C43.6709 34.9465 42.0783 36.1306 40.7066 37.5469C39.5785 38.6749 38.5188 39.8692 37.5331 41.1235L37.5003 41.1047Z" fill="#121224"/>
<path d="M25.0351 56.2501C22.9258 56.2501 20.7836 56.1563 18.6929 55.4673L18.3226 55.3407L17.9617 55.1673C17.7139 55.0483 17.4757 54.9104 17.2492 54.7548C17.0932 54.6185 16.9753 54.4441 16.907 54.2485C16.8532 54.1064 16.8094 53.9608 16.7758 53.8126C16.5381 52.4665 16.3955 51.1053 16.3492 49.7392L16.1383 45.7079C16.0773 44.5173 15.9929 43.322 15.8898 42.1454C15.7492 40.6313 15.5617 39.1267 15.4539 37.6173C15.4211 37.1485 15.5336 37.186 15.7351 37.561C15.8734 37.8149 15.994 38.078 16.0961 38.3485C16.227 38.7296 16.3227 39.1219 16.382 39.5204C16.7631 42.6209 16.9806 45.7392 17.0336 48.8626C17.0664 49.8001 17.1273 50.7376 17.2211 51.6751C17.2679 52.1438 17.3242 52.6126 17.3992 53.0813C17.4414 53.3063 17.4836 53.5501 17.5398 53.7423C17.5651 53.9015 17.6278 54.0525 17.7226 54.1829L17.7648 54.211C18.6176 54.754 19.5765 55.1088 20.5773 55.2517C21.6033 55.4248 22.6403 55.5251 23.6804 55.5517C24.9648 55.5892 26.2539 55.5517 27.5429 55.486C29.4976 55.3735 31.457 55.1767 33.3883 54.9235C34.8883 54.722 36.3508 54.4548 37.8273 54.2157L38.8023 54.061C40.0258 53.8688 40.4523 53.9673 40.7242 54.1173C40.7881 54.1471 40.8479 54.1849 40.9023 54.2298C40.9586 54.2954 40.8601 54.3517 40.6492 54.4126C40.4383 54.4735 40.1008 54.5626 39.6601 54.6563C37.0398 55.1251 34.2414 55.5938 31.4101 55.8892C29.3101 56.1188 27.1914 56.2782 25.0492 56.3017L25.0351 56.2501Z" fill="#121224"/>
<path d="M48.5017 8.27816C48.5052 8.23396 48.5175 8.19091 48.5379 8.15154C48.5583 8.11217 48.5863 8.07726 48.6204 8.04888C48.6544 8.0205 48.6938 7.9992 48.7362 7.98625C48.7786 7.9733 48.8232 7.96896 48.8673 7.97347C49.7907 8.05784 48.4079 9.24847 48.5017 8.27816Z" stroke="#121224" stroke-width="0.139535" stroke-miterlimit="10"/>
<path d="M49.1907 40.6407C49.1948 40.5963 49.2076 40.5532 49.2285 40.5138C49.2494 40.4744 49.2779 40.4395 49.3123 40.4112C49.3467 40.3828 49.3864 40.3616 49.4291 40.3487C49.4718 40.3358 49.5166 40.3315 49.561 40.336C50.4844 40.4204 49.1016 41.611 49.1907 40.6407Z" stroke="#121224" stroke-width="0.139535" stroke-miterlimit="10"/>
<path d="M44.6291 13.7954C44.6996 13.8246 44.7561 13.8799 44.7867 13.9498C44.8173 14.0197 44.8196 14.0988 44.7932 14.1704C44.5307 14.9016 43.8604 13.5 44.6291 13.7954Z" fill="#121224"/>
</svg>
