<svg width="44" height="44" viewBox="0 0 44 44" fill="none" xmlns="http://www.w3.org/2000/svg">
<g id="Free Icons-16">
<g id="Layer 17">
<path id="Vector" d="M5.99498 13.5389C7.50753 12.9657 9.02348 12.4672 10.5394 11.9687L15.094 10.4866C16.1996 10.1475 17.3018 9.75748 18.4108 9.41495C22.3244 8.21101 26.2483 6.99351 30.111 5.67766C31.8339 5.09434 33.5499 4.47711 35.232 3.83275C36.3139 3.419 37.3855 2.97812 38.447 2.52368C39.5068 2.07589 40.5426 1.57329 41.5501 1.01791C42.1368 0.638076 42.1233 0.743209 41.6824 1.19087C40.8987 1.87797 40.0103 2.43552 39.0507 2.84247C36.8802 3.83275 34.6657 4.6772 32.4375 5.49791C30.2094 6.31863 27.944 7.09525 25.6819 7.81422C22.9688 8.69598 20.1607 9.6693 17.39 10.585C14.3378 11.6024 11.2855 12.552 8.25364 13.6067L6.86317 14.1052L6.1849 14.3697L5.8695 14.4986C5.81185 14.5224 5.75758 14.5427 5.70332 14.5698L5.53715 14.6444C5.50662 14.7021 5.57445 14.753 5.60836 14.7971C5.64996 14.8414 5.69413 14.8833 5.74063 14.9225L5.81524 14.9836L5.95089 15.0921C6.33073 15.3838 6.7343 15.6551 7.14466 15.9162C7.76867 16.313 8.41642 16.6623 9.07774 17.0082L11.0515 18.0901L14.9889 20.23L15.1856 20.3318L15.4501 20.481C15.4705 20.481 15.5044 20.5014 15.5078 20.5285L15.5281 20.5997L15.5722 20.7489C15.5856 20.7979 15.5958 20.8478 15.6027 20.8981L15.6265 21.0135L15.7825 21.8647L16.0843 23.5604C16.2878 24.6795 16.4913 25.7953 16.6914 26.9178L16.9661 28.3897C17.2815 30.2346 17.3527 30.8145 17.3052 31.2384C17.3047 31.3349 17.2979 31.4312 17.2849 31.5267C17.2577 31.6318 17.1628 31.5267 17.0034 31.1876C16.7945 30.6991 16.6222 30.1958 16.4879 29.6818C16.2098 28.6915 15.986 27.6741 15.7757 26.6499C15.5654 25.6257 15.3687 24.5846 15.189 23.5366L14.9177 21.963L14.7786 21.183L14.7583 21.0813L14.6294 21.0135L11.7908 19.4873L7.54484 17.1744C6.82248 16.7672 6.12696 16.314 5.46253 15.8179L5.33366 15.7195L5.1607 15.5737C5.01213 15.4543 4.8727 15.3239 4.74356 15.1837C4.63264 15.0649 4.54825 14.9238 4.49599 14.7699C4.47448 14.7008 4.46418 14.6287 4.46547 14.5563C4.46547 14.4884 4.46547 14.3935 4.52652 14.3528L4.86565 14.0611L5.03522 13.9153C5.11689 13.8674 5.20189 13.8255 5.28957 13.7898L5.69654 13.6236L5.98141 13.5083L5.99498 13.5389Z" fill="#121224"/>
<path id="Vector_2" d="M25.0004 25.9343C25.5192 26.2158 26.0178 26.5108 26.54 26.8059C26.7266 26.9144 26.9233 27.0026 27.0996 27.1213L28.992 28.3795C29.2701 28.5626 29.5584 28.7186 29.8432 28.9017C30.2217 29.0905 30.5797 29.3178 30.9115 29.58C31.0099 29.6784 30.9556 29.736 30.803 29.7699C30.5968 29.8269 30.3768 29.8052 30.1858 29.7089C29.4193 29.3223 28.6597 28.9187 27.9441 28.4609C27.4896 28.1874 27.021 27.9384 26.54 27.7148C26.0246 27.4367 25.5226 27.1518 24.997 26.8839C24.6782 26.7211 24.3594 26.5447 24.0338 26.4057C23.5404 26.1598 23.0344 25.9402 22.5179 25.7478C22.1245 25.5952 21.7141 25.5341 21.3207 25.4086C21.2323 25.3901 21.1451 25.3663 21.0596 25.3374C20.7476 25.2085 20.6696 25.0898 20.6424 24.9169C20.6337 24.8778 20.628 24.8381 20.6255 24.7982C20.6255 24.6795 20.7883 24.6117 21.063 24.5913C21.8645 24.6179 22.6518 24.8095 23.3759 25.1543C23.9321 25.3781 24.4713 25.6494 25.0004 25.9207V25.9343Z" fill="#121224"/>
<path id="Vector_3" d="M24.2134 13.9254L27.9914 11.3785L29.348 10.4357L34.218 7.1834C34.937 6.70182 35.6525 6.20329 36.3546 5.70815C37.26 5.07396 38.152 4.41604 39.1083 3.85985C39.1618 3.82682 39.2187 3.79954 39.2779 3.77846C39.2779 3.79881 39.2406 3.70046 39.4 3.94803C39.3957 3.94989 39.3911 3.95086 39.3864 3.95086C39.3818 3.95086 39.3772 3.94989 39.3729 3.94803C39.3695 3.93698 39.3695 3.92516 39.3729 3.91411C39.3729 3.93785 39.3254 3.88698 39.3457 3.87681V3.90733C39.3163 3.96248 39.2835 4.01571 39.2474 4.06672C38.956 4.47181 38.5996 4.8259 38.1927 5.11466C36.3579 6.41695 34.5029 7.68532 32.6003 8.93335C31.4608 9.67267 30.3179 10.4866 29.1682 11.287L25.3767 13.878L23.0468 15.4719C21.8734 16.2825 20.6728 17.0862 19.5401 17.9069C18.6448 18.5445 17.7902 19.2058 16.9152 19.8536L16.3454 20.2775C15.6197 20.8032 15.3653 20.932 15.1076 20.9049C15.0504 20.9057 14.9934 20.8988 14.938 20.8846C14.7922 20.8303 15.0262 20.5454 15.5349 20.1147C17.0475 18.8836 18.7194 17.6967 20.4083 16.5199L24.1931 13.9153L24.2134 13.9254Z" fill="#121224"/>
<path id="Vector_4" d="M26.8858 15.4989L29.8498 12.9995L30.9147 12.0703L34.7266 8.84845C35.2862 8.37027 35.8322 7.86835 36.3714 7.3766C37.0497 6.73563 37.728 6.07092 38.4741 5.49778C38.7149 5.32482 38.7454 5.41299 38.647 5.67074C38.4876 6.07208 38.2449 6.43504 37.9349 6.73563C36.558 8.09218 35.12 9.35716 33.6278 10.595C32.7325 11.3309 31.8473 12.1516 30.952 12.9249L27.9812 15.4718L26.1566 17.0352C25.2308 17.8288 24.3117 18.6258 23.4198 19.4295C22.7415 20.0603 22.0802 20.7115 21.4155 21.3558L20.9848 21.7832C20.4354 22.3054 20.2353 22.4411 19.9843 22.4173C19.9273 22.4162 19.8705 22.4094 19.8147 22.397C19.6587 22.3461 19.8147 22.0579 20.1742 21.6204C21.3485 20.3587 22.5941 19.1652 23.9047 18.0459C24.8815 17.1878 25.8785 16.3502 26.8688 15.4888L26.8858 15.4989Z" fill="#121224"/>
<path id="Vector_5" d="M34.9285 20.5154C34.5538 21.834 34.1931 23.1599 33.8878 24.4929C33.7248 25.1612 33.5687 25.8259 33.4403 26.4977L33.3363 26.9972L33.2565 27.5002L33.1732 27.9996C33.1507 28.1266 33.1368 28.2551 33.1316 28.3841L33.0935 28.8404L33.0726 28.8799L32.8853 29.2392L32.861 29.2859V29.3075C32.8229 29.2284 32.9443 29.4871 32.7778 29.1314H32.7154L32.5627 29.1781C32.4552 29.2895 32.254 29.117 32.0806 28.9949L31.6157 28.6715L30.3982 27.8343C28.9308 26.8822 27.4913 25.9301 25.9927 25.0426C24.5206 24.1443 22.9744 23.3831 21.3722 22.7682C21.1953 22.7071 21.0254 22.6461 20.838 22.5922L20.5536 22.5275L20.3906 22.4844C20.3489 22.4844 20.29 22.4484 20.2657 22.4844L20.2345 22.6245L20.1235 23.1203C19.9477 23.8796 19.765 24.6402 19.5754 25.4019C19.3256 26.3792 19.0689 27.3601 18.7775 28.3338C18.4995 29.3216 18.1409 30.2832 17.7057 31.2082C17.3796 31.7866 17.3102 31.5998 17.4108 31.0716C17.5556 30.1946 17.7502 29.3272 17.9936 28.4739C18.5694 26.5193 19.0828 24.5216 19.5442 22.5347L19.7107 21.8161L19.7523 21.6328C19.7523 21.5897 19.7939 21.6328 19.8182 21.6328L19.9084 21.6544L20.2553 21.7298L20.6022 21.8125L20.8242 21.8736L21.1953 21.9849C21.6914 22.143 22.1701 22.3442 22.6418 22.5311C23.5871 22.9286 24.5112 23.3784 25.41 23.8785C27.5329 25.0893 29.6905 26.4187 31.7337 27.8308L32.1152 28.1002L32.2436 28.1936C32.2848 28.2277 32.3289 28.2578 32.3754 28.2835V28.1182V27.9817L32.4378 27.5864C32.4829 27.3134 32.5211 27.0439 32.5731 26.7744C32.6841 26.2426 32.7813 25.6965 32.92 25.1791L33.2946 23.6054L33.697 22.0316C34.1515 20.3717 34.6267 18.7261 35.1227 17.0841C35.8963 14.5941 36.7461 12.1222 37.6515 9.70047C38.3453 7.82492 39.039 5.97094 39.8889 4.17084C40.0693 3.77202 40.2358 3.38038 40.4647 2.99593L40.9573 2.0869C41.0838 1.88323 41.2204 1.68655 41.3666 1.49765C41.5126 1.2788 41.6919 1.08588 41.8974 0.926362C41.9617 0.874817 42.0301 0.829135 42.102 0.789828C42.2755 0.725154 41.998 1.33596 41.4534 2.37434L40.8914 3.56722C40.6972 3.96604 40.5445 4.39001 40.3607 4.79962C39.9895 5.61523 39.6669 6.47036 39.32 7.31472C38.6644 9.02858 38.0192 10.7748 37.4295 12.5461C36.9786 13.8576 36.5588 15.1834 36.146 16.4984C35.7332 17.8135 35.3274 19.1608 34.9493 20.501L34.9285 20.5154Z" fill="#121224"/>
<path id="Vector_6" d="M20.7441 28.4881C20.4999 28.7561 20.2523 29.024 20.0014 29.2851C19.9098 29.3801 19.8284 29.4852 19.7368 29.5768C19.3977 29.9159 19.0586 30.2245 18.7194 30.5399L18.2718 30.974C18.0855 31.1648 17.8758 31.3311 17.6477 31.4692C17.5019 31.554 17.4748 31.1707 17.6477 30.9571C18.006 30.5659 18.3865 30.1956 18.7872 29.8481C19.0197 29.6254 19.2383 29.3887 19.4418 29.1393L20.1608 28.3321C20.3066 28.166 20.4558 27.993 20.5982 27.8302C20.8119 27.5725 21.0323 27.3147 21.229 27.0434C21.385 26.8365 21.5037 26.6059 21.6496 26.3957C21.6801 26.3516 21.7072 26.3007 21.7411 26.2566C21.8666 26.0871 21.9344 26.0531 22.0633 26.0904C22.0933 26.0975 22.1227 26.1065 22.1515 26.1176C22.2397 26.1549 22.2566 26.2736 22.1956 26.4228C22.0095 26.8714 21.7594 27.2907 21.4529 27.6674C21.229 27.9557 20.9916 28.2304 20.7542 28.5085L20.7441 28.4881Z" fill="#121224"/>
<path id="Vector_7" d="M8.50768 18.4156C8.93838 18.697 9.38604 18.9582 9.8371 19.2091C10.0033 19.3007 10.1762 19.3651 10.3492 19.4567C10.937 19.7778 11.5317 20.0886 12.1331 20.3893C12.401 20.525 12.6757 20.6267 12.9639 20.7285C13.1632 20.804 13.3506 20.908 13.5201 21.0371C13.6989 21.1748 13.8381 21.3573 13.9237 21.5661C13.9712 21.6984 13.8355 21.7425 13.6592 21.7459C13.4763 21.7575 13.2929 21.738 13.1166 21.6882C12.9747 21.6314 12.8298 21.5827 12.6825 21.5424L12.15 21.3389C11.7841 21.1873 11.4314 21.0058 11.0953 20.7963C10.6849 20.542 10.2169 20.3792 9.78622 20.1553C9.35552 19.9315 8.84003 19.6432 8.3788 19.3685C8.09393 19.199 7.81245 19.0294 7.53435 18.8497C7.10704 18.5851 6.70007 18.2833 6.29311 17.9916C6.1405 17.8729 5.97093 17.7746 5.81153 17.6525C5.65299 17.5334 5.50126 17.4054 5.35709 17.2693C5.29605 17.2082 5.22822 17.1506 5.16717 17.0861C4.95352 16.825 4.94334 16.6927 5.05187 16.5367C5.07594 16.5003 5.10198 16.4652 5.12987 16.4316C5.23161 16.3333 5.40457 16.3638 5.57414 16.4859C5.83188 16.669 6.11337 16.825 6.39485 17.0047C6.67633 17.1845 6.94086 17.3744 7.22574 17.5575C7.64627 17.8356 8.07019 18.1273 8.51785 18.385L8.50768 18.4156Z" fill="#121224"/>
<path id="Vector_8" d="M17.9086 18.7277C19.2245 17.7646 20.5607 16.8489 21.8969 15.9332L23.3484 14.9158L28.5372 11.4498C29.3003 10.9343 30.0565 10.3985 30.7993 9.86267C31.7522 9.18439 32.6849 8.45525 33.6853 7.82784C34.0041 7.63793 34.0245 7.74306 33.8515 8.03472C33.5731 8.4931 33.2093 8.89376 32.7798 9.21492C30.8671 10.6766 28.8899 12.0433 26.8619 13.3694C25.6478 14.1731 24.4269 15.0583 23.1958 15.9129C21.8562 16.8387 20.5166 17.7612 19.2008 18.7108C18.3936 19.2975 17.5797 19.891 16.8268 20.5319C16.6877 20.654 16.5521 20.7795 16.43 20.9084C16.3079 21.0372 16.2231 21.1119 16.2435 21.2272C16.2435 21.5663 16.2842 21.9631 16.3181 22.3361C16.3961 23.0856 16.4978 23.8351 16.6064 24.5778C16.7793 25.7377 17.0099 26.8636 17.1829 28.0133C17.2236 28.2677 17.2677 28.5152 17.2982 28.773C17.4135 29.7293 17.3694 30.0549 17.1693 30.2652C17.1293 30.3164 17.0839 30.363 17.0337 30.4042C16.8709 30.489 16.7488 30.1227 16.6369 29.4445C16.2977 27.4096 15.8976 25.2799 15.6195 23.089C15.572 22.6787 15.5245 22.2717 15.494 21.8512L15.4702 21.5324V21.1661C15.4779 20.9655 15.5479 20.7723 15.6703 20.6133C15.7487 20.5118 15.8337 20.4155 15.9247 20.3251C16.5407 19.7514 17.192 19.2167 17.8747 18.7243L17.9086 18.7277Z" fill="#121224"/>
</g>
<path id="Subtract" d="M13.1231 41.2293C12.5298 41.4001 12.1486 41.5099 12.1222 41.5786L11.445 40.1045C11.4903 40.0653 11.7662 39.9796 12.1987 39.8451C13.8681 39.3263 17.8703 38.0825 19.953 35.9928C20.8177 35.1251 21.2439 34.6559 21.5995 33.3055C21.6691 33.0411 21.717 32.7985 21.764 32.5602C21.8697 32.0245 21.9712 31.5101 22.3055 30.8169C22.6878 30.0241 23.1149 29.5373 23.2323 29.4068C23.7002 28.8878 24.1023 28.6537 24.789 28.2538C24.8713 28.2059 24.9577 28.1556 25.0488 28.1021C25.89 27.6084 26.1867 27.637 26.8974 27.1464L27.4139 27.4046C26.9342 27.7025 26.8834 27.635 26.4557 27.8462C26.1525 27.996 25.8542 28.1171 25.5622 28.2356C24.7233 28.5761 23.9365 28.8954 23.2323 29.8159C22.6152 30.6222 22.3789 31.4946 22.3191 31.7156C22.3125 31.7397 22.3081 31.7561 22.3055 31.7638C22.1732 32.1513 22.1486 32.3426 22.1079 32.6588C22.0726 32.9323 22.0254 33.2993 21.886 33.9677C21.6715 34.9955 21.4645 35.423 21.1859 35.9979C21.107 36.1608 21.0224 36.3355 20.9303 36.539C19.6584 39.3479 15.1515 40.6454 13.1231 41.2293Z" fill="#121224"/>
<path id="Subtract_2" d="M2.76403 26.2289C2.38733 26.3785 2.06338 26.4552 1.8465 26.496L2.63609 28.3395C5.25316 27.0198 6.28098 26.1445 7.2496 25.1982C7.43048 25.0215 7.69624 24.7072 7.88176 24.534C8.0258 24.342 8.09678 24.2294 8.30287 23.9604C8.67199 23.4787 9.24183 22.1696 9.59415 21.4649C9.8524 20.9484 10.4604 20.2971 10.6272 20.1737L10.1107 19.9154C9.53505 20.4028 8.29553 22.5451 7.72207 23.0544C7.5034 23.2485 6.80582 23.9991 6.59413 24.1899C5.88125 24.8323 5.49646 24.9999 4.55777 25.5222C4.04809 25.7511 3.67976 25.8647 2.76403 26.2289Z" fill="#121224"/>
<g id="Group 282154">
<path id="Vector 625" d="M32.3474 3.90731L17.2939 8.88975C17.0739 8.96257 16.9293 9.173 16.9403 9.40449L17.6473 24.3656L19.3017 23.3319C19.3807 23.2825 19.4448 23.2128 19.4874 23.13L20.162 21.8181C20.1923 21.7593 20.2335 21.7069 20.2836 21.6636L33.0262 10.6479L33.0262 4.39767C33.0262 4.04558 32.6817 3.79668 32.3474 3.90731Z" fill="#F05537"/>
<path id="Vector_9" d="M33.1662 6.09611L33.1508 7.1753C33.1466 7.30629 33.168 7.43529 33.167 7.56642C33.1521 8.0325 33.1377 8.4803 33.1671 8.96043C33.1737 9.16516 33.1917 9.36955 33.221 9.57274C33.2776 9.8315 33.2928 10.0965 33.2661 10.3586C33.2634 10.4439 33.1388 10.4417 33.0128 10.3846C32.9416 10.3542 32.8775 10.3103 32.8243 10.2557C32.7711 10.201 32.73 10.1367 32.7035 10.0667C32.6134 9.53116 32.5762 8.98935 32.5923 8.44846C32.6028 8.1225 32.5464 7.78767 32.525 7.45734C32.5037 7.12702 32.4941 6.72702 32.493 6.36094L32.4924 5.68373C32.5033 5.34255 32.4919 5.00043 32.49 4.66176C32.4984 4.39978 32.4364 4.13793 32.4448 3.87595C32.4466 3.82111 32.4484 3.76324 32.4503 3.70536C32.4572 3.48907 32.5168 3.42444 32.6522 3.38737C32.6814 3.37669 32.7116 3.36876 32.7425 3.36367C32.842 3.34951 32.9221 3.44131 32.9651 3.59561C33.031 3.82636 33.0811 4.06076 33.1152 4.29734C33.1427 4.53641 33.1606 4.77508 33.172 5.01653L33.1853 6.09691L33.1662 6.09611Z" fill="#121224"/>
<path id="Vector_10" d="M17.3172 14.8909L17.384 17.3548C17.3898 17.6541 17.421 17.9462 17.43 18.2455C17.4505 19.3105 17.4703 20.3337 17.5362 21.4261C17.5584 21.8926 17.5919 22.357 17.6365 22.8176C17.7127 23.402 17.7481 24.005 17.7414 24.6058C17.7451 24.8007 17.6207 24.8089 17.4907 24.6918C17.4173 24.6298 17.35 24.5364 17.2928 24.4173C17.2355 24.2981 17.1896 24.1557 17.1578 23.9988C17.0272 22.7863 16.9489 21.554 16.9238 20.3181C16.9094 19.5733 16.8276 18.8152 16.7812 18.0638C16.7347 17.3123 16.6947 16.4007 16.6658 15.5655L16.6136 14.0204C16.5985 13.2408 16.5611 12.4614 16.5334 11.6889C16.5218 11.0903 16.4401 10.4993 16.4285 9.90068C16.4261 9.77539 16.4235 9.64314 16.421 9.51088C16.4114 9.01667 16.466 8.86297 16.5982 8.76422C16.6265 8.73681 16.6561 8.71554 16.6864 8.70071C16.7846 8.65798 16.8716 8.85904 16.9262 9.20662C17.0095 9.7262 17.0774 10.2558 17.1294 10.792C17.175 11.3346 17.211 11.8773 17.2408 12.427L17.3364 14.8907L17.3172 14.8909Z" fill="#121224"/>
<path id="Vector_11" d="M18.3282 23.683L18.7291 23.4949C18.7786 23.4746 18.8183 23.4264 18.8667 23.4026C19.0428 23.3305 19.2119 23.2612 19.3775 23.1376C19.4502 23.0913 19.5188 23.0327 19.583 22.9618C19.6579 22.8501 19.7496 22.783 19.8551 22.7627C19.8873 22.7495 19.9303 22.8872 19.9536 23.0369C19.9675 23.1212 19.9739 23.2002 19.9726 23.2692C19.9712 23.3383 19.9621 23.3958 19.9458 23.4384C19.7812 23.6394 19.5957 23.7834 19.3918 23.8685C19.2687 23.9189 19.1658 24.0447 19.0523 24.1311C18.9387 24.2174 18.7955 24.304 18.6617 24.3747L18.4138 24.5042C18.2849 24.557 18.1636 24.6346 18.0402 24.7011C17.9412 24.7417 17.867 24.8597 17.768 24.9002C17.7473 24.9087 17.7255 24.9177 17.7036 24.9266C17.6219 24.9601 17.5773 24.9067 17.5162 24.7645C17.502 24.7344 17.4885 24.7026 17.4758 24.6695C17.4356 24.5625 17.4411 24.4567 17.4826 24.38C17.544 24.2635 17.6123 24.1637 17.687 24.0812C17.7649 24.0054 17.8461 23.9403 17.9306 23.8818L18.3218 23.6618L18.3282 23.683Z" fill="#121224"/>
<path id="Vector_12" d="M26.7097 5.93995L24.1304 6.72659C23.8166 6.81949 23.5161 6.93933 23.203 7.03587C22.0863 7.36642 21.0133 7.68401 19.8781 8.07414C19.392 8.23396 18.9106 8.40612 18.4359 8.5899C17.838 8.84541 17.2111 9.05962 16.5769 9.22517C16.3725 9.28567 16.3353 9.14596 16.4286 8.96372C16.477 8.86211 16.5598 8.75829 16.6721 8.65861C16.7844 8.55892 16.9238 8.46545 17.0817 8.3839C18.3285 7.88519 19.6082 7.44043 20.9038 7.05549C21.6848 6.82431 22.4643 6.51243 23.2449 6.24272C24.0255 5.97301 24.9764 5.66452 25.8492 5.39071L27.4642 4.88562C28.2817 4.64365 29.0939 4.37621 29.901 4.12184C30.5287 3.93604 31.1323 3.67237 31.76 3.48657C31.8914 3.44768 32.0301 3.40663 32.1687 3.36558C32.687 3.21219 32.8614 3.23014 32.9959 3.35268C33.0312 3.37707 33.0604 3.40467 33.0831 3.43509C33.1507 3.53489 32.959 3.69213 32.6055 3.85472C32.0776 4.09963 31.5355 4.32979 30.9828 4.54374C30.4219 4.75228 29.8588 4.9499 29.2867 5.1424L26.7143 5.96177L26.7097 5.93995Z" fill="#121224"/>
<path id="Vector_13" d="M29.1399 8.18225L29.1312 8.16097L28.9111 8.24377L27.7271 8.68929L27.7271 8.68918L27.72 8.69205L27.2945 8.86627C27.0136 8.97215 26.732 9.0649 26.4465 9.15655C26.6703 9.07101 26.8999 8.96697 27.1203 8.86707C27.2359 8.81467 27.349 8.76341 27.4575 8.71656L28.6367 8.22633L28.6385 8.22561L29.3656 7.92941L29.3656 7.92945L29.3699 7.92761C29.5329 7.85784 29.6973 7.79155 29.8645 7.7241C29.8818 7.71712 29.8991 7.71013 29.9165 7.70311C30.1005 7.62884 30.2877 7.5528 30.4733 7.47118C30.6259 7.40436 30.771 7.3276 30.9076 7.2539C30.9274 7.24322 30.947 7.23263 30.9664 7.22213C31.0785 7.16148 31.1847 7.10402 31.2932 7.05122C31.3482 7.03156 31.3935 7.00468 31.4199 6.98896C31.4253 6.98578 31.4301 6.98293 31.4344 6.98037C31.458 6.9663 31.467 6.96089 31.4745 6.95735C31.5197 6.94029 31.5502 6.93115 31.571 6.92665C31.575 6.93288 31.5797 6.94072 31.585 6.95056L31.5923 6.96391L31.6012 6.97616C31.615 6.99532 31.6285 7.01716 31.6414 7.04152C31.635 7.05025 31.6202 7.06643 31.5895 7.08459L31.5895 7.08456L31.5858 7.08679C31.1322 7.36468 30.6188 7.5912 30.1009 7.80907C29.8726 7.9048 29.6517 7.98824 29.4261 8.07347C29.3318 8.10908 29.2367 8.145 29.1399 8.18225Z" fill="white" stroke="white" stroke-width="0.51651"/>
<path id="Vector_14" d="M28.3471 10.259C28.2822 10.2859 28.2175 10.3106 28.1525 10.334C28.2453 10.289 28.3367 10.2399 28.4263 10.1869L29.0472 9.90591L29.4483 9.73952L29.4561 9.73626C29.6546 9.65393 29.8741 9.56286 30.0697 9.4515C30.1702 9.39428 30.2476 9.34216 30.3176 9.29407C30.3262 9.28814 30.3347 9.28231 30.343 9.27657C30.399 9.23802 30.4494 9.20337 30.5094 9.16633C30.5224 9.15989 30.5343 9.1531 30.545 9.1465L30.545 9.1467L30.5451 9.14691L30.5452 9.14713L30.5452 9.14735L30.5453 9.14756L30.5454 9.14778L30.5455 9.148L30.5455 9.14822L30.5456 9.14843L30.5457 9.14865L30.5457 9.14887L30.5458 9.14909L30.5459 9.1493L30.5459 9.14952L30.546 9.14974L30.5461 9.14995L30.5461 9.15017L30.5462 9.15039L30.5463 9.15061L30.5463 9.15082L30.5464 9.15104L30.5465 9.15126L30.5465 9.15147L30.5466 9.15169L30.5467 9.15191L30.5467 9.15213L30.5468 9.15234L30.5469 9.15256L30.5469 9.15278L30.547 9.15299L30.5471 9.15321L30.5471 9.15343L30.5472 9.15364L30.5473 9.15386L30.5473 9.15408L30.5474 9.15429L30.5475 9.15451L30.5475 9.15473L30.5476 9.15494L30.5477 9.15516L30.5478 9.15538L30.5478 9.15559L30.5479 9.15581L30.548 9.15603L30.548 9.15624L30.5481 9.15646L30.5482 9.15668L30.5482 9.15689L30.5483 9.15711L30.5484 9.15733L30.5484 9.15754L30.5485 9.15776L30.5486 9.15797L30.5486 9.15819L30.5487 9.15841L30.5488 9.15862L30.5488 9.15884L30.5489 9.15906L30.549 9.15927L30.549 9.15949L30.5491 9.1597L30.5492 9.15992L30.5492 9.16014L30.5493 9.16035L30.5494 9.16057L30.5494 9.16078L30.5495 9.161L30.5496 9.16121L30.5496 9.16143L30.5497 9.16165L30.5498 9.16186L30.5498 9.16208L30.5499 9.16229L30.55 9.16251L30.55 9.16272L30.5501 9.16294L30.5502 9.16316L30.5502 9.16337L30.5503 9.16359L30.5504 9.1638L30.5504 9.16402L30.5505 9.16423L30.5506 9.16445L30.5506 9.16466L30.5507 9.16488L30.5508 9.16509L30.5508 9.16531L30.5509 9.16552L30.551 9.16574L30.551 9.16595L30.5511 9.16617L30.5512 9.16638L30.5512 9.1666L30.5513 9.16681L30.5514 9.16703L30.5514 9.16724L30.5515 9.16746L30.5516 9.16767L30.5517 9.16789L30.5517 9.1681L30.5518 9.16831L30.5519 9.16853L30.5519 9.16874L30.552 9.16896L30.5521 9.16917L30.5521 9.16939L30.5522 9.1696L30.5523 9.16981L30.5523 9.17003L30.5524 9.17024L30.5525 9.17046L30.5525 9.17067L30.5526 9.17088L30.5527 9.1711L30.5527 9.17131L30.5528 9.17153L30.5529 9.17174L30.5529 9.17195L30.553 9.17217L30.5531 9.17238L30.5531 9.17259L30.5532 9.17281L30.5533 9.17302L30.5533 9.17323L30.5534 9.17345L30.5535 9.17366L30.5535 9.17387L30.5536 9.17409L30.5536 9.1743L30.5537 9.17451L30.5538 9.17473L30.5538 9.17494L30.5539 9.17515L30.554 9.17536L30.554 9.17558L30.5541 9.17579L30.5542 9.176L30.5542 9.17621L30.5543 9.17643L30.5544 9.17664L30.5544 9.17685L30.5545 9.17706L30.5546 9.17728L30.5546 9.17749L30.5547 9.1777L30.5548 9.17791L30.5548 9.17812L30.5549 9.17834L30.555 9.17855L30.555 9.17876L30.5551 9.17897L30.5552 9.17918L30.5552 9.1794L30.5553 9.17961L30.5554 9.17982L30.5554 9.18003L30.5555 9.18024L30.5556 9.18045L30.5556 9.18066L30.5557 9.18088L30.5558 9.18109L30.5558 9.1813L30.5559 9.18151L30.556 9.18172L30.556 9.18193L30.5561 9.18214L30.5562 9.18235L30.5562 9.18256L30.5563 9.18277L30.5564 9.18298L30.5564 9.1832L30.5565 9.18341L30.5566 9.18362L30.5566 9.18383L30.5567 9.18404L30.5568 9.18425L30.5568 9.18446L30.5569 9.18467L30.5569 9.18488L30.557 9.18509L30.5571 9.1853L30.5571 9.18551L30.5572 9.18572L30.5573 9.18593L30.5573 9.18613L30.5574 9.18634L30.5575 9.18655L30.5575 9.18676L30.5576 9.18697L30.5577 9.18718L30.5577 9.18739L30.5578 9.1876L30.5579 9.18781L30.5579 9.18802L30.558 9.18823L30.5581 9.18843L30.5581 9.18864L30.5582 9.18885L30.5583 9.18906L30.5583 9.18927L30.5584 9.18948L30.5584 9.18969L30.5585 9.18989L30.5586 9.1901L30.5586 9.19031L30.5587 9.19052L30.5588 9.19073L30.5588 9.19093L30.5589 9.19114L30.559 9.19135L30.559 9.19156L30.5591 9.19176L30.5592 9.19197L30.5639 9.20726L30.5705 9.22166C30.5718 9.22451 30.5725 9.22728 30.573 9.22971C30.3531 9.40268 30.115 9.54097 29.8645 9.64138L29.8645 9.64119L29.8554 9.64525L29.8473 9.64885L29.8555 9.63312L29.2406 9.88823L28.5869 10.1595C28.5509 10.1744 28.5074 10.1962 28.4789 10.2104C28.4695 10.2151 28.4617 10.219 28.4564 10.2215C28.4245 10.2368 28.4088 10.2419 28.3981 10.2439L28.372 10.2486L28.3471 10.259Z" fill="white" stroke="white" stroke-width="0.51651"/>
<path id="Vector 624" d="M22.0571 10.6792L19.0168 11.75C18.9736 11.7652 18.9456 11.807 18.9479 11.8527L19.1249 15.3044C19.1329 15.459 19.3016 15.5503 19.4353 15.4723L22.1682 13.8794C22.2002 13.8607 22.2197 13.8263 22.2194 13.7893L22.1947 10.7757C22.1941 10.7049 22.1239 10.6556 22.0571 10.6792Z" fill="white" stroke="white" stroke-width="0.51651"/>
</g>
</g>
</svg>
