<svg width="28" height="29" viewBox="0 0 28 29" fill="none" xmlns="http://www.w3.org/2000/svg">
<rect x="1" y="1.39258" width="26" height="26" rx="13" fill="white" stroke="#EFEDFF" stroke-width="2"/>
<path d="M17.9461 13.8286H10.0542C9.43152 13.8286 8.92676 14.3334 8.92676 14.956V18.902C8.92676 19.5246 9.43152 20.0294 10.0542 20.0294H17.9461C18.5687 20.0294 19.0735 19.5246 19.0735 18.902V14.956C19.0735 14.3334 18.5687 13.8286 17.9461 13.8286Z" stroke="#8951FF" stroke-width="1.3" stroke-linecap="round" stroke-linejoin="round"/>
<path d="M11.1816 13.8287V11.5739C11.1816 10.8264 11.4786 10.1095 12.0072 9.5809C12.5357 9.05232 13.2527 8.75537 14.0002 8.75537C14.7477 8.75537 15.4646 9.05232 15.9932 9.5809C16.5218 10.1095 16.8187 10.8264 16.8187 11.5739V13.8287" stroke="#8951FF" stroke-width="1.3" stroke-linecap="round" stroke-linejoin="round"/>
</svg>
