<svg width="32" height="32" viewBox="0 0 32 32" fill="none" xmlns="http://www.w3.org/2000/svg">
<circle cx="16" cy="16" r="16" fill="#EFEDFF"/>
<path d="M20.0576 18.0895L16.7688 21.2736L16.488 21.5424C16.0604 21.8066 15.5016 21.6699 15.2366 21.2339C14.9736 20.801 15.1066 20.2374 15.5342 19.9734L15.7848 19.8684L20.0576 18.0895ZM10.3278 12.6803C10.5605 12.5175 10.8791 12.5986 11.0197 12.8454L12.5793 15.5826C12.7117 15.815 12.6364 16.1087 12.4222 16.2688C11.2195 17.1679 10.358 18.5088 10.0725 20.0553C9.97396 20.5887 9.5391 21.024 8.99672 21.024H7C6.44771 21.024 5.99487 20.5752 6.04796 20.0255C6.34212 16.9794 7.96792 14.3306 10.3278 12.6803ZM20.9712 12.8411C21.1118 12.5947 21.4297 12.5135 21.6624 12.6756C24.0283 14.3238 25.6576 16.9757 25.952 20.0255C26.0051 20.5752 25.5523 21.024 25 21.024H23.0035C22.4611 21.024 22.0262 20.5887 21.9278 20.0553C21.6418 18.5054 20.7778 17.1603 19.5705 16.2622C19.3554 16.1022 19.2794 15.8077 19.4122 15.5748L20.9712 12.8411ZM16 10.8945C17.5069 10.8945 18.9381 11.2324 20.219 11.8376C20.473 11.9576 20.5618 12.2694 20.4228 12.5135L18.8516 15.2741C18.7209 15.5038 18.4348 15.5898 18.1892 15.4924C17.5102 15.223 16.7733 15.075 16 15.075C15.2241 15.075 14.4826 15.223 13.802 15.4941C13.556 15.5921 13.2691 15.5063 13.138 15.2763L11.5676 12.5195C11.4287 12.2755 11.5173 11.9638 11.771 11.8435C13.0547 11.2353 14.4869 10.8945 16 10.8945Z" fill="#8951FF"/>
</svg>
