<svg width="14" height="14" viewBox="0 0 14 14" fill="none" xmlns="http://www.w3.org/2000/svg">
<path d="M12.6642 11.8359L10.5 9.68923C11.3401 8.64181 11.7469 7.31232 11.6368 5.97416C11.5267 4.63599 10.9081 3.39086 9.90823 2.49478C8.9083 1.59869 7.60306 1.11978 6.26088 1.15651C4.91869 1.19323 3.64159 1.74281 2.69217 2.69223C1.74275 3.64165 1.19317 4.91876 1.15645 6.26094C1.11972 7.60312 1.59863 8.90837 2.49471 9.90829C3.3908 10.9082 4.63593 11.5268 5.9741 11.6369C7.31226 11.7469 8.64175 11.3401 9.68917 10.5001L11.8358 12.6467C11.8901 12.7014 11.9546 12.7448 12.0257 12.7744C12.0968 12.804 12.173 12.8193 12.25 12.8193C12.327 12.8193 12.4033 12.804 12.4743 12.7744C12.5454 12.7448 12.6099 12.7014 12.6642 12.6467C12.7693 12.538 12.8281 12.3926 12.8281 12.2413C12.8281 12.09 12.7693 11.9447 12.6642 11.8359ZM6.41667 10.5001C5.60907 10.5001 4.81959 10.2606 4.14809 9.8119C3.47659 9.36322 2.95322 8.72549 2.64416 7.97936C2.33511 7.23323 2.25424 6.4122 2.4118 5.62011C2.56936 4.82803 2.95826 4.10045 3.52932 3.52938C4.10038 2.95832 4.82796 2.56942 5.62005 2.41186C6.41214 2.2543 7.23317 2.33517 7.9793 2.64422C8.72543 2.95328 9.36316 3.47665 9.81184 4.14815C10.2605 4.81966 10.5 5.60913 10.5 6.41673C10.5 7.4997 10.0698 8.53831 9.30402 9.30409C8.53825 10.0699 7.49964 10.5001 6.41667 10.5001Z" fill="#474D6A"/>
</svg>
