<svg width="18" height="18" viewBox="0 0 18 18" fill="none" xmlns="http://www.w3.org/2000/svg">
<path d="M17.0917 15.9084L14 12.8417C15.2001 11.3454 15.7812 9.44613 15.624 7.53446C15.4668 5.62279 14.5831 3.84403 13.1546 2.56391C11.7261 1.2838 9.8615 0.599634 7.9441 0.652101C6.0267 0.704568 4.20226 1.48968 2.84595 2.84599C1.48963 4.20231 0.704522 6.02674 0.652055 7.94415C0.599588 9.86155 1.28375 11.7262 2.56387 13.1546C3.84398 14.5831 5.62275 15.4668 7.53441 15.6241C9.44608 15.7813 11.3453 15.2001 12.8417 14L15.9083 17.0667C15.9858 17.1448 16.078 17.2068 16.1795 17.2491C16.2811 17.2914 16.39 17.3132 16.5 17.3132C16.61 17.3132 16.7189 17.2914 16.8205 17.2491C16.922 17.2068 17.0142 17.1448 17.0917 17.0667C17.2419 16.9113 17.3258 16.7037 17.3258 16.4875C17.3258 16.2714 17.2419 16.0638 17.0917 15.9084ZM8.16666 14C7.01294 14 5.88512 13.6579 4.92584 13.0169C3.96655 12.376 3.21888 11.4649 2.77737 10.399C2.33585 9.33313 2.22034 8.16024 2.44542 7.02868C2.6705 5.89713 3.22607 4.85773 4.04187 4.04192C4.85768 3.22611 5.89708 2.67054 7.02864 2.44546C8.16019 2.22038 9.33308 2.3359 10.399 2.77741C11.4649 3.21892 12.3759 3.9666 13.0169 4.92588C13.6579 5.88517 14 7.01299 14 8.16671C14 9.71381 13.3854 11.1975 12.2915 12.2915C11.1975 13.3855 9.71376 14 8.16666 14Z" fill="white"/>
</svg>
