<svg xmlns="http://www.w3.org/2000/svg" width="48" height="40" fill="none" xmlns:v="https://vecta.io/nano"><path d="M21.188 14.385a2.64 2.64 0 0 0 .278 1.834c.311.556.813.976 1.41 1.181a3.13 3.13 0 0 0 1.783.148 2.9 2.9 0 0 0 1.566-.904 2.9 2.9 0 0 0 .671-1.507 3.56 3.56 0 0 0-.386-2.035c-.098-.19.053-.301.321-.217.191.074.361.195.493.354a1.24 1.24 0 0 1 .264.551 3.73 3.73 0 0 1-.339 2.629 3.8 3.8 0 0 1-.832 1.028 3.58 3.58 0 0 1-1.159.633c-1.008.34-2.107.265-3.06-.211-.519-.279-.954-.696-1.257-1.206a3.49 3.49 0 0 1-.493-1.628 3.93 3.93 0 0 1 .769-2.483c.53-.714 1.285-1.221 2.139-1.436a3.14 3.14 0 0 1 2.356.368 3.49 3.49 0 0 1 .44.302c.508.443.573.669.511.886a.69.69 0 0 1-.047.151c-.042.066-.125.069-.235.018-.146-.085-.281-.186-.404-.301-.113-.108-.244-.19-.365-.302s-.252-.166-.389-.229c-.262-.136-.544-.228-.835-.271-.588-.078-1.184.055-1.684.377a3.21 3.21 0 0 0-.982.951c-.256.385-.428.821-.503 1.28l-.03.042z" fill="#121224"/><path d="M20.886 16.747l.271-2.158 5.721-.171.305 2.637-.914 1.678-4.231.171-1.151-2.157z" fill="#fff"/><path d="M32.683 8.482c-.047 3.675-5.96 3.942-6.139.205-.016-.703.191-1.393.592-1.97s.974-1.009 1.636-1.235c1.997-.644 3.8 1.039 3.912 2.999.012.224.36.226.348 0-.116-2.06-1.85-3.822-3.977-3.426-1.661.306-2.92 1.944-2.851 3.635.174 4.2 6.783 3.92 6.835-.205a.18.18 0 0 0-.051-.127c-.033-.034-.078-.053-.125-.054s-.092.018-.126.051-.053.078-.053.126z" fill="#121224"/><path d="M27.148 11.473l-.474-2.226 5.518-2.363 1.286 2.363-4.434 2.979-1.896-.753z" fill="#fff"/><g fill="#121224"><path d="M27.008 13.183l-.157-1.015-.076-.365-.106-.651-.096-.654a5.57 5.57 0 0 0-.135-.567c-.086-.233-.141-.475-.166-.725-.004-.08.04-.082.127-.036a1.44 1.44 0 0 1 .153.096c.067.045.114.099.14.161a5.77 5.77 0 0 1 .43 1.461c.031.308.152.566.207.876l.241.961.17.651c.052.318.256.613.317.925.066.237-.169.565-.093.799l.043.154c.069.189-.007.276-.125.353l-.081.052c-.046.023-.092.02-.144-.005-.075-.033-.127-.078-.153-.131a2.27 2.27 0 0 1-.2-.639l-.049-.343-.078-.336-.187-1.018.018-.003zm6.59-3.299l-.43-.929-.172-.33-.28-.595-.272-.6c-.084-.176-.182-.343-.282-.508a3.17 3.17 0 0 1-.355-.651c-.026-.075.012-.087.103-.063a1.46 1.46 0 0 1 .164.056c.073.028.13.069.17.121a6.28 6.28 0 0 1 .8 1.292c.116.286.297.504.434.786l.489.859.337.581c.137.29.403.525.547.807.127.211.01.576.145.781l.083.137c.115.164.072.264-.011.364l-.057.067c-.035.032-.076.04-.129.028-.076-.015-.135-.045-.173-.09a2.47 2.47 0 0 1-.361-.563l-.141-.315-.166-.302-.458-.926.015-.007z"/><path d="M38.499 14.574c-.084 6.562-10.622 7.04-10.941.366a5.93 5.93 0 0 1 1.055-3.517c.714-1.029 1.736-1.802 2.916-2.205 3.558-1.15 6.773 1.856 6.971 5.356.022.4.642.403.62 0-.208-3.678-3.298-6.825-7.089-6.118-2.96.547-5.204 3.472-5.08 6.49.31 7.5 12.088 7 12.181-.366a.32.32 0 0 0-.09-.226c-.059-.06-.139-.095-.223-.096s-.165.032-.224.091a.32.32 0 0 0-.095.224z"/></g><g fill="#fff"><ellipse cx="37.506" cy="25.137" rx="9.275" ry="9.384"/><path d="M27.757 18.185l-.135-3.356 8.733-4.555 2.234 1.918 1.963 5.103-10.46 3.459-2.336-2.568z"/><ellipse cx="32.97" cy="14.486" rx="5.348" ry="5.514"/></g><g fill="#121224"><path d="M46.932 25.211c-.141 11.137-17.94 11.948-18.479.62a10.1 10.1 0 0 1 1.782-5.969 9.89 9.89 0 0 1 4.924-3.741c6.01-1.952 11.438 3.15 11.773 9.09.037.679 1.084.684 1.047 0-.351-6.242-5.57-11.582-11.972-10.384-4.999.928-8.789 5.892-8.58 11.015.524 12.728 20.416 11.879 20.573-.62.001-.143-.053-.282-.153-.384a.53.53 0 0 0-.755-.008c-.101.101-.159.238-.16.381zm-1.438-.003a.63.63 0 0 0 0-.089c0-.154-.02-.312-.028-.466a8.09 8.09 0 0 0-1.688-4.517 7.98 7.98 0 0 0-3.947-2.73c-1.562-.481-3.232-.468-4.786.039a7.98 7.98 0 0 0-3.903 2.793 8.09 8.09 0 0 0-1.617 4.543 8.1 8.1 0 0 0 1.252 4.659 8 8 0 0 0 3.67 3.099 7.92 7.92 0 0 0 4.768.424 7.87 7.87 0 0 0 2.743-1.194c1.679-1.145 2.864-2.89 3.316-4.882l.102-.428c0-.028.012-.059.016-.091.046-.32-.028-.59-.163-.608s-.279.223-.319.523v.083c-.009.147-.034.292-.074.434l-.114.462-.153.44a7.34 7.34 0 0 1-.366.851c-.626 1.226-1.568 2.259-2.728 2.99a7.54 7.54 0 0 1-3.861 1.159c-.909.009-1.812-.142-2.669-.448a7.5 7.5 0 0 1-3.306-2.33c-.87-1.067-1.435-2.353-1.632-3.72-.13-.907-.101-1.829.084-2.726a7.56 7.56 0 0 1 2.88-4.507 7.5 7.5 0 0 1 3.757-1.477 7.48 7.48 0 0 1 3.974.688c1.238.589 2.294 1.507 3.054 2.656s1.195 2.484 1.259 3.863a1.96 1.96 0 0 1 0 .405v.087c-.012.302.09.557.225.572s.243-.231.255-.555z"/><path d="M42.406 16.635l-1.353-1.581-.51-.561-.874-1.012-.866-1.021-.812-.863a10.09 10.09 0 0 1-1.03-1.107c-.096-.128-.047-.15.11-.111a2.89 2.89 0 0 1 .293.092 1.06 1.06 0 0 1 .352.203c.786.674 1.518 1.406 2.192 2.193.391.487.999 1.005 1.419 1.484l1.474 1.416 1.784 1.869c.427.494-.353.207.078.687l1.086 1.026.229.233c.299.278.308.45.256.624a1.03 1.03 0 0 1-.037.116c-.029.056-.087.07-.177.051-.127-.023-.24-.074-.333-.15a7.93 7.93 0 0 1-.973-.955l-.451-.536-.48-.513-1.393-1.574.018-.012zm-15.128 5.259l-.04-1.799-.037-.655-.031-1.156-.02-1.158-.078-1.021a7.65 7.65 0 0 1-.092-1.304c.007-.138.059-.127.154-.016a2.65 2.65 0 0 1 .167.22c.073.102.12.212.142.327a15.1 15.1 0 0 1 .297 2.665c-.008.541.098 1.028.118 1.578l.146 1.737.107 1.18c.016.564.214 1.145.241 1.703.044.431-.279.909-.223 1.337l.029.281c.054.349-.048.471-.198.561a1.08 1.08 0 0 1-.102.059c-.058.023-.111.001-.168-.06-.083-.084-.137-.179-.161-.28a5.96 5.96 0 0 1-.144-1.17l-.008-.606-.044-.606-.075-1.816.021.002zm14.564 3.063c.56.59.607 1.538.37 2.273-.705 2.191-3.463 3.703-5.653 2.747.75-.007 1.429-.172 2.064-.429 1.697-.699 3.806-2.476 3.219-4.591h0z"/></g><ellipse cx="3.197" cy="3.167" rx="3.197" ry="3.167" transform="matrix(-.179713 .983719 -.983053 -.183322 27.7537 17.1199)" fill="#f05537"/><path d="M15.317 8.482c.047 3.675 5.96 3.942 6.139.205a3.32 3.32 0 0 0-.592-1.97c-.401-.577-.974-1.009-1.636-1.235-1.997-.644-3.8 1.039-3.911 2.999-.012.224-.36.226-.348 0 .117-2.06 1.851-3.822 3.978-3.426 1.661.306 2.92 1.944 2.851 3.635-.174 4.2-6.783 3.92-6.835-.205-.001-.047.018-.093.051-.127s.078-.053.125-.054.092.018.126.051a.18.18 0 0 1 .053.126zm7.116 11.158c-.077.354-.019.723.161 1.038s.471.553.817.668c.329.125.688.154 1.033.084a1.69 1.69 0 0 0 .907-.512c.211-.241.346-.537.389-.853a1.97 1.97 0 0 0-.224-1.152c-.057-.108.031-.171.186-.123a.71.71 0 0 1 .286.2c.077.089.129.197.153.312a2.07 2.07 0 0 1-.196 1.488 2.16 2.16 0 0 1-.482.582 2.09 2.09 0 0 1-.671.358 2.36 2.36 0 0 1-1.773-.119 1.86 1.86 0 0 1-.728-.683 1.95 1.95 0 0 1-.286-.921 2.19 2.19 0 0 1 .446-1.406c.307-.404.745-.691 1.24-.813.465-.109.955-.034 1.365.208a2.03 2.03 0 0 1 .255.171c.294.251.332.379.296.502a.39.39 0 0 1-.028.085c-.024.037-.072.039-.136.01-.084-.048-.163-.105-.234-.171-.065-.062-.141-.108-.212-.171s-.146-.094-.226-.13a1.58 1.58 0 0 0-.484-.154 1.48 1.48 0 0 0-.976.213 1.84 1.84 0 0 0-.569.538 1.82 1.82 0 0 0-.292.724l-.017.024z" fill="#121224"/><path d="M20.852 11.473l.474-2.226-5.518-2.363-1.286 2.363 4.434 2.979 1.896-.753z" fill="#fff"/><g fill="#121224"><path d="M20.992 13.183l.157-1.015.076-.365.106-.651.096-.654a5.57 5.57 0 0 1 .135-.567c.086-.233.141-.475.166-.725.004-.08-.04-.082-.127-.036a1.44 1.44 0 0 0-.153.096c-.067.045-.114.099-.14.161a5.77 5.77 0 0 0-.43 1.461c-.031.308-.152.566-.207.876l-.241.961-.17.651c-.052.318-.256.613-.317.925-.066.237.169.565.093.799l-.043.154c-.069.189.007.276.125.353l.081.052c.046.023.092.02.144-.005.075-.033.127-.078.153-.131a2.27 2.27 0 0 0 .2-.639l.049-.343.078-.336.188-1.018-.018-.003zm-6.589-3.299l.43-.929.172-.33.28-.595.272-.6a6.1 6.1 0 0 1 .282-.508 3.17 3.17 0 0 0 .355-.651c.026-.075-.012-.087-.103-.063a1.46 1.46 0 0 0-.164.056.38.38 0 0 0-.171.121c-.319.398-.586.829-.8 1.292-.116.286-.297.504-.434.786l-.489.859-.338.581c-.137.29-.403.525-.546.807-.127.211-.01.576-.145.781l-.083.137c-.115.164-.072.264.011.364l.057.067c.035.032.076.04.129.028.076-.015.135-.045.173-.09a2.47 2.47 0 0 0 .361-.563l.141-.315.166-.302.457-.926-.015-.007z"/><path d="M9.501 14.574c.084 6.562 10.622 7.04 10.941.366a5.93 5.93 0 0 0-1.055-3.517c-.714-1.029-1.736-1.802-2.916-2.205-3.558-1.15-6.773 1.856-6.971 5.356-.022.4-.642.403-.62 0 .208-3.678 3.298-6.825 7.089-6.118 2.96.547 5.204 3.472 5.08 6.49-.31 7.5-12.088 7-12.181-.366a.32.32 0 0 1 .09-.226c.059-.06.139-.095.223-.096s.165.032.224.091a.32.32 0 0 1 .095.224z"/></g><g fill="#fff"><ellipse cx="9.275" cy="9.384" rx="9.275" ry="9.384" transform="matrix(-1 0 0 1 19.7687 15.7534)"/><path d="M20.243 18.185l.135-3.356-8.733-4.555-2.234 1.918-1.963 5.103 10.46 3.459 2.336-2.568z"/><ellipse cx="5.348" cy="5.514" rx="5.348" ry="5.514" transform="matrix(-1 0 0 1 20.378 8.97266)"/></g><g fill="#121224"><path d="M1.068 25.211c.141 11.137 17.94 11.948 18.479.62a10.1 10.1 0 0 0-1.782-5.969 9.89 9.89 0 0 0-4.924-3.741c-6.01-1.952-11.438 3.15-11.773 9.09-.037.679-1.084.684-1.047 0 .351-6.242 5.57-11.582 11.972-10.384 4.999.928 8.789 5.892 8.58 11.015C20.049 38.57.157 37.721 0 25.221c-.001-.143.054-.282.153-.384a.53.53 0 0 1 .376-.162.53.53 0 0 1 .379.155c.101.101.159.238.16.381zm1.438-.003a.66.66 0 0 1 0-.089c0-.154.02-.312.028-.466a8.09 8.09 0 0 1 1.688-4.517 7.98 7.98 0 0 1 3.947-2.73c1.562-.481 3.232-.468 4.786.039s2.916 1.481 3.903 2.793a8.09 8.09 0 0 1 1.616 4.543 8.1 8.1 0 0 1-1.252 4.659 8 8 0 0 1-3.67 3.099 7.92 7.92 0 0 1-4.768.424 7.87 7.87 0 0 1-2.743-1.194c-1.679-1.145-2.864-2.89-3.316-4.882l-.102-.428c0-.028-.012-.059-.016-.091-.046-.32.028-.59.163-.608s.279.223.32.523v.083a2.02 2.02 0 0 0 .074.434l.115.462.153.44a7.34 7.34 0 0 0 .366.851 7.63 7.63 0 0 0 2.728 2.99 7.54 7.54 0 0 0 3.861 1.159c.909.009 1.812-.142 2.669-.448a7.5 7.5 0 0 0 3.306-2.33 7.6 7.6 0 0 0 1.632-3.72c.13-.907.101-1.829-.084-2.726a7.56 7.56 0 0 0-2.88-4.507 7.5 7.5 0 0 0-3.757-1.477 7.48 7.48 0 0 0-3.974.688c-1.238.589-2.294 1.507-3.054 2.656A7.64 7.64 0 0 0 2.987 24.7a1.96 1.96 0 0 0 0 .405v.087c.012.302-.09.557-.225.572s-.243-.231-.255-.555z"/><path d="M5.594 16.635l1.353-1.581.51-.561.874-1.012.866-1.021.812-.863a10.09 10.09 0 0 0 1.03-1.107c.096-.128.046-.15-.11-.111a2.89 2.89 0 0 0-.293.092 1.06 1.06 0 0 0-.352.203c-.786.674-1.518 1.406-2.192 2.193-.391.487-.999 1.005-1.419 1.484l-1.474 1.416-1.783 1.869c-.427.494.353.207-.078.687L2.252 19.35l-.229.233c-.299.278-.308.45-.256.624a1.03 1.03 0 0 0 .037.116c.029.056.087.07.177.051.127-.023.24-.074.333-.15a7.84 7.84 0 0 0 .973-.955l.451-.536.48-.513 1.393-1.574-.018-.012zm15.128 5.259l.04-1.799.037-.655.032-1.156.02-1.158.078-1.021a7.66 7.66 0 0 0 .092-1.304c-.007-.138-.059-.127-.154-.016a2.65 2.65 0 0 0-.167.22c-.073.102-.12.212-.142.327a15.1 15.1 0 0 0-.297 2.665c.008.541-.097 1.028-.118 1.578l-.146 1.737-.107 1.18c-.016.564-.214 1.145-.241 1.703-.044.431.279.909.223 1.337l-.029.281c-.054.349.048.471.198.561a1.08 1.08 0 0 0 .102.059c.058.023.111.001.168-.06a.59.59 0 0 0 .161-.28c.087-.385.135-.776.144-1.17l.008-.606.044-.606.075-1.816-.021.002zM9.659 29.206c.418.701 1.312.991 2.074.95 2.274-.122 4.432-2.425 4.086-4.813a5.7 5.7 0 0 1-.944 1.906c-1.107 1.477-3.349 3.078-5.216 1.958h0z"/></g></svg>