<svg width="18" height="18" viewBox="0 0 18 18" fill="none" xmlns="http://www.w3.org/2000/svg">
<path d="M11.3196 16.1218C11.7553 16.1218 12.1123 15.7923 12.1728 15.3261C12.7718 11.1733 13.3225 10.5952 17.2073 10.1414C17.6551 10.0854 18 9.69997 18 9.25237C18 8.79855 17.6611 8.42555 17.2134 8.35717C13.3528 7.80388 12.8747 7.31898 12.1728 3.17245C12.0941 2.71242 11.7492 2.38293 11.3196 2.38293C10.8779 2.38293 10.5269 2.71242 10.4543 3.17867C9.86732 7.3252 9.31667 7.90335 5.43791 8.35717C4.97802 8.41933 4.63916 8.79234 4.63916 9.25237C4.63916 9.69997 4.96592 10.073 5.4258 10.1414C9.29246 10.7071 9.76445 11.1858 10.4543 15.3323C10.545 15.7985 10.896 16.1218 11.3196 16.1218Z" fill="#8951FF"/>
<path d="M2.92518 6.01589C3.11596 6.01589 3.27228 5.87162 3.29878 5.66746C3.56109 3.84908 3.80221 3.59593 5.50326 3.39721C5.69934 3.37271 5.85037 3.20394 5.85037 3.00795C5.85037 2.80923 5.70199 2.6459 5.50591 2.61596C3.81546 2.37369 3.60614 2.16137 3.29878 0.34571C3.26433 0.144273 3.11331 0 2.92518 0C2.73176 0 2.57808 0.144273 2.54629 0.348432C2.28927 2.16409 2.04816 2.41725 0.34975 2.61596C0.148379 2.64318 0 2.80651 0 3.00795C0 3.20394 0.14308 3.36727 0.344451 3.39721C2.03756 3.64492 2.24423 3.85453 2.54629 5.67018C2.58603 5.87434 2.73971 6.01589 2.92518 6.01589Z" fill="#8951FF"/>
<path d="M3.17633 17.3138C3.34682 17.3138 3.48652 17.1849 3.5102 17.0024C3.74461 15.3775 3.96008 15.1512 5.48023 14.9736C5.65544 14.9518 5.79041 14.8009 5.79041 14.6258C5.79041 14.4482 5.65781 14.3022 5.48259 14.2755C3.97192 14.059 3.78486 13.8692 3.5102 12.2467C3.47941 12.0667 3.34445 11.9377 3.17633 11.9377C3.00348 11.9377 2.86615 12.0667 2.83773 12.2491C2.60806 13.8717 2.39258 14.0979 0.874809 14.2755C0.694854 14.2998 0.562256 14.4458 0.562256 14.6258C0.562256 14.8009 0.690118 14.9469 0.870073 14.9736C2.38311 15.195 2.5678 15.3823 2.83773 17.0049C2.87325 17.1873 3.01059 17.3138 3.17633 17.3138Z" fill="#8951FF"/>
</svg>
