<svg width="24" height="24" viewBox="0 0 24 24" fill="none" xmlns="http://www.w3.org/2000/svg">
<path d="M10.5687 22.0313C11.4658 21.87 12.2465 21.3412 12.7514 20.6069C13.1932 19.9662 13.3803 19.24 13.3331 18.4916L19.1771 17.4589L19.1783 17.4587C20.0386 17.2958 20.7384 16.6905 20.9951 15.8506C21.2509 15.0136 21.0419 14.105 20.4128 13.4757L20.4124 13.4753L18.2714 11.3568C18.2714 11.3568 18.2713 11.3567 18.2713 11.3567C17.7511 10.8364 17.381 10.1413 17.2285 9.3127L17.2283 9.31193C16.8887 7.54576 15.8916 6.04978 14.3738 5.07565L14.3734 5.07545C13.65 4.61498 12.8627 4.30319 12.0528 4.14014C12.0471 4.04741 12.0325 3.96232 12.0175 3.87499C12.0148 3.8592 12.0121 3.84333 12.0094 3.82734L12.0095 3.82733L12.0092 3.82596C11.7758 2.54281 10.5177 1.70618 9.23862 1.93882C7.95572 2.17213 7.11916 3.4298 7.35134 4.70866C7.37061 4.82405 7.40591 4.9261 7.44101 5.02758C7.44103 5.02764 7.44105 5.02771 7.44107 5.02777C5.77891 6.07609 4.62972 7.86676 4.42849 9.90056C4.36068 10.534 4.38305 11.1468 4.51927 11.7605C4.67162 12.5229 4.60532 13.2364 4.30339 13.8834L4.30337 13.8834L4.30256 13.8852L3.09818 16.6064L3.09813 16.6065C2.74894 17.3982 2.86478 18.3295 3.40066 19.0056C3.84379 19.5881 4.51995 19.9142 5.24164 19.9142C5.3847 19.9142 5.52627 19.8905 5.65837 19.8684L5.65956 19.8682L5.66111 19.8679L6.66526 19.6835C7.1068 21.1285 8.4389 22.1 9.92552 22.1C10.1337 22.1 10.3407 22.0769 10.5687 22.0313ZM10.5687 22.0313C10.5684 22.0314 10.5681 22.0315 10.5677 22.0315L10.5501 21.9331L10.5697 22.0312C10.5694 22.0312 10.569 22.0313 10.5687 22.0313ZM9.3438 4.19294C9.09891 4.25416 8.87271 4.33365 8.65237 4.41346C8.61071 4.15234 8.67233 3.90859 8.82563 3.67796C8.99138 3.45078 9.21609 3.28879 9.50057 3.22786L9.50057 3.22786C9.78303 3.16734 10.0452 3.22635 10.2923 3.39061C10.5052 3.54593 10.6609 3.75305 10.7298 4.0126C10.267 4.02178 9.80556 4.08794 9.34589 4.19244L9.34588 4.19242L9.3438 4.19294ZM4.30704 17.1335L4.3071 17.1333L5.51148 14.4122L5.51171 14.4116C5.89907 13.523 6.01267 12.521 5.80828 11.4979C5.7209 11.0165 5.69894 10.5131 5.74269 10.0318C5.96186 7.84254 7.5383 6.00517 9.63669 5.50241L9.6367 5.50244L9.63885 5.50187C10.053 5.39286 10.4681 5.34896 10.8848 5.34896C11.8691 5.34896 12.8315 5.63333 13.6626 6.18012L13.6626 6.18013L13.6639 6.18094C14.867 6.94662 15.6763 8.14911 15.9389 9.57201L15.939 9.57266C16.1429 10.6379 16.6198 11.5941 17.3501 12.3018C17.3502 12.302 17.3504 12.3021 17.3505 12.3022L19.4907 14.42C19.4907 14.4201 19.4908 14.4201 19.4908 14.4201C19.754 14.6834 19.8563 15.068 19.7339 15.4561C19.611 15.824 19.3269 16.0874 18.94 16.1695L5.42684 18.5778C5.42652 18.5779 5.4262 18.5779 5.42588 18.578C5.03795 18.6389 4.67268 18.4967 4.42755 18.1903C4.18483 17.8869 4.14273 17.5032 4.30704 17.1335ZM11.6495 19.8697C11.3305 20.3374 10.8634 20.635 10.3088 20.7418C9.3042 20.9261 8.31994 20.3605 7.96306 19.4458L12.0139 18.7285C12.0101 19.1321 11.8841 19.5175 11.6495 19.8697Z" fill="#121224" stroke="#121224" stroke-width="0.2"/>
</svg>