<svg width="14" height="14" viewBox="0 0 14 14" fill="none" xmlns="http://www.w3.org/2000/svg">
<path fill-rule="evenodd" clip-rule="evenodd" d="M10.0086 2.51682L4.20939 2.51682L4.20939 11.482L10.0086 11.5156L10.0086 2.51682ZM4.07192 1.25458C3.48991 1.2512 3.02032 1.8144 3.03105 2.50296L3.1712 11.5017C3.18161 12.1701 3.64173 12.7073 4.20671 12.7105L10.006 12.7442C10.588 12.7476 11.0576 12.1844 11.0468 11.4958L11.0468 2.50296C11.0364 1.83456 10.4362 1.2915 9.87118 1.28822L4.07192 1.25458Z" fill="#275DF5"/>
<path d="M10.4547 10.7369L11.8733 10.9552L12.8019 3.93939L10.3923 3.56862L10.3838 2.58984L12.9476 2.98433C13.4355 3.0594 13.7705 3.53616 13.7015 4.05727L12.7729 11.0731C12.7018 11.6099 12.2303 11.9876 11.7277 11.9103L10.4563 11.7146C10.4604 11.6665 10.4623 11.6176 10.4619 11.5681L10.4547 10.7369Z" fill="#275DF5"/>
<path d="M3.69491 10.6763L2.28053 10.9206L1.22325 3.92301L3.62567 3.50807L3.61621 2.5293L1.0601 2.97078C0.573663 3.0548 0.247461 3.53764 0.325992 4.05739L1.38327 11.055C1.46417 11.5904 1.94257 11.9594 2.44367 11.8728L3.71125 11.6539C3.70623 11.6058 3.70341 11.557 3.70293 11.5075L3.69491 10.6763Z" fill="#275DF5"/>
</svg>