<svg width="98" height="88" viewBox="0 0 98 88" fill="none" xmlns="http://www.w3.org/2000/svg">
<path d="M39.9576 5.6609C43.8529 2.98919 48.8908 3.42685 53.266 4.72859C67.0099 8.81882 77.6752 20.0053 86.3892 31.8803C89.5381 36.1769 92.5757 40.7256 94.0517 45.979C97.0586 56.6732 92.4568 69.4498 83.3999 75.5775C80.3188 77.6639 76.8572 79.0097 73.3732 80.0999C67.175 82.0451 60.6936 83.2559 54.335 82.5539C49.8012 82.0504 45.4331 80.5879 41.2168 78.8389C29.4358 73.9474 18.455 66.6403 10.1667 56.5799C6.53136 52.1675 3.34164 46.9904 2.79154 41.091C2.24144 35.1916 5.02126 28.5225 10.2902 26.331C12.4693 25.4246 14.8421 25.3391 17.1609 25.2782C20.5725 25.1893 24.0345 25.1245 27.3332 24.0985C30.7407 23.0387 35.0818 20.4651 35.3911 16.4384C35.7251 12.1175 36.0654 8.33336 39.9576 5.6609Z" fill="url(#paint0_linear_1946_1336)"/>
<path d="M67.9933 71.1292L30.0399 64.4853C26.5043 63.8424 24.1232 60.4847 24.7005 56.9841L28.3804 36.1952C29.0298 32.6946 32.421 30.3371 35.9566 30.9086L73.91 37.5525C77.4455 38.1955 79.8266 41.5531 79.2494 45.0537L75.5695 65.8427C74.9923 69.3432 71.601 71.7007 67.9933 71.1292Z" fill="url(#paint1_linear_1946_1336)"/>
<path d="M73.9827 37.5512L70.3028 36.9082C73.6219 37.694 75.7865 40.9803 75.2093 44.3379L71.5294 65.1269C70.88 68.6275 67.4887 70.985 63.9532 70.4135L29.6797 64.4125C29.824 64.4125 29.9683 64.484 30.1126 64.484L68.066 71.1278C71.6015 71.7708 75.065 69.4133 75.6422 65.8413L79.3221 45.0523C79.9715 41.5518 77.5904 38.1227 73.9827 37.5512Z" fill="#EA9B05"/>
<path d="M43.3888 32.7656C43.3888 32.7656 44.3268 21.9067 57.3868 24.4071C71.024 27.0504 66.9112 37.3377 66.9112 37.3377L61.6439 36.6233C61.6439 36.6233 64.1693 29.9794 56.5931 28.7649C49.3776 27.6219 48.8004 34.0515 48.8004 34.0515L43.3888 32.7656Z" fill="#EA9B05"/>
<path d="M51.7587 38.1926L50.965 37.4068L51.1815 36.8352H51.0371L51.5422 35.4779L50.0991 35.978L50.965 36.9067L50.3877 37.0496L50.7485 37.4068L50.3877 38.4069L51.7587 38.1926ZM49.594 34.3348L49.2333 35.4064L50.4599 35.2636L49.594 34.3348Z" fill="#FFC949"/>
<path d="M47.8628 35.3337L48.8008 36.2624L49.3059 34.905L49.0894 34.9765L50.316 33.4048L47.8628 33.0476L48.0071 33.6191L47.0691 33.9763L47.8628 33.119L45.4817 32.6189V32.7618L44.8323 32.9761L45.0487 32.6904L42.6676 32.1903L42.8841 33.119L42.3069 32.5475L41.9461 33.6191L42.9563 33.4762L43.2449 34.7621L42.4512 33.9763L42.0904 35.0479L43.317 34.905L43.2449 34.8336L44.3272 33.5477L44.9766 34.1192L45.4095 32.7618L45.626 33.9049L45.2652 33.4762L44.9044 34.4764L45.7703 34.4049L45.9868 35.2622L46.8526 34.2621L47.6463 34.9765L48.0792 33.8334L48.44 35.2622L47.8628 35.3337ZM39.565 34.905L38.1219 35.4051L39.1321 36.2624L39.565 34.905ZM42.5955 36.7624L43.1727 35.6194L41.7296 35.548L42.5955 36.7624ZM41.2246 34.5478H39.7815L40.7195 35.7623L41.2246 34.5478ZM46.564 37.5483L47.2134 37.2625L46.564 36.9768V37.5483L45.9868 36.9053L45.626 37.9055L46.8526 37.7626L46.564 37.5483ZM52.0477 38.1198L51.687 39.1914L52.9136 39.0485L52.0477 38.1198ZM44.4715 36.0481L44.1829 36.7624H45.0487L44.4715 36.0481ZM48.9451 37.5483L49.378 36.9053L48.7286 36.8339L48.9451 37.5483ZM44.3994 41.2632L45.1209 41.5489L45.0487 40.906L44.3994 41.2632ZM46.3475 44.4779L47.0691 44.7637L46.9969 43.9064L46.3475 44.4779ZM47.0691 40.1916L47.7185 40.0487L47.1412 39.62L47.0691 40.1916ZM51.5427 44.4779L51.8313 43.7635L51.1819 43.835L51.5427 44.4779ZM37.1839 45.4067L37.9054 45.6924V44.8351L37.1839 45.4067ZM37.9054 41.1917L38.627 40.9774L38.0497 40.5488L37.9054 41.1917ZM42.379 45.4067L42.6676 44.7637L42.0904 44.8351L42.379 45.4067ZM31.1951 42.049V41.1917L30.4735 41.7632L31.1951 42.049Z" fill="#FFC949"/>
<path d="M31.2664 37.551L31.9158 37.3367L31.3385 36.9081L31.2664 37.551ZM35.6678 41.766L35.9564 41.123H35.307L35.6678 41.766ZM39.1312 37.8368L39.4198 37.6939L38.6983 37.1938V37.4796L38.6261 37.4081L38.4097 38.7655L39.9249 38.3369L39.1312 37.8368ZM32.0601 32.6931L31.8436 34.0505L33.3588 33.6218L32.0601 32.6931ZM40.9351 41.1944L41.2237 40.48L40.5743 40.5515L40.9351 41.1944ZM35.4513 37.2653L35.0906 37.4081L34.7298 37.1938V37.551L34.0804 37.7653L35.0184 38.6941L35.3792 37.7653L35.5235 37.6939L35.4513 37.6225V37.2653L35.5956 37.551L36.1007 36.9795L35.2349 36.7652L35.4513 37.2653ZM35.5956 35.1221L35.8121 34.4791L35.0906 34.6934L35.5956 35.1221ZM37.9046 38.4083L37.8324 37.7653H38.0489L37.8324 37.4796L37.7603 37.2653L37.6881 37.3367L37.183 36.7652L36.8223 37.8368H37.2552L36.9666 38.1225L37.9046 38.4083ZM43.8213 37.2653L44.0377 36.2651L43.1719 36.4794L43.8213 37.2653ZM44.182 38.3369L44.2542 39.1941L44.9036 38.8369L44.182 38.3369ZM41.4402 35.5507L40.7186 35.765L41.1515 36.1937L41.4402 35.5507ZM46.8518 34.4791L46.5631 35.0506L47.2847 35.1221L46.8518 34.4791Z" fill="#FFC949"/>
<path d="M43.8939 34.4071L44.1103 36.1217L45.7699 35.1215L43.8939 34.4071ZM46.9965 36.7646L47.5738 34.9786L46.6358 35.3358V35.2644L45.7699 35.5502L45.8421 35.6216L45.6256 35.693L46.9965 36.7646ZM33.9365 34.55L32.7099 35.2644L34.0808 35.8359L33.9365 34.55ZM28.3085 36.979L29.6794 36.4074L28.6692 35.6216L28.3085 36.979ZM29.03 35.4073L30.401 34.8358L29.3908 34.0499L29.03 35.4073ZM37.3278 35.4073L37.1835 34.1214L35.9569 34.8358L37.3278 35.4073ZM34.5138 34.4071L34.9467 33.1927L33.5036 33.2641L34.5138 34.4071ZM49.2333 41.3368L49.9549 41.5511L49.8827 40.6938L49.2333 41.3368ZM50.7486 39.908L51.0372 40.551L51.4701 40.0509L50.7486 39.908ZM48.5118 43.1942L49.1612 42.9799L48.5839 42.5513L48.5118 43.1942ZM37.1113 31.6924V32.4068L37.6886 32.1925L37.9772 33.6213L37.6164 33.7642L37.3278 33.2641L37.1835 33.5499L37.4 32.8355L35.9569 33.3355L36.8949 34.1928L37.0392 33.7642H37.4L38.6266 34.8358L39.1317 33.2641L39.2038 33.3355L39.7089 31.9782L39.4203 32.0496L39.8532 31.5495L37.4721 31.0495L35.0189 30.6923L35.7404 33.2641L37.1113 31.6924ZM39.0595 33.1927L38.4101 33.4784L38.843 32.9783L39.0595 33.1927ZM37.6164 31.8353L37.1835 31.621L37.4721 31.1923L37.6164 31.8353ZM41.0077 33.6927L40.9355 33.7642L41.6571 33.8356L41.5128 33.6213L41.8014 33.6927L41.6571 32.9783L42.4508 32.0496L39.9975 31.621L40.5748 34.2642L41.0077 33.6927ZM41.3685 33.3355L41.4406 33.2641L41.3685 33.3355ZM51.1815 33.7642L49.8827 34.1928L50.8207 35.1215L51.2537 33.9785L51.8309 36.1931L52.0474 35.8359L52.9854 36.6932L53.0575 36.4789L53.9234 37.2647L54.0677 36.979L54.4285 37.3362L54.9335 35.9788L54.3563 36.1931L54.5006 35.7645L54.5728 35.8359L55.0057 34.6929L55.4386 36.8361L57.3146 34.6929L54.9335 34.1928L55.0057 34.4786L53.6348 34.9072L53.9955 35.193L53.8512 35.4073L54.3563 35.5502L54.4285 35.6216L53.4183 35.9788L53.6348 35.4073L52.1917 35.9074L53.0575 34.7643L53.4183 34.6214L53.9955 34.6929L53.5626 34.0499L53.6348 33.9785H53.4904L51.2537 33.6213L51.1815 33.7642ZM31.2668 32.2639L30.401 33.1927L31.7719 33.6213L31.2668 32.2639ZM31.6276 35.0501L31.844 34.4071L31.1947 34.6214L31.6276 35.0501ZM42.1622 38.9793L41.8736 38.6935L42.0179 38.6221L41.4406 38.2649L41.5128 38.9793L41.6571 38.9078V39.265L42.1622 38.9793ZM43.028 40.9796L43.966 40.4795L43.028 39.6937V40.9796ZM40.1418 39.0507L39.7089 38.765V39.1936L39.3481 39.3365L39.8532 39.8366L40.0697 39.3365L40.2861 39.1936L40.1418 39.0507ZM35.4518 38.8364L35.1632 39.265L35.7404 39.3365L35.4518 38.8364ZM32.3491 32.5497L33.5758 33.0498L33.4315 31.8353L33.9365 32.5497H34.0087L34.153 32.6926V32.5497L35.3075 33.0498L35.1632 31.7639L34.2252 32.3354L34.7302 30.7637L32.9985 31.1209L33.4315 31.6924L32.4213 32.2639L32.6378 31.1923L31.2668 31.8353L32.3491 32.5497ZM43.028 43.4085L43.8217 42.9799L43.028 42.4084V43.4085ZM46.3471 38.1934L45.9142 38.765L46.7079 38.9078L46.3471 38.1934ZM66.1175 40.9796L67.3441 40.8367L66.4783 39.908L66.1175 40.9796ZM65.3238 37.1933L64.963 38.2649L66.1897 38.122L65.3238 37.1933Z" fill="#FFC949"/>
<path d="M65.8287 42.4796L66.3338 41.1222L64.8907 41.6223L65.8287 42.4796ZM66.5502 37.9789L67.0553 36.6215L65.6122 37.1216L66.5502 37.9789ZM66.7667 39.6934L67.2718 38.3361L65.8287 38.8361L66.7667 39.6934ZM63.5197 38.2646L64.4577 39.1933L64.9628 37.836L64.8185 37.9074L66.0451 36.2643L63.5919 35.9071L63.7362 36.4786L62.2931 36.9787L63.2311 37.836L63.7362 36.4786L64.1691 38.0503L63.5197 38.2646ZM68.787 36.6929L67.2718 36.4786L67.7768 37.6931L68.787 36.6929ZM55.0055 37.4788L53.5624 37.9789L54.5004 38.8361L55.0055 37.4788ZM58.4689 38.2646L56.9536 38.1932L57.8917 39.4076L58.4689 38.2646ZM56.665 37.1216L55.1498 37.0501L56.0878 38.2646L56.665 37.1216ZM61.3551 39.5505L60.9222 40.5507L62.1488 40.4078L61.3551 39.5505ZM67.7047 40.8364L67.3439 41.8366L68.5706 41.6937L67.7047 40.8364ZM60.1284 38.979L59.8398 39.6934H60.7057L60.1284 38.979ZM64.602 40.4792L65.035 39.8363L64.3856 39.7648L64.602 40.4792ZM60.1284 44.1227L60.85 44.4084L60.7778 43.7655L60.1284 44.1227ZM62.0045 47.1946L62.726 47.4804V46.6231L62.0045 47.1946ZM62.726 42.9796L63.3754 42.7653L62.7982 42.3367L62.726 42.9796ZM67.1275 47.1946L67.4161 46.4802L66.7667 46.5516L67.1275 47.1946Z" fill="#FFC949"/>
<path d="M52.5523 47.8386L53.2738 48.1958V47.3385L52.5523 47.8386ZM53.2738 43.695L53.9232 43.4807L53.346 43.0521L53.2738 43.695ZM57.6752 47.91L57.9639 47.267L57.3866 47.3385L57.6752 47.91ZM54.3561 40.2659L54.6448 40.0516L53.9954 39.5515V39.9802L53.9232 39.9087L53.7067 41.2661L55.222 40.8375L54.3561 40.2659ZM56.3043 43.6236L56.5929 42.9092L55.9435 42.9806L56.3043 43.6236ZM53.0574 39.8373L52.2636 40.6946L53.2738 40.9803L53.0574 39.8373ZM59.1183 39.8373L59.407 38.8371L58.5411 39.0515L59.1183 39.8373ZM51.037 39.3372L50.4598 38.98L50.6762 38.4085L49.2332 38.9086L50.1712 39.7659V39.6944V39.7659L51.037 39.3372ZM59.912 41.2661L59.9842 42.1234L60.6336 41.6947L59.912 41.2661ZM57.098 38.4799L56.4486 38.6943L56.8815 39.1229L57.098 38.4799ZM62.2931 37.9084L63.0147 37.9799L62.5818 37.3369L62.2931 37.9084ZM59.3348 37.194L59.5513 38.9086L61.2108 37.9799L59.3348 37.194ZM61.4273 38.6228L62.7261 39.7659L63.3033 37.9799L61.4273 38.6228ZM57.3145 36.2653L58.3246 36.1224L58.6133 37.4084L57.8196 36.5511L57.4588 37.6227L58.6854 37.5512L58.6133 37.4798L59.7677 36.1939L60.4171 36.7654L60.2728 37.0512L61.283 36.9797L61.4994 37.9799L63.3755 35.8367L60.9944 35.3366L61.283 36.6225L60.7779 36.1224L60.9944 35.4795L60.345 35.6938L60.5614 35.408L58.1803 34.908L58.3968 35.8367L57.8196 35.2652L57.3145 36.2653ZM65.468 43.4807L64.8186 44.0522L65.5401 44.2666L65.468 43.4807ZM66.3338 42.6234L66.6224 43.2664L67.0554 42.7663L66.3338 42.6234ZM64.1692 45.9811L64.8907 45.7668L64.3135 45.3382L64.1692 45.9811ZM56.9537 35.408L56.6651 35.7652L56.5929 35.6938L56.3043 36.2653L57.0259 36.3368L56.8815 36.1224L57.1702 36.1939L56.9537 35.408ZM62.221 40.4803L62.8704 40.1231L62.221 39.8373V40.4803ZM57.4588 41.409L57.098 41.1947L57.2423 41.1232L56.6651 40.766V41.4804L56.8094 41.409V41.7662L57.4588 41.409ZM58.3246 43.4807L59.2626 42.9806L58.2525 42.1948L58.3246 43.4807ZM55.4384 41.4804L55.0055 41.1947V41.6233L54.6448 41.7662L55.0777 42.2662L55.2941 41.7662L55.5106 41.6233L55.4384 41.4804ZM58.3968 45.9097L59.1905 45.481L58.3968 44.8381V45.9097ZM61.6438 40.6946L61.2108 41.2661L62.0045 41.409L61.6438 40.6946ZM72.1062 41.2661L71.7454 42.3377L72.972 42.1948L72.1062 41.2661ZM70.5188 37.4084L70.158 38.4799L71.3846 38.3371L70.5188 37.4084ZM72.3226 37.837L71.6732 37.6227L71.8897 38.3371L72.3226 37.837ZM67.1997 39.2658L68.2098 40.1231L68.6428 38.7657L67.1997 39.2658ZM68.5706 37.4084L69.5086 38.2656L69.9415 36.9083L68.5706 37.4084ZM72.1062 39.623L72.5391 38.2656L71.096 38.7657L72.1062 39.623ZM69.5086 39.2658L70.4466 40.1231L70.9517 38.7657L69.5086 39.2658ZM73.1885 38.1227L72.8277 39.1943L74.0543 39.0515L73.1885 38.1227ZM65.468 40.1231L65.1793 40.8375H66.0452L65.468 40.1231ZM69.9415 41.4804L70.3745 40.8375L69.7251 40.766L69.9415 41.4804ZM65.468 45.2667L66.1895 45.5525L66.1173 44.9095L65.468 45.2667ZM67.8491 44.7666L68.5706 45.0524L68.4984 44.1951L67.8491 44.7666ZM68.4984 40.4803L69.1478 40.2659L68.5706 39.8373L68.4984 40.4803ZM70.5909 45.4096L71.3125 45.6239L71.2403 44.7666L70.5909 45.4096ZM72.7556 44.0522L72.034 43.9094L72.3226 44.5523L72.6834 44.1237L73.0442 44.6952L73.3328 43.9808L72.7556 44.0522ZM69.5808 47.0527L70.3023 46.8384L69.7251 46.4098L69.5808 47.0527Z" fill="#FFC949"/>
<path d="M48.9438 54.6249L48.1501 53.839L48.3666 53.1961L48.2223 53.2675L48.7274 51.9101L47.2843 52.3388L48.2223 53.2675L47.645 53.4104L48.0058 53.7676L47.645 54.7677L48.9438 54.6249ZM46.7792 50.7671L46.4184 51.8387L47.645 51.6958L46.7792 50.7671ZM44.9753 51.8387L45.9133 52.696L46.4184 51.3386L46.2019 51.4101L47.4286 49.8384L44.9753 49.4812L45.1196 50.0527L44.1816 50.4099L44.9753 49.4812L42.5942 48.9811V49.124L41.9448 49.3383L42.1613 49.0526L39.708 48.5525L39.9245 49.4812L39.3473 48.9097L38.9865 49.9813L39.9966 49.9098L40.2853 51.1957L39.4916 50.3385L39.1308 51.4101L40.3574 51.3386L40.2853 51.2672L41.3676 49.9813L42.017 50.5528L42.4499 49.1954L42.6664 50.3385L42.3056 49.9098L41.9448 50.9814L42.8107 50.91L42.955 51.7673L43.8208 50.7671L44.6145 51.5529L45.0475 50.4099L45.4082 51.7673L44.9753 51.8387ZM36.7497 51.3386L35.3066 51.8387L36.2446 52.696L36.7497 51.3386ZM38.8422 52.053L39.7802 53.2675L40.3574 52.1245L38.8422 52.053ZM37.9042 52.1245L38.4814 50.91H36.9661L37.9042 52.1245ZM43.7487 53.9819L44.3981 53.6961L43.7487 53.4104V53.9819L43.1714 53.3389L42.7385 54.4105L43.9651 54.2677L43.7487 53.9819ZM49.2324 54.5534L48.8717 55.625L50.0983 55.4821L49.2324 54.5534ZM34.9458 53.9105V53.6961L34.8737 53.7676L34.3686 53.1961L34.0078 54.2677L34.4407 54.1962L34.1521 54.5534L35.1623 54.8392L35.0901 54.1962H35.3066L34.9458 53.9105ZM41.584 52.5531L41.2954 53.2675H42.1613L41.584 52.5531ZM46.0576 53.9819L46.4906 53.3389L45.8412 53.2675L46.0576 53.9819ZM41.584 57.6968L42.3056 57.9825L42.1613 57.3396L41.584 57.6968ZM43.5322 60.9116L44.2538 61.1973V60.3401L43.5322 60.9116ZM44.2538 56.6966L44.9753 56.4823L44.3981 56.0537L44.2538 56.6966ZM48.6552 60.9116L48.9438 60.1972L48.2944 60.2686L48.6552 60.9116ZM27.7303 52.9817L28.4519 53.2675V52.4102L27.7303 52.9817Z" fill="#9A511F" fill-opacity="0.2"/>
<path d="M28.452 48.7674L29.1014 48.5531L28.5242 48.1245L28.452 48.7674ZM33.2142 52.3394L32.5648 52.4108L32.9256 53.0538L33.2142 52.3394ZM36.3169 54.2683L36.5333 54.1254L35.8118 53.6253V53.9111L35.7396 53.8396L35.5232 55.197L37.0384 54.7683L36.3169 54.2683ZM29.7508 47.6958L29.5343 49.0532L31.0496 48.6245L29.7508 47.6958ZM38.1207 57.6259L38.4094 56.9115L37.76 56.983L38.1207 57.6259ZM32.5648 53.7682L32.2041 53.9111L31.8433 53.6968V54.054L31.1939 54.2683L32.1319 55.197L32.4205 54.2683L32.5648 54.1968L32.4927 54.1254L32.5648 53.7682L32.7092 54.054L33.2142 53.411L32.3484 53.2681L32.5648 53.7682ZM33.0699 50.8392L32.3484 51.0535L32.8535 51.4821L33.0699 50.8392ZM40.9348 53.6968L41.1513 52.6966L40.2854 52.9109L40.9348 53.6968ZM41.3677 54.8398L41.4399 55.6971L42.0893 55.2684L41.3677 54.8398ZM38.6258 51.9822L37.9764 52.1965L38.4094 52.6252L38.6258 51.9822ZM44.0374 50.9106L43.7488 51.4821L44.4704 51.5536L44.0374 50.9106ZM41.0069 50.8392L41.2234 52.4823L42.883 51.5536L41.0069 50.8392ZM44.1817 53.2681L44.759 51.4821L43.821 51.8393L43.8931 51.7679L43.0273 52.0536L43.0994 52.1251L42.883 52.1965L44.1817 53.2681ZM31.1217 51.0535L29.8951 51.7679L31.2661 52.268L31.1217 51.0535ZM30.6888 46.4813L29.4622 47.1957L30.8331 47.7673L30.6888 46.4813ZM28.6685 45.9813L30.0394 45.4097L29.0293 44.6239L28.6685 45.9813Z" fill="#9A511F" fill-opacity="0.2"/>
<path d="M34.3686 50.6254L33.1419 51.3398L34.5129 51.9113L34.3686 50.6254ZM31.6267 50.8397L32.0596 49.6967L30.6165 49.7681L31.6267 50.8397ZM32.2761 48.2679L31.0495 48.9823L32.4204 49.5538L32.2761 48.2679ZM46.4184 57.7694L47.1399 57.9837L47.0678 57.1264L46.4184 57.7694ZM47.9337 56.3406L48.2223 56.9835L48.6552 56.4834L47.9337 56.3406ZM45.6969 59.6982L46.4184 59.4839L45.8412 59.0553L45.6969 59.6982ZM32.9255 49.6967L34.2964 48.1964V48.8394L34.9458 48.5536L35.2344 49.9824L34.8015 50.1253L34.5129 49.6252L34.3686 49.911L34.585 49.1966L33.1419 49.6967L34.08 50.5539L34.2243 50.1253H34.585L35.8117 51.1969L36.3168 49.6252L36.3889 49.6967L36.894 48.3393L36.4611 48.4822L37.0383 47.8392L34.6572 47.3392L32.4204 46.8391V46.9105L30.9773 46.1247L30.7608 48.0536L32.4204 47.0534L32.9255 49.6967ZM36.2446 49.6252L35.4509 49.911L35.956 49.3395L36.2446 49.6252ZM34.8737 48.3393L34.3686 48.0536L34.7293 47.6964L34.8737 48.3393ZM38.1928 50.1967L38.1206 50.2682L38.8422 50.3396L38.6979 50.1253L38.9865 50.1967L38.8422 49.4823L39.6359 48.5536L37.2548 48.0536L37.832 50.6968L38.1928 50.1967ZM38.5535 49.8395L38.6257 49.7681L38.5535 49.8395ZM48.3666 50.1967L47.0678 50.6254L48.0058 51.5541L48.4387 50.4111L49.016 52.6257L49.3046 52.2685L50.2426 53.1258L50.3148 52.9114L51.1806 53.6973L51.2528 53.3401L51.6135 53.6973L52.1186 52.3399L51.5414 52.5542L51.6857 52.1256L51.7579 52.197L52.1908 51.054L52.6237 53.1972L54.4997 51.054L52.1186 50.5539L52.1908 50.9111L50.892 51.3398L51.2528 51.6255L51.1085 51.8398L51.6135 51.9113L51.6857 51.9827L50.6034 52.3399L50.8198 51.7684L49.3767 52.197L50.2426 51.054L50.6034 50.9111L51.1806 50.9826L50.7477 50.4111L50.8198 50.3396H50.6755V50.2682L48.4387 49.911L48.3666 50.1967ZM28.5962 42.9813L27.7303 43.91L29.1013 44.3387L28.5962 42.9813ZM28.8127 51.4827L29.0291 50.8397L28.3076 51.054L28.8127 51.4827ZM40.2131 57.4836L41.1511 56.9835L40.2131 56.2691V57.4836ZM37.3269 55.4833L36.894 55.1261V55.5547L36.5332 55.6262L37.0383 56.1262L37.2548 55.6262L37.4712 55.4833H37.3269ZM39.1308 55.0546L38.5535 54.6974V55.4118L38.6979 55.3404V55.769L39.2751 55.4833L38.9143 55.269L39.1308 55.0546ZM32.3482 55.769L32.9255 55.8405L32.5647 55.3404L32.3482 55.769ZM29.2456 45.7675L29.5342 46.982L28.5962 46.2676L28.2354 47.6249L29.6064 47.0534H29.5342L30.6887 46.1961L29.2456 45.7675ZM40.2131 59.9126L40.9347 59.4839L40.2131 58.9124V59.9126ZM43.5322 54.626L43.0993 55.1975L43.893 55.3404L43.5322 54.626ZM63.5912 57.3407L64.8178 56.9835L63.8077 56.1977L63.5912 57.3407ZM62.5089 53.6973L62.1481 54.6974L63.3747 54.5546L62.5089 53.6973ZM63.014 58.9838L63.5191 57.555L62.076 58.0551L63.014 58.9838ZM64.3128 54.5546L62.9418 55.269L64.0241 56.0548L64.3128 54.5546ZM60.705 54.6974L61.643 55.5547L62.1481 54.1974L62.0038 54.2688L62.5811 53.5544L63.5912 54.2688L63.8798 52.84L62.6532 53.483L63.3026 52.6971L60.8493 52.3399L60.9936 52.9114L59.5506 53.4115L60.4886 54.2688L60.9936 52.9114L61.4266 54.4831L60.705 54.6974ZM52.1908 53.9116L50.7477 54.4117L51.6857 55.3404L52.1908 53.9116ZM54.2111 54.6974L55.1491 55.9119L55.7264 54.7689L54.2111 54.6974ZM53.2731 54.6974L53.8503 53.483H52.3351L53.2731 54.6974ZM58.1075 57.055L59.3341 56.9121L58.4682 55.9834L58.1075 57.055ZM65.1065 56.9121L64.89 57.9837L66.1166 57.6265L65.1065 56.9121ZM57.3138 55.4833L57.0251 56.1977H57.891L57.3138 55.4833ZM61.7873 56.9121L62.2203 56.2691L61.5709 56.1977L61.7873 56.9121ZM57.3138 60.627L58.0353 60.9127L57.9631 60.2698L57.3138 60.627ZM51.5414 56.6978L51.83 56.4834L51.1085 55.9834V56.412L51.0363 56.3406L50.8198 57.6979L52.3351 57.2693L51.5414 56.6978Z" fill="#9A511F" fill-opacity="0.2"/>
<path d="M53.4908 60.0551L53.7795 59.3407L53.1301 59.4121L53.4908 60.0551ZM49.4502 57.1261L50.3882 57.4118L50.2439 56.2688L49.4502 57.1261ZM56.3049 56.3402L56.5935 55.3401L55.7276 55.5544L56.3049 56.3402ZM48.1514 55.7687L47.5742 55.4115L47.7906 54.84L46.3475 55.3401L47.2855 56.1973V56.1259V56.1973L48.1514 55.7687ZM57.0986 57.6976L57.1707 58.5549L57.8201 58.1262L57.0986 57.6976ZM54.2845 54.9114L53.563 55.1257L53.9959 55.5544L54.2845 54.9114ZM59.4797 54.3399L60.2012 54.4113L59.7683 53.7684L59.4797 54.3399ZM56.5213 53.6255L56.7378 55.2686L58.3974 54.3399L56.5213 53.6255ZM59.9126 56.1973L60.4898 54.4113L58.6138 55.0543L59.9126 56.1973ZM54.501 52.7682L55.5112 52.6968L55.7998 53.9827L55.0061 53.1969L54.6453 54.197L55.8719 54.1256L55.7998 54.0541L56.9543 52.7682L57.5315 53.3397L57.4593 53.6255L58.4695 53.5541L58.686 54.5542L60.562 52.411L58.1809 51.9109L58.4695 53.1969L57.9644 52.6968L58.1809 52.0538L57.5315 52.2681L57.748 51.9824L55.3669 51.4823L55.5833 52.411L55.0061 51.8395L54.501 52.7682ZM62.0051 60.5552L62.7266 60.7695L62.6545 59.9122L62.0051 60.5552ZM64.2419 59.1978L63.5203 59.0549L63.809 59.6979L64.2419 59.1978ZM61.3557 62.4126L62.0051 62.1983L61.4279 61.7696L61.3557 62.4126ZM54.1402 51.8395L53.8516 52.1967L53.7795 52.1253L53.4908 52.6968L54.2124 52.7682L54.0681 52.5539L54.3567 52.6253L54.1402 51.8395ZM59.4075 56.9117L60.0569 56.626L59.4075 56.3402V56.9117ZM55.5112 59.9122L56.4492 59.4121L55.5112 58.6977V59.9122ZM52.625 57.9833L52.1921 57.6976V58.1262L51.8313 58.2691L52.3364 58.7692L52.5528 58.2691L52.7693 58.1262L52.625 57.9833ZM54.4289 57.5547L53.8516 57.1975L53.9238 57.9119L54.0681 57.769V58.1977L54.6453 57.9119L54.2845 57.6976L54.4289 57.5547ZM55.5112 62.3412L56.3049 61.9125L55.5833 61.341L55.5112 62.3412ZM58.3974 57.6976L59.1911 57.8405L58.7581 57.1261L58.3974 57.6976ZM66.5508 53.9113L66.3344 54.9829L67.561 54.6257L66.5508 53.9113ZM67.0559 52.6253L66.9116 53.6969L68.1382 53.3397L67.0559 52.6253ZM71.0244 52.411L71.3852 51.9109L70.6637 51.7681L71.0244 52.411ZM65.4685 56.1259L65.685 54.6971L64.314 55.4115L65.4685 56.1259ZM69.1484 52.2681L67.7053 52.5539L68.5712 53.5541L68.9319 53.9827L69.0763 53.2683L68.6433 53.4112L69.1484 52.2681ZM64.314 53.9827L65.3964 54.6971L65.6128 53.2683L64.6748 53.7684L65.3242 52.8397L66.0458 53.8398L66.7673 52.6253L65.3242 52.8397L65.4685 52.6968L63.9533 52.7682L64.6027 53.8398L64.314 53.9827ZM69.7256 52.1253L69.5092 53.1969L70.7358 52.8397L69.7256 52.1253ZM62.7988 56.626L62.6545 57.3404L63.5203 57.1975L62.7988 56.626Z" fill="#9A511F" fill-opacity="0.2"/>
<path d="M67.4161 57.2681L67.7769 56.6251H67.1275L67.4161 57.2681ZM63.6641 61.6259L64.3856 61.7688L64.1691 61.1258L63.6641 61.6259ZM65.7565 58.554L66.4781 58.6969L66.2616 57.8396L65.7565 58.554ZM65.6844 53.6246V54.2676L66.3338 53.9818L65.6844 53.6246ZM70.9517 54.6248L71.096 53.9104L70.4466 54.1247L70.9517 54.6248ZM67.4883 55.7678L68.2098 55.9822L68.1376 55.1249L67.4883 55.7678ZM69.3643 55.3392L69.7972 54.8391L69.0757 54.6962L69.3643 55.3392ZM71.9618 51.41L71.8897 52.053L72.6112 51.8387L71.9618 51.41Z" fill="#9A511F" fill-opacity="0.2"/>
<defs>
<linearGradient id="paint0_linear_1946_1336" x1="58.3665" y1="5.85839" x2="41.1931" y2="79.7434" gradientUnits="userSpaceOnUse">
<stop stop-color="#FEF0CD"/>
<stop offset="1" stop-color="white" stop-opacity="0"/>
</linearGradient>
<linearGradient id="paint1_linear_1946_1336" x1="51.9749" y1="30.8232" x2="51.9749" y2="71.2146" gradientUnits="userSpaceOnUse">
<stop stop-color="#FFC000"/>
<stop offset="1" stop-color="#E98000"/>
</linearGradient>
</defs>
</svg>
