<svg width="12" height="12" viewBox="0 0 12 12" fill="none" xmlns="http://www.w3.org/2000/svg">
<mask id="mask0_5312_9634" style="mask-type:luminance" maskUnits="userSpaceOnUse" x="0" y="0" width="12" height="12">
<path fill-rule="evenodd" clip-rule="evenodd" d="M5.99986 11.436C2.9977 11.436 0.563965 9.00208 0.563965 6.00011C0.563965 2.99813 2.9977 0.564209 5.99986 0.564209C9.00203 0.564209 11.4358 2.99813 11.4358 6.00011C11.4358 9.00208 9.00203 11.436 5.99986 11.436Z" fill="white"/>
</mask>
<g mask="url(#mask0_5312_9634)">
<path fill-rule="evenodd" clip-rule="evenodd" d="M-2.8335 -2.83374H14.8332V14.8329H-2.8335V-2.83374Z" fill="#18C1A3"/>
<path d="M7.57367 4.13237C7.75121 3.95585 8.03835 3.95585 8.21504 4.13254C8.39259 4.31008 8.39259 4.59654 8.21505 4.77407L5.81702 7.17292C5.73054 7.25842 5.61518 7.30507 5.49649 7.30507C5.37721 7.30507 5.26255 7.25857 5.1758 7.17256L4.13333 6.12927C3.95559 5.95254 3.95559 5.66512 4.13316 5.48755C4.30988 5.31083 4.59716 5.31083 4.77388 5.48756L5.49649 6.21036L7.57367 4.13237Z" fill="white"/>
</g>
<path fill-rule="evenodd" clip-rule="evenodd" d="M0 6C0 2.68629 2.68629 0 6 0C9.31371 0 12 2.68629 12 6C12 9.31371 9.31371 12 6 12C2.68629 12 0 9.31371 0 6ZM6 1.12821C3.30938 1.12821 1.12821 3.30938 1.12821 6C1.12821 8.69062 3.30938 10.8718 6 10.8718C8.69062 10.8718 10.8718 8.69062 10.8718 6C10.8718 3.30938 8.69062 1.12821 6 1.12821Z" fill="white"/>
</svg>
