<svg width="18" height="18" viewBox="0 0 18 18" fill="none" xmlns="http://www.w3.org/2000/svg">
<path d="M9.49251 2.12379C9.95553 1.70844 10.6917 2.0367 10.6917 2.65829V16.0351C10.6917 16.6571 9.95553 16.9853 9.49251 16.57L6.12121 13.5438C5.76315 13.2222 5.29889 13.0443 4.81763 13.0442H2.88589C2.31384 13.0442 1.76523 12.8169 1.36074 12.4124C0.956246 12.008 0.729004 11.4593 0.729004 10.8873V7.80605C0.729004 6.61463 1.69446 5.64916 2.88589 5.64916H4.81763C5.29889 5.64908 5.76315 5.47116 6.12121 5.14959L9.49251 2.12379ZM9.66465 3.34931L6.8073 5.91456C6.26067 6.40508 5.55208 6.67634 4.81763 6.67625H2.88589C2.58624 6.67625 2.29888 6.79528 2.087 7.00716C1.87512 7.21904 1.75609 7.50641 1.75609 7.80605V10.8873C1.75609 11.1869 1.87512 11.4743 2.087 11.6862C2.29888 11.8981 2.58624 12.0171 2.88589 12.0171H4.81763C5.55213 12.0171 6.26073 12.2885 6.8073 12.7792L9.66465 15.3449V3.34931ZM12.4854 7.03244C12.5331 6.98474 12.5898 6.9469 12.6521 6.92109C12.7144 6.89527 12.7812 6.88198 12.8486 6.88198C12.9161 6.88198 12.9829 6.89527 13.0452 6.92109C13.1075 6.9469 13.1641 6.98474 13.2118 7.03244L14.8001 8.62073L16.3884 7.03244C16.4357 6.98338 16.4924 6.94424 16.555 6.91731C16.6177 6.89038 16.6851 6.87619 16.7533 6.87558C16.8214 6.87497 16.8891 6.88795 16.9522 6.91375C17.0153 6.93955 17.0727 6.97767 17.1209 7.02587C17.1691 7.07408 17.2073 7.1314 17.2331 7.19451C17.2589 7.25761 17.272 7.32523 17.2714 7.39342C17.2708 7.46161 17.2567 7.529 17.2298 7.59166C17.2029 7.65432 17.1638 7.711 17.1147 7.75839L15.5264 9.34667L17.1147 10.9354C17.2082 11.0323 17.26 11.162 17.2588 11.2966C17.2576 11.4313 17.2035 11.5601 17.1083 11.6553C17.013 11.7505 16.8842 11.8044 16.7496 11.8056C16.6149 11.8067 16.4852 11.7549 16.3884 11.6613L14.8001 10.073L13.2118 11.6613C13.115 11.7549 12.9853 11.8067 12.8506 11.8056C12.716 11.8044 12.5871 11.7505 12.4919 11.6553C12.3967 11.5601 12.3426 11.4313 12.3414 11.2966C12.3402 11.162 12.3919 11.0323 12.4854 10.9354L14.0737 9.34667L12.4854 7.75839C12.3892 7.66209 12.3352 7.53154 12.3352 7.39542C12.3352 7.25929 12.3892 7.12874 12.4854 7.03244Z" fill="#474D6A" stroke="#474D6A" stroke-width="0.3"/>
</svg>
