<svg width="18" height="18" viewBox="0 0 18 18" fill="none" xmlns="http://www.w3.org/2000/svg">
<path d="M9.76351 2.18532C10.2265 1.76996 10.9627 2.09822 10.9627 2.71981V16.0966C10.9627 16.7186 10.2265 17.0468 9.76351 16.6315L6.3922 13.6053C6.03414 13.2837 5.56989 13.1058 5.08862 13.1057H3.15688C2.58484 13.1057 2.03623 12.8785 1.63174 12.474C1.22724 12.0695 1 11.5209 1 10.9488V7.86757C1 6.67615 1.96546 5.71069 3.15688 5.71069H5.08862C5.56989 5.7106 6.03414 5.53268 6.3922 5.21111L9.76351 2.18532ZM9.93565 3.41084L7.0783 5.97609C6.53166 6.46661 5.82307 6.73787 5.08862 6.73777H3.15688C2.85724 6.73777 2.56987 6.85681 2.358 7.06868C2.14612 7.28056 2.02709 7.56793 2.02709 7.86757V10.9488C2.02709 11.2485 2.14612 11.5358 2.358 11.7477C2.56987 11.9596 2.85724 12.0786 3.15688 12.0786H5.08862C5.82313 12.0786 6.53172 12.3501 7.0783 12.8407L9.93565 15.4064V3.41084Z" fill="#474D6A" stroke="#474D6A" stroke-width="0.3"/>
<path d="M14.8422 5C15.0304 5 15.2109 5.07732 15.344 5.21494C15.8987 5.78857 16.3319 6.47529 16.616 7.23145C16.9002 7.9876 17.0291 8.79663 16.9945 9.60709C16.9599 10.4175 16.7627 11.2117 16.4153 11.939C16.0678 12.6664 15.5779 13.311 14.9765 13.8319C14.8494 13.9409 14.6893 14.0003 14.5242 14C14.3803 13.9985 14.2403 13.9517 14.1229 13.8657C14.0054 13.7798 13.9162 13.6588 13.867 13.5189C13.8178 13.3791 13.8111 13.2271 13.8477 13.0832C13.8843 12.9393 13.9626 12.8104 14.0719 12.7137C14.5222 12.3225 14.8888 11.8387 15.1486 11.2931C15.4084 10.7475 15.5556 10.1519 15.5808 9.54433C15.6061 8.93673 15.5088 8.33033 15.2953 7.76367C15.0818 7.19701 14.7566 6.68248 14.3405 6.25278C14.2074 6.11515 14.1326 5.92849 14.1326 5.73386C14.1326 5.53923 14.2074 5.35257 14.3405 5.21494C14.4735 5.07732 14.654 5 14.8422 5Z" fill="#474D6A"/>
<path d="M13.1138 7.12422C13.1999 7.1611 13.2781 7.21516 13.344 7.2833C13.8701 7.83471 14.1669 8.57702 14.1708 9.35167C14.1703 9.77811 14.0796 10.1993 13.905 10.5856C13.7304 10.972 13.4762 11.3141 13.1602 11.5881C13.0893 11.6501 13.0072 11.697 12.9187 11.7261C12.8302 11.7552 12.737 11.766 12.6444 11.7579C12.5519 11.7497 12.4618 11.7228 12.3793 11.6786C12.2969 11.6345 12.2236 11.5739 12.1638 11.5004C12.1043 11.4266 12.0594 11.3413 12.0319 11.2495C12.0043 11.1577 11.9945 11.0612 12.003 10.9654C12.0115 10.8697 12.0382 10.7767 12.0816 10.6916C12.1249 10.6066 12.1841 10.5313 12.2557 10.4699C12.413 10.3326 12.5394 10.1613 12.6261 9.96816C12.7128 9.77501 12.7576 9.5646 12.7574 9.35167C12.7558 8.96461 12.6059 8.59401 12.3405 8.32114C12.2746 8.25299 12.2223 8.17209 12.1866 8.08306C12.151 7.99402 12.1326 7.89859 12.1326 7.80222C12.1326 7.70585 12.151 7.61042 12.1866 7.52139C12.2223 7.43235 12.2746 7.35145 12.3405 7.2833C12.4064 7.21516 12.4846 7.1611 12.5707 7.12422C12.6568 7.08734 12.749 7.06836 12.8422 7.06836C12.9354 7.06836 13.0277 7.08734 13.1138 7.12422Z" fill="#474D6A"/>
</svg>
