<svg xmlns="http://www.w3.org/2000/svg" width="110" height="110" fill="none"><g clip-path="url(#a)"><path fill="#121224" d="M8.794 24.619a35.038 35.038 0 0 1 14.61-12.35 28.01 28.01 0 0 1 6.745-2.036 34.444 34.444 0 0 1 23.702 4.434 31.796 31.796 0 0 1 8.233 7.056 25.858 25.858 0 0 1 5.87 12.478c.257 1.427-.362 1.306-1.187.275a11.435 11.435 0 0 1-1.297-2.123 19.77 19.77 0 0 1-1.496-3.016 28.359 28.359 0 0 0-7.915-10.313 32.803 32.803 0 0 0-11.739-6.101 16.405 16.405 0 0 0-1.968-.473c-.661-.111-1.323-.31-2.002-.36a28.61 28.61 0 0 0-4.116-.233c-2.765.02-5.516.384-8.19 1.083-1.457.38-2.877.886-4.246 1.513-.685.316-1.354.669-2.002 1.057l-.997.558-.954.628a32.227 32.227 0 0 0-6.875 6.015 35.687 35.687 0 0 0-3.283 4.564 35.232 35.232 0 0 0-2.32 5.078A31.548 31.548 0 0 0 5.83 49.146a29.218 29.218 0 0 0 5.276 11.773c.267.387.568.748.86 1.109.292.36.593.73.92 1.082 2.363 2.639 3.213 3.37 3.437 4.358.063.213.106.431.129.653 0 .3-.361.275-.98 0a10.31 10.31 0 0 1-1.134-.68c-.421-.317-.86-.713-1.41-1.177a30.08 30.08 0 0 1-7.279-10.33 33.25 33.25 0 0 1-1.942-6.238 34.96 34.96 0 0 1-.636-6.566c.033-3.28.537-6.54 1.496-9.677a35.82 35.82 0 0 1 4.176-8.834h.052ZM31.653 76.723a20.497 20.497 0 0 1-6.239 3.755c-.802.348-1.623.652-2.458.911-.644.206-1.306.352-1.96.507l-.987.206-.499.086-.619.112c-1.048.172-2.07.31-2.99.37-.92.06-2.123.257-2.131-.07.472-.54 1.014-1.16 1.435-1.718l.61-.756.395-.688c.135-.212.25-.437.344-.67l.18-.43c.21-.583.376-1.18.499-1.787.335-1.564.352-3.189.627-4.796.078-.49.653-.446 1.22 0a2.785 2.785 0 0 1 .972 2.364 19.162 19.162 0 0 1-.86 4.108c-.12.335-.24.678-.387 1.005l-.197.438a2.5 2.5 0 0 0-.232.19l-.13.111v.052c0 .051.061.06.13.094a.91.91 0 0 0 .386 0h.319l.378-.077.747-.172c.989-.25 1.968-.567 2.93-.86a21.373 21.373 0 0 0 5.913-2.981c.276-.193.537-.406.782-.636.25-.232.524-.439.748-.68l.86-.987.266-.301s0-.052.068-.06h.276l.739.146.902.163c.266 0 .524.094.79.129.525.086 1.049.146 1.573.206 1.032.128 2.071.194 3.111.198 1.61-.073 3.208-.31 4.77-.705l1.022-.266c1.272-.31 1.719-.293 2.14.215.107.105.205.22.292.343.258.404-.172.945-1.143 1.315a23.075 23.075 0 0 1-9.453 1.255 30.006 30.006 0 0 1-3.6-.413l-.413-.069h-.086c-.052 0-.146-.042-.129 0l-.155.181c-.204.25-.431.48-.678.688l-.078-.026ZM70.762 40.218a30.808 30.808 0 0 0-6.016 2.5 30.077 30.077 0 0 0-5.302 3.816 26.847 26.847 0 0 0-4.237 5.02 27.26 27.26 0 0 0-4.392 15.262A25.936 25.936 0 0 0 70.28 91.695c2.465.625 5.003.914 7.546.859.636 0 1.272 0 1.899-.086s1.272-.077 1.9-.198l.944-.146.722-.111.37-.052h.18c.052 0 .086.086.13.129l.859.971c.204.215.425.414.661.593a13.278 13.278 0 0 0 5.835 2.578c1.079.208 2.17.343 3.266.404h1.452l-.043-.069a5.3 5.3 0 0 1-.335-.515l-.146-.284-.154-.31c-.07-.128-.12-.257-.181-.377a11.36 11.36 0 0 1-.928-3.223c-.112-.988 0-1.478.223-1.556.224-.077.421.25.722.86s.705 1.41 1.29 2.329c.145.232.3.464.472.713l.258.37.137.189.25.37c.687 1.03 1.796 2.337 2.801 3.669-.258.051-.636.086-.988.129l-1.075.12c-.378 0-.756.077-1.151.094H94.06c-.448-.043-.86-.068-1.35-.137a20.98 20.98 0 0 1-2.681-.498 15.907 15.907 0 0 1-5.156-2.235 9.446 9.446 0 0 1-1.152-.86 4.797 4.797 0 0 1-.533-.49l-.25-.274-1.237.172c-.859.112-1.77.154-2.655.223-.885.069-1.77 0-2.664 0a30.077 30.077 0 0 1-10.416-2.269 27.56 27.56 0 0 1-8.851-5.938 30.42 30.42 0 0 1-4.014-5.208 29.947 29.947 0 0 1-2.844-5.852 28.358 28.358 0 0 1-1.452-12.89c.298-2.352.875-4.66 1.718-6.876a27.5 27.5 0 0 1 3.292-6.316 30.078 30.078 0 0 1 2.191-2.81 33.284 33.284 0 0 1 2.578-2.484 29.155 29.155 0 0 1 5.861-4.022 30.706 30.706 0 0 1 16.878-3.437 27.89 27.89 0 0 1 3.266.455c.543.102 1.08.234 1.607.396.533.154 1.074.257 1.59.455a27.15 27.15 0 0 1 3.06 1.272c.498.24.996.473 1.486.73l1.41.86.704.43.67.49 1.324.979 1.237 1.083c.418.353.814.732 1.186 1.134l1.135 1.169c.36.413.687.86 1.031 1.28a28.362 28.362 0 0 1 5.569 12.032 27.2 27.2 0 0 1 .06 10.072 25.273 25.273 0 0 1-1.178 4.296 19.767 19.767 0 0 1-2.784 5.217 5.39 5.39 0 0 1-2.002 1.77 4.732 4.732 0 0 1-.8.335c-.343 0-.223-.412.224-1.263.447-.85 1.203-2.14 2.045-3.833a25.464 25.464 0 0 0 2.131-16.62 25.882 25.882 0 0 0-8.851-14.61 25.214 25.214 0 0 0-5.474-3.497c-.98-.46-1.988-.859-3.017-1.195-.515-.163-1.048-.283-1.572-.43l-.791-.24c-.266-.06-.541-.094-.808-.146a27.998 27.998 0 0 0-13.002.705l-.017-.052Z"/><path fill="#121224" d="M64.687 91.332a27.018 27.018 0 0 0 8.139 2.622c1.036.147 2.08.23 3.128.249h1.392c.464 0 .92 0 1.384-.06l1.392-.078c.464 0 .92-.129 1.375-.189l1.581-.232c.215-.103.3.146.447.258l.318.335.464.49c.326.31.696.576 1.04.86.344.283.765.49 1.151.738a14.285 14.285 0 0 0 4.615 1.513c2.08.278 4.181.341 6.274.189.635 0 .61.258.085.619a5.45 5.45 0 0 1-2.861.713 19.329 19.329 0 0 1-6.669-1.134 13.348 13.348 0 0 1-3.068-1.59c-.465-.347-.91-.72-1.332-1.117l-.593-.645v-.052h-.077a37.887 37.887 0 0 1-8.121.473 28.515 28.515 0 0 1-8.732-2.131c-.43-.19-.859-.361-1.272-.55l-1.22-.662a20.627 20.627 0 0 1-2.355-1.452 28.223 28.223 0 0 1-6.015-5.74 30.6 30.6 0 0 1-3.386-5.424c-.206-.42-.404-.859-.61-1.271-.61-1.65-.696-2.217-.524-2.656.026-.102.067-.2.12-.292.172-.215.584.387 1.048 1.547a29.976 29.976 0 0 0 6.102 9.539 24.74 24.74 0 0 0 6.875 5.105l-.095.025ZM33.4 76.594l-.541-.103h-.06l-.765.79a17.803 17.803 0 0 1-1.994 1.53c-.498.346-1.015.664-1.547.954a28.47 28.47 0 0 1-5.904 2.209c-.902.232-1.796.473-2.698.679a15.99 15.99 0 0 1-3.507.576c-.739 0 .086-1.178 1.358-1.401a59.546 59.546 0 0 0 6.875-1.59 18.049 18.049 0 0 0 3.91-1.787c.347-.186.68-.396.997-.628a7.45 7.45 0 0 0 .954-.687c.292-.258.619-.482.86-.757l.953-.996.104-.104h.137l.292.052.439.077.73.12c.49.078.98.155 1.47.215 1.475.224 2.968.316 4.46.276a13.28 13.28 0 0 0 3.3-.636l.687-.25c.86-.3 1.169-.352 1.47-.137.073.041.142.09.206.146.172.18-.12.516-.765.86a13.818 13.818 0 0 1-6.514 1.168 42.16 42.16 0 0 1-4.916-.55l.009-.026Z"/><path stroke="#121224" stroke-miterlimit="10" stroke-width=".6" d="M76.892 26.621a.679.679 0 0 1 .74-.61c1.847.172-.929 2.561-.74.61ZM39.524 87.646a.68.68 0 0 1 .74-.61c1.847.171-.92 2.552-.74.61Z"/><path fill="#121224" d="M95.066 23.433a.576.576 0 0 1 .326.748c-.567 1.47-1.864-1.34-.326-.748ZM23.033 39.417a3.392 3.392 0 0 1 2.446 2.12c1.89 5.07-6.668 5.363-6.62.847a3.261 3.261 0 0 1 4.174-2.967ZM36.096 39.425a3.376 3.376 0 0 1 2.445 2.104c1.891 5.07-6.668 5.363-6.619.847a3.26 3.26 0 0 1 4.174-2.95ZM49.162 39.417a3.456 3.456 0 0 1 2.446 2.12c1.89 5.07-6.668 5.363-6.62.847a3.261 3.261 0 0 1 4.174-2.967Z"/><path stroke="#121224" stroke-width="1.5" d="M83.049 73.803v.011c-.014.286-.2.45-.411.47-.182.015-.414-.097-.512-.42-.362-1.38-.69-2.497-1.068-3.387-.384-.901-.838-1.618-1.481-2.159-.645-.543-1.418-.856-2.35-1.055-.919-.197-2.038-.291-3.402-.365-.307-.018-.478-.22-.496-.425-.019-.215.121-.444.417-.512 2.626-.534 4.412-1.05 5.49-2.34.546-.655.869-1.456 1.079-2.422.208-.957.315-2.126.397-3.55.023-.305.215-.467.428-.485.186-.016.409.1.492.412.368 1.384.7 2.505 1.083 3.398.386.901.844 1.618 1.488 2.158.647.542 1.42.855 2.352 1.053.918.195 2.035.286 3.396.356.297.02.48.226.498.434.017.205-.137.443-.405.501-2.633.535-4.422 1.05-5.503 2.343-.548.655-.873 1.456-1.085 2.424-.211.96-.321 2.132-.407 3.56ZM69.647 60.648a6.386 6.386 0 0 0-.168-.443c-.183-.43-.415-.808-.765-1.103-.352-.296-.762-.455-1.212-.551a5.164 5.164 0 0 0-.284-.053c.57-.186 1.05-.44 1.4-.86.297-.357.46-.779.56-1.24.032-.148.059-.304.081-.469.055.16.111.308.17.447.185.43.418.808.769 1.101.353.296.763.455 1.213.55.089.02.18.036.276.051-.568.186-1.045.44-1.394.858-.298.357-.462.779-.564 1.241-.032.148-.06.305-.082.471Zm1.68 15.145a4.731 4.731 0 0 0-.047-.114c-.167-.39-.38-.741-.706-1.015-.32-.27-.689-.415-1.087-.504.4-.16.745-.375 1.01-.693.277-.332.426-.722.518-1.143l.025-.123.048.118c.168.39.383.741.709 1.015.318.266.685.412 1.08.5-.398.16-.74.375-1.005.691-.277.332-.428.722-.52 1.143-.01.041-.018.083-.026.125Z"/></g><defs><clipPath id="a"><path fill="#fff" d="M0 0h110v110H0z"/></clipPath></defs></svg>