
<svg width="17" height="18" viewBox="0 0 17 18" fill="none" xmlns="http://www.w3.org/2000/svg">
<path d="M11.8906 1.5H14.1406C14.5384 1.5 14.92 1.65804 15.2013 1.93934C15.4826 2.22064 15.6406 2.60218 15.6406 3V8.25C15.6406 8.64782 15.4826 9.02936 15.2013 9.31066C14.92 9.59196 14.5384 9.75 14.1406 9.75H11.8906M6.64062 11.25V14.25C6.64063 14.8467 6.87768 15.419 7.29963 15.841C7.72159 16.2629 8.29389 16.5 8.89062 16.5L11.8906 9.75V1.5H3.43062C3.06888 1.49591 2.71784 1.6227 2.4422 1.857C2.16655 2.09129 1.98487 2.41732 1.93062 2.775L0.895625 9.525C0.862994 9.73998 0.877494 9.95949 0.93812 10.1683C0.998746 10.3771 1.10405 10.5703 1.24673 10.7344C1.38941 10.8984 1.56607 11.0296 1.76445 11.1186C1.96283 11.2076 2.17819 11.2525 2.39563 11.25H6.64062Z" stroke="#121224" stroke-width="1.5" stroke-linecap="round" stroke-linejoin="round"/>
</svg>
