
<svg width="17" height="18" viewBox="0 0 17 18" fill="none" xmlns="http://www.w3.org/2000/svg">
<path d="M4.62866 16.5H2.37866C1.98084 16.5 1.59931 16.342 1.318 16.0607C1.0367 15.7794 0.878662 15.3978 0.878662 15V9.75C0.878662 9.35218 1.0367 8.97064 1.318 8.68934C1.59931 8.40804 1.98084 8.25 2.37866 8.25H4.62866M9.87866 6.75V3.75C9.87866 3.15326 9.64161 2.58097 9.21965 2.15901C8.7977 1.73705 8.2254 1.5 7.62866 1.5L4.62866 8.25V16.5H13.0887C13.4504 16.5041 13.8014 16.3773 14.0771 16.143C14.3527 15.9087 14.5344 15.5827 14.5887 15.225L15.6237 8.475C15.6563 8.26002 15.6418 8.04051 15.5812 7.83169C15.5205 7.62287 15.4152 7.42972 15.2726 7.26564C15.1299 7.10155 14.9532 6.97045 14.7548 6.88141C14.5565 6.79238 14.3411 6.74754 14.1237 6.75H9.87866Z" stroke="#121224" stroke-width="1.5" stroke-linecap="round" stroke-linejoin="round"/>
</svg>
