<svg width="12" height="9" viewBox="0 0 12 9" fill="none" xmlns="http://www.w3.org/2000/svg">
<path fill-rule="evenodd" clip-rule="evenodd" d="M5.25504 0.895009L5.24796 1.78763L5.01186 1.80709C3.94942 1.88735 2.99795 2.45162 2.3841 3.36857C2.31799 3.46585 2.2566 3.56314 2.24952 3.5826C2.24008 3.60935 2.30618 3.61422 2.63436 3.61665C2.98378 3.61665 3.05461 3.62395 3.2553 3.67989C3.8361 3.84041 4.29649 4.13958 4.65299 4.59197C5.0945 5.14651 5.31171 5.87131 5.23852 6.54746C5.17005 7.20416 4.94812 7.70276 4.5137 8.17218C4.11941 8.60025 3.59764 8.88481 3.03809 8.97724C2.75005 9.02345 2.23299 8.9967 1.95204 8.91887C1.2768 8.73159 0.710164 8.28649 0.346573 7.64925C0.237968 7.4644 0.148251 7.22848 0.0726995 6.93418C0.016036 6.71528 0.0113144 6.65934 0.00187016 5.9686C-0.0122957 4.89113 0.0443678 4.40955 0.268661 3.70421C0.514202 2.93077 0.915568 2.25218 1.4704 1.65872C1.92134 1.17958 2.3534 0.851229 2.91295 0.564228C3.58583 0.218855 4.41454 -4.3869e-05 5.05908 -4.3869e-05H5.25977L5.25504 0.895009Z" fill="#979EC2"/>
<path fill-rule="evenodd" clip-rule="evenodd" d="M11.6691 0.895009L11.662 1.78763L11.4259 1.80709C10.3635 1.88735 9.41201 2.45162 8.79816 3.36857C8.73205 3.46585 8.67067 3.56314 8.66358 3.5826C8.65414 3.60935 8.72025 3.61422 9.04842 3.61665C9.39785 3.61665 9.46868 3.62395 9.66936 3.67989C10.2502 3.84041 10.7105 4.13958 11.0671 4.59197C11.5086 5.14651 11.7258 5.87131 11.6526 6.54746C11.5841 7.20416 11.3622 7.70276 10.9278 8.17218C10.5335 8.60025 10.0117 8.88481 9.45215 8.97724C9.16411 9.02345 8.64706 8.9967 8.3661 8.91887C7.69086 8.73159 7.12423 8.28649 6.76064 7.64925C6.65203 7.4644 6.56231 7.22848 6.48676 6.93418C6.4301 6.71528 6.42538 6.65934 6.41593 5.9686C6.40177 4.89113 6.45843 4.40955 6.68272 3.70421C6.92826 2.93077 7.32963 2.25218 7.88446 1.65872C8.33541 1.17958 8.76747 0.851229 9.32702 0.564228C9.9999 0.218855 10.8286 -4.3869e-05 11.4731 -4.3869e-05H11.6738L11.6691 0.895009Z" fill="#979EC2"/>
</svg>
