<svg width="36" height="36" viewBox="0 0 36 36" fill="none" xmlns="http://www.w3.org/2000/svg">
<path d="M13.0331 10.6547H11.0138L22.417 25.7169H24.4363L13.0331 10.6547Z" fill="black"/>
<path fill-rule="evenodd" clip-rule="evenodd" d="M36 18C36 8.05888 27.9411 0 18 0V0C8.05888 0 0 8.05888 0 18V18C0 27.9411 8.05888 36 18 36V36C27.9411 36 36 27.9411 36 18V18ZM7.43346 8.87573H13.9198L18.5445 14.9845L23.6048 8.99436H26.9307L20.1167 17.0606L20.1027 17.0426L28.0166 27.4959H21.5303L16.6958 21.1102L11.2513 27.5552H7.92543L15.1239 19.0339L7.43346 8.87573Z" fill="black"/>
</svg>