<svg width="14" height="14" viewBox="0 0 14 14" fill="none" xmlns="http://www.w3.org/2000/svg">
<path d="M13.0474 3.56964C13.0779 3.80562 13.0777 4.04805 13.0768 4.28661C13.0762 4.39478 13.0759 4.50295 13.0755 4.61112C13.0751 4.71983 13.0746 4.82855 13.0742 4.93726C13.0738 5.04597 13.0734 5.15469 13.073 5.2634C13.0725 5.37212 13.0721 5.48083 13.0717 5.58954C13.0713 5.69826 13.0708 5.80697 13.0704 5.91568C13.0704 6.5952 13.0758 7.2747 13.0789 7.9542C13.0818 8.60837 13.1188 9.26866 13.0941 9.92259C13.0726 10.4901 12.9518 11.1229 12.5084 11.5176C12.0097 11.9615 11.2769 11.9863 10.6093 11.9874C8.24064 11.9916 5.87198 11.9958 3.50332 12C2.8689 12.0011 2.17868 11.9834 1.68675 11.5828C1.04763 11.0623 0.997697 10.1212 1.00008 9.29698C1.00462 7.72167 1.00917 6.14637 1.01372 4.57107C1.01581 3.84457 1.05122 3.0347 1.56998 2.52609C2.07973 2.02631 2.87314 1.99789 3.58702 2.0001C5.9757 2.00751 8.36439 2.01491 10.7531 2.02232C11.2113 2.02374 11.6858 2.02856 12.1023 2.21948C12.4798 2.39246 12.785 2.7172 12.9344 3.10461C12.9922 3.25459 13.0268 3.41065 13.0474 3.56964ZM12.3664 8.74073C12.3137 8.74073 12.2678 8.74073 12.2218 8.74073C11.4298 8.74069 10.6377 8.74637 9.84571 8.73932C8.58985 8.72815 7.75859 7.51033 8.21385 6.35709C8.4768 5.69102 9.11357 5.26629 9.86295 5.26364C10.651 5.26085 11.4392 5.26299 12.2273 5.26298C12.2729 5.26298 12.3185 5.26298 12.3649 5.26298C12.3684 5.22756 12.372 5.20831 12.372 5.18906C12.3723 4.72244 12.3741 4.2558 12.3708 3.7892C12.3702 3.69597 12.3616 3.59982 12.3375 3.51022C12.2017 3.00736 11.8092 2.71803 11.2662 2.71792C8.45488 2.71732 5.64357 2.71731 2.83226 2.71788C2.16017 2.71802 1.71735 3.34091 1.71879 3.82841C1.71879 4.13748 1.72028 4.44655 1.72063 4.75562C1.72098 5.06625 1.72109 5.37687 1.72107 5.6875C1.72105 5.99813 1.72089 6.30875 1.72071 6.61938C1.72052 6.93001 1.72029 7.24063 1.72014 7.55126C1.71998 7.86188 1.71989 8.17251 1.71997 8.48313C1.72005 8.79376 1.72029 9.10438 1.72081 9.41501C1.72081 9.56776 1.72085 9.72056 1.72198 9.8733C1.72308 10.0241 1.72195 10.1717 1.74378 10.3216C1.77819 10.558 1.89107 10.8069 2.06143 10.976C2.20629 11.1218 2.39588 11.207 2.59467 11.2505C2.67476 11.2681 2.75612 11.2794 2.83774 11.2868C5.64121 11.2854 8.44467 11.2861 11.2481 11.2859C11.2952 11.2859 11.3423 11.2855 11.3892 11.2823C11.9212 11.2458 12.3372 10.8467 12.3608 10.3144C12.3821 9.83303 12.37 9.35018 12.3722 8.86798C12.3724 8.8298 12.3689 8.79159 12.3664 8.74073ZM12.3657 5.96129C12.1297 5.96129 11.9069 5.96081 11.6841 5.96138C11.0376 5.96305 10.3906 5.95041 9.7447 5.97147C9.16895 5.99023 8.72908 6.53286 8.79131 7.1058C8.85121 7.65724 9.28694 8.03897 9.87043 8.04151C10.6659 8.04498 11.4614 8.04248 12.2568 8.04212C12.291 8.04211 12.3253 8.03798 12.3657 8.03537V5.96129Z" fill="#121224" stroke="#121224" stroke-width="0.5"/>
<path d="M10.0504 7.34782C9.97603 7.34782 9.9015 7.35073 9.82726 7.34726C9.6191 7.33754 9.47127 7.19346 9.46926 7.00154C9.46726 6.81068 9.615 6.65946 9.82153 6.65092C9.97008 6.64479 10.1192 6.64535 10.2678 6.65054C10.4761 6.6578 10.6238 6.80387 10.6258 6.99578C10.6279 7.19088 10.4756 7.33912 10.2619 7.34762C10.1915 7.35042 10.1209 7.34806 10.0504 7.34782Z" fill="#121224" stroke="#121224" stroke-width="0.2"/>
</svg>