<svg width="14" height="14" viewBox="0 0 14 14" fill="none" xmlns="http://www.w3.org/2000/svg">
<g clip-path="url(#clip0_1952_91705)">
<g clip-path="url(#clip1_1952_91705)">
<path fill-rule="evenodd" clip-rule="evenodd" d="M7.42292 1.57427C8.09089 0.929123 8.98552 0.572143 9.91414 0.580212C10.8427 0.588281 11.731 0.960755 12.3877 1.61741C13.0444 2.27406 13.4168 3.16236 13.4249 4.09097C13.433 5.01958 13.076 5.91422 12.4308 6.58218L12.4233 6.59L10.6733 8.33985C10.3143 8.69899 9.88214 8.97679 9.40634 9.15428C8.93052 9.33178 8.42208 9.40487 7.91552 9.36859C7.40896 9.33231 6.91613 9.18751 6.47045 8.94402C6.02477 8.70052 5.63667 8.36402 5.33247 7.95735C5.12572 7.68094 5.18218 7.28926 5.45859 7.08251C5.735 6.87576 6.12668 6.93222 6.33343 7.20863C6.53026 7.47177 6.78139 7.6895 7.06977 7.84706C7.35815 8.00461 7.67704 8.0983 8.00481 8.12178C8.33259 8.14525 8.66158 8.09796 8.96946 7.98311C9.27735 7.86826 9.55694 7.68853 9.78926 7.45613L11.5353 5.71012C11.9505 5.2783 12.1801 4.701 12.1749 4.10183C12.1697 3.50096 11.9287 2.92619 11.5038 2.50129C11.0789 2.0764 10.5041 1.83539 9.90327 1.83016C9.30382 1.82496 8.72626 2.05484 8.29437 2.47043L7.29444 3.46455C7.04965 3.70791 6.65392 3.70676 6.41056 3.46197C6.16719 3.21718 6.16835 2.82146 6.41313 2.57809L7.42292 1.57427ZM4.5929 4.84504C5.06873 4.66754 5.57717 4.59445 6.08373 4.63073C6.59029 4.66701 7.08312 4.81181 7.5288 5.0553C7.97448 5.2988 8.36258 5.63529 8.66677 6.04197C8.87353 6.31838 8.81706 6.71005 8.54066 6.91681C8.26425 7.12356 7.87257 7.0671 7.66582 6.79069C7.46898 6.52755 7.21786 6.30982 6.92948 6.15226C6.6411 5.99471 6.32221 5.90101 5.99444 5.87754C5.66666 5.85406 5.33767 5.90136 5.02978 6.01621C4.72189 6.13106 4.44231 6.31079 4.20998 6.54319L2.46398 8.2892C2.04877 8.72101 1.8191 9.29832 1.82431 9.89749C1.82953 10.4984 2.07054 11.0731 2.49543 11.498C2.92033 11.9229 3.4951 12.1639 4.09597 12.1692C4.69513 12.1744 5.27243 11.9447 5.70424 11.5295L6.69769 10.5361C6.94176 10.292 7.33749 10.292 7.58157 10.5361C7.82565 10.7801 7.82565 11.1759 7.58157 11.4199L6.57639 12.4251C5.90842 13.0703 5.01372 13.4272 4.08511 13.4191C3.1565 13.411 2.2682 13.0386 1.61155 12.3819C0.954895 11.7253 0.582422 10.837 0.574353 9.90835C0.566283 8.97974 0.923263 8.0851 1.56841 7.41714L1.57595 7.40932L3.32594 5.65947C3.68497 5.30033 4.11711 5.02253 4.5929 4.84504Z" fill="#474D6A"/>
<path d="M10.6733 8.33985L12.4233 6.59L12.4308 6.58218C13.076 5.91422 13.433 5.01958 13.4249 4.09097C13.4168 3.16236 13.0444 2.27406 12.3877 1.61741C11.731 0.960755 10.8427 0.588281 9.91414 0.580212C8.98552 0.572143 8.09089 0.929123 7.42292 1.57427L6.41313 2.57809C6.16835 2.82146 6.16719 3.21718 6.41056 3.46197C6.65392 3.70676 7.04965 3.70791 7.29444 3.46455L8.29437 2.47043C8.72626 2.05484 9.30382 1.82496 9.90327 1.83016C10.5041 1.83539 11.0789 2.0764 11.5038 2.50129C11.9287 2.92619 12.1697 3.50096 12.1749 4.10183C12.1801 4.701 11.9505 5.2783 11.5353 5.71012L9.78926 7.45613C9.55694 7.68853 9.27735 7.86826 8.96946 7.98311C8.66157 8.09796 8.33259 8.14525 8.00481 8.12178C7.67704 8.0983 7.35815 8.00461 7.06977 7.84706C6.78139 7.6895 6.53026 7.47177 6.33343 7.20863C6.12668 6.93222 5.735 6.87576 5.45859 7.08251C5.18218 7.28926 5.12572 7.68094 5.33247 7.95735C5.63667 8.36402 6.02477 8.70052 6.47045 8.94402C6.91613 9.18751 7.40896 9.33231 7.91552 9.36859C8.42208 9.40487 8.93052 9.33178 9.40634 9.15428C9.88214 8.97679 10.3143 8.69899 10.6733 8.33985ZM10.6733 8.33985V8.33985ZM3.32594 5.65947L1.57595 7.40932L1.56841 7.41714C0.923263 8.0851 0.566283 8.97974 0.574353 9.90835C0.582422 10.837 0.954895 11.7253 1.61155 12.3819C2.2682 13.0386 3.1565 13.411 4.08511 13.4191C5.01372 13.4272 5.90842 13.0703 6.57639 12.4251L7.58157 11.4199C7.82565 11.1759 7.82565 10.7801 7.58157 10.5361C7.33749 10.292 6.94176 10.292 6.69769 10.5361L5.70424 11.5295C5.27243 11.9447 4.69513 12.1744 4.09597 12.1692C3.4951 12.1639 2.92033 11.9229 2.49543 11.498C2.07054 11.0731 1.82953 10.4984 1.82431 9.89749C1.8191 9.29832 2.04877 8.72101 2.46398 8.2892L4.20998 6.54319C4.44231 6.31079 4.72189 6.13106 5.02978 6.01621C5.33767 5.90136 5.66666 5.85406 5.99444 5.87754C6.32221 5.90101 6.6411 5.99471 6.92948 6.15226C7.21786 6.30982 7.46898 6.52755 7.66582 6.79069C7.87257 7.0671 8.26425 7.12356 8.54066 6.91681C8.81706 6.71005 8.87353 6.31838 8.66677 6.04197C8.36258 5.63529 7.97448 5.2988 7.5288 5.0553C7.08312 4.81181 6.59029 4.66701 6.08373 4.63073C5.57717 4.59445 5.06873 4.66754 4.5929 4.84504C4.11711 5.02253 3.68497 5.30033 3.32594 5.65947ZM3.32594 5.65947V5.65947Z" stroke="#474D6A" stroke-width="0.2" stroke-linecap="round" stroke-linejoin="round"/>
</g>
</g>
<defs>
<clipPath id="clip0_1952_91705">
<rect width="14" height="14" fill="white"/>
</clipPath>
<clipPath id="clip1_1952_91705">
<rect width="14" height="14" fill="white"/>
</clipPath>
</defs>
</svg>