<svg width="12" height="18" viewBox="0 0 12 18" fill="none" xmlns="http://www.w3.org/2000/svg">
<path d="M11.4282 8.09353L9.94155 6.60188V2.58588C9.94155 1.57615 9.12579 0.75 8.11944 0.75H3.87294C2.86658 0.75 2.05083 1.5685 2.05083 2.58588V6.60188L0.564168 8.09353C0.198221 8.46071 0 8.95028 0 9.47044V11.8188H5.26048V16.4468C5.26048 16.8905 5.62643 17.2576 6.06861 17.2576C6.5108 17.2576 6.87675 16.8905 6.87675 16.4468V11.8188H12V9.47044C12 8.95028 11.7942 8.46071 11.4282 8.09353ZM3.66709 7.27503V2.58588C3.66709 2.47114 3.75858 2.3717 3.87294 2.3717H8.11944C8.2338 2.3717 8.32529 2.46349 8.32529 2.58588V7.27503L10.2846 9.24096C10.3456 9.30216 10.3761 9.3863 10.3761 9.47044V10.1971H1.61626V9.47044C1.61626 9.3863 1.65438 9.30216 1.70775 9.24096L3.66709 7.27503Z" fill="#8292B4"/>
</svg>
