<svg width="40" height="40" viewBox="0 0 40 40" fill="none" xmlns="http://www.w3.org/2000/svg">
<circle cx="20" cy="20" r="20" fill="#FFF3DD"/>
<rect x="13.075" y="12.7158" width="14.0964" height="14.0964" rx="2.23752" stroke="#121224" stroke-width="1.3"/>
<path d="M20.1324 14.8417C20.1928 14.7377 20.3429 14.7377 20.4033 14.8417L20.9912 15.8544C21.0134 15.8926 21.0506 15.9196 21.0937 15.9289L22.2385 16.1751C22.3561 16.2004 22.4025 16.3432 22.3222 16.4327L21.5408 17.3048C21.5113 17.3376 21.4971 17.3814 21.5016 17.4253L21.6212 18.5901C21.6335 18.7097 21.512 18.798 21.4021 18.7494L20.3312 18.2756C20.2909 18.2578 20.2449 18.2578 20.2045 18.2756L19.1336 18.7494C19.0237 18.798 18.9022 18.7097 18.9145 18.5901L19.0341 17.4253C19.0386 17.3814 19.0244 17.3376 18.9949 17.3048L18.2135 16.4327C18.1333 16.3432 18.1797 16.2004 18.2972 16.1751L19.442 15.9289C19.4851 15.9196 19.5224 15.8926 19.5445 15.8544L20.1324 14.8417Z" fill="#121224"/>
<rect x="14.9998" y="20.7827" width="10" height="1.35764" rx="0.678818" fill="#121224"/>
<rect x="16.9114" y="23.3579" width="6.71257" height="1.30772" rx="0.653861" fill="#121224"/>
</svg>
