<svg width="40" height="40" viewBox="0 0 40 40" fill="none" xmlns="http://www.w3.org/2000/svg">
<circle cx="20" cy="20" r="20" fill="#FFF3DD"/>
<path d="M24.1592 12.7978C23.4077 12.1886 22.5278 11.7525 21.5836 11.5212C20.6394 11.2899 19.6547 11.2693 18.7014 11.4609C17.4321 11.7137 16.2675 12.3324 15.3555 13.2386C14.4434 14.1447 13.825 15.2975 13.5787 16.5507C13.3988 17.4903 13.4315 18.4574 13.6744 19.3832C13.9173 20.3089 14.3645 21.1704 14.984 21.9062C15.5589 22.5457 15.8884 23.3635 15.9154 24.2175V26.6335C15.9154 27.2743 16.1736 27.8888 16.6333 28.3419C17.093 28.795 17.7164 29.0495 18.3665 29.0495H21.6346C22.2846 29.0495 22.9081 28.795 23.3677 28.3419C23.8274 27.8888 24.0856 27.2743 24.0856 26.6335V24.3705C24.1131 23.4276 24.4645 22.5218 25.0824 21.8015C26.1651 20.4814 26.6754 18.7934 26.5025 17.1045C26.3297 15.4155 25.4875 13.8621 24.1592 12.7817V12.7978ZM22.7628 26.6335C22.7628 26.8471 22.6767 27.052 22.5235 27.203C22.3702 27.354 22.1624 27.4389 21.9457 27.4389H18.1608C17.9441 27.4389 17.7363 27.354 17.5831 27.203C17.4299 27.052 17.3438 26.8471 17.3438 26.6335V25.8282H22.7628V26.6335ZM24.0431 20.763C23.2216 21.7235 22.8958 22.9628 22.8322 24.2175H20.8175V21.8015C20.8175 21.5879 20.7315 21.3831 20.5782 21.232C20.425 21.081 20.2172 20.9962 20.0005 20.9962C19.7838 20.9962 19.576 21.081 19.4228 21.232C19.2696 21.3831 19.1835 21.5879 19.1835 21.8015V24.2175H17.1285C17.1069 22.9838 16.7892 21.7973 15.9665 20.8673C15.4237 20.2262 15.0587 19.4575 14.9071 18.636C14.7555 17.8145 14.8224 16.9683 15.1013 16.1799C15.3803 15.3914 15.8618 14.6877 16.4988 14.1373C17.1359 13.587 17.8719 13.0837 18.7014 12.9145C19.4143 12.7698 20.6538 12.7435 21.3606 12.9145C22.0675 13.0854 22.7617 13.5343 23.3258 13.9877C23.8899 14.4411 24.3444 15.0127 24.6564 15.6608C24.9685 16.309 25.1301 17.0175 25.1298 17.735C25.1358 18.8382 24.7515 19.9089 24.0431 20.763Z" fill="#121224"/>
</svg>
