<svg width="40" height="40" viewBox="0 0 40 40" fill="none" xmlns="http://www.w3.org/2000/svg">
<circle cx="20" cy="20" r="20" fill="#FFF3DD"/>
<g clip-path="url(#clip0_3412_266422)">
<path d="M20 12.0712C19.4033 12.0712 18.831 12.3083 18.409 12.7302C17.9871 13.1522 17.75 13.7245 17.75 14.3212V20.3212C17.75 20.918 17.9871 21.4903 18.409 21.9122C18.831 22.3342 19.4033 22.5712 20 22.5712C20.5967 22.5712 21.169 22.3342 21.591 21.9122C22.0129 21.4903 22.25 20.918 22.25 20.3212V14.3212C22.25 13.7245 22.0129 13.1522 21.591 12.7302C21.169 12.3083 20.5967 12.0712 20 12.0712Z" stroke="black" stroke-width="1.3" stroke-linecap="round" stroke-linejoin="round"/>
<path d="M25.2498 18.5V20C25.2498 21.3924 24.6966 22.7277 23.7121 23.7123C22.7275 24.6969 21.3921 25.25 19.9998 25.25C18.6074 25.25 17.272 24.6969 16.2874 23.7123C15.3029 22.7277 14.7498 21.3924 14.7498 20V18.5" stroke="black" stroke-width="1.3" stroke-linecap="round" stroke-linejoin="round"/>
<path d="M20 25.25V28.25" stroke="black" stroke-width="1.3" stroke-linecap="round" stroke-linejoin="round"/>
<path d="M16.9998 28.25H22.9998" stroke="black" stroke-width="1.3" stroke-linecap="round" stroke-linejoin="round"/>
</g>
<defs>
<clipPath id="clip0_3412_266422">
<rect width="18" height="18" fill="white" transform="translate(11 11)"/>
</clipPath>
</defs>
</svg>
