<svg width="119" height="10" viewBox="0 0 119 10" fill="none" xmlns="http://www.w3.org/2000/svg">
<path d="M3.56105 5.90865L0.81105 0.859649H2.80205L4.16605 3.49965C4.29805 3.75265 4.38605 3.95065 4.47405 4.15965C4.57305 3.96165 4.66105 3.75265 4.79305 3.48865L6.15705 0.859649H8.09305L5.34305 5.90865V8.99965H3.56105V5.90865ZM15.9148 4.91865C15.9148 7.40465 14.2758 9.13165 11.9108 9.13165C9.55682 9.13165 7.93982 7.41565 7.93982 4.92965C7.93982 2.44365 9.56782 0.716649 11.9218 0.716649C14.2868 0.716649 15.9148 2.43265 15.9148 4.91865ZM14.0338 4.91865C14.0338 3.36765 13.2418 2.43265 11.9328 2.43265C10.6128 2.43265 9.82082 3.36765 9.82082 4.91865C9.82082 6.48065 10.6128 7.41565 11.9328 7.41565C13.2418 7.41565 14.0338 6.45865 14.0338 4.91865ZM17.1014 5.94165V0.859649H18.8834V5.82065C18.8834 6.84365 19.4444 7.40465 20.4454 7.40465C21.4574 7.40465 22.0294 6.82165 22.0294 5.82065V0.859649H23.8114V5.94165C23.8114 7.87765 22.4914 9.13165 20.4454 9.13165C18.4104 9.13165 17.1014 7.88865 17.1014 5.94165ZM29.4715 8.99965H27.6125L30.5165 0.859649H32.2546L35.1475 8.99965H33.2555L32.6836 7.28365H30.0545L29.4715 8.99965ZM31.1546 4.04965L30.5716 5.78765H32.1776L31.5946 4.04965C31.5065 3.77465 31.4075 3.45565 31.3745 3.25765C31.3416 3.44465 31.2535 3.75265 31.1546 4.04965ZM37.8769 8.99965H36.0949V0.859649H39.2409C41.2209 0.859649 42.3429 1.81665 42.3429 3.49965C42.3429 4.55565 41.8919 5.30365 40.9899 5.76565L42.4199 8.99965H40.4729L39.2519 6.15065H37.8769V8.99965ZM37.8769 2.44365V4.58865H39.2299C40.0109 4.58865 40.4619 4.19265 40.4619 3.49965C40.4619 2.81765 40.0329 2.44365 39.2409 2.44365H37.8769ZM48.8382 8.99965H43.6682V0.859649H48.8382V2.50965H45.4502V4.10465H48.4532V5.66665H45.4502V7.34965H48.8382V8.99965ZM54.3182 8.99965H52.4592L55.3632 0.859649H57.1012L59.9942 8.99965H58.1022L57.5302 7.28365H54.9012L54.3182 8.99965ZM56.0012 4.04965L55.4182 5.78765H57.0242L56.4412 4.04965C56.3532 3.77465 56.2542 3.45565 56.2212 3.25765C56.1882 3.44465 56.1002 3.75265 56.0012 4.04965ZM67.1527 6.29365H65.6347V8.99965H63.8527V0.859649H67.1527C68.8137 0.859649 69.9247 1.94865 69.9247 3.57665C69.9247 5.20465 68.8137 6.29365 67.1527 6.29365ZM66.7567 2.44365H65.6347V4.70965H66.7567C67.6147 4.70965 68.0437 4.33565 68.0437 3.57665C68.0437 2.81765 67.6147 2.44365 66.7567 2.44365ZM72.832 8.99965H71.05V0.859649H74.196C76.176 0.859649 77.298 1.81665 77.298 3.49965C77.298 4.55565 76.847 5.30365 75.945 5.76565L77.375 8.99965H75.428L74.207 6.15065H72.832V8.99965ZM72.832 2.44365V4.58865H74.185C74.966 4.58865 75.417 4.19265 75.417 3.49965C75.417 2.81765 74.988 2.44365 74.196 2.44365H72.832ZM86.1472 4.91865C86.1472 7.40465 84.5082 9.13165 82.1432 9.13165C79.7892 9.13165 78.1722 7.41565 78.1722 4.92965C78.1722 2.44365 79.8002 0.716649 82.1542 0.716649C84.5192 0.716649 86.1472 2.43265 86.1472 4.91865ZM84.2662 4.91865C84.2662 3.36765 83.4742 2.43265 82.1652 2.43265C80.8452 2.43265 80.0532 3.36765 80.0532 4.91865C80.0532 6.48065 80.8452 7.41565 82.1652 7.41565C83.4742 7.41565 84.2662 6.45865 84.2662 4.91865ZM92.06 8.99965H90.3V0.859649H92.06L95.492 6.04065V0.859649H97.252V8.99965H95.492L92.06 3.82965V8.99965ZM106.471 4.91865C106.471 7.40465 104.832 9.13165 102.467 9.13165C100.113 9.13165 98.4965 7.41565 98.4965 4.92965C98.4965 2.44365 100.124 0.716649 102.478 0.716649C104.843 0.716649 106.471 2.43265 106.471 4.91865ZM104.59 4.91865C104.59 3.36765 103.798 2.43265 102.489 2.43265C101.169 2.43265 100.377 3.36765 100.377 4.91865C100.377 6.48065 101.169 7.41565 102.489 7.41565C103.798 7.41565 104.59 6.45865 104.59 4.91865ZM109.14 8.99965L106.698 0.859649H108.557L109.624 4.39065C109.767 4.87465 109.899 5.35865 110.031 6.16165C110.163 5.35865 110.295 4.89665 110.438 4.39065L111.439 0.859649H113.43L114.387 4.39065C114.519 4.88565 114.651 5.38065 114.794 6.16165C114.959 5.33665 115.08 4.88565 115.223 4.41265L116.312 0.859649H118.127L115.641 8.99965H113.903L112.418 3.65365L110.889 8.99965H109.14Z" fill="url(#paint0_linear_5608_129512)"/>
<defs>
<linearGradient id="paint0_linear_5608_129512" x1="34.277" y1="4.99965" x2="87.6473" y2="4.99965" gradientUnits="userSpaceOnUse">
<stop stop-color="#121224"/>
<stop offset="1" stop-color="#986406"/>
</linearGradient>
</defs>
</svg>
