<svg width="18" height="19" viewBox="0 0 18 19" fill="none" xmlns="http://www.w3.org/2000/svg">
<g clip-path="url(#clip0_672_15759)">
<path d="M11.321 16.6217C11.7567 16.6217 12.1137 16.2922 12.1743 15.8259C12.7733 11.6732 13.324 11.0951 17.2088 10.6412C17.6566 10.5853 18.0015 10.1998 18.0015 9.75225C18.0015 9.29843 17.6626 8.92543 17.2148 8.85705C13.3542 8.30376 12.8762 7.81886 12.1743 3.67233C12.0956 3.2123 11.7507 2.88281 11.321 2.88281C10.8793 2.88281 10.5284 3.2123 10.4557 3.67855C9.86878 7.82508 9.31813 8.40323 5.43937 8.85705C4.97949 8.91921 4.64062 9.29221 4.64062 9.75225C4.64062 10.1998 4.96738 10.5728 5.42727 10.6412C9.29393 11.207 9.76591 11.6856 10.4557 15.8322C10.5465 16.2984 10.8975 16.6217 11.321 16.6217Z" fill="url(#paint0_linear_672_15759)"/>
<path d="M2.92518 6.51589C3.11596 6.51589 3.27228 6.37162 3.29878 6.16746C3.56109 4.34908 3.80221 4.09593 5.50326 3.89721C5.69934 3.87271 5.85036 3.70394 5.85036 3.50795C5.85036 3.30923 5.70199 3.1459 5.50591 3.11596C3.81546 2.87369 3.60614 2.66137 3.29878 0.84571C3.26433 0.644273 3.11331 0.5 2.92518 0.5C2.73176 0.5 2.57808 0.644273 2.54629 0.848432C2.28927 2.66409 2.04816 2.91725 0.34975 3.11596C0.148379 3.14318 0 3.30651 0 3.50795C0 3.70394 0.14308 3.86727 0.344451 3.89721C2.03756 4.14492 2.24423 4.35453 2.54629 6.17018C2.58603 6.37434 2.73971 6.51589 2.92518 6.51589Z" fill="url(#paint1_linear_672_15759)"/>
<path d="M3.17658 17.8136C3.34706 17.8136 3.48676 17.6847 3.51044 17.5022C3.74485 15.8772 3.96033 15.651 5.48047 15.4734C5.65569 15.4515 5.79065 15.3007 5.79065 15.1255C5.79065 14.948 5.65806 14.802 5.48284 14.7752C3.97217 14.5587 3.78511 14.369 3.51044 12.7464C3.47966 12.5664 3.34469 12.4375 3.17658 12.4375C3.00373 12.4375 2.86639 12.5664 2.83798 12.7489C2.6083 14.3714 2.39283 14.5977 0.875053 14.7752C0.695098 14.7996 0.5625 14.9455 0.5625 15.1255C0.5625 15.3007 0.690362 15.4466 0.870317 15.4734C2.38336 15.6948 2.56805 15.8821 2.83798 17.5046C2.8735 17.6871 3.01083 17.8136 3.17658 17.8136Z" fill="url(#paint2_linear_672_15759)"/>
</g>
<defs>
<linearGradient id="paint0_linear_672_15759" x1="5.59815" y1="3.77584" x2="17.2872" y2="15.7005" gradientUnits="userSpaceOnUse">
<stop stop-color="#1F4BD5"/>
<stop offset="1" stop-color="#E680DF"/>
</linearGradient>
<linearGradient id="paint1_linear_672_15759" x1="0.419276" y1="0.891033" x2="5.53762" y2="6.11254" gradientUnits="userSpaceOnUse">
<stop stop-color="#1F4BD5"/>
<stop offset="1" stop-color="#E680DF"/>
</linearGradient>
<linearGradient id="paint2_linear_672_15759" x1="0.937184" y1="12.7869" x2="5.51117" y2="17.4531" gradientUnits="userSpaceOnUse">
<stop stop-color="#1F4BD5"/>
<stop offset="1" stop-color="#E680DF"/>
</linearGradient>
<clipPath id="clip0_672_15759">
<rect width="18" height="18" fill="white" transform="translate(0 0.5)"/>
</clipPath>
</defs>
</svg>
