<svg width="12" height="12" viewBox="0 0 12 12" fill="none" xmlns="http://www.w3.org/2000/svg">
<path d="M10.7554 5.67857L6.25891 10.2727C5.70806 10.8355 4.96095 11.1517 4.18193 11.1517C3.40291 11.1517 2.65579 10.8355 2.10494 10.2727C1.55409 9.70988 1.24463 8.94654 1.24463 8.1506C1.24463 7.35466 1.55409 6.59132 2.10494 6.02851L6.6014 1.43439C6.96864 1.05918 7.46671 0.848389 7.98606 0.848389C8.50541 0.848389 9.00348 1.05918 9.37072 1.43439C9.73795 1.8096 9.94426 2.31849 9.94426 2.84912C9.94426 3.37974 9.73795 3.88864 9.37072 4.26385L4.86936 8.85796C4.68574 9.04557 4.43671 9.15096 4.17703 9.15096C3.91736 9.15096 3.66832 9.04557 3.48471 8.85796C3.30109 8.67036 3.19793 8.41591 3.19793 8.1506C3.19793 7.88529 3.30109 7.63084 3.48471 7.44324L7.63867 3.20405" stroke="#BABED4" stroke-linecap="round" stroke-linejoin="round"/>
</svg>
