<svg width="18" height="18" viewBox="0 0 18 18" fill="none" xmlns="http://www.w3.org/2000/svg">
<path d="M15.7882 3.23765C15.396 2.84526 14.9303 2.53399 14.4178 2.32162C13.9053 2.10925 13.3559 1.99994 12.8011 1.99994C12.2463 1.99994 11.697 2.10925 11.1844 2.32162C10.6719 2.53399 10.2062 2.84526 9.81403 3.23765L9.00006 4.05161L8.1861 3.23765C7.39387 2.44542 6.31938 2.00035 5.199 2.00035C4.07862 2.00035 3.00413 2.44542 2.21191 3.23765C1.41968 4.02987 0.974609 5.10436 0.974609 6.22474C0.974609 7.34512 1.41968 8.41961 2.21191 9.21184L3.02587 10.0258L9.00006 16L14.9743 10.0258L15.7882 9.21184C16.1806 8.81963 16.4919 8.35396 16.7042 7.84142C16.9166 7.32889 17.0259 6.77953 17.0259 6.22474C17.0259 5.66995 16.9166 5.12059 16.7042 4.60806C16.4919 4.09552 16.1806 3.62985 15.7882 3.23765Z" stroke="#BCC5D3" stroke-width="1.45357" stroke-linecap="round" stroke-linejoin="round"/>
</svg>
