<svg width="24" height="24" viewBox="0 0 24 24" fill="none" xmlns="http://www.w3.org/2000/svg">
<path d="M21.5475 5.35852C21.0343 4.83534 20.4251 4.42031 19.7545 4.13715C19.084 3.85399 18.3653 3.70825 17.6394 3.70825C16.9136 3.70825 16.1949 3.85399 15.5243 4.13715C14.8538 4.42031 14.2445 4.83534 13.7314 5.35852L12.6665 6.4438L11.6016 5.35852C10.5651 4.30222 9.15933 3.7088 7.69354 3.7088C6.22774 3.7088 4.82198 4.30222 3.78551 5.35852C2.74903 6.41482 2.16675 7.84747 2.16675 9.3413C2.16675 10.8351 2.74903 12.2678 3.78551 13.3241L4.85042 14.4094L12.6665 22.3749L20.4825 14.4094L21.5475 13.3241C22.0608 12.8011 22.4681 12.1802 22.7459 11.4969C23.0237 10.8135 23.1667 10.081 23.1667 9.3413C23.1667 8.60158 23.0237 7.86911 22.7459 7.18573C22.4681 6.50235 22.0608 5.88146 21.5475 5.35852Z" stroke="white" stroke-width="1.5" stroke-linecap="round" stroke-linejoin="round"/>
</svg>
