<svg width="38" height="24" viewBox="0 0 38 24" fill="none" xmlns="http://www.w3.org/2000/svg">
<rect width="38" height="24" rx="12" fill="#505765"/>
<path d="M19.6018 3.59576C20.1677 3.08811 21.0675 3.48931 21.0675 4.24903V20.5984C21.0675 21.3586 20.1677 21.7598 19.6018 21.2522L15.4813 17.5535C15.0437 17.1605 14.4763 16.943 13.8881 16.9429H11.5271C10.8279 16.9429 10.1574 16.6652 9.66299 16.1708C9.16861 15.6764 8.89087 15.0059 8.89087 14.3067V10.5407C8.89087 9.08456 10.0709 7.90455 11.5271 7.90455H13.8881C14.4763 7.90444 15.0437 7.68699 15.4813 7.29396L19.6018 3.59576ZM19.8122 5.09362L16.3199 8.22893C15.6518 8.82845 14.7857 9.15999 13.8881 9.15988H11.5271C11.1608 9.15988 10.8096 9.30536 10.5506 9.56432C10.2917 9.82328 10.1462 10.1745 10.1462 10.5407V14.3067C10.1462 14.6729 10.2917 15.0242 10.5506 15.2831C10.8096 15.5421 11.1608 15.6876 11.5271 15.6876H13.8881C14.7858 15.6876 15.6519 16.0193 16.3199 16.619L19.8122 19.7548V5.09362ZM23.2599 9.59522C23.3181 9.53692 23.3873 9.49067 23.4635 9.45912C23.5397 9.42757 23.6213 9.41133 23.7037 9.41133C23.7862 9.41133 23.8678 9.42757 23.944 9.45912C24.0201 9.49067 24.0893 9.53692 24.1476 9.59522L26.0889 11.5365L28.0301 9.59522C28.088 9.53526 28.1572 9.48742 28.2338 9.45451C28.3104 9.42159 28.3927 9.40425 28.4761 9.4035C28.5594 9.40276 28.6421 9.41861 28.7192 9.45015C28.7963 9.48169 28.8664 9.52828 28.9254 9.58719C28.9843 9.64611 29.031 9.71617 29.0625 9.7933C29.0941 9.87043 29.11 9.95308 29.1093 10.0364C29.1086 10.1198 29.0913 10.2021 29.0585 10.2787C29.0256 10.3553 28.9778 10.4246 28.9179 10.4825L26.9766 12.4237L28.9179 14.3655C29.0322 14.4839 29.0954 14.6424 29.0939 14.807C29.0924 14.9716 29.0264 15.129 28.91 15.2453C28.7936 15.3617 28.6361 15.4276 28.4715 15.429C28.307 15.4304 28.1484 15.3671 28.0301 15.2527L26.0889 13.3115L24.1476 15.2527C24.0293 15.3671 23.8707 15.4304 23.7062 15.429C23.5416 15.4276 23.3842 15.3617 23.2677 15.2453C23.1513 15.129 23.0853 14.9716 23.0838 14.807C23.0823 14.6424 23.1456 14.4839 23.2599 14.3655L25.2011 12.4237L23.2599 10.4825C23.1423 10.3648 23.0762 10.2052 23.0762 10.0389C23.0762 9.87248 23.1423 9.71292 23.2599 9.59522Z" fill="#F2F2F2" stroke="#F2F2F2" stroke-width="0.3"/>
</svg>
