<svg width="15" height="16" viewBox="0 0 15 16" fill="none" xmlns="http://www.w3.org/2000/svg">
<g clip-path="url(#clip0_2136_51923)">
<path d="M8.15899 1.24047L8.15894 1.24044C7.95877 1.1239 7.73128 1.0625 7.49965 1.0625C7.26802 1.0625 7.04053 1.1239 6.84035 1.24044L6.84032 1.24045L1.49742 4.35029C1.4974 4.3503 1.49739 4.35031 1.49737 4.35032C1.49734 4.35034 1.49731 4.35036 1.49727 4.35038C1.38416 4.41632 1.29028 4.51073 1.22496 4.62421C1.15966 4.73769 1.12519 4.86628 1.125 4.9972L1.125 11C1.12508 11.1311 1.1595 11.2598 1.22485 11.3735C1.29016 11.487 1.38408 11.5815 1.49726 11.6475L8.15899 1.24047ZM8.15899 1.24047L13.5026 4.35029C13.6158 4.41624 13.7097 4.51068 13.775 4.62421C13.8404 4.73774 13.8748 4.86641 13.875 4.9974M8.15899 1.24047L13.875 4.9974M13.875 4.9974V11.0001C13.875 11.0002 13.875 11.0002 13.875 11.0002C13.875 11.1312 13.8406 11.2599 13.7754 11.3735C13.7101 11.487 13.6164 11.5815 13.5033 11.6476C13.5032 11.6476 13.5031 11.6477 13.503 11.6477L8.15988 14.7573L13.875 4.9974ZM6.84082 14.7573L1.49742 11.6476L6.84082 14.7573ZM7.50035 14.935C7.26875 14.935 7.04126 14.8738 6.84101 14.7574H8.1597C7.95944 14.8738 7.73196 14.935 7.50035 14.935Z" fill="#959EAD" stroke="#0B0B0B" stroke-width="0.75"/>
<path d="M1 4.5L7.5 8.28125M7.5 8.28125L13.5 5M7.5 8.28125V15.3125" stroke="#0B0B0B" stroke-width="0.75"/>
<path d="M7.34375 5.125C7.80974 5.125 8.1875 4.87316 8.1875 4.5625C8.1875 4.25184 7.80974 4 7.34375 4C6.87776 4 6.5 4.25184 6.5 4.5625C6.5 4.87316 6.87776 5.125 7.34375 5.125Z" fill="#0B0B0B"/>
<path d="M5.0625 9.6875C5.37316 9.6875 5.625 9.30974 5.625 8.84375C5.625 8.37776 5.37316 8 5.0625 8C4.75184 8 4.5 8.37776 4.5 8.84375C4.5 9.30974 4.75184 9.6875 5.0625 9.6875Z" fill="#0B0B0B"/>
<path d="M3.0625 10.6875C3.37316 10.6875 3.625 10.3097 3.625 9.84375C3.625 9.37776 3.37316 9 3.0625 9C2.75184 9 2.5 9.37776 2.5 9.84375C2.5 10.3097 2.75184 10.6875 3.0625 10.6875Z" fill="#0B0B0B"/>
<path d="M9.0625 10.6875C9.37316 10.6875 9.625 10.3097 9.625 9.84375C9.625 9.37776 9.37316 9 9.0625 9C8.75184 9 8.5 9.37776 8.5 9.84375C8.5 10.3097 8.75184 10.6875 9.0625 10.6875Z" fill="#0B0B0B"/>
<path d="M12.0625 8.6875C12.3732 8.6875 12.625 8.30974 12.625 7.84375C12.625 7.37776 12.3732 7 12.0625 7C11.7518 7 11.5 7.37776 11.5 7.84375C11.5 8.30974 11.7518 8.6875 12.0625 8.6875Z" fill="#0B0B0B"/>
<path d="M9.0625 12.6875C9.37316 12.6875 9.625 12.3097 9.625 11.8438C9.625 11.3778 9.37316 11 9.0625 11C8.75184 11 8.5 11.3778 8.5 11.8438C8.5 12.3097 8.75184 12.6875 9.0625 12.6875Z" fill="#0B0B0B"/>
<path d="M12.0625 10.6875C12.3732 10.6875 12.625 10.3097 12.625 9.84375C12.625 9.37776 12.3732 9 12.0625 9C11.7518 9 11.5 9.37776 11.5 9.84375C11.5 10.3097 11.7518 10.6875 12.0625 10.6875Z" fill="#0B0B0B"/>
</g>
<defs>
<clipPath id="clip0_2136_51923">
<rect width="14" height="16" fill="white" transform="translate(0.5)"/>
</clipPath>
</defs>
</svg>
