<svg width="38" height="24" viewBox="0 0 38 24" fill="none" xmlns="http://www.w3.org/2000/svg">
<rect width="38" height="24" rx="12" fill="#505765"/>
<path d="M19.2991 3.05981C19.865 2.55216 20.7648 2.95336 20.7648 3.71308V20.0625C20.7648 20.8227 19.865 21.2239 19.2991 20.7162L15.1786 17.0175C14.741 16.6245 14.1736 16.4071 13.5853 16.407H11.2243C10.5252 16.407 9.85464 16.1292 9.36026 15.6348C8.86588 15.1405 8.58813 14.4699 8.58813 13.7708V10.0048C8.58813 8.54861 9.76814 7.3686 11.2243 7.3686H13.5853C14.1736 7.36849 14.741 7.15104 15.1786 6.75801L19.2991 3.05981ZM19.5095 4.55767L16.0172 7.69298C15.3491 8.2925 14.483 8.62404 13.5853 8.62393H11.2243C10.8581 8.62393 10.5069 8.76941 10.2479 9.02837C9.98895 9.28733 9.84346 9.63856 9.84346 10.0048V13.7708C9.84346 14.137 9.98895 14.4882 10.2479 14.7472C10.5069 15.0061 10.8581 15.1516 11.2243 15.1516H13.5853C14.4831 15.1517 15.3491 15.4834 16.0172 16.0831L19.5095 19.2189V4.55767Z" fill="#F2F2F2" stroke="#F2F2F2" stroke-width="0.4"/>
<path d="M22.9263 7.80695C23.2119 8.06201 23.4708 8.34764 23.6981 8.6589C24.3648 9.57171 24.7596 10.7047 24.7596 11.9319C24.7596 13.1486 24.3716 14.2725 23.7154 15.1812C23.484 15.5017 23.2192 15.7954 22.9263 16.0569" stroke="#F2F2F2" stroke-width="2" stroke-linecap="round" stroke-linejoin="round"/>
<path d="M23.9512 19.8087C26.6314 18.209 28.4264 15.2801 28.4264 11.9319C28.4264 8.63584 26.6867 5.74604 24.0754 4.13068" stroke="#F2F2F2" stroke-width="2" stroke-linecap="round"/>
</svg>
