<svg width="24" height="21" viewBox="0 0 24 21" fill="none" xmlns="http://www.w3.org/2000/svg">
<path d="M12.3263 1.24709C12.9436 0.693285 13.9253 1.13096 13.9253 1.95975V19.7954C13.9253 20.6248 12.9436 21.0625 12.3263 20.5087L7.8312 16.4737C7.35379 16.045 6.73478 15.8077 6.0931 15.8076H3.51744C2.75472 15.8076 2.02324 15.5046 1.48392 14.9653C0.944591 14.426 0.641602 13.6945 0.641602 12.9318V8.82343C0.641602 7.23487 1.92888 5.94758 3.51744 5.94758H6.0931C6.73478 5.94747 7.35379 5.71024 7.8312 5.28148L12.3263 1.24709ZM12.5558 2.88112L8.746 6.30145C8.01715 6.95547 7.07237 7.31716 6.0931 7.31703H3.51744C3.11792 7.31703 2.73477 7.47574 2.45226 7.75824C2.16976 8.04075 2.01105 8.42391 2.01105 8.82343V12.9318C2.01105 13.3313 2.16976 13.7144 2.45226 13.997C2.73477 14.2795 3.11792 14.4382 3.51744 14.4382H6.0931C7.07244 14.4382 8.01723 14.8001 8.746 15.4543L12.5558 18.8752V2.88112Z" fill="#F2F2F2" stroke="#F2F2F2" stroke-width="0.4"/>
<path d="M16.2832 6.42578C16.5948 6.70403 16.8773 7.01563 17.1253 7.35518C17.8526 8.35098 18.2832 9.58693 18.2832 10.9258C18.2832 12.253 17.86 13.4791 17.1441 14.4704C16.8916 14.82 16.6028 15.1404 16.2832 15.4258" stroke="#F2F2F2" stroke-width="2" stroke-linecap="round" stroke-linejoin="round"/>
<path d="M17.4014 19.5186C20.3252 17.7734 22.2834 14.5783 22.2834 10.9258C22.2834 7.33 20.3856 4.1775 17.5369 2.41528" stroke="#F2F2F2" stroke-width="2" stroke-linecap="round"/>
</svg>
