<svg width="24" height="24" viewBox="0 0 24 24" fill="none" xmlns="http://www.w3.org/2000/svg">
<path d="M12.6564 2.83181C13.2737 2.278 14.2553 2.71568 14.2553 3.54447V21.3802C14.2553 22.2095 13.2737 22.6472 12.6564 22.0934L8.16128 18.0584C7.68387 17.6297 7.06486 17.3924 6.42318 17.3923H3.84752C3.0848 17.3923 2.35332 17.0893 1.81399 16.55C1.27467 16.0107 0.97168 15.2792 0.97168 14.5165V10.4081C0.97168 8.81958 2.25896 7.5323 3.84752 7.5323H6.42318C7.06486 7.53219 7.68387 7.29496 8.16128 6.8662L12.6564 2.83181ZM12.8859 4.46583L9.07607 7.88617C8.34723 8.54019 7.40244 8.90187 6.42318 8.90175H3.84752C3.448 8.90175 3.06484 9.06046 2.78234 9.34296C2.49984 9.62547 2.34113 10.0086 2.34113 10.4081V14.5165C2.34113 14.916 2.49984 15.2992 2.78234 15.5817C3.06484 15.8642 3.448 16.0229 3.84752 16.0229H6.42318C7.40252 16.0229 8.34731 16.3848 9.07607 17.039L12.8859 20.4599V4.46583ZM16.6469 9.37668C16.7105 9.31307 16.786 9.26262 16.8691 9.2282C16.9522 9.19378 17.0412 9.17606 17.1312 9.17606C17.2211 9.17606 17.3102 9.19378 17.3932 9.2282C17.4763 9.26262 17.5518 9.31307 17.6154 9.37668L19.7331 11.4944L21.8508 9.37668C21.914 9.31126 21.9895 9.25907 22.073 9.22317C22.1566 9.18726 22.2464 9.16834 22.3373 9.16753C22.4283 9.16671 22.5184 9.18401 22.6026 9.21841C22.6867 9.25282 22.7632 9.30364 22.8275 9.36791C22.8918 9.43218 22.9427 9.50862 22.9771 9.59276C23.0116 9.6769 23.0289 9.76706 23.0282 9.85798C23.0274 9.94889 23.0086 10.0387 22.9727 10.1223C22.9368 10.2058 22.8847 10.2814 22.8193 10.3446L20.7016 12.4623L22.8193 14.5806C22.944 14.7098 23.013 14.8827 23.0114 15.0623C23.0097 15.2418 22.9377 15.4135 22.8107 15.5404C22.6837 15.6674 22.5119 15.7393 22.3324 15.7408C22.1529 15.7423 21.9799 15.6733 21.8508 15.5485L19.7331 13.4308L17.6154 15.5485C17.4863 15.6733 17.3134 15.7423 17.1338 15.7408C16.9543 15.7393 16.7825 15.6674 16.6555 15.5404C16.5286 15.4135 16.4565 15.2418 16.4549 15.0623C16.4533 14.8827 16.5222 14.7098 16.6469 14.5806L18.7646 12.4623L16.6469 10.3446C16.5187 10.2162 16.4466 10.0421 16.4466 9.86064C16.4466 9.67914 16.5187 9.50507 16.6469 9.37668Z" fill="#F2F2F2" stroke="#F2F2F2" stroke-width="0.3"/>
</svg>
