<svg width="18" height="14" viewBox="0 0 18 14" fill="none" xmlns="http://www.w3.org/2000/svg">
<path d="M16.5439 6.3192C16.712 6.57287 16.8419 6.7866 16.9325 6.9419C16.8419 7.09719 16.712 7.31093 16.5439 7.56459C16.1789 8.11528 15.638 8.8483 14.9349 9.57921C13.5187 11.0513 11.5108 12.4485 9.00298 12.4485C6.49512 12.4485 4.48725 11.0513 3.07109 9.57921C2.36793 8.8483 1.82704 8.11528 1.46209 7.56459C1.29397 7.31092 1.16401 7.0972 1.07349 6.9419C1.16401 6.7866 1.29397 6.57288 1.46209 6.3192C1.82704 5.76852 2.36793 5.0355 3.07109 4.30459C4.48725 2.83254 6.49512 1.43533 9.00298 1.43533C11.5108 1.43533 13.5187 2.83254 14.9349 4.30459C15.638 5.0355 16.1789 5.76852 16.5439 6.3192Z" stroke="#647187" stroke-width="1.2" stroke-linecap="round" stroke-linejoin="round"/>
<path d="M9.00481 9.2324C10.2695 9.2324 11.2948 8.20714 11.2948 6.94243C11.2948 5.67772 10.2695 4.65247 9.00481 4.65247C7.7401 4.65247 6.71484 5.67772 6.71484 6.94243C6.71484 8.20714 7.7401 9.2324 9.00481 9.2324Z" stroke="#647187" stroke-width="1.2" stroke-linecap="round" stroke-linejoin="round"/>
</svg>
