<svg width="16" height="16" viewBox="0 0 16 16" fill="none" xmlns="http://www.w3.org/2000/svg">
<path d="M6 7V6H10V7H6ZM2 4.5C2 3.83696 2.26339 3.20107 2.73223 2.73223C3.20107 2.26339 3.83696 2 4.5 2H11.5C12.163 2 12.7989 2.26339 13.2678 2.73223C13.7366 3.20107 14 3.83696 14 4.5V11.5C14 12.163 13.7366 12.7989 13.2678 13.2678C12.7989 13.7366 12.163 14 11.5 14H4.5C3.83696 14 3.20107 13.7366 2.73223 13.2678C2.26339 12.7989 2 12.163 2 11.5V4.5ZM5.5 5C5.36739 5 5.24021 5.05268 5.14645 5.14645C5.05268 5.24021 5 5.36739 5 5.5V7.5C5 7.63261 5.05268 7.75979 5.14645 7.85355C5.24021 7.94732 5.36739 8 5.5 8H10.5C10.6326 8 10.7598 7.94732 10.8536 7.85355C10.9473 7.75979 11 7.63261 11 7.5V5.5C11 5.36739 10.9473 5.24021 10.8536 5.14645C10.7598 5.05268 10.6326 5 10.5 5H5.5Z" fill="#F2F2F2"/>
</svg>
