<svg xmlns="http://www.w3.org/2000/svg" width="24" height="24" fill="none" xmlns:v="https://vecta.io/nano"><path d="M21.548 5.359a5.52 5.52 0 0 0-1.793-1.221c-.671-.283-1.389-.429-2.115-.429s-1.444.146-2.115.429a5.52 5.52 0 0 0-1.793 1.221l-1.065 1.085-1.065-1.085c-1.037-1.056-2.442-1.65-3.908-1.65s-2.872.593-3.908 1.65-1.619 2.489-1.619 3.983.582 2.926 1.619 3.983l1.065 1.085 7.816 7.966 7.816-7.966 1.065-1.085a5.64 5.64 0 0 0 1.198-1.827c.278-.683.421-1.416.421-2.156s-.143-1.472-.421-2.156a5.64 5.64 0 0 0-1.198-1.827z" stroke="#fff" stroke-width="1.5" stroke-linejoin="round"/></svg>