<svg xmlns="http://www.w3.org/2000/svg" width="25" height="25" fill="none" xmlns:v="https://vecta.io/nano"><path d="M22.044 5.482c-.525-.535-1.148-.96-1.834-1.249a5.56 5.56 0 0 0-4.328 0c-.686.29-1.309.714-1.834 1.249l-1.089 1.11-1.089-1.11a5.6 5.6 0 0 0-3.998-1.688 5.6 5.6 0 0 0-3.998 1.688 5.82 5.82 0 0 0-1.656 4.074 5.82 5.82 0 0 0 1.656 4.074l1.089 1.11 7.996 8.149 7.996-8.149 1.089-1.11a5.77 5.77 0 0 0 1.226-1.869c.284-.699.431-1.448.431-2.205s-.146-1.506-.431-2.205a5.77 5.77 0 0 0-1.226-1.869z" fill="#f04141" stroke="#f04141" stroke-width="1.535" stroke-linejoin="round"/></svg>