<svg width="38" height="35" viewBox="0 0 38 35" fill="none" xmlns="http://www.w3.org/2000/svg">
<g opacity="0.6" filter="url(#filter0_f_191_59472)">
<path d="M29.5723 7.96461C28.9614 7.34177 28.2361 6.84769 27.4378 6.5106C26.6396 6.1735 25.7839 6 24.9199 6C24.0558 6 23.2001 6.1735 22.4019 6.5106C21.6036 6.84769 20.8783 7.34177 20.2674 7.96461L18.9997 9.25661L17.7319 7.96461C16.498 6.70711 14.8245 6.00065 13.0795 6.00065C11.3345 6.00065 9.66099 6.70711 8.42709 7.96461C7.1932 9.2221 6.5 10.9276 6.5 12.706C6.5 14.4844 7.1932 16.1899 8.42709 17.4474L9.69485 18.7394L18.9997 28.2222L28.3045 18.7394L29.5723 17.4474C30.1834 16.8249 30.6682 16.0857 30.999 15.2722C31.3298 14.4586 31.5 13.5866 31.5 12.706C31.5 11.8254 31.3298 10.9534 30.999 10.1399C30.6682 9.32631 30.1834 8.58715 29.5723 7.96461Z" stroke="#474D6A" stroke-width="1.94211" stroke-linecap="round" stroke-linejoin="round"/>
</g>
<path d="M29.5723 7.96461C28.9614 7.34177 28.2361 6.84769 27.4378 6.5106C26.6396 6.1735 25.7839 6 24.9199 6C24.0558 6 23.2001 6.1735 22.4019 6.5106C21.6036 6.84769 20.8783 7.34177 20.2674 7.96461L18.9997 9.25661L17.7319 7.96461C16.498 6.70711 14.8245 6.00065 13.0795 6.00065C11.3345 6.00065 9.66099 6.70711 8.42709 7.96461C7.1932 9.2221 6.5 10.9276 6.5 12.706C6.5 14.4844 7.1932 16.1899 8.42709 17.4474L9.69485 18.7394L18.9997 28.2222L28.3045 18.7394L29.5723 17.4474C30.1834 16.8249 30.6682 16.0857 30.999 15.2722C31.3298 14.4586 31.5 13.5866 31.5 12.706C31.5 11.8254 31.3298 10.9534 30.999 10.1399C30.6682 9.32631 30.1834 8.58715 29.5723 7.96461Z" fill="#F04141" stroke="#F04141" stroke-width="1.94211" stroke-linecap="round" stroke-linejoin="round"/>
<defs>
<filter id="filter0_f_191_59472" x="0.528809" y="0.0288086" width="36.9424" height="34.1646" filterUnits="userSpaceOnUse" color-interpolation-filters="sRGB">
<feFlood flood-opacity="0" result="BackgroundImageFix"/>
<feBlend mode="normal" in="SourceGraphic" in2="BackgroundImageFix" result="shape"/>
<feGaussianBlur stdDeviation="2.5" result="effect1_foregroundBlur_191_59472"/>
</filter>
</defs>
</svg>
