<svg width="31" height="34" viewBox="0 0 31 34" fill="none" xmlns="http://www.w3.org/2000/svg">
<g opacity="0.6" filter="url(#filter0_f_210_90955)">
<path d="M25.1033 29.348L15.4994 22.4881L5.89551 29.348V7.39631C5.89551 6.66856 6.1846 5.97063 6.6992 5.45603C7.21379 4.94144 7.91173 4.65234 8.63947 4.65234H22.3593C23.087 4.65234 23.785 4.94144 24.2996 5.45603C24.8142 5.97063 25.1033 6.66856 25.1033 7.39631V29.348Z" stroke="#474D6A" stroke-width="2.32143" stroke-linecap="round" stroke-linejoin="round"/>
</g>
<path d="M25.1033 29.348L15.4994 22.4881L5.89551 29.348V7.39631C5.89551 6.66856 6.1846 5.97063 6.6992 5.45603C7.21379 4.94144 7.91173 4.65234 8.63947 4.65234H22.3593C23.087 4.65234 23.785 4.94144 24.2996 5.45603C24.8142 5.97063 25.1033 6.66856 25.1033 7.39631V29.348Z" stroke="white" stroke-width="2.32143" stroke-linecap="round" stroke-linejoin="round"/>
<defs>
<filter id="filter0_f_210_90955" x="-2.3" y="-0.8" width="35.6" height="35.6" filterUnits="userSpaceOnUse" color-interpolation-filters="sRGB">
<feFlood flood-opacity="0" result="BackgroundImageFix"/>
<feBlend mode="normal" in="SourceGraphic" in2="BackgroundImageFix" result="shape"/>
<feGaussianBlur stdDeviation="1.4" result="effect1_foregroundBlur_210_90955"/>
</filter>
</defs>
</svg>
