<svg width="24" height="25" viewBox="0 0 24 25" fill="none" xmlns="http://www.w3.org/2000/svg">
<path d="M14.43 19.327C14.24 19.327 14.05 19.257 13.9 19.107C13.61 18.817 13.61 18.337 13.9 18.047L19.44 12.507L13.9 6.96695C13.61 6.67695 13.61 6.19695 13.9 5.90695C14.19 5.61695 14.67 5.61695 14.96 5.90695L21.03 11.977C21.32 12.267 21.32 12.747 21.03 13.037L14.96 19.107C14.81 19.257 14.62 19.327 14.43 19.327Z" fill="white"/>
<path d="M20.33 13.2568H3.5C3.09 13.2568 2.75 12.9168 2.75 12.5068C2.75 12.0968 3.09 11.7568 3.5 11.7568H20.33C20.74 11.7568 21.08 12.0968 21.08 12.5068C21.08 12.9168 20.74 13.2568 20.33 13.2568Z" fill="white"/>
</svg>
