<svg width="40" height="41" viewBox="0 0 40 41" fill="none" xmlns="http://www.w3.org/2000/svg">
<rect y="0.810913" width="40" height="40" rx="20" fill="url(#paint0_linear_6975_2858)"/>
<path d="M22.3056 27.8C22.3056 27.9105 22.3951 28 22.5056 28H24.8333C26.03 28 27 27.0121 27 25.7935V18.1485C27 17.4107 26.6379 16.7218 26.0352 16.3126L21.7019 13.3706C20.9741 12.8765 20.0259 12.8765 19.2981 13.3706L14.9648 16.3126C14.3621 16.7218 14 17.4107 14 18.1485V25.7935C14 27.0121 14.97 28 16.1667 28H18.4944C18.6049 28 18.6944 27.9105 18.6944 27.8V24.3225C18.6944 23.5101 19.3411 22.8515 20.1389 22.8515H20.8611C21.6589 22.8515 22.3056 23.5101 22.3056 24.3225V27.8Z" fill="url(#paint1_linear_6975_2858)"/>
<defs>
<linearGradient id="paint0_linear_6975_2858" x1="20" y1="-8.41986" x2="20" y2="40.8109" gradientUnits="userSpaceOnUse">
<stop stop-color="white"/>
<stop offset="1" stop-color="#EFEDFF"/>
</linearGradient>
<linearGradient id="paint1_linear_6975_2858" x1="20.5" y1="13" x2="20.5" y2="28" gradientUnits="userSpaceOnUse">
<stop stop-color="#8951FF"/>
<stop offset="1" stop-color="#523099"/>
</linearGradient>
</defs>
</svg>
