<svg width="41" height="40" viewBox="0 0 41 40" fill="none" xmlns="http://www.w3.org/2000/svg">
<g clip-path="url(#clip0_5099_856)">
<path d="M20.5012 11.2101C19.8272 11.2101 19.1809 11.4779 18.7043 11.9545C18.2277 12.431 17.96 13.0774 17.96 13.7514V20.5281C17.96 21.202 18.2277 21.8484 18.7043 22.325C19.1809 22.8016 19.8272 23.0693 20.5012 23.0693C21.1752 23.0693 21.8216 22.8016 22.2981 22.325C22.7747 21.8484 23.0425 21.202 23.0425 20.5281V13.7514C23.0425 13.0774 22.7747 12.431 22.2981 11.9545C21.8216 11.4779 21.1752 11.2101 20.5012 11.2101Z" stroke="white" stroke-width="1.11111" stroke-linecap="round" stroke-linejoin="round"/>
<path d="M26.4309 18.4708V20.165C26.4309 21.7376 25.8062 23.2458 24.6942 24.3578C23.5822 25.4699 22.074 26.0946 20.5014 26.0946C18.9287 26.0946 17.4205 25.4699 16.3085 24.3578C15.1965 23.2458 14.5718 21.7376 14.5718 20.165V18.4708" stroke="white" stroke-width="1.11111" stroke-linecap="round" stroke-linejoin="round"/>
<path d="M20.5015 26.0946V29.4829" stroke="white" stroke-width="1.11111" stroke-linecap="round" stroke-linejoin="round"/>
<path d="M17.1128 29.483H23.8895" stroke="white" stroke-width="1.11111" stroke-linecap="round" stroke-linejoin="round"/>
</g>
<defs>
<clipPath id="clip0_5099_856">
<rect width="20.33" height="20.33" fill="white" transform="translate(10.3364 10)"/>
</clipPath>
</defs>
</svg>
