<svg width="40" height="41" viewBox="0 0 40 41" fill="none" xmlns="http://www.w3.org/2000/svg">
<rect y="0.811035" width="40" height="40" rx="20" fill="url(#paint0_linear_5099_829)"/>
<path d="M19.9998 12.6796C19.3878 12.6796 18.8008 12.9228 18.368 13.3555C17.9353 13.7883 17.6921 14.3753 17.6921 14.9873V21.1412C17.6921 21.7532 17.9353 22.3402 18.368 22.773C18.8008 23.2057 19.3878 23.4489 19.9998 23.4489C20.6119 23.4489 21.1988 23.2057 21.6316 22.773C22.0644 22.3402 22.3075 21.7532 22.3075 21.1412V14.9873C22.3075 14.3753 22.0644 13.7883 21.6316 13.3555C21.1988 12.9228 20.6119 12.6796 19.9998 12.6796Z" fill="url(#paint1_linear_5099_829)"/>
<path d="M25.3842 19.2729V20.8114C25.3842 22.2395 24.8169 23.6091 23.8071 24.6189C22.7973 25.6287 21.4277 26.196 19.9996 26.196C18.5715 26.196 17.2019 25.6287 16.1921 24.6189C15.1823 23.6091 14.615 22.2395 14.615 20.8114V19.2729" stroke="#8951FF" stroke-width="1.15385" stroke-linecap="round" stroke-linejoin="round"/>
<path d="M19.9998 26.196V29.273" stroke="#8951FF" stroke-width="1.15385" stroke-linecap="round" stroke-linejoin="round"/>
<path d="M16.9226 29.2729H23.0765" stroke="#8951FF" stroke-width="1.15385" stroke-linecap="round" stroke-linejoin="round"/>
<defs>
<linearGradient id="paint0_linear_5099_829" x1="20" y1="-8.41973" x2="20" y2="40.811" gradientUnits="userSpaceOnUse">
<stop stop-color="white"/>
<stop offset="1" stop-color="#EFEDFF"/>
</linearGradient>
<linearGradient id="paint1_linear_5099_829" x1="19.9998" y1="12.6797" x2="19.9998" y2="23.4489" gradientUnits="userSpaceOnUse">
<stop stop-color="#8951FF"/>
<stop offset="1" stop-color="#523099"/>
</linearGradient>
</defs>
</svg>
