<svg width="41" height="40" viewBox="0 0 41 40" fill="none" xmlns="http://www.w3.org/2000/svg">
<path d="M27.0864 12H23.3364C22.9386 12 22.5571 12.158 22.2758 12.4393C21.9945 12.7206 21.8364 13.1022 21.8364 13.5V28.5C21.8364 28.8978 21.9945 29.2794 22.2758 29.5607C22.5571 29.842 22.9386 30 23.3364 30H27.0864C27.4843 30 27.8658 29.842 28.1471 29.5607C28.4284 29.2794 28.5864 28.8978 28.5864 28.5V13.5C28.5864 13.1022 28.4284 12.7206 28.1471 12.4393C27.8658 12.158 27.4843 12 27.0864 12ZM27.0864 28.5H23.3364V13.5H27.0864V28.5ZM17.3364 12H13.5864C13.1886 12 12.8071 12.158 12.5258 12.4393C12.2445 12.7206 12.0864 13.1022 12.0864 13.5V28.5C12.0864 28.8978 12.2445 29.2794 12.5258 29.5607C12.8071 29.842 13.1886 30 13.5864 30H17.3364C17.7343 30 18.1158 29.842 18.3971 29.5607C18.6784 29.2794 18.8364 28.8978 18.8364 28.5V13.5C18.8364 13.1022 18.6784 12.7206 18.3971 12.4393C18.1158 12.158 17.7343 12 17.3364 12ZM17.3364 28.5H13.5864V13.5H17.3364V28.5Z" fill="#275DF5"/>
</svg>
