<svg width="17" height="15" viewBox="0 0 17 15" fill="none" xmlns="http://www.w3.org/2000/svg">
<rect x="0.696777" y="3.9668" width="14.9226" height="10.0331" rx="0.960931" stroke="#FFF94E" stroke-width="1.3" stroke-linecap="round" stroke-linejoin="round"/>
<path fill-rule="evenodd" clip-rule="evenodd" d="M0.696777 4.92773C0.696777 4.39702 1.127 3.9668 1.65771 3.9668H14.6584C15.1891 3.9668 15.6194 4.39702 15.6194 4.92773V6.50306C15.6194 6.93713 15.3291 7.31562 14.9055 7.41025C13.7053 7.67832 11.1412 8.16602 8.37125 8.16602C5.56231 8.16602 2.73454 7.6645 1.43457 7.39906C0.99943 7.31021 0.696777 6.92555 0.696777 6.48143V4.92773Z" stroke="#FFF94E" stroke-width="1.3" stroke-linecap="round" stroke-linejoin="round"/>
<path d="M11.1424 4.25252V2.17138C11.1424 1.64067 10.7122 1.21045 10.1814 1.21045L6.13427 1.21045C5.60356 1.21045 5.17334 1.64067 5.17334 2.17138V4.25252" stroke="#FFF94E" stroke-width="1.3" stroke-linejoin="round"/>
</svg>
