<svg width="40" height="40" viewBox="0 0 40 40" fill="none" xmlns="http://www.w3.org/2000/svg">
<rect width="40" height="40" rx="20" fill="white"/>
<path d="M10.0645 12.543V18.5042H16.0257" stroke="#121224" stroke-width="1.5" stroke-linecap="round" stroke-linejoin="round"/>
<path d="M12.5583 23.4719C13.2025 25.3004 14.4235 26.87 16.0373 27.9442C17.6511 29.0184 19.5704 29.539 21.5058 29.4276C23.4413 29.3162 25.2881 28.5789 26.7681 27.3266C28.248 26.0743 29.2809 24.375 29.711 22.4846C30.1412 20.5943 29.9454 18.6154 29.1531 16.846C28.3607 15.0767 27.0148 13.6127 25.3182 12.6748C23.6215 11.7368 21.666 11.3757 19.7462 11.6458C17.8265 11.9159 16.0465 12.8026 14.6745 14.1723L10.0645 18.5041" stroke="#121224" stroke-width="1.5" stroke-linecap="round" stroke-linejoin="round"/>
</svg>