<svg width="293" height="132" viewBox="0 0 293 132" fill="none" xmlns="http://www.w3.org/2000/svg">
<rect width="180" height="282.75" rx="12" fill="white"/>
<path d="M16.5375 23H15.6075V17.5175H16.5375L18.3075 21.8825L20.0775 17.5175H21.0225V23H20.0925V21.3125C20.0925 20.21 20.0925 19.8875 20.145 19.4975L18.75 23H17.865L16.4775 19.505C16.53 19.835 16.5375 20.3525 16.5375 21.035V23ZM27.9884 20.255C27.9884 21.92 26.8934 23.09 25.3184 23.09C23.7509 23.09 22.6709 21.9275 22.6709 20.255C22.6709 18.59 23.7584 17.42 25.3259 17.42C26.8934 17.42 27.9884 18.5825 27.9884 20.255ZM26.9759 20.255C26.9759 19.085 26.3309 18.3425 25.3259 18.3425C24.3209 18.3425 23.6759 19.085 23.6759 20.255C23.6759 21.425 24.3209 22.1675 25.3259 22.1675C26.3309 22.1675 26.9759 21.41 26.9759 20.255ZM30.5769 23H29.6319V17.5175H30.5844L33.1569 21.4025V17.5175H34.1019V23H33.1569L30.5769 19.115V23ZM35.5855 18.4025V17.5175H39.7555V18.4025H38.1505V23H37.1905V18.4025H35.5855ZM42.1993 23H41.2393V17.5175H42.1993V19.7825H44.6293V17.5175H45.5893V23H44.6293V20.675H42.1993V23ZM48.5157 17.5175V22.115H50.8107V23H47.5557V17.5175H48.5157ZM53.0901 20.84L51.2376 17.5175H52.3101L53.3901 19.5125C53.4726 19.6625 53.5251 19.7825 53.5851 19.9175C53.6526 19.7825 53.6826 19.6925 53.7801 19.5125L54.8526 17.5175H55.8951L54.0501 20.84V23H53.0901V20.84ZM61.0263 23H60.0963V17.5175H61.0263L62.7963 21.8825L64.5663 17.5175H65.5113V23H64.5813V21.3125C64.5813 20.21 64.5813 19.8875 64.6338 19.4975L63.2388 23H62.3538L60.9663 19.505C61.0188 19.835 61.0263 20.3525 61.0263 21.035V23ZM68.4347 17.5175V23H67.4747V17.5175H68.4347ZM71.36 17.5175V22.115H73.655V23H70.4V17.5175H71.36ZM78.5906 23H75.1856V17.5175H78.5906V18.4025H76.1456V19.8125H78.3356V20.66H76.1456V22.115H78.5906V23ZM80.0664 19.0475C80.0664 18.0875 80.8614 17.42 82.0164 17.42C83.1264 17.42 83.8314 18.035 83.8614 19.025H82.9014C82.8789 18.5525 82.5414 18.275 82.0014 18.275C81.4089 18.275 81.0264 18.56 81.0264 19.0175C81.0264 19.4075 81.2364 19.625 81.6939 19.73L82.5564 19.9175C83.4939 20.12 83.9514 20.6 83.9514 21.4175C83.9514 22.4375 83.1564 23.0975 81.9489 23.0975C80.7789 23.0975 80.0139 22.475 79.9914 21.4925H80.9514C80.9589 21.9575 81.3339 22.235 81.9489 22.235C82.5864 22.235 82.9914 21.9575 82.9914 21.5C82.9914 21.1325 82.8039 20.915 82.3539 20.8175L81.4839 20.6225C80.5539 20.42 80.0664 19.8875 80.0664 19.0475ZM85.0167 18.4025V17.5175H89.1867V18.4025H87.5817V23H86.6217V18.4025H85.0167ZM95.4533 20.255C95.4533 21.92 94.3583 23.09 92.7833 23.09C91.2158 23.09 90.1358 21.9275 90.1358 20.255C90.1358 18.59 91.2233 17.42 92.7908 17.42C94.3583 17.42 95.4533 18.5825 95.4533 20.255ZM94.4408 20.255C94.4408 19.085 93.7958 18.3425 92.7908 18.3425C91.7858 18.3425 91.1408 19.085 91.1408 20.255C91.1408 21.425 91.7858 22.1675 92.7908 22.1675C93.7958 22.1675 94.4408 21.41 94.4408 20.255ZM98.0418 23H97.0968V17.5175H98.0493L100.622 21.4025V17.5175H101.567V23H100.622L98.0418 19.115V23ZM106.935 23H103.53V17.5175H106.935V18.4025H104.49V19.8125H106.68V20.66H104.49V22.115H106.935V23ZM108.411 19.0475C108.411 18.0875 109.206 17.42 110.361 17.42C111.471 17.42 112.176 18.035 112.206 19.025H111.246C111.224 18.5525 110.886 18.275 110.346 18.275C109.754 18.275 109.371 18.56 109.371 19.0175C109.371 19.4075 109.581 19.625 110.039 19.73L110.901 19.9175C111.839 20.12 112.296 20.6 112.296 21.4175C112.296 22.4375 111.501 23.0975 110.294 23.0975C109.124 23.0975 108.359 22.475 108.336 21.4925H109.296C109.304 21.9575 109.679 22.235 110.294 22.235C110.931 22.235 111.336 21.9575 111.336 21.5C111.336 21.1325 111.149 20.915 110.699 20.8175L109.829 20.6225C108.899 20.42 108.411 19.8875 108.411 19.0475Z" fill="#8951FF"/>
<path d="M18 42.25L18 191.5" stroke="#FDAA29" stroke-width="0.75" stroke-linecap="round"/>
<circle cx="18" cy="44.1528" r="3.75" fill="#FDAA29"/>
<circle cx="18" cy="89.1528" r="3.75" fill="#FDAA29"/>
<path d="M36.8089 40.3245V46.761H40.0219V48H35.4649V40.3245H36.8089ZM43.1437 48.1365C41.6002 48.1365 40.5187 47.013 40.5187 45.4065C40.5187 43.779 41.5792 42.6555 43.1017 42.6555C44.6557 42.6555 45.6427 43.695 45.6427 45.312V45.7005L41.7367 45.711C41.8312 46.6245 42.3142 47.0865 43.1647 47.0865C43.8682 47.0865 44.3302 46.8135 44.4772 46.32H45.6637C45.4432 47.454 44.4982 48.1365 43.1437 48.1365ZM43.1122 43.7055C42.3562 43.7055 41.8942 44.115 41.7682 44.892H44.3722C44.3722 44.178 43.8787 43.7055 43.1122 43.7055ZM47.9124 48L45.8544 42.813H47.2194L48.1224 45.1965C48.3429 45.816 48.5214 46.3515 48.5844 46.635C48.6579 46.3095 48.8469 45.7635 49.0674 45.1965L50.0124 42.813H51.3354L49.1724 48H47.9124ZM54.1359 48.1365C52.5924 48.1365 51.5109 47.013 51.5109 45.4065C51.5109 43.779 52.5714 42.6555 54.0939 42.6555C55.6479 42.6555 56.6349 43.695 56.6349 45.312V45.7005L52.7289 45.711C52.8234 46.6245 53.3064 47.0865 54.1569 47.0865C54.8604 47.0865 55.3224 46.8135 55.4694 46.32H56.6559C56.4354 47.454 55.4904 48.1365 54.1359 48.1365ZM54.1044 43.7055C53.3484 43.7055 52.8864 44.115 52.7604 44.892H55.3644C55.3644 44.178 54.8709 43.7055 54.1044 43.7055ZM58.9517 48H57.6812V40.188H58.9517V48ZM64.501 41.532H62.821V40.3245H65.7925V48H64.501V41.532Z" fill="#121224"/>
<path d="M71.8849 48.924V39.705H72.8824V48.924H71.8849Z" fill="#E7E7F1"/>
<path d="M79.5149 41.1645H77.9819V40.482H80.2394V48H79.5149V41.1645ZM85.5453 48H84.8208V40.3455H85.5453V48ZM87.4432 41.5215C87.1492 41.5215 86.9077 41.28 86.9077 40.986C86.9077 40.692 87.1492 40.44 87.4432 40.44C87.7372 40.44 87.9892 40.692 87.9892 40.986C87.9892 41.28 87.7372 41.5215 87.4432 41.5215ZM87.0862 48V42.918H87.8107V48H87.0862ZM90.7391 48L88.6601 42.918H89.4371L90.7496 46.194C90.8861 46.5615 91.0226 46.908 91.1171 47.244C91.2116 46.8975 91.3481 46.5615 91.4951 46.194L92.8286 42.918H93.5741L91.4636 48H90.7391ZM96.3339 48.126C94.8429 48.126 93.8454 47.055 93.8454 45.459C93.8454 43.8735 94.8324 42.7815 96.2814 42.7815C97.6569 42.7815 98.5914 43.758 98.5914 45.1965V45.5535H94.5489C94.6014 46.7925 95.2524 47.5065 96.3444 47.5065C97.1739 47.5065 97.7094 47.1495 97.8984 46.4775H98.5914C98.3184 47.5485 97.5309 48.126 96.3339 48.126ZM96.2814 43.401C95.3259 43.401 94.6959 44.031 94.5699 45.0285H97.8669C97.8669 44.052 97.2369 43.401 96.2814 43.401ZM104.079 48L102 42.918H102.777L104.09 46.194C104.226 46.5615 104.363 46.908 104.457 47.244C104.552 46.8975 104.688 46.5615 104.835 46.194L106.169 42.918H106.914L104.804 48H104.079ZM108.125 41.5215C107.831 41.5215 107.59 41.28 107.59 40.986C107.59 40.692 107.831 40.44 108.125 40.44C108.419 40.44 108.671 40.692 108.671 40.986C108.671 41.28 108.419 41.5215 108.125 41.5215ZM107.768 48V42.918H108.493V48H107.768ZM111.999 48.126C110.518 48.126 109.647 46.992 109.647 45.4695C109.647 43.9365 110.518 42.7815 112.03 42.7815C112.87 42.7815 113.542 43.149 113.899 43.884V40.3455H114.624V48H113.994L113.92 46.9605C113.563 47.748 112.849 48.126 111.999 48.126ZM112.125 47.4645C113.238 47.4645 113.889 46.6245 113.889 45.4485C113.889 44.283 113.238 43.4325 112.125 43.4325C111.022 43.4325 110.382 44.283 110.382 45.4485C110.382 46.6245 111.022 47.4645 112.125 47.4645ZM118.267 48.126C116.776 48.126 115.779 47.055 115.779 45.459C115.779 43.8735 116.766 42.7815 118.215 42.7815C119.59 42.7815 120.525 43.758 120.525 45.1965V45.5535H116.482C116.535 46.7925 117.186 47.5065 118.278 47.5065C119.107 47.5065 119.643 47.1495 119.832 46.4775H120.525C120.252 47.5485 119.464 48.126 118.267 48.126ZM118.215 43.401C117.259 43.401 116.629 44.031 116.503 45.0285H119.8C119.8 44.052 119.17 43.401 118.215 43.401ZM121.326 45.459C121.326 43.905 122.418 42.7815 123.909 42.7815C125.4 42.7815 126.492 43.905 126.492 45.459C126.492 47.0025 125.4 48.126 123.909 48.126C122.418 48.126 121.326 47.0025 121.326 45.459ZM122.061 45.4485C122.061 46.6455 122.817 47.475 123.909 47.475C124.99 47.475 125.757 46.6455 125.757 45.4485C125.757 44.2725 124.99 43.4325 123.909 43.4325C122.817 43.4325 122.061 44.2725 122.061 45.4485Z" fill="#979EC2"/>
<path d="M37.2244 63.108C35.9284 63.108 35.1004 62.298 35.1004 61.029H35.7484C35.7484 61.956 36.3154 62.514 37.2334 62.514C38.2054 62.514 38.8354 61.866 38.8354 60.912C38.8354 60.012 38.2504 59.301 37.2334 59.301C36.6394 59.301 36.0994 59.571 35.7484 59.958L35.2354 59.796L36.0094 56.556H39.1234V57.15H36.4774L35.9914 59.175C36.3514 58.887 36.8194 58.725 37.3234 58.725C38.6644 58.725 39.4924 59.688 39.4924 60.894C39.4924 62.19 38.5744 63.108 37.2244 63.108ZM43.6265 63H43.0055V58.644H43.5455L43.6175 59.265C43.8335 58.806 44.3195 58.527 44.9315 58.527C45.6155 58.527 46.1285 58.887 46.3355 59.454C46.5335 58.887 47.0645 58.527 47.7665 58.527C48.7115 58.527 49.3325 59.139 49.3325 60.147V63H48.7295V60.273C48.7295 59.526 48.3155 59.085 47.6495 59.085C46.9205 59.085 46.4885 59.634 46.4885 60.309V63H45.8765V60.264C45.8765 59.526 45.4535 59.094 44.7965 59.094C44.0675 59.094 43.6265 59.634 43.6265 60.3V63ZM50.2757 60.822C50.2757 59.49 51.2117 58.527 52.4897 58.527C53.7677 58.527 54.7037 59.49 54.7037 60.822C54.7037 62.145 53.7677 63.108 52.4897 63.108C51.2117 63.108 50.2757 62.145 50.2757 60.822ZM50.9057 60.813C50.9057 61.839 51.5537 62.55 52.4897 62.55C53.4167 62.55 54.0737 61.839 54.0737 60.813C54.0737 59.805 53.4167 59.085 52.4897 59.085C51.5537 59.085 50.9057 59.805 50.9057 60.813ZM57.974 58.59V59.148H57.632C56.831 59.148 56.318 59.688 56.318 60.516V63H55.697V58.644H56.282L56.327 59.319C56.498 58.851 56.957 58.545 57.569 58.545C57.704 58.545 57.821 58.554 57.974 58.59ZM60.4595 63.108C59.1815 63.108 58.3265 62.19 58.3265 60.822C58.3265 59.463 59.1725 58.527 60.4145 58.527C61.5935 58.527 62.3945 59.364 62.3945 60.597V60.903H58.9295C58.9745 61.965 59.5325 62.577 60.4685 62.577C61.1795 62.577 61.6385 62.271 61.8005 61.695H62.3945C62.1605 62.613 61.4855 63.108 60.4595 63.108ZM60.4145 59.058C59.5955 59.058 59.0555 59.598 58.9475 60.453H61.7735C61.7735 59.616 61.2335 59.058 60.4145 59.058ZM67.0985 63L65.3165 58.644H65.9825L67.1075 61.452C67.2245 61.767 67.3415 62.064 67.4225 62.352C67.5035 62.055 67.6205 61.767 67.7465 61.452L68.8895 58.644H69.5285L67.7195 63H67.0985ZM70.5664 57.447C70.3144 57.447 70.1074 57.24 70.1074 56.988C70.1074 56.736 70.3144 56.52 70.5664 56.52C70.8184 56.52 71.0344 56.736 71.0344 56.988C71.0344 57.24 70.8184 57.447 70.5664 57.447ZM70.2604 63V58.644H70.8814V63H70.2604ZM73.8864 63.108C72.6174 63.108 71.8704 62.136 71.8704 60.831C71.8704 59.517 72.6174 58.527 73.9134 58.527C74.6334 58.527 75.2094 58.842 75.5154 59.472V56.439H76.1364V63H75.5964L75.5334 62.109C75.2274 62.784 74.6154 63.108 73.8864 63.108ZM73.9944 62.541C74.9484 62.541 75.5064 61.821 75.5064 60.813C75.5064 59.814 74.9484 59.085 73.9944 59.085C73.0494 59.085 72.5004 59.814 72.5004 60.813C72.5004 61.821 73.0494 62.541 73.9944 62.541ZM79.2593 63.108C77.9813 63.108 77.1263 62.19 77.1263 60.822C77.1263 59.463 77.9723 58.527 79.2143 58.527C80.3933 58.527 81.1943 59.364 81.1943 60.597V60.903H77.7293C77.7743 61.965 78.3323 62.577 79.2683 62.577C79.9793 62.577 80.4383 62.271 80.6003 61.695H81.1943C80.9603 62.613 80.2853 63.108 79.2593 63.108ZM79.2143 59.058C78.3953 59.058 77.8553 59.598 77.7473 60.453H80.5733C80.5733 59.616 80.0333 59.058 79.2143 59.058ZM81.8812 60.822C81.8812 59.49 82.8172 58.527 84.0952 58.527C85.3732 58.527 86.3092 59.49 86.3092 60.822C86.3092 62.145 85.3732 63.108 84.0952 63.108C82.8172 63.108 81.8812 62.145 81.8812 60.822ZM82.5112 60.813C82.5112 61.839 83.1592 62.55 84.0952 62.55C85.0222 62.55 85.6792 61.839 85.6792 60.813C85.6792 59.805 85.0222 59.085 84.0952 59.085C83.1592 59.085 82.5112 59.805 82.5112 60.813ZM86.9334 61.776H87.5274C87.5274 62.28 87.9054 62.595 88.5174 62.595C89.1924 62.595 89.5884 62.307 89.5884 61.839C89.5884 61.479 89.4084 61.272 88.8954 61.146L88.1484 60.957C87.3924 60.768 87.0234 60.372 87.0234 59.778C87.0234 59.013 87.6624 58.527 88.5984 58.527C89.5164 58.527 90.1104 59.031 90.1374 59.841H89.5344C89.5164 59.337 89.1654 59.04 88.5804 59.04C87.9684 59.04 87.6264 59.301 87.6264 59.769C87.6264 60.102 87.8604 60.336 88.3374 60.453L89.0844 60.642C89.8404 60.831 90.1824 61.182 90.1824 61.812C90.1824 62.595 89.5164 63.108 88.5264 63.108C87.5454 63.108 86.9334 62.586 86.9334 61.776ZM94.6999 63H94.0879V59.166H93.2149V58.644H94.0879V57.267H94.6999V58.644H95.5729V59.166H94.6999V63ZM96.0316 60.822C96.0316 59.49 96.9676 58.527 98.2456 58.527C99.5236 58.527 100.46 59.49 100.46 60.822C100.46 62.145 99.5236 63.108 98.2456 63.108C96.9676 63.108 96.0316 62.145 96.0316 60.822ZM96.6616 60.813C96.6616 61.839 97.3096 62.55 98.2456 62.55C99.1726 62.55 99.8296 61.839 99.8296 60.813C99.8296 59.805 99.1726 59.085 98.2456 59.085C97.3096 59.085 96.6616 59.805 96.6616 60.813ZM104.597 63H103.976V56.439H104.597V63ZM107.745 63.108C106.467 63.108 105.612 62.19 105.612 60.822C105.612 59.463 106.458 58.527 107.7 58.527C108.879 58.527 109.68 59.364 109.68 60.597V60.903H106.215C106.26 61.965 106.818 62.577 107.754 62.577C108.465 62.577 108.924 62.271 109.086 61.695H109.68C109.446 62.613 108.771 63.108 107.745 63.108ZM107.7 59.058C106.881 59.058 106.341 59.598 106.233 60.453H109.059C109.059 59.616 108.519 59.058 107.7 59.058ZM111.773 63L109.991 58.644H110.657L111.782 61.452C111.899 61.767 112.016 62.064 112.097 62.352C112.178 62.055 112.295 61.767 112.421 61.452L113.564 58.644H114.203L112.394 63H111.773ZM116.569 63.108C115.291 63.108 114.436 62.19 114.436 60.822C114.436 59.463 115.282 58.527 116.524 58.527C117.703 58.527 118.504 59.364 118.504 60.597V60.903H115.039C115.084 61.965 115.642 62.577 116.578 62.577C117.289 62.577 117.748 62.271 117.91 61.695H118.504C118.27 62.613 117.595 63.108 116.569 63.108ZM116.524 59.058C115.705 59.058 115.165 59.598 115.057 60.453H117.883C117.883 59.616 117.343 59.058 116.524 59.058ZM120.145 63H119.524V56.439H120.145V63ZM127.967 63H123.719V62.487L125.78 60.687C126.968 59.652 127.274 59.202 127.274 58.437C127.274 57.564 126.752 57.033 125.897 57.033C125.006 57.033 124.421 57.681 124.394 58.68H123.746C123.782 57.33 124.637 56.439 125.906 56.439C127.121 56.439 127.931 57.222 127.931 58.401C127.931 59.337 127.508 59.958 126.221 61.083L124.718 62.397H127.967V63Z" fill="#474D6A"/>
<path d="M36.8089 87.3245V93.761H40.0219V95H35.4649V87.3245H36.8089ZM43.1437 95.1365C41.6002 95.1365 40.5187 94.013 40.5187 92.4065C40.5187 90.779 41.5792 89.6555 43.1017 89.6555C44.6557 89.6555 45.6427 90.695 45.6427 92.312V92.7005L41.7367 92.711C41.8312 93.6245 42.3142 94.0865 43.1647 94.0865C43.8682 94.0865 44.3302 93.8135 44.4772 93.32H45.6637C45.4432 94.454 44.4982 95.1365 43.1437 95.1365ZM43.1122 90.7055C42.3562 90.7055 41.8942 91.115 41.7682 91.892H44.3722C44.3722 91.178 43.8787 90.7055 43.1122 90.7055ZM47.9124 95L45.8544 89.813H47.2194L48.1224 92.1965C48.3429 92.816 48.5214 93.3515 48.5844 93.635C48.6579 93.3095 48.8469 92.7635 49.0674 92.1965L50.0124 89.813H51.3354L49.1724 95H47.9124ZM54.1359 95.1365C52.5924 95.1365 51.5109 94.013 51.5109 92.4065C51.5109 90.779 52.5714 89.6555 54.0939 89.6555C55.6479 89.6555 56.6349 90.695 56.6349 92.312V92.7005L52.7289 92.711C52.8234 93.6245 53.3064 94.0865 54.1569 94.0865C54.8604 94.0865 55.3224 93.8135 55.4694 93.32H56.6559C56.4354 94.454 55.4904 95.1365 54.1359 95.1365ZM54.1044 90.7055C53.3484 90.7055 52.8864 91.115 52.7604 91.892H55.3644C55.3644 91.178 54.8709 90.7055 54.1044 90.7055ZM58.9517 95H57.6812V87.188H58.9517V95ZM68.2705 94.9895L62.947 95V93.992L65.4565 91.871C66.496 90.989 66.8425 90.485 66.8425 89.75C66.8425 88.8785 66.37 88.385 65.5615 88.385C64.7215 88.385 64.1965 88.973 64.186 89.96H62.8525C62.863 88.28 63.934 87.188 65.5615 87.188C67.1995 87.188 68.218 88.1225 68.218 89.6765C68.218 90.7475 67.63 91.556 66.4645 92.5535L65.0785 93.74H68.2705V94.9895Z" fill="#121224"/>
<path d="M73.8849 95.924V86.705H74.8824V95.924H73.8849Z" fill="#E7E7F1"/>
<path d="M82.6594 95.126C81.1474 95.126 80.1814 94.181 80.1814 92.7005H80.9374C80.9374 93.782 81.5989 94.433 82.6699 94.433C83.8039 94.433 84.5389 93.677 84.5389 92.564C84.5389 91.514 83.8564 90.6845 82.6699 90.6845C81.9769 90.6845 81.3469 90.9995 80.9374 91.451L80.3389 91.262L81.2419 87.482H84.8749V88.175H81.7879L81.2209 90.5375C81.6409 90.2015 82.1869 90.0125 82.7749 90.0125C84.3394 90.0125 85.3054 91.136 85.3054 92.543C85.3054 94.055 84.2344 95.126 82.6594 95.126ZM90.1601 95H89.4356V87.3455H90.1601V95ZM92.0579 88.5215C91.7639 88.5215 91.5224 88.28 91.5224 87.986C91.5224 87.692 91.7639 87.44 92.0579 87.44C92.3519 87.44 92.6039 87.692 92.6039 87.986C92.6039 88.28 92.3519 88.5215 92.0579 88.5215ZM91.7009 95V89.918H92.4254V95H91.7009ZM95.3538 95L93.2748 89.918H94.0518L95.3643 93.194C95.5008 93.5615 95.6373 93.908 95.7318 94.244C95.8263 93.8975 95.9628 93.5615 96.1098 93.194L97.4433 89.918H98.1888L96.0783 95H95.3538ZM100.949 95.126C99.4577 95.126 98.4602 94.055 98.4602 92.459C98.4602 90.8735 99.4472 89.7815 100.896 89.7815C102.272 89.7815 103.206 90.758 103.206 92.1965V92.5535H99.1637C99.2162 93.7925 99.8672 94.5065 100.959 94.5065C101.789 94.5065 102.324 94.1495 102.513 93.4775H103.206C102.933 94.5485 102.146 95.126 100.949 95.126ZM100.896 90.401C99.9407 90.401 99.3107 91.031 99.1847 92.0285H102.482C102.482 91.052 101.852 90.401 100.896 90.401ZM108.694 95L106.615 89.918H107.392L108.705 93.194C108.841 93.5615 108.978 93.908 109.072 94.244C109.167 93.8975 109.303 93.5615 109.45 93.194L110.784 89.918H111.529L109.419 95H108.694ZM112.74 88.5215C112.446 88.5215 112.205 88.28 112.205 87.986C112.205 87.692 112.446 87.44 112.74 87.44C113.034 87.44 113.286 87.692 113.286 87.986C113.286 88.28 113.034 88.5215 112.74 88.5215ZM112.383 95V89.918H113.108V95H112.383ZM116.613 95.126C115.133 95.126 114.261 93.992 114.261 92.4695C114.261 90.9365 115.133 89.7815 116.645 89.7815C117.485 89.7815 118.157 90.149 118.514 90.884V87.3455H119.238V95H118.608L118.535 93.9605C118.178 94.748 117.464 95.126 116.613 95.126ZM116.739 94.4645C117.852 94.4645 118.503 93.6245 118.503 92.4485C118.503 91.283 117.852 90.4325 116.739 90.4325C115.637 90.4325 114.996 91.283 114.996 92.4485C114.996 93.6245 115.637 94.4645 116.739 94.4645ZM122.882 95.126C121.391 95.126 120.393 94.055 120.393 92.459C120.393 90.8735 121.38 89.7815 122.829 89.7815C124.205 89.7815 125.139 90.758 125.139 92.1965V92.5535H121.097C121.149 93.7925 121.8 94.5065 122.892 94.5065C123.722 94.5065 124.257 94.1495 124.446 93.4775H125.139C124.866 94.5485 124.079 95.126 122.882 95.126ZM122.829 90.401C121.874 90.401 121.244 91.031 121.118 92.0285H124.415C124.415 91.052 123.785 90.401 122.829 90.401ZM125.941 92.459C125.941 90.905 127.033 89.7815 128.524 89.7815C130.015 89.7815 131.107 90.905 131.107 92.459C131.107 94.0025 130.015 95.126 128.524 95.126C127.033 95.126 125.941 94.0025 125.941 92.459ZM126.676 92.4485C126.676 93.6455 127.432 94.475 128.524 94.475C129.605 94.475 130.372 93.6455 130.372 92.4485C130.372 91.2725 129.605 90.4325 128.524 90.4325C127.432 90.4325 126.676 91.2725 126.676 92.4485ZM131.835 93.572H132.528C132.528 94.16 132.969 94.5275 133.683 94.5275C134.47 94.5275 134.932 94.1915 134.932 93.6455C134.932 93.2255 134.722 92.984 134.124 92.837L133.252 92.6165C132.37 92.396 131.94 91.934 131.94 91.241C131.94 90.3485 132.685 89.7815 133.777 89.7815C134.848 89.7815 135.541 90.3695 135.573 91.3145H134.869C134.848 90.7265 134.439 90.38 133.756 90.38C133.042 90.38 132.643 90.6845 132.643 91.2305C132.643 91.619 132.916 91.892 133.473 92.0285L134.344 92.249C135.226 92.4695 135.625 92.879 135.625 93.614C135.625 94.5275 134.848 95.126 133.693 95.126C132.549 95.126 131.835 94.517 131.835 93.572Z" fill="#979EC2"/>
<path d="M38.0254 110.099C36.2254 110.099 35.0014 108.758 35.0014 106.778C35.0014 104.798 36.2434 103.448 38.0614 103.448C39.4474 103.448 40.5364 104.285 40.7974 105.563H40.1044C39.8344 104.636 39.0424 104.069 38.0344 104.069C36.6214 104.069 35.6764 105.149 35.6764 106.778C35.6764 108.398 36.6214 109.478 38.0344 109.478C39.0514 109.478 39.8614 108.929 40.1404 108.065H40.8334C40.5364 109.28 39.4114 110.099 38.0254 110.099ZM42.9821 110.108C42.0551 110.108 41.5061 109.586 41.5061 108.821C41.5061 108.02 42.1181 107.516 43.1351 107.435L44.5751 107.318V107.174C44.5751 106.319 44.0621 106.049 43.4231 106.049C42.6671 106.049 42.2171 106.391 42.2171 106.976H41.6501C41.6501 106.094 42.3701 105.527 43.4411 105.527C44.4491 105.527 45.1871 106.031 45.1871 107.183V110H44.6651L44.5841 109.235C44.3141 109.784 43.7201 110.108 42.9821 110.108ZM43.1261 109.604C44.0441 109.604 44.5751 108.965 44.5751 108.02V107.786L43.2881 107.885C42.4691 107.957 42.1361 108.317 42.1361 108.803C42.1361 109.334 42.5321 109.604 43.1261 109.604ZM46.0643 108.776H46.6583C46.6583 109.28 47.0363 109.595 47.6483 109.595C48.3233 109.595 48.7193 109.307 48.7193 108.839C48.7193 108.479 48.5393 108.272 48.0263 108.146L47.2793 107.957C46.5233 107.768 46.1543 107.372 46.1543 106.778C46.1543 106.013 46.7933 105.527 47.7293 105.527C48.6473 105.527 49.2413 106.031 49.2683 106.841H48.6653C48.6473 106.337 48.2963 106.04 47.7113 106.04C47.0993 106.04 46.7573 106.301 46.7573 106.769C46.7573 107.102 46.9913 107.336 47.4683 107.453L48.2153 107.642C48.9713 107.831 49.3133 108.182 49.3133 108.812C49.3133 109.595 48.6473 110.108 47.6573 110.108C46.6763 110.108 46.0643 109.586 46.0643 108.776ZM50.9566 109.991H50.3356V103.439H50.9566V106.4C51.2356 105.878 51.7666 105.527 52.4956 105.527C53.6386 105.527 54.1516 106.238 54.1516 107.336V110H53.5306V107.471C53.5306 106.454 53.0536 106.094 52.3786 106.094C51.4426 106.094 50.9566 106.787 50.9566 107.624V109.991ZM57.8854 111.899V105.644H58.4254L58.4884 106.526C58.7944 105.851 59.4064 105.527 60.1354 105.527C61.3954 105.527 62.1514 106.49 62.1514 107.804C62.1514 109.118 61.4224 110.108 60.1354 110.108C59.3974 110.108 58.8124 109.793 58.5064 109.163V111.899H57.8854ZM58.5154 107.822C58.5154 108.821 59.0734 109.55 60.0274 109.55C60.9724 109.55 61.5214 108.821 61.5214 107.822C61.5214 106.814 60.9724 106.094 60.0274 106.094C59.0734 106.094 58.5154 106.814 58.5154 107.822ZM65.4183 105.59V106.148H65.0763C64.2753 106.148 63.7623 106.688 63.7623 107.516V110H63.1413V105.644H63.7263L63.7713 106.319C63.9423 105.851 64.4013 105.545 65.0133 105.545C65.1483 105.545 65.2653 105.554 65.4183 105.59ZM66.5498 104.447C66.2978 104.447 66.0908 104.24 66.0908 103.988C66.0908 103.736 66.2978 103.52 66.5498 103.52C66.8018 103.52 67.0178 103.736 67.0178 103.988C67.0178 104.24 66.8018 104.447 66.5498 104.447ZM66.2438 110V105.644H66.8648V110H66.2438ZM71.1478 110H67.8628V109.505L70.3828 106.166H67.8628V105.644H71.1478V106.148L68.6188 109.478H71.1478V110ZM73.8365 110.108C72.5585 110.108 71.7035 109.19 71.7035 107.822C71.7035 106.463 72.5495 105.527 73.7915 105.527C74.9705 105.527 75.7715 106.364 75.7715 107.597V107.903H72.3065C72.3515 108.965 72.9095 109.577 73.8455 109.577C74.5565 109.577 75.0155 109.271 75.1775 108.695H75.7715C75.5375 109.613 74.8625 110.108 73.8365 110.108ZM73.7915 106.058C72.9725 106.058 72.4325 106.598 72.3245 107.453H75.1505C75.1505 106.616 74.6105 106.058 73.7915 106.058ZM80.2594 110H79.6474V106.166H78.7744V105.644H79.6474V104.267H80.2594V105.644H81.1324V106.166H80.2594V110ZM81.5911 107.822C81.5911 106.49 82.5271 105.527 83.8051 105.527C85.0831 105.527 86.0191 106.49 86.0191 107.822C86.0191 109.145 85.0831 110.108 83.8051 110.108C82.5271 110.108 81.5911 109.145 81.5911 107.822ZM82.2211 107.813C82.2211 108.839 82.8691 109.55 83.8051 109.55C84.7321 109.55 85.3891 108.839 85.3891 107.813C85.3891 106.805 84.7321 106.085 83.8051 106.085C82.8691 106.085 82.2211 106.805 82.2211 107.813ZM90.7595 110.108C89.8325 110.108 89.2835 109.586 89.2835 108.821C89.2835 108.02 89.8955 107.516 90.9125 107.435L92.3525 107.318V107.174C92.3525 106.319 91.8395 106.049 91.2005 106.049C90.4445 106.049 89.9945 106.391 89.9945 106.976H89.4275C89.4275 106.094 90.1475 105.527 91.2185 105.527C92.2265 105.527 92.9645 106.031 92.9645 107.183V110H92.4425L92.3615 109.235C92.0915 109.784 91.4975 110.108 90.7595 110.108ZM90.9035 109.604C91.8215 109.604 92.3525 108.965 92.3525 108.02V107.786L91.0655 107.885C90.2465 107.957 89.9135 108.317 89.9135 108.803C89.9135 109.334 90.3095 109.604 90.9035 109.604ZM94.8586 110H94.2376V103.439H94.8586V110ZM96.8274 110H96.2064V103.439H96.8274V110ZM100.716 106.688H102.687V104.717H103.245V106.688H105.216V107.246H103.245V109.226H102.687V107.246H100.716V106.688ZM112.502 107.165H109.865V110H109.217V103.556H113.015V104.15H109.865V106.58H112.502V107.165ZM115.453 110.108C114.175 110.108 113.32 109.19 113.32 107.822C113.32 106.463 114.166 105.527 115.408 105.527C116.587 105.527 117.388 106.364 117.388 107.597V107.903H113.923C113.968 108.965 114.526 109.577 115.462 109.577C116.173 109.577 116.632 109.271 116.794 108.695H117.388C117.154 109.613 116.479 110.108 115.453 110.108ZM115.408 106.058C114.589 106.058 114.049 106.598 113.941 107.453H116.767C116.767 106.616 116.227 106.058 115.408 106.058ZM119.588 110.108C118.661 110.108 118.112 109.586 118.112 108.821C118.112 108.02 118.724 107.516 119.741 107.435L121.181 107.318V107.174C121.181 106.319 120.668 106.049 120.029 106.049C119.273 106.049 118.823 106.391 118.823 106.976H118.256C118.256 106.094 118.976 105.527 120.047 105.527C121.055 105.527 121.793 106.031 121.793 107.183V110H121.271L121.19 109.235C120.92 109.784 120.326 110.108 119.588 110.108ZM119.732 109.604C120.65 109.604 121.181 108.965 121.181 108.02V107.786L119.894 107.885C119.075 107.957 118.742 108.317 118.742 108.803C118.742 109.334 119.138 109.604 119.732 109.604ZM123.959 110H123.347V106.166H122.474V105.644H123.347V104.267H123.959V105.644H124.832V106.166H123.959V110ZM128.7 105.644H129.321V110H128.781L128.7 109.262C128.457 109.766 127.854 110.108 127.17 110.108C126.144 110.108 125.586 109.406 125.586 108.344V105.635H126.216V108.146C126.216 109.181 126.675 109.55 127.368 109.55C128.205 109.55 128.7 108.992 128.7 107.957V105.644ZM132.892 105.59V106.148H132.55C131.749 106.148 131.236 106.688 131.236 107.516V110H130.615V105.644H131.2L131.245 106.319C131.416 105.851 131.875 105.545 132.487 105.545C132.622 105.545 132.739 105.554 132.892 105.59ZM135.377 110.108C134.099 110.108 133.244 109.19 133.244 107.822C133.244 106.463 134.09 105.527 135.332 105.527C136.511 105.527 137.312 106.364 137.312 107.597V107.903H133.847C133.892 108.965 134.45 109.577 135.386 109.577C136.097 109.577 136.556 109.271 136.718 108.695H137.312C137.078 109.613 136.403 110.108 135.377 110.108ZM135.332 106.058C134.513 106.058 133.973 106.598 133.865 107.453H136.691C136.691 106.616 136.151 106.058 135.332 106.058ZM140.495 107.822C140.495 106.49 141.431 105.527 142.709 105.527C143.987 105.527 144.923 106.49 144.923 107.822C144.923 109.145 143.987 110.108 142.709 110.108C141.431 110.108 140.495 109.145 140.495 107.822ZM141.125 107.813C141.125 108.839 141.773 109.55 142.709 109.55C143.636 109.55 144.293 108.839 144.293 107.813C144.293 106.805 143.636 106.085 142.709 106.085C141.773 106.085 141.125 106.805 141.125 107.813ZM146.538 110H145.917V105.644H146.457L146.547 106.4C146.835 105.842 147.411 105.527 148.041 105.527C149.238 105.527 149.733 106.238 149.733 107.336V110H149.112V107.471C149.112 106.454 148.653 106.094 147.933 106.094C147.042 106.094 146.538 106.742 146.538 107.723V110ZM36.0454 121H35.3974V114.556H36.0544L39.6004 119.92V114.556H40.2394V121H39.6004L36.0454 115.636V121ZM42.9294 121.108C42.0024 121.108 41.4534 120.586 41.4534 119.821C41.4534 119.02 42.0654 118.516 43.0824 118.435L44.5224 118.318V118.174C44.5224 117.319 44.0094 117.049 43.3704 117.049C42.6144 117.049 42.1644 117.391 42.1644 117.976H41.5974C41.5974 117.094 42.3174 116.527 43.3884 116.527C44.3964 116.527 45.1344 117.031 45.1344 118.183V121H44.6124L44.5314 120.235C44.2614 120.784 43.6674 121.108 42.9294 121.108ZM43.0734 120.604C43.9914 120.604 44.5224 119.965 44.5224 119.02V118.786L43.2354 118.885C42.4164 118.957 42.0834 119.317 42.0834 119.803C42.0834 120.334 42.4794 120.604 43.0734 120.604ZM49.4405 116.644H50.0615V121H49.5215L49.4405 120.262C49.1975 120.766 48.5945 121.108 47.9105 121.108C46.8845 121.108 46.3265 120.406 46.3265 119.344V116.635H46.9565V119.146C46.9565 120.181 47.4155 120.55 48.1085 120.55C48.9455 120.55 49.4405 119.992 49.4405 118.957V116.644ZM52.0032 121H51.3822V114.439H52.0032V118.894L54.1632 116.644H54.9462L53.2722 118.381L54.9552 121H54.2352L52.8492 118.822L52.0032 119.695V121ZM57.974 116.59V117.148H57.632C56.831 117.148 56.318 117.688 56.318 118.516V121H55.697V116.644H56.282L56.327 117.319C56.498 116.851 56.957 116.545 57.569 116.545C57.704 116.545 57.821 116.554 57.974 116.59ZM59.1055 115.447C58.8535 115.447 58.6465 115.24 58.6465 114.988C58.6465 114.736 58.8535 114.52 59.1055 114.52C59.3575 114.52 59.5735 114.736 59.5735 114.988C59.5735 115.24 59.3575 115.447 59.1055 115.447ZM58.7995 121V116.644H59.4205V121H58.7995ZM61.7235 115.132C61.7235 115.699 61.3095 116.176 60.7515 116.257V115.924C61.0665 115.861 61.3005 115.636 61.3005 115.384C61.2465 115.42 61.1655 115.438 61.0575 115.438C60.8235 115.438 60.6165 115.267 60.6165 114.961C60.6165 114.655 60.8325 114.43 61.1475 114.43C61.4535 114.43 61.7235 114.691 61.7235 115.132ZM62.1571 119.776H62.7511C62.7511 120.28 63.1291 120.595 63.7411 120.595C64.4161 120.595 64.8121 120.307 64.8121 119.839C64.8121 119.479 64.6321 119.272 64.1191 119.146L63.3721 118.957C62.6161 118.768 62.2471 118.372 62.2471 117.778C62.2471 117.013 62.8861 116.527 63.8221 116.527C64.7401 116.527 65.3341 117.031 65.3611 117.841H64.7581C64.7401 117.337 64.3891 117.04 63.8041 117.04C63.1921 117.04 62.8501 117.301 62.8501 117.769C62.8501 118.102 63.0841 118.336 63.5611 118.453L64.3081 118.642C65.0641 118.831 65.4061 119.182 65.4061 119.812C65.4061 120.595 64.7401 121.108 63.7501 121.108C62.7691 121.108 62.1571 120.586 62.1571 119.776ZM68.5555 119.776H69.1495C69.1495 120.28 69.5275 120.595 70.1395 120.595C70.8145 120.595 71.2105 120.307 71.2105 119.839C71.2105 119.479 71.0305 119.272 70.5175 119.146L69.7705 118.957C69.0145 118.768 68.6455 118.372 68.6455 117.778C68.6455 117.013 69.2845 116.527 70.2205 116.527C71.1385 116.527 71.7325 117.031 71.7595 117.841H71.1565C71.1385 117.337 70.7875 117.04 70.2025 117.04C69.5905 117.04 69.2485 117.301 69.2485 117.769C69.2485 118.102 69.4825 118.336 69.9595 118.453L70.7065 118.642C71.4625 118.831 71.8045 119.182 71.8045 119.812C71.8045 120.595 71.1385 121.108 70.1485 121.108C69.1675 121.108 68.5555 120.586 68.5555 119.776ZM72.5208 118.822C72.5208 117.49 73.4568 116.527 74.7348 116.527C76.0128 116.527 76.9488 117.49 76.9488 118.822C76.9488 120.145 76.0128 121.108 74.7348 121.108C73.4568 121.108 72.5208 120.145 72.5208 118.822ZM73.1508 118.813C73.1508 119.839 73.7988 120.55 74.7348 120.55C75.6618 120.55 76.3188 119.839 76.3188 118.813C76.3188 117.805 75.6618 117.085 74.7348 117.085C73.7988 117.085 73.1508 117.805 73.1508 118.813ZM77.6361 118.831C77.6361 117.463 78.4731 116.527 79.7421 116.527C80.7501 116.527 81.4881 117.112 81.6591 118.012H81.0381C80.8761 117.409 80.3541 117.076 79.7511 117.076C78.8691 117.076 78.2481 117.751 78.2481 118.822C78.2481 119.857 78.8241 120.55 79.7061 120.55C80.3541 120.55 80.8761 120.19 81.0471 119.632H81.6771C81.4701 120.523 80.6961 121.108 79.7061 121.108C78.4731 121.108 77.6361 120.199 77.6361 118.831ZM82.9238 115.447C82.6718 115.447 82.4648 115.24 82.4648 114.988C82.4648 114.736 82.6718 114.52 82.9238 114.52C83.1758 114.52 83.3918 114.736 83.3918 114.988C83.3918 115.24 83.1758 115.447 82.9238 115.447ZM82.6178 121V116.644H83.2388V121H82.6178ZM85.7849 121.108C84.8579 121.108 84.3089 120.586 84.3089 119.821C84.3089 119.02 84.9209 118.516 85.9379 118.435L87.3779 118.318V118.174C87.3779 117.319 86.8649 117.049 86.2259 117.049C85.4699 117.049 85.0199 117.391 85.0199 117.976H84.4529C84.4529 117.094 85.1729 116.527 86.2439 116.527C87.2519 116.527 87.9899 117.031 87.9899 118.183V121H87.4679L87.3869 120.235C87.1169 120.784 86.5229 121.108 85.7849 121.108ZM85.9289 120.604C86.8469 120.604 87.3779 119.965 87.3779 119.02V118.786L86.0909 118.885C85.2719 118.957 84.9389 119.317 84.9389 119.803C84.9389 120.334 85.3349 120.604 85.9289 120.604ZM89.884 121H89.263V114.439H89.884V121ZM94.3219 121H93.7009V116.644H94.2409L94.3129 117.265C94.5289 116.806 95.0149 116.527 95.6269 116.527C96.3109 116.527 96.8239 116.887 97.0309 117.454C97.2289 116.887 97.7599 116.527 98.4619 116.527C99.4069 116.527 100.028 117.139 100.028 118.147V121H99.4249V118.273C99.4249 117.526 99.0109 117.085 98.3449 117.085C97.6159 117.085 97.1839 117.634 97.1839 118.309V121H96.5719V118.264C96.5719 117.526 96.1489 117.094 95.4919 117.094C94.7629 117.094 94.3219 117.634 94.3219 118.3V121ZM103.104 121.108C101.826 121.108 100.971 120.19 100.971 118.822C100.971 117.463 101.817 116.527 103.059 116.527C104.238 116.527 105.039 117.364 105.039 118.597V118.903H101.574C101.619 119.965 102.177 120.577 103.113 120.577C103.824 120.577 104.283 120.271 104.445 119.695H105.039C104.805 120.613 104.13 121.108 103.104 121.108ZM103.059 117.058C102.24 117.058 101.7 117.598 101.592 118.453H104.418C104.418 117.616 103.878 117.058 103.059 117.058ZM107.742 121.108C106.473 121.108 105.726 120.136 105.726 118.831C105.726 117.517 106.473 116.527 107.769 116.527C108.489 116.527 109.065 116.842 109.371 117.472V114.439H109.992V121H109.452L109.389 120.109C109.083 120.784 108.471 121.108 107.742 121.108ZM107.85 120.541C108.804 120.541 109.362 119.821 109.362 118.813C109.362 117.814 108.804 117.085 107.85 117.085C106.905 117.085 106.356 117.814 106.356 118.813C106.356 119.821 106.905 120.541 107.85 120.541ZM111.594 115.447C111.342 115.447 111.135 115.24 111.135 114.988C111.135 114.736 111.342 114.52 111.594 114.52C111.846 114.52 112.062 114.736 112.062 114.988C112.062 115.24 111.846 115.447 111.594 115.447ZM111.288 121V116.644H111.909V121H111.288ZM114.455 121.108C113.528 121.108 112.979 120.586 112.979 119.821C112.979 119.02 113.591 118.516 114.608 118.435L116.048 118.318V118.174C116.048 117.319 115.535 117.049 114.896 117.049C114.14 117.049 113.69 117.391 113.69 117.976H113.123C113.123 117.094 113.843 116.527 114.914 116.527C115.922 116.527 116.66 117.031 116.66 118.183V121H116.138L116.057 120.235C115.787 120.784 115.193 121.108 114.455 121.108ZM114.599 120.604C115.517 120.604 116.048 119.965 116.048 119.02V118.786L114.761 118.885C113.942 118.957 113.609 119.317 113.609 119.803C113.609 120.334 114.005 120.604 114.599 120.604Z" fill="#474D6A"/>
<g filter="url(#filter0_d_11_1895)">
<rect x="151" y="48" width="130.533" height="46.2305" rx="8.70221" fill="white"/>
<rect x="151" y="48" width="130.533" height="46.2305" rx="8.70221" stroke="#F7F7F9"/>
<rect x="160.272" y="54.0799" width="16.8605" height="16.8605" rx="8.43026" fill="white"/>
<rect x="160.272" y="54.0799" width="16.8605" height="16.8605" rx="8.43026" stroke="#FDAA29" stroke-width="0.543888"/>
<g filter="url(#filter1_i_11_1895)">
<path d="M173.149 59.2908C173.149 61.751 171.159 63.7457 168.703 63.7458C166.324 63.7458 164.38 61.8741 164.261 59.5203L164.255 59.2908H173.149Z" fill="#FBA021"/>
</g>
<path d="M172.426 59.9056C172.21 61.6989 170.626 63.0911 168.703 63.0912C166.779 63.0912 165.194 61.699 164.978 59.9056H172.426Z" fill="#EFEDFF"/>
<rect x="168.242" y="63.9769" width="0.92918" height="2.25658" fill="#FF8E16"/>
<mask id="mask0_11_1895" style="mask-type:luminance" maskUnits="userSpaceOnUse" x="168" y="63" width="2" height="4">
<rect x="168.242" y="63.9769" width="0.92918" height="2.25658" fill="white"/>
</mask>
<g mask="url(#mask0_11_1895)">
<g filter="url(#filter2_f_11_1895)">
<rect x="167.711" y="64.9059" width="2.25658" height="0.92918" fill="#F07D42" style="mix-blend-mode:overlay"/>
</g>
</g>
<g filter="url(#filter3_i_11_1895)">
<path d="M171.617 61.5146C171.617 63.1287 170.308 64.4374 168.694 64.4375C167.08 64.4375 165.772 63.1288 165.772 61.5146V57.9307H171.617V61.5146Z" fill="#FFB820"/>
<path d="M171.617 61.5146C171.617 63.1287 170.308 64.4374 168.694 64.4375C167.08 64.4375 165.772 63.1288 165.772 61.5146V57.9307H171.617V61.5146Z" fill="url(#paint0_linear_11_1895)" fill-opacity="0.8" style="mix-blend-mode:overlay"/>
</g>
<mask id="mask1_11_1895" style="mask-type:luminance" maskUnits="userSpaceOnUse" x="165" y="57" width="7" height="8">
<path d="M171.617 61.5146C171.617 63.1287 170.308 64.4374 168.694 64.4375C167.08 64.4375 165.772 63.1288 165.772 61.5146V57.9307H171.617V61.5146Z" fill="white"/>
</mask>
<g mask="url(#mask1_11_1895)">
<g opacity="0.3" filter="url(#filter4_f_11_1895)">
<rect x="165.192" y="57.2075" width="7.3007" height="1.85836" fill="#D2691B" style="mix-blend-mode:overlay"/>
</g>
<g opacity="0.2">
<path fill-rule="evenodd" clip-rule="evenodd" d="M171.39 57.3423L162.824 67.3927L163.577 55.88L171.39 57.3423Z" fill="url(#paint1_linear_11_1895)" style="mix-blend-mode:overlay"/>
</g>
</g>
<g filter="url(#filter5_i_11_1895)">
<rect x="165.324" y="57.7385" width="6.76974" height="0.79644" rx="0.39822" fill="#FFC155"/>
<rect x="165.324" y="57.7385" width="6.76974" height="0.79644" rx="0.39822" fill="url(#paint2_linear_11_1895)" fill-opacity="0.6" style="mix-blend-mode:overlay"/>
</g>
<mask id="path-27-inside-1_11_1895" fill="white">
<rect x="167.58" y="65.33" width="2.26545" height="0.655188" rx="0.211061"/>
</mask>
<rect x="167.58" y="65.33" width="2.26545" height="0.655188" rx="0.211061" fill="#FFA62F" stroke="#FFA528" stroke-width="0.655188" mask="url(#path-27-inside-1_11_1895)"/>
<g filter="url(#filter6_i_11_1895)">
<rect x="166.652" y="65.7028" width="4.11494" height="1.3274" rx="0.211061" fill="#B26025"/>
<rect x="166.652" y="65.7028" width="4.11494" height="1.3274" rx="0.211061" fill="url(#paint3_linear_11_1895)" style="mix-blend-mode:overlay"/>
</g>
<rect opacity="0.3" x="167.712" y="65.9684" width="1.9911" height="0.79644" fill="#FFF3D8"/>
<path fill-rule="evenodd" clip-rule="evenodd" d="M167.652 62.5379C167.663 62.4755 167.673 62.4187 167.682 62.3618C167.723 62.1195 167.765 61.8772 167.806 61.6349C167.813 61.5954 167.821 61.556 167.825 61.5162C167.827 61.5051 167.822 61.4895 167.814 61.4817C167.641 61.3123 167.467 61.1436 167.293 60.9748C167.23 60.9135 167.167 60.8523 167.104 60.7908C167.073 60.7606 167.057 60.7252 167.071 60.682C167.086 60.6374 167.12 60.6166 167.165 60.6101C167.479 60.5653 167.793 60.5192 168.107 60.4763C168.149 60.4706 168.171 60.4556 168.19 60.4172C168.334 60.1244 168.48 59.833 168.626 59.541C168.643 59.5066 168.665 59.4805 168.707 59.4798C168.742 59.4791 168.769 59.4932 168.785 59.5248C168.821 59.5957 168.856 59.6669 168.891 59.7381C169.009 59.9763 169.127 60.2146 169.246 60.4526C169.25 60.4599 169.259 60.4677 169.267 60.4689C169.499 60.5031 169.73 60.5365 169.962 60.5701C170.06 60.5844 170.158 60.5991 170.256 60.6133C170.3 60.6198 170.331 60.6436 170.344 60.6856C170.357 60.7262 170.343 60.7613 170.313 60.7904C170.168 60.9319 170.022 61.0733 169.877 61.2147C169.785 61.3041 169.693 61.3936 169.6 61.4823C169.588 61.4944 169.588 61.5063 169.591 61.5204C169.618 61.6811 169.645 61.8419 169.673 62.0026C169.702 62.1732 169.731 62.3437 169.76 62.5144C169.766 62.5513 169.755 62.5821 169.725 62.6051C169.693 62.6295 169.659 62.6303 169.623 62.6119C169.494 62.5438 169.364 62.4759 169.234 62.4078C169.065 62.3196 168.897 62.2315 168.728 62.1426C168.713 62.1346 168.702 62.1353 168.687 62.1431C168.392 62.2985 168.097 62.4534 167.802 62.6085C167.746 62.6375 167.696 62.6274 167.668 62.5801C167.659 62.5662 167.656 62.5494 167.652 62.5379Z" fill="#FFEEB4"/>
<path d="M183.637 64.6187C182.016 64.6187 180.965 63.4918 180.965 61.7481C180.965 60.0196 182.054 58.8698 183.683 58.8698C185 58.8698 185.983 59.6389 186.173 60.8343H185.145C184.955 60.1871 184.399 59.8064 183.66 59.8064C182.632 59.8064 181.985 60.5526 181.985 61.7405C181.985 62.9207 182.64 63.6821 183.66 63.6821C184.414 63.6821 184.993 63.2862 185.176 62.6694H186.188C185.975 63.842 184.955 64.6187 183.637 64.6187ZM189.286 60.7506V61.611H188.943C188.273 61.611 187.854 61.9689 187.854 62.6999V64.5273H186.925V60.7734H187.801L187.854 61.3217C188.014 60.9486 188.372 60.6973 188.875 60.6973C189.004 60.6973 189.133 60.7125 189.286 60.7506ZM191.471 64.6263C190.352 64.6263 189.567 63.8116 189.567 62.6466C189.567 61.4663 190.336 60.6516 191.44 60.6516C192.567 60.6516 193.283 61.4054 193.283 62.578V62.8598L190.451 62.8674C190.519 63.5299 190.869 63.8649 191.486 63.8649C191.996 63.8649 192.331 63.6669 192.438 63.309H193.298C193.139 64.1314 192.453 64.6263 191.471 64.6263ZM191.448 61.413C190.9 61.413 190.565 61.71 190.473 62.2735H192.362C192.362 61.7557 192.004 61.413 191.448 61.413ZM195.109 64.6263C194.309 64.6263 193.822 64.1619 193.822 63.4537C193.822 62.7608 194.325 62.3268 195.215 62.2582L196.342 62.1745V62.0907C196.342 61.5806 196.038 61.375 195.566 61.375C195.017 61.375 194.713 61.6034 194.713 61.9994H193.921C193.921 61.1846 194.591 60.6516 195.611 60.6516C196.624 60.6516 197.248 61.1998 197.248 62.243V64.5273H196.434L196.365 63.9715C196.205 64.3598 195.695 64.6263 195.109 64.6263ZM195.413 63.9258C195.984 63.9258 196.35 63.5832 196.35 63.0045V62.8065L195.566 62.8674C194.987 62.9207 194.766 63.1111 194.766 63.4156C194.766 63.7583 194.995 63.9258 195.413 63.9258ZM199.388 64.5273H198.459V61.5425H197.736V60.7658H198.459V59.5932H199.388V60.7658H200.119V61.5425H199.388V64.5273ZM200.439 62.639C200.439 61.4663 201.284 60.6592 202.449 60.6592C203.614 60.6592 204.459 61.4663 204.459 62.639C204.459 63.8116 203.614 64.6187 202.449 64.6187C201.284 64.6187 200.439 63.8116 200.439 62.639ZM201.368 62.639C201.368 63.3243 201.809 63.7887 202.449 63.7887C203.089 63.7887 203.53 63.3243 203.53 62.639C203.53 61.9537 203.089 61.4892 202.449 61.4892C201.809 61.4892 201.368 61.9537 201.368 62.639ZM207.556 60.7506V61.611H207.213C206.543 61.611 206.124 61.9689 206.124 62.6999V64.5273H205.195V60.7734H206.071L206.124 61.3217C206.284 60.9486 206.642 60.6973 207.145 60.6973C207.274 60.6973 207.404 60.7125 207.556 60.7506ZM210.016 62.639C210.016 61.4663 210.861 60.6592 212.026 60.6592C213.191 60.6592 214.037 61.4663 214.037 62.639C214.037 63.8116 213.191 64.6187 212.026 64.6187C210.861 64.6187 210.016 63.8116 210.016 62.639ZM210.945 62.639C210.945 63.3243 211.387 63.7887 212.026 63.7887C212.666 63.7887 213.108 63.3243 213.108 62.639C213.108 61.9537 212.666 61.4892 212.026 61.4892C211.387 61.4892 210.945 61.9537 210.945 62.639ZM214.385 60.7658H214.926V60.3089C214.926 59.2886 215.466 58.8622 216.281 58.8622C216.426 58.8622 216.601 58.8698 216.761 58.9003V59.6922H216.433C215.961 59.6922 215.847 59.9358 215.847 60.3089V60.7658H216.745V61.5425H215.847V64.5273H214.926V61.5425H214.385V60.7658ZM220.67 64.5273H219.741V61.5425H219.018V60.7658H219.741V59.5932H220.67V60.7658H221.401V61.5425H220.67V64.5273ZM222.907 64.5273H221.978V58.8622H222.915V61.2531C223.151 60.8876 223.593 60.6516 224.133 60.6516C225.062 60.6516 225.55 61.2379 225.55 62.2126V64.5273H224.621V62.4334C224.621 61.8014 224.308 61.4968 223.836 61.4968C223.25 61.4968 222.907 61.908 222.907 62.4714V64.5273ZM228.145 64.6263C227.026 64.6263 226.242 63.8116 226.242 62.6466C226.242 61.4663 227.011 60.6516 228.115 60.6516C229.242 60.6516 229.957 61.4054 229.957 62.578V62.8598L227.125 62.8674C227.193 63.5299 227.544 63.8649 228.16 63.8649C228.671 63.8649 229.006 63.6669 229.112 63.309H229.973C229.813 64.1314 229.127 64.6263 228.145 64.6263ZM228.122 61.413C227.574 61.413 227.239 61.71 227.148 62.2735H229.036C229.036 61.7557 228.678 61.413 228.122 61.413ZM233.682 64.5273H232.753V60.7658H233.606L233.682 61.2075C233.872 60.8953 234.253 60.6516 234.794 60.6516C235.365 60.6516 235.761 60.9333 235.959 61.3674C236.149 60.9333 236.591 60.6516 237.162 60.6516C238.076 60.6516 238.578 61.1998 238.578 62.0679V64.5273H237.657V62.3115C237.657 61.7709 237.368 61.4892 236.926 61.4892C236.477 61.4892 236.134 61.7785 236.134 62.3953V64.5273H235.205V62.3039C235.205 61.7785 234.923 61.4968 234.482 61.4968C234.04 61.4968 233.682 61.7861 233.682 62.3953V64.5273ZM239.269 62.639C239.269 61.4663 240.115 60.6592 241.28 60.6592C242.445 60.6592 243.29 61.4663 243.29 62.639C243.29 63.8116 242.445 64.6187 241.28 64.6187C240.115 64.6187 239.269 63.8116 239.269 62.639ZM240.198 62.639C240.198 63.3243 240.64 63.7887 241.28 63.7887C241.919 63.7887 242.361 63.3243 242.361 62.639C242.361 61.9537 241.919 61.4892 241.28 61.4892C240.64 61.4892 240.198 61.9537 240.198 62.639ZM244.955 64.5273H244.026V60.7658H244.887L244.963 61.2531C245.199 60.8724 245.656 60.6516 246.166 60.6516C247.11 60.6516 247.597 61.2379 247.597 62.2126V64.5273H246.668V62.4334C246.668 61.8014 246.356 61.4968 245.876 61.4968C245.305 61.4968 244.955 61.8928 244.955 62.5019V64.5273ZM249.789 64.5273H248.86V61.5425H248.137V60.7658H248.86V59.5932H249.789V60.7658H250.52V61.5425H249.789V64.5273ZM252.027 64.5273H251.098V58.8622H252.034V61.2531C252.27 60.8876 252.712 60.6516 253.253 60.6516C254.182 60.6516 254.669 61.2379 254.669 62.2126V64.5273H253.74V62.4334C253.74 61.8014 253.428 61.4968 252.956 61.4968C252.369 61.4968 252.027 61.908 252.027 62.4714V64.5273Z" fill="#FDAA29"/>
<path d="M183.194 71.3953C182.117 71.3953 181.438 72.1915 181.438 73.3859C181.438 74.5999 182.156 75.3374 183.207 75.3374C183.99 75.3374 184.754 74.9588 184.754 73.8363V73.5948H183.063V73.1771H185.197V75.7094H184.825L184.78 74.9654C184.532 75.4288 183.944 75.7812 183.187 75.7812C181.862 75.7812 180.948 74.8283 180.948 73.3859C180.948 71.9566 181.862 70.9515 183.2 70.9515C184.186 70.9515 184.949 71.5128 185.132 72.3612H184.623C184.427 71.7216 183.879 71.3953 183.194 71.3953ZM187.684 72.5048V72.9095H187.436C186.855 72.9095 186.483 73.3011 186.483 73.9015V75.7029H186.033V72.544H186.457L186.49 73.0335C186.614 72.6941 186.946 72.4722 187.39 72.4722C187.488 72.4722 187.573 72.4787 187.684 72.5048ZM189.062 75.7812C188.39 75.7812 187.992 75.4027 187.992 74.8479C187.992 74.267 188.436 73.9015 189.173 73.8428L190.218 73.7579V73.6535C190.218 73.0335 189.846 72.8377 189.382 72.8377C188.834 72.8377 188.508 73.0857 188.508 73.5099H188.096C188.096 72.8703 188.619 72.4591 189.395 72.4591C190.126 72.4591 190.661 72.8246 190.661 73.66V75.7029H190.283L190.224 75.1481C190.028 75.5462 189.598 75.7812 189.062 75.7812ZM189.167 75.4157C189.833 75.4157 190.218 74.9523 190.218 74.267V74.0973L189.284 74.1691C188.69 74.2213 188.449 74.4824 188.449 74.8348C188.449 75.2199 188.736 75.4157 189.167 75.4157ZM192.015 75.7029H191.565V72.544H191.957L192.022 73.0922C192.231 72.6876 192.649 72.4591 193.105 72.4591C193.973 72.4591 194.332 72.9747 194.332 73.771V75.7029H193.882V73.8689C193.882 73.1314 193.549 72.8703 193.027 72.8703C192.381 72.8703 192.015 73.3402 192.015 74.0516V75.7029ZM196.47 75.7812C195.55 75.7812 195.008 75.0763 195.008 74.13C195.008 73.1771 195.55 72.4591 196.49 72.4591C197.012 72.4591 197.429 72.6876 197.651 73.1444V70.9449H198.102V75.7029H197.71L197.664 75.0567C197.443 75.5462 196.999 75.7812 196.47 75.7812ZM196.548 75.37C197.24 75.37 197.645 74.8479 197.645 74.1169C197.645 73.3924 197.24 72.8638 196.548 72.8638C195.863 72.8638 195.465 73.3924 195.465 74.1169C195.465 74.8479 195.863 75.37 196.548 75.37ZM200.63 74.13C200.63 73.1379 201.237 72.4591 202.157 72.4591C202.888 72.4591 203.423 72.8834 203.547 73.536H203.097C202.979 73.0987 202.601 72.8573 202.163 72.8573C201.524 72.8573 201.073 73.3468 201.073 74.1234C201.073 74.874 201.491 75.3765 202.131 75.3765C202.601 75.3765 202.979 75.1155 203.103 74.7108H203.56C203.41 75.357 202.849 75.7812 202.131 75.7812C201.237 75.7812 200.63 75.122 200.63 74.13ZM205.15 75.7812C204.477 75.7812 204.079 75.4027 204.079 74.8479C204.079 74.267 204.523 73.9015 205.261 73.8428L206.305 73.7579V73.6535C206.305 73.0335 205.933 72.8377 205.469 72.8377C204.921 72.8377 204.595 73.0857 204.595 73.5099H204.184C204.184 72.8703 204.706 72.4591 205.482 72.4591C206.213 72.4591 206.749 72.8246 206.749 73.66V75.7029H206.37L206.311 75.1481C206.116 75.5462 205.685 75.7812 205.15 75.7812ZM205.254 75.4157C205.92 75.4157 206.305 74.9523 206.305 74.267V74.0973L205.371 74.1691C204.778 74.2213 204.536 74.4824 204.536 74.8348C204.536 75.2199 204.823 75.4157 205.254 75.4157ZM207.385 74.8153H207.815C207.815 75.1807 208.09 75.4092 208.533 75.4092C209.023 75.4092 209.31 75.2003 209.31 74.8609C209.31 74.5999 209.18 74.4498 208.808 74.3584L208.266 74.2213C207.718 74.0843 207.45 73.7971 207.45 73.3663C207.45 72.8116 207.913 72.4591 208.592 72.4591C209.258 72.4591 209.689 72.8246 209.708 73.412H209.271C209.258 73.0465 209.003 72.8312 208.579 72.8312C208.135 72.8312 207.887 73.0204 207.887 73.3598C207.887 73.6013 208.057 73.771 208.403 73.8558L208.945 73.9929C209.493 74.13 209.741 74.3845 209.741 74.8414C209.741 75.4092 209.258 75.7812 208.54 75.7812C207.829 75.7812 207.385 75.4027 207.385 74.8153ZM210.933 75.6964H210.482V70.9449H210.933V73.0922C211.135 72.7137 211.52 72.4591 212.049 72.4591C212.878 72.4591 213.25 72.9747 213.25 73.771V75.7029H212.799V73.8689C212.799 73.1314 212.453 72.8703 211.964 72.8703C211.285 72.8703 210.933 73.3729 210.933 73.9798V75.6964ZM215.957 77.08V72.544H216.349L216.394 73.1836C216.616 72.6941 217.06 72.4591 217.589 72.4591C218.503 72.4591 219.051 73.1575 219.051 74.1104C219.051 75.0633 218.522 75.7812 217.589 75.7812C217.054 75.7812 216.629 75.5528 216.408 75.0959V77.08H215.957ZM216.414 74.1234C216.414 74.8479 216.819 75.3765 217.511 75.3765C218.196 75.3765 218.594 74.8479 218.594 74.1234C218.594 73.3924 218.196 72.8703 217.511 72.8703C216.819 72.8703 216.414 73.3924 216.414 74.1234ZM221.42 72.5048V72.9095H221.172C220.591 72.9095 220.219 73.3011 220.219 73.9015V75.7029H219.769V72.544H220.193L220.226 73.0335C220.35 72.6941 220.682 72.4722 221.126 72.4722C221.224 72.4722 221.309 72.4787 221.42 72.5048ZM222.24 71.6759C222.058 71.6759 221.908 71.5258 221.908 71.3431C221.908 71.1603 222.058 71.0037 222.24 71.0037C222.423 71.0037 222.58 71.1603 222.58 71.3431C222.58 71.5258 222.423 71.6759 222.24 71.6759ZM222.019 75.7029V72.544H222.469V75.7029H222.019ZM225.575 75.7029H223.193V75.3439L225.02 72.9225H223.193V72.544H225.575V72.9095L223.741 75.3243H225.575V75.7029ZM227.525 75.7812C226.598 75.7812 225.978 75.1155 225.978 74.1234C225.978 73.1379 226.591 72.4591 227.492 72.4591C228.347 72.4591 228.928 73.0661 228.928 73.9603V74.1822H226.415C226.448 74.9523 226.852 75.3961 227.531 75.3961C228.047 75.3961 228.38 75.1742 228.497 74.7565H228.928C228.758 75.4222 228.269 75.7812 227.525 75.7812ZM227.492 72.8442C226.898 72.8442 226.506 73.2358 226.428 73.8558H228.478C228.478 73.2489 228.086 72.8442 227.492 72.8442ZM232.182 75.7029H231.739V72.9225H231.106V72.544H231.739V71.5454H232.182V72.544H232.816V72.9225H232.182V75.7029ZM233.148 74.1234C233.148 73.1575 233.827 72.4591 234.754 72.4591C235.681 72.4591 236.359 73.1575 236.359 74.1234C236.359 75.0828 235.681 75.7812 234.754 75.7812C233.827 75.7812 233.148 75.0828 233.148 74.1234ZM233.605 74.1169C233.605 74.8609 234.075 75.3765 234.754 75.3765C235.426 75.3765 235.902 74.8609 235.902 74.1169C235.902 73.3859 235.426 72.8638 234.754 72.8638C234.075 72.8638 233.605 73.3859 233.605 74.1169ZM238.668 74.1234C238.668 73.1575 239.347 72.4591 240.273 72.4591C241.2 72.4591 241.879 73.1575 241.879 74.1234C241.879 75.0828 241.2 75.7812 240.273 75.7812C239.347 75.7812 238.668 75.0828 238.668 74.1234ZM239.125 74.1169C239.125 74.8609 239.595 75.3765 240.273 75.3765C240.946 75.3765 241.422 74.8609 241.422 74.1169C241.422 73.3859 240.946 72.8638 240.273 72.8638C239.595 72.8638 239.125 73.3859 239.125 74.1169ZM243.05 75.7029H242.599V72.544H242.991L243.056 73.0922C243.265 72.6876 243.683 72.4591 244.14 72.4591C245.008 72.4591 245.367 72.9747 245.367 73.771V75.7029H244.916V73.8689C244.916 73.1314 244.583 72.8703 244.061 72.8703C243.415 72.8703 243.05 73.3402 243.05 74.0516V75.7029ZM247.589 75.7812C246.662 75.7812 246.042 75.1155 246.042 74.1234C246.042 73.1379 246.656 72.4591 247.556 72.4591C248.411 72.4591 248.992 73.0661 248.992 73.9603V74.1822H246.479C246.512 74.9523 246.917 75.3961 247.596 75.3961C248.111 75.3961 248.444 75.1742 248.561 74.7565H248.992C248.823 75.4222 248.333 75.7812 247.589 75.7812ZM247.556 72.8442C246.962 72.8442 246.571 73.2358 246.493 73.8558H248.542C248.542 73.2489 248.15 72.8442 247.556 72.8442ZM252.188 75.7029L251.144 72.544H251.607L252.227 74.4498C252.299 74.6586 252.358 74.874 252.423 75.1285C252.475 74.874 252.58 74.5542 252.612 74.4498L253.239 72.544H253.702L254.322 74.4498C254.381 74.6195 254.459 74.8936 254.518 75.1285C254.583 74.8675 254.596 74.7891 254.707 74.4498L255.334 72.544H255.804L254.733 75.7029H254.296L253.644 73.7188C253.565 73.4838 253.513 73.288 253.474 73.0987C253.428 73.2684 253.376 73.4577 253.291 73.7188L252.638 75.7029H252.188ZM256.588 71.6759C256.406 71.6759 256.255 71.5258 256.255 71.3431C256.255 71.1603 256.406 71.0037 256.588 71.0037C256.771 71.0037 256.928 71.1603 256.928 71.3431C256.928 71.5258 256.771 71.6759 256.588 71.6759ZM256.366 75.7029V72.544H256.817V75.7029H256.366ZM258.206 75.7029H257.756V72.544H258.147L258.213 73.0922C258.422 72.6876 258.839 72.4591 259.296 72.4591C260.164 72.4591 260.523 72.9747 260.523 73.771V75.7029H260.073V73.8689C260.073 73.1314 259.74 72.8703 259.218 72.8703C258.572 72.8703 258.206 73.3402 258.206 74.0516V75.7029ZM261.871 75.7029H261.421V72.544H261.812L261.878 73.0922C262.086 72.6876 262.504 72.4591 262.961 72.4591C263.829 72.4591 264.188 72.9747 264.188 73.771V75.7029H263.738V73.8689C263.738 73.1314 263.405 72.8703 262.883 72.8703C262.237 72.8703 261.871 73.3402 261.871 74.0516V75.7029ZM266.41 75.7812C265.484 75.7812 264.864 75.1155 264.864 74.1234C264.864 73.1379 265.477 72.4591 266.378 72.4591C267.233 72.4591 267.814 73.0661 267.814 73.9603V74.1822H265.301C265.334 74.9523 265.738 75.3961 266.417 75.3961C266.933 75.3961 267.265 75.1742 267.383 74.7565H267.814C267.644 75.4222 267.155 75.7812 266.41 75.7812ZM266.378 72.8442C265.784 72.8442 265.392 73.2358 265.314 73.8558H267.363C267.363 73.2489 266.972 72.8442 266.378 72.8442ZM270.185 72.5048V72.9095H269.937C269.356 72.9095 268.984 73.3011 268.984 73.9015V75.7029H268.534V72.544H268.958L268.991 73.0335C269.115 72.6941 269.447 72.4722 269.891 72.4722C269.989 72.4722 270.074 72.4787 270.185 72.5048ZM182.463 83.7812C181.536 83.7812 180.916 83.1155 180.916 82.1234C180.916 81.1379 181.529 80.4591 182.43 80.4591C183.285 80.4591 183.866 81.0661 183.866 81.9603V82.1822H181.353C181.386 82.9523 181.79 83.3961 182.469 83.3961C182.985 83.3961 183.318 83.1742 183.435 82.7565H183.866C183.696 83.4222 183.207 83.7812 182.463 83.7812ZM182.43 80.8442C181.836 80.8442 181.445 81.2358 181.366 81.8558H183.416C183.416 81.2489 183.024 80.8442 182.43 80.8442ZM185.384 83.7029L184.092 80.544H184.575L185.391 82.5803C185.476 82.8087 185.56 83.0241 185.619 83.233C185.678 83.0176 185.763 82.8087 185.854 82.5803L186.683 80.544H187.146L185.835 83.7029H185.384ZM188.862 83.7812C187.935 83.7812 187.315 83.1155 187.315 82.1234C187.315 81.1379 187.929 80.4591 188.829 80.4591C189.684 80.4591 190.265 81.0661 190.265 81.9603V82.1822H187.752C187.785 82.9523 188.19 83.3961 188.868 83.3961C189.384 83.3961 189.717 83.1742 189.834 82.7565H190.265C190.095 83.4222 189.606 83.7812 188.862 83.7812ZM188.829 80.8442C188.235 80.8442 187.844 81.2358 187.765 81.8558H189.815C189.815 81.2489 189.423 80.8442 188.829 80.8442ZM192.636 80.5048V80.9095H192.388C191.807 80.9095 191.435 81.3011 191.435 81.9015V83.7029H190.985V80.544H191.409L191.442 81.0335C191.566 80.6941 191.899 80.4722 192.343 80.4722C192.441 80.4722 192.525 80.4787 192.636 80.5048ZM193.011 85.08V84.708H193.357C193.631 84.708 193.905 84.6884 194.062 84.2642L194.199 83.8922L192.919 80.544H193.396L194.414 83.2982L195.413 80.544H195.876L194.427 84.4273C194.244 84.9234 193.938 85.1257 193.487 85.1257C193.298 85.1257 193.154 85.1126 193.011 85.08ZM198.663 83.7029H198.213V80.544H198.604L198.657 80.9943C198.813 80.6615 199.166 80.4591 199.61 80.4591C200.106 80.4591 200.478 80.7202 200.628 81.1314C200.771 80.7202 201.156 80.4591 201.665 80.4591C202.351 80.4591 202.801 80.9029 202.801 81.6339V83.7029H202.364V81.7253C202.364 81.1836 202.064 80.8638 201.581 80.8638C201.052 80.8638 200.739 81.2619 200.739 81.7514V83.7029H200.295V81.7188C200.295 81.1836 199.988 80.8703 199.512 80.8703C198.983 80.8703 198.663 81.2619 198.663 81.7449V83.7029ZM203.485 82.1234C203.485 81.1575 204.164 80.4591 205.091 80.4591C206.017 80.4591 206.696 81.1575 206.696 82.1234C206.696 83.0828 206.017 83.7812 205.091 83.7812C204.164 83.7812 203.485 83.0828 203.485 82.1234ZM203.942 82.1169C203.942 82.8609 204.412 83.3765 205.091 83.3765C205.763 83.3765 206.239 82.8609 206.239 82.1169C206.239 81.3859 205.763 80.8638 205.091 80.8638C204.412 80.8638 203.942 81.3859 203.942 82.1169ZM207.867 83.7029H207.416V80.544H207.808L207.873 81.0922C208.082 80.6876 208.5 80.4591 208.957 80.4591C209.825 80.4591 210.184 80.9747 210.184 81.771V83.7029H209.733V81.8689C209.733 81.1314 209.401 80.8703 208.878 80.8703C208.232 80.8703 207.867 81.3402 207.867 82.0516V83.7029ZM211.806 83.7029H211.362V80.9225H210.729V80.544H211.362V79.5454H211.806V80.544H212.439V80.9225H211.806V83.7029ZM213.476 83.6964H213.025V78.9449H213.476V81.0922C213.678 80.7137 214.063 80.4591 214.592 80.4591C215.421 80.4591 215.793 80.9747 215.793 81.771V83.7029H215.342V81.8689C215.342 81.1314 214.996 80.8703 214.507 80.8703C213.828 80.8703 213.476 81.3729 213.476 81.9798V83.6964Z" fill="#474D6A"/>
</g>
<defs>
<filter id="filter0_d_11_1895" x="128.744" y="33.3589" width="175.044" height="90.7415" filterUnits="userSpaceOnUse" color-interpolation-filters="sRGB">
<feFlood flood-opacity="0" result="BackgroundImageFix"/>
<feColorMatrix in="SourceAlpha" type="matrix" values="0 0 0 0 0 0 0 0 0 0 0 0 0 0 0 0 0 0 127 0" result="hardAlpha"/>
<feOffset dy="7.61443"/>
<feGaussianBlur stdDeviation="10.8778"/>
<feColorMatrix type="matrix" values="0 0 0 0 0.117647 0 0 0 0 0.0392157 0 0 0 0 0.227451 0 0 0 0.1 0"/>
<feBlend mode="normal" in2="BackgroundImageFix" result="effect1_dropShadow_11_1895"/>
<feBlend mode="normal" in="SourceGraphic" in2="effect1_dropShadow_11_1895" result="shape"/>
</filter>
<filter id="filter1_i_11_1895" x="164.255" y="59.2908" width="8.89355" height="4.45508" filterUnits="userSpaceOnUse" color-interpolation-filters="sRGB">
<feFlood flood-opacity="0" result="BackgroundImageFix"/>
<feBlend mode="normal" in="SourceGraphic" in2="BackgroundImageFix" result="shape"/>
<feColorMatrix in="SourceAlpha" type="matrix" values="0 0 0 0 0 0 0 0 0 0 0 0 0 0 0 0 0 0 127 0" result="hardAlpha"/>
<feOffset/>
<feGaussianBlur stdDeviation="0.316591"/>
<feComposite in2="hardAlpha" operator="arithmetic" k2="-1" k3="1"/>
<feColorMatrix type="matrix" values="0 0 0 0 1 0 0 0 0 1 0 0 0 0 1 0 0 0 0.674847 0"/>
<feBlend mode="normal" in2="shape" result="effect1_innerShadow_11_1895"/>
</filter>
<filter id="filter2_f_11_1895" x="166.564" y="63.7584" width="4.55148" height="3.22409" filterUnits="userSpaceOnUse" color-interpolation-filters="sRGB">
<feFlood flood-opacity="0" result="BackgroundImageFix"/>
<feBlend mode="normal" in="SourceGraphic" in2="BackgroundImageFix" result="shape"/>
<feGaussianBlur stdDeviation="0.573723" result="effect1_foregroundBlur_11_1895"/>
</filter>
<filter id="filter3_i_11_1895" x="165.772" y="57.9307" width="5.8457" height="6.50684" filterUnits="userSpaceOnUse" color-interpolation-filters="sRGB">
<feFlood flood-opacity="0" result="BackgroundImageFix"/>
<feBlend mode="normal" in="SourceGraphic" in2="BackgroundImageFix" result="shape"/>
<feColorMatrix in="SourceAlpha" type="matrix" values="0 0 0 0 0 0 0 0 0 0 0 0 0 0 0 0 0 0 127 0" result="hardAlpha"/>
<feOffset/>
<feGaussianBlur stdDeviation="0.633183"/>
<feComposite in2="hardAlpha" operator="arithmetic" k2="-1" k3="1"/>
<feColorMatrix type="matrix" values="0 0 0 0 1 0 0 0 0 1 0 0 0 0 1 0 0 0 0.876585 0"/>
<feBlend mode="normal" in2="shape" result="effect1_innerShadow_11_1895"/>
</filter>
<filter id="filter4_f_11_1895" x="162.897" y="54.9126" width="11.8905" height="6.44818" filterUnits="userSpaceOnUse" color-interpolation-filters="sRGB">
<feFlood flood-opacity="0" result="BackgroundImageFix"/>
<feBlend mode="normal" in="SourceGraphic" in2="BackgroundImageFix" result="shape"/>
<feGaussianBlur stdDeviation="1.14745" result="effect1_foregroundBlur_11_1895"/>
</filter>
<filter id="filter5_i_11_1895" x="165.324" y="57.7385" width="6.76971" height="1.00745" filterUnits="userSpaceOnUse" color-interpolation-filters="sRGB">
<feFlood flood-opacity="0" result="BackgroundImageFix"/>
<feBlend mode="normal" in="SourceGraphic" in2="BackgroundImageFix" result="shape"/>
<feColorMatrix in="SourceAlpha" type="matrix" values="0 0 0 0 0 0 0 0 0 0 0 0 0 0 0 0 0 0 127 0" result="hardAlpha"/>
<feOffset dy="0.211061"/>
<feGaussianBlur stdDeviation="0.211061"/>
<feComposite in2="hardAlpha" operator="arithmetic" k2="-1" k3="1"/>
<feColorMatrix type="matrix" values="0 0 0 0 1 0 0 0 0 1 0 0 0 0 1 0 0 0 0.791752 0"/>
<feBlend mode="normal" in2="shape" result="effect1_innerShadow_11_1895"/>
</filter>
<filter id="filter6_i_11_1895" x="166.652" y="65.7028" width="4.11493" height="1.32739" filterUnits="userSpaceOnUse" color-interpolation-filters="sRGB">
<feFlood flood-opacity="0" result="BackgroundImageFix"/>
<feBlend mode="normal" in="SourceGraphic" in2="BackgroundImageFix" result="shape"/>
<feColorMatrix in="SourceAlpha" type="matrix" values="0 0 0 0 0 0 0 0 0 0 0 0 0 0 0 0 0 0 127 0" result="hardAlpha"/>
<feOffset/>
<feGaussianBlur stdDeviation="0.10553"/>
<feComposite in2="hardAlpha" operator="arithmetic" k2="-1" k3="1"/>
<feColorMatrix type="matrix" values="0 0 0 0 1 0 0 0 0 1 0 0 0 0 1 0 0 0 0.1967 0"/>
<feBlend mode="normal" in2="shape" result="effect1_innerShadow_11_1895"/>
</filter>
<linearGradient id="paint0_linear_11_1895" x1="163.776" y1="61.6077" x2="169.242" y2="65.4799" gradientUnits="userSpaceOnUse">
<stop stop-color="white" stop-opacity="0.894418"/>
<stop offset="1" stop-opacity="0.5"/>
</linearGradient>
<linearGradient id="paint1_linear_11_1895" x1="165.911" y1="57.0967" x2="163.052" y2="61.2299" gradientUnits="userSpaceOnUse">
<stop stop-color="white"/>
<stop offset="1" stop-color="white" stop-opacity="0.01"/>
</linearGradient>
<linearGradient id="paint2_linear_11_1895" x1="163.632" y1="58.1367" x2="164.076" y2="60.0234" gradientUnits="userSpaceOnUse">
<stop stop-color="#CCCCCC" stop-opacity="0.5"/>
<stop offset="0.610565" stop-color="white" stop-opacity="0.5"/>
<stop offset="1" stop-opacity="0.5"/>
</linearGradient>
<linearGradient id="paint3_linear_11_1895" x1="166.652" y1="65.7028" x2="166.652" y2="67.0302" gradientUnits="userSpaceOnUse">
<stop stop-color="white" stop-opacity="0.0275702"/>
<stop offset="1" stop-opacity="0.5"/>
</linearGradient>
</defs>
</svg>
