<svg width="12" height="11" viewBox="0 0 12 11" fill="none" xmlns="http://www.w3.org/2000/svg">
<path d="M1.75084 10.1662H10.5358C11.4342 10.1662 11.9942 9.19199 11.545 8.41616L7.15251 0.826992C6.70334 0.0511589 5.58334 0.0511589 5.13417 0.826992L0.741674 8.41616C0.292507 9.19199 0.852507 10.1662 1.75084 10.1662ZM6.14334 6.08283C5.82251 6.08283 5.56001 5.82033 5.56001 5.49949V4.33283C5.56001 4.01199 5.82251 3.74949 6.14334 3.74949C6.46417 3.74949 6.72667 4.01199 6.72667 4.33283V5.49949C6.72667 5.82033 6.46417 6.08283 6.14334 6.08283ZM6.72667 8.41616H5.56001V7.24949H6.72667V8.41616Z" fill="#F04141"/>
</svg>
