
<svg width="14" height="14" viewBox="0 0 14 14" fill="none" xmlns="http://www.w3.org/2000/svg">
<path fill-rule="evenodd" clip-rule="evenodd" d="M10.7871 2.17293C10.5113 2.17293 10.2467 2.2825 10.0517 2.47754L2.88275 9.64648L2.3925 11.6075L4.35352 11.1172L11.5225 3.9483C11.7175 3.75326 11.8271 3.48874 11.8271 3.21292C11.8271 2.9371 11.7175 2.67257 11.5225 2.47754C11.3274 2.2825 11.0629 2.17293 10.7871 2.17293ZM9.22231 1.64815C9.63731 1.23315 10.2002 1 10.7871 1C11.374 1 11.9368 1.23315 12.3519 1.64815C12.7669 2.06315 13 2.62602 13 3.21292C13 3.79982 12.7669 4.36268 12.3519 4.77769L5.06804 12.0615C4.99288 12.1367 4.8987 12.19 4.79558 12.2158L1.72872 12.9825C1.52886 13.0324 1.31745 12.9739 1.17178 12.8282C1.02612 12.6825 0.96756 12.4711 1.01752 12.2713L1.78424 9.20441C1.81002 9.10129 1.86334 9.00712 1.9385 8.93196L9.22231 1.64815Z" fill="#717B9E"/>
</svg>
