<svg width="70" height="65" viewBox="0 0 70 65" fill="none" xmlns="http://www.w3.org/2000/svg">
<ellipse opacity="0.48" cx="35.0258" cy="30.487" rx="25.2641" ry="22.9968" fill="url(#paint0_radial_5080_47427)"/>
<path opacity="0.6" d="M63.9305 4.39554C66.996 8.26684 69.3056 12.6804 70.7388 17.4059L36.5671 27.7699C36.4342 27.3317 36.22 26.9223 35.9357 26.5633L63.9305 4.39554Z" fill="url(#paint1_linear_5080_47427)" fill-opacity="0.71"/>
<path opacity="0.6" d="M72.1739 33.373C71.6041 38.2781 70.1164 43.0321 67.7884 47.3869L36.2969 30.5524C36.5128 30.1485 36.6508 29.7076 36.7037 29.2527L72.1739 33.373Z" fill="url(#paint2_linear_5080_47427)" fill-opacity="0.71"/>
<path opacity="0.6" d="M57.5105 59.69C53.6392 62.7555 49.2256 65.0651 44.5001 66.4983L34.1361 32.3266C34.5743 32.1937 34.9837 31.9795 35.3427 31.6952L57.5105 59.69Z" fill="url(#paint3_linear_5080_47427)" fill-opacity="0.71"/>
<path opacity="0.6" d="M26.537 67.6432C21.6676 66.8227 16.9961 65.0932 12.7663 62.545L31.1933 31.958C31.5856 32.1943 32.0188 32.3547 32.4704 32.4308L26.537 67.6432Z" fill="url(#paint4_linear_5080_47427)" fill-opacity="0.71"/>
<path opacity="0.6" d="M-0.205745 49.8411C-2.84161 45.6654 -4.66816 41.031 -5.59006 36.1798L29.4909 29.5132C29.5764 29.9631 29.7458 30.3929 29.9902 30.7802L-0.205745 49.8411Z" fill="url(#paint5_linear_5080_47427)" fill-opacity="0.71"/>
<path opacity="0.6" d="M-5.58223 21.4412C-4.65519 16.591 -2.82372 11.9585 -0.183422 7.78559L29.9923 26.8785C29.7475 27.2655 29.5776 27.6952 29.4916 28.145L-5.58223 21.4412Z" fill="url(#paint6_linear_5080_47427)" fill-opacity="0.71"/>
<defs>
<radialGradient id="paint0_radial_5080_47427" cx="0" cy="0" r="1" gradientUnits="userSpaceOnUse" gradientTransform="translate(35.0258 30.487) rotate(90) scale(22.9968 25.2641)">
<stop stop-color="#FFA528"/>
<stop offset="1" stop-color="#E59627" stop-opacity="0"/>
</radialGradient>
<linearGradient id="paint1_linear_5080_47427" x1="72.0121" y1="8.27264" x2="35.957" y2="27.6128" gradientUnits="userSpaceOnUse">
<stop stop-color="white" stop-opacity="0"/>
<stop offset="1" stop-color="#FFB820"/>
</linearGradient>
<linearGradient id="paint2_linear_5080_47427" x1="75.147" y1="41.8291" x2="35.9766" y2="30.0099" gradientUnits="userSpaceOnUse">
<stop stop-color="white" stop-opacity="0"/>
<stop offset="1" stop-color="#FFB820"/>
</linearGradient>
<linearGradient id="paint3_linear_5080_47427" x1="53.6334" y1="67.7716" x2="34.2932" y2="31.7165" gradientUnits="userSpaceOnUse">
<stop stop-color="white" stop-opacity="0"/>
<stop offset="1" stop-color="#FFB820"/>
</linearGradient>
<linearGradient id="paint4_linear_5080_47427" x1="17.9396" y1="70.1788" x2="31.7515" y2="31.6659" gradientUnits="userSpaceOnUse">
<stop stop-color="white" stop-opacity="0"/>
<stop offset="1" stop-color="#FFB820"/>
</linearGradient>
<linearGradient id="paint5_linear_5080_47427" x1="-7.82861" y1="45.1255" x2="30.0808" y2="29.7344" gradientUnits="userSpaceOnUse">
<stop stop-color="white" stop-opacity="0"/>
<stop offset="1" stop-color="#FFB820"/>
</linearGradient>
<linearGradient id="paint6_linear_5080_47427" x1="-7.9288" y1="12.7903" x2="30.2721" y2="27.443" gradientUnits="userSpaceOnUse">
<stop stop-color="white" stop-opacity="0"/>
<stop offset="1" stop-color="#FFB820"/>
</linearGradient>
</defs>
</svg>
