<svg width="127" height="127" viewBox="0 0 127 127" fill="none" xmlns="http://www.w3.org/2000/svg">
<path d="M93.4004 98.9542V84.5169C95.0921 77.6685 95.9482 70.6231 95.9516 63.5675L95.9516 47.3026L95.9516 41.5616C95.9516 37.3425 92.5172 33.9082 88.3015 33.9116L87.0242 33.9116C85.3461 33.9116 83.7902 34.4551 82.5266 35.3791C81.3274 32.7124 78.6506 30.8509 75.5423 30.8542L74.2684 30.8576C72.5699 30.8576 70.9631 31.4046 69.6383 32.4169C68.3848 29.9065 65.786 28.1774 62.7899 28.1774L61.516 28.1808C60.1232 28.1808 58.8154 28.5579 57.6876 29.2101L57.6876 20.5273C57.6876 16.3082 54.2566 12.8773 50.0375 12.8773L48.7602 12.8773C44.5411 12.8773 41.1101 16.3082 41.1101 20.5273L41.1101 47.3094V55.3535L37.7029 51.9463C34.7203 48.9637 29.866 48.9603 26.88 51.9463L25.8745 52.9518C22.9191 55.9072 22.8545 60.5985 25.7386 63.632L40.8655 79.5606C42.1972 80.967 43.1585 82.6893 43.6613 84.5576L43.6613 98.961C43.6613 101.006 44.4562 102.929 45.8999 104.372C47.3436 105.816 49.2698 106.614 51.3114 106.611L85.7435 106.611C87.7885 106.611 89.7112 105.816 91.155 104.372C92.5987 102.929 93.397 101.003 93.3936 98.961L93.4004 98.9542ZM28.514 60.9926C27.0736 59.4775 27.1042 57.1302 28.5819 55.6525L29.5874 54.6469C31.0787 53.1556 33.5042 53.1556 34.9955 54.6469L41.6672 61.3187C42.2141 61.8656 43.0362 62.0286 43.753 61.7331C44.4698 61.4376 44.9352 60.7412 44.9352 59.9667L44.9352 47.3026L44.9386 20.5239C44.9419 18.4144 46.654 16.6955 48.7636 16.6989L50.0409 16.6989C52.1504 16.7023 53.8659 18.4178 53.8659 20.5239L53.8659 35.8173C53.8659 35.8173 53.8659 35.8241 53.8659 35.8309L53.8659 51.131C53.8659 51.3281 53.8965 51.5217 53.9508 51.6983C54.046 51.9973 54.2056 52.2656 54.423 52.483C54.6404 52.7004 54.9054 52.8635 55.2077 52.9552C55.3878 53.013 55.578 53.0401 55.775 53.0401C56.8349 53.0401 57.691 52.1841 57.6876 51.1276V35.8207C57.6944 33.7145 59.4064 32.0024 61.516 31.999L62.7899 31.9956C64.8994 31.999 66.6149 33.7145 66.6149 35.8207V38.4975V51.1208C66.6149 51.1888 66.6183 51.2533 66.6251 51.3145C66.6387 51.4435 66.6625 51.5692 66.6998 51.6881C66.7372 51.807 66.7848 51.9225 66.8459 52.0312C66.9071 52.1399 66.975 52.2418 67.0497 52.337C67.0905 52.3845 67.1279 52.4287 67.172 52.4728C67.2162 52.517 67.257 52.5578 67.3079 52.5951C67.3996 52.6733 67.5049 52.7446 67.6136 52.799C67.7223 52.8601 67.8378 52.9077 67.9567 52.945C68.0756 52.9824 68.2013 53.0062 68.3304 53.0198C68.395 53.0232 68.4629 53.03 68.524 53.03C69.5839 53.03 70.44 52.1739 70.4366 51.1174L70.4366 38.4873C70.4366 37.4682 70.834 36.5069 71.5576 35.7833C72.2811 35.0598 73.2425 34.6623 74.265 34.6657L75.5389 34.6623C77.6484 34.6657 79.3639 36.3812 79.3639 38.4873L79.3639 41.5447L79.3639 53.0198C79.3639 53.5497 79.5779 54.0287 79.9244 54.3752C80.0977 54.5484 80.3049 54.6877 80.5325 54.7862C80.648 54.8338 80.7669 54.8711 80.8892 54.8983C81.0149 54.9221 81.144 54.9357 81.273 54.9357C82.3329 54.9357 83.189 54.0796 83.1856 53.0232L83.1856 41.548C83.1822 39.4385 84.9045 37.723 87.0106 37.723L88.2879 37.723C90.3974 37.7264 92.1129 39.4419 92.1129 41.548L92.1129 47.289L92.1129 63.5539C92.1129 69.8791 91.3928 76.1976 89.966 82.3598H67.8107L46.9802 82.3598C46.2566 80.3318 45.1152 78.4702 43.6273 76.9076L28.5004 60.979L28.514 60.9926ZM85.7469 102.783L51.3148 102.783C49.2697 102.783 47.4897 101.003 47.4897 98.9576L47.4897 86.2052L89.572 86.2052L89.572 93.2166L67.4438 93.2166C66.3839 93.2166 65.5279 94.0727 65.5313 95.1291C65.5313 95.6591 65.7453 96.1381 66.0918 96.4846C66.4383 96.831 66.9173 97.0451 67.4472 97.0451L89.5754 97.0451L89.5754 98.961C89.5754 99.9801 89.1745 100.945 88.4543 101.665C87.7342 102.385 86.7694 102.786 85.7503 102.786L85.7469 102.783Z" fill="white"/>
</svg>
