<svg width="14" height="15" viewBox="0 0 14 15" fill="none" xmlns="http://www.w3.org/2000/svg">
<path d="M4.26551 13.2613H2.57105C2.27145 13.2613 1.98412 13.1423 1.77227 12.9304C1.56042 12.7186 1.44141 12.4312 1.44141 12.1316V8.17788C1.44141 7.87828 1.56042 7.59095 1.77227 7.3791C1.98412 7.16726 2.27145 7.04824 2.57105 7.04824H4.26551M8.21927 5.9186V3.65931C8.21927 3.20991 8.04074 2.77892 7.72297 2.46114C7.4052 2.14337 6.9742 1.96484 6.5248 1.96484L4.26551 7.04824V13.2613H10.6367C10.9091 13.2644 11.1735 13.1689 11.3811 12.9924C11.5887 12.816 11.7255 12.5704 11.7663 12.3011L12.5458 7.21769C12.5704 7.05578 12.5595 6.89047 12.5138 6.73321C12.4681 6.57595 12.3888 6.43049 12.2814 6.30692C12.1739 6.18335 12.0409 6.08461 11.8915 6.01756C11.7421 5.95051 11.5799 5.91674 11.4162 5.9186H8.21927Z" stroke="#717B9E" stroke-width="1.3" stroke-linecap="round" stroke-linejoin="round"/>
</svg>
