<svg width="14" height="18" viewBox="0 0 14 18" fill="none" xmlns="http://www.w3.org/2000/svg">
<path d="M12.6735 7.58023C12.6735 12.3344 6.69684 16.4093 6.69684 16.4093C6.69684 16.4093 0.720215 12.3344 0.720215 7.58023C0.720215 5.95911 1.34989 4.40438 2.47073 3.25807C3.59156 2.11176 5.11174 1.46777 6.69684 1.46777C8.28194 1.46777 9.80212 2.11176 10.923 3.25807C12.0438 4.40438 12.6735 5.95911 12.6735 7.58023Z" stroke="#FFFA50" stroke-width="1.3" stroke-linecap="round" stroke-linejoin="round"/>
<path d="M6.6968 9.88042C8.07214 9.88042 9.18706 8.7655 9.18706 7.39016C9.18706 6.01483 8.07214 4.8999 6.6968 4.8999C5.32147 4.8999 4.20654 6.01483 4.20654 7.39016C4.20654 8.7655 5.32147 9.88042 6.6968 9.88042Z" stroke="#FFFA50" stroke-width="1.3" stroke-linecap="round" stroke-linejoin="round"/>
</svg>
