<svg width="43" height="34" viewBox="0 0 43 34" fill="none" xmlns="http://www.w3.org/2000/svg">
<path d="M24.1405 4.71359C12.0169 1.94821 5.00421 5.00879 3.75781 10.4731C2.98595 13.857 4.72517 17.3962 8.96706 20.2407L4.9818 26.2772L14.0847 22.8382C15.7374 23.4752 17.5848 24.0358 19.6268 24.5016C31.4408 27.1963 38.7631 24.2064 40.0095 18.7421C41.2076 13.4895 36.2349 6.11081 20.7175 7.62838" stroke="#DDE5B6" stroke-width="0.87945"/>
<path d="M11.7991 11.1968C11.7991 11.1968 11.3622 14.8864 12.9721 15.7406C15.0689 16.8531 17.2037 11.334 17.2037 11.334C17.2037 11.334 17.1277 16.7193 19.5392 17.2385C22.108 17.7916 23.8803 12.0441 23.8803 12.0441C23.8803 12.0441 23.6375 18.7985 26.6247 19.3849C29.4739 19.9441 32.0709 14.2658 32.0709 14.2658" stroke="#DDE5B6" stroke-width="1.14869"/>
</svg>
