<svg width="80" height="80" viewBox="0 0 80 80" fill="none" xmlns="http://www.w3.org/2000/svg">
<rect width="80" height="80" rx="40" fill="white"/>
<path d="M40.3319 47.684H36.4197V46.584C36.4197 42.844 38.8929 40.82 41.3212 38.972C43.5246 37.3 45.5482 35.672 45.5482 32.768C45.5482 29.38 43.2548 26.872 39.5675 26.872C36.015 26.872 33.3619 29.6 33.3619 33.208H29C29 27.356 33.5867 23 39.6574 23C46.0428 23 50 26.96 50 32.548C50 37.168 46.9422 39.412 44.334 41.26C41.9508 42.932 40.3319 44.34 40.3319 46.584V47.684ZM38.5782 58C36.7794 58 35.3405 56.592 35.3405 54.876C35.3405 53.16 36.7794 51.752 38.5782 51.752C40.2869 51.752 41.7709 53.204 41.7709 54.876C41.7709 56.548 40.2869 58 38.5782 58Z" fill="#979EC2"/>
</svg>
