<svg width="127" height="127" viewBox="0 0 127 127" fill="none" xmlns="http://www.w3.org/2000/svg">
<path d="M85.8834 20.2851C85.8834 18.24 85.0885 16.3171 83.6447 14.8733C82.2008 13.4295 80.278 12.6345 78.2363 12.6311L76.9589 12.6311C72.7395 12.6311 69.3049 16.0657 69.3083 20.2817L69.3083 28.965C68.1805 28.3127 66.8725 27.9357 65.4797 27.9357L64.2023 27.9357C61.2059 27.9357 58.6104 29.6682 57.3569 32.1788C56.0693 31.197 54.4658 30.6127 52.7264 30.6127L51.4491 30.6127C48.344 30.6127 45.667 32.4744 44.4677 35.1412C43.2074 34.2205 41.6514 33.677 39.9698 33.6736L38.6958 33.677C34.4765 33.677 31.0453 37.1082 31.0453 41.3275L31.0453 47.0689L31.0453 63.3348C31.0453 70.3875 31.9048 77.4367 33.5966 84.2855L33.5966 98.7238C33.5966 102.943 37.0312 106.378 41.2472 106.374L75.6816 106.374C77.7267 106.374 79.6495 105.579 81.0933 104.136C82.5372 102.692 83.3321 100.769 83.3321 98.7238L83.3321 84.3195C83.8349 82.451 84.7963 80.7286 86.1281 79.3222L101.256 63.3926C104.137 60.3622 104.076 55.6673 101.12 52.7117L100.114 51.7061C97.1317 48.7233 92.2737 48.7233 89.2909 51.7061L85.8834 55.1135L85.8835 47.0689L85.8834 20.2851ZM79.5068 98.717C79.5068 100.762 77.7267 102.542 75.6815 102.542L41.2472 102.542C39.1409 102.542 37.4219 100.823 37.4219 98.717L37.4219 96.8009L59.5515 96.8009C60.0814 96.8009 60.5604 96.5869 60.907 96.2404C61.2535 95.8939 61.4675 95.4149 61.4675 94.8849C61.4675 93.825 60.6114 92.9689 59.5549 92.9723L37.4253 92.9723L37.4253 85.9604L79.5102 85.9604L79.5102 98.7136L79.5068 98.717ZM83.237 61.4969C83.9538 61.7925 84.7759 61.6294 85.3229 61.0825L91.9951 54.4103C93.4865 52.9189 95.9121 52.9189 97.4035 54.4103L98.409 55.4159C99.8868 56.8937 99.9174 59.2412 98.477 60.7563L83.3491 76.6859C81.8645 78.2521 80.7196 80.1171 79.996 82.1385L37.0074 82.1385C35.5806 75.9759 34.8604 69.6571 34.8604 63.3314L34.8604 47.0655L34.8604 41.3241C34.8638 39.2145 36.576 37.4955 38.689 37.4955L39.963 37.4921C42.0727 37.4955 43.7883 39.2111 43.7883 41.3174L43.7883 52.7932C43.7883 53.8531 44.6444 54.7093 45.7009 54.7059C46.2309 54.7059 46.7099 54.4918 47.0564 54.1453C47.403 53.7988 47.617 53.3198 47.617 52.7898L47.617 38.2497C47.6204 36.14 49.336 34.4244 51.4423 34.4244L52.7196 34.4244C54.8259 34.4244 56.5381 36.1366 56.5449 38.2361L56.5449 50.8738C56.5449 51.9337 57.401 52.7898 58.4576 52.7864C58.5255 52.7864 58.5901 52.783 58.6512 52.7762C58.7803 52.7626 58.906 52.7388 59.0249 52.7015C59.1438 52.6641 59.2593 52.6166 59.368 52.5554C59.4767 52.4943 59.5786 52.4263 59.6738 52.3516C59.7213 52.3108 59.7655 52.2734 59.8097 52.2293C59.8538 52.1851 59.8946 52.1443 59.932 52.0934C60.0101 52.0017 60.0814 51.8963 60.1358 51.7876C60.1901 51.6789 60.2445 51.5634 60.2819 51.4445C60.3192 51.3256 60.343 51.1999 60.3566 51.0708C60.36 51.0063 60.3668 50.9383 60.3668 50.8772L60.3668 38.2531C60.3668 38.2531 60.3634 38.2361 60.3668 38.2259L60.3668 35.576C60.3702 33.4664 62.0858 31.7507 64.1921 31.7507L65.4695 31.7507C67.5757 31.7507 69.2914 33.4663 69.2914 35.5726L69.2913 50.8806C69.2913 51.9405 70.1474 52.7966 71.204 52.7932C71.401 52.7932 71.5947 52.7626 71.7713 52.7083C72.0703 52.6131 72.3387 52.4535 72.5561 52.2361C72.7599 52.0322 72.9128 51.7842 73.0113 51.5091C73.0351 51.4309 73.0623 51.3494 73.0793 51.2713C73.103 51.1456 73.1166 51.0165 73.1166 50.8874L73.1166 35.5862C73.1166 35.5862 73.1166 35.5794 73.1166 35.5726L73.1166 20.2783C73.1166 18.172 74.8322 16.4496 76.9419 16.453L78.2193 16.453C79.2384 16.453 80.1999 16.8505 80.9235 17.5741C81.6471 18.2977 82.0446 19.2591 82.0446 20.2783L82.0446 47.0621L82.0446 59.727C82.0446 60.5015 82.51 61.198 83.2268 61.4935L83.237 61.4969Z" fill="white"/>
</svg>
