<svg width="114" height="90" viewBox="0 0 114 90" fill="none" xmlns="http://www.w3.org/2000/svg">
<path d="M81.803 69.4142H97.372V87.7821H37.4579V69.4142H57.575V37.4892C52.3271 41.8625 45.2423 42.4748 39.2072 42.4748V22.1827C45.2423 22.1827 51.4524 20.0835 57.575 14.3108H81.803V69.4142Z" fill="url(#paint0_linear_8445_1522)"/>
<path d="M74.9719 69.5837H90.5408V87.9515H30.6267V69.5837H50.7438V37.6587C45.4959 42.0319 38.4112 42.6442 32.376 42.6442V22.3521C38.4112 22.3521 44.6212 20.253 50.7438 14.4802H74.9719V69.5837Z" fill="white"/>
<path d="M1.80845 35.0764C1.6485 35.2167 1.51791 34.939 1.34121 34.512C1.29544 34.2924 1.29558 34.0651 1.34162 33.8447C1.42659 33.7166 1.52557 33.5987 1.63662 33.4935C2.10463 33.3413 2.58025 33.2156 3.06131 33.1168C3.38809 33.0396 3.72346 33.0099 4.05752 33.0284L6.0586 33.0617C6.20617 33.0638 6.35228 33.0898 6.49148 33.1388C6.97756 33.2888 7.48644 33.35 7.99484 33.3195C8.08127 33.3327 8.1698 33.3158 8.24622 33.2715C8.78944 33.207 9.33829 33.225 9.87488 33.3251C10.2832 33.5181 10.7119 33.5834 11.1577 33.7157C11.2205 33.7454 11.2677 33.7676 11.3462 33.8048C11.3931 33.869 11.4549 33.9203 11.5262 33.954C11.5974 33.9877 11.6758 34.0027 11.7545 33.9978C11.9413 34.0443 12.1244 34.1046 12.3024 34.1783C12.3994 34.2362 12.4895 34.3052 12.5712 34.3839C12.6654 34.4285 12.6043 34.645 12.5737 34.6698C12.5432 34.6946 12.5542 34.8372 12.5639 34.9203L12.5306 34.9929C12.1306 35.2273 11.7162 35.4347 11.2901 35.6137C11.2531 35.6943 9.66963 35.7505 9.50653 35.7519C9.41034 35.7546 9.31519 35.7332 9.22934 35.6895C9.19008 35.671 7.91894 35.7963 7.87227 35.7939C7.60754 35.7669 7.34876 35.831 7.09613 35.6527C7.04117 35.6267 7.0019 35.6081 6.96264 35.5895C6.5137 35.5823 6.06619 35.5413 5.62373 35.4669C5.39781 35.4386 5.16909 35.4581 4.94362 35.4496C4.90505 35.4368 4.86814 35.4194 4.83368 35.3976C4.78867 35.371 4.74136 35.3487 4.69234 35.3308C4.16004 35.2898 3.62529 35.2862 3.09184 35.32C2.968 35.34 2.38457 35.1329 2.21407 35.1504C2.04357 35.1679 1.88102 35.0224 1.80845 35.0764Z" fill="white"/>
<path d="M13.3911 16.9387C13.5453 16.9803 13.4515 17.1765 13.2151 17.4746C13.0966 17.6018 12.9554 17.7051 12.7993 17.7787C12.689 17.7845 12.5784 17.7809 12.4689 17.7679C12.4208 17.7305 11.8711 17.3021 11.6856 17.1575C11.5042 17.0325 11.3446 16.8777 11.213 16.6994C10.9229 16.3611 10.6167 16.044 10.3274 15.7624C10.2599 15.6946 10.2058 15.6143 10.1678 15.5258C10.019 15.239 9.79866 14.9977 9.52871 14.8258C9.50984 14.8036 9.48553 14.787 9.4582 14.7775C9.43087 14.768 9.4015 14.766 9.37301 14.7717C9.06934 14.6345 8.78749 14.4526 8.53637 14.2319C8.36623 13.9871 8.16983 13.7626 7.95074 13.5623C7.95074 13.5623 7.88891 13.5141 7.84768 13.482C7.80646 13.4498 7.73771 13.2953 7.66366 13.2488C7.58962 13.2023 7.47816 13.1042 7.36823 13.0185C7.31979 12.9484 7.27737 12.874 7.24144 12.7963C7.24583 12.7207 7.27387 12.6482 7.32147 12.5895C7.37486 12.5189 7.36947 12.425 7.39004 12.3401C7.39935 12.3145 7.41612 12.2923 7.43809 12.2765C7.73751 12.1626 8.05222 12.0975 8.37053 12.0835C8.83537 12.1835 9.29199 12.3181 9.73671 12.4864C9.80568 12.5188 9.86666 12.5664 9.91534 12.6256C10.2364 12.7784 10.5495 12.9475 10.8535 13.1324C11.0184 13.261 11.1833 13.3895 11.2475 13.6078C11.2475 13.6078 11.3093 13.656 11.3436 13.6827C11.5903 13.9176 11.8084 14.1818 11.9934 14.4696C12.096 14.6052 12.2054 14.7353 12.321 14.8595L12.3508 14.9501L12.4012 15.0567C12.6677 15.3541 12.8426 15.7148 13.1251 15.991C13.1938 16.0446 13.3062 16.5023 13.3886 16.5666C13.4711 16.6309 13.327 16.9224 13.3911 16.9387Z" fill="white"/>
<path d="M27.6494 10.5093C27.7821 10.6602 27.5489 10.836 27.1654 10.9477C26.9775 10.9771 26.786 10.9607 26.6066 10.9C26.5181 10.8114 26.4353 10.7171 26.3586 10.6179C26.3297 10.5851 26.123 9.73531 26.0293 9.45493C25.9461 9.17962 25.8933 8.89548 25.8718 8.60768C25.8212 8.02896 25.7336 7.44833 25.6584 6.86834C25.648 6.7372 25.65 6.6052 25.6643 6.47414C25.7377 6.01248 25.7228 5.54184 25.6204 5.08798C25.601 5.05134 25.5742 5.0193 25.5418 4.9939C25.5094 4.9685 25.472 4.9503 25.432 4.94047C25.2721 4.46487 25.1863 3.96611 25.1778 3.46202C25.2525 3.05259 25.2715 2.64655 25.2897 2.25298C25.2897 2.25298 25.2654 2.14528 25.3251 2.07948C25.3847 2.01368 25.4275 1.82177 25.4229 1.69629C25.4129 1.52327 25.4216 1.34944 25.4488 1.17789C25.4799 1.07482 25.5321 0.979348 25.6019 0.897757C25.6739 0.832595 25.8912 0.81252 25.9208 0.832837C25.9504 0.853154 26.107 0.817418 26.2012 0.790981C26.2336 0.779897 26.2672 0.773211 26.3012 0.771102C26.5623 1.07251 26.7823 1.40817 26.9556 1.76929L27.1627 2.51264L27.4013 3.3453C27.459 3.41091 27.4094 3.51479 27.3974 3.60811C27.3855 3.70142 27.6898 4.76916 27.6932 4.81318C27.7032 5.05165 27.8 5.28209 27.6788 5.54508C27.6703 5.56727 27.6662 5.59092 27.6669 5.61462C27.6675 5.63832 27.6729 5.66159 27.6826 5.68304C27.741 6.09436 27.7648 6.51037 27.7538 6.9266C27.7595 7.13354 27.8022 7.34239 27.8202 7.54996C27.8212 7.59062 27.8124 7.63103 27.7944 7.66761C27.7852 7.71703 27.782 7.76736 27.7851 7.81742C27.8469 8.31531 27.8095 8.82059 27.9213 9.30855C27.9447 9.42874 27.7984 9.99727 27.8145 10.1359C27.8306 10.2745 27.604 10.4443 27.6494 10.5093Z" fill="white"/>
<path d="M101.527 49.6221C101.421 49.7431 101.29 49.5701 101.131 49.2221C101.071 49.0576 101.042 48.8834 101.046 48.709C101.09 48.6064 101.142 48.5078 101.202 48.4143C101.257 48.3876 101.879 48.0817 102.089 47.9784C102.28 47.8701 102.487 47.7948 102.703 47.7556C103.131 47.6445 103.547 47.5093 103.924 47.3734C104.014 47.3427 104.109 47.3296 104.204 47.3349C104.524 47.3287 104.835 47.2373 105.106 47.0698C105.134 47.0626 105.16 47.0481 105.18 47.0276C105.201 47.0071 105.216 46.9813 105.223 46.9529C105.479 46.7393 105.765 46.5655 106.071 46.437C106.363 46.3926 106.649 46.3153 106.923 46.2066C106.923 46.2066 106.993 46.1722 107.039 46.1493C107.086 46.1263 107.253 46.1334 107.327 46.0871C107.401 46.0409 107.537 45.9839 107.662 45.9227C107.745 45.9103 107.83 45.9052 107.914 45.9075C107.979 45.9454 108.031 46.0033 108.062 46.0728C108.1 46.1528 108.186 46.1901 108.252 46.2468C108.27 46.2667 108.283 46.2919 108.287 46.3188C108.255 46.6413 108.173 46.9557 108.044 47.2504C107.75 47.6268 107.428 47.9802 107.082 48.3077C107.023 48.3557 106.954 48.3896 106.88 48.4071C106.603 48.6295 106.315 48.8374 106.016 49.0299C105.83 49.1217 105.643 49.2135 105.421 49.1737C105.421 49.1737 105.351 49.2081 105.313 49.2272C104.996 49.3454 104.665 49.4246 104.329 49.4631C104.164 49.4953 104 49.536 103.839 49.585L103.746 49.5714L103.629 49.5693C103.248 49.6773 102.852 49.6741 102.482 49.8061C102.404 49.8444 101.95 49.7408 101.857 49.7867C101.763 49.8326 101.569 49.5713 101.527 49.6221Z" fill="white"/>
<path d="M100.892 65.4258C100.699 65.4783 100.647 65.1882 100.718 64.7906C100.776 64.6071 100.875 64.4409 101.008 64.3055C101.126 64.2651 101.246 64.2323 101.368 64.2073C101.409 64.1959 102.252 64.3898 102.542 64.4306C102.822 64.4788 103.097 64.5584 103.361 64.668C103.895 64.8817 104.447 65.0629 104.993 65.2549C105.114 65.3043 105.229 65.3653 105.339 65.437C105.715 65.7107 106.137 65.9083 106.584 66.0191C106.625 66.018 106.665 66.0081 106.702 65.9901C106.739 65.9721 106.771 65.9463 106.798 65.9145C107.289 65.983 107.768 66.129 108.218 66.3474C108.546 66.5988 108.897 66.7981 109.237 66.9911C109.237 66.9911 109.343 67.0175 109.375 67.1011C109.406 67.1846 109.557 67.3094 109.67 67.3616C109.827 67.4302 109.977 67.516 110.117 67.6176C110.194 67.692 110.256 67.7821 110.297 67.8821C110.322 67.9765 110.244 68.1824 110.213 68.2001C110.182 68.2179 110.144 68.3758 110.126 68.473C110.121 68.5073 110.112 68.5408 110.099 68.5726C109.717 68.6739 109.322 68.7228 108.926 68.7178L108.177 68.572L107.335 68.4147C107.252 68.4375 107.182 68.346 107.105 68.2933C107.028 68.2406 105.949 68.0374 105.908 68.0208C105.693 67.9228 105.446 67.9072 105.267 67.6794C105.252 67.6617 105.233 67.6474 105.211 67.6374C105.19 67.6273 105.167 67.6217 105.144 67.6209C104.754 67.4893 104.376 67.3243 104.013 67.1276C103.827 67.04 103.624 66.9849 103.432 66.9081C103.396 66.8908 103.364 66.8647 103.34 66.832C103.3 66.8014 103.257 66.776 103.211 66.7564C102.744 66.589 102.314 66.3284 101.833 66.2108C101.716 66.1781 101.278 65.7905 101.149 65.7429C101.019 65.6954 100.969 65.4138 100.892 65.4258Z" fill="white"/>
<defs>
<linearGradient id="paint0_linear_8445_1522" x1="67.4149" y1="87.7821" x2="67.4149" y2="14.3108" gradientUnits="userSpaceOnUse">
<stop stop-color="#8951FF"/>
<stop offset="1" stop-color="#8834BB"/>
</linearGradient>
</defs>
</svg>
