<svg width="120" height="90" viewBox="0 0 120 90" fill="none" xmlns="http://www.w3.org/2000/svg">
<path d="M94.8397 39.943C94.8397 63.416 65.1126 59.4362 58.9398 70.726H94.5961V87.7825H32.624V77.6298C32.624 48.4713 72.9099 51.7201 72.9099 41.0801C72.9099 37.9937 70.9606 35.6383 64.9502 35.6383C60.9703 35.6383 55.0412 36.5317 55.2036 43.0294H33.2738C33.2738 26.5415 43.5889 17.7695 63.9755 17.7695C83.4687 17.7695 94.8397 25.3231 94.8397 39.943Z" fill="url(#paint0_linear_8445_1510)"/>
<path d="M82.7098 39.943C82.7098 63.416 52.9828 59.4362 46.8099 70.726H82.4662V87.7825H20.4941V77.6298C20.4941 48.4713 60.78 51.7201 60.78 41.0801C60.78 37.9937 58.8307 35.6383 52.8203 35.6383C48.8405 35.6383 42.9113 36.5317 43.0737 43.0294H21.1439C21.1439 26.5415 31.459 17.7695 51.8457 17.7695C71.3388 17.7695 82.7098 25.3231 82.7098 39.943Z" fill="white"/>
<path d="M1.38438 35.0766C1.22442 35.2169 1.09384 34.9393 0.917138 34.5122C0.871369 34.2927 0.871509 34.0653 0.917548 33.845C1.00252 33.7169 1.1015 33.599 1.21254 33.4937C1.68056 33.3416 2.15618 33.2158 2.63724 33.1171C2.96402 33.0399 3.29939 33.0101 3.63345 33.0286L5.63452 33.0619C5.7821 33.0641 5.9282 33.0901 6.06741 33.139C6.55349 33.2891 7.06236 33.3503 7.57077 33.3198C7.6572 33.333 7.74572 33.3161 7.82215 33.2718C8.36537 33.2072 8.91422 33.2253 9.45081 33.3253C9.85913 33.5184 10.2879 33.5837 10.7336 33.7159C10.7965 33.7456 10.8436 33.7679 10.9221 33.805C10.969 33.8693 11.0308 33.9205 11.1021 33.9542C11.1733 33.9879 11.2518 34.003 11.3304 33.9981C11.5172 34.0445 11.7003 34.1049 11.8783 34.1786C11.9753 34.2364 12.0655 34.3054 12.1471 34.3842C12.2413 34.4287 12.1802 34.6452 12.1497 34.67C12.1192 34.6949 12.1302 34.8375 12.1398 34.9206L12.1065 34.9932C11.7065 35.2275 11.2921 35.4349 10.866 35.6139C10.829 35.6945 9.24556 35.7507 9.08246 35.7521C8.98627 35.7548 8.89111 35.7334 8.80527 35.6898C8.76601 35.6712 7.49486 35.7965 7.4482 35.7941C7.18347 35.7671 6.92469 35.8312 6.67206 35.6529C6.61709 35.6269 6.57783 35.6083 6.53857 35.5898C6.08963 35.5826 5.64212 35.5416 5.19965 35.4671C4.97374 35.4388 4.74501 35.4583 4.51954 35.4498C4.48097 35.4371 4.44407 35.4196 4.40961 35.3979C4.36459 35.3713 4.31729 35.3489 4.26827 35.331C3.73597 35.29 3.20121 35.2864 2.66777 35.3203C2.54393 35.3402 1.9605 35.1331 1.79 35.1506C1.6195 35.1682 1.45695 35.0226 1.38438 35.0766Z" fill="white"/>
<path d="M12.967 16.9387C13.1212 16.9803 13.0274 17.1765 12.791 17.4746C12.6725 17.6018 12.5313 17.7051 12.3752 17.7787C12.2649 17.7845 12.1544 17.7809 12.0448 17.7679C11.9967 17.7305 11.4471 17.3021 11.2616 17.1575C11.0801 17.0325 10.9205 16.8777 10.789 16.6994C10.4988 16.3611 10.1927 16.044 9.9033 15.7624C9.83583 15.6946 9.78168 15.6143 9.7437 15.5258C9.5949 15.239 9.37459 14.9977 9.10464 14.8258C9.08577 14.8036 9.06146 14.787 9.03413 14.7775C9.0068 14.768 8.97742 14.766 8.94894 14.7717C8.64527 14.6345 8.36342 14.4526 8.1123 14.2319C7.94216 13.9871 7.74576 13.7626 7.52667 13.5623C7.52667 13.5623 7.46484 13.5141 7.42361 13.482C7.38239 13.4498 7.31364 13.2953 7.23959 13.2488C7.16555 13.2023 7.05408 13.1042 6.94415 13.0185C6.89572 12.9484 6.8533 12.874 6.81737 12.7963C6.82175 12.7207 6.8498 12.6482 6.8974 12.5895C6.95079 12.5189 6.9454 12.425 6.96596 12.3401C6.97527 12.3145 6.99205 12.2923 7.01401 12.2765C7.31344 12.1626 7.62815 12.0975 7.94646 12.0835C8.4113 12.1835 8.86792 12.3181 9.31264 12.4864C9.38161 12.5188 9.44259 12.5664 9.49127 12.6256C9.8123 12.7784 10.1254 12.9475 10.4294 13.1324C10.5943 13.261 10.7592 13.3895 10.8234 13.6078C10.8234 13.6078 10.8852 13.656 10.9196 13.6827C11.1662 13.9176 11.3844 14.1818 11.5694 14.4696C11.672 14.6052 11.7813 14.7353 11.8969 14.8595L11.9267 14.9501L11.9771 15.0567C12.2436 15.3541 12.4185 15.7148 12.701 15.991C12.7697 16.0446 12.8821 16.5023 12.9646 16.5666C13.047 16.6309 12.9029 16.9224 12.967 16.9387Z" fill="white"/>
<path d="M27.2253 10.5093C27.358 10.6602 27.1249 10.836 26.7414 10.9477C26.5535 10.9771 26.3619 10.9607 26.1825 10.9C26.0941 10.8114 26.0112 10.7171 25.9345 10.6179C25.9057 10.5851 25.699 9.73531 25.6052 9.45493C25.522 9.17962 25.4692 8.89548 25.4477 8.60768C25.3971 8.02896 25.3096 7.44833 25.2343 6.86834C25.224 6.7372 25.2259 6.6052 25.2402 6.47414C25.3136 6.01248 25.2987 5.54184 25.1964 5.08798C25.177 5.05134 25.1502 5.0193 25.1177 4.9939C25.0853 4.9685 25.0479 4.9503 25.0079 4.94047C24.848 4.46487 24.7623 3.96611 24.7537 3.46202C24.8284 3.05259 24.8474 2.64655 24.8656 2.25298C24.8656 2.25298 24.8414 2.14528 24.901 2.07948C24.9606 2.01368 25.0034 1.82177 24.9988 1.69629C24.9888 1.52327 24.9975 1.34944 25.0247 1.17789C25.0558 1.07482 25.108 0.979348 25.1779 0.897757C25.2498 0.832595 25.4671 0.81252 25.4967 0.832837C25.5264 0.853154 25.6829 0.817418 25.7771 0.790981C25.8095 0.779897 25.8432 0.773211 25.8772 0.771102C26.1382 1.07251 26.3583 1.40817 26.5315 1.76929L26.7386 2.51264L26.9773 3.3453C27.0349 3.41091 26.9853 3.51479 26.9733 3.60811C26.9614 3.70142 27.2657 4.76916 27.2692 4.81318C27.2791 5.05165 27.376 5.28209 27.2547 5.54508C27.2462 5.56727 27.2422 5.59092 27.2428 5.61462C27.2435 5.63832 27.2488 5.66159 27.2586 5.68304C27.317 6.09436 27.3408 6.51037 27.3298 6.9266C27.3355 7.13354 27.3781 7.34239 27.3961 7.54996C27.3972 7.59062 27.3883 7.63103 27.3703 7.66761C27.3611 7.71703 27.358 7.76736 27.3611 7.81742C27.4228 8.31531 27.3854 8.82059 27.4972 9.30855C27.5206 9.42874 27.3743 9.99727 27.3904 10.1359C27.4066 10.2745 27.18 10.4443 27.2253 10.5093Z" fill="white"/>
<path d="M112.335 51.8912C112.204 51.9838 112.118 51.7844 112.046 51.4086C112.027 51.2346 112.041 51.0585 112.086 50.89C112.153 50.8008 112.227 50.7175 112.308 50.641C112.367 50.628 113.044 50.479 113.273 50.4287C113.484 50.369 113.704 50.3453 113.923 50.3587C114.365 50.3525 114.801 50.3203 115.2 50.2781C115.294 50.2696 115.389 50.2796 115.481 50.3074C115.792 50.3774 116.116 50.3627 116.42 50.2647C116.449 50.2644 116.477 50.2563 116.502 50.2413C116.527 50.2262 116.547 50.2047 116.561 50.179C116.861 50.0324 117.179 49.9316 117.508 49.8798C117.802 49.9061 118.097 49.8991 118.39 49.8588C118.39 49.8588 118.466 49.842 118.517 49.8309C118.567 49.8197 118.728 49.8663 118.811 49.839C118.894 49.8117 119.039 49.7887 119.175 49.7589C119.259 49.7667 119.342 49.7819 119.424 49.8043C119.478 49.8566 119.514 49.9251 119.528 49.9999C119.546 50.0869 119.62 50.1434 119.671 50.2142C119.684 50.238 119.69 50.2653 119.688 50.2925C119.58 50.5981 119.425 50.8839 119.23 51.1396C118.855 51.435 118.458 51.7017 118.044 51.9375C117.976 51.9699 117.9 51.9865 117.824 51.9859C117.502 52.1359 117.173 52.2691 116.837 52.3851C116.634 52.4298 116.431 52.4744 116.225 52.3831C116.225 52.3831 116.149 52.3999 116.107 52.4092C115.771 52.4485 115.431 52.4468 115.095 52.4041C114.927 52.3959 114.758 52.3965 114.59 52.4058L114.503 52.3704L114.39 52.3406C113.994 52.3548 113.61 52.2572 113.22 52.2976C113.135 52.3162 112.718 52.1074 112.617 52.1298C112.515 52.1521 112.389 51.8521 112.335 51.8912Z" fill="white"/>
<path d="M107.956 67.0893C107.757 67.0946 107.775 66.8004 107.939 66.4312C108.039 66.2666 108.175 66.1288 108.336 66.0291C108.46 66.0178 108.584 66.0145 108.709 66.0193C108.752 66.0181 109.524 66.4071 109.796 66.5157C110.057 66.6291 110.304 66.7718 110.535 66.9412C111.003 67.2759 111.496 67.5833 111.98 67.8998C112.086 67.9765 112.184 68.0633 112.273 68.1591C112.573 68.5143 112.936 68.8069 113.344 69.0208C113.384 69.0295 113.425 69.0294 113.465 69.0207C113.505 69.012 113.543 68.9948 113.576 68.9702C114.037 69.1537 114.468 69.4095 114.852 69.7286C115.112 70.0511 115.405 70.3281 115.689 70.5965C115.689 70.5965 115.786 70.6474 115.796 70.7361C115.807 70.8248 115.924 70.9819 116.021 71.0595C116.158 71.1636 116.283 71.2826 116.394 71.4145C116.452 71.5052 116.49 71.6073 116.506 71.7142C116.509 71.812 116.383 71.9933 116.349 72.0031C116.314 72.013 116.24 72.1573 116.199 72.2474C116.187 72.2796 116.17 72.31 116.149 72.3377C115.754 72.3452 115.36 72.2987 114.976 72.1996L114.283 71.8797L113.503 71.5265C113.416 71.5287 113.37 71.4232 113.308 71.3536C113.246 71.2841 112.246 70.8298 112.211 70.8041C112.025 70.6577 111.789 70.5838 111.67 70.3199C111.659 70.299 111.643 70.2806 111.625 70.2658C111.607 70.2509 111.586 70.2401 111.564 70.2337C111.217 70.0132 110.888 69.7628 110.583 69.4853C110.423 69.356 110.239 69.2541 110.071 69.1339C110.04 69.1085 110.015 69.0755 109.999 69.0379C109.968 68.9988 109.932 68.9639 109.892 68.9339C109.478 68.6601 109.122 68.3046 108.683 68.0758C108.578 68.0163 108.245 67.5356 108.13 67.4585C108.016 67.3815 108.034 67.0962 107.956 67.0893Z" fill="white"/>
<defs>
<linearGradient id="paint0_linear_8445_1510" x1="63.7319" y1="87.7825" x2="63.7319" y2="17.7695" gradientUnits="userSpaceOnUse">
<stop stop-color="#8951FF"/>
<stop offset="1" stop-color="#8834BB"/>
</linearGradient>
</defs>
</svg>
