<svg width="120" height="90" viewBox="0 0 120 90" fill="none" xmlns="http://www.w3.org/2000/svg">
<path d="M62.555 88.7237C41.7254 88.7237 31.667 81.6749 31.8255 64.7261H51.467C51.7838 70.1117 55.8231 71.4581 62.0798 71.4581C69.2079 71.4581 73.247 69.4781 73.247 65.9141C73.247 64.0925 72.1383 59.4197 61.7631 59.4197H58.1199V47.0645H61.7631C71.9799 47.0645 73.0094 43.1045 73.0094 41.2829C73.0094 37.5605 68.8118 35.9765 63.0302 35.9765C56.7734 35.9765 52.8134 37.7981 52.8134 42.9461H33.3303C33.1718 26.1557 43.7846 18.7109 63.1887 18.7109C82.9094 18.7109 92.8094 26.1557 92.8094 37.4813C92.8094 45.0053 88.5326 49.0445 83.3055 51.5789V52.6877C89.9582 54.6677 94.9478 60.0533 94.9478 68.6069C94.9478 81.2789 82.6718 88.7237 62.555 88.7237Z" fill="url(#paint0_linear_8445_1498)"/>
<path d="M54.635 88.4432C33.8054 88.4432 23.747 81.3944 23.9054 64.4456H43.547C43.8638 69.8312 47.903 71.1776 54.1598 71.1776C61.2878 71.1776 65.327 69.1976 65.327 65.6336C65.327 63.812 64.2182 59.1392 53.843 59.1392H50.1998V46.784H53.843C64.0598 46.784 65.0894 42.824 65.0894 41.0024C65.0894 37.28 60.8918 35.696 55.1102 35.696C48.8534 35.696 44.8934 37.5176 44.8934 42.6656H25.4102C25.2518 25.8752 35.8646 18.4304 55.2686 18.4304C74.9894 18.4304 84.8894 25.8752 84.8894 37.2008C84.8894 44.7248 80.6126 48.764 75.3854 51.2984V52.4072C82.0382 54.3872 87.0278 59.7728 87.0278 68.3264C87.0278 80.9984 74.7518 88.4432 54.635 88.4432Z" fill="white"/>
<path d="M2.38438 35.0766C2.22442 35.2169 2.09384 34.9393 1.91714 34.5122C1.87137 34.2927 1.87151 34.0653 1.91755 33.845C2.00252 33.7169 2.1015 33.599 2.21254 33.4937C2.68056 33.3416 3.15618 33.2158 3.63724 33.1171C3.96402 33.0399 4.29939 33.0101 4.63345 33.0286L6.63452 33.0619C6.7821 33.0641 6.9282 33.0901 7.06741 33.139C7.55349 33.2891 8.06236 33.3503 8.57077 33.3198C8.6572 33.333 8.74572 33.3161 8.82215 33.2718C9.36537 33.2072 9.91422 33.2253 10.4508 33.3253C10.8591 33.5184 11.2879 33.5837 11.7336 33.7159C11.7965 33.7456 11.8436 33.7679 11.9221 33.805C11.969 33.8693 12.0308 33.9205 12.1021 33.9542C12.1733 33.9879 12.2518 34.003 12.3304 33.9981C12.5172 34.0445 12.7003 34.1049 12.8783 34.1786C12.9753 34.2364 13.0655 34.3054 13.1471 34.3842C13.2413 34.4287 13.1802 34.6452 13.1497 34.67C13.1192 34.6949 13.1302 34.8375 13.1398 34.9206L13.1065 34.9932C12.7065 35.2275 12.2921 35.4349 11.866 35.6139C11.829 35.6945 10.2456 35.7507 10.0825 35.7521C9.98627 35.7548 9.89111 35.7334 9.80527 35.6898C9.76601 35.6712 8.49486 35.7965 8.4482 35.7941C8.18347 35.7671 7.92469 35.8312 7.67206 35.6529C7.61709 35.6269 7.57783 35.6083 7.53857 35.5898C7.08963 35.5826 6.64212 35.5416 6.19965 35.4671C5.97374 35.4388 5.74501 35.4583 5.51954 35.4498C5.48097 35.4371 5.44407 35.4196 5.40961 35.3979C5.36459 35.3713 5.31729 35.3489 5.26827 35.331C4.73597 35.29 4.20121 35.2864 3.66777 35.3203C3.54393 35.3402 2.9605 35.1331 2.79 35.1506C2.6195 35.1682 2.45695 35.0226 2.38438 35.0766Z" fill="white"/>
<path d="M13.967 16.9387C14.1212 16.9803 14.0274 17.1765 13.791 17.4746C13.6725 17.6018 13.5313 17.7051 13.3752 17.7787C13.2649 17.7845 13.1544 17.7809 13.0448 17.7679C12.9967 17.7305 12.4471 17.3021 12.2616 17.1575C12.0801 17.0325 11.9205 16.8777 11.789 16.6994C11.4988 16.3611 11.1927 16.044 10.9033 15.7624C10.8358 15.6946 10.7817 15.6143 10.7437 15.5258C10.5949 15.239 10.3746 14.9977 10.1046 14.8258C10.0858 14.8036 10.0615 14.787 10.0341 14.7775C10.0068 14.768 9.97742 14.766 9.94894 14.7717C9.64527 14.6345 9.36342 14.4526 9.1123 14.2319C8.94216 13.9871 8.74576 13.7626 8.52667 13.5623C8.52667 13.5623 8.46484 13.5141 8.42361 13.482C8.38239 13.4498 8.31364 13.2953 8.23959 13.2488C8.16555 13.2023 8.05408 13.1042 7.94415 13.0185C7.89572 12.9484 7.8533 12.874 7.81737 12.7963C7.82175 12.7207 7.8498 12.6482 7.8974 12.5895C7.95079 12.5189 7.9454 12.425 7.96596 12.3401C7.97527 12.3145 7.99205 12.2923 8.01401 12.2765C8.31344 12.1626 8.62815 12.0975 8.94646 12.0835C9.4113 12.1835 9.86792 12.3181 10.3126 12.4864C10.3816 12.5188 10.4426 12.5664 10.4913 12.6256C10.8123 12.7784 11.1254 12.9475 11.4294 13.1324C11.5943 13.261 11.7592 13.3895 11.8234 13.6078C11.8234 13.6078 11.8852 13.656 11.9196 13.6827C12.1662 13.9176 12.3844 14.1818 12.5694 14.4696C12.672 14.6052 12.7813 14.7353 12.8969 14.8595L12.9267 14.9501L12.9771 15.0567C13.2436 15.3541 13.4185 15.7148 13.701 15.991C13.7697 16.0446 13.8821 16.5023 13.9646 16.5666C14.047 16.6309 13.9029 16.9224 13.967 16.9387Z" fill="white"/>
<path d="M28.2253 10.5093C28.358 10.6602 28.1249 10.836 27.7414 10.9477C27.5535 10.9771 27.3619 10.9607 27.1825 10.9C27.0941 10.8114 27.0112 10.7171 26.9345 10.6179C26.9057 10.5851 26.699 9.73531 26.6052 9.45493C26.522 9.17962 26.4692 8.89548 26.4477 8.60768C26.3971 8.02896 26.3096 7.44833 26.2343 6.86834C26.224 6.7372 26.2259 6.6052 26.2402 6.47414C26.3136 6.01248 26.2987 5.54184 26.1964 5.08798C26.177 5.05134 26.1502 5.0193 26.1177 4.9939C26.0853 4.9685 26.0479 4.9503 26.0079 4.94047C25.848 4.46487 25.7623 3.96611 25.7537 3.46202C25.8284 3.05259 25.8474 2.64655 25.8656 2.25298C25.8656 2.25298 25.8414 2.14528 25.901 2.07948C25.9606 2.01368 26.0034 1.82177 25.9988 1.69629C25.9888 1.52327 25.9975 1.34944 26.0247 1.17789C26.0558 1.07482 26.108 0.979348 26.1779 0.897757C26.2498 0.832595 26.4671 0.81252 26.4967 0.832837C26.5264 0.853154 26.6829 0.817418 26.7771 0.790981C26.8095 0.779897 26.8432 0.773211 26.8772 0.771102C27.1382 1.07251 27.3583 1.40817 27.5315 1.76929L27.7386 2.51264L27.9773 3.3453C28.0349 3.41091 27.9853 3.51479 27.9733 3.60811C27.9614 3.70142 28.2657 4.76916 28.2692 4.81318C28.2791 5.05165 28.376 5.28209 28.2547 5.54508C28.2462 5.56727 28.2422 5.59092 28.2428 5.61462C28.2435 5.63832 28.2488 5.66159 28.2586 5.68304C28.317 6.09436 28.3408 6.51037 28.3298 6.9266C28.3355 7.13354 28.3781 7.34239 28.3961 7.54996C28.3972 7.59062 28.3883 7.63103 28.3703 7.66761C28.3611 7.71703 28.358 7.76736 28.3611 7.81742C28.4228 8.31531 28.3854 8.82059 28.4972 9.30855C28.5206 9.42874 28.3743 9.99727 28.3904 10.1359C28.4066 10.2745 28.18 10.4443 28.2253 10.5093Z" fill="white"/>
<path d="M111.335 53.8922C111.204 53.9847 111.118 53.7853 111.046 53.4096C111.027 53.2355 111.041 53.0595 111.086 52.891C111.153 52.8018 111.227 52.7185 111.308 52.642C111.367 52.6289 112.044 52.48 112.273 52.4297C112.484 52.37 112.704 52.3463 112.923 52.3596C113.365 52.3535 113.801 52.3213 114.2 52.2791C114.294 52.2706 114.389 52.2805 114.481 52.3083C114.792 52.3784 115.116 52.3637 115.42 52.2656C115.449 52.2653 115.477 52.2573 115.502 52.2422C115.527 52.2272 115.547 52.2057 115.561 52.18C115.861 52.0334 116.179 51.9326 116.508 51.8807C116.802 51.9071 117.097 51.9001 117.39 51.8598C117.39 51.8598 117.466 51.843 117.517 51.8318C117.567 51.8207 117.728 51.8673 117.811 51.84C117.894 51.8126 118.039 51.7897 118.175 51.7599C118.259 51.7677 118.342 51.7829 118.424 51.8053C118.478 51.8575 118.514 51.9261 118.528 52.0009C118.546 52.0879 118.62 52.1444 118.671 52.2152C118.684 52.239 118.69 52.2663 118.688 52.2935C118.58 52.599 118.425 52.8849 118.23 53.1405C117.855 53.436 117.458 53.7027 117.044 53.9384C116.976 53.9709 116.9 53.9874 116.824 53.9869C116.502 54.1368 116.173 54.2701 115.837 54.3861C115.634 54.4307 115.431 54.4754 115.225 54.3841C115.225 54.3841 115.149 54.4008 115.107 54.4102C114.771 54.4495 114.431 54.4477 114.095 54.405C113.927 54.3969 113.758 54.3975 113.59 54.4068L113.503 54.3714L113.39 54.3416C112.994 54.3558 112.61 54.2582 112.22 54.2985C112.135 54.3172 111.718 54.1084 111.617 54.1307C111.515 54.1531 111.389 53.8531 111.335 53.8922Z" fill="white"/>
<path d="M106.956 69.0903C106.757 69.0956 106.775 68.8014 106.939 68.4321C107.039 68.2676 107.175 68.1298 107.336 68.0301C107.46 68.0188 107.584 68.0155 107.709 68.0202C107.752 68.0191 108.524 68.4081 108.796 68.5166C109.057 68.6301 109.304 68.7728 109.535 68.9421C110.003 69.2769 110.496 69.5843 110.98 69.9008C111.086 69.9775 111.184 70.0643 111.273 70.1601C111.573 70.5153 111.936 70.8078 112.344 71.0218C112.384 71.0305 112.425 71.0304 112.465 71.0217C112.505 71.013 112.543 70.9958 112.576 70.9712C113.037 71.1546 113.468 71.4105 113.852 71.7296C114.112 72.0521 114.405 72.3291 114.689 72.5975C114.689 72.5975 114.786 72.6484 114.796 72.7371C114.807 72.8258 114.924 72.9829 115.021 73.0604C115.158 73.1645 115.283 73.2836 115.394 73.4155C115.452 73.5062 115.49 73.6083 115.506 73.7152C115.509 73.813 115.383 73.9943 115.349 74.0041C115.314 74.0139 115.24 74.1583 115.199 74.2484C115.187 74.2806 115.17 74.311 115.149 74.3387C114.754 74.3461 114.36 74.2997 113.976 74.2006L113.283 73.8806L112.503 73.5274C112.416 73.5297 112.37 73.4241 112.308 73.3546C112.246 73.285 111.246 72.8308 111.211 72.805C111.025 72.6586 110.789 72.5848 110.67 72.3209C110.659 72.3 110.643 72.2815 110.625 72.2667C110.607 72.2519 110.586 72.241 110.564 72.2347C110.217 72.0142 109.888 71.7638 109.583 71.4863C109.423 71.357 109.239 71.2551 109.071 71.1349C109.04 71.1094 109.015 71.0765 108.999 71.0389C108.968 70.9998 108.932 70.9649 108.892 70.9349C108.478 70.661 108.122 70.3055 107.683 70.0768C107.578 70.0173 107.245 69.5366 107.13 69.4595C107.016 69.3824 107.034 69.0971 106.956 69.0903Z" fill="white"/>
<defs>
<linearGradient id="paint0_linear_8445_1498" x1="63.3857" y1="88.7237" x2="63.3857" y2="18.7109" gradientUnits="userSpaceOnUse">
<stop stop-color="#8951FF"/>
<stop offset="1" stop-color="#8834BB"/>
</linearGradient>
</defs>
</svg>
