<svg width="14" height="15" viewBox="0 0 14 15" fill="none" xmlns="http://www.w3.org/2000/svg">
<g clip-path="url(#clip0_5229_8829)">
<path d="M10.6729 5.15959C11.7471 5.15959 12.6178 4.28883 12.6178 3.21468C12.6178 2.14054 11.7471 1.26978 10.6729 1.26978C9.59879 1.26978 8.72803 2.14054 8.72803 3.21468C8.72803 4.28883 9.59879 5.15959 10.6729 5.15959Z" stroke="#717B9E" stroke-width="1.3" stroke-linecap="round" stroke-linejoin="round"/>
<path d="M3.32674 9.44475C4.40089 9.44475 5.27165 8.57398 5.27165 7.49984C5.27165 6.4257 4.40089 5.55493 3.32674 5.55493C2.2526 5.55493 1.38184 6.4257 1.38184 7.49984C1.38184 8.57398 2.2526 9.44475 3.32674 9.44475Z" stroke="#717B9E" stroke-width="1.3" stroke-linecap="round" stroke-linejoin="round"/>
<path d="M10.6729 13.7299C11.7471 13.7299 12.6178 12.8591 12.6178 11.785C12.6178 10.7109 11.7471 9.84009 10.6729 9.84009C9.59879 9.84009 8.72803 10.7109 8.72803 11.785C8.72803 12.8591 9.59879 13.7299 10.6729 13.7299Z" stroke="#717B9E" stroke-width="1.3" stroke-linecap="round" stroke-linejoin="round"/>
<path d="M4.96753 8.69653L8.69262 11.0505" stroke="#717B9E" stroke-width="1.3" stroke-linecap="round" stroke-linejoin="round"/>
<path d="M8.74435 3.96288L5.1488 6.47203" stroke="#717B9E" stroke-width="1.3" stroke-linecap="round" stroke-linejoin="round"/>
</g>
<defs>
<clipPath id="clip0_5229_8829">
<rect width="14" height="14" fill="white" transform="translate(0 0.5)"/>
</clipPath>
</defs>
</svg>
