<svg width="14" height="15" viewBox="0 0 14 15" fill="none" xmlns="http://www.w3.org/2000/svg">
<g clip-path="url(#clip0_5229_8880)">
<path d="M10.5371 5.24616C11.5716 5.24616 12.4102 4.40755 12.4102 3.37308C12.4102 2.33861 11.5716 1.5 10.5371 1.5C9.50267 1.5 8.66406 2.33861 8.66406 3.37308C8.66406 4.40755 9.50267 5.24616 10.5371 5.24616Z" stroke="#275DF5" stroke-width="1.25199" stroke-linecap="round" stroke-linejoin="round"/>
<path d="M3.46195 9.37311C4.49642 9.37311 5.33503 8.53451 5.33503 7.50003C5.33503 6.46556 4.49642 5.62695 3.46195 5.62695C2.42747 5.62695 1.58887 6.46556 1.58887 7.50003C1.58887 8.53451 2.42747 9.37311 3.46195 9.37311Z" stroke="#275DF5" stroke-width="1.25199" stroke-linecap="round" stroke-linejoin="round"/>
<path d="M10.5371 13.5001C11.5716 13.5001 12.4102 12.6615 12.4102 11.627C12.4102 10.5925 11.5716 9.75391 10.5371 9.75391C9.50267 9.75391 8.66406 10.5925 8.66406 11.627C8.66406 12.6615 9.50267 13.5001 10.5371 13.5001Z" stroke="#275DF5" stroke-width="1.25199" stroke-linecap="round" stroke-linejoin="round"/>
<path d="M5.04187 8.65259L8.62938 10.9196" stroke="#275DF5" stroke-width="1.25199" stroke-linecap="round" stroke-linejoin="round"/>
<path d="M8.67955 4.09374L5.2168 6.51022" stroke="#275DF5" stroke-width="1.25199" stroke-linecap="round" stroke-linejoin="round"/>
</g>
<defs>
<clipPath id="clip0_5229_8880">
<rect width="14" height="14" fill="white" transform="translate(0 0.5)"/>
</clipPath>
</defs>
</svg>
