<svg width="14" height="15" viewBox="0 0 14 15" fill="none" xmlns="http://www.w3.org/2000/svg">
<g clip-path="url(#clip0_5080_50453)">
<path d="M10.5371 5.50568C11.5716 5.50568 12.4102 4.66707 12.4102 3.6326C12.4102 2.59813 11.5716 1.75952 10.5371 1.75952C9.50267 1.75952 8.66406 2.59813 8.66406 3.6326C8.66406 4.66707 9.50267 5.50568 10.5371 5.50568Z" stroke="white" stroke-width="1.25199" stroke-linecap="round" stroke-linejoin="round"/>
<path d="M3.46195 9.63269C4.49642 9.63269 5.33503 8.79409 5.33503 7.75961C5.33503 6.72514 4.49642 5.88654 3.46195 5.88654C2.42747 5.88654 1.58887 6.72514 1.58887 7.75961C1.58887 8.79409 2.42747 9.63269 3.46195 9.63269Z" stroke="white" stroke-width="1.25199" stroke-linecap="round" stroke-linejoin="round"/>
<path d="M10.5371 13.7596C11.5716 13.7596 12.4102 12.921 12.4102 11.8865C12.4102 10.852 11.5716 10.0134 10.5371 10.0134C9.50267 10.0134 8.66406 10.852 8.66406 11.8865C8.66406 12.921 9.50267 13.7596 10.5371 13.7596Z" stroke="white" stroke-width="1.25199" stroke-linecap="round" stroke-linejoin="round"/>
<path d="M5.04175 8.91211L8.62926 11.1791" stroke="white" stroke-width="1.25199" stroke-linecap="round" stroke-linejoin="round"/>
<path d="M8.67955 4.35326L5.2168 6.76974" stroke="white" stroke-width="1.25199" stroke-linecap="round" stroke-linejoin="round"/>
</g>
<defs>
<clipPath id="clip0_5080_50453">
<rect width="14" height="14" fill="white" transform="translate(0 0.759766)"/>
</clipPath>
</defs>
</svg>
