<svg width="58" height="58" viewBox="0 0 58 58" fill="none" xmlns="http://www.w3.org/2000/svg">
<g filter="url(#filter0_i_5080_50055)">
<path fill-rule="evenodd" clip-rule="evenodd" d="M19.9537 56.1227C19.8464 55.0453 19.7473 54.0632 19.6512 53.081C19.2416 48.8946 18.8327 44.708 18.4234 40.5215C18.3565 39.8379 18.3104 39.1515 18.2096 38.4727C18.1815 38.2843 18.0308 38.047 17.8698 37.9533C14.3309 35.8967 10.7828 33.857 7.23641 31.8141C5.94791 31.072 4.65852 30.3318 3.37111 29.5873C2.73845 29.2215 2.32421 28.7041 2.36501 27.9272C2.40725 27.1252 2.86484 26.6336 3.5636 26.3319C8.42031 24.235 13.269 22.1192 18.1386 20.0536C18.7901 19.7772 19.0771 19.4343 19.2102 18.718C20.2256 13.254 21.2959 7.80104 22.3413 2.34304C22.4644 1.69958 22.7026 1.17406 23.3743 0.980359C23.9363 0.818189 24.4347 0.935453 24.8313 1.38834C25.723 2.40665 26.6065 3.43214 27.4907 4.45728C30.4499 7.88873 33.4068 11.3224 36.3731 14.7477C36.4643 14.8529 36.6564 14.9399 36.7883 14.9252C40.6686 14.4924 44.5471 14.0445 48.4263 13.6018C50.0668 13.4145 51.7085 13.2357 53.3492 13.0487C54.0884 12.9646 54.6864 13.2267 55.0859 13.8643C55.4719 14.4809 55.407 15.1217 55.0548 15.7314C53.3413 18.6997 51.6255 21.6664 49.9093 24.633C48.8244 26.5085 47.7435 28.3865 46.6436 30.2527C46.4928 30.5083 46.5544 30.7025 46.6559 30.9259C47.8097 33.4665 48.9627 36.0075 50.1168 38.5478C51.3419 41.2445 52.5696 43.9401 53.7929 46.6376C54.0579 47.2221 54.0148 47.7786 53.6271 48.2906C53.2152 48.8345 52.6732 48.994 52.024 48.8407C49.6303 48.2758 47.2366 47.712 44.8429 47.1469C41.738 46.414 38.6325 45.6844 35.5301 44.94C35.2491 44.8726 35.07 44.9328 34.8667 45.1252C30.8038 48.9697 26.7344 52.8074 22.6665 56.6465C21.9058 57.3644 21.0432 57.4172 20.3841 56.755C20.191 56.5613 20.0681 56.2948 19.9537 56.1227Z" fill="url(#paint0_linear_5080_50055)"/>
</g>
<path d="M20.8453 33.2392L22.6806 32.7474L22.5217 30.2225L20.3966 30.7919L20.2508 28.4706L22.3565 27.9063L22.0878 24.0443L24.4254 23.4179L24.6941 27.28L27.1475 26.6226L26.8788 22.7605L29.2164 22.1342L29.4851 25.9962L31.4749 25.4631L31.6207 27.7844L29.6502 28.3124L29.8284 30.8322L32.0307 30.2421L32.1765 32.5634L29.9935 33.1484L30.2571 36.9911L27.9195 37.6174L27.656 33.7747L25.1832 34.4373L25.4467 38.28L23.1092 38.9063L22.8457 35.0636L20.9911 35.5606L20.8453 33.2392ZM25.0181 32.1211L27.4909 31.4585L27.3126 28.9388L24.8592 29.5962L25.0181 32.1211ZM38.1922 27.3695L36.4728 27.8302L36.0432 26.2267L38.7796 21.9115L32.9067 23.4851L32.3218 21.3021L41.2856 18.9003L41.8136 20.8707L39.2238 24.9604C41.5014 24.8056 43.6065 25.9394 44.2743 28.4315C45.0508 31.3293 43.2822 33.7702 40.4231 34.5363C37.6606 35.2765 35.0607 34.151 34.2428 31.0987L36.6769 30.4465C37.1118 32.0693 38.3648 32.7274 39.8716 32.3236C41.4171 31.9095 42.1718 30.6306 41.7525 29.0658C41.3695 27.6362 40.1627 26.8415 38.1922 27.3695Z" fill="white"/>
<defs>
<filter id="filter0_i_5080_50055" x="0.624736" y="-0.826497" width="54.7237" height="58.0465" filterUnits="userSpaceOnUse" color-interpolation-filters="sRGB">
<feFlood flood-opacity="0" result="BackgroundImageFix"/>
<feBlend mode="normal" in="SourceGraphic" in2="BackgroundImageFix" result="shape"/>
<feColorMatrix in="SourceAlpha" type="matrix" values="0 0 0 0 0 0 0 0 0 0 0 0 0 0 0 0 0 0 127 0" result="hardAlpha"/>
<feOffset dx="-1.73757" dy="-1.73757"/>
<feGaussianBlur stdDeviation="1.73757"/>
<feComposite in2="hardAlpha" operator="arithmetic" k2="-1" k3="1"/>
<feColorMatrix type="matrix" values="0 0 0 0 1 0 0 0 0 1 0 0 0 0 1 0 0 0 0.25 0"/>
<feBlend mode="normal" in2="shape" result="effect1_innerShadow_5080_50055"/>
</filter>
<linearGradient id="paint0_linear_5080_50055" x1="23.3834" y1="0.977521" x2="37.3246" y2="53.0068" gradientUnits="userSpaceOnUse">
<stop stop-color="#FEE14E"/>
<stop offset="1" stop-color="#FF9F15"/>
</linearGradient>
</defs>
</svg>
