<svg width="58" height="59" viewBox="0 0 58 59" fill="none" xmlns="http://www.w3.org/2000/svg">
<g filter="url(#filter0_i_5080_51298)">
<path fill-rule="evenodd" clip-rule="evenodd" d="M19.9537 56.4645C19.8464 55.3871 19.7473 54.405 19.6512 53.4228C19.2416 49.2364 18.8327 45.0498 18.4234 40.8633C18.3565 40.1797 18.3104 39.4933 18.2096 38.8145C18.1815 38.6261 18.0308 38.3888 17.8698 38.2951C14.3309 36.2385 10.7828 34.1987 7.23641 32.1559C5.94791 31.4138 4.65852 30.6736 3.37111 29.9291C2.73845 29.5633 2.32421 29.0459 2.36501 28.269C2.40725 27.467 2.86484 26.9754 3.5636 26.6737C8.42031 24.5768 13.269 22.461 18.1386 20.3954C18.7901 20.119 19.0771 19.7761 19.2102 19.0598C20.2256 13.5958 21.2959 8.14283 22.3413 2.68483C22.4644 2.04137 22.7026 1.51585 23.3743 1.32216C23.9363 1.15999 24.4347 1.27725 24.8313 1.73013C25.723 2.74845 26.6065 3.77393 27.4907 4.79908C30.4499 8.23052 33.4068 11.6642 36.3731 15.0895C36.4643 15.1947 36.6564 15.2817 36.7883 15.267C40.6686 14.8342 44.5471 14.3863 48.4263 13.9436C50.0668 13.7563 51.7085 13.5775 53.3492 13.3905C54.0884 13.3064 54.6864 13.5685 55.0859 14.2061C55.4719 14.8226 55.407 15.4635 55.0548 16.0732C53.3413 19.0415 51.6255 22.0082 49.9093 24.9748C48.8244 26.8503 47.7435 28.7283 46.6436 30.5945C46.4928 30.8501 46.5544 31.0443 46.6559 31.2677C47.8097 33.8083 48.9627 36.3492 50.1168 38.8896C51.3419 41.5863 52.5696 44.2818 53.7929 46.9794C54.0579 47.5639 54.0148 48.1204 53.6271 48.6324C53.2152 49.1763 52.6732 49.3358 52.024 49.1825C49.6303 48.6176 47.2366 48.0538 44.8429 47.4887C41.738 46.7558 38.6325 46.0262 35.5301 45.2818C35.2491 45.2144 35.07 45.2746 34.8667 45.467C30.8038 49.3115 26.7344 53.1492 22.6665 56.9883C21.9058 57.7062 21.0432 57.759 20.3841 57.0968C20.191 56.9031 20.0681 56.6366 19.9537 56.4645Z" fill="url(#paint0_linear_5080_51298)"/>
</g>
<path d="M19.8453 33.581L21.6806 33.0892L21.5217 30.5643L19.3966 31.1337L19.2508 28.8124L21.3565 28.2481L21.0878 24.3861L23.4254 23.7597L23.6941 27.6218L26.1475 26.9644L25.8788 23.1023L28.2164 22.476L28.4851 26.338L30.4749 25.8049L30.6207 28.1262L28.6502 28.6542L28.8284 31.174L31.0307 30.5839L31.1765 32.9052L28.9935 33.4902L29.2571 37.3329L26.9195 37.9592L26.656 34.1165L24.1832 34.7791L24.4467 38.6218L22.1092 39.2481L21.8457 35.4054L19.9911 35.9024L19.8453 33.581ZM24.0181 32.4629L26.4909 31.8003L26.3126 29.2806L23.8592 29.938L24.0181 32.4629ZM44.7405 33.1634L34.9512 35.8071L34.4543 33.9526L38.0258 28.8131C39.5035 26.6779 39.8925 25.5797 39.5302 24.2274C39.1005 22.624 37.9879 21.949 36.5004 22.3476C34.9549 22.7617 34.2789 24.1023 34.7461 25.9234L32.2927 26.5808C31.4838 23.4847 32.9159 20.9476 35.9103 20.1452C38.924 19.3377 41.2586 20.555 42.0247 23.4141C42.5527 25.3846 41.8694 27.162 40.2168 29.5718L38.2517 32.4381L44.1245 30.8645L44.7405 33.1634Z" fill="white"/>
<defs>
<filter id="filter0_i_5080_51298" x="0.624736" y="-0.4847" width="54.7237" height="58.0465" filterUnits="userSpaceOnUse" color-interpolation-filters="sRGB">
<feFlood flood-opacity="0" result="BackgroundImageFix"/>
<feBlend mode="normal" in="SourceGraphic" in2="BackgroundImageFix" result="shape"/>
<feColorMatrix in="SourceAlpha" type="matrix" values="0 0 0 0 0 0 0 0 0 0 0 0 0 0 0 0 0 0 127 0" result="hardAlpha"/>
<feOffset dx="-1.73757" dy="-1.73757"/>
<feGaussianBlur stdDeviation="1.73757"/>
<feComposite in2="hardAlpha" operator="arithmetic" k2="-1" k3="1"/>
<feColorMatrix type="matrix" values="0 0 0 0 1 0 0 0 0 1 0 0 0 0 1 0 0 0 0.25 0"/>
<feBlend mode="normal" in2="shape" result="effect1_innerShadow_5080_51298"/>
</filter>
<linearGradient id="paint0_linear_5080_51298" x1="23.3834" y1="1.31932" x2="37.3246" y2="53.3486" gradientUnits="userSpaceOnUse">
<stop stop-color="#FEE14E"/>
<stop offset="1" stop-color="#FF9F15"/>
</linearGradient>
</defs>
</svg>
