<svg width="85" height="81" viewBox="0 0 85 81" fill="none" xmlns="http://www.w3.org/2000/svg">
<path opacity="0.25" d="M20.6727 15.08V58H11.7407V27.26L3.44674 27.318V21.924L4.78074 21.518C7.21674 20.822 9.18874 20.0293 10.6967 19.14C12.2047 18.2507 13.6547 17.0713 15.0467 15.602L15.4527 15.08H20.6727Z" fill="#7B07DE"/>
<g filter="url(#filter0_d_2_519)">
<rect x="24" y="13.8264" width="47.0003" height="44.1732" rx="2.82709" fill="#F2F0FA"/>
</g>
<rect x="27.8875" y="17.361" width="38.8725" height="18.7295" rx="1.58771" fill="white"/>
<path d="M30.0402 21.481H29.8324V19.948H30.0402L30.8247 21.1332V19.948H31.0325V21.481H30.8247L30.0402 20.2957V21.481ZM31.6524 21.5064C31.4298 21.5064 31.2984 21.3813 31.2984 21.1926C31.2984 21.0018 31.4404 20.883 31.6842 20.8639L32.0108 20.8385V20.8088C32.0108 20.635 31.9069 20.5735 31.7669 20.5735C31.5994 20.5735 31.504 20.6477 31.504 20.7728H31.3302C31.3302 20.5565 31.5083 20.4144 31.7754 20.4144C32.032 20.4144 32.2058 20.5501 32.2058 20.83V21.481H32.0362L32.015 21.3135C31.962 21.4322 31.8199 21.5064 31.6524 21.5064ZM31.7097 21.3516C31.8984 21.3516 32.0129 21.2286 32.0129 21.0336V20.9784L31.7479 20.9996C31.5719 21.0166 31.4998 21.0845 31.4998 21.1862C31.4998 21.2965 31.5804 21.3516 31.7097 21.3516ZM32.6748 21.481H32.4755V20.4441H32.6536L32.6727 20.5798C32.7257 20.4823 32.836 20.4144 32.9823 20.4144C33.1434 20.4144 33.2579 20.495 33.3109 20.6243C33.3597 20.495 33.4848 20.4144 33.6459 20.4144C33.8834 20.4144 34.0276 20.5629 34.0276 20.8025V21.481H33.8325V20.8512C33.8325 20.688 33.7413 20.5947 33.6014 20.5947C33.4509 20.5947 33.3512 20.7007 33.3512 20.8661V21.481H33.154V20.8491C33.154 20.6858 33.065 20.5968 32.925 20.5968C32.7745 20.5968 32.6748 20.7007 32.6748 20.8661V21.481ZM34.7449 21.5064C34.4396 21.5064 34.2297 21.2859 34.2297 20.9636C34.2297 20.6392 34.4353 20.4144 34.7364 20.4144C35.0311 20.4144 35.2241 20.618 35.2241 20.9254V20.9996L34.4226 21.0018C34.4374 21.2202 34.5519 21.341 34.7491 21.341C34.9039 21.341 35.0057 21.2774 35.0396 21.1587H35.2262C35.1753 21.3813 35.0014 21.5064 34.7449 21.5064ZM34.7364 20.5819C34.5625 20.5819 34.4523 20.6858 34.4268 20.8682H35.0248C35.0248 20.6964 34.9124 20.5819 34.7364 20.5819Z" fill="#978E8E"/>
<rect x="27.8875" y="37.8571" width="38.8725" height="7.06772" rx="1.4554" fill="white"/>
<path d="M31.4744 41.8909H30.5393V40.3579H31.4744V40.5487H30.7471V41.0279H31.4023V41.2124H30.7471V41.6979H31.4744V41.8909ZM31.9345 41.8909H31.7352V40.854H31.9133L31.9324 40.9897C31.9854 40.8922 32.0957 40.8244 32.242 40.8244C32.4031 40.8244 32.5176 40.9049 32.5706 41.0343C32.6194 40.9049 32.7445 40.8244 32.9056 40.8244C33.1431 40.8244 33.2873 40.9728 33.2873 41.2124V41.8909H33.0922V41.2611C33.0922 41.0979 33.001 41.0046 32.8611 41.0046C32.7105 41.0046 32.6109 41.1106 32.6109 41.276V41.8909H32.4137V41.259C32.4137 41.0958 32.3247 41.0067 32.1847 41.0067C32.0342 41.0067 31.9345 41.1106 31.9345 41.276V41.8909ZM33.8604 41.9163C33.6378 41.9163 33.5063 41.7912 33.5063 41.6025C33.5063 41.4117 33.6484 41.2929 33.8922 41.2739L34.2187 41.2484V41.2187C34.2187 41.0449 34.1148 40.9834 33.9749 40.9834C33.8074 40.9834 33.712 41.0576 33.712 41.1827H33.5381C33.5381 40.9664 33.7162 40.8244 33.9834 40.8244C34.2399 40.8244 34.4138 40.9601 34.4138 41.2399V41.8909H34.2442L34.223 41.7234C34.17 41.8421 34.0279 41.9163 33.8604 41.9163ZM33.9177 41.7615C34.1064 41.7615 34.2209 41.6386 34.2209 41.4435V41.3884L33.9558 41.4096C33.7798 41.4265 33.7077 41.4944 33.7077 41.5961C33.7077 41.7064 33.7883 41.7615 33.9177 41.7615ZM34.781 40.6081C34.7089 40.6081 34.6495 40.5487 34.6495 40.4766C34.6495 40.4024 34.7089 40.3452 34.781 40.3452C34.8531 40.3452 34.9125 40.4024 34.9125 40.4766C34.9125 40.5487 34.8531 40.6081 34.781 40.6081ZM34.6835 41.8909V40.854H34.8828V41.8909H34.6835ZM35.3693 41.8909H35.17V40.3303H35.3693V41.8909Z" fill="#978E8E"/>
<rect x="27.8875" y="46.692" width="38.8725" height="7.06772" rx="1.4554" fill="white"/>
<path d="M31.5288 50.7492C31.092 50.7492 30.8015 50.4353 30.8015 49.9604C30.8015 49.4876 31.1005 49.1674 31.5394 49.1674C31.885 49.1674 32.1501 49.3731 32.2073 49.6869H31.9847C31.9274 49.4876 31.7557 49.3667 31.533 49.3667C31.2235 49.3667 31.0199 49.5999 31.0199 49.9583C31.0199 50.3166 31.2235 50.5498 31.533 50.5498C31.7578 50.5498 31.9359 50.429 31.9932 50.2403H32.2137C32.1479 50.5456 31.8744 50.7492 31.5288 50.7492ZM32.3603 50.2064C32.3603 49.8862 32.5893 49.6614 32.901 49.6614C33.2106 49.6614 33.4396 49.8862 33.4396 50.2064C33.4396 50.5265 33.2106 50.7513 32.901 50.7513C32.5893 50.7513 32.3603 50.5265 32.3603 50.2064ZM32.5618 50.2064C32.5618 50.4226 32.6996 50.5732 32.901 50.5732C33.1003 50.5732 33.2403 50.4226 33.2403 50.2064C33.2403 49.9901 33.1003 49.8395 32.901 49.8395C32.6996 49.8395 32.5618 49.9901 32.5618 50.2064ZM33.8531 50.7258H33.6538V49.689H33.8341L33.8553 49.848C33.921 49.7293 34.0524 49.6593 34.1987 49.6593C34.4723 49.6593 34.5974 49.8268 34.5974 50.0919V50.7258H34.3981V50.1364C34.3981 49.9265 34.3005 49.8417 34.1479 49.8417C33.9613 49.8417 33.8531 49.9752 33.8531 50.1767V50.7258ZM35.1597 50.7258H34.9604V49.8565H34.7568V49.689H34.9604V49.3646H35.1597V49.689H35.3632V49.8565H35.1597V50.7258ZM35.8265 50.7513C35.6039 50.7513 35.4724 50.6262 35.4724 50.4375C35.4724 50.2466 35.6145 50.1279 35.8583 50.1088L36.1848 50.0834V50.0537C36.1848 49.8798 36.0809 49.8183 35.941 49.8183C35.7735 49.8183 35.6781 49.8925 35.6781 50.0176H35.5042C35.5042 49.8014 35.6823 49.6593 35.9495 49.6593C36.206 49.6593 36.3799 49.795 36.3799 50.0749V50.7258H36.2103L36.1891 50.5583C36.1361 50.6771 35.994 50.7513 35.8265 50.7513ZM35.8838 50.5965C36.0725 50.5965 36.187 50.4735 36.187 50.2784V50.2233L35.9219 50.2445C35.7459 50.2615 35.6738 50.3293 35.6738 50.4311C35.6738 50.5414 35.7544 50.5965 35.8838 50.5965ZM36.5817 50.2085C36.5817 49.8841 36.7874 49.6593 37.0906 49.6593C37.3514 49.6593 37.5337 49.8077 37.5698 50.0388H37.3705C37.3366 49.9074 37.2305 49.8374 37.097 49.8374C36.9082 49.8374 36.7789 49.9816 36.7789 50.2064C36.7789 50.429 36.8998 50.5732 37.0885 50.5732C37.2305 50.5732 37.3366 50.499 37.3726 50.376H37.5719C37.5316 50.6007 37.3387 50.7513 37.0885 50.7513C36.7831 50.7513 36.5817 50.535 36.5817 50.2085ZM38.0684 50.7258H37.8691V49.8565H37.6656V49.689H37.8691V49.3646H38.0684V49.689H38.272V49.8565H38.0684V50.7258ZM39.2172 50.7258H39.0179V49.689H39.1981L39.2193 49.848C39.2851 49.7293 39.4165 49.6593 39.5628 49.6593C39.8364 49.6593 39.9615 49.8268 39.9615 50.0919V50.7258H39.7621V50.1364C39.7621 49.9265 39.6646 49.8417 39.5119 49.8417C39.3254 49.8417 39.2172 49.9752 39.2172 50.1767V50.7258ZM40.9478 49.689H41.145V50.7258H40.9669L40.9457 50.5689C40.8863 50.6771 40.7485 50.7513 40.5958 50.7513C40.3541 50.7513 40.2184 50.588 40.2184 50.3336V49.689H40.4177V50.2678C40.4177 50.4905 40.5131 50.5753 40.6658 50.5753C40.8482 50.5753 40.9478 50.4587 40.9478 50.236V49.689ZM41.6271 50.7258H41.4278V49.689H41.6059L41.625 49.8247C41.678 49.7272 41.7883 49.6593 41.9346 49.6593C42.0957 49.6593 42.2102 49.7399 42.2632 49.8692C42.312 49.7399 42.4371 49.6593 42.5982 49.6593C42.8357 49.6593 42.9799 49.8077 42.9799 50.0473V50.7258H42.7848V50.0961C42.7848 49.9328 42.6936 49.8395 42.5537 49.8395C42.4032 49.8395 42.3035 49.9456 42.3035 50.1109V50.7258H42.1063V50.094C42.1063 49.9307 42.0173 49.8417 41.8773 49.8417C41.7268 49.8417 41.6271 49.9456 41.6271 50.1109V50.7258ZM43.43 50.7258H43.2498V49.1653H43.4491V49.8671C43.517 49.7314 43.6569 49.6593 43.8265 49.6593C44.1234 49.6593 44.3015 49.8925 44.3015 50.2127C44.3015 50.5265 44.1149 50.7513 43.8138 50.7513C43.6506 50.7513 43.5127 50.6792 43.4449 50.5371L43.43 50.7258ZM43.4512 50.2042C43.4512 50.4205 43.5742 50.571 43.7778 50.571C43.9813 50.571 44.1022 50.4184 44.1022 50.2042C44.1022 49.9922 43.9813 49.8395 43.7778 49.8395C43.5742 49.8395 43.4512 49.9922 43.4512 50.2042ZM44.9622 50.7513C44.6569 50.7513 44.447 50.5308 44.447 50.2085C44.447 49.8841 44.6526 49.6593 44.9537 49.6593C45.2484 49.6593 45.4414 49.8629 45.4414 50.1703V50.2445L44.6399 50.2466C44.6548 50.465 44.7693 50.5859 44.9664 50.5859C45.1212 50.5859 45.223 50.5223 45.2569 50.4035H45.4435C45.3926 50.6262 45.2188 50.7513 44.9622 50.7513ZM44.9537 49.8268C44.7799 49.8268 44.6696 49.9307 44.6442 50.1131H45.2421C45.2421 49.9413 45.1297 49.8268 44.9537 49.8268ZM46.2513 49.6805V49.8629H46.1623C45.9736 49.8629 45.857 49.9774 45.857 50.1767V50.7258H45.6576V49.6911H45.8442L45.857 49.848C45.8994 49.7399 46.0033 49.6678 46.1453 49.6678C46.1814 49.6678 46.211 49.672 46.2513 49.6805Z" fill="#978E8E"/>
<rect x="30.3612" y="25.4884" width="18.1761" height="0.644929" rx="0.264619" fill="#DEDFDF"/>
<rect x="30.3612" y="27.1935" width="33.4512" height="0.644929" rx="0.264619" fill="#DEDFDF"/>
<rect x="30.3612" y="28.8986" width="33.4512" height="0.644929" rx="0.264619" fill="#DEDFDF"/>
<rect x="30.3612" y="30.6036" width="33.4512" height="0.644929" rx="0.264619" fill="#DEDFDF"/>
<rect x="29.3672" y="23.7881" width="0.759771" height="0.899578" stroke="black" stroke-width="0.132309"/>
<path d="M29.6029 24.7504L29.6029 32.1715" stroke="black" stroke-width="0.0793856" stroke-dasharray="0.53 0.4"/>
<path d="M64.5882 24.7502L64.5882 32.1713" stroke="black" stroke-width="0.0793856" stroke-dasharray="0.53 0.4"/>
<path d="M30.1917 24.238H64.035" stroke="black" stroke-width="0.0793856" stroke-dasharray="0.53 0.4"/>
<path d="M30.1917 32.6877H64.035" stroke="black" stroke-width="0.0793856" stroke-dasharray="0.53 0.4"/>
<rect x="64.0469" y="23.7881" width="0.759771" height="0.899578" stroke="black" stroke-width="0.132309"/>
<rect x="29.3671" y="32.2377" width="0.759771" height="0.899578" stroke="black" stroke-width="0.132309"/>
<rect x="64.0469" y="32.2377" width="0.759771" height="0.899578" stroke="#0B99FF" stroke-width="0.132309"/>
<g filter="url(#filter1_d_2_519)">
<rect x="60.3991" y="10.9995" width="21.6418" height="8.24063" rx="1.49549" fill="white" shape-rendering="crispEdges"/>
<rect x="60.4925" y="11.093" width="21.4548" height="8.05369" rx="1.40202" stroke="#EBE7E5" stroke-width="0.186936" shape-rendering="crispEdges"/>
<g clip-path="url(#clip0_2_519)">
<path d="M63.1418 16.2402C63.1418 15.759 63.5319 15.3688 64.0131 15.3688C64.4944 15.3688 64.8845 15.759 64.8845 16.2402M64.5111 14.4974C64.5111 14.7724 64.2881 14.9954 64.0131 14.9954C63.7381 14.9954 63.5152 14.7724 63.5152 14.4974C63.5152 14.2224 63.7381 13.9995 64.0131 13.9995C64.2881 13.9995 64.5111 14.2224 64.5111 14.4974Z" stroke="#131A29" stroke-width="0.224071" stroke-linecap="round" stroke-linejoin="round"/>
</g>
<path d="M67.2428 16.1199H66.9544L67.7008 14.0759H68.009L68.7581 16.1199H68.4669L68.2832 15.611H67.4237L67.2428 16.1199ZM67.8195 14.5169L67.5086 15.3707H68.2012L67.8874 14.5169C67.8733 14.4773 67.8591 14.4293 67.8535 14.3982C67.8478 14.4264 67.8337 14.4745 67.8195 14.5169ZM69.2164 16.1199H68.9761V14.0391H69.2419V14.9749C69.3323 14.794 69.5189 14.6978 69.7451 14.6978C70.1409 14.6978 70.3784 15.0088 70.3784 15.4357C70.3784 15.8541 70.1296 16.1538 69.7281 16.1538C69.5104 16.1538 69.3267 16.0577 69.2362 15.8683L69.2164 16.1199ZM69.2447 15.4244C69.2447 15.7128 69.4087 15.9135 69.6801 15.9135C69.9515 15.9135 70.1126 15.7099 70.1126 15.4244C70.1126 15.1417 69.9515 14.9382 69.6801 14.9382C69.4087 14.9382 69.2447 15.1417 69.2447 15.4244ZM70.5723 15.4272C70.5723 15.0003 70.8777 14.7007 71.2932 14.7007C71.706 14.7007 72.0113 15.0003 72.0113 15.4272C72.0113 15.8541 71.706 16.1538 71.2932 16.1538C70.8777 16.1538 70.5723 15.8541 70.5723 15.4272ZM70.8409 15.4272C70.8409 15.7156 71.0247 15.9163 71.2932 15.9163C71.559 15.9163 71.7456 15.7156 71.7456 15.4272C71.7456 15.1389 71.559 14.9382 71.2932 14.9382C71.0247 14.9382 70.8409 15.1389 70.8409 15.4272ZM73.2194 14.7374H73.4823V16.1199H73.2449L73.2166 15.9107C73.1374 16.0549 72.9537 16.1538 72.7501 16.1538C72.4278 16.1538 72.2469 15.9361 72.2469 15.5969V14.7374H72.5127V15.5092C72.5127 15.8061 72.6399 15.9191 72.8434 15.9191C73.0866 15.9191 73.2194 15.7637 73.2194 15.4668V14.7374ZM74.2496 16.1199H73.9838V14.9608H73.7124V14.7374H73.9838V14.3049H74.2496V14.7374H74.521V14.9608H74.2496V16.1199ZM75.3827 16.739V16.5213H75.5608C75.688 16.5213 75.7898 16.5015 75.8548 16.3263L75.9028 16.1934L75.3459 14.7374H75.6258L76.0272 15.8513L76.4372 14.7374H76.7114L76.0583 16.4309C75.965 16.6683 75.8265 16.7673 75.6145 16.7673C75.5268 16.7673 75.4533 16.756 75.3827 16.739ZM76.7722 15.4272C76.7722 15.0003 77.0775 14.7007 77.4931 14.7007C77.9058 14.7007 78.2111 15.0003 78.2111 15.4272C78.2111 15.8541 77.9058 16.1538 77.4931 16.1538C77.0775 16.1538 76.7722 15.8541 76.7722 15.4272ZM77.0407 15.4272C77.0407 15.7156 77.2245 15.9163 77.4931 15.9163C77.7588 15.9163 77.9454 15.7156 77.9454 15.4272C77.9454 15.1389 77.7588 14.9382 77.4931 14.9382C77.2245 14.9382 77.0407 15.1389 77.0407 15.4272ZM79.4193 14.7374H79.6822V16.1199H79.4447L79.4164 15.9107C79.3373 16.0549 79.1535 16.1538 78.95 16.1538C78.6277 16.1538 78.4467 15.9361 78.4467 15.5969V14.7374H78.7125V15.5092C78.7125 15.8061 78.8397 15.9191 79.0433 15.9191C79.2864 15.9191 79.4193 15.7637 79.4193 15.4668V14.7374Z" fill="#978E8E"/>
</g>
<g style="mix-blend-mode:color">
<path d="M47.2304 53.1011C47.2128 54.2079 42.119 55.0292 35.8473 54.9414C29.5757 54.8535 24.5038 53.8829 24.5214 52.7805C24.5346 51.6737 29.6328 50.8524 35.9045 50.9403C42.1761 51.0281 47.2479 51.9987 47.2304 53.1011Z" fill="#7B07DE"/>
</g>
<defs>
<filter id="filter0_d_2_519" x="14.7383" y="3.90321" width="65.5236" height="62.6965" filterUnits="userSpaceOnUse" color-interpolation-filters="sRGB">
<feFlood flood-opacity="0" result="BackgroundImageFix"/>
<feColorMatrix in="SourceAlpha" type="matrix" values="0 0 0 0 0 0 0 0 0 0 0 0 0 0 0 0 0 0 127 0" result="hardAlpha"/>
<feOffset dy="-0.661547"/>
<feGaussianBlur stdDeviation="4.63083"/>
<feComposite in2="hardAlpha" operator="out"/>
<feColorMatrix type="matrix" values="0 0 0 0 0 0 0 0 0 0 0 0 0 0 0 0 0 0 0.08 0"/>
<feBlend mode="normal" in2="BackgroundImageFix" result="effect1_dropShadow_2_519"/>
<feBlend mode="normal" in="SourceGraphic" in2="effect1_dropShadow_2_519" result="shape"/>
</filter>
<filter id="filter1_d_2_519" x="57.9689" y="9.8779" width="26.5021" height="13.1009" filterUnits="userSpaceOnUse" color-interpolation-filters="sRGB">
<feFlood flood-opacity="0" result="BackgroundImageFix"/>
<feColorMatrix in="SourceAlpha" type="matrix" values="0 0 0 0 0 0 0 0 0 0 0 0 0 0 0 0 0 0 127 0" result="hardAlpha"/>
<feOffset dy="1.30855"/>
<feGaussianBlur stdDeviation="1.21508"/>
<feComposite in2="hardAlpha" operator="out"/>
<feColorMatrix type="matrix" values="0 0 0 0 0 0 0 0 0 0 0 0 0 0 0 0 0 0 0.14 0"/>
<feBlend mode="normal" in2="BackgroundImageFix" result="effect1_dropShadow_2_519"/>
<feBlend mode="normal" in="SourceGraphic" in2="effect1_dropShadow_2_519" result="shape"/>
</filter>
<clipPath id="clip0_2_519">
<rect width="2.98761" height="2.98761" fill="white" transform="translate(62.5194 13.6261)"/>
</clipPath>
</defs>
</svg>
