<svg width="81" height="81" viewBox="0 0 81 81" fill="none" xmlns="http://www.w3.org/2000/svg">
<path opacity="0.25" d="M16.5671 58.83C13.7831 58.83 11.4244 58.482 9.49106 57.786C7.5964 57.09 6.04973 56.1813 4.85106 55.06C3.6524 53.9387 2.70506 52.7593 2.00906 51.522C1.35173 50.246 0.887729 49.0473 0.617062 47.926C0.385063 46.766 0.269063 45.8187 0.269063 45.084H8.73706C8.73706 45.896 8.96906 46.8047 9.43306 47.81C9.89706 48.7767 10.6704 49.6273 11.7531 50.362C12.8744 51.0967 14.4404 51.464 16.4511 51.464C18.5391 51.464 20.2597 50.9227 21.6131 49.84C23.0051 48.7573 23.7011 47.3073 23.7011 45.49C23.7011 43.866 23.1017 42.532 21.9031 41.488C20.7431 40.4053 19.0804 39.864 16.9151 39.864H11.1151V32.962H16.9731C18.8291 32.962 20.3177 32.4593 21.4391 31.454C22.5604 30.41 23.1211 29.134 23.1211 27.626C23.1211 26.0407 22.4831 24.726 21.2071 23.682C19.9311 22.5993 18.3457 22.058 16.4511 22.058C14.6724 22.058 13.2611 22.4447 12.2171 23.218C11.2117 23.9913 10.4771 24.9 10.0131 25.944C9.58773 26.988 9.37506 27.8967 9.37506 28.67H1.08106C1.08106 27.974 1.19706 27.046 1.42906 25.886C1.69973 24.726 2.16373 23.508 2.82106 22.232C3.4784 20.956 4.38706 19.7573 5.54706 18.636C6.70706 17.476 8.1764 16.548 9.95506 15.852C11.7724 15.1173 13.9764 14.75 16.5671 14.75C19.1577 14.75 21.6131 15.2333 23.9331 16.2C26.2917 17.128 28.2057 18.5007 29.6751 20.318C31.1444 22.0967 31.8791 24.262 31.8791 26.814C31.8791 28.554 31.5311 30.062 30.8351 31.338C30.1391 32.5753 29.2884 33.6 28.2831 34.412C27.2777 35.224 26.2724 35.804 25.2671 36.152V36.5C27.2004 37.196 28.9017 38.3173 30.3711 39.864C31.8791 41.372 32.6331 43.4213 32.6331 46.012C32.6331 48.7187 31.8791 51.0387 30.3711 52.972C28.9017 54.8667 26.9491 56.3167 24.5131 57.322C22.0771 58.3273 19.4284 58.83 16.5671 58.83Z" fill="#7B07DE"/>
<path d="M33.4927 11.9342H68.7603C72.1525 11.9342 74.9029 14.6845 74.9029 18.0768V52.1559C74.9029 55.5482 72.1525 58.2985 68.7603 58.2985H33.4927C30.1004 58.2985 27.3501 55.5482 27.3501 52.1559V18.0768C27.3501 14.6845 30.1004 11.9342 33.4927 11.9342Z" fill="white" stroke="#E7E7F1" stroke-width="0.396275"/>
<path d="M23.7452 18.8671L27.2282 17.9544C27.6412 17.8462 28.0807 17.9096 28.4456 18.1311L29.5105 18.7777L29.5108 18.7787L30.6396 19.4884C30.9783 19.7014 31.223 20.0353 31.3246 20.4224L32.5898 25.2506C32.8104 26.0924 32.3073 26.9538 31.4656 27.1746L26.2784 28.5339C25.4365 28.7545 24.5748 28.2507 24.3542 27.4087L22.6201 20.7914C22.3995 19.9494 22.9033 19.0877 23.7452 18.8671Z" fill="white" stroke="#D3D3D3" stroke-width="0.361205"/>
<path d="M28.4497 20.2384L27.8583 18.1842C27.8344 18.1011 27.9238 18.031 27.9988 18.074L30.9918 19.7911C31.0701 19.8359 31.0492 19.9541 30.9604 19.9695L28.6591 20.3694C28.5661 20.3856 28.4758 20.3291 28.4497 20.2384Z" fill="white" stroke="#D3D3D3" stroke-width="0.361205"/>
<rect x="24.6308" y="21.8889" width="3.32824" height="0.832061" rx="0.41603" transform="rotate(-14.6843 24.6308 21.8889)" fill="#C7C7C7"/>
<rect opacity="0.6" x="25.0305" y="23.4092" width="4.89991" height="0.832061" rx="0.41603" transform="rotate(-14.6843 25.0305 23.4092)" fill="#D9D9D9"/>
<rect opacity="0.6" x="25.4285" y="24.929" width="4.89991" height="0.832061" rx="0.41603" transform="rotate(-14.6843 25.4285 24.929)" fill="#D9D9D9"/>
<path d="M48.7222 5.18018H52.3228C52.7496 5.18022 53.1587 5.35291 53.4556 5.65967L54.3218 6.55518V6.55615L55.2339 7.52881C55.5075 7.82079 55.6596 8.20581 55.6597 8.60596V13.5972C55.6597 14.4674 54.9547 15.1731 54.0845 15.1733H48.7222C47.8518 15.1733 47.146 14.4676 47.146 13.5972V6.75635C47.146 5.88596 47.8518 5.18018 48.7222 5.18018Z" fill="white" stroke="#D3D3D3" stroke-width="0.361205"/>
<path d="M52.9297 7.6808V5.53339C52.9297 5.3694 53.1274 5.28657 53.2443 5.40157L55.4275 7.54897C55.5455 7.66501 55.4633 7.8657 55.2978 7.8657H53.1146C53.0125 7.8657 52.9297 7.78291 52.9297 7.6808Z" fill="#D3D3D3"/>
<rect x="48.8124" y="8.32788" width="3.32824" height="0.832061" rx="0.41603" fill="#C7C7C7"/>
<rect opacity="0.6" x="48.8124" y="9.89917" width="4.89991" height="0.832061" rx="0.41603" fill="#D9D9D9"/>
<rect opacity="0.6" x="48.8124" y="11.4709" width="4.89991" height="0.832061" rx="0.41603" fill="#D9D9D9"/>
<path d="M73.9116 18.0583L77.2921 19.2977C77.6929 19.4447 78.0175 19.7476 78.1907 20.1378L78.6957 21.2768L78.6953 21.2777L79.2169 22.5049C79.3733 22.8732 79.3835 23.287 79.2459 23.6627L77.5278 28.3489C77.2283 29.166 76.3234 29.5859 75.5064 29.2866L70.4717 27.4408C69.6545 27.1412 69.2348 26.2356 69.5344 25.4184L71.8892 18.9956C72.1888 18.1784 73.0944 17.7587 73.9116 18.0583Z" fill="white" stroke="#D3D3D3" stroke-width="0.361205"/>
<path d="M77.0014 21.8541L77.7406 19.838C77.797 19.684 78.0111 19.6743 78.0813 19.8225L79.3919 22.5902C79.4627 22.7397 79.3165 22.8998 79.1612 22.8429L77.1114 22.0914C77.0155 22.0562 76.9663 21.95 77.0014 21.8541Z" fill="#D3D3D3"/>
<rect x="72.9126" y="21.0453" width="3.32824" height="0.832061" rx="0.41603" transform="rotate(20.1341 72.9126 21.0453)" fill="#C7C7C7"/>
<rect opacity="0.6" x="72.3716" y="22.521" width="4.89991" height="0.832061" rx="0.41603" transform="rotate(20.1341 72.3716 22.521)" fill="#D9D9D9"/>
<rect opacity="0.6" x="71.8315" y="23.996" width="4.89991" height="0.832061" rx="0.41603" transform="rotate(20.1341 71.8315 23.996)" fill="#D9D9D9"/>
<circle cx="51.4344" cy="37.6044" r="14.2296" stroke="#BBB7B7" stroke-width="0.293394" stroke-dasharray="1.17 1.17"/>
<circle cx="51.4347" cy="37.6048" r="11.4424" fill="#E9E4FF"/>
<g clip-path="url(#clip0_2_582)">
<path d="M55.658 38.6604V40.4206C55.658 40.654 55.5653 40.8779 55.4002 41.043C55.2352 41.208 55.0113 41.3007 54.7779 41.3007H48.6171C48.3837 41.3007 48.1598 41.208 47.9948 41.043C47.8297 40.8779 47.737 40.654 47.737 40.4206V38.6604" stroke="white" stroke-width="0.792099" stroke-linecap="round" stroke-linejoin="round"/>
<path d="M49.4972 36.4601L51.6975 38.6604L53.8978 36.4601" stroke="white" stroke-width="0.792099" stroke-linecap="round" stroke-linejoin="round"/>
<path d="M51.6975 38.6604V33.3798" stroke="white" stroke-width="0.792099" stroke-linecap="round" stroke-linejoin="round"/>
</g>
<defs>
<clipPath id="clip0_2_582">
<rect width="10.5613" height="10.5613" fill="white" transform="translate(46.4168 32.0596)"/>
</clipPath>
</defs>
</svg>
