<svg width="38" height="38" viewBox="0 0 38 38" fill="none" xmlns="http://www.w3.org/2000/svg">
<circle cx="20.0741" cy="19.1448" r="7.52415" transform="rotate(-180 20.0741 19.1448)" fill="#47B749"/>
<path d="M22.8387 19.612C22.5003 20.6023 22.2059 21.6161 21.7626 22.6435C21.6109 23.0551 21.405 23.4447 21.15 23.8022C21.0722 23.8864 20.9978 23.9706 20.9132 24.0515C20.8094 24.1384 20.6959 24.213 20.5748 24.2738C20.3204 24.4075 20.0274 24.4491 19.7457 24.3917C19.503 24.3357 19.2784 24.2199 19.0925 24.0549C18.9425 23.9308 18.8043 23.7932 18.6797 23.6439C18.2379 23.1 17.8299 22.5297 17.458 21.9361C17.1196 21.4309 16.7812 20.9425 16.3988 20.4877C16.1692 20.1998 15.9205 19.9275 15.6543 19.6726C15.4351 19.4367 15.1673 19.2505 14.8692 19.1269C14.7339 19.0966 14.6527 18.9113 14.9065 18.7227C15.0786 18.6248 15.2794 18.5891 15.475 18.6216C15.7231 18.6564 15.9571 18.7577 16.1518 18.9147C16.785 19.4558 17.3387 20.0828 17.7964 20.7774C18.2567 21.4241 18.6763 22.0911 19.1128 22.7041C19.2377 22.8812 19.3793 23.0459 19.5359 23.1959C19.6355 23.3105 19.7658 23.3946 19.9115 23.4384C20.0198 23.4384 20.0604 23.4384 20.1754 23.334C20.3026 23.1979 20.4066 23.042 20.4834 22.8726C20.7016 22.4192 20.8838 21.9496 21.0282 21.4679L21.4986 19.9522C21.705 19.3088 21.8945 18.6924 22.1145 18.0625C22.4456 17.0994 22.8541 16.1644 23.3361 15.2667C23.6957 14.5365 24.1509 13.8569 24.6898 13.2457C24.8127 13.111 24.9426 12.9829 25.0789 12.8617C25.6238 12.4272 25.8877 12.4171 26.1618 12.6428C26.2262 12.6913 26.2863 12.7454 26.3412 12.8044C26.507 13.0133 26.3818 13.3063 26.0908 13.5859C25.6546 14.0205 25.2666 14.5004 24.9334 15.0175C24.5713 15.56 24.2522 16.1299 23.9791 16.7219C23.5513 17.6576 23.184 18.6195 22.8793 19.6018L22.8387 19.612Z" fill="white"/>
<path d="M37.3937 18.581C37.3937 21.0467 33.7153 22.6231 32.656 24.6946C31.5528 26.8133 32.3989 30.6836 30.5072 32.1253C28.6155 33.567 25.0927 31.7413 22.7238 32.2466C20.4396 32.7383 17.9422 35.8642 15.553 35.2208C13.861 34.7695 13.6546 31.1451 12.2603 30.2019C10.8661 29.2588 7.39067 30.3805 6.35854 29.0331C5.3264 27.6858 7.32976 24.6542 6.77139 23.0542C6.21302 21.4542 2.75452 20.3191 2.75452 18.581C2.75452 16.0918 6.44314 14.5389 7.55311 12.5179C8.68677 10.4295 7.93889 6.55247 9.88134 5.15122C11.8238 3.74997 15.3161 5.65985 17.6647 5.15122C19.9624 4.6527 22.4023 1.4662 24.7712 1.99504C26.4632 2.36893 26.7272 5.97985 28.1113 6.92973C29.4953 7.87962 32.9471 6.80847 33.9488 8.1794C34.9504 9.55034 32.8726 12.5145 33.4141 14.1179C33.9555 15.7212 37.3937 16.8901 37.3937 18.581Z" stroke="white" stroke-width="0.60161" stroke-miterlimit="10"/>
<path d="M14.9879 35.0961C13.1267 34.6582 12.7003 30.9463 11.2384 30.0739C9.6411 29.1206 6.13184 30.4107 5.03202 29.0431C3.9322 27.6756 5.90849 24.4857 5.3332 22.788C4.75791 21.0904 1.23511 19.871 1.23511 18.042C1.23511 15.4584 5.07263 13.7978 6.31119 11.6083C7.54976 9.41889 6.92032 5.31956 9.01844 3.87789C11.1165 2.43622 14.6833 4.46399 17.2078 4.14399C19.6478 3.83747 22.6528 0.977706 25.1198 2.05559" stroke="white" stroke-width="0.60161" stroke-miterlimit="10"/>
<path d="M31.1569 5.75105C30.9674 5.76789 30.7914 5.78473 30.6087 5.81841C30.4259 5.8521 30.2195 5.88915 29.9996 5.90599C29.8291 5.9263 29.6564 5.91833 29.4886 5.88241C29.3273 5.84233 29.1777 5.76502 29.052 5.65673C28.9394 5.55297 28.8435 5.43254 28.7678 5.29968C28.6429 5.06011 28.554 4.80364 28.5038 4.53843C28.4564 4.31948 28.409 4.1039 28.3481 3.90517C28.2677 3.66356 28.1599 3.43188 28.0266 3.21465C27.986 3.14728 28.0537 3.07655 28.1823 3.06644C28.2654 3.06092 28.3483 3.07808 28.4223 3.11608C28.4962 3.15407 28.5584 3.21145 28.6019 3.28202C28.9403 3.86138 28.9843 4.45422 29.1434 4.91232C29.1854 5.04541 29.2668 5.1628 29.3769 5.24916C29.4758 5.32135 29.593 5.36452 29.7153 5.37379C30.0842 5.36619 30.4515 5.32219 30.8117 5.24242C31.0554 5.2121 31.299 5.18853 31.5461 5.17505C31.9186 5.1593 32.2919 5.17055 32.6628 5.20874C32.949 5.22763 33.2338 5.26363 33.5156 5.31652C33.5774 5.324 33.6385 5.3364 33.6983 5.35358C33.9251 5.41758 33.9758 5.49505 33.986 5.61968C33.989 5.64654 33.989 5.67366 33.986 5.70052C33.986 5.78136 33.8675 5.84199 33.6983 5.83862C33.2009 5.81505 32.7237 5.75105 32.2398 5.72747C31.8737 5.71197 31.507 5.72662 31.1434 5.77126L31.1569 5.75105Z" fill="white"/>
<path d="M9.57325 31.2593C9.98326 31.3359 10.3573 31.5427 10.6392 31.8488C10.7369 31.9532 10.8252 32.0659 10.9032 32.1856C11.1334 32.5992 11.327 33.032 11.4819 33.4791L11.7052 34.0517C11.8103 34.2916 11.8996 34.538 11.9725 34.7894C12.0165 34.9477 11.712 34.8466 11.5868 34.5704C11.3668 34.082 11.1773 33.5936 10.981 33.1052C10.8558 32.8134 10.6943 32.5385 10.5005 32.2866C10.3099 32.0237 10.0356 31.8326 9.72214 31.7443C9.52145 31.6905 9.31405 31.6656 9.10625 31.6702C8.77829 31.6768 8.45227 31.722 8.13502 31.805C7.8846 31.869 7.64772 31.97 7.40407 32.0542L7.23825 32.1081C7.03182 32.1587 6.95399 32.1384 6.88292 32.0374C6.866 32.0138 6.84908 31.9902 6.83554 31.9667C6.79832 31.8824 6.866 31.7881 7.00475 31.7208C7.44168 31.505 7.90798 31.3541 8.38883 31.2728C8.77988 31.1937 9.18169 31.1824 9.57663 31.2391L9.57325 31.2593Z" fill="white"/>
</svg>
