<svg width="360" height="251" viewBox="0 0 360 251" fill="none" xmlns="http://www.w3.org/2000/svg">
<g style="mix-blend-mode:plus-darker" opacity="0.04" clip-path="url(#clip0_8445_1540)">
<rect width="360" height="251" fill="url(#paint0_linear_8445_1540)"/>
<path d="M283.916 332.782C266.396 342.302 247.676 349.426 228.259 353.962L177.603 137.128L283.916 332.782Z" fill="url(#paint1_linear_8445_1540)"/>
<path d="M56.9287 324.264C40.1711 313.458 24.941 300.449 11.6467 285.588L177.606 137.127L56.9287 324.264Z" fill="url(#paint2_linear_8445_1540)"/>
<path d="M64.2093 -59.4967C81.9377 -70.0003 101.038 -77.9922 120.964 -83.2437L177.712 132.077L64.2093 -59.4967Z" fill="url(#paint3_linear_8445_1540)"/>
<path d="M378.274 25.3789C388.281 42.626 395.926 61.139 401.003 80.4214L185.672 137.126L378.274 25.3789Z" fill="url(#paint4_linear_8445_1540)"/>
<path d="M400.272 138.689C400.132 158.629 397.314 178.459 391.895 197.648L177.604 137.126L400.272 138.689Z" fill="url(#paint5_linear_8445_1540)"/>
<path d="M170.027 359.671C150.099 358.992 130.352 355.64 111.317 349.704L177.606 137.127L170.027 359.671Z" fill="url(#paint6_linear_8445_1540)"/>
<path d="M-11.0711 14.3212C0.114499 -3.02505 13.6574 -18.7319 29.1689 -32.3482L176.067 134.996L-11.0711 14.3212Z" fill="url(#paint7_linear_8445_1540)"/>
<path d="M368.405 251.922C358.126 269.008 345.598 284.636 331.157 298.386L177.605 137.126L368.405 251.922Z" fill="url(#paint8_linear_8445_1540)"/>
<path d="M-44.4059 119.961C-42.8688 100.08 -38.6684 80.4962 -31.9173 61.7341L177.604 137.126L-44.4059 119.961Z" fill="url(#paint9_linear_8445_1540)"/>
<path d="M-21.7676 236.291C-30.6475 218.438 -37.0891 199.473 -40.9197 179.904L177.605 137.127L-21.7676 236.291Z" fill="url(#paint10_linear_8445_1540)"/>
<path d="M189.288 -87.6057C209.208 -86.7171 228.919 -83.157 247.891 -77.0208L179.366 134.846L189.288 -87.6057Z" fill="url(#paint11_linear_8445_1540)"/>
<path d="M301.137 -55.6111C318.206 -45.3028 333.812 -32.7485 347.538 -18.2851L186.021 134.997L301.137 -55.6111Z" fill="url(#paint12_linear_8445_1540)"/>
</g>
<defs>
<linearGradient id="paint0_linear_8445_1540" x1="180" y1="110.315" x2="186.84" y2="330.094" gradientUnits="userSpaceOnUse">
<stop stop-color="#100625"/>
<stop offset="1" stop-color="white" stop-opacity="0.45"/>
</linearGradient>
<linearGradient id="paint1_linear_8445_1540" x1="136.384" y1="170.147" x2="282.038" y2="90.1316" gradientUnits="userSpaceOnUse">
<stop offset="0.0448309" stop-color="#FFF1ED"/>
<stop offset="1" stop-color="white"/>
</linearGradient>
<linearGradient id="paint2_linear_8445_1540" x1="128.861" y1="116.799" x2="268.938" y2="206.219" gradientUnits="userSpaceOnUse">
<stop offset="0.0448309" stop-color="#FFF1ED"/>
<stop offset="1" stop-color="white"/>
</linearGradient>
<linearGradient id="paint3_linear_8445_1540" x1="217.677" y1="97.55" x2="75.0936" y2="182.917" gradientUnits="userSpaceOnUse">
<stop offset="0.0448309" stop-color="#FFF1ED"/>
<stop offset="1" stop-color="white"/>
</linearGradient>
<linearGradient id="paint4_linear_8445_1540" x1="219.832" y1="177.405" x2="135.771" y2="34.0472" gradientUnits="userSpaceOnUse">
<stop offset="0.0448309" stop-color="#FFF1ED"/>
<stop offset="1" stop-color="white"/>
</linearGradient>
<linearGradient id="paint5_linear_8445_1540" x1="186.573" y1="189.173" x2="186.973" y2="22.9888" gradientUnits="userSpaceOnUse">
<stop offset="0.0448309" stop-color="#FFF1ED"/>
<stop offset="1" stop-color="white"/>
</linearGradient>
<linearGradient id="paint6_linear_8445_1540" x1="125.336" y1="144.686" x2="291.449" y2="149.576" gradientUnits="userSpaceOnUse">
<stop offset="0.0448309" stop-color="#FFF1ED"/>
<stop offset="1" stop-color="white"/>
</linearGradient>
<linearGradient id="paint7_linear_8445_1540" x1="196.395" y1="86.2505" x2="106.977" y2="226.329" gradientUnits="userSpaceOnUse">
<stop offset="0.0448309" stop-color="#FFF1ED"/>
<stop offset="1" stop-color="white"/>
</linearGradient>
<linearGradient id="paint8_linear_8445_1540" x1="158.803" y1="186.48" x2="243.82" y2="43.6883" gradientUnits="userSpaceOnUse">
<stop offset="0.0448309" stop-color="#FFF1ED"/>
<stop offset="1" stop-color="white"/>
</linearGradient>
<linearGradient id="paint9_linear_8445_1540" x1="172.306" y1="84.5782" x2="160.259" y2="250.326" gradientUnits="userSpaceOnUse">
<stop offset="0.0448309" stop-color="#FFF1ED"/>
<stop offset="1" stop-color="white"/>
</linearGradient>
<linearGradient id="paint10_linear_8445_1540" x1="146.099" y1="94.7402" x2="220.792" y2="243.194" gradientUnits="userSpaceOnUse">
<stop offset="0.0448309" stop-color="#FFF1ED"/>
<stop offset="1" stop-color="white"/>
</linearGradient>
<linearGradient id="paint11_linear_8445_1540" x1="231.713" y1="127.838" x2="65.6606" y2="121.198" gradientUnits="userSpaceOnUse">
<stop offset="0.0448309" stop-color="#FFF1ED"/>
<stop offset="1" stop-color="white"/>
</linearGradient>
<linearGradient id="paint12_linear_8445_1540" x1="235.343" y1="153.881" x2="92.6945" y2="68.624" gradientUnits="userSpaceOnUse">
<stop offset="0.0448309" stop-color="#FFF1ED"/>
<stop offset="1" stop-color="white"/>
</linearGradient>
<clipPath id="clip0_8445_1540">
<rect width="360" height="251" fill="white"/>
</clipPath>
</defs>
</svg>
