<svg width="16" height="15" viewBox="0 0 16 15" fill="none" xmlns="http://www.w3.org/2000/svg">
<path fill-rule="evenodd" clip-rule="evenodd" d="M11.2656 0.230465C11.4654 0.110529 11.7128 0.101031 11.9213 0.205283L14.6485 1.56892C14.8795 1.68441 15.0254 1.9205 15.0254 2.17876V13.7956C15.4019 13.7957 15.6901 14.0209 15.6901 14.3974C15.6901 14.774 15.4019 14.996 15.0253 14.996H1.38894C1.01238 14.996 0.728027 14.7755 0.728027 14.399C0.728027 14.0224 1.01238 13.7956 1.38894 13.7956V6.63655C1.38894 6.39705 1.5146 6.17511 1.71997 6.05189L5.08442 3.87729C5.28431 3.75736 5.57626 3.877 5.78477 3.98126L7.52543 4.90989V2.86057C7.52543 2.62108 7.65109 2.39914 7.85646 2.27592L11.2656 0.230465ZM14.0252 2.51707V13.7956H12.0076V1.35181L14.0252 2.51707ZM10.9342 1.5991V13.7956H8.58378L8.4427 3.16612L10.9342 1.5991ZM7.52543 6.10174V13.7956H5.84275V5.18608L7.41785 6.05189C7.4539 6.06992 7.48982 6.08665 7.52543 6.10174ZM4.79779 5.39679V13.7956H2.38339V6.89797L4.79779 5.39679Z" fill="#FFFF5D"/>
</svg>
