<svg width="85" height="84" viewBox="0 0 85 84" fill="none" xmlns="http://www.w3.org/2000/svg">
<g clip-path="url(#clip0_5918_11104)">
<path d="M34.3622 15.5137C37.4416 14.1055 40.8316 13.5134 44.206 13.7944C44.8229 13.7944 45.4201 13.9387 46.0304 14.0109C46.6326 14.1154 47.2285 14.2534 47.8154 14.4244C51.8978 15.683 55.5389 18.0748 58.3154 21.3215C59.5422 22.7371 60.5912 24.2975 61.4391 25.9678C61.7016 26.5059 61.9576 27.0506 62.1872 27.6019C62.4169 28.1531 62.6335 28.7175 62.7779 29.3015C62.9438 29.8787 63.058 30.4694 63.1191 31.0669C63.1191 31.3622 63.1913 31.6575 63.1979 31.9594V32.8519C63.1979 33.5934 63.0601 33.5081 62.7779 32.9109C62.6269 32.6222 62.4694 32.2022 62.2266 31.7231C61.9639 31.1921 61.7316 30.6465 61.531 30.089C60.8799 27.9076 59.8709 25.8496 58.5451 23.999C57.218 22.1249 55.6163 20.4612 53.7938 19.064C52.6784 18.2037 51.4591 17.4871 50.1647 16.9312C48.8727 16.3489 47.5155 15.9237 46.1222 15.6647C43.061 15.0645 39.8967 15.2634 36.9348 16.2422C35.094 16.842 33.3533 17.7135 31.7701 18.8278C29.3399 20.4994 27.2913 22.6666 25.7588 25.1869C25.1759 26.1487 24.6859 27.1639 24.2954 28.2187C23.8988 29.2605 23.5915 30.334 23.3766 31.4278C23.2848 31.9069 23.206 32.3794 23.1469 32.865C22.9238 34.6697 22.8123 35.2406 22.3923 35.6409C22.3136 35.7346 22.228 35.8224 22.1363 35.9034C21.9985 35.9953 21.8869 35.8509 21.7557 35.4965C21.5788 34.971 21.5096 34.4153 21.5523 33.8625C21.7643 29.3755 23.4531 25.0843 26.356 21.6562C28.5201 19.0236 31.25 16.9128 34.3426 15.4809L34.3622 15.5137Z" fill="#121224"/>
<path d="M6.13495 47.1056C5.75875 47.9298 5.45144 48.7836 5.2162 49.6585L4.90776 50.971L4.73058 52.3163C4.5663 54.1215 4.73762 55.9415 5.23589 57.6844L5.54433 58.6294C5.66245 58.9378 5.81995 59.2332 5.95776 59.535C6.23802 60.1325 6.5604 60.7092 6.92245 61.261C8.17493 63.2474 9.96292 64.8397 12.0806 65.8547C14.2918 66.7905 16.6958 67.1799 19.0893 66.99C21.2469 66.8572 23.3859 66.5099 25.4746 65.9532C28.1718 65.2969 30.8165 64.3519 33.6056 63.9253C34.4784 63.8138 34.3996 63.991 33.75 64.4241C32.7062 65.1221 31.559 65.6514 30.3506 65.9925C27.598 66.8615 24.7893 67.5412 21.944 68.0269C21.2156 68.1188 20.4937 68.2435 19.7521 68.2763L18.6496 68.3485H17.5275C16.7785 68.3326 16.0312 68.2713 15.2896 68.1647C14.9221 68.1188 14.5546 68.0072 14.1806 67.935C13.8109 67.8628 13.4468 67.7641 13.0912 67.6397C11.3274 67.0798 9.69383 66.1716 8.28745 64.9688L7.27683 64.0238C6.9487 63.6957 6.67964 63.3216 6.37776 62.9738C6.22683 62.79 6.07589 62.6194 5.93808 62.4356L5.56401 61.845C5.30146 61.4654 5.06467 61.0686 4.85526 60.6572C3.00808 57.0174 2.60942 52.8127 3.73964 48.8907C4.42559 46.521 5.58169 44.3136 7.13901 42.4003C8.30647 40.9516 9.70304 39.7036 11.2734 38.7057C12.8211 37.699 14.4991 36.9085 16.2609 36.3563C18.9815 35.4907 21.8654 35.2661 24.6871 35.7C25.3058 35.7925 25.9191 35.9173 26.5246 36.0741C27.3274 36.2929 28.096 36.622 28.8084 37.0519C29.0039 37.1696 29.1827 37.3131 29.34 37.4785C29.4447 37.6096 29.537 37.7502 29.6156 37.8985C29.6812 38.0166 29.7796 38.1413 29.8125 38.22C29.8453 38.2988 29.6615 38.3578 29.2218 38.3316C28.9599 38.3192 28.7012 38.2684 28.454 38.1806C28.1456 38.1085 27.7978 38.0166 27.4171 37.905C26.2749 37.579 25.1102 37.3377 23.9325 37.1832C22.7405 37.0486 21.5385 37.0288 20.3428 37.1241C19.1407 37.2258 17.9515 37.4456 16.7925 37.7803C15.6282 38.1485 14.5028 38.6299 13.4325 39.2175C11.8386 40.0855 10.3868 41.192 9.12745 42.4988C7.90303 43.8446 6.90564 45.3806 6.17433 47.0466L6.13495 47.1056Z" fill="#121224"/>
<path d="M77.5109 53.55C78.1693 52.23 78.5385 50.7847 78.5937 49.3107C78.7645 46.6737 78.0736 44.0526 76.625 41.8425C76.1099 41.0136 75.495 40.251 74.7941 39.5719C74.087 38.8923 73.3029 38.2976 72.4578 37.8C70.7204 36.8394 68.7991 36.2579 66.8206 36.0938C65.0541 35.9512 63.2763 36.1245 61.5706 36.6057C59.3787 37.2291 57.41 38.4694 55.2772 39.421C54.6209 39.6966 54.6209 39.5325 55.0278 39.0141C55.6881 38.1714 56.5232 37.4818 57.4756 36.9928C58.5611 36.3993 59.6991 35.9072 60.875 35.5228C62.077 35.1617 63.3169 34.9415 64.5697 34.8666C67.0701 34.6744 69.5797 35.0957 71.8803 36.0938C74.7243 37.3544 77.0645 39.5306 78.5281 42.2757C79.2972 43.7838 79.7906 45.4173 79.985 47.0991C80.2108 48.7842 80.0993 50.4975 79.6569 52.1391C79.0699 54.1472 77.9735 55.9694 76.4741 57.4285C74.2283 59.6029 71.3783 61.0485 68.2972 61.576C66.006 61.9486 63.6974 62.2049 61.3803 62.3438C60.8816 62.3766 60.4025 62.4488 59.9037 62.4882C59.5164 62.5414 59.1265 62.5743 58.7356 62.5866C58.4711 62.6015 58.206 62.6015 57.9416 62.5866C57.761 62.5854 57.5808 62.5679 57.4034 62.5341C57.2672 62.4921 57.1354 62.4372 57.0097 62.37C56.9047 62.3175 56.7669 62.2782 56.7078 62.2388C56.6488 62.1994 56.7078 62.055 57.0294 61.8385C57.5029 61.5527 58.0261 61.359 58.5716 61.2675C60.6599 60.9154 62.7685 60.6962 64.8847 60.6113C66.9393 60.5161 68.9669 60.1044 70.8959 59.3907C73.7012 58.2846 76.0255 56.223 77.4584 53.5697L77.5109 53.55Z" fill="#121224"/>
<path d="M59.3193 11.5042C59.4784 11.2772 59.7202 11.1219 59.9927 11.0715C60.2652 11.0212 60.5466 11.08 60.7762 11.2351C62.7843 12.8954 57.2522 14.0111 59.3193 11.5042Z" stroke="#121224" stroke-width="0.468837" stroke-miterlimit="10"/>
<path d="M73.7708 31.2503C73.9298 31.0233 74.1716 30.868 74.4441 30.8176C74.7166 30.7673 74.998 30.826 75.2276 30.9812C77.2358 32.6415 71.7036 33.7572 73.7708 31.2503Z" fill="#F05537"/>
<path d="M21.9707 13.0503C22.1297 12.8234 22.3716 12.668 22.6441 12.6177C22.9166 12.5673 23.198 12.6261 23.4276 12.7813C25.4357 14.4416 19.9035 15.5572 21.9707 13.0503Z" fill="#F05537"/>
<path d="M0.970707 36.1504C1.12974 35.9235 1.37157 35.7681 1.64408 35.7178C1.9166 35.6674 2.19798 35.7262 2.42758 35.8814C4.43571 37.5417 -1.09648 38.6573 0.970707 36.1504Z" fill="#F05537"/>
<path d="M14.2708 24.9502C14.4298 24.7233 14.6716 24.5679 14.9441 24.5176C15.2166 24.4672 15.498 24.526 15.7276 24.6812C17.7358 26.3415 12.2036 27.4571 14.2708 24.9502Z" stroke="#F05537" stroke-width="0.7" stroke-miterlimit="10"/>
<path d="M14.1961 44.0278C14.3549 43.8023 14.5961 43.6484 14.8674 43.5993C15.1388 43.5502 15.4186 43.6098 15.6464 43.7653C17.6545 45.419 12.1223 46.5347 14.1961 44.0278Z" stroke="#121224" stroke-width="0.468837" stroke-miterlimit="10"/>
<path d="M64.1553 22.0893C64.3141 21.8639 64.5553 21.71 64.8267 21.6608C65.098 21.6117 65.3778 21.6713 65.6056 21.8268C67.6006 23.4806 62.0684 24.6027 64.1553 22.0893Z" stroke="#121224" stroke-width="0.468837" stroke-miterlimit="10"/>
<path d="M72.2869 17.5483C72.4457 17.3228 72.6869 17.1689 72.9583 17.1198C73.2296 17.0707 73.5094 17.1303 73.7372 17.2858C75.7453 18.9395 70.2131 20.0552 72.2869 17.5483Z" fill="#121224"/>
<path d="M64.0391 71.4787C64.1979 71.2533 64.4391 71.0994 64.7104 71.0502C64.9818 71.0011 65.2616 71.0607 65.4894 71.2162C67.4975 72.8437 61.9653 73.9922 64.0391 71.4787Z" fill="#121224"/>
<path d="M19.5309 67.9155C18.8353 67.9155 18.1331 67.8433 17.4309 67.8105C16.7287 67.7776 16.0396 67.6333 15.3506 67.4955C14.8518 67.3708 14.3399 67.292 13.8478 67.1542C12.1009 66.6428 10.4849 65.7609 9.10963 64.5686C8.79477 64.3215 8.50664 64.0422 8.24994 63.7351C7.98744 63.4333 7.71182 63.1445 7.469 62.8295L6.63557 61.517C6.43213 61.0511 6.23526 60.5786 6.05807 60.1061C5.95307 59.8108 6.09744 59.8042 6.32713 59.9945C6.66466 60.2897 6.93727 60.6517 7.12776 61.0576C8.08573 62.7745 9.49204 64.199 11.1965 65.1789C11.4503 65.337 11.7184 65.471 11.9971 65.5792C12.2701 65.7114 12.5506 65.8275 12.8371 65.927L13.7231 66.1895L14.1628 66.3208L14.6156 66.4061L15.6065 66.6095C15.9346 66.6686 16.2628 66.6948 16.6106 66.7408C17.2668 66.8458 17.9624 66.8655 18.6384 66.9048C19.0584 66.9442 19.4784 66.9048 19.8984 66.9048C20.3184 66.9048 20.7384 66.9048 21.1584 66.9048C22.4332 66.8374 23.7037 66.7038 24.9646 66.5045C25.9424 66.3733 26.8874 66.1501 27.839 65.9598C28.0556 65.9205 28.259 65.8614 28.4953 65.8155C29.2828 65.6514 29.5453 65.6514 29.7487 65.7498C29.794 65.7658 29.8379 65.7855 29.8799 65.8089C29.9784 65.8876 29.6831 66.0583 29.1187 66.2617C27.3888 66.902 25.5993 67.3681 23.7768 67.653L22.7334 67.7776L21.6768 67.8498C20.9746 67.9155 20.2659 67.9155 19.5637 67.922L19.5309 67.9155Z" fill="#121224"/>
<path d="M71.4797 60.8804C70.4866 61.2618 69.4666 61.5689 68.4281 61.7992C68.0475 61.8779 67.6734 61.9633 67.2928 62.0223C65.9803 62.2323 64.6087 62.3242 63.27 62.4226L61.4916 62.5801C60.7303 62.6523 59.9756 62.7442 59.2144 62.7508C58.7419 62.7508 59.2997 62.2389 60.1725 62.1405C61.7147 61.983 63.2503 61.8583 64.7662 61.7401C65.7108 61.6573 66.6505 61.5258 67.5816 61.3464C68.6013 61.1584 69.6043 60.8884 70.5806 60.5392C71.1842 60.3293 71.7758 60.0861 72.3525 59.8108C73.2314 59.4092 74.0634 58.9118 74.8331 58.3276C75.4093 57.8706 75.9331 57.3512 76.395 56.7789C76.5066 56.6608 76.5919 56.5295 76.6969 56.4048C77.0841 55.9389 77.1825 55.7486 77.3531 55.7486C77.3816 55.7294 77.4125 55.7139 77.445 55.7026C77.5303 55.7026 77.445 55.9258 77.2416 56.3589C76.5353 57.6085 75.5352 58.6671 74.3278 59.4433C73.4337 60.0504 72.4739 60.5546 71.4666 60.9461L71.4797 60.8804Z" fill="#121224"/>
<path d="M41.1001 61.2501L43.4334 60.4501L44.6001 59.8501" stroke="#F05537" stroke-width="1.4" stroke-linecap="round"/>
<path d="M41.1001 63.3502L43.4334 62.5502L44.6001 61.9502" stroke="#F05537" stroke-width="1.4" stroke-linecap="round"/>
<path d="M41.1001 59.15L43.4334 58.35L44.6001 57.75" stroke="#F05537" stroke-width="1.4" stroke-linecap="round"/>
<path d="M41.1001 57.0501L43.4334 56.2501L44.6001 55.6501" stroke="#F05537" stroke-width="1.4" stroke-linecap="round"/>
<path d="M42.3542 39.2043C42.8172 39.1593 43.2072 39.4379 43.4597 39.8333C43.8826 40.4956 44.3839 41.1114 44.907 41.7122L45.4353 42.3088L45.4363 42.3098C46.021 42.9711 46.6501 43.6791 47.1882 44.4465L47.5906 45.01C47.994 45.5693 48.4092 46.1152 48.8796 46.6067L48.9802 46.717C49.0843 46.8401 49.1951 47.0048 49.2654 47.1975H49.2664C49.3135 47.3201 49.3386 47.4398 49.3386 47.554C49.3386 47.7472 49.2714 47.8871 49.2039 47.9817L49.2019 47.9836C49.0702 48.1647 48.8379 48.2874 48.5134 48.2805V48.2825H48.3611L48.3484 48.2815C47.8558 48.2468 47.3703 48.2272 46.8992 48.2795L46.8806 48.2825H46.8523C46.731 48.2982 46.6537 48.3103 46.5984 48.3215C46.5953 48.3889 46.5963 48.4839 46.6013 48.635L46.6023 48.6458C46.6023 48.7759 46.6145 48.8749 46.6228 49.0413H46.6218L46.6365 49.2454V49.2473C46.6791 49.9296 46.7768 53.656 46.8328 57.2649C46.8923 61.1011 46.8852 63.0644 46.8552 64.0784C46.8403 64.582 46.8195 64.864 46.7957 65.0286C46.7839 65.1093 46.769 65.1814 46.7449 65.2434C46.7125 65.3266 46.6704 65.3755 46.6394 65.4065C46.5521 65.4938 46.428 65.5441 46.3083 65.5442H46.0037C45.0911 65.5161 44.1704 65.4876 43.281 65.5491L43.282 65.55C42.5113 65.6066 41.6716 65.6421 40.6472 65.6702H40.6384C40.5261 65.6702 40.4401 65.6821 40.3025 65.6907L40.3015 65.6897C40.0692 65.7092 39.7548 65.7402 39.4656 65.6477C39.1346 65.5418 38.8807 65.2968 38.7166 64.8821L38.7156 64.8792C38.5957 64.5684 38.5747 64.209 38.5857 63.8723C38.5968 63.5326 38.6427 63.1758 38.6804 62.8635V62.8606C38.7165 62.5795 38.7493 62.3409 38.7556 62.1516V62.1506C38.8605 59.0816 38.922 55.4579 38.6296 51.7405C38.5915 51.2746 38.6463 50.8195 38.6873 50.4231C38.7195 50.111 38.7517 49.8168 38.7527 49.5286L38.7419 49.2424C38.7174 48.9546 38.6949 48.7613 38.6638 48.6282C38.6319 48.4917 38.6041 48.4787 38.6169 48.4895C38.6315 48.5014 38.61 48.4754 38.4636 48.47C38.3266 48.4649 38.1362 48.4797 37.8718 48.511H37.866C37.7477 48.5228 37.6325 48.5469 37.4968 48.5754H37.4958C37.4122 48.5929 37.3218 48.612 37.2263 48.6282L36.9265 48.6663C36.5853 48.6919 36.2048 48.605 35.9929 48.2874C35.7913 47.9849 35.8236 47.624 35.9646 47.3069L35.9666 47.301C36.1281 46.9549 36.3489 46.6211 36.5974 46.3274L36.8289 46.054L36.8308 46.052C37.466 45.3121 38.131 44.5329 38.8328 43.8098C39.9537 42.6546 40.7519 41.4609 41.2644 40.1663L41.2673 40.1594C41.474 39.6668 41.8492 39.2598 42.3503 39.2053L42.3542 39.2043ZM42.4529 40.1184C42.4136 40.1218 42.2656 40.1862 42.1326 40.5217V40.5227C41.5675 41.9425 40.7072 43.2336 39.5105 44.4661C38.8334 45.1639 38.1825 45.9251 37.5437 46.6692L37.5427 46.6682L37.3142 46.9377L37.3152 46.9387C37.1153 47.1773 36.9422 47.4411 36.8083 47.7151C36.796 47.7427 36.7879 47.7654 36.783 47.7834C36.8046 47.7861 36.8335 47.7877 36.8708 47.7854C37.013 47.7735 37.1516 47.7446 37.3259 47.7083H37.3279C37.4665 47.6805 37.6161 47.6498 37.7742 47.6272H37.781C38.0903 47.5885 38.3568 47.5648 38.5808 47.5793C38.7825 47.5925 38.9742 47.6376 39.1423 47.7483L39.2126 47.8L39.2146 47.801C39.4118 47.9624 39.5088 48.183 39.5652 48.4075C39.6201 48.6263 39.6466 48.8907 39.6707 49.179L39.6833 49.3577C39.7031 49.7706 39.6553 50.1731 39.613 50.5295L39.614 50.5305C39.5709 50.9402 39.5269 51.3164 39.5583 51.6819L39.5593 51.6848C39.8549 55.4497 39.7912 59.1197 39.6931 62.1956C39.6854 62.4327 39.647 62.7184 39.613 62.9905V62.9954C39.571 63.3003 39.531 63.6095 39.5212 63.8938C39.5113 64.1829 39.5342 64.4094 39.5925 64.5637L39.6462 64.6799C39.6983 64.7692 39.7443 64.7864 39.7751 64.7961C39.8636 64.824 39.9904 64.8191 40.2585 64.7961L40.2673 64.7952C40.3211 64.792 40.3753 64.7879 40.4382 64.7825C40.4995 64.7772 40.5676 64.7717 40.6404 64.7678L40.6492 64.7668C41.6619 64.7389 42.4889 64.7041 43.2371 64.6487H43.239C44.1456 64.5869 45.0693 64.6042 45.946 64.6243C45.9598 64.3959 45.9766 64.01 45.9851 63.3684C45.9999 62.2543 45.9966 60.389 45.9441 57.2756C45.8881 53.766 45.7901 49.9552 45.7488 49.3059L45.7351 49.0959L45.7341 49.0901C45.7299 49.0064 45.7233 48.8928 45.7185 48.7795H45.6921V48.429C45.6921 48.167 45.7026 47.8449 45.948 47.6331C46.063 47.5338 46.1998 47.485 46.324 47.4543C46.4486 47.4236 46.5979 47.4028 46.7605 47.3821L46.783 47.3792H46.8191C47.3427 47.3115 47.8669 47.3354 48.3416 47.3616C48.312 47.3227 48.2799 47.2833 48.2449 47.2483L48.241 47.2444C47.7256 46.7127 47.2765 46.1267 46.8611 45.5491L46.4558 44.9768C45.9509 44.2604 45.3551 43.5892 44.7644 42.9211V42.9202C44.0611 42.1263 43.314 41.2872 42.7087 40.3362V40.3352C42.5693 40.1217 42.4663 40.1176 42.4587 40.1184H42.4529Z" fill="#231F20" stroke="black" stroke-width="0.7"/>
</g>
<defs>
<clipPath id="clip0_5918_11104">
<rect width="84" height="84" fill="white" transform="translate(0.5)"/>
</clipPath>
</defs>
</svg>
