<svg width="72" height="92" viewBox="0 0 72 92" fill="none" xmlns="http://www.w3.org/2000/svg">
<path d="M64.2089 20.6502H62.9593C61.313 20.6502 59.7852 21.1838 58.5447 22.0868C57.3681 19.469 54.7412 17.6448 51.6902 17.6448H50.4406C48.735 17.6448 47.157 18.2194 45.8983 19.1817C44.667 16.7144 42.1176 15.0179 39.176 15.0179H37.9219C36.5537 15.0179 35.2722 15.3873 34.1686 16.0303V7.51123C34.1686 3.37025 30.7983 0 26.6574 0H25.4078C21.2668 0 17.8965 3.37025 17.8965 7.51123V41.6926L14.5536 38.3497C11.717 35.513 6.76878 35.513 3.93212 38.3497L2.94705 39.3348C0.0465379 42.2353 -0.0127715 46.8414 2.81021 49.8149L17.6548 65.4485C18.9591 66.8212 19.9077 68.5086 20.4003 70.3419V84.4888C20.4003 88.6298 23.7705 92 27.9115 92H61.7052C65.8462 92 69.2164 88.6298 69.2164 84.4888V70.3191C70.8765 63.5969 71.7202 56.6831 71.7202 49.7602V28.166C71.7202 24.025 68.3499 20.6547 64.2089 20.6547V20.6502ZM5.53287 47.2291C4.1191 45.7423 4.15101 43.4393 5.60126 41.989L6.58636 41.0039C8.00469 39.5856 10.4765 39.5856 11.8948 41.0039L18.4438 47.5529C18.9819 48.091 19.7846 48.2506 20.4915 47.9588C21.1938 47.6669 21.6498 46.9828 21.6498 46.2257V7.51123C21.6498 5.44074 23.3327 3.75789 25.4032 3.75789H26.6528C28.7233 3.75789 30.4061 5.44074 30.4061 7.51123V37.5516C30.4061 38.5868 31.2453 39.4305 32.2851 39.4305C33.3249 39.4305 34.164 38.5914 34.164 37.5516V22.5337C34.164 20.4632 35.8469 18.7803 37.9174 18.7803H39.1715C41.242 18.7803 42.9248 20.4632 42.9248 22.5337V37.5516C42.9248 38.5868 43.764 39.4305 44.8038 39.4305C45.8436 39.4305 46.6827 38.5914 46.6827 37.5516V25.1606C46.6827 23.0901 48.3656 21.4072 50.436 21.4072H51.6857C53.7561 21.4072 55.439 23.0901 55.439 25.1606V39.4305C55.439 40.4658 56.2781 41.3095 57.3179 41.3095C58.3577 41.3095 59.1969 40.4703 59.1969 39.4305V28.166C59.1969 26.0955 60.8797 24.4126 62.9502 24.4126H64.1998C66.2703 24.4126 67.9531 26.0955 67.9531 28.166V49.7602C67.9531 55.9671 67.2463 62.1694 65.8462 68.2167H23.6565C22.9451 66.2283 21.8231 64.3995 20.3638 62.8626L5.51918 47.2291H5.53287ZM65.4585 84.4888C65.4585 86.5593 63.7757 88.2421 61.7052 88.2421H27.9115C25.841 88.2421 24.1581 86.5593 24.1581 84.4888V82.359H46.628C47.6632 82.359 48.5069 81.5199 48.5069 80.48C48.5069 79.4402 47.6678 78.6011 46.628 78.6011H24.1581V71.9701H65.4631V84.4842L65.4585 84.4888Z" fill="white"/>
</svg>
