<svg width="15" height="18" viewBox="0 0 15 18" fill="none" xmlns="http://www.w3.org/2000/svg">
<path d="M11.0735 5.69789L3.05773 6.6055C2.07903 6.71632 1.37548 7.59954 1.48629 8.57824L2.23924 15.228C2.35005 16.2067 3.23328 16.9102 4.21197 16.7994L12.2277 15.8918C13.2064 15.781 13.91 14.8978 13.7991 13.9191L13.0462 7.26933C12.9354 6.29063 12.0522 5.58708 11.0735 5.69789Z" fill="white" stroke="#A300C9" stroke-width="0.743087" stroke-miterlimit="10"/>
<path d="M5.62054 8.36887C5.45707 8.42386 5.25643 8.64827 5.28616 8.83107C5.62054 10.3187 5.4972 12.2418 5.86577 13.679C5.97872 14.1204 6.36661 14.1144 6.70843 13.9138C7.93898 13.193 9.15616 11.8748 10.4016 11.1109C10.8103 10.6085 10.4952 10.3589 10.0404 10.1285C8.76084 9.4835 7.29101 9.04062 6.00398 8.38522C5.8732 8.32874 5.75579 8.3228 5.62054 8.36887Z" fill="#A300C9"/>
<path d="M10.3205 1.26554L1.12907 4.78277C0.745777 4.92944 0.553959 5.35906 0.70063 5.74235L1.193 7.02904C1.33967 7.41233 1.76929 7.60415 2.15258 7.45748L11.344 3.94025C11.7273 3.79358 11.9192 3.36396 11.7725 2.98067L11.2801 1.69397C11.1334 1.31068 10.7038 1.11886 10.3205 1.26554Z" fill="white" stroke="#A300C9" stroke-width="0.743087" stroke-miterlimit="10"/>
<path d="M2.23511 4.43945L4.4599 6.49186" stroke="#A300C9" stroke-width="0.743087" stroke-miterlimit="10"/>
<path d="M5.17017 3.24146L7.39645 5.29386" stroke="#A300C9" stroke-width="0.743087" stroke-miterlimit="10"/>
<path d="M8.10693 2.10303L10.3317 4.15543" stroke="#A300C9" stroke-width="0.743087" stroke-miterlimit="10"/>
</svg>
