<svg width="14" height="15" viewBox="0 0 14 15" fill="none" xmlns="http://www.w3.org/2000/svg">
<path d="M7.00049 3.15088C8.87965 3.15088 10.3975 4.19744 11.4829 5.32568C12.0202 5.88417 12.434 6.4451 12.7134 6.8667C12.8109 7.01382 12.8903 7.14408 12.9536 7.24951C12.8903 7.35509 12.8111 7.48582 12.7134 7.6333C12.434 8.0549 12.0202 8.61582 11.4829 9.17432C10.3975 10.3026 8.87965 11.3491 7.00049 11.3491C5.1215 11.349 3.60438 10.3025 2.51904 9.17432C1.98177 8.61583 1.568 8.05491 1.28857 7.6333C1.19073 7.48567 1.11075 7.35515 1.04736 7.24951C1.11068 7.14402 1.19098 7.01397 1.28857 6.8667C1.56801 6.44508 1.98177 5.88416 2.51904 5.32568C3.60438 4.19751 5.1215 3.15101 7.00049 3.15088Z" stroke="#717B9E" stroke-width="1.3" stroke-linecap="round" stroke-linejoin="round"/>
<path d="M7.00081 9.03116C7.98448 9.03116 8.78189 8.23374 8.78189 7.25008C8.78189 6.26641 7.98448 5.46899 7.00081 5.46899C6.01714 5.46899 5.21973 6.26641 5.21973 7.25008C5.21973 8.23374 6.01714 9.03116 7.00081 9.03116Z" stroke="#717B9E" stroke-width="1.3" stroke-linecap="round" stroke-linejoin="round"/>
</svg>
